<svg fill="none" xmlns="http://www.w3.org/2000/svg" viewBox="0 0 186 23"><path d="M46.4 1.96h3.37L56.03 19h-3.4l-1.59-4.25h-5.95L43.53 19h-3.41l6.29-17.04Zm4.04 10.46L48.09 5.4l-2.45 7.03h4.8ZM57.5 1.48h3.21v13.49c0 .57.1.97.29 1.17.2.2.45.3.8.3a3.8 3.8 0 0 0 1.51-.34l.42 2.44a8.25 8.25 0 0 1-3.07.65c-1 0-1.79-.26-2.35-.79a3.12 3.12 0 0 1-.82-2.3V1.48ZM84.67 19h-3.21v-7.06c0-.99-.18-1.72-.53-2.18-.34-.48-.81-.72-1.42-.72-.62 0-1.22.25-1.8.74a3.95 3.95 0 0 0-1.2 1.9V19H73.3v-7.06c0-1-.18-1.74-.53-2.2-.34-.47-.81-.7-1.42-.7-.62 0-1.22.24-1.8.72a3.95 3.95 0 0 0-1.2 1.9V19h-3.21V6.42h2.9v2.33a4.9 4.9 0 0 1 1.92-1.87c.8-.45 1.72-.67 2.76-.67 1.04 0 1.85.25 2.42.77.6.5.97 1.14 1.13 1.9a5.26 5.26 0 0 1 4.63-2.66c.79-.01 1.42.13 1.9.42.5.27.88.65 1.15 1.13.27.46.46.99.55 1.58.12.6.17 1.2.17 1.8V19ZM86.6 15.28c0-.82.23-1.53.68-2.14.46-.62 1.1-1.1 1.92-1.44.82-.33 1.75-.5 2.8-.5.54 0 1.07.04 1.62.12.54.08 1.01.2 1.41.38v-.67c0-.8-.24-1.41-.72-1.85-.46-.43-1.16-.64-2.09-.64-.68 0-1.34.12-1.96.36-.63.24-1.28.59-1.97 1.05l-1.03-2.11a9.3 9.3 0 0 1 5.3-1.63c1.8 0 3.18.45 4.18 1.34 1 .9 1.5 2.18 1.5 3.84v4.01c0 .34.06.58.18.72s.32.23.6.26V19a24.74 24.74 0 0 1-1.37.17c-.64 0-1.13-.15-1.47-.43a1.86 1.86 0 0 1-.6-1.06l-.07-.65a5.8 5.8 0 0 1-4.54 2.2c-.83.01-1.58-.16-2.25-.5a4.17 4.17 0 0 1-1.56-1.41 3.86 3.86 0 0 1-.55-2.04Zm7.83.65c.18-.2.32-.39.43-.58.12-.19.17-.37.17-.53v-1.27c-.38-.16-.8-.28-1.25-.36-.44-.1-.87-.14-1.27-.14a3.6 3.6 0 0 0-2.06.55c-.53.35-.8.82-.8 1.42 0 .32.1.62.27.9.18.3.43.53.77.7.33.18.73.27 1.2.27.48 0 .95-.09 1.41-.27.47-.19.84-.42 1.13-.7ZM108.67 18.35l-.98.39c-.39.14-.8.25-1.25.33-.43.1-.87.15-1.32.15-.6 0-1.14-.1-1.63-.32-.5-.2-.9-.53-1.2-.98a3.37 3.37 0 0 1-.43-1.8V8.9h-1.66V6.42h1.66V2.34h3.21v4.08h2.64V8.9h-2.64v6.14c.02.43.14.74.36.94.23.19.5.28.84.28.34 0 .67-.05.99-.16.32-.12.57-.21.76-.3l.65 2.55ZM116.04 19.24a6.42 6.42 0 0 1-6.17-3.98c-.3-.79-.46-1.61-.46-2.48 0-1.2.27-2.3.8-3.28a6.2 6.2 0 0 1 2.3-2.38c1-.6 2.2-.91 3.55-.91 1.38 0 2.55.3 3.53.91a6.55 6.55 0 0 1 2.95 6.62h-9.72c.07.64.25 1.2.55 1.68.32.48.72.85 1.2 1.1a3.72 3.72 0 0 0 3.38-.1c.58-.3.98-.72 1.18-1.24l2.76.77c-.3.64-.74 1.21-1.32 1.7-.56.5-1.22.9-1.99 1.18-.77.27-1.61.41-2.54.41Zm-3.29-7.54h6.58a3.63 3.63 0 0 0-.56-1.65 3.2 3.2 0 0 0-2.76-1.51 3.16 3.16 0 0 0-2.73 1.5 3.82 3.82 0 0 0-.53 1.66ZM132.06 9.2c-.97 0-1.85.2-2.62.58-.76.37-1.31.9-1.65 1.61V19h-3.22V6.42h2.96v2.7a5.68 5.68 0 0 1 1.7-2.05c.69-.5 1.42-.77 2.18-.81h.41c.1 0 .18 0 .24.02v2.93ZM139.4 19V1.96h7.22c.78 0 1.5.16 2.16.48a6.07 6.07 0 0 1 2.86 3.12 5.86 5.86 0 0 1-2.11 6.91c-.8.55-1.72.82-2.8.82h-4.02V19h-3.32Zm3.3-8.62h3.84c.4 0 .77-.1 1.09-.33.31-.23.57-.55.76-.96.2-.43.3-.92.3-1.47 0-.59-.12-1.1-.34-1.5a2.19 2.19 0 0 0-1.95-1.26h-3.7v5.52ZM154.35 19V1.96h7.53c.79 0 1.5.16 2.16.48a5.7 5.7 0 0 1 2.86 3.12 5.82 5.82 0 0 1-1.03 5.88c-.47.5-1.01.88-1.64 1.15l3.9 6.41h-3.66l-3.5-5.71h-3.31V19h-3.31Zm3.3-8.62h4.16c.42 0 .78-.12 1.1-.36.32-.25.58-.59.77-1 .2-.42.29-.88.29-1.4a2.85 2.85 0 0 0-1.2-2.4c-.34-.24-.7-.36-1.1-.36h-4.01v5.52ZM177.49 19.12a7.93 7.93 0 0 1-6.03-2.66 9.52 9.52 0 0 1-1.68-2.79 8.82 8.82 0 0 1 1.78-9.19 8.24 8.24 0 0 1 2.64-1.92 7.82 7.82 0 0 1 3.36-.72 7.5 7.5 0 0 1 3.36.74c1.02.5 1.9 1.16 2.61 2a9.52 9.52 0 0 1 1.68 2.78 8.63 8.63 0 0 1-.02 6.4 9.09 9.09 0 0 1-1.75 2.77 8.07 8.07 0 0 1-5.95 2.59Zm-4.95-8.64a6.86 6.86 0 0 0 1.3 3.98 5 5 0 0 0 1.56 1.28c.62.3 1.32.45 2.1.45.8 0 1.52-.16 2.15-.48a4.8 4.8 0 0 0 1.56-1.32 6.63 6.63 0 0 0 .91-6.02 5.57 5.57 0 0 0-.99-1.83 4.31 4.31 0 0 0-1.56-1.27c-.6-.32-1.3-.48-2.06-.48a4.48 4.48 0 0 0-3.7 1.8 6.21 6.21 0 0 0-1.27 3.89Z" fill="#1D1D1D"/><path d="M17.76 1.81a1.23 1.23 0 1 0-2.46 0v18.7a1.23 1.23 0 0 0 2.46 0V1.8Z" fill="url(#a)"/><path d="M17.42 2.49A1.23 1.23 0 1 0 15.48.97L.76 19.68a1.23 1.23 0 0 0 1.94 1.53L17.42 2.49Z" fill="#1E60F6"/><path d="M25.34 1.81a1.23 1.23 0 0 0-2.46 0v18.7a1.23 1.23 0 0 0 2.46 0V1.8Z" fill="#CC623E"/><path d="M32.68 1.81a1.23 1.23 0 0 0-2.46 0v18.7a1.23 1.23 0 0 0 2.46 0V1.8Z" fill="#1E60F6"/><path d="M32.45 2.56a1.24 1.24 0 0 0-1.95-1.53L15.7 19.88a1.24 1.24 0 1 0 1.95 1.53l14.8-18.85Z" fill="#1E60F6"/><path d="M25.05 2.49A1.23 1.23 0 0 0 23.12.97L8.37 19.72a1.23 1.23 0 0 0 1.93 1.53L25.05 2.49Z" fill="#CC623E"/><defs><linearGradient id="a" x1="16.07" y1="21.45" x2="16.46" y2="12.75" gradientUnits="userSpaceOnUse"><stop stop-color="#377AFF"/><stop offset="1" stop-color="#1F60F6"/></linearGradient></defs></svg>