<?xml version="1.0" standalone="no"?>
<!DOCTYPE svg PUBLIC "-//W3C//DTD SVG 20010904//EN"
 "http://www.w3.org/TR/2001/REC-SVG-20010904/DTD/svg10.dtd">
<svg version="1.0" xmlns="http://www.w3.org/2000/svg"
 width="1088.000000pt" height="1088.000000pt" viewBox="0 0 1088.000000 1088.000000"
 preserveAspectRatio="xMidYMid meet">
<metadata>
Created by potrace 1.14, written by Peter Selinger 2001-2017
</metadata>
<g transform="translate(0.000000,1088.000000) scale(0.100000,-0.100000)"
fill="#000000" stroke="none">
<path d="M5173 8951 c-64 -16 -139 -61 -189 -113 -28 -29 -407 -505 -841
-1058 -435 -553 -1493 -1898 -2353 -2990 -1114 -1415 -1571 -2004 -1594 -2050
-28 -60 -31 -73 -31 -165 0 -92 3 -105 32 -166 110 -225 398 -295 595 -144 27
20 203 235 445 542 1325 1685 3239 4119 3427 4360 122 155 224 282 229 283 4
0 7 -409 7 -909 l0 -909 -1120 -1424 c-616 -782 -1132 -1446 -1146 -1474 -50
-102 -49 -237 2 -342 73 -150 247 -241 408 -214 85 14 164 54 219 111 25 25
377 469 783 986 405 517 763 972 793 1010 l56 70 5 -951 5 -951 40 -78 c53
-105 129 -186 213 -227 62 -31 73 -33 172 -33 118 0 168 16 245 79 22 19 423
521 890 1116 l850 1082 5 -958 5 -959 23 -55 c66 -162 206 -255 377 -252 159
3 296 98 357 249 l23 58 3 1465 2 1465 378 481 c207 264 557 709 777 990 l400
509 5 -2460 5 -2460 32 -67 c59 -126 163 -205 299 -229 152 -27 334 63 403
199 54 106 51 -86 51 3111 0 2129 3 2972 11 3018 29 166 -69 346 -229 421 -50
24 -69 27 -162 27 -98 0 -109 -2 -172 -33 -48 -23 -83 -50 -122 -95 -31 -34
-419 -525 -863 -1092 l-808 -1030 -5 965 c-6 1075 0 996 -75 1105 -141 205
-451 234 -617 59 -42 -44 -342 -424 -1411 -1786 -172 -219 -315 -398 -319
-398 -4 0 -9 451 -10 1003 l-3 1002 -33 67 c-43 88 -147 187 -229 218 -63 24
-185 35 -240 21z m2147 -2395 l0 -873 -812 -1036 c-447 -570 -816 -1036 -820
-1037 -5 0 -8 393 -8 873 l0 872 746 950 c940 1196 884 1125 889 1125 3 0 5
-393 5 -874z"/>
</g>
</svg>
