<svg fill="none" xmlns="http://www.w3.org/2000/svg" viewBox="0 0 64 64"><path d="M59.6 56.6c-.9 1.1-1.9 2.1-3 3a16.7 16.7 0 0 1-8.8 3c-3.9.4-9 .4-15.8.4-6.8 0-11.9 0-15.8-.4-4-.5-6.6-1.4-8.8-3-1.1-.9-2.1-1.9-3-3l-.8.6.8-.6a16.7 16.7 0 0 1-3-8.8C1 44 1 38.8 1 32c0-6.8 0-11.9.4-15.8.5-4 1.4-6.6 3-8.8.9-1.1 1.9-2.1 3-3 2.2-1.6 4.9-2.5 8.8-3C20 1 25.2 1 32 1c6.8 0 11.9 0 15.8.4 4 .5 6.6 1.4 8.8 3l.6-.8-.6.8c1.1.9 2.1 1.9 3 3 1.6 2.2 2.5 4.9 3 8.8.4 3.9.4 9 .4 15.8 0 6.8 0 11.9-.4 15.8-.5 4-1.4 6.6-3 8.8Z" fill="#fff" stroke="#DDD" stroke-width="3"/><path d="M48 31.9c0-1.1-.1-2.1-.3-3.1H32.3V35h8.9c-.4 2-1.6 3.7-3.3 4.9V44h5.3c3-2.9 4.8-7.1 4.8-12.1Z" fill="#4285F4"/><path d="M32.3 48c4.5 0 8.2-1.5 10.9-4l-5.3-4.1a9.8 9.8 0 0 1-14.7-5.3h-5.4V39C20.4 44.3 26 48 32.3 48Z" fill="#34A853"/><path d="M23.2 34.6a9.7 9.7 0 0 1 0-6.2V24h-5.4a16.4 16.4 0 0 0 0 14.8l5.4-4.3Z" fill="#FBBC05"/><path d="M32.3 21.5c2.5 0 4.6.9 6.3 2.5l4.7-4.7a15.6 15.6 0 0 0-11-4.3c-6.3 0-11.9 3.7-14.5 9.1l5.4 4.3c1.3-4 4.9-6.9 9.1-6.9Z" fill="#EA4335"/></svg>