<svg fill="none" xmlns="http://www.w3.org/2000/svg" viewBox="0 0 64 64"><path d="M0 32C0 18.4 0 11.5 3.6 6.8c1-1.2 2-2.3 3.2-3.2C11.5 0 18.4 0 32 0s20.5 0 25.2 3.6c1.2 1 2.3 2 3.2 3.2C64 11.5 64 18.4 64 32s0 20.5-3.6 25.2c-1 1.2-2 2.3-3.2 3.2C52.5 64 45.6 64 32 64s-20.5 0-25.2-3.6c-1.2-1-2.3-2-3.2-3.2C0 52.5 0 45.6 0 32Z" fill="#005FF9"/><path d="M38 32a6 6 0 1 1-12 0 6 6 0 0 1 12 0Zm-6-20a20 20 0 1 0 11.3 36.5l-2.7-3.1a16 16 0 1 1 7-10c-.6 2-2 2.7-3.1 2.6-1.1 0-2.4-.8-2.4-2.7V32a10.1 10.1 0 1 0-3 7.1 6.5 6.5 0 0 0 5.6 3c1.5 0 2.9-.4 4-1.3a7.5 7.5 0 0 0 2.9-4.7A20 20 0 0 0 32 12Z" fill="#FF9E00"/></svg>