<svg fill="none" xmlns="http://www.w3.org/2000/svg" viewBox="0 0 64 64"><path d="M0 30.7C0 16.2 0 9 4.5 4.5S16.2 0 30.7 0h2.6C47.8 0 55 0 59.5 4.5S64 16.2 64 30.7v2.6c0 14.5 0 21.7-4.5 26.2S47.8 64 33.3 64h-2.6C16.2 64 9 64 4.5 59.5S0 47.8 0 33.3v-2.6Z" fill="#FE7D00"/><path d="M31.3 11a11 11 0 0 1 11.1 10.9c0 6-5 10.9-11 10.9a11 11 0 0 1-11.2-11c0-6 5-10.8 11.1-10.8Zm0 15.4c2.6 0 4.6-2 4.6-4.5s-2-4.5-4.6-4.5c-2.5 0-4.6 2-4.6 4.5s2 4.5 4.6 4.5Z" fill="#fff"/><path d="M27.4 41.4c-4.5-.9-7.1-3-7.3-3a3 3 0 0 1-.4-4.2 3 3 0 0 1 4.2-.5s2.9 2.2 7.6 2.2c4.7 0 7.6-2.1 7.6-2.2a3 3 0 0 1 4.2.5 3 3 0 0 1-.4 4.2c-.2 0-3 2.2-7.5 3l6.3 6.6a3 3 0 0 1 0 4.2 3 3 0 0 1-4.3-.1l-6-6.2-6.5 6.2a3 3 0 0 1-4.2 0 3 3 0 0 1 0-4.2l6.7-6.5Z" fill="#fff"/></svg>