<svg width="24" height="24" viewBox="0 0 24 24" fill="none" xmlns="http://www.w3.org/2000/svg">
<path fill-rule="evenodd" clip-rule="evenodd" d="M7 17V20.5H8.68V17H12V16H8.68V13.752H14.2C15.192 13.752 16.056 13.496 16.792 12.984C17.528 12.472 18.096 11.808 18.496 10.992C18.912 10.16 19.12 9.28 19.12 8.352C19.12 7.696 18.992 7.056 18.736 6.432C18.48 5.792 18.128 5.216 17.68 4.704C17.232 4.176 16.696 3.76 16.072 3.456C15.464 3.152 14.792 3 14.056 3H7V16H4V17H7ZM14.128 12.264H8.68V4.488H13.984C14.608 4.488 15.176 4.664 15.688 5.016C16.216 5.352 16.64 5.816 16.96 6.408C17.28 7 17.44 7.648 17.44 8.352C17.44 9.04 17.304 9.68 17.032 10.272C16.76 10.864 16.376 11.344 15.88 11.712C15.384 12.08 14.8 12.264 14.128 12.264Z" fill="#1D1D1D"/>
</svg>
