<svg fill="none" xmlns="http://www.w3.org/2000/svg" viewBox="0 0 20 24"><path fill-rule="evenodd" clip-rule="evenodd" d="M14 0a1 1 0 0 1 1 1v2h4a1 1 0 1 1 0 2h-4v2a1 1 0 1 1-2 0V1a1 1 0 0 1 1-1ZM0 4a1 1 0 0 1 1-1h9a1 1 0 1 1 0 2H1a1 1 0 0 1-1-1Zm6 4a1 1 0 0 1 1 1v6a1 1 0 1 1-2 0v-2H1a1 1 0 1 1 0-2h4V9a1 1 0 0 1 1-1Zm3 4a1 1 0 0 1 1-1h9a1 1 0 1 1 0 2h-9a1 1 0 0 1-1-1Zm3 4a1 1 0 0 1 1 1v2h6a1 1 0 1 1 0 2h-6v2a1 1 0 1 1-2 0v-6a1 1 0 0 1 1-1ZM0 20a1 1 0 0 1 1-1h7a1 1 0 1 1 0 2H1a1 1 0 0 1-1-1Z" fill="#000"/></svg>