<svg fill="none" xmlns="http://www.w3.org/2000/svg" viewBox="0 0 64 64"><path d="M0 30.7v-1C0 16 .1 9 4.5 4.5 9 0 16.2 0 30.7 0h2.6C47.8 0 55 0 59.5 4.5S64 16.2 64 30.7v2.6c0 14.5 0 21.7-4.5 26.2S47.8 64 33.3 64h-2.6C16.2 64 9 64 4.5 59.5.8 55.8 0 50.2 0 40.2v-9.5Z" fill="url(#a)"/><path fill-rule="evenodd" clip-rule="evenodd" d="M30.4 24.1V24a12.2 12.2 0 1 1 11.8 12.2l-11.2 8a9 9 0 0 1-12.3 8.4 8.9 8.9 0 0 1-5.2-6.3L0 40.3V29.6L17.3 37a8.7 8.7 0 0 1 5.2-1.5l7.9-11.4ZM19.5 50.7a6.9 6.9 0 1 0 .2-12.7l4.1 1.7A5 5 0 0 1 20 49l-4-1.6c.7 1.4 2 2.7 3.5 3.3Zm15-26.7a8.1 8.1 0 1 0 16.1 0 8.1 8.1 0 0 0-16.2 0Zm8-6.1a6 6 0 1 0 0 12.2 6 6 0 0 0 0-12.2Z" fill="#fff"/><defs><linearGradient id="a" x1="32" y1="0" x2="32" y2="64" gradientUnits="userSpaceOnUse"><stop stop-color="#111D2E"/><stop offset=".2" stop-color="#051839"/><stop offset=".4" stop-color="#0A1B48"/><stop offset=".6" stop-color="#132E62"/><stop offset=".7" stop-color="#144B7E"/><stop offset=".9" stop-color="#136497"/><stop offset="1" stop-color="#1387B8"/></linearGradient></defs></svg>