<svg fill="none" xmlns="http://www.w3.org/2000/svg" viewBox="0 0 44 36"><path fill-rule="evenodd" clip-rule="evenodd" d="M16.5 3a5.83 5.83 0 1 0 0 11.67A5.83 5.83 0 0 0 16.5 3ZM7.67 8.83a8.83 8.83 0 1 1 17.66 0 8.83 8.83 0 0 1-17.66 0Zm20.21-7.46A1.5 1.5 0 0 1 29.71.29a8.83 8.83 0 0 1 0 17.11 1.5 1.5 0 1 1-.75-2.9 5.83 5.83 0 0 0 0-11.3 1.5 1.5 0 0 1-1.08-1.83ZM2.92 24.59A8.83 8.83 0 0 1 9.17 22h14.66a8.83 8.83 0 0 1 8.84 8.83v3.67a1.5 1.5 0 0 1-3 0v-3.67A5.83 5.83 0 0 0 23.83 25H9.17a5.83 5.83 0 0 0-5.84 5.83v3.67a1.5 1.5 0 0 1-3 0v-3.67c0-2.34.93-4.59 2.6-6.24Zm32.3-1.23a1.5 1.5 0 0 1 1.82-1.07 8.83 8.83 0 0 1 6.63 8.54v3.67a1.5 1.5 0 0 1-3 0v-3.67a5.83 5.83 0 0 0-4.38-5.64 1.5 1.5 0 0 1-1.08-1.83Z" fill="#000"/></svg>