<svg fill="none" xmlns="http://www.w3.org/2000/svg" viewBox="0 0 64 64"><path d="M0 30.7C0 16.2 0 9 4.5 4.5S16.2 0 30.7 0h2.6C47.8 0 55 0 59.5 4.5S64 16.2 64 30.7v2.6c0 14.5 0 21.7-4.5 26.2S47.8 64 33.3 64h-2.6C16.2 64 9 64 4.5 59.5S0 47.8 0 33.3v-2.6Z" fill="#2787F5"/><path fill-rule="evenodd" clip-rule="evenodd" d="M17.3 20h-4.6c-1.4 0-1.6.6-1.6 1.3 0 1.3 1.5 7.4 7.3 15.5 3.9 5.5 9.3 8.5 14.3 8.5 3 0 3.3-.6 3.3-1.8v-4.2c0-1.3.3-1.6 1.2-1.6.7 0 2 .4 4.7 3 3.1 3.2 3.7 4.6 5.4 4.6H52c1.3 0 2-.6 1.6-2a20 20 0 0 0-4-5.4c-1-1.3-2.6-2.7-3.1-3.4-.7-.9-.5-1.3 0-2 0 0 5.7-8 6.3-10.8.3-1 0-1.7-1.5-1.7h-4.6a2 2 0 0 0-2 1.3s-2.4 5.8-5.8 9.6c-1 1-1.6 1.4-2.2 1.4-.3 0-.7-.4-.7-1.3v-9.3c0-1.2-.3-1.7-1.3-1.7h-7.4c-.7 0-1.2.6-1.2 1 0 1.2 1.7 1.5 1.9 4.6v6.9c0 1.5-.3 1.8-.9 1.8-1.5 0-5.4-5.8-7.7-12.5-.4-1.3-.9-1.8-2-1.8Z" fill="#fff"/></svg>