<svg fill="none" xmlns="http://www.w3.org/2000/svg" viewBox="0 0 64 64"><path d="M0 32C0 18.4 0 11.5 3.6 6.8c1-1.2 2-2.3 3.2-3.2C11.5 0 18.4 0 32 0s20.5 0 25.2 3.6c1.2 1 2.3 2 3.2 3.2C64 11.5 64 18.4 64 32s0 20.5-3.6 25.2c-1 1.2-2 2.3-3.2 3.2C52.5 64 45.6 64 32 64s-20.5 0-25.2-3.6c-1.2-1-2.3-2-3.2-3.2C0 52.5 0 45.6 0 32Z" fill="#000"/><path d="M49.5 32a17.5 17.5 0 1 0-35 0 17.5 17.5 0 0 0 35 0Z" fill="#FC3F1D"/><path d="M34.5 42.5H38v-21h-5.3c-5.3 0-8.1 2.8-8.1 6.8 0 3.3 1.5 5.1 4.2 7.1l-4.7 7h4l5.2-7.8-1.8-1.3c-2.2-1.5-3.3-2.7-3.3-5.2 0-2.2 1.5-3.7 4.5-3.7h1.7v18Z" fill="#fff"/></svg>