<svg fill="none" xmlns="http://www.w3.org/2000/svg" viewBox="0 0 500 373"><path d="M500 327.4H0v.25h500v-.25ZM449.9 343.49h-21.68v.25h21.68v-.25ZM344.67 338.31h-34.11v.25h34.11v-.25ZM441.12 334.21h-44.53v.25h44.53v-.25ZM173.02 339.25h-11.14v.25h11.14v-.25ZM152.97 339.25h-38.39v.25h38.39v-.25ZM94.01 335.03h-27.7v.25h27.7v-.25ZM237 282.8H43.91a5.71 5.71 0 0 1-5.7-5.71V5.66A5.71 5.71 0 0 1 43.91 0H237a5.71 5.71 0 0 1 5.71 5.71v271.38a5.72 5.72 0 0 1-5.71 5.71ZM43.91.2a5.46 5.46 0 0 0-5.45 5.46v271.43a5.46 5.46 0 0 0 5.45 5.46H237a5.47 5.47 0 0 0 5.46-5.46V5.66A5.47 5.47 0 0 0 237 .2H43.91ZM453.31 282.8h-193.1a5.72 5.72 0 0 1-5.71-5.71V5.66A5.72 5.72 0 0 1 260.21 0h193.1A5.71 5.71 0 0 1 459 5.66v271.43a5.71 5.71 0 0 1-5.69 5.71ZM260.21.2a5.47 5.47 0 0 0-5.46 5.46v271.43a5.47 5.47 0 0 0 5.46 5.46h193.1a5.47 5.47 0 0 0 5.46-5.46V5.66A5.47 5.47 0 0 0 453.31.2h-193.1Z" fill="#EBEBEB"/><path d="m216.07 145.88.45-13.14-8.06-2.64a79.14 79.14 0 0 0-2.16-13.2l6.84-5-4.64-12.34-8.46.68c-2-3.98-4.35-7.77-7-11.35l4.38-7.31-9-9.61-7.56 3.87A81.83 81.83 0 0 0 170 68l1.22-8.4-12-5.44-5.5 6.44a80.65 80.65 0 0 0-13-3l-2-8.23-13.18-.45-2.6 8.07a80.47 80.47 0 0 0-13.19 2.15l-5.08-6.8-12.34 4.61.68 8.46a80.12 80.12 0 0 0-11.35 7.07L74.3 68l-9.65 9 3.87 7.6c-2.9 3.38-5.52 7-7.8 10.84l-8.39-1.26-5.48 12 6.48 5.49a78.52 78.52 0 0 0-3 13L42 126.76l-.45 13.14 8.1 2.64a77.4 77.4 0 0 0 2.15 13.19l-6.84 5 4.65 12.35 8.46-.68c2 3.98 4.34 7.78 7 11.35l-4.39 7.31 9 9.61 7.56-3.87c3.4 2.9 7.02 5.52 10.84 7.83l-1.26 8.39 12 5.45 5.53-6.44a81.65 81.65 0 0 0 13 3.05l2 8.23 13.18.45 2.6-8.07a81.54 81.54 0 0 0 13.2-2.15l5 6.8 12.34-4.61-.64-8.46a83.39 83.39 0 0 0 11.35-7.07l7.27 4.38 9.65-9-3.87-7.6c2.9-3.38 5.52-7 7.8-10.84l8.39 1.26 5.48-12-6.48-5.5a77.3 77.3 0 0 0 3.05-13l8.4-2.02Zm-88.79 42.57A52.15 52.15 0 1 1 130.8 84.2a52.15 52.15 0 0 1-3.52 104.25ZM441 102.42l3.31-3.09-1.31-2.61c1-1.17 1.9-2.42 2.69-3.74l2.9.43 1.87-4.14-2.22-1.89a26.9 26.9 0 0 0 1.05-4.49l2.85-.71.14-4.54-2.78-.9a28.36 28.36 0 0 0-.74-4.56l2.35-1.75-1.6-4.25-2.91.23a28.22 28.22 0 0 0-2.43-3.92l1.51-2.5-3.11-3.32-2.6 1.33c-1.17-1-2.42-1.9-3.74-2.69l.42-2.9-4.13-1.89-1.9 2.23c-1.47-.46-2.97-.8-4.49-1l-.71-2.84-4.54-.17-.91 2.8a27 27 0 0 0-4.54.74l-1.74-2.35-4.26 1.59.24 2.92c-1.38.7-2.69 1.5-3.92 2.43l-2.52-1.51-3.32 3.09L401.2 61c-1 1.17-1.91 2.42-2.7 3.74l-2.89-.43-1.88 4.14 2.23 1.9c-.46 1.46-.8 2.96-1 4.48l-2.86.71-.14 4.54 2.79.9c.11 1.54.36 3.06.73 4.56l-2.36 1.74 1.6 4.25 2.92-.22c.7 1.37 1.51 2.68 2.43 3.92l-1.51 2.5 3.11 3.32 2.6-1.33c1.17 1 2.42 1.9 3.74 2.69l-.43 2.89 4.14 1.89 1.9-2.22c1.47.45 2.97.79 4.49 1l.71 2.84 4.54.17.91-2.8c1.53-.12 3.05-.36 4.54-.74l1.74 2.35 4.26-1.59-.23-2.92a26.7 26.7 0 0 0 3.91-2.43l2.51 1.57Zm-23.62-19.13a6.47 6.47 0 1 1 4.48 2.08 6.45 6.45 0 0 1-4.52-2.08h.04ZM320 237.34l-10.34-7.15a56.31 56.31 0 0 0-4.16-10.77l2.65-10.4-15-16.06-10.56 1.93a56.33 56.33 0 0 0-10.47-4.89l-6.42-10.81-22-.75-7.14 10.34a56.5 56.5 0 0 0-10.76 4.15l-10.4-2.65-16.06 15 1.93 10.54a56.27 56.27 0 0 0-4.88 10.49l-10.81 6.42-.75 22 10.35 7.14a54.8 54.8 0 0 0 4.15 10.82L196.65 283l15 16.06 10.49-1.92a57.18 57.18 0 0 0 10.54 4.9l6.41 10.79 22 .76 7.13-10.34c3.75-1.01 7.4-2.4 10.86-4.16l10.34 2.64 16.07-15-1.93-10.54a55.37 55.37 0 0 0 4.88-10.5l10.81-6.42.75-21.93Zm-68.45 33.39a24.71 24.71 0 1 1 1.7-49.39 24.71 24.71 0 0 1-1.71 49.39h.01ZM343.55 175h-.07l-17.32-.59a2.08 2.08 0 0 1-1.74-1l-4.67-7.85a47.84 47.84 0 0 1-7.28-3.38l-7.47 1.29a2.1 2.1 0 0 1-1.92-.64l-11.83-12.66a2.1 2.1 0 0 1-.5-2l1.89-7.41a45.46 45.46 0 0 1-2.86-7.47l-7.53-5.2a2.1 2.1 0 0 1-.91-1.81l.59-17.32a2.14 2.14 0 0 1 1-1.74l7.87-4.67c.9-2.51 2.03-4.94 3.37-7.25l-1.38-7.53a2.1 2.1 0 0 1 .64-1.93l12.66-11.82a2.11 2.11 0 0 1 2-.51l7.44 1.9a45.82 45.82 0 0 1 7.45-2.87l5.2-7.53a2 2 0 0 1 1.81-.91l17.31.6a2.11 2.11 0 0 1 1.75 1l4.67 7.86a46.4 46.4 0 0 1 7.22 3.38l7.56-1.39a2.1 2.1 0 0 1 1.92.64l11.83 12.66a2.11 2.11 0 0 1 .5 2l-1.9 7.43a46.64 46.64 0 0 1 2.88 7.45l7.52 5.2a2.1 2.1 0 0 1 .91 1.81l-.59 17.31a2.17 2.17 0 0 1-1 1.75l-7.87 4.67a46.53 46.53 0 0 1-3.37 7.24l1.38 7.54a2.09 2.09 0 0 1-.64 1.92L367.33 165a2.1 2.1 0 0 1-2 .5l-7.4-1.89a47.53 47.53 0 0 1-7.49 2.87l-5.15 7.52a2.13 2.13 0 0 1-1.74 1Zm-16.09-4.77 15 .51 5-7.19a2 2 0 0 1 1.19-.84 43.87 43.87 0 0 0 8.15-3.13c.45-.22.97-.27 1.46-.15l7 1.79 11-10.25-1.26-7.23c-.1-.5 0-1.03.26-1.47 1.49-2.48 2.7-5.1 3.65-7.83.16-.5.5-.91.94-1.18l7.53-4.46.51-15-7.2-5a2.11 2.11 0 0 1-.81-1.07v-.17a43 43 0 0 0-3.12-8 2.11 2.11 0 0 1-.16-1.48l1.8-7.08-10.25-11-7.19 1.32c-.5.1-1.02 0-1.46-.26a42.3 42.3 0 0 0-7.84-3.67c-.16-.05-.3-.12-.45-.2a2.1 2.1 0 0 1-.7-.72L346 68.92l-15-.52-5 7.21c-.3.42-.74.72-1.24.85-2.78.76-5.49 1.8-8.06 3.11-.45.23-.98.29-1.47.16l-7.08-1.8-11 10.25 1.32 7.17c.08.45.01.92-.19 1.33l-.1.17a41.55 41.55 0 0 0-3.65 7.86c-.17.47-.5.87-.92 1.12l-7.53 4.47-.51 15 7.21 5c.41.28.7.7.84 1.18.75 2.8 1.8 5.53 3.11 8.12a2.25 2.25 0 0 1 .17 1.46l-1.8 7 10.25 11 7.14-1.31c.5-.1 1.01 0 1.45.26a43.28 43.28 0 0 0 7.89 3.67 2 2 0 0 1 1.17.93l4.46 7.62Zm9.27-18.97h-1.11a31.53 31.53 0 1 1 1.11 0Zm0-59.09a27.55 27.55 0 1 0 .95 0h-.95Z" fill="#EBEBEB"/><path d="m383.44 50.32-7.18-1.92-1.92-7.18 2.81-2.8 2.96 6.13 6.14 2.97-2.81 2.8Z" fill="#E0E0E0"/><path d="M383.88 45.52a3.34 3.34 0 1 0-4.73-4.73l3.57-5.36 4.78 2.42 1.05 5-4.67 2.67Z" fill="#E0E0E0"/><path d="m376.58 39 5.26-5.26 7.16 1.91 1.93 7.17-5.26 5.26-7.17-1.93-1.92-7.15Zm9.55 4.3a3.35 3.35 0 1 0-4.74 0 3.37 3.37 0 0 0 4.74-.02v.02Z" fill="#F0F0F0"/><path d="m90.22 241.71 3.85-1.04 1.03-3.85-1.5-1.5-1.59 3.29-3.3 1.59 1.51 1.51Z" fill="#E0E0E0"/><path d="M90 239.13a1.8 1.8 0 0 1 2.54-2.54l-1.91-2.87L88 235l-.56 2.7 2.56 1.43Z" fill="#E0E0E0"/><path d="m93.9 235.62-2.82-2.82-3.85 1-1 3.85L89 240.5l3.85-1 1.05-3.88Zm-5.12 2.31a1.8 1.8 0 0 1 1.25-3.15 1.8 1.8 0 0 1 1.2 3.07 1.8 1.8 0 0 1-2.45.08ZM76.36 30.66l3.2 3.2a2.14 2.14 0 0 0 3 0 2.15 2.15 0 0 0 0-3l-3.19-3.19a2.15 2.15 0 0 0-3 0 2.14 2.14 0 0 0-.01 2.99Z" fill="#F0F0F0"/><path d="M74.11 22.71a4.45 4.45 0 1 1-3 5.78 4.59 4.59 0 0 1 3-5.78Z" fill="#E0E0E0"/><path d="m70.63 27.95.46 1.3 9.5-3.42-.45-1.29-9.51 3.41Z" fill="#F0F0F0"/><path d="M250 372.56c107.08 0 193.89-5.07 193.89-11.32s-86.8-11.32-193.89-11.32c-107.08 0-193.89 5.07-193.89 11.32s86.8 11.32 193.89 11.32Z" fill="#F5F5F5"/><path d="M86.72 65.65c-1-4.41-.56-8.11 1.34-11.13 1.9-3.02 5-5 9.41-6s8.22-.6 11.2 1.26c2.98 1.86 5 5 6 9.3.7 2.65.76 5.44.17 8.12a11.64 11.64 0 0 1-3.53 5.76 15.53 15.53 0 0 1-7.12 3.38c-2.57.68-5.27.78-7.88.27a11.72 11.72 0 0 1-5.9-3.5 15.67 15.67 0 0 1-3.69-7.46Zm8.34-1.86c.62 2.72 1.57 4.56 2.85 5.52a5.89 5.89 0 0 0 8.3-1.84c.72-1.39.73-3.6.05-6.61-.58-2.54-1.52-4.28-2.81-5.22a5.36 5.36 0 0 0-4.56-.81 5.2 5.2 0 0 0-3.65 2.7c-.74 1.47-.81 3.47-.18 6.26ZM118.59 62.35a10 10 0 0 1 1.35-8.06 11.56 11.56 0 0 1 7.49-4.75c3.91-.89 7.13-.42 9.64 1.39a10.9 10.9 0 0 1 2.64 14.27c-1.56 2.38-4.1 3.97-7.62 4.76-2.71.76-5.6.52-8.16-.66a9.86 9.86 0 0 1-5.34-6.95Zm7.51-1.73c.2 1.4.89 2.68 1.93 3.63a3.58 3.58 0 0 0 5.33-1.19c.52-1.34.57-2.82.14-4.2a6 6 0 0 0-1.91-3.54 3.33 3.33 0 0 0-2.88-.65 3.5 3.5 0 0 0-2.42 1.87 6 6 0 0 0-.19 4.08ZM148.58 73.57l-6.13-27 7-1.6.66 2.89a9.5 9.5 0 0 1 2.11-3.07 7.85 7.85 0 0 1 3.43-1.69 7.2 7.2 0 0 1 6.74 1.62 12.81 12.81 0 0 1 3.83 6.93c.74 3.25.52 5.91-.64 8a7.87 7.87 0 0 1-5.33 3.91 7.76 7.76 0 0 1-6.23-1.04l2.12 9.33-7.56 1.72Zm3.61-18.86a5.3 5.3 0 0 0 1.76 3.22 3.2 3.2 0 0 0 2.72.56 2.82 2.82 0 0 0 2-1.57 6 6 0 0 0 0-3.86 5.61 5.61 0 0 0-1.71-3.28 2.91 2.91 0 0 0-2.5-.6 3.12 3.12 0 0 0-2.14 1.67 5.72 5.72 0 0 0-.13 3.86ZM169.43 55.3l7.28-2.39c.39.7.99 1.26 1.72 1.6a4.69 4.69 0 0 0 4.53-1.1 1.5 1.5 0 0 0 .37-1.34A1.4 1.4 0 0 0 182.2 51a15.58 15.58 0 0 0-3.4 0c-1.9.16-3.8.16-5.7 0a5.88 5.88 0 0 1-3-1.37 5.5 5.5 0 0 1-1.39-6.49 6.75 6.75 0 0 1 2.61-2.79c1.6-.9 3.33-1.54 5.13-1.89 1.72-.47 3.5-.68 5.28-.64 1.12.07 2.2.42 3.16 1a8.87 8.87 0 0 1 2.54 2.62l-7 2.31c-.26-.52-.7-.93-1.23-1.17a3.85 3.85 0 0 0-2.27-.1c-.66.1-1.28.4-1.75.87a1.36 1.36 0 0 0-.33 1.22 1.2 1.2 0 0 0 1 .92c1.12.13 2.25.1 3.36-.07 1.93-.28 3.88-.3 5.82-.08 1.22.17 2.36.7 3.28 1.51a5.46 5.46 0 0 1 1.66 2.85c.26 1.18.16 2.4-.27 3.53a7.08 7.08 0 0 1-2.64 3.27 15.76 15.76 0 0 1-5.78 2.31c-3.57.81-6.23.88-8 .21a7.07 7.07 0 0 1-3.85-3.72ZM193.85 30.57h8.21v6.3l-1.51 12.67h-5.08l-1.62-12.65v-6.32Zm.4 20.88h7.66v6.78h-7.66v-6.78ZM128.68 116.58h-.18c-4.5-1.75-7.19-3.45-8.59-5.5-1.1.2-2.23.05-3.23-.44a6.5 6.5 0 0 1-2.79-2.62 2.54 2.54 0 0 1-2.42.37 6.14 6.14 0 0 1-3-2.41c-.45.33-1 .49-1.56.43-3-.24-7-6.16-7.29-12.46a.52.52 0 0 1 .48-.53.5.5 0 0 1 .52.48c.28 6 4.11 11.33 6.38 11.51a1.26 1.26 0 0 0 .93-.27 12.3 12.3 0 0 1-1-9.42c.86-3 1.62-4.18 2.54-4 1.72.43 1.49 7 .58 11.29a6.14 6.14 0 0 1-.84 2.18 5.4 5.4 0 0 0 2.54 2.21 1.58 1.58 0 0 0 1.67-.35c-.78-1.93-1-4.57.12-7.93 1.4-4.43 2-4.55 2.31-4.63a.66.66 0 0 1 .64.22c.93 1.05-.18 7.93-1.34 11.33a5 5 0 0 1-.56 1.16 5.56 5.56 0 0 0 2.49 2.5c.7.34 1.5.5 2.28.43l-.25-.58c-.79-2.15-.4-4.62 1.19-7.58 1.05-1.95 1.91-2.87 2.71-2.87a1.11 1.11 0 0 1 1 .66c.87 1.61.24 6.92-1.48 9.56a4 4 0 0 1-1.62 1.4c1.34 1.76 3.89 3.31 8 4.89a.49.49 0 0 1 .32.45.5.5 0 0 1-.55.52ZM123 100.11s-.57 0-1.83 2.35c-1.45 2.68-1.82 4.89-1.13 6.75.08.23.18.45.3.67.54-.22 1-.6 1.32-1.1 1.4-2.14 2.07-6.54 1.55-8.26-.07-.35-.21-.41-.21-.41Zm-7.18-4.21a23.41 23.41 0 0 0-1.34 3.53c-.77 2.1-.9 4.38-.38 6.55l.09-.26a32.8 32.8 0 0 0 1.66-9.82h-.03Zm-6.58-3.15c-.17.15-.66.78-1.35 3.22-.82 2.74-.56 5.69.72 8.24.2-.45.36-.92.45-1.4 1.07-4.91.77-9.35.21-10.06h-.03ZM166.7 169a9 9 0 0 1-4.56-1.19.51.51 0 0 1-.18-.69.5.5 0 0 1 .3-.23.49.49 0 0 1 .38.06c3.57 2.09 8.18.63 9.13-.9a.88.88 0 0 0 .15-.67 8.12 8.12 0 0 1-5.13-1.46c-2.55-1.59-2.75-2.07-2.73-2.45a.61.61 0 0 1 .34-.52c1-.5 5.51 1.57 7.39 2.81.22.15.43.32.62.52.74-.17 1.4-.57 1.9-1.14.28-.33.48-.71.59-1.13h-.2c-1.6.16-3.2-.53-4.91-2.11-1.18-1.08-1.63-1.83-1.48-2.42a.9.9 0 0 1 .72-.65c1.38-.35 4.8 1.11 6.19 2.64.31.33.53.74.64 1.18 1.31-.61 2.69-2 4.32-4.27a.5.5 0 0 1 .32-.2.5.5 0 0 1 .38.08.51.51 0 0 1 .12.7c-1.89 2.64-3.47 4.14-5.05 4.75a3.7 3.7 0 0 1-.87 2 4.6 4.6 0 0 1-2.18 1.41 1.83 1.83 0 0 1-.28 1.39c-.84 1.43-3.26 2.49-5.92 2.49Zm-.89-6.94c.34.25.82.58 1.51 1a8 8 0 0 0 3.6 1.32 24.67 24.67 0 0 0-5.11-2.32Zm3.49-4.25c.29.54.69 1.01 1.17 1.39 1.48 1.37 2.83 2 4.13 1.84h.32a1.8 1.8 0 0 0-.44-.83c-1.4-1.58-4.48-2.56-5.18-2.4Z" fill="#263238"/><path d="m179.94 167.63-15.58 2.83-14.15-77.22-30.06 5.46-49 87 5.26 28.71L139.26 203l4.3 23.48 30.06-5.48-4.3-23.48 15.58-2.83-4.96-27.06ZM101.09 182l26-45.57 7.25 39.54-33.25 6.03ZM305.43 88a58.83 58.83 0 0 0-3.2-14.22 46.3 46.3 0 0 0-7-12.19 40.37 40.37 0 0 0-12.7-10.36c-5.33-2.93-12.4-4.96-21.22-6.11-18.3-2.39-32.56.86-42.78 9.74-10.22 8.88-16.95 25.88-20.2 51a139.38 139.38 0 0 0-1 28.34c.67 8.67 2.26 15.64 4.78 20.93a43.75 43.75 0 0 0 14.65 17.78c6.31 4.43 14.98 7.36 26 8.79 19.59 2.55 34.11-1.21 43.57-11.29 9.46-10.08 15.73-27.11 18.8-51.1 1.37-10.39 1.47-20.9.3-31.31Z" fill="#407BFF"/><path d="M251.77 171.43c-2.41-.08-5-.3-7.61-.64-9.16-1.19-16.24-3.51-21.06-6.89-4.8-3.4-8.6-8.02-11-13.4l-.05-.11c-1.92-4-3.18-9.75-3.73-17-.58-8.7-.27-17.45.92-26.1 3.57-27.72 10.94-39.29 16.49-44.11 6.48-5.62 15.23-8.16 26.73-7.76 2.36.08 4.86.29 7.43.62 7.38 1 13.23 2.6 17.37 4.86a29.8 29.8 0 0 1 9.31 7.49 35.24 35.24 0 0 1 5.35 9.27 47.78 47.78 0 0 1 2.56 11.55c1.07 9.55.97 19.2-.29 28.72-2.77 21.54-8.13 36.68-15.92 45-5.78 6.16-14.45 9-26.51 8.54l.01-.04Z" fill="#263238"/><path d="m271.34 88.29.13-3.79-2.33-.76c-.1-1.28-.3-2.55-.62-3.8l2-1.46-1.34-3.56-2.44.2a22.86 22.86 0 0 0-2-3.27l1.26-2.11-2.6-2.77-2.18 1.12c-.98-.84-2.02-1.6-3.12-2.26l.35-2.42-3.46-1.57-1.58 1.86c-1.22-.4-2.48-.7-3.75-.88l-.59-2.37-3.8-.13-.75 2.32c-1.28.1-2.55.31-3.8.62l-1.47-2-3.56 1.33.2 2.44a22.92 22.92 0 0 0-3.27 2l-2.1-1.27-2.78 2.59 1.12 2.19c-.84.97-1.6 2.02-2.25 3.13l-2.42-.37-1.58 3.46 1.87 1.58c-.4 1.22-.7 2.48-.88 3.76l-2.38.6-.13 3.78 2.33.76c.1 1.29.3 2.56.62 3.81l-2 1.45 1.34 3.56 2.44-.2a21.48 21.48 0 0 0 2 3.27l-1.27 2.11 2.6 2.77 2.18-1.11c.98.83 2.02 1.59 3.12 2.25l-.36 2.42 3.46 1.57 1.59-1.85c1.23.4 2.49.68 3.76.87l.59 2.38 3.79.13.75-2.33c1.28-.1 2.56-.3 3.81-.62l1.45 2 3.56-1.33-.19-2.43a24.89 24.89 0 0 0 3.27-2l2.1 1.26 2.78-2.59-1.11-2.19c.84-.97 1.59-2.02 2.24-3.12l2.42.36 1.58-3.46-1.86-1.58c.4-1.22.69-2.48.87-3.75l2.39-.6Zm-25.6 12.27a15 15 0 1 1 1.1-29.98 15 15 0 0 1-1.1 29.98ZM287.12 157.87l.28-2.56-1.54-.62c0-.87-.08-1.74-.22-2.6l1.39-.89-.71-2.47h-1.66c-.33-.8-.73-1.58-1.19-2.31l.94-1.36-1.6-2-1.53.64a16.13 16.13 0 0 0-2-1.68l.37-1.62-2.25-1.24-1.18 1.19c-.8-.33-1.63-.6-2.48-.79l-.28-1.63-2.55-.29-.63 1.54c-.87 0-1.73.08-2.59.24l-.89-1.42-2.47.73v1.66c-.8.33-1.58.73-2.31 1.2l-1.36-1-2 1.6.64 1.53c-.61.62-1.17 1.29-1.67 2l-1.62-.36-1.23 2.25 1.18 1.17c-.34.8-.6 1.64-.79 2.49l-1.64.27-.27 2.55 1.53.64c0 .87.08 1.73.23 2.58l-1.41.89.72 2.47H256c.33.8.74 1.57 1.2 2.3l-1 1.36 1.6 2 1.55-.65c.61.61 1.28 1.17 2 1.67L261 169l2.25 1.23 1.17-1.17c.8.32 1.63.58 2.48.77l.29 1.64 2.55.28.62-1.53c.88 0 1.77-.07 2.64-.22l.89 1.41 2.46-.72v-1.66c.8-.34 1.58-.74 2.32-1.2l1.34 1 2-1.61-.65-1.53a16.3 16.3 0 0 0 1.69-2l1.61.36 1.24-2.25-1.18-1.16c.32-.8.58-1.63.77-2.48l1.63-.29Zm-12.87-1a4.46 4.46 0 1 1-7.82-4.27 4.46 4.46 0 0 1 7.82 4.27Z" fill="#407BFF"/><path d="m301.29 114.65-3-2.06c-.3-1.07-.7-2.1-1.2-3.1l.76-3-4.32-4.63-3 .56a16.96 16.96 0 0 0-3-1.41l-1.85-3.12-6.33-.21-2.06 3c-1.07.3-2.11.7-3.1 1.2l-3-.77-4.63 4.33.56 3c-.57.95-1.05 1.95-1.41 3l-3.11 1.85-.22 6.33 3 2.06c.3 1.08.7 2.12 1.2 3.12l-.76 3 4.32 4.63 3-.55c.95.57 1.96 1.04 3 1.41l1.84 3.11 6.34.22 2.05-3c1.08-.3 2.13-.7 3.13-1.2l3 .76 4.63-4.32-.55-3c.57-.95 1.04-1.96 1.41-3l3.11-1.85.19-6.36Zm-19.73 9.62a7.12 7.12 0 1 1 .49-14.23 7.12 7.12 0 0 1-.49 14.23Z" fill="#fff"/><path d="m323 64.12.52-1.25c.35-.2.69-.43 1-.69h1.16l1.36-2-.44-1.07c.17-.36.3-.73.4-1.11l1-.92-.42-2.35-1.26-.52c-.2-.35-.43-.69-.69-1v-1.16l-1.95-1.36-1.08.45c-.4-.14-.8-.23-1.22-.28l-.92-1-2.34.42-.53 1.26c-.37.2-.72.42-1.05.68h-1.15l-1.36 2 .44 1.07c-.13.4-.23.8-.28 1.22l-1 .93.42 2.34 1.26.52c.2.36.42.7.68 1v1.15l2 1.36 1.07-.44c.4.13.81.22 1.23.27l.92 1 2.23-.52Zm-5-6.48a2.68 2.68 0 1 1 5.27-.96 2.68 2.68 0 0 1-5.27.96ZM295.61 57.49l-.77-.65a19.9 19.9 0 0 1 6-5l.47.88a18.88 18.88 0 0 0-5.7 4.77ZM303.59 51.8l-.39-.92c3.7-1.6 7.73-2.25 11.74-1.88l-.1 1c-3.84-.36-7.71.26-11.25 1.8ZM301.7 58.72l-.82-.56a16.74 16.74 0 0 1 9.87-6.39l.19 1c-3.7.8-6.98 2.92-9.24 5.95Z" fill="#407BFF"/><path d="M235.34 155a.52.52 0 0 1-.36-.16l-2.09-2.16c-1.07-.1-2.12-.3-3.15-.58l-3.27 1.44a.5.5 0 0 1-.47 0l-5.48-3.63a.49.49 0 0 1-.22-.43v-3.56a17.22 17.22 0 0 1-1.76-2.68l-2.81-1.08a.5.5 0 0 1-.31-.37l-1.3-6.44a.5.5 0 0 1 .14-.46l2.16-2.09c.1-1.06.3-2.12.58-3.15l-1.44-3.27a.5.5 0 0 1 0-.47l3.63-5.48c.05-.07.1-.13.19-.17a.46.46 0 0 1 .24-.05l3.56.05c.83-.67 1.73-1.26 2.68-1.76l1.09-2.81a.5.5 0 0 1 .36-.31l6.44-1.3a.49.49 0 0 1 .46.14l2.09 2.16c1.07.1 2.13.3 3.16.58l3.26-1.44a.51.51 0 0 1 .48 0l5.47 3.63a.55.55 0 0 1 .23.43l-.06 3.56c.67.84 1.26 1.73 1.77 2.68l2.8 1.09a.5.5 0 0 1 .31.36l1.31 6.44a.52.52 0 0 1-.14.46l-2.17 2.1a18 18 0 0 1-.58 3.14l1.44 3.27a.51.51 0 0 1 0 .48l-3.58 5.43a.52.52 0 0 1-.42.22l-3.57-.05a18.4 18.4 0 0 1-2.67 1.76l-1.09 2.81a.5.5 0 0 1-.37.31l-6.44 1.36h-.1Zm-5.63-4h.14c1.08.31 2.19.52 3.31.61.12.01.23.07.32.15l2 2.1 5.9-1.19 1.06-2.74c.05-.11.13-.2.24-.26 1-.52 1.94-1.14 2.81-1.85.1-.08.21-.12.33-.11l3.47.05 3.32-5-1.4-3.18a.5.5 0 0 1 0-.34c.3-1.08.51-2.19.61-3.31a.5.5 0 0 1 .15-.32l2.1-2-1.19-5.9-2.73-1.06a.5.5 0 0 1-.27-.24c-.52-1-1.14-1.94-1.85-2.81a.52.52 0 0 1-.11-.32v-3.48l-5-3.32-3.17 1.4a.53.53 0 0 1-.35 0c-1.08-.31-2.2-.52-3.32-.61a.56.56 0 0 1-.32-.15l-2-2.1-5.9 1.2-1.05 2.78a.5.5 0 0 1-.23.27 15.9 15.9 0 0 0-2.82 1.85.43.43 0 0 1-.32.11l-3.47-.05-3.33 5 1.4 3.18a.5.5 0 0 1 0 .43 17.2 17.2 0 0 0-.58 3.23.5.5 0 0 1-.15.32l-2.1 2 1.2 5.9 2.72 1.06c.12.05.22.14.28.26.52 1 1.13 1.93 1.84 2.79.07.09.11.2.11.32v3.48l5 3.32 3.18-1.4a.53.53 0 0 1 .17-.07Zm4.91-3.24a13.32 13.32 0 0 1-6.01-25.21 13.33 13.33 0 1 1 6.01 25.21Zm-10.25-20.13a12.32 12.32 0 1 0 20.54 13.61 12.32 12.32 0 0 0-20.54-13.61Z" fill="#fff"/><path d="m425.83 176.65-15.7-2.12 10.38-77.81-30.28-4.08-73.45 67.62-3.86 28.93 63.29 8.54-3.16 23.67 30.28 4.08 3.16-23.66 15.7 2.12 3.64-27.29Zm-79.42-10.72 38.76-35.33-5.32 39.84-33.44-4.51Z" fill="#407BFF"/><path d="M394.13 224.74H394a.5.5 0 0 1-.4-.58L417 96.22a.51.51 0 0 1 .58-.4.5.5 0 0 1 .4.58l-23.35 127.93a.5.5 0 0 1-.5.41ZM414.83 98.37a.82.82 0 1 1-1.64-.06.82.82 0 0 1 1.64.06ZM411.5 115.67a.82.82 0 1 1-1.64-.06.82.82 0 0 1 1.64.06ZM408.17 133a.82.82 0 0 1-1.16.72.82.82 0 0 1-.43-.46.83.83 0 0 1 .2-.9.82.82 0 0 1 1.39.64ZM401.61 151a.82.82 0 1 1-1.63-.18.82.82 0 0 1 1.63.18ZM401.5 167.57a.82.82 0 0 1-.26.57.82.82 0 0 1-1.04.07.82.82 0 1 1 1.3-.64ZM398.17 184.87a.82.82 0 0 1-1.42.54.82.82 0 0 1-.15-.9.82.82 0 0 1 .78-.48.82.82 0 0 1 .79.84ZM394.84 202.17a.83.83 0 0 1-1.16.73.81.81 0 0 1-.48-.78.82.82 0 0 1 1.42-.54.82.82 0 0 1 .22.59ZM391.5 219.48a.82.82 0 1 1-.48-.78.8.8 0 0 1 .43.46c.04.1.06.21.05.32Z" fill="#263238"/><path d="M400.79 151.45a.49.49 0 0 1-.48-.39.5.5 0 0 1 .38-.6l2.48-.53a.49.49 0 0 1 .38.07.5.5 0 0 1 .22.32.5.5 0 0 1-.07.38.5.5 0 0 1-.32.21l-2.48.53-.11.01ZM409.08 142.24a85.07 85.07 0 0 0-3 9.36c-.75 3.53-.79 11.43-.79 11.43" fill="#263238"/><path d="M405.29 163.53a.52.52 0 0 1-.5-.51c0-.32.06-8 .81-11.52.81-3.2 1.82-6.35 3-9.44a.49.49 0 0 1 .26-.3.5.5 0 0 1 .4-.02.51.51 0 0 1 .28.28.52.52 0 0 1-.01.4 84.49 84.49 0 0 0-3 9.29c-.73 3.44-.78 11.24-.79 11.32a.5.5 0 0 1-.45.5ZM222.45 249.84c1.39-22.4-1.16-63.13 40.95-57.73 45.13 5.77 32.22 58.55 32.22 58.55l-73.17-.82Z" fill="#263238"/><path d="M251.51 236.38a18.38 18.38 0 1 0 0-36.76 18.38 18.38 0 0 0 0 36.76Z" fill="#fff"/><path d="M253.93 199.65c-8.71-1.48-18 4.93-18.93 11.43l34.51 3.18c-1.22-7.41-8.68-13.43-15.58-14.61Z" fill="#263238"/><path d="M265.58 217.54c-.25 4.81-2.87 8.58-5.85 8.42-2.98-.16-5.2-4.17-5-9 .2-4.83 2.87-8.58 5.85-8.42 2.98.16 5.24 4.2 5 9Z" fill="#263238"/><path d="M251.51 237.38a19.38 19.38 0 1 1 0-38.77 19.38 19.38 0 0 1 0 38.77Zm0-36.75a17.38 17.38 0 1 0 0 34.76 17.38 17.38 0 0 0 0-34.76Z" fill="#407BFF"/><path d="M290.49 249.28h-.12a.5.5 0 0 1-.31-.22.49.49 0 0 1-.06-.38c0-.13 3.22-13.69-.09-27.4a.51.51 0 0 1 .38-.62.51.51 0 0 1 .62.38c3.37 14 .12 27.74.09 27.87a.5.5 0 0 1-.51.37ZM287.7 213.76a.52.52 0 0 1-.46-.29 34.94 34.94 0 0 0-4.74-7.66.5.5 0 0 1 .24-.8.5.5 0 0 1 .39.04c.06.03.1.08.15.13a36.48 36.48 0 0 1 4.87 7.87.5.5 0 0 1-.24.66.53.53 0 0 1-.21.05Z" fill="#fff"/><path d="M128.73 354.92h-.37a5 5 0 0 1 .28-10h.09c2.89 0 9.84-3.51 24.38-26.43a5 5 0 0 1 7.51-1.09 207.46 207.46 0 0 0 37.14 25.48 5 5 0 1 1-4.52 8.91 212.75 212.75 0 0 1-34.8-23.14c-12.19 18.35-21.23 26.27-29.71 26.27Z" fill="#263238"/><path d="M159.67 316.5h-.43a3 3 0 0 1-2.54-3.39c.71-5-.17-23.63-6.48-38.13a3 3 0 0 1 1.06-3.68c13.7-9.33 42.88-10.45 44.12-10.49a3 3 0 1 1 .2 6c-.27 0-25.78 1-38.88 8.2 5.58 14.44 6.85 32.43 5.92 38.94a3 3 0 0 1-2.97 2.55Z" fill="#263238"/><path d="M164.71 312.62c-2-4.71-11-4.18-16.27-.14-2.82 2.15-6.64 8.64-7 11a3.55 3.55 0 0 0 4 4.24c3.45-.3 8.18-5.31 8.18-5.31-3.15 3.09.92 5.27 7 .8 3.32-2.49 6.32-5.32 4.09-10.59Z" fill="#407BFF"/><path d="M336.71 251.16a.33.33 0 0 1-.14 0 .48.48 0 0 1-.3-.24.48.48 0 0 1-.04-.38c1.33-4.64 2.78-7.47 4.69-9a5.18 5.18 0 0 1 .16-3.26 6.45 6.45 0 0 1 2.36-3 2.54 2.54 0 0 1-.59-2.38 6.18 6.18 0 0 1 2.14-3.16 2.24 2.24 0 0 1-.57-1.51c0-3 5.51-7.52 11.76-8.38a.5.5 0 0 1 .57.43.5.5 0 0 1-.43.57c-5.94.81-10.92 5.11-10.9 7.38 0 .34.13.67.36.91a12.24 12.24 0 0 1 9.28-1.87c3.07.59 4.32 1.24 4.18 2.17-.28 1.75-6.81 2.12-11.19 1.6a6.18 6.18 0 0 1-2.25-.65 5.38 5.38 0 0 0-2 2.73 1.57 1.57 0 0 0 .49 1.64c1.86-1 4.47-1.36 7.92-.6 4.53 1 4.7 1.55 4.81 1.88a.67.67 0 0 1-.17.67c-.95 1-7.9.53-11.39-.33a4.9 4.9 0 0 1-1.21-.45 5.45 5.45 0 0 0-2.26 2.71 4.23 4.23 0 0 0-.23 2.3 6 6 0 0 1 .55-.29c2.07-1 4.57-.82 7.66.5 2 .87 3 1.65 3.1 2.44a1.12 1.12 0 0 1-.57 1c-1.53 1-6.87.86-9.65-.62a4 4 0 0 1-1.54-1.49c-1.63 1.5-2.95 4.17-4.15 8.36a.5.5 0 0 1-.45.32Zm5.42-9.33a3 3 0 0 0 1.22 1.22c2.26 1.2 6.7 1.47 8.36.8.34-.14.39-.25.39-.25s-.05-.56-2.5-1.61c-2.8-1.2-5-1.37-6.83-.52-.22.1-.43.23-.64.36Zm3.34-6.57.25.07c3.26.75 6.6 1 9.94.75-1.18-.44-2.4-.77-3.64-1a11.38 11.38 0 0 0-6.55.18Zm1.26-5.62c.46.17.94.27 1.43.32 5 .59 9.39-.1 10-.73-.17-.15-.84-.58-3.32-1.05-2.8-.56-5.69-.03-8.11 1.46ZM206.53 353.25c.66-.21.44-.85-.3-.85h-13.54c-25.78-2.73-43.79.93-32.44 1.79 11.35.86-.8.68-9.09 3.82-8.29 3.14 61.65 3.93 68 0 5.84-3.62-21.77-1.83-12.63-4.76Z" fill="#263238"/><path d="m303.47 357.24-117.8-3.91-4.89-114.22 139.11 3.11-16.42 115.02Z" fill="#407BFF"/><path d="M222.45 355.05a.5.5 0 0 1-.5-.46l-9.44-114.72a.51.51 0 0 1 .46-.54.52.52 0 0 1 .54.46L223 354.51c0 .07 0 .13-.02.2a.52.52 0 0 1-.25.29.5.5 0 0 1-.19.05h-.09Z" fill="#263238"/><path d="m303.47 357.24 31.66-4.82 9.97-106.21-25.21-3.99-16.42 115.02Z" fill="#407BFF"/><path d="m303.47 357.24 31.66-4.82 9.97-106.21-25.21-3.99-16.42 115.02Z" fill="#000"/><path d="m195.73 331.32-2.9-67.87a12.26 12.26 0 0 1 12.53-12.79l88.06 2a12.26 12.26 0 0 1 11.87 14L295.53 335A12.27 12.27 0 0 1 283 345.55l-75.39-2.5a12.27 12.27 0 0 1-11.88-11.73Z" fill="#263238"/><path d="m205.25 271.49 13.62.43-.11 3.51-8.53-.27-.08 2.62 7.91.25-.11 3.36-7.91-.26-.1 3.25 8.77.28-.12 3.72-13.87-.44.53-16.45ZM221.4 288.47l.52-16.45 8.48.27c1.22 0 2.43.17 3.59.52.82.28 1.53.83 2 1.56a4.64 4.64 0 0 1-1.64 6.59c-.57.3-1.18.5-1.81.6.47.15.9.37 1.31.64.3.27.55.57.78.9.26.31.49.65.68 1l2.31 4.85-5.74-.19-2.56-5.11c-.2-.49-.5-.93-.88-1.3-.36-.26-.79-.4-1.23-.42h-.45l-.21 6.67-5.15-.13Zm5.42-9.62 2.14.07c.45-.03.9-.1 1.35-.19.34-.05.64-.23.85-.49.22-.27.34-.6.35-.94a1.53 1.53 0 0 0-.47-1.24 3.1 3.1 0 0 0-1.88-.49l-2.24-.07-.1 3.35ZM239.28 289l.52-16.45 8.47.27c1.22 0 2.43.17 3.59.52.83.27 1.53.83 2 1.56.5.8.75 1.74.68 2.69a4.42 4.42 0 0 1-2.31 3.9c-.57.3-1.18.5-1.81.6.46.15.9.37 1.3.64.3.26.56.56.79.89.26.31.48.65.68 1l2.31 4.84-5.74-.18-2.56-5.11c-.2-.49-.5-.93-.88-1.3-.36-.27-.8-.42-1.24-.42h-.44l-.22 6.68-5.14-.13Zm5.41-9.62 2.15.06c.45-.02.9-.08 1.35-.18.33-.05.63-.22.84-.49.22-.26.35-.6.35-.94a1.51 1.51 0 0 0-.46-1.24 3 3 0 0 0-1.89-.49l-2.23-.07-.11 3.35ZM256.32 281.36a7.8 7.8 0 0 1 8.76-8.25 8.6 8.6 0 0 1 6.26 2.41 8.32 8.32 0 0 1 2 6.25c0 1.63-.38 3.25-1.12 4.7a7 7 0 0 1-2.9 2.78 9.22 9.22 0 0 1-4.61.88c-1.58.01-3.15-.33-4.58-1a7 7 0 0 1-2.86-2.9 9.21 9.21 0 0 1-.95-4.87Zm5.08.18a5.56 5.56 0 0 0 .81 3.61 3.52 3.52 0 0 0 5.06.19 6.13 6.13 0 0 0 1-3.8 5.17 5.17 0 0 0-.83-3.43A3.23 3.23 0 0 0 265 277a3.1 3.1 0 0 0-2.51 1 5.56 5.56 0 0 0-1.09 3.54ZM275.91 290.21l.52-16.46 8.47.27c1.22 0 2.43.17 3.59.52.82.28 1.53.83 2 1.56.5.8.74 1.74.68 2.69a4.42 4.42 0 0 1-2.31 3.91 6.6 6.6 0 0 1-1.81.59c.46.15.9.37 1.3.65.3.26.56.56.79.89.26.31.49.65.68 1l2.31 4.85-5.74-.18-2.56-5.12c-.2-.49-.5-.92-.88-1.29-.36-.27-.8-.42-1.24-.43h-.44l-.22 6.68-5.14-.13Zm5.41-9.63 2.15.07c.45-.02.9-.08 1.35-.18a1.48 1.48 0 0 0 1.19-1.49 1.5 1.5 0 0 0-.46-1.23 3 3 0 0 0-1.89-.49l-2.23-.07-.11 3.39ZM284 318.16a1.31 1.31 0 0 1-1-.43l-8.56-9.37-9.24 8.44a1.3 1.3 0 0 1-1.85-.08l-8.56-9.37-9.24 8.44a1.3 1.3 0 0 1-1.85-.08l-8.57-9.37-9.23 8.44a1.34 1.34 0 0 1-1 .34 1.35 1.35 0 0 1-.91-.43l-8.56-9.36-9.23 8.43a1.32 1.32 0 0 1-2.13-.52 1.28 1.28 0 0 1 .05-1c.08-.16.18-.3.31-.41l10.2-9.33a1.32 1.32 0 0 1 1.86.08l8.56 9.37 9.23-8.44c.26-.23.6-.35.95-.34.35.02.68.17.91.43l8.56 9.37 9.24-8.44a1.3 1.3 0 0 1 1.44-.22c.16.07.3.17.41.3l8.56 9.37 9.24-8.44a1.3 1.3 0 0 1 1.85.08L285 316a1.32 1.32 0 0 1-1 2.2v-.04Z" fill="#fff"/><path d="m125.75 359.67-6.26-2.99-5.58-27.17 3.03-3.33 8.81 33.49Z" fill="#407BFF"/><path d="m125.75 359.67 8.31-4.86-7.12-22.38-10-6.25 8.81 33.49Z" fill="#407BFF"/><path d="m125.75 359.67 8.31-4.86-7.12-22.38-10-6.25 8.81 33.49Z" fill="#000"/><path d="M262 364.61h-.69a5 5 0 0 1 .27-10c7.7.25 24-4.48 33.32-13.52a5 5 0 0 1 2-1.2c15.79-4.74 21.66 4.83 21.9 5.24l-8.6 5.09.11.18c-.09-.13-2.33-3-9.45-1.24-11.69 10.66-29.63 15.45-38.86 15.45Z" fill="#263238"/><path d="m261.39 371.25-18.21-1.14-1.43-33.58 24.47.91-4.83 33.81Z" fill="#407BFF"/><path d="m261.39 371.25 4.26-4.24 2.64-20.93-2.07-8.64-4.83 33.81Z" fill="#407BFF"/><path d="m261.39 371.25 4.26-4.24 2.64-20.93-2.07-8.64-4.83 33.81Z" fill="#000"/><path d="M366.91 358.54a3 3 0 0 1-1.81-.61c-10.4-7.9-24.45-21.93-29.84-35.46-.08-.2-.14-.4-.17-.61-2.63-15.64-5.14-48.55-5.25-49.94a3 3 0 1 1 6-.45c0 .33 2.57 33.56 5.13 49.07 5.38 13.16 20 26.67 27.78 32.61a3 3 0 0 1-1.82 5.39h-.02ZM380.78 360.05c-2.32 0-4.95-1.05-7.82-3.12a3 3 0 0 1 3.52-4.86c2.48 1.79 3.83 2 4.3 2a3 3 0 1 1 0 6v-.02Z" fill="#263238"/><path d="M373.8 356.84c3.21-9.53 16.37-7.65 20.91-6.23a47.8 47.8 0 0 1 11.07 4.8c2.45 1.6 2.49 4.29-.78 5.82-4 1.88-14.16.21-14.16.21 5.24 2.29 0 6-9.21 2.36-2.99-1.18-8.96-3.46-7.83-6.96Z" fill="#407BFF"/><path d="M341.86 276c-1.19 8.1-7.9 14.07-13.36 13.27-5.46-.8-5.68-8-4.49-16.14 1.19-8.14 3.35-14 8.81-13.2 5.46.8 10.23 8 9.04 16.07ZM209.88 243.7a.82.82 0 1 0 0-1.64.82.82 0 0 0 0 1.64ZM218.21 248.78a.82.82 0 0 1-.98.8.81.81 0 0 1-.64-.64.82.82 0 1 1 1.62-.16ZM219.13 345.68a.82.82 0 0 1-.98.8.81.81 0 0 1-.64-.64.82.82 0 1 1 1.62-.16ZM226.64 351.59a.82.82 0 0 1-.98.8.81.81 0 0 1-.64-.64.82.82 0 1 1 1.62-.16ZM82.51 361.42a9.61 9.61 0 0 1-7.33-3.95.5.5 0 1 1 .82-.57c1.87 2.7 6 4.13 7.8 3.28.18-.08.34-.2.47-.34a6.04 6.04 0 0 1-3.52-4.48c-.23-1.27-.41-3 .63-3.22 1.44-.32 3.32 3.15 4 5.78.12.44.17.89.13 1.34.58.17 1.18.22 1.78.14a1.94 1.94 0 0 0 1.38-.74 5.85 5.85 0 0 1-2.31-4.19c-.38-2.74-.09-3.21.21-3.45a.65.65 0 0 1 .69-.07c1.07.45 2.36 4.33 2.61 6.53.03.23.03.46 0 .69a4.29 4.29 0 0 0 3.76-.37 5.83 5.83 0 0 1-.4-.29c-1-.89-1.46-2.31-1.28-4.33.14-1.57.49-2.43 1.12-2.7a1.13 1.13 0 0 1 1.21.24 6.92 6.92 0 0 1 1.73 5.56 3 3 0 0 1-.51 1.15c1.84.32 4.42-.2 6.65-.75a.52.52 0 0 1 .54.2.5.5 0 0 1 .09.38.51.51 0 0 1-.39.42c-2.71.67-5.63 1.22-7.69.62a5.69 5.69 0 0 1-3.5 1.16c-.56 0-1.12-.11-1.64-.31a2.8 2.8 0 0 1-2.12 1.27c-.75.1-1.52.03-2.24-.19-.23.4-.58.7-1 .89-.54.22-1.11.32-1.69.3Zm-.86-8.28c-.14.68-.11 1.38.08 2.05a5.06 5.06 0 0 0 2.84 3.7 3.2 3.2 0 0 0-.12-.7c-.78-2.86-2.28-4.83-2.8-5.05Zm5.57-.87c0 .69.06 1.38.17 2.06a5.18 5.18 0 0 0 1.52 3.22 15.72 15.72 0 0 0-1.69-5.28Zm6.29-.87s-.38.19-.52 1.86c-.14 1.67.15 2.82.93 3.49.18.15.39.28.6.38.26-.28.45-.63.54-1a6.26 6.26 0 0 0-1.19-4.43c-.21-.26-.33-.3-.36-.3ZM228.87 368.98l2.71-4.7-2.71-4.7h-2.9l1.64 4.7-1.64 4.7h2.9Z" fill="#263238"/><path d="M226.16 366.73a2.47 2.47 0 0 1-2.4-1.47 2.45 2.45 0 0 1 2.4-3.42l-4.6-.92-1.23 3.72 2.06 3.14 3.77-1.05Z" fill="#263238"/><path d="M226.56 359.58h-5.43l-2.71 4.7 2.71 4.7h5.43l2.71-4.7-2.71-4.7Zm-2.71 7.15a2.45 2.45 0 1 1-.02-4.9 2.45 2.45 0 0 1 .02 4.9ZM417.89 359.26l-2.01-3.49 2.01-3.49h2.15l-1.21 3.49 1.21 3.49h-2.15Z" fill="#407BFF"/><path d="M419.9 357.59a1.83 1.83 0 0 0 1.8-2.54 1.82 1.82 0 0 0-1.8-1.09l3.42-.68.91 2.76-1.52 2.33-2.81-.78Z" fill="#407BFF"/><path d="M419.61 352.28h4l2 3.49-2 3.49h-4l-2-3.49 2-3.49Zm2 5.31a1.82 1.82 0 1 0-.69-.14c.22.1.46.14.7.14h-.01ZM343 363.9h4.52a2.14 2.14 0 0 0 0-4.28H343a2.14 2.14 0 1 0 0 4.28Z" fill="#263238"/><path d="M335.73 359.86a4.45 4.45 0 1 1 2 6.18 4.6 4.6 0 0 1-2-6.18Z" fill="#407BFF"/><path d="m336.95 366.04 1.24.58 4.3-9.13-1.23-.59-4.31 9.14Z" fill="#263238"/></svg>