<svg width="524" height="391" viewBox="0 0 524 391" fill="none" xmlns="http://www.w3.org/2000/svg">
<path d="M523.5 343.015H0.5V343.276H523.5V343.015Z" fill="#EBEBEB"/>
<path d="M471.096 359.833H436.452V360.094H471.096V359.833Z" fill="#EBEBEB"/>
<path d="M346.956 362.675H337.866V362.937H346.956V362.675Z" fill="#EBEBEB"/>
<path d="M435.406 350.133H415.333V350.394H435.406V350.133Z" fill="#EBEBEB"/>
<path d="M100.55 351.889H55.373V352.15H100.55V351.889Z" fill="#EBEBEB"/>
<path d="M116.491 351.889H109.87V352.15H116.491V351.889Z" fill="#EBEBEB"/>
<path d="M236.007 356.3H138.018V356.561H236.007V356.3Z" fill="#EBEBEB"/>
<path d="M248.402 296.397H46.43C44.8477 296.395 43.3313 295.765 42.2134 294.646C41.0956 293.527 40.4678 292.01 40.4678 290.429V6.72288C40.4815 5.15088 41.1155 3.64779 42.2318 2.5401C43.3481 1.43241 44.8568 0.809578 46.43 0.806885H248.402C249.986 0.806885 251.505 1.43568 252.625 2.55495C253.746 3.67421 254.375 5.19226 254.375 6.77514V290.429C254.375 292.012 253.746 293.53 252.625 294.649C251.505 295.769 249.986 296.397 248.402 296.397ZM46.43 1.01593C44.9171 1.0187 43.4671 1.62119 42.3983 2.69115C41.3295 3.76111 40.7293 5.21111 40.7293 6.72288V290.429C40.7293 291.941 41.3295 293.391 42.3983 294.461C43.4671 295.531 44.9171 296.133 46.43 296.136H248.402C249.916 296.133 251.367 295.531 252.437 294.462C253.508 293.392 254.111 291.942 254.113 290.429V6.72288C254.111 5.21015 253.508 3.76017 252.437 2.69051C251.367 1.62085 249.916 1.01869 248.402 1.01593H46.43Z" fill="#EBEBEB"/>
<path d="M474.662 296.397H272.68C271.096 296.395 269.579 295.765 268.459 294.646C267.34 293.528 266.71 292.011 266.707 290.429V6.72288C266.724 5.14993 267.36 3.64685 268.478 2.53945C269.596 1.43204 271.105 0.809548 272.68 0.806885H474.662C476.234 0.812325 477.74 1.43637 478.854 2.54377C479.968 3.65117 480.6 5.15269 480.614 6.72288V290.429C480.614 292.009 479.988 293.523 478.872 294.642C477.757 295.761 476.243 296.392 474.662 296.397ZM272.68 1.01593C271.166 1.01869 269.715 1.62085 268.644 2.69051C267.574 3.76017 266.971 5.21015 266.969 6.72288V290.429C266.971 291.942 267.574 293.392 268.644 294.462C269.715 295.531 271.166 296.133 272.68 296.136H474.662C476.176 296.133 477.627 295.531 478.698 294.462C479.768 293.392 480.371 291.942 480.373 290.429V6.72288C480.371 5.21015 479.768 3.76017 478.698 2.69051C477.627 1.62085 476.176 1.01869 474.662 1.01593H272.68Z" fill="#EBEBEB"/>
<path d="M172.557 12.0432H98.0293V264.685H172.557V12.0432Z" fill="#FAFAFA"/>
<path d="M161.459 12.0432H157.107L131.114 264.685H135.466L161.459 12.0432Z" fill="#F5F5F5"/>
<path d="M171.239 13.0151H97.5479V15.2415H171.239V13.0151Z" fill="#E0E0E0"/>
<path d="M171.239 262.469H97.5479V267.236H171.239V262.469Z" fill="#EBEBEB"/>
<path d="M170.015 267.027H100.383V267.236H170.015V267.027Z" fill="#EBEBEB"/>
<path d="M100.383 13.0151H170.015V267.027H174.188V9.88989H96.209V267.027H100.383V13.0151Z" fill="#EBEBEB"/>
<path d="M255.494 12.0432H180.967V264.685H255.494V12.0432Z" fill="#FAFAFA"/>
<path d="M234.814 12.0432H211.06L185.066 264.685H208.821L234.814 12.0432Z" fill="#F5F5F5"/>
<path d="M256.268 13.0151H180.485V15.2415H256.268V13.0151Z" fill="#E0E0E0"/>
<path d="M256.268 262.469H180.485V267.236H256.268V262.469Z" fill="#EBEBEB"/>
<path d="M252.953 267.027H183.32V267.236H252.953V267.027Z" fill="#EBEBEB"/>
<path d="M183.32 13.0151H252.952V267.027H257.115V9.88989H179.146V267.027H183.32V13.0151Z" fill="#EBEBEB"/>
<path d="M336.329 12.0432H263.894V264.685H336.329V12.0432Z" fill="#FAFAFA"/>
<path d="M304.938 12.0432H300.587L274.594 264.685H278.945L304.938 12.0432Z" fill="#F5F5F5"/>
<path d="M337.114 13.0151H263.423V15.2415H337.114V13.0151Z" fill="#E0E0E0"/>
<path d="M337.114 262.469H263.423V267.236H337.114V262.469Z" fill="#EBEBEB"/>
<path d="M335.889 267.027H266.257V267.236H335.889V267.027Z" fill="#EBEBEB"/>
<path d="M266.258 13.0151H335.879V267.027H340.053V9.88989H262.084V267.027H266.258V13.0151Z" fill="#EBEBEB"/>
<path d="M421.359 12.0432H346.831V264.685H421.359V12.0432Z" fill="#FAFAFA"/>
<path d="M414.068 12.0432H390.313L364.31 264.685H388.075L414.068 12.0432Z" fill="#F5F5F5"/>
<path d="M420.04 13.0151H346.35V15.2415H420.04V13.0151Z" fill="#E0E0E0"/>
<path d="M420.04 262.469H346.35V267.236H420.04V262.469Z" fill="#EBEBEB"/>
<path d="M349.185 13.0151H418.817V267.027H422.99V9.88989H345.021V267.027H349.185V13.0151Z" fill="#EBEBEB"/>
<path d="M418.817 267.027H349.185V267.236H418.817V267.027Z" fill="#EBEBEB"/>
<path d="M154.722 206.571H122.369V262.48H154.722V206.571Z" fill="#EBEBEB"/>
<path d="M148.509 198.752V212.779H145.968H131.135H128.583V198.752H148.509Z" fill="#EBEBEB"/>
<path d="M148.509 212.779H152.651V208.64H148.509V212.779Z" fill="#FAFAFA"/>
<path d="M140.497 212.779H144.639V208.64H140.497V212.779Z" fill="#FAFAFA"/>
<path d="M132.474 212.779H136.616V208.64H132.474V212.779Z" fill="#FAFAFA"/>
<path d="M124.451 212.779H128.593V208.64H124.451V212.779Z" fill="#F0F0F0"/>
<path d="M148.509 220.294H152.651V216.155H148.509V220.294Z" fill="#F0F0F0"/>
<path d="M140.497 220.294H144.639V216.155H140.497V220.294Z" fill="#F0F0F0"/>
<path d="M132.474 220.294H136.616V216.155H132.474V220.294Z" fill="#FAFAFA"/>
<path d="M124.451 220.294H128.593V216.155H124.451V220.294Z" fill="#FAFAFA"/>
<path d="M148.509 227.82H152.651V223.681H148.509V227.82Z" fill="#F0F0F0"/>
<path d="M140.497 227.82H144.639V223.681H140.497V227.82Z" fill="#FAFAFA"/>
<path d="M132.474 227.82H136.616V223.681H132.474V227.82Z" fill="#FAFAFA"/>
<path d="M140.497 206.278H144.639V202.139H140.497V206.278Z" fill="#FAFAFA"/>
<path d="M132.474 206.278H136.616V202.139H132.474V206.278Z" fill="#F0F0F0"/>
<path d="M124.451 227.82H128.593V223.681H124.451V227.82Z" fill="#F0F0F0"/>
<path d="M148.509 235.346H152.651V231.207H148.509V235.346Z" fill="#FAFAFA"/>
<path d="M140.497 235.346H144.639V231.207H140.497V235.346Z" fill="#F0F0F0"/>
<path d="M132.474 235.346H136.616V231.207H132.474V235.346Z" fill="#F0F0F0"/>
<path d="M124.451 235.346H128.593V231.207H124.451V235.346Z" fill="#FAFAFA"/>
<path d="M148.509 242.871H152.651V238.732H148.509V242.871Z" fill="#F0F0F0"/>
<path d="M140.497 242.871H144.639V238.732H140.497V242.871Z" fill="#FAFAFA"/>
<path d="M132.474 242.871H136.616V238.732H132.474V242.871Z" fill="#FAFAFA"/>
<path d="M124.451 242.871H128.593V238.732H124.451V242.871Z" fill="#F0F0F0"/>
<path d="M148.509 250.386H152.651V246.247H148.509V250.386Z" fill="#F0F0F0"/>
<path d="M140.497 250.386H144.639V246.247H140.497V250.386Z" fill="#FAFAFA"/>
<path d="M132.474 250.386H136.616V246.247H132.474V250.386Z" fill="#F0F0F0"/>
<path d="M124.451 250.386H128.593V246.247H124.451V250.386Z" fill="#FAFAFA"/>
<path d="M148.509 257.912H152.651V253.773H148.509V257.912Z" fill="#FAFAFA"/>
<path d="M140.497 257.912H144.639V253.773H140.497V257.912Z" fill="#FAFAFA"/>
<path d="M132.474 257.912H136.616V253.773H132.474V257.912Z" fill="#F0F0F0"/>
<path d="M124.451 257.912H128.593V253.773H124.451V257.912Z" fill="#F0F0F0"/>
<path d="M382.646 226.932H353.661V262.469H382.646V226.932Z" fill="#F0F0F0"/>
<path d="M356.182 230.883H362.918H364.78H366.631V234.583H364.78H362.918H356.182V230.883Z" fill="#E6E6E6"/>
<path d="M356.182 238.063H362.918H364.78H366.631V241.774H364.78H362.918H356.182V238.063Z" fill="#FAFAFA"/>
<path d="M356.182 245.244H362.918H364.78H366.631V248.955H364.78H362.918H356.182V245.244Z" fill="#E6E6E6"/>
<path d="M356.182 252.425H362.918H365.784H366.631V256.135H365.784H362.918H356.182V252.425Z" fill="#FAFAFA"/>
<path d="M369.665 230.883H376.412H378.263H380.115V234.583H378.263H376.412H369.665V230.883Z" fill="#FAFAFA"/>
<path d="M369.665 238.063H376.412H379.027H380.115V241.774H379.027H376.412H369.665V238.063Z" fill="#FAFAFA"/>
<path d="M369.665 245.244H376.412H378.263H380.115V248.955H378.263H376.412H369.665V245.244Z" fill="#E6E6E6"/>
<path d="M369.665 252.425H376.412H378.263H380.115V256.135H378.263H376.412H369.665V252.425Z" fill="#FAFAFA"/>
<path d="M242.973 240.394H216.635V262.48H242.973V240.394Z" fill="#F0F0F0"/>
<path d="M237.921 246.519H241.289V243.154H237.921V246.519Z" fill="#FAFAFA"/>
<path d="M231.394 246.519H234.762V243.154H231.394V246.519Z" fill="#FAFAFA"/>
<path d="M224.856 246.519H228.225V243.154H224.856V246.519Z" fill="#FAFAFA"/>
<path d="M218.329 246.519H221.697V243.154H218.329V246.519Z" fill="#FAFAFA"/>
<path d="M237.921 252.634H241.289V249.268H237.921V252.634Z" fill="#FAFAFA"/>
<path d="M231.394 252.634H234.762V249.268H231.394V252.634Z" fill="#FAFAFA"/>
<path d="M224.856 252.634H228.225V249.268H224.856V252.634Z" fill="#FAFAFA"/>
<path d="M218.329 252.634H221.697V249.268H218.329V252.634Z" fill="#E6E6E6"/>
<path d="M237.921 258.759H241.289V255.393H237.921V258.759Z" fill="#E6E6E6"/>
<path d="M231.394 258.759H234.762V255.393H231.394V258.759Z" fill="#E6E6E6"/>
<path d="M224.856 258.759H228.225V255.393H224.856V258.759Z" fill="#FAFAFA"/>
<path d="M218.329 258.759H221.697V255.393H218.329V258.759Z" fill="#E6E6E6"/>
<path d="M213.068 224.068H186.729V262.48H213.068V224.068Z" fill="#F0F0F0"/>
<path d="M211.384 225.751H201.479V235.241H211.384V225.751Z" fill="#FAFAFA"/>
<path d="M198.32 225.751H188.414V235.241H198.32V225.751Z" fill="#FAFAFA"/>
<path d="M211.384 237.99H201.479V247.481H211.384V237.99Z" fill="#FAFAFA"/>
<path d="M198.32 237.99H188.414V247.481H198.32V237.99Z" fill="#FAFAFA"/>
<path d="M211.384 250.23H201.479V259.72H211.384V250.23Z" fill="#FAFAFA"/>
<path d="M198.32 250.23H188.414V259.72H198.32V250.23Z" fill="#FAFAFA"/>
<path d="M262 390.217C374.009 390.217 464.809 384.92 464.809 378.385C464.809 371.851 374.009 366.553 262 366.553C149.992 366.553 59.1914 371.851 59.1914 378.385C59.1914 384.92 149.992 390.217 262 390.217Z" fill="#F5F5F5"/>
<path d="M465.52 26.53V256.731L437.801 284.43H277.334V26.53H465.52Z" fill="#4BCE81"/>
<path opacity="0.8" d="M465.52 26.53V256.731L437.801 284.43H277.334V26.53H465.52Z" fill="white"/>
<path opacity="0.2" d="M437.801 284.43V257.546H465.52L438.345 284.701" fill="black"/>
<path opacity="0.1" d="M348.546 48.8875H296.644C295.914 48.8875 295.214 48.5979 294.698 48.0823C294.182 47.5668 293.893 46.8676 293.893 46.1385C293.891 45.7767 293.961 45.4181 294.099 45.0834C294.237 44.7486 294.439 44.4444 294.695 44.188C294.95 43.9316 295.254 43.7282 295.588 43.5894C295.923 43.4506 296.281 43.3791 296.644 43.3792H348.546C349.277 43.3819 349.976 43.6739 350.492 44.191C351.008 44.7082 351.297 45.4085 351.297 46.1385C351.297 46.8676 351.007 47.5668 350.491 48.0823C349.976 48.5979 349.276 48.8875 348.546 48.8875Z" fill="black"/>
<path opacity="0.1" d="M442.686 71.1927H317.564C317.201 71.1927 316.843 71.1212 316.508 70.9824C316.174 70.8436 315.87 70.6402 315.615 70.3838C315.359 70.1275 315.157 69.8232 315.019 69.4885C314.881 69.1537 314.811 68.7952 314.813 68.4333C314.813 67.7042 315.102 67.005 315.618 66.4895C316.134 65.9739 316.834 65.6843 317.564 65.6843H442.686C443.416 65.6843 444.115 65.9739 444.631 66.4895C445.147 67.005 445.437 67.7042 445.437 68.4333C445.437 69.1633 445.148 69.8636 444.632 70.3808C444.116 70.898 443.417 71.1899 442.686 71.1927Z" fill="black"/>
<path opacity="0.1" d="M442.686 82.0318H296.644C295.914 82.0318 295.214 81.7422 294.698 81.2266C294.182 80.7111 293.893 80.0119 293.893 79.2828C293.891 78.921 293.961 78.5624 294.099 78.2276C294.237 77.8929 294.439 77.5886 294.695 77.3323C294.95 77.0759 295.254 76.8725 295.588 76.7337C295.923 76.5949 296.281 76.5234 296.644 76.5234H442.686C443.417 76.5262 444.116 76.8181 444.632 77.3353C445.148 77.8525 445.437 78.5528 445.437 79.2828C445.437 80.0119 445.147 80.7111 444.631 81.2266C444.116 81.7422 443.416 82.0318 442.686 82.0318Z" fill="black"/>
<path opacity="0.1" d="M442.686 94.2818H296.644C296.281 94.2818 295.923 94.2103 295.588 94.0715C295.254 93.9327 294.95 93.7293 294.695 93.4729C294.439 93.2166 294.237 92.9123 294.099 92.5776C293.961 92.2428 293.891 91.8843 293.893 91.5224C293.893 90.7933 294.182 90.0941 294.698 89.5786C295.214 89.0631 295.914 88.7734 296.644 88.7734H442.686C443.416 88.7734 444.116 89.0631 444.631 89.5786C445.147 90.0941 445.437 90.7933 445.437 91.5224C445.437 92.2524 445.148 92.9527 444.632 93.4699C444.116 93.9871 443.417 94.279 442.686 94.2818Z" fill="black"/>
<path opacity="0.1" d="M442.686 106.521H296.644C295.914 106.521 295.214 106.232 294.698 105.716C294.182 105.201 293.893 104.501 293.893 103.772C293.893 103.043 294.182 102.344 294.698 101.829C295.214 101.313 295.914 101.023 296.644 101.023H442.686C443.416 101.023 444.115 101.313 444.631 101.829C445.147 102.344 445.437 103.043 445.437 103.772C445.437 104.501 445.147 105.201 444.631 105.716C444.115 106.232 443.416 106.521 442.686 106.521Z" fill="black"/>
<path opacity="0.1" d="M442.686 118.771H296.644C295.914 118.771 295.214 118.482 294.698 117.966C294.182 117.451 293.893 116.752 293.893 116.023C293.891 115.661 293.961 115.303 294.099 114.969C294.237 114.635 294.44 114.331 294.695 114.076C294.951 113.82 295.255 113.618 295.589 113.48C295.924 113.342 296.282 113.272 296.644 113.274H442.686C443.416 113.274 444.116 113.563 444.631 114.079C445.147 114.594 445.437 115.293 445.437 116.023C445.437 116.752 445.147 117.451 444.631 117.966C444.116 118.482 443.416 118.771 442.686 118.771Z" fill="black"/>
<path opacity="0.1" d="M442.686 131.022H296.644C295.914 131.022 295.214 130.732 294.698 130.216C294.182 129.701 293.893 129.002 293.893 128.273C293.891 127.911 293.961 127.552 294.099 127.217C294.237 126.883 294.439 126.578 294.695 126.322C294.95 126.066 295.254 125.862 295.588 125.723C295.923 125.585 296.281 125.513 296.644 125.513H442.686C443.417 125.516 444.116 125.808 444.632 126.325C445.148 126.842 445.437 127.543 445.437 128.273C445.437 129.002 445.147 129.701 444.631 130.216C444.116 130.732 443.416 131.022 442.686 131.022Z" fill="black"/>
<path opacity="0.1" d="M442.697 137.763H296.644C295.124 137.763 293.893 138.994 293.893 140.512V140.523C293.893 142.041 295.124 143.272 296.644 143.272H442.697C444.216 143.272 445.448 142.041 445.448 140.523V140.512C445.448 138.994 444.216 137.763 442.697 137.763Z" fill="black"/>
<path opacity="0.1" d="M442.686 155.501H296.644C295.914 155.501 295.214 155.211 294.698 154.696C294.182 154.18 293.893 153.481 293.893 152.752C293.893 152.023 294.182 151.324 294.698 150.808C295.214 150.293 295.914 150.003 296.644 150.003H442.686C443.416 150.003 444.115 150.293 444.631 150.808C445.147 151.324 445.437 152.023 445.437 152.752C445.437 153.481 445.147 154.18 444.631 154.696C444.115 155.211 443.416 155.501 442.686 155.501Z" fill="black"/>
<path opacity="0.1" d="M442.686 167.761H296.644C295.914 167.761 295.214 167.472 294.698 166.956C294.182 166.441 293.893 165.741 293.893 165.012C293.891 164.651 293.961 164.293 294.099 163.959C294.237 163.625 294.44 163.321 294.695 163.066C294.951 162.81 295.255 162.608 295.589 162.47C295.924 162.332 296.282 162.262 296.644 162.263H442.686C443.416 162.263 444.116 162.553 444.631 163.069C445.147 163.584 445.437 164.283 445.437 165.012C445.437 165.741 445.147 166.441 444.631 166.956C444.116 167.472 443.416 167.761 442.686 167.761Z" fill="black"/>
<path opacity="0.1" d="M442.686 180.011H296.644C295.914 180.011 295.214 179.722 294.698 179.206C294.182 178.691 293.893 177.992 293.893 177.262C293.891 176.901 293.961 176.542 294.099 176.207C294.237 175.873 294.439 175.568 294.695 175.312C294.95 175.056 295.254 174.852 295.588 174.713C295.923 174.575 296.281 174.503 296.644 174.503H442.686C443.417 174.506 444.116 174.798 444.632 175.315C445.148 175.832 445.437 176.532 445.437 177.262C445.437 177.992 445.147 178.691 444.631 179.206C444.116 179.722 443.416 180.011 442.686 180.011Z" fill="black"/>
<path opacity="0.1" d="M442.686 192.261H296.644C296.281 192.261 295.923 192.19 295.588 192.051C295.254 191.912 294.95 191.709 294.695 191.453C294.439 191.196 294.237 190.892 294.099 190.557C293.961 190.222 293.891 189.864 293.893 189.502C293.893 188.773 294.182 188.074 294.698 187.558C295.214 187.043 295.914 186.753 296.644 186.753H442.686C443.416 186.753 444.116 187.043 444.631 187.558C445.147 188.074 445.437 188.773 445.437 189.502C445.437 190.232 445.148 190.932 444.632 191.45C444.116 191.967 443.417 192.259 442.686 192.261Z" fill="black"/>
<path opacity="0.1" d="M359.006 204.501H296.644C295.914 204.501 295.214 204.212 294.698 203.696C294.182 203.18 293.893 202.481 293.893 201.752C293.893 201.023 294.182 200.324 294.698 199.808C295.214 199.293 295.914 199.003 296.644 199.003H359.006C359.736 199.003 360.435 199.293 360.951 199.808C361.467 200.324 361.757 201.023 361.757 201.752C361.757 202.481 361.467 203.18 360.951 203.696C360.435 204.212 359.736 204.501 359.006 204.501Z" fill="black"/>
<path d="M431.451 82.9409L431.253 82.7737C430.688 82.3451 430.363 82.4915 430.102 81.6657C429.914 81.07 430.102 80.401 429.882 79.7843C429.384 78.7228 428.814 77.6961 428.177 76.7114L425.604 72.081C425.03 71.0557 424.072 70.2996 422.941 69.9783C421.81 69.6571 420.597 69.7968 419.569 70.3668L395.877 83.5576C395.783 84.352 395.124 84.8955 394.988 85.6481C394.941 85.8704 394.953 86.1012 395.023 86.3175C395.092 86.5337 395.217 86.7281 395.385 86.8814C395.119 86.8762 394.862 86.7844 394.653 86.6201C393.241 85.8362 392.864 85.2091 391.41 86.0034C390.783 86.3379 390.166 86.6933 389.549 87.0487L383.273 90.5502L363.608 101.494L340.596 114.329L321.423 125.001C318.808 126.454 315.638 127.729 313.306 129.579C313.954 129.913 314.069 130.426 313.494 130.927L312.448 131.879C312.448 132.14 312.825 132.14 313.065 132.035L314.362 131.481C313.461 132.625 312.376 133.61 311.151 134.398C309.094 135.591 306.884 136.498 304.582 137.094L305.691 135.704C305.774 135.589 305.879 135.443 305.806 135.307C305.733 135.171 305.597 135.161 305.471 135.15C304.917 135.087 304.362 135.15 303.954 134.742C300.377 136.833 296.632 138.819 292.992 140.847C291.966 141.421 291.21 142.378 290.888 143.508C290.567 144.638 290.706 145.85 291.277 146.878L315.168 189.732C315.45 190.24 315.83 190.688 316.286 191.049C316.742 191.411 317.265 191.679 317.824 191.838C318.384 191.997 318.969 192.044 319.547 191.977C320.125 191.91 320.684 191.73 321.192 191.446L327.479 187.903C327.479 187.161 328.065 186.335 327.625 185.656C327.563 185.573 327.524 185.476 327.51 185.373C327.51 185.237 327.636 185.133 327.751 185.06C328.395 184.651 329.133 184.413 329.895 184.37C330.157 184.37 330.502 184.485 330.46 184.736C330.46 184.506 331.809 184.025 332.029 183.952C332.134 184.516 331.747 185.122 332.406 185.237C333.065 185.352 334.069 184.192 334.498 183.983L340.774 180.482L360.648 169.434L382.446 157.298L396.933 149.229C397.456 148.926 398.073 148.571 398.576 148.32C398.757 147.361 399.224 146.48 399.914 145.791C400.96 145.069 402.613 145.864 403.481 144.839C403.649 144.641 403.753 144.4 403.9 144.191C404.192 143.851 404.547 143.571 404.946 143.366C405.198 143.167 405.504 143.047 405.824 143.021C406.138 143.021 406.473 143.282 406.431 143.596C408.586 143.094 410.531 141.641 412.435 140.564C413.125 140.178 419.182 137.335 419.161 136.885C419.077 135.495 419.924 134.303 419.883 132.871C419.883 132.6 419.349 130.781 419.59 130.645C414.15 133.885 408.502 136.833 402.958 139.906C402.77 140.021 402.059 140.261 401.912 140.47C401.912 140.47 401.86 140.564 401.839 140.617L401.682 140.962V141.045C401.457 141.756 401.192 142.454 400.887 143.136C400.887 143.23 399.705 144.693 399.611 144.348C399.151 142.665 398.565 142.404 397.279 143.094L395.438 144.139L389.59 147.39L369.894 158.365L346.684 171.284L327.343 182.049L319.236 186.554C317.619 183.628 315.99 180.705 314.352 177.785L311.214 172.151C310.896 171.37 310.427 170.66 309.833 170.061C309.383 169.726 308.62 169.81 308.222 169.507C307.249 168.765 306.548 167.416 305.628 166.549C305 165.963 304.049 164.207 304.31 163.235C304.624 163.361 304.938 163.497 305.251 163.591C305.087 162.947 305.124 162.269 305.356 161.647C302.218 156.368 299.331 150.849 296.329 145.456L296.13 145.111L303.452 141.035L308.797 138.056C309.897 137.584 310.948 137.006 311.935 136.331C312.615 135.746 313.306 135.014 314.027 134.387C314.512 134.019 315.038 133.71 315.596 133.467L317.573 132.506C317.675 132.445 317.79 132.409 317.908 132.401C318.026 132.414 318.142 132.442 318.253 132.485C319.299 132.704 321.893 130.771 322.835 130.248L328.922 126.861L347.29 116.629L370.177 103.898L393.084 91.1355L411.515 80.8818L420.929 75.6557L421.368 75.4153L431.545 93.6754C432.175 94.9062 433.183 95.9027 434.422 96.5184C434.84 96.6543 435.311 96.947 435.259 97.3755C435.206 97.8041 434.579 98.1594 434.725 98.5984C434.872 99.0374 435.677 98.8702 435.865 99.2674C436.054 99.6646 435.541 100.313 435.604 100.856C435.82 101.507 436.142 102.118 436.556 102.664L439.516 107.985C441.169 110.932 442.811 113.89 444.474 116.869L426.378 126.945C426.468 127.017 426.542 127.106 426.598 127.206L426.692 127.447C427.052 127.574 427.401 127.728 427.738 127.907C427.882 127.987 428.002 128.106 428.083 128.25C428.164 128.394 428.204 128.557 428.198 128.722C428.196 128.885 428.15 129.045 428.065 129.184C427.981 129.324 427.861 129.438 427.717 129.516L426.608 130.143C426.569 130.386 426.457 130.61 426.287 130.788C426.117 130.965 425.897 131.087 425.656 131.136C425.528 131.147 425.398 131.147 425.269 131.136C425.16 131.217 425.033 131.273 424.9 131.3C424.766 131.327 424.628 131.325 424.495 131.293C424.259 131.22 424.059 131.059 423.938 130.843C423.818 130.627 423.785 130.373 423.847 130.133C423.89 130.025 423.946 129.924 424.014 129.83C423.935 129.678 423.899 129.506 423.91 129.335C423.921 129.164 423.979 128.999 424.077 128.858H423.742C423.554 128.858 423.387 128.753 423.209 128.701C422.268 129.282 421.536 130.145 421.117 131.168C421.071 131.224 421.049 131.295 421.054 131.366C421.054 131.513 421.284 131.523 421.42 131.586C421.734 131.732 421.661 132.192 421.504 132.495C421.347 132.798 421.159 133.185 421.368 133.457C421.447 133.548 421.535 133.632 421.629 133.708C422.079 134.22 421.389 135.704 422.487 135.098C422.41 134.775 422.459 134.435 422.623 134.147C422.809 133.856 423.096 133.644 423.428 133.551C424.242 133.354 425.072 133.235 425.908 133.196L447.717 121.008C448.743 120.434 449.499 119.477 449.821 118.347C450.142 117.216 450.003 116.005 449.432 114.977L449.307 114.758L439.453 97.0829L433.763 86.8605C433.209 85.8885 432.717 84.8746 432.11 83.913C431.944 83.5561 431.721 83.2281 431.451 82.9409Z" fill="#4BCE81"/>
<path d="M330.68 140.69C329.959 139.812 330.178 139.791 330.042 138.85C330.042 138.85 330.042 138.85 330.042 138.788L329.959 138.694L329.833 138.547C329.342 138.767 328.85 139.007 328.358 139.279L318.725 144.641L322.605 151.592C322.061 150.63 323.986 150.912 324.059 150.902C324.263 150.842 324.474 150.807 324.687 150.797C324.896 150.842 325.08 150.965 325.199 151.142C325.602 151.845 325.721 152.675 325.534 153.463C325.419 154.508 325.973 155.553 325.377 156.598C325.89 157.434 330.523 165.859 330.544 165.849L340.178 160.487C340.732 160.173 342.05 159.619 342.375 159.065C342.699 158.511 342.186 157.643 342.762 157.382C342.978 157.303 343.21 157.273 343.44 157.295C343.67 157.316 343.892 157.389 344.09 157.508C345.925 155.692 347.104 153.319 347.443 150.762C347.782 148.204 347.261 145.606 345.962 143.376C343.253 138.516 337.103 135.621 331.716 137.878C331.339 138.035 331.841 139.718 330.942 139.906C331.114 139.569 331.361 139.276 331.664 139.049L330.68 140.69ZM337.668 156.546L333.18 159.044C332.814 158.386 332.459 157.727 332.082 157.09C332.553 157.884 331.256 157.633 330.984 157.455C330.325 157.016 330.147 155.752 330.126 155.041C330.11 153.822 329.747 152.633 329.08 151.613C328.027 149.71 326.981 147.808 325.942 145.906L330.429 143.407C334.613 141.066 338.797 142.038 341.057 146.094C343.316 150.149 341.883 154.236 337.668 156.546Z" fill="#4BCE81"/>
<path d="M362.53 122.89C362.759 123.386 362.825 123.942 362.719 124.478C362.666 124.771 362.196 125.524 362.258 125.712C362.426 126.13 362.593 126.548 362.75 126.966C362.778 127.034 362.817 127.098 362.865 127.154C362.946 127.208 363.04 127.237 363.137 127.238C364.8 127.384 364.727 127.551 364.832 128.952C364.926 130.154 365.961 130.844 366.547 131.889C367.334 133.262 367.675 134.845 367.526 136.421C367.376 137.996 366.741 139.486 365.709 140.687C364.678 141.887 363.299 142.739 361.764 143.125C360.228 143.511 358.61 143.413 357.133 142.843C357.094 142.881 357.052 142.916 357.007 142.948C356.788 143.058 356.536 143.088 356.296 143.031C355.752 142.877 355.26 142.58 354.872 142.169C354.483 141.759 354.213 141.251 354.089 140.7C354.074 140.617 354.074 140.532 354.089 140.449C353.793 140.083 353.531 139.692 353.305 139.279C352.767 138.415 352.414 137.45 352.267 136.444C352.12 135.437 352.182 134.411 352.45 133.43C352.718 132.449 353.186 131.534 353.825 130.742C354.463 129.949 355.258 129.297 356.16 128.827C357.468 128.081 358.968 127.739 360.47 127.844L360.386 127.719C359.487 126.527 362.729 126.046 361.265 125.241C360.648 124.907 360.752 123.391 360.595 122.775C358.219 122.828 355.894 123.471 353.828 124.646C347.133 128.377 344.822 135.767 348.336 142.07C349.815 144.781 352.261 146.837 355.187 147.829C355.876 148.128 356.613 148.298 357.363 148.33C358.221 148.257 357.802 148.33 358.169 147.818C358.535 147.306 358.315 147.087 358.869 146.543C359.424 146 360.072 145.676 360.187 144.839C360.187 145.216 360.606 145.487 360.606 145.885C360.606 146 360.606 146.115 360.606 146.219C360.628 146.356 360.69 146.483 360.784 146.585C361.139 147.066 361.735 147.63 361.746 148.184C363.276 147.93 364.745 147.392 366.076 146.595C372.739 142.885 375.103 135.506 371.568 129.182C369.737 125.952 366.296 123.099 362.53 122.89Z" fill="#4BCE81"/>
<path d="M383.921 108.34L391.097 121.207L373.378 114.204L369.319 116.472C372.06 121.385 374.968 126.245 377.541 131.251C377.719 130.708 378.137 130.603 378.639 130.53C379.581 130.405 379.549 130.875 380.062 131.805C380.124 131.92 380.198 132.035 380.313 132.056C380.428 132.077 380.658 131.889 380.846 131.91C381.035 131.931 381.108 132.161 381.055 132.339C380.989 132.513 380.901 132.678 380.794 132.83C380.491 133.405 380.993 133.77 380.93 134.293C380.93 134.565 380.02 135.673 380.124 135.861L381.17 137.659L386.024 134.962L384.727 132.642H384.486C383.074 132.83 383.702 130.98 383.388 130.217C382.88 129.136 382.304 128.088 381.662 127.081L378.807 122.053L393.21 127.719C393.173 127.305 393.223 126.889 393.356 126.496C393.471 126.276 394.402 125.869 394.402 125.66C394.456 126.334 394.772 126.96 395.281 127.405C395.835 127.896 395.835 127.823 395.731 128.691L396.589 129.036L400.626 126.788L388.806 105.602L383.921 108.34Z" fill="#4BCE81"/>
<path d="M408.304 117.381L405.564 112.479L415.417 106.992L413.325 103.177L403.482 108.664L400.919 104.055L407.572 100.355C407.853 99.9926 408.21 99.6964 408.618 99.4871C408.824 99.381 409.063 99.355 409.287 99.4139L412.101 97.8565C412.101 97.8565 410.103 94.2923 409.915 93.916C408.953 94.355 409.915 95.5675 408.942 96.1528C409.141 96.3619 409.434 97.104 408.942 97.198C408.66 97.198 408.451 96.8427 408.168 96.874C407.886 96.9054 407.875 97.0412 407.729 96.9994C407.684 96.9869 407.643 96.9644 407.609 96.9336C407.574 96.9028 407.547 96.8645 407.53 96.8218C407.395 96.5065 407.223 96.2083 407.018 95.9333C406.359 95.2957 400.344 99.2989 399.507 99.7693L393.911 102.905L405.72 124.092L410.438 121.468L410.532 121.343C410.877 120.904 411.212 120.454 411.578 120.047C411.727 119.906 411.917 119.816 412.12 119.792C412.324 119.767 412.53 119.809 412.708 119.911C412.792 119.955 412.867 120.015 412.927 120.089L422.143 114.956L419.946 111.016L408.304 117.381Z" fill="#4BCE81"/>
<path d="M420.888 342.816C420.888 342.816 414.005 327.828 421.861 313.038C429.716 298.248 432.007 294.767 426.996 291.746C421.986 288.726 419.674 303.568 419.674 303.568C419.674 303.568 415.49 293.346 418.932 282.663C422.373 271.981 424.612 254.547 419.852 252.676C415.093 250.805 418.942 274.406 414.811 282.454C412.704 276.805 411.343 270.906 410.763 264.905C410.198 256.313 411.087 242.6 407.321 239.077C403.556 235.555 401.16 238.032 404.853 256.951C407.072 268.282 408.301 279.784 408.524 291.328C408.524 291.328 400.355 266.452 394.926 265.731C389.497 265.009 389.456 273.047 394.152 280.04C398.849 287.032 407.844 299.533 409.319 306.014C409.319 306.014 400.365 287.304 392.301 293.032C384.236 298.76 399.319 310.08 406.035 314.166C412.75 318.253 417.426 343.851 417.426 343.851L420.888 342.816Z" fill="#407BFF"/>
<path opacity="0.2" d="M420.888 342.816C420.888 342.816 414.005 327.828 421.861 313.038C429.716 298.248 432.007 294.767 426.996 291.746C421.986 288.726 419.674 303.568 419.674 303.568C419.674 303.568 415.49 293.346 418.932 282.663C422.373 271.981 424.612 254.547 419.852 252.676C415.093 250.805 418.942 274.406 414.811 282.454C412.704 276.805 411.343 270.906 410.763 264.905C410.198 256.313 411.087 242.6 407.321 239.077C403.556 235.555 401.16 238.032 404.853 256.951C407.072 268.282 408.301 279.784 408.524 291.328C408.524 291.328 400.355 266.452 394.926 265.731C389.497 265.009 389.456 273.047 394.152 280.04C398.849 287.032 407.844 299.533 409.319 306.014C409.319 306.014 400.365 287.304 392.301 293.032C384.236 298.76 399.319 310.08 406.035 314.166C412.75 318.253 417.426 343.851 417.426 343.851L420.888 342.816Z" fill="black"/>
<path d="M415.449 348.973C415.449 348.973 422.154 333.869 414.12 319.205C406.087 304.54 403.754 301.091 408.733 297.986C413.712 294.882 416.181 309.703 416.181 309.703C416.181 309.703 420.281 299.429 416.673 288.799C413.064 278.169 410.658 260.766 415.396 258.832C420.135 256.898 416.568 280.552 420.794 288.527C422.834 282.852 424.121 276.935 424.622 270.925C425.093 262.323 424.036 248.62 427.76 245.046C431.484 241.471 433.921 243.875 430.448 262.888C428.367 274.245 427.278 285.761 427.195 297.307C427.195 297.307 435.061 272.316 440.532 271.511C446.002 270.706 446.086 278.754 441.484 285.809C436.881 292.865 427.99 305.512 426.578 311.94C426.578 311.94 435.312 293.126 443.44 298.718C451.567 304.31 436.63 315.86 429.967 320.041C423.304 324.222 418.901 349.913 418.901 349.913L415.449 348.973Z" fill="#407BFF"/>
<path d="M446.347 338.207H391.014L395.491 377.779H441.87L446.347 338.207Z" fill="#263238"/>
<path d="M163.289 89.3901H126.773C125.366 89.3901 124.018 89.9485 123.023 90.9423C122.028 91.9361 121.47 93.284 121.47 94.6895V130.164C121.47 131.57 122.028 132.918 123.023 133.912C124.018 134.905 125.366 135.464 126.773 135.464H138.457L130.591 146.146L144.189 135.464H163.278C164.685 135.464 166.034 134.905 167.028 133.912C168.023 132.918 168.582 131.57 168.582 130.164V94.6895C168.582 93.2858 168.024 91.9395 167.032 90.946C166.04 89.9524 164.694 89.3929 163.289 89.3901Z" fill="#4BCE81"/>
<path opacity="0.6" d="M163.289 89.3901H126.773C125.366 89.3901 124.018 89.9485 123.023 90.9423C122.028 91.9361 121.47 93.284 121.47 94.6895V130.164C121.47 131.57 122.028 132.918 123.023 133.912C124.018 134.905 125.366 135.464 126.773 135.464H138.457L130.591 146.146L144.189 135.464H163.278C164.685 135.464 166.034 134.905 167.028 133.912C168.023 132.918 168.582 131.57 168.582 130.164V94.6895C168.582 93.2858 168.024 91.9395 167.032 90.946C166.04 89.9524 164.694 89.3929 163.289 89.3901Z" fill="white"/>
<path d="M145.036 128.994C154.193 128.994 161.615 121.577 161.615 112.427C161.615 103.277 154.193 95.8601 145.036 95.8601C135.88 95.8601 128.457 103.277 128.457 112.427C128.457 121.577 135.88 128.994 145.036 128.994Z" fill="#4BCE81"/>
<path opacity="0.2" d="M158.866 115.679C160.669 108.044 155.937 100.394 148.296 98.5915C140.656 96.7894 132.999 101.518 131.196 109.153C129.393 116.789 134.125 124.439 141.766 126.241C149.407 128.043 157.063 123.314 158.866 115.679Z" fill="black"/>
<path d="M143.268 119.21C143.076 119.215 142.884 119.181 142.705 119.111C142.525 119.041 142.361 118.936 142.222 118.803L136.187 112.897C135.909 112.628 135.75 112.26 135.744 111.874C135.738 111.488 135.886 111.115 136.155 110.838C136.424 110.561 136.793 110.402 137.179 110.396C137.566 110.39 137.939 110.538 138.216 110.807L143.164 115.646L151.72 106.103C151.982 105.839 152.336 105.686 152.708 105.674C153.081 105.663 153.443 105.795 153.721 106.043C153.999 106.291 154.17 106.636 154.201 107.007C154.232 107.378 154.118 107.747 153.885 108.037L144.314 118.709C144.182 118.856 144.021 118.975 143.841 119.058C143.661 119.141 143.466 119.185 143.268 119.19V119.21Z" fill="white"/>
<path d="M97.6736 354.011L127.809 351.042V317.083H139.754V351.032L170.015 354.011C171.465 354.151 172.811 354.826 173.789 355.905C174.768 356.983 175.309 358.387 175.308 359.843V364.369H92.3809V359.843C92.3793 358.387 92.9206 356.983 93.8993 355.905C94.8779 354.826 96.2236 354.151 97.6736 354.011Z" fill="#263238"/>
<path opacity="0.1" d="M97.6736 354.011L127.809 351.042V317.083H139.754V351.032L170.015 354.011C171.465 354.151 172.811 354.826 173.789 355.905C174.768 356.983 175.309 358.387 175.308 359.843V364.369H92.3809V359.843C92.3793 358.387 92.9206 356.983 93.8993 355.905C94.8779 354.826 96.2236 354.151 97.6736 354.011Z" fill="white"/>
<path d="M172.117 377.779C176.433 377.779 179.931 374.283 179.931 369.971C179.931 365.659 176.433 362.163 172.117 362.163C167.802 362.163 164.304 365.659 164.304 369.971C164.304 374.283 167.802 377.779 172.117 377.779Z" fill="#263238"/>
<path d="M95.5714 377.779C99.8868 377.779 103.385 374.283 103.385 369.971C103.385 365.659 99.8868 362.163 95.5714 362.163C91.2561 362.163 87.7578 365.659 87.7578 369.971C87.7578 374.283 91.2561 377.779 95.5714 377.779Z" fill="#263238"/>
<path d="M137.485 326.176H130.037C128.891 326.176 127.793 325.721 126.982 324.912C126.172 324.102 125.717 323.004 125.717 321.859V288.475H141.805V321.859C141.805 323.004 141.35 324.102 140.539 324.912C139.729 325.721 138.63 326.176 137.485 326.176Z" fill="#263238"/>
<path opacity="0.2" d="M137.485 326.176H130.037C128.891 326.176 127.793 325.721 126.982 324.912C126.172 324.102 125.717 323.004 125.717 321.859V288.475H141.805V321.859C141.805 323.004 141.35 324.102 140.539 324.912C139.729 325.721 138.63 326.176 137.485 326.176Z" fill="white"/>
<path d="M92.0675 223.043C92.0675 223.043 101.021 278.838 118.699 288.485H100.728C100.728 288.485 82.9463 269.462 77.5908 223.043H92.0675Z" fill="#263238"/>
<path opacity="0.1" d="M92.0675 223.043C92.0675 223.043 101.021 278.838 118.699 288.485H100.728C100.728 288.485 82.9463 269.462 77.5908 223.043H92.0675Z" fill="white"/>
<path d="M99.8706 280.594H169.869C171.256 280.594 172.586 281.144 173.567 282.124C174.548 283.105 175.099 284.434 175.099 285.82V292.812H94.6406V285.82C94.6406 284.434 95.1916 283.105 96.1725 282.124C97.1533 281.144 98.4835 280.594 99.8706 280.594Z" fill="#407BFF"/>
<path d="M176.312 286.698H93.3534C92.1923 286.698 91.251 287.638 91.251 288.799V290.701C91.251 291.861 92.1923 292.802 93.3534 292.802H176.312C177.473 292.802 178.414 291.861 178.414 290.701V288.799C178.414 287.638 177.473 286.698 176.312 286.698Z" fill="#263238"/>
<path opacity="0.6" d="M176.312 286.698H93.3534C92.1923 286.698 91.251 287.638 91.251 288.799V290.701C91.251 291.861 92.1923 292.802 93.3534 292.802H176.312C177.473 292.802 178.414 291.861 178.414 290.701V288.799C178.414 287.638 177.473 286.698 176.312 286.698Z" fill="white"/>
<path d="M75.4672 234.395H104.222C112.653 234.395 118.123 227.643 116.449 219.312L114.211 208.191C112.537 199.829 104.347 193.119 95.927 193.119H67.1724C58.7417 193.119 53.2711 199.871 54.9447 208.191L57.1831 219.312C58.8567 227.622 67.0365 234.395 75.4672 234.395Z" fill="#407BFF"/>
<path d="M228.047 327.849L221.457 330.43L216.719 321.504L212.409 313.383L219.71 309.014L224.124 318.975L228.047 327.849Z" fill="#E4897B"/>
<path opacity="0.2" d="M224.124 318.975L216.719 321.504L212.409 313.383L219.71 309.014L224.124 318.975Z" fill="black"/>
<path d="M222.755 314.104L213.79 318.912C213.79 318.912 179.91 259.386 174.701 259.888C169.492 260.39 120.069 291.851 104.996 280.228C89.9231 268.605 104.588 233.611 104.588 233.611C104.588 233.611 135.769 224.705 139.106 231.52C139.985 233.561 140.733 235.656 141.344 237.792C142.003 239.934 142.505 241.743 142.505 241.743C143.457 241.356 174.252 228.74 187.996 235.471C202.023 242.391 222.755 314.104 222.755 314.104Z" fill="#263238"/>
<path opacity="0.3" d="M222.755 314.104L213.79 318.912C213.79 318.912 179.91 259.386 174.701 259.888C169.492 260.39 120.069 291.851 104.996 280.228C89.9231 268.605 104.588 233.611 104.588 233.611C104.588 233.611 135.769 224.705 139.106 231.52C139.985 233.561 140.733 235.656 141.344 237.792C142.003 239.934 142.505 241.743 142.505 241.743C143.457 241.356 174.252 228.74 187.996 235.471C202.023 242.391 222.755 314.104 222.755 314.104Z" fill="white"/>
<path d="M174.053 362.644L167.024 361.839L166.982 351.931L166.972 342.837L175.476 342.44L174.723 353.133L174.053 362.644Z" fill="#E4897B"/>
<path opacity="0.2" d="M174.701 353.352L166.961 352.119V342.931L175.465 342.482L174.701 353.352Z" fill="black"/>
<path d="M209.407 315.954L222.524 309.39L223.894 314.95L213.957 320.072L209.407 315.954Z" fill="#407BFF"/>
<path d="M128.279 280.322C128.279 280.322 130.434 280.082 163.582 273.946C163.582 273.946 164.335 316.299 165.904 347.875L176.113 348.199C176.113 348.199 190.757 278.169 189.031 267.549C187.305 256.93 174.711 255.54 174.711 255.54C174.711 255.54 152.839 272.566 128.279 280.322Z" fill="#263238"/>
<path opacity="0.4" d="M128.279 280.322C128.279 280.322 130.434 280.082 163.582 273.946C163.582 273.946 164.335 316.299 165.904 347.875L176.113 348.199C176.113 348.199 190.757 278.169 189.031 267.549C187.305 256.93 174.711 255.54 174.711 255.54C174.711 255.54 152.839 272.566 128.279 280.322Z" fill="white"/>
<path opacity="0.3" d="M128.279 280.322C128.279 280.322 130.434 280.082 163.582 273.946C163.582 273.946 164.335 316.299 165.904 347.875L176.113 348.199C176.113 348.199 190.757 278.169 189.031 267.549C187.305 256.93 174.711 255.54 174.711 255.54C174.711 255.54 152.839 272.566 128.279 280.322Z" fill="black"/>
<path d="M164.032 345.053L177.954 344.729L176.051 350.457L164.754 350.561L164.032 345.053Z" fill="#407BFF"/>
<path opacity="0.3" d="M142.547 241.764L124.482 248.192C124.482 248.192 133.98 241.105 141.386 237.813C142.045 239.955 142.547 241.764 142.547 241.764Z" fill="black"/>
<path d="M102.496 231.458L103.166 236.464L137.025 229.284L136.24 223.368L102.496 231.458Z" fill="#263238"/>
<path opacity="0.2" d="M102.496 231.458L103.166 236.464L137.025 229.284L136.24 223.368L102.496 231.458Z" fill="black"/>
<path d="M113.715 227.82L112.028 228.133L113.621 236.714L115.308 236.401L113.715 227.82Z" fill="#263238"/>
<path d="M128.479 225.648L121.091 227.312L122.353 232.91L129.741 231.246L128.479 225.648Z" fill="white"/>
<path d="M133.229 222.152L131.548 222.461L133.12 231.014L134.801 230.705L133.229 222.152Z" fill="#263238"/>
<path opacity="0.3" d="M113.715 227.82L112.028 228.133L113.621 236.714L115.308 236.401L113.715 227.82Z" fill="white"/>
<path opacity="0.3" d="M133.229 222.152L131.548 222.461L133.12 231.014L134.801 230.705L133.229 222.152Z" fill="white"/>
<path d="M241.144 339.534C240.044 339.197 238.891 339.066 237.744 339.147C237.744 339.147 233.487 337.371 228.33 328.915L223.937 329.49C223.198 329.601 222.51 329.936 221.968 330.45C221.425 330.964 221.054 331.632 220.904 332.364C220.872 332.572 220.872 332.783 220.904 332.991C221.093 334.052 221.351 335.1 221.678 336.127C222.804 339.524 224.135 342.851 225.663 346.088L226.374 345.795L224.104 339.461C223.351 337.297 225.977 339.127 227.368 341.217C228.759 343.307 230.736 345.335 235.432 343.558C240.893 341.426 243.058 340.297 241.144 339.534Z" fill="#263238"/>
<path d="M227.231 326.667C227.231 326.667 234.281 337.371 237.743 339.147C237.743 339.147 233.863 342.283 228.685 337.245C222.001 330.775 220.882 332.991 220.882 332.991C220.822 331.724 220.882 330.453 221.06 329.197C221.593 326.741 227.231 326.667 227.231 326.667Z" fill="#E4897B"/>
<path d="M184.596 375.103C183.594 374.526 182.496 374.137 181.354 373.954C181.354 373.954 177.64 371.226 174.659 361.798L170.256 361.317C169.508 361.246 168.758 361.409 168.107 361.784C167.457 362.158 166.939 362.726 166.626 363.407C166.532 363.595 166.469 363.796 166.438 364.003C166.365 365.071 166.365 366.143 166.438 367.212C166.721 370.779 167.225 374.326 167.944 377.831L168.708 377.716L168.028 371.006C167.808 368.727 169.931 371.131 170.789 373.494C171.647 375.856 173.08 378.291 178.059 377.675C183.875 376.891 186.238 376.305 184.596 375.103Z" fill="#263238"/>
<path d="M174.136 359.32C174.136 359.32 178.446 371.393 181.385 373.954C181.385 373.954 176.877 376.044 173.017 369.961C168.049 362.09 166.448 363.982 166.448 363.982C166.682 362.74 167.032 361.522 167.494 360.345C168.603 358.045 174.136 359.32 174.136 359.32Z" fill="#E4897B"/>
<path d="M95.1214 146.094L86.2722 147.871C85.9265 148.162 85.5181 148.369 85.0789 148.476C84.6398 148.583 84.1818 148.587 83.7409 148.487C81.1049 147.442 77.308 144.38 76.8268 143.261C76.1155 141.683 76.8268 137.053 78.6887 136.216C80.5506 135.38 86.9626 143.115 86.9626 143.115L96.4707 140.972L95.1214 146.094Z" fill="#E4897B"/>
<path d="M123.029 175.486C123.029 175.486 122.223 146.836 118.907 145.613C115.591 144.39 90.6653 147.808 90.6653 147.808L90.0586 141.265C90.0586 141.265 119.064 136.802 124.681 139.446C130.298 142.091 132.15 184.788 131.125 193.014L123.029 175.486Z" fill="#407BFF"/>
<path opacity="0.6" d="M123.029 175.486C123.029 175.486 122.223 146.836 118.907 145.613C115.591 144.39 90.6653 147.808 90.6653 147.808L90.0586 141.265C90.0586 141.265 119.064 136.802 124.681 139.446C130.298 142.091 132.15 184.788 131.125 193.014L123.029 175.486Z" fill="white"/>
<path d="M91.0948 148.435L89.3584 141.244L91.8479 140.345L93.4273 148.655L91.0948 148.435Z" fill="#407BFF"/>
<path opacity="0.7" d="M91.0948 148.435L89.3584 141.244L91.8479 140.345L93.4273 148.655L91.0948 148.435Z" fill="white"/>
<path d="M122.882 171.911C122.882 171.911 120.654 180.628 109.922 183.408C99.1905 186.189 87.3184 178.924 87.3184 178.924L89.6823 199.724L102.82 232.492L136.397 223.744C136.397 223.744 134.388 185.624 122.882 171.911Z" fill="#407BFF"/>
<path opacity="0.7" d="M122.882 171.911C122.882 171.911 120.654 180.628 109.922 183.408C99.1905 186.189 87.3184 178.924 87.3184 178.924L89.6823 199.724L102.82 232.492L136.397 223.744C136.397 223.744 134.388 185.624 122.882 171.911Z" fill="white"/>
<path opacity="0.6" d="M128.718 206.476L132.648 205.237C133.084 205.1 133.325 204.636 133.188 204.201L130.846 196.785C130.709 196.35 130.245 196.109 129.81 196.246L125.88 197.485C125.444 197.622 125.203 198.086 125.34 198.521L127.682 205.937C127.819 206.372 128.283 206.613 128.718 206.476Z" fill="#407BFF"/>
<path opacity="0.2" d="M127.918 204.215L132.387 202.806L130.458 196.696L125.989 198.105L127.918 204.215Z" fill="black"/>
<path d="M127.768 194.487L126.78 194.798L127.916 198.397L128.904 198.086L127.768 194.487Z" fill="#263238"/>
<path d="M100.059 139.352C91.7849 139.352 86.3247 148.111 88.2598 162.002C90.1949 175.893 97.9458 179.896 97.9458 179.896L97.4542 176.541C106.059 178.493 114.93 178.987 123.698 178.005C123.698 178.005 119.703 166.674 121 155.104C121 155.104 123.625 139.331 100.059 139.352Z" fill="#263238"/>
<path opacity="0.2" d="M116.491 180.586L119.869 193.129L113.928 188.603C113.928 188.603 119.713 201.815 121.25 209.508C121.25 209.508 116.25 196.411 111.941 189.23L109.42 196.422L99.2842 186.105C99.2842 186.105 108.238 179.248 116.491 180.586Z" fill="black"/>
<path d="M111.554 184.631L101.24 184.945C105.811 179.102 97.5479 168.922 97.5479 168.922L107.736 171.127C110.163 181.203 114.357 181.506 114.357 181.506L111.554 184.631Z" fill="#E4897B"/>
<path opacity="0.2" d="M110.581 178.36C106.646 178.031 102.985 176.21 100.351 173.27C99.5373 171.759 98.5997 170.319 97.5479 168.963L107.736 171.179C108.275 173.715 109.237 176.142 110.581 178.36Z" fill="black"/>
<path d="M107.726 143.606C116.607 144.348 119.075 149.334 118.96 158.542C118.824 170.04 115.603 177.952 104.703 174.587C89.8919 170.019 92.9672 142.373 107.726 143.606Z" fill="#E4897B"/>
<path d="M113.259 157.591C113.86 158.977 114.626 160.286 115.539 161.49C115.247 161.833 114.866 162.089 114.438 162.231C114.01 162.373 113.552 162.395 113.112 162.295L113.259 157.591Z" fill="#DE5753"/>
<path d="M107.245 156.107L109.17 155.48C109.17 155.48 108.145 157.006 107.245 156.107Z" fill="#263238"/>
<path d="M107.914 155.888C107.556 155.712 107.147 155.672 106.762 155.776C106.377 155.88 106.043 156.12 105.822 156.452C106.151 156.302 106.507 156.225 106.868 156.225C107.229 156.225 107.586 156.302 107.914 156.452V155.888Z" fill="#263238"/>
<path d="M104.337 151.654C104.238 151.652 104.144 151.611 104.075 151.539C104.039 151.505 104.01 151.464 103.99 151.418C103.97 151.372 103.96 151.323 103.96 151.273C103.96 151.223 103.97 151.174 103.99 151.128C104.01 151.082 104.039 151.041 104.075 151.006C104.659 150.497 105.352 150.129 106.102 149.933C106.852 149.737 107.637 149.718 108.395 149.878C108.494 149.898 108.58 149.957 108.635 150.042C108.69 150.126 108.709 150.229 108.688 150.327C108.667 150.425 108.608 150.511 108.524 150.566C108.44 150.621 108.337 150.64 108.238 150.62C107.605 150.49 106.952 150.505 106.325 150.663C105.699 150.82 105.116 151.116 104.619 151.529C104.584 151.569 104.541 151.601 104.492 151.623C104.443 151.645 104.39 151.655 104.337 151.654Z" fill="#263238"/>
<path d="M118.27 151.811C118.187 151.814 118.105 151.788 118.04 151.738C117.621 151.355 117.122 151.069 116.579 150.903C116.036 150.737 115.463 150.693 114.902 150.776C114.853 150.789 114.803 150.793 114.754 150.787C114.704 150.78 114.657 150.764 114.614 150.739C114.57 150.715 114.532 150.682 114.502 150.642C114.472 150.603 114.449 150.558 114.436 150.51C114.423 150.462 114.42 150.412 114.426 150.362C114.432 150.313 114.448 150.265 114.473 150.222C114.498 150.179 114.531 150.141 114.57 150.111C114.61 150.08 114.655 150.058 114.703 150.045C115.381 149.925 116.077 149.961 116.739 150.152C117.401 150.342 118.01 150.681 118.521 151.142C118.598 151.206 118.648 151.297 118.66 151.396C118.671 151.495 118.644 151.596 118.583 151.675C118.546 151.721 118.497 151.757 118.443 151.781C118.388 151.804 118.329 151.815 118.27 151.811Z" fill="#263238"/>
<path d="M96.7325 157.758C96.7325 157.758 101.492 150.818 101.335 145.132C101.335 145.132 119.546 139.404 118.929 157.34C118.929 157.34 121.962 141.662 106.722 140C91.4816 138.338 89.7139 160.727 97.0463 168.044C97.0463 168.044 93.8142 162.107 96.7325 157.758Z" fill="#263238"/>
<path d="M98.0606 159.755C98.0606 158.72 97.6498 157.727 96.9184 156.994C96.1871 156.262 95.1947 155.848 94.159 155.846C91.3766 155.919 89.5984 161.459 96.3347 163.392C97.297 163.664 97.935 162.755 98.0606 159.755Z" fill="#E4897B"/>
<path d="M113.186 164.908C112.535 165.782 111.951 166.705 111.439 167.667C111.261 167.605 111.073 167.552 110.895 167.479C108.437 166.612 107.579 165.389 107.381 164.344C107.287 163.813 107.326 163.267 107.496 162.755C107.583 162.46 107.709 162.179 107.872 161.919C109.15 163.132 110.678 164.053 112.349 164.615C112.851 164.803 113.186 164.908 113.186 164.908Z" fill="#263238"/>
<path d="M112.35 164.594L111.816 165.399C109.494 164.573 107.977 163.685 107.496 162.734C107.583 162.439 107.71 162.158 107.873 161.898C109.151 163.111 110.679 164.032 112.35 164.594Z" fill="white"/>
<path d="M110.895 167.479C108.437 166.612 107.58 165.389 107.381 164.344C108.311 164.686 109.172 165.192 109.923 165.838C110.41 166.271 110.75 166.845 110.895 167.479Z" fill="#DE5753"/>
<path d="M107.486 144.265C107.486 144.265 102.685 158.574 93.5008 157.591C84.3169 156.609 100.059 139.321 100.059 139.321C100.059 139.321 115.55 134.899 122.297 143.502C129.044 152.104 118.96 157.32 118.96 157.32C118.96 157.32 120.467 146.094 107.486 144.265Z" fill="#263238"/>
<path d="M100.164 156.441C100.11 156.439 100.059 156.422 100.015 156.393C99.9706 156.363 99.9352 156.322 99.9125 156.274C99.8886 156.208 99.8916 156.134 99.9209 156.07C99.9502 156.006 100.003 155.955 100.069 155.929C107.391 153.139 107.224 143.324 107.224 143.219C107.221 143.185 107.225 143.151 107.237 143.118C107.248 143.086 107.266 143.056 107.29 143.032C107.314 143.007 107.343 142.988 107.375 142.975C107.407 142.962 107.441 142.956 107.475 142.958C107.543 142.96 107.608 142.987 107.658 143.033C107.708 143.079 107.739 143.141 107.747 143.209C107.747 143.313 107.914 153.494 100.258 156.421L100.164 156.441Z" fill="#263238"/>
<path d="M116.261 156.975L118.185 156.358C118.185 156.358 117.15 157.874 116.261 156.975Z" fill="#263238"/>
<path d="M116.931 156.755C116.572 156.578 116.161 156.539 115.775 156.645C115.39 156.751 115.056 156.995 114.839 157.33C115.162 157.169 115.517 157.08 115.878 157.069C116.239 157.058 116.598 157.126 116.931 157.267V156.755Z" fill="#263238"/>
<path d="M102.695 180.722L110.466 184.673L110.341 192.544L99.2324 186.074L102.695 180.722Z" fill="#407BFF"/>
<path d="M111.648 179.238L112.109 184.015L117.182 189.377L116.491 180.555L111.648 179.238Z" fill="#407BFF"/>
<path d="M75.7394 125.189L72.4968 116.827C72.5559 116.38 72.5102 115.926 72.3632 115.499C72.2161 115.073 71.9718 114.687 71.6495 114.371C69.3901 112.688 64.725 111.162 63.5535 111.34C61.8485 111.591 58.3235 114.674 58.6268 116.691C58.9301 118.709 68.8881 119.953 68.8881 119.953L72.1934 129.119L75.7394 125.189Z" fill="#E4897B"/>
<path d="M89.7033 199.724C89.7033 199.724 95.9793 194.739 93.4793 183.722L86.7326 153.243L75.143 121.761L69.4736 124.625C69.4736 124.625 78.9922 155.386 79.8709 157.466C80.3206 158.511 82.1093 174.472 84.5465 185.164C86.7849 195.01 89.7033 199.724 89.7033 199.724Z" fill="#407BFF"/>
<path opacity="0.6" d="M89.7033 199.724C89.7033 199.724 95.9793 194.739 93.4793 183.722L86.7326 153.243L75.143 121.761L69.4736 124.625C69.4736 124.625 78.9922 155.386 79.8709 157.466C80.3206 158.511 82.1093 174.472 84.5465 185.164C86.7849 195.01 89.7033 199.724 89.7033 199.724Z" fill="white"/>
<path d="M68.4795 123.726L75.1007 120.412L76.5441 122.618L68.8038 126.046L68.4795 123.726Z" fill="#407BFF"/>
<path opacity="0.7" d="M68.4795 123.726L75.1007 120.412L76.5441 122.618L68.8038 126.046L68.4795 123.726Z" fill="white"/>
<path opacity="0.6" d="M102.695 180.722L110.466 184.673L110.341 192.544L99.2324 186.074L102.695 180.722Z" fill="white"/>
<path opacity="0.6" d="M111.648 179.238L112.109 184.015L117.182 189.377L116.491 180.555L111.648 179.238Z" fill="white"/>
<path d="M332.355 164.291H301.017V188.624H332.355V164.291Z" fill="white"/>
<path opacity="0.1" d="M332.355 164.291H324.321V188.624H332.355V164.291Z" fill="black"/>
<path d="M299.217 210.114H334.645V165.953H323.233L299.217 177.44V210.114Z" fill="#407BFF"/>
<path opacity="0.2" d="M334.645 165.953H323.233V210.114H334.645V165.953Z" fill="black"/>
<path opacity="0.7" d="M319.458 186.147H302.868V194.091H319.458V186.147Z" fill="white"/>
<path opacity="0.7" d="M319.458 196.746H302.868V197.885H319.458V196.746Z" fill="white"/>
<path opacity="0.7" d="M333.537 200.08H324.321V206.822H333.537V200.08Z" fill="white"/>
<path d="M319.039 162.964H287.701V188.624H319.039V162.964Z" fill="white"/>
<path opacity="0.1" d="M319.039 162.964H311.006V188.624H319.039V162.964Z" fill="black"/>
<path d="M285.901 210.114H321.329V165.953H309.917L285.901 177.44V210.114Z" fill="#407BFF"/>
<path opacity="0.2" d="M321.33 165.953H309.918V210.114H321.33V165.953Z" fill="black"/>
<path opacity="0.7" d="M306.141 186.147H289.552V194.091H306.141V186.147Z" fill="white"/>
<path opacity="0.7" d="M306.141 196.746H289.552V197.885H306.141V196.746Z" fill="white"/>
<path opacity="0.7" d="M320.221 200.08H311.006V206.822H320.221V200.08Z" fill="white"/>
<path d="M263.894 377.779H270.306L281.811 217.598H273.308L263.894 377.779Z" fill="#263238"/>
<path opacity="0.1" d="M263.894 377.779H270.306L281.247 225.552L281.811 217.859H273.308L272.858 225.552L263.894 377.779Z" fill="white"/>
<path opacity="0.2" d="M272.858 225.176H281.247L281.812 217.859H273.308L272.858 225.176Z" fill="black"/>
<path d="M216.865 377.779H223.277L224.323 217.598H215.819L216.865 377.779Z" fill="#263238"/>
<path opacity="0.1" d="M215.809 217.859L215.986 243.697L216.855 377.779H223.267L224.145 243.697L224.313 217.859H215.809Z" fill="white"/>
<path opacity="0.2" d="M215.809 217.859L215.986 243.99H224.145L224.313 217.859H215.809Z" fill="black"/>
<path d="M148.834 377.779H155.246L166.752 217.598H158.248L148.834 377.779Z" fill="#263238"/>
<path opacity="0.1" d="M148.834 377.779H155.246L166.198 225.552L166.752 217.859H158.248L157.798 225.552L148.834 377.779Z" fill="white"/>
<path opacity="0.2" d="M157.798 225.176H166.197L166.752 217.859H158.248L157.798 225.176Z" fill="black"/>
<path d="M337.197 377.779H343.609L334.185 217.598H325.681L337.197 377.779Z" fill="#263238"/>
<path opacity="0.1" d="M325.681 217.859L326.256 225.552L337.197 377.779H343.599L334.645 225.552L334.185 217.859H325.681Z" fill="white"/>
<path opacity="0.2" d="M334.185 217.859H325.681L326.256 225.176H334.645L334.185 217.859Z" fill="black"/>
<path d="M338.672 221.612L153.781 221.612C153.485 221.612 153.191 221.553 152.917 221.44C152.643 221.326 152.394 221.16 152.184 220.95C151.974 220.741 151.807 220.492 151.694 220.218C151.58 219.944 151.522 219.65 151.522 219.354V213.595L340.932 213.595V219.354C340.932 219.65 340.873 219.944 340.76 220.218C340.646 220.492 340.48 220.741 340.27 220.95C340.06 221.16 339.811 221.326 339.537 221.44C339.263 221.553 338.969 221.612 338.672 221.612Z" fill="#407BFF"/>
<path opacity="0.4" d="M338.672 221.612L153.781 221.612C153.485 221.612 153.191 221.553 152.917 221.44C152.643 221.326 152.394 221.16 152.184 220.95C151.974 220.741 151.807 220.492 151.694 220.218C151.58 219.944 151.522 219.65 151.522 219.354V213.595L340.932 213.595V219.354C340.932 219.65 340.873 219.944 340.76 220.218C340.646 220.492 340.48 220.741 340.27 220.95C340.06 221.16 339.811 221.326 339.537 221.44C339.263 221.553 338.969 221.612 338.672 221.612Z" fill="white"/>
<path opacity="0.2" d="M151.522 217.598L340.932 217.598V213.584L151.522 213.584V217.598Z" fill="black"/>
<path d="M147.547 214.629H344.896C345.193 214.631 345.487 214.573 345.762 214.46C346.037 214.347 346.287 214.181 346.497 213.971C346.707 213.761 346.873 213.512 346.986 213.237C347.099 212.963 347.157 212.669 347.155 212.372C347.155 211.773 346.917 211.199 346.494 210.775C346.07 210.352 345.495 210.114 344.896 210.114H147.547C146.947 210.114 146.371 210.352 145.946 210.775C145.52 211.198 145.28 211.772 145.277 212.372C145.277 212.669 145.336 212.964 145.45 213.238C145.565 213.513 145.732 213.762 145.943 213.972C146.154 214.182 146.404 214.348 146.679 214.461C146.955 214.573 147.25 214.631 147.547 214.629Z" fill="#407BFF"/>
<path opacity="0.4" d="M147.547 214.629H344.896C345.193 214.631 345.487 214.573 345.762 214.46C346.037 214.347 346.287 214.181 346.497 213.971C346.707 213.761 346.873 213.512 346.986 213.237C347.099 212.963 347.157 212.669 347.155 212.372C347.155 211.773 346.917 211.199 346.494 210.775C346.07 210.352 345.495 210.114 344.896 210.114H147.547C146.947 210.114 146.371 210.352 145.946 210.775C145.52 211.198 145.28 211.772 145.277 212.372C145.277 212.669 145.336 212.964 145.45 213.238C145.565 213.513 145.732 213.762 145.943 213.972C146.154 214.182 146.404 214.348 146.679 214.461C146.955 214.573 147.25 214.631 147.547 214.629Z" fill="white"/>
<path d="M302.491 210.093V206.56H304.866L302.491 205.181H304.269L301.895 203.634H299.646V201.857H302.261L299.646 200.822V196.965H302.261V194.446H304.866L302.261 193.568V191.77H304.123L302.596 190.255L301.278 188.927H260.86V190.736H258.193L261.164 192.073V193.568H255.714V196.348H253.298L255.714 197.561V200.665H257.43V202.149H260.86V206.56H258.936L260.515 208.139V210.114L302.491 210.093Z" fill="#407BFF"/>
<path opacity="0.7" d="M302.491 210.093V206.56H304.866L302.491 205.181H304.269L301.895 203.634H299.646V201.857H302.261L299.646 200.822V196.965H302.261V194.446H304.866L302.261 193.568V191.77H304.123L302.596 190.255L301.278 188.927H260.86V190.736H258.193L261.164 192.073V193.568H255.714V196.348H253.298L255.714 197.561V200.665H257.43V202.149H260.86V206.56H258.936L260.515 208.139V210.114L302.491 210.093Z" fill="white"/>
<path opacity="0.1" d="M302.491 210.093V206.56H304.866L302.491 205.181H304.27L301.895 203.634H299.646V201.857H302.261L299.646 200.822V196.965H302.261V194.446H304.866L302.261 193.568V191.77H304.123L302.596 190.255L301.278 188.927H279.992V190.736H277.325L280.285 192.073V193.568H274.835V196.348H272.419L274.835 197.561V200.665H276.551V202.149H279.992V206.56H278.067L279.636 208.139V210.114L302.491 210.093Z" fill="black"/>
<path opacity="0.1" d="M261.164 193.568H280.285L261.164 192.878V193.568Z" fill="black"/>
<path opacity="0.1" d="M260.86 202.149H279.992L280.075 203.487L260.86 202.149Z" fill="black"/>
<path opacity="0.1" d="M257.43 200.665H276.551L257.43 201.334V200.665Z" fill="black"/>
<path opacity="0.1" d="M260.86 206.56H279.992L260.86 205.86V206.56Z" fill="black"/>
<path opacity="0.1" d="M260.516 208.139H279.636V208.87L260.516 208.139Z" fill="black"/>
<path opacity="0.1" d="M255.714 196.348H274.835L255.714 195.742V196.348Z" fill="black"/>
<path opacity="0.1" d="M260.86 190.735H279.992L260.86 190.067V190.735Z" fill="black"/>
<path opacity="0.1" d="M302.261 191.77H282.857L302.261 192.366V191.77Z" fill="black"/>
<path opacity="0.1" d="M280.284 193.568H302.261L282.334 194.216L280.284 193.568Z" fill="black"/>
<path opacity="0.1" d="M274.835 196.348L302.261 196.965V196.348H274.835Z" fill="black"/>
<path opacity="0.1" d="M274.835 197.561H288.402L274.835 198.219V197.561Z" fill="black"/>
<path opacity="0.1" d="M299.646 200.822L279.992 200.665L299.646 200.226V200.822Z" fill="black"/>
<path opacity="0.1" d="M299.646 201.857H279.636L299.646 202.526V201.857Z" fill="black"/>
<path opacity="0.1" d="M302.491 205.181H280.284V205.86L302.491 205.181Z" fill="black"/>
<path opacity="0.1" d="M302.491 206.56H286.403L302.491 207.01V206.56Z" fill="black"/>
<path d="M251.027 205.536V208.891C251.027 209.748 249.982 210.104 249.155 210.104H182.086C181.228 210.104 180.192 209.748 180.192 208.891V205.536H251.027Z" fill="#263238"/>
<path opacity="0.4" d="M251.027 205.536V208.891C251.027 209.748 249.982 210.104 249.155 210.104H182.086C181.228 210.104 180.192 209.748 180.192 208.891V205.536H251.027Z" fill="white"/>
<path opacity="0.2" d="M251.028 205.536V208.891C251.028 209.748 249.982 210.104 249.155 210.104H204.92C204.062 210.104 203.037 209.748 203.037 208.891V205.536H251.028Z" fill="black"/>
<path d="M262.252 170.709L254.26 206.905C254.123 207.493 253.793 208.017 253.323 208.396C252.853 208.775 252.27 208.986 251.666 208.996H208.059C207.787 208.99 207.521 208.921 207.281 208.795C207.04 208.669 206.832 208.489 206.673 208.269C206.514 208.05 206.408 207.796 206.364 207.529C206.319 207.261 206.337 206.987 206.416 206.728L214.387 170.813C214.55 170.265 214.897 169.79 215.369 169.466C215.841 169.143 216.41 168.991 216.981 169.037H260.599C261.771 168.995 262.503 169.528 262.252 170.709Z" fill="#263238"/>
<path opacity="0.4" d="M262.252 170.709L254.26 206.905C254.123 207.493 253.793 208.017 253.323 208.396C252.853 208.775 252.27 208.986 251.666 208.996H209.533C209.262 208.99 208.996 208.921 208.755 208.795C208.515 208.669 208.307 208.489 208.148 208.269C207.989 208.05 207.883 207.796 207.838 207.529C207.794 207.261 207.812 206.987 207.891 206.727L215.872 170.813C216.034 170.264 216.38 169.787 216.853 169.464C217.325 169.14 217.895 168.989 218.466 169.036H260.599C261.77 168.995 262.503 169.528 262.252 170.709Z" fill="white"/>
<path opacity="0.2" d="M240.745 189.105C240.745 192.241 237.419 194.718 234.982 194.718C232.545 194.718 231.101 192.199 231.844 189.105C232.587 186.011 234.982 183.597 237.346 183.502C236.656 186.638 238.141 189.105 240.568 189.105H240.745Z" fill="black"/>
</svg>
