<svg fill="none" xmlns="http://www.w3.org/2000/svg" viewBox="0 0 500 394"><g clip-path="url(#a)"><path d="M500 348.4H0v.3h500v-.3Z" fill="#E0E0E0"/><path d="M337.7 361h-10.5v.3h10.5v-.3Z" fill="#E0E0E0"/><path d="M82.8 354.4H64.9v.3h17.9v-.3Z" fill="#E0E0E0"/><path d="M179.9 360.9h-30.7v.2H180v-.2Z" fill="#E0E0E0"/><path d="M265.3 355.2h-45.2v.2h45.2v-.2Z" fill="#E0E0E0"/><path d="M445.4 356.8h-54v.2h54v-.2Z" fill="#E0E0E0"/><path d="M123 354.4H87.6v.3H123v-.3Z" fill="#E0E0E0"/><path d="M466.2 356.9h-15v.2h15v-.2Z" fill="#E0E0E0"/><path d="M237 303.8H44a5.7 5.7 0 0 1-5.8-5.7V26.7A5.7 5.7 0 0 1 44 21H237a5.7 5.7 0 0 1 5.7 5.7v271.4a5.7 5.7 0 0 1-5.7 5.7ZM44 21.2a5.5 5.5 0 0 0-5.5 5.5V298a5.5 5.5 0 0 0 5.4 5.4H237a5.5 5.5 0 0 0 5.5-5.4V26.7a5.5 5.5 0 0 0-5.5-5.5H44Z" fill="#E0E0E0"/><path d="M453.3 303.8h-193a5.7 5.7 0 0 1-5.8-5.7V26.7a5.7 5.7 0 0 1 5.7-5.7h193.1a5.7 5.7 0 0 1 5.7 5.7V298a5.7 5.7 0 0 1-5.7 5.7Zm-193-282.6a5.5 5.5 0 0 0-5.6 5.5V298a5.5 5.5 0 0 0 5.5 5.4h193.1a5.5 5.5 0 0 0 5.5-5.4V26.7a5.5 5.5 0 0 0-5.5-5.5h-193Z" fill="#E0E0E0"/><path d="M140.4 83A49 49 0 0 1 74 128.8a49 49 0 0 0 0-91.6A49 49 0 0 1 140.4 83Z" fill="#F5F5F5"/><path d="M107 51.2a8.3 8.3 0 0 1 .5 7 21.4 21.4 0 0 0-6.3-11.2 8.3 8.3 0 0 1 5.8 4.2Z" fill="#E6E6E6"/><path d="M131.2 72.7a8.3 8.3 0 0 1-4.6 5.4 21 21 0 0 0 3.3-12.4 8.3 8.3 0 0 1 1.3 7Z" fill="#E6E6E6"/><path d="M128.1 105a8.3 8.3 0 0 1-6.6 2.5 21 21 0 0 0 9-9.2 8.3 8.3 0 0 1-2.4 6.7Z" fill="#E6E6E6"/><path d="M105.8 121.4a8.3 8.3 0 0 1-6.7 2.5c3.9-2 7-5.3 9-9.2a8.3 8.3 0 0 1-2.3 6.7Z" fill="#E6E6E6"/><path d="M117.6 88.8a8.3 8.3 0 0 1-4.3 5.6c2.1-3.8 3-8.2 2.7-12.5a8.2 8.2 0 0 1 1.6 6.9Z" fill="#E6E6E6"/><path d="M378.2 116.5a1.5 1.5 0 0 1-1.3-.8C374 109.2 390 98 407.3 90.5c17.3-7.7 36.3-12.1 39.2-5.7a1.5 1.5 0 0 1-2.8 1.2c-1.3-2.8-15.6-1.5-35.2 7.2-19.5 8.7-30.2 18.4-29 21.2a1.5 1.5 0 0 1-.2 1.7c-.2.1-.3.3-.5.3-.2.1-.4.2-.6.1Z" fill="#F5F5F5"/><path d="M411.6 126a25.8 25.8 0 1 0 0-51.5 25.8 25.8 0 0 0 0 51.5Z" fill="#E6E6E6"/><path d="M384.4 118.8c-4.1 0-6.6-1-7.5-3.1a1.5 1.5 0 0 1 0-1.2 1.5 1.5 0 0 1 .7-.8 1.5 1.5 0 0 1 1.7.2l.3.5c.4 1 3.1 2 10.8.8 8.4-1.7 16.6-4.4 24.4-8 19.5-8.6 30.2-18.3 29-21.2a1.5 1.5 0 0 1 1.8-2c.4.1.7.4.9.8 2.8 6.4-13.2 17.5-30.5 25.2a113 113 0 0 1-25 8.1c-2.2.4-4.4.6-6.6.7Z" fill="#F5F5F5"/><path d="m371.9 39 .8 1.6a.7.7 0 0 0 .6.4l1.8.3a.7.7 0 0 1 .6.8c0 .2 0 .3-.2.4l-1.4 1.3a.7.7 0 0 0-.1.6l.3 1.9a.7.7 0 0 1-1 .7l-1.7-.9a.7.7 0 0 0-.7 0l-1.6.9a.7.7 0 0 1-1-.7l.3-1.9a.6.6 0 0 0-.2-.6l-1.4-1.3a.7.7 0 0 1-.2-.7.7.7 0 0 1 .6-.5l1.9-.3a.7.7 0 0 0 .5-.4l.8-1.7a.7.7 0 0 1 1.3 0Z" fill="#F5F5F5"/><path d="m60.1 207.2.9 1.7a.7.7 0 0 0 .5.4l1.9.3a.7.7 0 0 1 .4 1.1l-1.4 1.4a.7.7 0 0 0-.2.6l.3 1.8a.7.7 0 0 1-1 .8l-1.6-1a.7.7 0 0 0-.7 0l-1.7 1a.7.7 0 0 1-.7 0 .7.7 0 0 1-.3-.8l.3-1.8a.7.7 0 0 0-.1-.6l-1.4-1.4a.7.7 0 0 1 .4-1.1l1.8-.3a.7.7 0 0 0 .6-.4l.8-1.7a.7.7 0 0 1 1.2 0Z" fill="#E6E6E6"/><path d="m303.6 281.8.8 1.7a.7.7 0 0 0 .5.4l2 .3a.7.7 0 0 1 .5.8l-.2.3-1.4 1.4a.7.7 0 0 0-.2.6l.3 1.8a.7.7 0 0 1-1 .8l-1.6-1a.6.6 0 0 0-.7 0l-1.7 1a.7.7 0 0 1-1-.8l.4-1.8a.7.7 0 0 0-.2-.6l-1.4-1.4a.7.7 0 0 1-.2-.7.7.7 0 0 1 .6-.4l1.9-.3a.7.7 0 0 0 .5-.4l.8-1.7a.7.7 0 0 1 .6-.4.7.7 0 0 1 .7.4Z" fill="#E6E6E6"/><path d="m291.4 0 .6 1a.4.4 0 0 0 .3.2l1 .1a.4.4 0 0 1 .4.5V2l-1 .8a.4.4 0 0 0 0 .4l.2 1a.4.4 0 0 1-.2.5.4.4 0 0 1-.4 0l-1-.5a.4.4 0 0 0-.4 0l-1 .5a.4.4 0 0 1-.6-.4l.2-1.1a.4.4 0 0 0-.1-.4l-.8-.8a.4.4 0 0 1-.1-.4.4.4 0 0 1 .3-.3l1.1-.1a.4.4 0 0 0 .3-.3l.5-1a.4.4 0 0 1 .4-.2.4.4 0 0 1 .3.2Z" fill="#E6E6E6"/><path d="m113.6 176.8.5 1a.4.4 0 0 0 .3.2l1.2.2a.4.4 0 0 1 .2.7l-.8.8a.4.4 0 0 0-.1.3l.1 1.2a.4.4 0 0 1-.1.4.4.4 0 0 1-.4 0l-1-.5a.4.4 0 0 0-.4 0l-1 .5a.4.4 0 0 1-.5 0 .4.4 0 0 1-.1-.4l.2-1.2a.4.4 0 0 0-.1-.3l-.9-.8a.4.4 0 0 1 0-.6l.3-.1 1.1-.2a.4.4 0 0 0 .3-.2l.5-1 .2-.2a.4.4 0 0 1 .5.2Z" fill="#F5F5F5"/><path d="m62.5 272.3.5 1a.4.4 0 0 0 .4.2l1 .2a.4.4 0 0 1 .3.7l-.8.8a.4.4 0 0 0-.1.4l.2 1.1a.4.4 0 0 1-.6.4l-1-.5a.4.4 0 0 0-.4 0l-1 .5a.4.4 0 0 1-.4 0 .4.4 0 0 1-.2-.4l.2-1.1a.4.4 0 0 0 0-.4l-1-.8a.4.4 0 0 1 .3-.7l1.1-.1a.4.4 0 0 0 .4-.3l.5-1a.4.4 0 0 1 .3-.2.4.4 0 0 1 .3.2Z" fill="#F5F5F5"/><path d="m418.8 272.5.5 1a.4.4 0 0 0 .3.2l1.1.1.2.1a.4.4 0 0 1 .2.4l-.2.2-.8.8a.4.4 0 0 0 0 .4l.1 1.1a.4.4 0 0 1-.1.4l-.3.1h-.2l-1-.6a.4.4 0 0 0-.4 0l-1 .6a.4.4 0 0 1-.4 0 .4.4 0 0 1-.2-.5l.2-1.1a.4.4 0 0 0 0-.4l-.9-.8a.4.4 0 0 1-.1-.4.4.4 0 0 1 .3-.3l1.2-.1a.4.4 0 0 0 .3-.2l.5-1a.4.4 0 0 1 .3-.2.4.4 0 0 1 .4.2Z" fill="#E6E6E6"/><path d="M172 32.1a1.3 1.3 0 1 0 0-2.6 1.3 1.3 0 0 0 0 2.6Z" fill="#E6E6E6"/><path d="M310.2 47a1.3 1.3 0 1 1-2.7.1 1.3 1.3 0 0 1 2.7 0Z" fill="#F5F5F5"/><path d="M165.2 152.7a1.3 1.3 0 1 0 0-2.7 1.3 1.3 0 0 0 0 2.7Z" fill="#F5F5F5"/><path d="M122.8 251.3a1.3 1.3 0 0 1-1.6 1.3 1.3 1.3 0 0 1-1-1 1.3 1.3 0 1 1 2.6-.3Z" fill="#F5F5F5"/><path d="M400.3 172.7a1.3 1.3 0 1 0 0-2.7 1.3 1.3 0 0 0 0 2.7Z" fill="#E6E6E6"/><path d="M250 393.6c107 0 193.9-5.1 193.9-11.4C443.9 376 357 371 250 371c-107 0-193.9 5-193.9 11.3 0 6.3 86.8 11.4 193.9 11.4Z" fill="#F5F5F5"/><path d="M163.5 85.7a1.7 1.7 0 0 1-1.7-2l.6-3a.7.7 0 0 0-.2-.7l-2.3-2.2a1.6 1.6 0 0 1 .9-2.8l3.2-.5a.7.7 0 0 0 .5-.3l1.4-3a1.7 1.7 0 0 1 3 0l1.4 3a.7.7 0 0 0 .5.3l3.2.5a1.7 1.7 0 0 1 1.4 2l-.5.8-2.3 2.2a.6.6 0 0 0-.2.6l.5 3.2a1.7 1.7 0 0 1-2.4 1.7l-2.8-1.5a.6.6 0 0 0-.6 0l-2.9 1.5-.7.2Zm3.9-14.4a.6.6 0 0 0-.6.4l-1.4 2.9a1.6 1.6 0 0 1-1.3.9l-3.2.5a.7.7 0 0 0-.3 1l2.3 2.3a1.7 1.7 0 0 1 .5 1.5l-.6 3.2a.7.7 0 0 0 .6.7h.4l2.8-1.5a1.7 1.7 0 0 1 1.6 0l2.8 1.5a.7.7 0 0 0 1-.7l-.5-3.2a1.7 1.7 0 0 1 .4-1.4l2.3-2.3a.6.6 0 0 0 .2-.7.6.6 0 0 0-.5-.4l-3.2-.5a1.7 1.7 0 0 1-1.3-.9l-1.4-2.9a.6.6 0 0 0-.6-.4Z" fill="#1E60F6"/><path opacity=".5" d="M163.5 85.7a1.7 1.7 0 0 1-1.7-2l.6-3a.7.7 0 0 0-.2-.7l-2.3-2.2a1.6 1.6 0 0 1 .9-2.8l3.2-.5a.7.7 0 0 0 .5-.3l1.4-3a1.7 1.7 0 0 1 3 0l1.4 3a.7.7 0 0 0 .5.3l3.2.5a1.7 1.7 0 0 1 1.4 2l-.5.8-2.3 2.2a.6.6 0 0 0-.2.6l.5 3.2a1.7 1.7 0 0 1-2.4 1.7l-2.8-1.5a.6.6 0 0 0-.6 0l-2.9 1.5-.7.2Zm3.9-14.4a.6.6 0 0 0-.6.4l-1.4 2.9a1.6 1.6 0 0 1-1.3.9l-3.2.5a.7.7 0 0 0-.3 1l2.3 2.3a1.7 1.7 0 0 1 .5 1.5l-.6 3.2a.7.7 0 0 0 .6.7h.4l2.8-1.5a1.7 1.7 0 0 1 1.6 0l2.8 1.5a.7.7 0 0 0 1-.7l-.5-3.2a1.7 1.7 0 0 1 .4-1.4l2.3-2.3a.6.6 0 0 0 .2-.7.6.6 0 0 0-.5-.4l-3.2-.5a1.7 1.7 0 0 1-1.3-.9l-1.4-2.9a.6.6 0 0 0-.6-.4Z" fill="#fff"/><path d="m220.7 56.5.2 6.2a2.2 2.2 0 0 0 1 1.7l5.3 3.3a2.2 2.2 0 0 1-.4 4l-5.8 2.1a2.2 2.2 0 0 0-1.3 1.5l-1.5 6a2.2 2.2 0 0 1-3.9.9l-3.9-4.8a2.2 2.2 0 0 0-1.8-.8l-6.2.4a2.2 2.2 0 0 1-2-3.4l3.4-5.2a2.2 2.2 0 0 0 .2-2l-2.3-5.7a2.2 2.2 0 0 1 2.6-3l6 1.6a2.2 2.2 0 0 0 2-.4l4.7-4a2.2 2.2 0 0 1 3.7 1.6Z" fill="#1E60F6"/><path opacity=".2" d="m220.7 56.5.2 6.2a2.2 2.2 0 0 0 1 1.7l5.3 3.3a2.2 2.2 0 0 1-.4 4l-5.8 2.1a2.2 2.2 0 0 0-1.3 1.5l-1.5 6a2.2 2.2 0 0 1-3.9.9l-3.9-4.8a2.2 2.2 0 0 0-1.8-.8l-6.2.4a2.2 2.2 0 0 1-2-3.4l3.4-5.2a2.2 2.2 0 0 0 .2-2l-2.3-5.7a2.2 2.2 0 0 1 2.6-3l6 1.6a2.2 2.2 0 0 0 2-.4l4.7-4a2.2 2.2 0 0 1 3.7 1.6Z" fill="#000"/><path d="M348.1 162.9a2.7 2.7 0 0 1-2.7-3l.5-6a1.7 1.7 0 0 0-.7-1.5l-4.8-3.9a2.7 2.7 0 0 1 1-4.7l6-1.5a1.7 1.7 0 0 0 1.2-1l2.1-5.9a2.7 2.7 0 0 1 3.7-1.4c.5.2.9.5 1.2 1l3.2 5.2a1.7 1.7 0 0 0 1.4.8l6.2.3a2.7 2.7 0 0 1 2 4.4l-4 4.7a1.7 1.7 0 0 0-.4 1.6l1.6 6a2.7 2.7 0 0 1-2 3.3c-.6.1-1.1 0-1.6-.1l-5.7-2.3a1.7 1.7 0 0 0-1.6.1l-5.1 3.4c-.4.3-1 .5-1.5.5Zm5.2-28.2h-.2a1.7 1.7 0 0 0-1.4 1l-2.2 5.9a2.7 2.7 0 0 1-1.9 1.6l-6 1.5a1.7 1.7 0 0 0-1.2 2.3c.1.3.3.5.6.7l4.8 3.9a2.7 2.7 0 0 1 1 2.3l-.4 6.1a1.7 1.7 0 0 0 .8 1.6 1.7 1.7 0 0 0 1.8 0l5.2-3.4a2.7 2.7 0 0 1 2.5-.2l5.7 2.3a1.7 1.7 0 0 0 2.3-2l-1.7-6a2.7 2.7 0 0 1 .6-2.4l4-4.8a1.7 1.7 0 0 0-1.3-2.8l-6.1-.2a2.7 2.7 0 0 1-2.2-1.3l-3.3-5.2a1.7 1.7 0 0 0-1.4-1Z" fill="#1E60F6"/><path opacity=".5" d="M348.1 162.9a2.7 2.7 0 0 1-2.7-3l.5-6a1.7 1.7 0 0 0-.7-1.5l-4.8-3.9a2.7 2.7 0 0 1 1-4.7l6-1.5a1.7 1.7 0 0 0 1.2-1l2.1-5.9a2.7 2.7 0 0 1 3.7-1.4c.5.2.9.5 1.2 1l3.2 5.2a1.7 1.7 0 0 0 1.4.8l6.2.3a2.7 2.7 0 0 1 2 4.4l-4 4.7a1.7 1.7 0 0 0-.4 1.6l1.6 6a2.7 2.7 0 0 1-2 3.3c-.6.1-1.1 0-1.6-.1l-5.7-2.3a1.7 1.7 0 0 0-1.6.1l-5.1 3.4c-.4.3-1 .5-1.5.5Zm5.2-28.2h-.2a1.7 1.7 0 0 0-1.4 1l-2.2 5.9a2.7 2.7 0 0 1-1.9 1.6l-6 1.5a1.7 1.7 0 0 0-1.2 2.3c.1.3.3.5.6.7l4.8 3.9a2.7 2.7 0 0 1 1 2.3l-.4 6.1a1.7 1.7 0 0 0 .8 1.6 1.7 1.7 0 0 0 1.8 0l5.2-3.4a2.7 2.7 0 0 1 2.5-.2l5.7 2.3a1.7 1.7 0 0 0 2.3-2l-1.7-6a2.7 2.7 0 0 1 .6-2.4l4-4.8a1.7 1.7 0 0 0-1.3-2.8l-6.1-.2a2.7 2.7 0 0 1-2.2-1.3l-3.3-5.2a1.7 1.7 0 0 0-1.4-1Z" fill="#fff"/><path d="m352.8 203.6-.8 3a1.1 1.1 0 0 0 .2 1l2 2.5a1.1 1.1 0 0 1-.7 1.8l-3.2.2a1.2 1.2 0 0 0-1 .6l-1.6 2.7a1.1 1.1 0 0 1-2-.2l-1.1-3a1.2 1.2 0 0 0-.8-.7l-3.1-.8a1.1 1.1 0 0 1-.5-2l2.5-2a1.1 1.1 0 0 0 .4-1l-.2-3.1a1.1 1.1 0 0 1 1.7-1l2.7 1.7a1.2 1.2 0 0 0 1 .1l3-1.2a1.1 1.1 0 0 1 1.5 1.4Z" fill="#1E60F6"/><path opacity=".2" d="m352.8 203.6-.8 3a1.1 1.1 0 0 0 .2 1l2 2.5a1.1 1.1 0 0 1-.7 1.8l-3.2.2a1.2 1.2 0 0 0-1 .6l-1.6 2.7a1.1 1.1 0 0 1-2-.2l-1.1-3a1.2 1.2 0 0 0-.8-.7l-3.1-.8a1.1 1.1 0 0 1-.5-2l2.5-2a1.1 1.1 0 0 0 .4-1l-.2-3.1a1.1 1.1 0 0 1 1.7-1l2.7 1.7a1.2 1.2 0 0 0 1 .1l3-1.2a1.1 1.1 0 0 1 1.5 1.4Z" fill="#000"/><path d="m166.2 207.6-.6 2a.8.8 0 0 0 .2.8l1.4 1.6a.8.8 0 0 1-.5 1.3l-2.2.1a.7.7 0 0 0-.6.4l-1.2 1.8a.8.8 0 0 1-1 .2.8.8 0 0 1-.3-.3l-.8-2a.8.8 0 0 0-.5-.5l-2.2-.5a.8.8 0 0 1-.3-1.3l1.7-1.4a.8.8 0 0 0 .3-.7l-.2-2.1a.8.8 0 0 1 .4-.7.8.8 0 0 1 .8 0l1.8 1.1a.8.8 0 0 0 .8.1l2-.8a.8.8 0 0 1 1 .5v.4Z" fill="#1E60F6"/><path opacity=".2" d="m166.2 207.6-.6 2a.8.8 0 0 0 .2.8l1.4 1.6a.8.8 0 0 1-.5 1.3l-2.2.1a.7.7 0 0 0-.6.4l-1.2 1.8a.8.8 0 0 1-1 .2.8.8 0 0 1-.3-.3l-.8-2a.8.8 0 0 0-.5-.5l-2.2-.5a.8.8 0 0 1-.3-1.3l1.7-1.4a.8.8 0 0 0 .3-.7l-.2-2.1a.8.8 0 0 1 .4-.7.8.8 0 0 1 .8 0l1.8 1.1a.8.8 0 0 0 .8.1l2-.8a.8.8 0 0 1 1 .5v.4Z" fill="#000"/><path d="M354.9 253.2c-25.1 0-51.6-10.3-68.2-27.8a58 58 0 0 1-12.6-63l3.7 1.4a54.3 54.3 0 0 0 11.8 58.9c21.1 22.3 59 32.3 88.2 23.2 32.2-10 44.8-33.8 56.9-56.8C448.2 163.3 461 139 500 139v4c-36.5 0-48.2 22.2-61.8 48-11.9 22.6-25.4 48.2-59.3 58.7-7.8 2.4-15.9 3.6-24 3.5Z" fill="#1E60F6"/><path opacity=".5" d="M354.9 253.2c-25.1 0-51.6-10.3-68.2-27.8a58 58 0 0 1-12.6-63l3.7 1.4a54.3 54.3 0 0 0 11.8 58.9c21.1 22.3 59 32.3 88.2 23.2 32.2-10 44.8-33.8 56.9-56.8C448.2 163.3 461 139 500 139v4c-36.5 0-48.2 22.2-61.8 48-11.9 22.6-25.4 48.2-59.3 58.7-7.8 2.4-15.9 3.6-24 3.5Z" fill="#fff"/><path d="m267.2 135.5-1.3.5-1.3.5-2.5.8-5 1.5c-3.4 1-7 1.6-10.5 2.1-3.7.6-7.6.8-11.4.7a39.4 39.4 0 0 1-12.6-2.9 46.5 46.5 0 0 1-17.8-14.6 67.1 67.1 0 0 1-9.2-16.1l-1-2.6 9-4.4 1.3 1.7 1.4 1.8 3 3.4a77 77 0 0 0 13 11.3 36 36 0 0 0 6.7 3c2 .6 4.2.8 6.4.6a117.3 117.3 0 0 0 16.4-3.4l4.3-1.3 2.5-1 8.6 18.4Z" fill="#1E60F6"/><path opacity=".6" d="m267.2 135.5-1.3.5-1.3.5-2.5.8-5 1.5c-3.4 1-7 1.6-10.5 2.1-3.7.6-7.6.8-11.4.7a39.4 39.4 0 0 1-12.6-2.9 46.5 46.5 0 0 1-17.8-14.6 67.1 67.1 0 0 1-9.2-16.1l-1-2.6 9-4.4 1.3 1.7 1.4 1.8 3 3.4a77 77 0 0 0 13 11.3 36 36 0 0 0 6.7 3c2 .6 4.2.8 6.4.6a117.3 117.3 0 0 0 16.4-3.4l4.3-1.3 2.5-1 8.6 18.4Z" fill="#fff"/><path d="M258.5 117.2s-17.8 17.5-24.5 60.4l42.6 16.9c2.6-5.7 9-34.5 26-59.2-4-3.2-8.4-5.9-13-8a97.1 97.1 0 0 0-31.1-10v-.1Z" fill="#1E60F6"/><path opacity=".6" d="M258.5 117.2s-17.8 17.5-24.5 60.4l42.6 16.9c2.6-5.7 9-34.5 26-59.2-4-3.2-8.4-5.9-13-8a97.1 97.1 0 0 0-31.1-10v-.1Z" fill="#fff"/><path d="M292.7 107.7c-3 4.7-7.8 13.7-5.6 18.6 0 0-1.2 2-9.9-1.4-7-2.8-6-5-6-5 6.3 1 7.8-3.4 8.4-7.8l13-4.4Z" fill="#E4897B"/><path d="m287.3 109.5-7.7 2.7c-.1 1-.4 2-.7 3 2.4.5 6.3-.7 7.5-3 .4-.8.8-1.7 1-2.7Z" fill="#CE6F64"/><path d="M288 83c-4-.6-12 8.5-9.2 13 2.8 4.5 16.8-11.9 9.2-13Z" fill="#263238"/><path d="M296.6 102.2c-4.7 5.8-7.2 9.5-12.4 10.5-8 1.5-13.6-6.7-10.8-13.8 2.6-6.4 9.8-14.9 17.5-13.1a10.2 10.2 0 0 1 5.7 16.4Z" fill="#E4897B"/><path d="M292 107.9c-4.2-1-1.6-16.7 9.2-13.8 13 3.5-2.6 15.3-9.3 13.8Z" fill="#263238"/><path d="M301.5 98.2c-5-1.8-18.7-8.8-16.2-17.3 1.2-4 9-3.4 14.5-.5-8.9.3-4.4 4.5 1.4 6.3 9.4 3 7 14 .3 11.5Z" fill="#263238"/><path d="M302.8 96.1s5.3-.7 4.2 4.1a6 6 0 0 0-4.2-4.1Z" fill="#263238"/><path d="M303 95.7s3.3 4.2 5.9 0a6 6 0 0 1-5.9 0Z" fill="#263238"/><path d="M294.6 110.9a7 7 0 0 1-5.5 0c-2.3-1-1.9-3.4 0-4.8 1.8-1.2 5-2.2 6.8-.4 1.7 1.7.8 4.3-1.3 5.2Z" fill="#E4897B"/><path d="M234 177.6s-33.5 25.3-44 45.8c-10.8 21.3-21 64.6-21 64.6l16 5.8s13.2-36.8 25.3-57c13.1-22 34.9-27 51.8-48.1l-28.1-11Z" fill="#1E60F6"/><path opacity=".6" d="M234 177.6s-33.5 25.3-44 45.8c-10.8 21.3-21 64.6-21 64.6l16 5.8s13.2-36.8 25.3-57c13.1-22 34.9-27 51.8-48.1l-28.1-11Z" fill="#fff"/><path d="M249.2 183.6s-22 35.9-25 58c-3.3 24 4.4 69.5 4.4 69.5l15.8-3.8s-3.8-33 1.8-56c6-25 23.5-39.2 30.4-56.8l-27.4-10.9Z" fill="#1E60F6"/><path opacity=".6" d="M249.2 183.6s-22 35.9-25 58c-3.3 24 4.4 69.5 4.4 69.5l15.8-3.8s-3.8-33 1.8-56c6-25 23.5-39.2 30.4-56.8l-27.4-10.9Z" fill="#fff"/><path d="M286 97.4c-.3.5-.8.7-1.1.5-.4-.3-.4-.8 0-1.3.3-.5.9-.8 1.2-.5.3.2.3.8 0 1.3Z" fill="#263238"/><path d="M280.4 93.4c-.3.5-.9.8-1.2.5-.3-.2-.3-.8 0-1.3s1-.7 1.2-.5c.4.3.4.9 0 1.3Z" fill="#263238"/><path d="M282 95c-1.6 1.1-3.4 2-5.3 2.6.3 1.4 2 2.1 2 2.1l3.4-4.7Z" fill="#DE5753"/><path d="M282.3 103a5.3 5.3 0 0 1-3.1-1 .2.2 0 0 1 0-.2h.2a4.8 4.8 0 0 0 4.4.7h.2a.2.2 0 0 1-.1.3c-.5.2-1 .3-1.6.3Z" fill="#263238"/><path d="M289.3 96.8a.4.4 0 0 1-.4-.3 2.8 2.8 0 0 0-1.2-2.3.4.4 0 1 1 .4-.6 3.6 3.6 0 0 1 1.5 3 .3.3 0 0 1-.3.2Z" fill="#263238"/><path d="M279.5 89.8h-.1l-.2-.1a.4.4 0 0 1 .2-.5 3.6 3.6 0 0 1 3.2-.2.4.4 0 0 1 .2.4.4.4 0 0 1-.5.2 2.8 2.8 0 0 0-2.6.2h-.2Z" fill="#263238"/><path d="m302.7 135.3.6.7.8 1 1.4 2a97.5 97.5 0 0 1 7.3 12.7 72.5 72.5 0 0 1 4.4 11.9l.3 1.3v.3l.2.5.2.9c.4 2.1.5 4.3.4 6.5-.3 3.6-1 7.1-2 10.5a79.3 79.3 0 0 1-7.7 17.6 80.3 80.3 0 0 1-5 8l-8.8-4.4 4.3-16.6a100.8 100.8 0 0 0 1.7-11.9V173c0-.8-.2-1.6-.4-2.3l-.1-.2v-.1l-.1-.2-.4-.9-.7-1.7a78.2 78.2 0 0 0-5.8-10.3l-2.2-3.5-2.2-3.4-2.2-3.2 16-11.8Z" fill="#1E60F6"/><path opacity=".6" d="m302.7 135.3.6.7.8 1 1.4 2a97.5 97.5 0 0 1 7.3 12.7 72.5 72.5 0 0 1 4.4 11.9l.3 1.3v.3l.2.5.2.9c.4 2.1.5 4.3.4 6.5-.3 3.6-1 7.1-2 10.5a79.3 79.3 0 0 1-7.7 17.6 80.3 80.3 0 0 1-5 8l-8.8-4.4 4.3-16.6a100.8 100.8 0 0 0 1.7-11.9V173c0-.8-.2-1.6-.4-2.3l-.1-.2v-.1l-.1-.2-.4-.9-.7-1.7a78.2 78.2 0 0 0-5.8-10.3l-2.2-3.5-2.2-3.4-2.2-3.2 16-11.8Z" fill="#fff"/><path opacity=".1" d="M299 126.5A28.6 28.6 0 1 0 276.5 74a28.6 28.6 0 0 0 22.5 52.5Z" fill="#1E60F6"/><path d="M287.8 129.8a29.7 29.7 0 0 1-22.9-11 1 1 0 0 1 1-1.2 1 1 0 0 1 .8.4 27.6 27.6 0 0 0 25.4 9.5 1 1 0 0 1 .3 2c-1.5.2-3 .3-4.6.3Z" fill="#263238"/><path d="m246.5 310.5-19.3 5-1.5-19 19-2.4 1.8 16.4Z" fill="#1E60F6"/><path opacity=".2" d="m246.5 310.5-19.3 5-1.5-19 19-2.4 1.8 16.4Z" fill="#000"/><path d="m228.2 311.5 16.5-3.7a1 1 0 0 1 1.2.6l4.3 10.3a1.8 1.8 0 0 1-.6 2.2c-.2.2-.5.3-.7.3l-13 2-16.3 3.4c-5 .9-6.5-3.7-4.7-4.9 6.8-4 9-5.9 11.4-9.1a3 3 0 0 1 1.9-1.1Z" fill="#1E60F6"/><path opacity=".2" d="m228.2 311.5 16.5-3.7a1 1 0 0 1 1.2.6l4.3 10.3a1.8 1.8 0 0 1-.6 2.2c-.2.2-.5.3-.7.3l-13 2-16.3 3.4c-5 .9-6.5-3.7-4.7-4.9 6.8-4 9-5.9 11.4-9.1a3 3 0 0 1 1.9-1.1Z" fill="#000"/><path d="m184.6 296.7-19.4-4.7 6.4-17.4 19 6.7-6 15.4Z" fill="#1E60F6"/><path opacity=".2" d="m184.6 296.7-19.4-4.7 6.4-17.4 19 6.7-6 15.4Z" fill="#000"/><path d="m168 289 16.3 4.5a1 1 0 0 1 .8 1.1l-1 11.2a1.8 1.8 0 0 1-2.4 1.5c-4.5-1.5-6.7-2.5-12.5-4.4-3.5-1.1-11-3-15.9-4.6-4.9-1.6-4-6.3-1.8-6.5 8-.4 10.7-1 14.4-2.7a3 3 0 0 1 2.1-.1Z" fill="#1E60F6"/><path opacity=".2" d="m168 289 16.3 4.5a1 1 0 0 1 .8 1.1l-1 11.2a1.8 1.8 0 0 1-2.4 1.5c-4.5-1.5-6.7-2.5-12.5-4.4-3.5-1.1-11-3-15.9-4.6-4.9-1.6-4-6.3-1.8-6.5 8-.4 10.7-1 14.4-2.7a3 3 0 0 1 2.1-.1Z" fill="#000"/><path d="M277 197.5c-28.6-7.5-45.4-18-46-18.4l3-5a178 178 0 0 0 44.5 17.6l-1.5 5.8Z" fill="#1E60F6"/><path opacity=".2" d="M277 197.5c-28.6-7.5-45.4-18-46-18.4l3-5a178 178 0 0 0 44.5 17.6l-1.5 5.8Z" fill="#000"/><path d="M191.4 234.2c-.5 0-1-.2-1.6-.4-1.4-.8-2.3-2.4-2.4-4.7A16.3 16.3 0 0 1 194 216c1.9-1.3 3.8-1.5 5.2-.8 1.4.8 2.3 2.4 2.4 4.7 0 2.6-.5 5.1-1.7 7.4a14.6 14.6 0 0 1-5 5.8c-1 .6-2.3 1-3.6 1Zm6.2-19.2c-1.2 0-2.4.5-3.4 1.2a16 16 0 0 0-6.6 12.9c.1 2.2 1 3.8 2.3 4.5 1.4.7 3 .3 5-.8 2-1.4 3.7-3.4 4.8-5.7 1.2-2.2 1.8-4.7 1.8-7.2-.1-2.2-1-3.8-2.3-4.5-.5-.3-1-.4-1.6-.4Z" fill="#1E60F6"/><path opacity=".2" d="M191.4 234.2c-.5 0-1-.2-1.6-.4-1.4-.8-2.3-2.4-2.4-4.7A16.3 16.3 0 0 1 194 216c1.9-1.3 3.8-1.5 5.2-.8 1.4.8 2.3 2.4 2.4 4.7 0 2.6-.5 5.1-1.7 7.4a14.6 14.6 0 0 1-5 5.8c-1 .6-2.3 1-3.6 1Zm6.2-19.2c-1.2 0-2.4.5-3.4 1.2a16 16 0 0 0-6.6 12.9c.1 2.2 1 3.8 2.3 4.5 1.4.7 3 .3 5-.8 2-1.4 3.7-3.4 4.8-5.7 1.2-2.2 1.8-4.7 1.8-7.2-.1-2.2-1-3.8-2.3-4.5-.5-.3-1-.4-1.6-.4Z" fill="#000"/><path d="M227.9 254.4h-.3c-3.3-.3-5.6-5.1-5.2-10.9.5-5.6 3.4-10 6.6-10h.3c3.3.3 5.7 5.2 5.2 11-.5 6-3.7 10-6.6 10Zm1.1-20.6c-3.1 0-6 4.3-6.3 9.7-.5 5.5 1.8 10.4 5 10.7 2.7.2 6.1-3.8 6.6-9.8.4-5.6-1.8-10.3-5-10.6h-.3Z" fill="#1E60F6"/><path opacity=".2" d="M227.9 254.4h-.3c-3.3-.3-5.6-5.1-5.2-10.9.5-5.6 3.4-10 6.6-10h.3c3.3.3 5.7 5.2 5.2 11-.5 6-3.7 10-6.6 10Zm1.1-20.6c-3.1 0-6 4.3-6.3 9.7-.5 5.5 1.8 10.4 5 10.7 2.7.2 6.1-3.8 6.6-9.8.4-5.6-1.8-10.3-5-10.6h-.3Z" fill="#000"/><path d="M263.7 158.8a9 9 0 0 1-3.5-.7c-5.6-2.3-7.8-9.8-5-16.7 1.4-3.2 3.7-5.9 6.7-7.6a9.6 9.6 0 0 1 14.3 6c1 3.3.7 6.9-.7 10a15.1 15.1 0 0 1-6.6 7.6c-1.6.9-3.4 1.4-5.2 1.4Zm3.4-26.1c-1.8 0-3.5.5-5 1.3-3 1.7-5.3 4.3-6.6 7.5-2.8 6.7-.6 14 4.8 16.3a9.7 9.7 0 0 0 8.5-.6c3-1.7 5.3-4.3 6.5-7.5h.1a15 15 0 0 0 .6-9.8 9.7 9.7 0 0 0-5.5-6.5 9 9 0 0 0-3.4-.7Z" fill="#1E60F6"/><path opacity=".2" d="M263.7 158.8a9 9 0 0 1-3.5-.7c-5.6-2.3-7.8-9.8-5-16.7 1.4-3.2 3.7-5.9 6.7-7.6a9.6 9.6 0 0 1 14.3 6c1 3.3.7 6.9-.7 10a15.1 15.1 0 0 1-6.6 7.6c-1.6.9-3.4 1.4-5.2 1.4Zm3.4-26.1c-1.8 0-3.5.5-5 1.3-3 1.7-5.3 4.3-6.6 7.5-2.8 6.7-.6 14 4.8 16.3a9.7 9.7 0 0 0 8.5-.6c3-1.7 5.3-4.3 6.5-7.5h.1a15 15 0 0 0 .6-9.8 9.7 9.7 0 0 0-5.5-6.5 9 9 0 0 0-3.4-.7Z" fill="#000"/><path d="m195.4 110.1 11.7-5.7s-6.3-15.5-13-14.1c-6.8 1.4-4.8 8 1.3 19.8Z" fill="#1E60F6"/><path opacity=".2" d="m195.4 110.1 11.7-5.7s-6.3-15.5-13-14.1c-6.8 1.4-4.8 8 1.3 19.8Z" fill="#000"/><path d="m201 100.3 5.2 3s.4-11-2.2-11.5c-2.5-.5-3.6 2.6-3 8.5Z" fill="#1E60F6"/><path opacity=".2" d="m201 100.3 5.2 3s.4-11-2.2-11.5c-2.5-.5-3.6 2.6-3 8.5Z" fill="#000"/><path d="m307.7 204.2-11.6-5.8s-8.5 14.4-3.4 18.8c5.3 4.6 9.4-1 15-13Z" fill="#1E60F6"/><path opacity=".2" d="m307.7 204.2-11.6-5.8s-8.5 14.4-3.4 18.8c5.3 4.6 9.4-1 15-13Z" fill="#000"/><path d="m296.5 205.8-.8-6s-8.9 6.3-7.7 8.6c1.2 2.4 4.1 1.4 8.5-2.6Z" fill="#1E60F6"/><path opacity=".2" d="m296.5 205.8-.8-6s-8.9 6.3-7.7 8.6c1.2 2.4 4.1 1.4 8.5-2.6Z" fill="#000"/><path d="m310.3 150.8-9 4.5 3 5.7 9-4.5-3-5.7Z" fill="#1E60F6"/><path opacity=".2" d="m310.3 150.8-9 4.5 3 5.7 9-4.5-3-5.7Z" fill="#000"/><path d="M276.6 181.5a.6.6 0 0 1-.5-.5.6.6 0 1 1 1.2 0 .6.6 0 0 1-.7.5Z" fill="#1E60F6"/><path d="M275.8 184a.6.6 0 0 1 .4-1.2.6.6 0 0 1-.4 1.1Z" fill="#1E60F6"/><path d="M274.9 186.4a.6.6 0 1 1 .6-.4.6.6 0 0 1-.6.4Z" fill="#1E60F6"/><path d="M277.5 183.2a.6.6 0 1 1 .7-.4l-.3.3s-.2.1-.4 0Z" fill="#1E60F6"/><path d="M276.6 185.7a.6.6 0 1 1 .7-.5.6.6 0 0 1-.7.5Z" fill="#1E60F6"/><path d="M275.8 188.1a.6.6 0 0 1-.3-.7.5.5 0 0 1 .2-.4h.2a.5.5 0 0 1 .6.5v.2a.6.6 0 0 1-.8.4Z" fill="#1E60F6"/><g opacity=".2" fill="#000"><path opacity=".2" d="M276.6 181.5a.6.6 0 0 1-.5-.5.6.6 0 1 1 1.2 0 .6.6 0 0 1-.7.5Z"/><path opacity=".2" d="M275.8 184a.6.6 0 0 1 .4-1.2.6.6 0 0 1-.4 1.1Z"/><path opacity=".2" d="M274.9 186.4a.6.6 0 1 1 .6-.4.6.6 0 0 1-.6.4Z"/><path opacity=".2" d="M277.5 183.2a.6.6 0 1 1 .7-.4l-.3.3s-.2.1-.4 0Z"/><path opacity=".2" d="M276.6 185.7a.6.6 0 1 1 .7-.5.6.6 0 0 1-.7.5Z"/><path opacity=".2" d="M275.8 188.1a.6.6 0 0 1-.3-.7.5.5 0 0 1 .2-.4h.2a.5.5 0 0 1 .6.5v.2a.6.6 0 0 1-.8.4Z"/></g></g><defs><clipPath id="a"><path fill="#fff" d="M0 0h500v394H0z"/></clipPath></defs></svg>