<svg fill="none" xmlns="http://www.w3.org/2000/svg" viewBox="0 0 150 54"><path d="M149.54 51.18a1.99 1.99 0 0 1-1.06 2.44 2 2 0 0 1-.94.18H8.24c-4.35 0-4.35-28.33 0-28.33h139.34a2 2 0 0 1 2 2.61c-1.74 5.4-1.74 17.71-.04 23.1Z" fill="#1E60F6"/><path opacity=".8" d="M149.34 28.78H64.8c-3.33 0-3.33 21.71 0 21.71h84.53c-1.43-5.45-1.43-16.27 0-21.71Z" fill="#fff"/><path opacity=".2" d="M60.6 51.18a2 2 0 0 1-2 2.62H8.24c-4.35 0-4.35-28.33 0-28.33h50.4a2 2 0 0 1 2 2.61c-1.74 5.4-1.74 17.71-.04 23.1Z" fill="#000"/><path d="M29.72 25.47H18.2c-4.35 0-4.35 28.33 0 28.33h11.5c-4.3 0-4.3-28.33 0-28.33ZM38.79 25.47h-4.52c-4.35 0-4.35 28.33 0 28.33h4.52c-4.38 0-4.38-28.33 0-28.33Z" fill="#1E60F6"/><path d="M.12 23.12c-.48 1.16.7 2.35 2.3 2.35H127.7c5.1 0 5.1-25.47 0-25.47H2.4C.8 0-.36 1.18.1 2.35c2 4.85 2 15.92.02 20.77Z" fill="#263238"/><path opacity=".2" d="M.12 23.12c-.48 1.16.7 2.35 2.3 2.35h61.43c5.1 0 5.1-25.47 0-25.47H2.4C.8 0-.37 1.18.1 2.35c2 4.85 2 15.92 0 20.77Z" fill="#000"/><path opacity=".8" d="M.34 2.97h61c3.9 0 3.9 19.52 0 19.52h-61c1.68-4.93 1.68-14.62 0-19.52Z" fill="#fff"/><path opacity=".2" d="M81.6 5.68c-.38-1.13.72-2.23 2.24-2.23h35.07c3.72 0 3.72 18.56 0 18.56H83.84c-1.52 0-2.62-1.09-2.24-2.22a28.1 28.1 0 0 0 0-14.11Z" fill="#fff"/></svg>