<svg fill="none" xmlns="http://www.w3.org/2000/svg" viewBox="0 0 181 126"><path d="M180.34 83.56a2.32 2.32 0 0 1-2.08 3.05H31.06c-4.6 0-4.6-33 0-33h147.2a2.32 2.32 0 0 1 2.08 3c-1.8 6.35-1.8 20.68 0 26.95ZM138.92 21.78a1.69 1.69 0 0 1-1.5 2.22H30.5c-3.35 0-3.35-24 0-24h106.9a1.69 1.69 0 0 1 1.5 2.18c-1.3 4.62-1.3 15.04 0 19.6Z" fill="#1E60F6"/><path opacity=".5" d="M180.34 83.56a2.32 2.32 0 0 1-2.08 3.05H31.06c-4.6 0-4.6-33 0-33h147.2a2.32 2.32 0 0 1 2.08 3c-1.8 6.35-1.8 20.68 0 26.95Z" fill="#fff"/><path opacity=".5" d="M138.92 21.78a1.69 1.69 0 0 1-1.5 2.22H30.5c-3.35 0-3.35-24 0-24h106.9a1.69 1.69 0 0 1 1.5 2.18c-1.3 4.62-1.3 15.04 0 19.6Z" fill="#000"/><path opacity=".8" d="M180.14 57.49H90.83c-3.52 0-3.52 25.26 0 25.26h89.3c-1.52-6.33-1.52-18.92 0-25.26ZM139 3H73.92c-2.56 0-2.56 18 0 18H139c-1.12-4.51-1.12-13.48 0-18Z" fill="#fff"/><path opacity=".6" d="M86.38 83.56a2.33 2.33 0 0 1-2.07 3.05H31.07c-4.6 0-4.6-33 0-33H84.3a2.33 2.33 0 0 1 2.07 3c-1.77 6.35-1.77 20.68 0 26.95Z" fill="#1E60F6"/><path opacity=".6" d="M70.92 21.78A1.69 1.69 0 0 1 69.4 24H30.52c-3.36 0-3.36-24 0-24H69.4a1.7 1.7 0 0 1 1.57 1.43c.04.25.02.5-.05.75-1.3 4.62-1.3 15.04 0 19.6Z" fill="#1E282D"/><path opacity=".5" d="M64.78 56.08a1.78 1.78 0 0 0-1.5-2.44h-20.3c-4.6 0-4.6 33 0 33h20.3a1.79 1.79 0 0 0 1.5-2.45c-2.05-6.13-2.05-22 0-28.11ZM54.9 1.77a1.26 1.26 0 0 0-.1-1.16A1.31 1.31 0 0 0 53.78 0h-15.2c-3.44 0-3.44 24 0 24h15.2a1.37 1.37 0 0 0 1.02-.62 1.28 1.28 0 0 0 .1-1.16c-1.53-4.46-1.53-16 0-20.45Z" fill="#fff"/><path d="M169.78 121.98a2.85 2.85 0 0 1-2.94 3.6H13.9c-6.53 0-6.54-39 0-39h153a2.86 2.86 0 0 1 2.94 3.6c-2.62 7.43-2.6 24.38-.06 31.8Z" fill="#1E60F6"/><path opacity=".2" d="M169.78 121.98a2.85 2.85 0 0 1-2.94 3.6H13.9c-6.53 0-6.54-39 0-39h153a2.86 2.86 0 0 1 2.94 3.6c-2.62 7.43-2.6 24.38-.06 31.8Z" fill="#fff"/><path opacity=".8" d="M169.47 91.14H77c-5 0-5 29.88 0 29.88h92.49c-2.15-7.49-2.15-22.38-.02-29.88Z" fill="#fff"/><path opacity=".6" d="M70.69 122a2.85 2.85 0 0 1-2.93 3.6H13.9c-6.53 0-6.54-39 0-39h53.86a2.86 2.86 0 0 1 2.94 3.6c-2.55 7.43-2.55 24.37-.01 31.8Z" fill="#1E60F6"/><path opacity=".5" d="M38.43 87.96a.9.9 0 0 0-.86-1.35h-9.15c-6.52 0-6.52 39 0 39h9.19a.9.9 0 0 0 .86-1.35c-3.97-6.03-3.97-30.28-.04-36.3Z" fill="#fff"/><path opacity=".5" d="M52.7 87.96a.91.91 0 0 0-.85-1.36H42.7c-6.52 0-6.52 39 0 39h9.15a.89.89 0 0 0 .83-.42.9.9 0 0 0 .02-.93c-3.92-6.02-3.92-30.28 0-36.29Z" fill="#fff"/><path d="M.12 50.91c-.51 1.36.74 2.73 2.43 2.73H162c5.4 0 5.4-29.64 0-29.64H2.56C.85 24-.4 25.38.12 26.74c2.1 5.63 2.1 18.52 0 24.17Z" fill="#1E60F6"/><path opacity=".2" d="M.12 50.91c-.51 1.36.74 2.73 2.43 2.73h92c5.4 0 5.4-29.64 0-29.64h-92C.85 24-.4 25.38.12 26.74c2.1 5.63 2.1 18.52 0 24.17Z" fill="#000"/><path opacity=".8" d="M.36 27.47h91.52c4.14 0 4.14 22.71 0 22.71H.36c1.77-5.7 1.77-17.01 0-22.71Z" fill="#fff"/><path opacity=".2" d="M113.3 30.61c-.4-1.31.76-2.58 2.36-2.58h37.06c3.93 0 3.93 21.59 0 21.59h-37.06c-1.6 0-2.77-1.27-2.36-2.59 1.3-4.15 1.3-12.26 0-16.42Z" fill="#fff"/></svg>