<svg fill="none" xmlns="http://www.w3.org/2000/svg" viewBox="0 0 421 373"><g clip-path="url(#a)"><path d="M462 327.4H-38v.25h500v-.25Z" fill="#EBEBEB"/><path d="M411.9 343.49h-33.12v.25h33.12v-.25Z" fill="#EBEBEB"/><path d="M235.22 340.36h-12.89v.25h12.89v-.25Z" fill="#EBEBEB"/><path d="M311.67 341.42h-27.14v.25h27.14v-.25Z" fill="#EBEBEB"/><path d="M377.78 334.21h-56.11v.25h56.11v-.25Z" fill="#EBEBEB"/><path d="M40.99 345.78H14.46v.25h26.53v-.25Z" fill="#EBEBEB"/><path d="M72.89 345.78h-23v.25h23v-.25Z" fill="#EBEBEB"/><path d="M153.81 340.24H93v.25h60.81v-.25Z" fill="#EBEBEB"/><path d="M199 282.8H5.91a5.71 5.71 0 0 1-5.7-5.71V5.66A5.71 5.71 0 0 1 5.91 0H199a5.71 5.71 0 0 1 5.71 5.71v271.38a5.72 5.72 0 0 1-5.71 5.71ZM5.91.2A5.46 5.46 0 0 0 .46 5.66v271.43a5.46 5.46 0 0 0 5.45 5.46H199a5.47 5.47 0 0 0 5.46-5.46V5.66A5.47 5.47 0 0 0 199 .2H5.91Z" fill="#EBEBEB"/><path d="M415.31 282.8h-193.1a5.72 5.72 0 0 1-5.71-5.71V5.66A5.72 5.72 0 0 1 222.21 0h193.1A5.71 5.71 0 0 1 421 5.66v271.43a5.71 5.71 0 0 1-5.69 5.71ZM222.21.2a5.47 5.47 0 0 0-5.46 5.46v271.43a5.47 5.47 0 0 0 5.46 5.46h193.1a5.47 5.47 0 0 0 5.46-5.46V5.66A5.47 5.47 0 0 0 415.31.2h-193.1Z" fill="#EBEBEB"/><path d="M226.9 241.39c-2-5.75-17.79 2.07-24.2 11.6-4.27 6.34-6.88 13.12-8.09 22.22.14-10.38.31-21.54.47-32.07 1.3-2.62 4.26-8.67 6.38-13.47 7.11-16 24-22 29.83-32.06 7.65-13.24 7.6-33.09 1.1-40.26-5.66-6.22-24.39 35.88-26.5 40.58a124.98 124.98 0 0 0-10.73 39.82l.43-26c.4-22.85.89-30.2 1.12-32.46.78-1.1 1.7-2.39 2.24-3.08 4.53-5.83 14.59-12.78 19.61-21.26 7.34-12.39 6.16-27.21 1-32.73-5.38-5.77-14.9 7.87-19.95 21.38-5.05 13.51-2.89 26.45-4.31 37.68-.29 2.2-.6 10.56-.88 22.16-1.54-12.48-4.59-20.84-10.25-28.63-7-9.58-13-21.25-18.69-19.74-5.69 1.51-2.65 16.94 1.89 27.78 4 9.66 24 19.28 26.9 27.05a5559.6 5559.6 0 0 0-.88 54.18c-1.57-9.58-.49-10.38-6.93-25.05-3.82-8.72-19.51-19.47-21.38-13.48-1.87 5.99 1 17.31 6.89 25.24 4.78 6.4 15.38 6.39 17.83 10.36.58.93 2.47 4.48 3.55 6.52-.26 22.64-.37 42.63-.24 49.44l1 .07c0-1.76.08-13.28.28-28.52 2.58-8.11 19.91-12.84 25.26-21.28 5.63-8.79 9.66-19.09 7.25-25.99Z" fill="#E6E6E6"/><path d="M210.61 327.4h-33.26a3.83 3.83 0 0 1-3.75-3.06l-2.36-11.64h45.48l-2.37 11.64a3.8 3.8 0 0 1-3.74 3.06Z" fill="#F0F0F0"/><path d="M217.67 317.21h-47.38a2.24 2.24 0 0 1-2.22-2l-1-8.61a2.23 2.23 0 0 1 2.22-2.48h49.32a2.24 2.24 0 0 1 2.12 1.55c.1.3.13.62.09.93l-1 8.61a2.22 2.22 0 0 1-2.15 2Z" fill="#F0F0F0"/><path d="M362.77 323.23h31.85V187.32h-31.85v135.91Z" fill="#F0F0F0"/><path d="M227.45 327.4h165.02v-4.17H227.45v4.17Z" fill="#F0F0F0"/><path d="M362.76 187.32H225.31v135.91h137.45V187.32Z" fill="#F5F5F5"/><path d="M350.24 240.89H237.83v28.78h112.41v-28.78Z" fill="#F0F0F0"/><path d="M350.24 277.93H237.83v28.78h112.41v-28.78Z" fill="#F0F0F0"/><path d="M281.42 245.85h25.23a3.1 3.1 0 1 0 0-6.21h-25.23a3.1 3.1 0 1 0 0 6.21Z" fill="#F5F5F5"/><path d="M350.24 203.85H237.83v28.78h112.41v-28.78Z" fill="#F0F0F0"/><path d="M281.42 208.81h25.23a3.13 3.13 0 0 0 3.11-3.1 3.12 3.12 0 0 0-3.11-3.11h-25.23a3.12 3.12 0 0 0-3.11 3.11 3.12 3.12 0 0 0 3.11 3.1Z" fill="#F5F5F5"/><path d="M281.42 282.89h25.23a3.11 3.11 0 0 0 3.11-3.1 3.12 3.12 0 0 0-3.11-3.11h-25.23a3.12 3.12 0 0 0-3.11 3.11 3.11 3.11 0 0 0 3.11 3.1Z" fill="#F5F5F5"/><path d="M222.48 187.32h140.28v-3.88H222.48v3.88Z" fill="#F0F0F0"/><path d="M397.64 183.45h-34.88v3.88h34.88v-3.88Z" fill="#E6E6E6"/><path d="M109.41 327.4h31.47V123.87h-31.47V327.4Z" fill="#E0E0E0"/><path d="M29.21 327.4h105.37l11.07-250.52H40.28L29.21 327.4Z" fill="#E6E6E6"/><path d="M13.84 327.4H130.4l11.06-250.52H24.91L13.84 327.4Z" fill="#F0F0F0"/><path d="m118.99 315.12 9.32-225.95H36.32l-9.33 225.95h92Z" fill="#fff"/><path d="m79.46 315.12 31.27-225.95h-9.81L69.65 315.12h9.81Z" fill="#FAFAFA"/><path d="M65.49 315.12 96.76 89.17H80.03L48.76 315.12h16.73Z" fill="#FAFAFA"/><path d="M255.47 145.12H383V25.82H255.47v119.3Z" fill="#E6E6E6"/><path d="M251.5 145.12h129.64V25.82H251.5v119.3Z" fill="#F5F5F5"/><path d="M255.47 150H383v-4.88H255.47V150Z" fill="#E6E6E6"/><path d="M247.96 150h120.98v-4.88H247.96V150Z" fill="#F5F5F5"/><path d="M375.6 137.72V33.21H257.04v104.51H375.6Z" fill="#FAFAFA"/><path d="M257.84 137.73V33.22h-.79v104.51h.79Z" fill="#E6E6E6"/><path d="m355.94 137.72-20.5-104.51h-26.87l20.5 104.51h26.87Z" fill="#fff"/><path d="m324.72 137.72-20.5-104.51h-12.13l20.5 104.51h12.13Z" fill="#fff"/><path d="M371.64 132.06V21.72a.61.61 0 0 0-.61-.61h-.05a.61.61 0 0 0-.61.61v110.34c0 .34.27.61.61.61h.05c.34 0 .61-.27.61-.61Z" fill="#EBEBEB"/><path opacity=".5" d="M248.6 39.36h136.55V21.1H248.6v18.26Z" fill="#E6E6E6"/><path d="M248.6 23.37h136.55V21.1H248.6v2.27Z" fill="#E0E0E0"/><path d="M248.83 22.1h136.1c.48 0 .87-.39.87-.87v-.25a.87.87 0 0 0-.87-.87h-136.1a.87.87 0 0 0-.87.87v.25c0 .48.39.87.87.87Z" fill="#EBEBEB"/><path d="M248.43 39.84h136.89a.47.47 0 0 0 .44-.3.48.48 0 0 0 .03-.18.47.47 0 0 0-.47-.47H248.43a.48.48 0 0 0-.48.47.48.48 0 0 0 .48.48Z" fill="#fff"/><path d="M212 372.56c107.08 0 193.89-5.07 193.89-11.32s-86.8-11.32-193.89-11.32c-107.08 0-193.89 5.07-193.89 11.32s86.8 11.32 193.89 11.32Z" fill="#F5F5F5"/><path d="m26.84 217.08-1.01.12 1.8 15.4 1-.12-1.8-15.4Z" fill="#1E60F6"/><path d="m29.31 238.2-1.01.12.9 7.77 1.02-.12-.91-7.77Z" fill="#1E60F6"/><path d="m96.59 185.69-1.2-3.37a10.86 10.86 0 0 0-11.5-7.14l-47.79 5.59a10.87 10.87 0 0 0-9.53 12.06l13.6 116.3a7.45 7.45 0 0 0 8.27 6.54l171-20a7.44 7.44 0 0 0 6.56-8.27l-11.8-100.54a7.45 7.45 0 0 0-8.26-6.54l-99.3 11.62a9.51 9.51 0 0 1-10.05-6.25Z" fill="#1E60F6"/><path d="m101.36 135.12-54.03 10.76 14.84 74.44 54.02-10.77-14.83-74.44Z" fill="#1E60F6"/><path opacity=".7" d="m101.36 135.12-54.03 10.76 14.84 74.44 54.02-10.77-14.83-74.44Z" fill="#fff"/><g opacity=".4" fill="#1E60F6"><path opacity=".4" d="m94.15 153-33.28 6.64a3 3 0 0 1-3.51-2.34 3 3 0 0 1 2.34-3.51l33.3-6.61a3 3 0 0 1 3.51 2.34 3 3 0 0 1-2.36 3.48Z"/><path opacity=".4" d="M96.6 165.33 63.32 172a3 3 0 0 1-3.5-2.34 3 3 0 0 1 2.34-3.5l33.28-6.63a3 3 0 0 1 3.5 2.34 3 3 0 0 1-2.34 3.46Z"/><path opacity=".4" d="m99.05 177.64-33.28 6.63a3 3 0 0 1-3.5-2.34 3 3 0 0 1 2.34-3.5l33.28-6.64a3 3 0 0 1 3.5 2.34 3 3 0 0 1-2.34 3.51Z"/><path opacity=".4" d="m101.51 190-33.28 6.63a3 3 0 0 1-3.51-2.34 3 3 0 0 1 2.34-3.51l33.28-6.63a3 3 0 0 1 3.51 2.34 3 3 0 0 1-2.34 3.51Z"/><path opacity=".4" d="m94.86 204.07-24.18 4.82a3 3 0 0 1-3.5-2.34 3 3 0 0 1 2.34-3.51l24.18-4.82a3 3 0 0 1 3.5 2.34 3 3 0 0 1-2.34 3.51Z"/></g><path d="m178.34 120.77-54.58 7.47 10.3 75.2 54.57-7.47-10.28-75.2Z" fill="#1E60F6"/><path opacity=".7" d="m178.34 120.77-54.58 7.47 10.3 75.2 54.57-7.47-10.28-75.2Z" fill="#fff"/><g opacity=".4" fill="#1E60F6"><path opacity=".4" d="m170.06 138.2-33.62 4.6a3 3 0 0 1-3.36-2.55 3 3 0 0 1 2.55-3.36l33.62-4.6a3 3 0 0 1 3.36 2.55 3 3 0 0 1-2.55 3.36Z"/><path opacity=".4" d="m171.76 150.63-33.62 4.6a3 3 0 0 1-3.36-2.55 3 3 0 0 1 2.55-3.35l33.62-4.6a3 3 0 0 1 3.36 2.54 3 3 0 0 1-2.55 3.36Z"/><path opacity=".4" d="m149.1 166.4-9.26 1.27a3 3 0 0 1-3.36-2.55 3 3 0 0 1 2.55-3.36l9.27-1.27a3 3 0 0 1 3.35 2.55 3 3 0 0 1-2.55 3.36Z"/><path opacity=".4" d="m167.07 163.94-9.27 1.27a3 3 0 0 1-3.35-2.55 3 3 0 0 1 2.55-3.36l9.26-1.26a3 3 0 0 1 3.36 2.54 3 3 0 0 1-2.55 3.36Z"/><path opacity=".4" d="m175.16 175.5-33.62 4.6a3 3 0 0 1-3.36-2.55 3 3 0 0 1 2.55-3.35l33.62-4.61a3 3 0 0 1 3.36 2.55 3 3 0 0 1-2.55 3.36Z"/><path opacity=".4" d="m167.68 189.19-24.44 3.34a3 3 0 0 1-3.35-2.54 3 3 0 0 1 2.54-3.36l24.44-3.34a3 3 0 0 1 3.35 2.54 3 3 0 0 1-2.54 3.36Z"/></g><path d="m126.84 131.74-54.88 4.78 6.59 75.62 54.88-4.78-6.59-75.62Z" fill="#1E60F6"/><path opacity=".8" d="m126.84 131.74-54.88 4.78 6.59 75.62 54.88-4.78-6.59-75.62Z" fill="#fff"/><g opacity=".4" fill="#1E60F6"><path opacity=".4" d="M117.71 148.76 83.9 151.7a3 3 0 0 1-3.23-2.71 3 3 0 0 1 2.71-3.22l33.81-3a3 3 0 0 1 3.23 2.71 3 3 0 0 1-2.71 3.28Z"/><path opacity=".4" d="m118.8 161.26-33.81 3a3 3 0 0 1-3.23-2.71 3 3 0 0 1 2.71-3.23l33.81-3a3 3 0 0 1 3.23 2.71 3 3 0 0 1-2.71 3.23Z"/><path opacity=".4" d="m119.89 173.76-33.81 3a3 3 0 0 1-3.23-2.71 3 3 0 0 1 2.71-3.23l33.81-3a3 3 0 0 1 3.23 2.71 3 3 0 0 1-2.71 3.23Z"/><path opacity=".4" d="m121 186.26-33.81 3a3 3 0 0 1-3.23-2.71 3 3 0 0 1 2.71-3.23l33.81-2.94a3 3 0 0 1 3.23 2.71 3 3 0 0 1-2.71 3.17Z"/><path opacity=".4" d="m112.83 199.57-24.57 2.14A3 3 0 0 1 85 199a3 3 0 0 1 2.71-3.23l24.57-2.14a3 3 0 0 1 3.23 2.71 3 3 0 0 1-2.68 3.23Z"/></g><path d="m193.72 128.07-55.03 2.65 3.65 75.81 55.03-2.65-3.66-75.81Z" fill="#1E60F6"/><path opacity=".8" d="m193.72 128.07-55.03 2.65 3.65 75.81 55.03-2.65-3.66-75.81Z" fill="#fff"/><g opacity=".4" fill="#1E60F6"><path opacity=".4" d="m183.94 144.7-33.89 1.64a3 3 0 0 1-3.12-2.83 3 3 0 0 1 2.83-3.12l33.9-1.64a3 3 0 0 1 3.12 2.83 3 3 0 0 1-2.84 3.12Z"/><path opacity=".4" d="m184.55 157.24-33.9 1.63a3 3 0 0 1-3.12-2.83 3 3 0 0 1 2.84-3.12l33.89-1.64a3 3 0 0 1 3.12 2.84 3 3 0 0 1-2.83 3.12Z"/><path opacity=".4" d="m160.6 171-9.34.45a3 3 0 0 1-3.12-2.83 3 3 0 0 1 2.83-3.12l9.34-.46a3 3 0 0 1 3.12 2.84 3 3 0 0 1-2.83 3.12Z"/><path opacity=".4" d="m178.71 170.08-9.34.45a3 3 0 0 1-3.12-2.83 3 3 0 0 1 2.83-3.12l9.34-.45a3 3 0 0 1 3.12 2.83 3 3 0 0 1-2.83 3.12Z"/><path opacity=".4" d="m185.76 182.31-33.9 1.63a3 3 0 0 1-3.12-2.83 3 3 0 0 1 2.84-3.12l33.89-1.64a3 3 0 0 1 3.12 2.84 3 3 0 0 1-2.83 3.12Z"/><path opacity=".4" d="m177.1 195.29-24.63 1.19a3 3 0 0 1-3.12-2.83 3 3 0 0 1 2.83-3.12l24.63-1.19a3 3 0 0 1 3.12 2.83 3 3 0 0 1-2.83 3.12Z"/></g><path d="m111.85 187.84-.88-3.29a9.62 9.62 0 0 0-10.71-7l-47.79 5.59A12 12 0 0 0 41.93 195l2.71 113.85a6.57 6.57 0 0 0 7.57 6.38l171-20a8.22 8.22 0 0 0 7.23-8.11l-2.34-98.42a6.59 6.59 0 0 0-7.58-6.38l-99.29 11.61a8.41 8.41 0 0 1-9.38-6.09Z" fill="#1E60F6"/><path opacity=".3" d="m111.85 187.84-.88-3.29a9.62 9.62 0 0 0-10.71-7l-47.79 5.59A12 12 0 0 0 41.93 195l2.71 113.85a6.57 6.57 0 0 0 7.57 6.38l171-20a8.22 8.22 0 0 0 7.23-8.11l-2.34-98.42a6.59 6.59 0 0 0-7.58-6.38l-99.29 11.61a8.41 8.41 0 0 1-9.38-6.09Z" fill="#000"/><path d="M279 133.11c-.74 3.71-1.53 7.37-2.42 11-.89 3.63-1.76 7.3-2.73 10.93l-1.48 5.43-.19.7a9.15 9.15 0 0 1-1.31 2.84c-.5.75-1.13 1.4-1.87 1.9a6 6 0 0 1-2.73 1c-1.48.1-2.96-.2-4.27-.91-1-.54-1.93-1.19-2.78-1.93a24.22 24.22 0 0 1-4.07-4.59L258 157a34.96 34.96 0 0 0 4.3 2.86c.65.37 1.34.67 2.06.89.61.2 1.15.17 1.15.07s-.1 0-.15 0c-.05 0 0 0 0-.17s.12-.35.19-.61l.23-1.11 1.16-5.46 2.35-10.92c.76-3.64 1.58-7.29 2.37-10.89l7.34 1.45Z" fill="#FFC3BD"/><path d="M275.68 121.68c-8.53 6.53-8.18 18.84-8.18 18.84l15.25 3.65s4.69-12.38 2.79-16.91c-1.98-4.72-5.05-9.26-9.86-5.58Z" fill="#263238"/><path d="m258.76 157.15-5.61-5.61-3 8.78s4.74 2.55 9.27.14l-.66-3.31Z" fill="#FFC3BD"/><path d="m245.38 150.67-1.03 6.94 5.77 2.71 3.03-8.78-7.77-.87Z" fill="#FFC3BD"/><path d="m325.12 353.86-8.58.84-8.93-20.43 8.58-.84 8.93 20.43Z" fill="#FFC3BD"/><path d="m380.4 323.66-6.45 6.05-13.91-15.29 6.45-6.05 13.91 15.29Z" fill="#FFC3BD"/><path d="m371 326.81 4.84-8.72a.7.7 0 0 1 .88-.33l7.45 2.84a1.42 1.42 0 0 1 .69 2c-1.74 3-2.73 4.38-4.86 8.22-1.31 2.36-3.86 7.77-5.67 11-1.81 3.23-5.13 1.65-4.67.13 2.07-6.82 1.68-10.61 1.1-13.61a2.3 2.3 0 0 1 .24-1.53Z" fill="#263238"/><path d="M315.4 352.05h10.54a.86.86 0 0 1 .83.64l2.29 8.33a1.3 1.3 0 0 1-.69 1.54c-.18.09-.39.13-.59.13h-24.27c-3.86 0-4.66-3.89-3.07-4.25 7.15-1.58 11.26-3.76 13.47-5.84.41-.36.94-.56 1.49-.55Z" fill="#263238"/><path opacity=".2" d="m307.62 334.28 4.6 10.53h8.95l-4.97-11.37-8.58.84Z" fill="#000"/><path opacity=".2" d="m366.49 308.38-6.45 6.05 7.18 7.88 6.45-6.06-7.18-7.87Z" fill="#000"/><path d="M278.26 120.42s-3.86 1.69 9.08 52.89l35.94-3.11c-1.86-14.57-2.66-23.59 1.73-54.22-5.12-.6-10.28-.84-15.43-.69-5.47.08-10.92.55-16.32 1.41a152.2 152.2 0 0 0-15 3.72Z" fill="#263238"/><path d="M309.58 115h4.44c1.45 2.23-3.25 12-11 18.39a19.7 19.7 0 0 0-6.25-9.06l12.81-9.33Z" fill="#fff"/><path d="M293.26 116.57s-.91.13-3.08.63c-1.45 2.23-3.9 11.76.37 16.62a19.18 19.18 0 0 1 6.19-9.41l-3.48-7.84Z" fill="#fff"/><path d="M306.37 97.05c-.57 5.34-.77 15 3.21 18.24 0 0-4.25 4.34-12.84 9.12-6.25-4.32-3.48-7.71-3.48-7.71 5.73-1.9 5.2-6.23 3.83-10.23l9.28-9.42Z" fill="#FFC3BD"/><path d="M296.59 124.44s5.27-5.74 8-4.64c2.73 1.1.62 3.07.38 4.92s1.06 6.77-2.59 5.49c-3.65-1.28-5.79-5.77-5.79-5.77Z" fill="#1E60F6"/><path d="M296.38 124.32s-2.49-4.4-5.18-3.81c-2.69.59-1.09 2.13-.85 3.79.31 2.12-1.93 6.2 1.31 5 3.24-1.2 4.72-4.98 4.72-4.98Z" fill="#1E60F6"/><g opacity=".2" fill="#000"><path opacity=".2" d="M295 123.37c-.04.89.13 1.77.5 2.58.33-.52.62-1.06.87-1.62-.37-.63-.8-1.22-1.27-1.77-.08.26-.12.54-.1.81Z"/><path opacity=".2" d="M298.51 122.58c-1.13 1-1.91 1.86-1.91 1.86.3.6.63 1.18 1 1.73.6-.6.96-1.42 1-2.27.1-.44.06-.9-.09-1.32Z"/></g><path d="M296.53 126.24c-.75 0-1.21-.81-1.26-2.74-.05-1.93 1.43-.86 1.43-.86s2-1 1.64 1.31c-.26 1.83-1.04 2.29-1.81 2.29Z" fill="#1E60F6"/><path opacity=".2" d="m302.59 100.9-5.49 5.57c.33.93.58 1.88.75 2.85 2.21-.51 5.41-2.81 5.44-5.17a9.28 9.28 0 0 0-.7-3.25Z" fill="#000"/><path d="M297.88 79s-6 8.31-7 12c-4.08 2.38-4.9-9.33-2.74-16.55 6.74 4.23 9.74 4.55 9.74 4.55Z" fill="#263238"/><path d="M311.07 88.71c-2.23 8.53-3 12.19-8.22 15.76-7.87 5.38-17.86.78-18.23-8.25-.33-8.12 3.37-20.71 12.5-22.48a12 12 0 0 1 13.95 14.97Z" fill="#FFC3BD"/><path d="M315.71 85.3s-4.29 6.95-4.87 10c-3.11 2.11-4.42-7.15-3.11-13 1.43-5.21 7.98 3 7.98 3Z" fill="#263238"/><path d="M314 80.47c-1.24.94-2.55-2.53-1.32-5.19-2.37.15-5.22-1.26-4.61-3.55-4.67 1.57-6.4-3.18-5.86-6.47.65-4 4.13-4.85 6.18-3.8 0-1.79 4.52-5.52 6.24-2.6 3.19-1.13 8.33-.78 8.22 3.14 2.11.06 8.34 2.45 6 8 2.75.16 4.24 3.65 2.71 6.29a4.24 4.24 0 0 1 .87 6.9c1.27 2.64-2.58 6.57-4.63 6.1-1.56 2.39-3.95 4.19-5.51 2.15-3 2.21-6.45-.6-5.68-2.76-3.4-.52-6.87-6.19-2.61-8.21Z" fill="#263238"/><path d="M319.08 72.07c2.24 3.74 2.05 8-.41 9.45-2.46 1.45-6.29-.35-8.53-4.09-2.24-3.74-2.06-8 .41-9.45 2.47-1.45 6.29.36 8.53 4.09Z" fill="#1E60F6"/><path d="M298.28 78c-.13 1.07-3.08.79-3.93-1.1-1.22 1.28-4.09 1.94-5.07.55-1.66 3.12-5 2.3-5.86.81-.86-1.49-1.43-4.26.3-4.81-1-.86-.7-4.91 1.92-4.4 1.1-2.16 4.11-4.61 6.31-2.7 1.2-1 6-3.08 7.94.73a3.41 3.41 0 0 1 5.11 1.6c3.11-.81 4.46 1.55 4.45 2.83 2.21.6 2.36 4.42 1 5.24.53 1.93.25 4-1.78 3.82-.39 2.6-3.87 3-4.69 1.59-2.26 1.45-6.87-1.07-5.7-4.16Z" fill="#263238"/><path d="M293 70.62c2.53-3.5 11.76-5 19.75.29 7.2 4.73 6.73 15.72 1 15.13-5.73-.59-11.39-7.3-11.39-7.3L293 70.62Z" fill="#263238"/><path d="M311.77 96.41a6.46 6.46 0 0 1-3.78 3.14c-2.17.65-3.29-1.27-2.73-3.34.51-1.86 2.24-4.44 4.43-4.18a2.89 2.89 0 0 1 2.08 4.38Z" fill="#FFC3BD"/><path d="M287.34 173.31s-12.16 53.8-4 91.73c5.44 25.4 25 76.71 25 76.71l15.34-.39s-14.85-53.85-17.92-75c-5.25-36.22 7.9-95.29 7.9-95.29l-26.32 2.24Z" fill="#1E60F6"/><path opacity=".2" d="m301.36 184.18 7.64 12.09a370.92 370.92 0 0 0-4.39 43.3c-10.75-19.3-5.61-45.18-3.25-55.39Z" fill="#000"/><path d="m306.18 342.55 18.94-.49-1.09-5.81-19.33.91 1.48 5.39Z" fill="#263238"/><path d="M295.2 172.74s7.13 57.05 22.6 88.2c12.49 25.16 45.82 61 45.82 61l8.52-8.78s-22.51-38.92-31.79-55.63c-22.77-41-4.16-72.25-17.07-87.3l-28.08 2.51Z" fill="#1E60F6"/><path d="m362.76 323.09 11-10.72-3.65-4.97-11.67 11.64 4.32 4.05Z" fill="#263238"/><path d="m323.64 168.05 1.9 3.08c.15.23-.13.51-.54.55l-37.7 3.26c-.32 0-.6-.11-.64-.31l-.6-3.19c-.05-.22.22-.43.57-.46l36.4-3.15a.64.64 0 0 1 .61.22Z" fill="#1E60F6"/><path opacity=".5" d="m323.64 168.05 1.9 3.08c.15.23-.13.51-.54.55l-37.7 3.26c-.32 0-.6-.11-.64-.31l-.6-3.19c-.05-.22.22-.43.57-.46l36.4-3.15a.64.64 0 0 1 .61.22Z" fill="#fff"/><path d="m319.1 172.54 1-.08c.19 0 .33-.13.31-.25l-.82-4.14c0-.13-.2-.21-.4-.19l-1 .08c-.2 0-.34.13-.31.25l.82 4.14c.03.12.21.21.4.19Z" fill="#1E60F6"/><path d="m290.07 175.05 1-.08c.19 0 .33-.13.31-.25l-.82-4.14a.36.36 0 0 0-.17-.16.37.37 0 0 0-.23-.03l-1 .08c-.2 0-.34.13-.31.25l.82 4.14c.03.14.21.21.4.19Z" fill="#1E60F6"/><path d="m304.59 173.8 1-.09c.2 0 .34-.13.31-.25l-.82-4.14c0-.12-.2-.21-.39-.19l-1 .09c-.19 0-.33.13-.31.25l.82 4.14c.02.12.19.2.39.19Z" fill="#1E60F6"/><path d="M296.63 88.42c-.14.7-.62 1.2-1.08 1.11-.46-.09-.72-.74-.59-1.44s.63-1.2 1.09-1.11c.46.09.72.73.58 1.44Z" fill="#263238"/><path d="M288.67 86.85c.14-.7-.12-1.35-.59-1.44-.45-.1-.94.4-1.08 1.11-.14.7.12 1.35.58 1.44.47.1.95-.4 1.09-1.11Z" fill="#263238"/><path d="m288.3 85.5-1.6-.82s.61 1.49 1.6.82Z" fill="#263238"/><path d="M291.41 88.61a19 19 0 0 1-3.38 4 3.05 3.05 0 0 0 2.41 1l.97-5Z" fill="#ED847E"/><path d="M293.69 96.91a5.86 5.86 0 0 0 4.05-1.58.17.17 0 0 0 .02-.07l-.01-.08a.19.19 0 0 0-.05-.07.18.18 0 0 0-.27.04 5.7 5.7 0 0 1-5.07 1.3.17.17 0 0 0-.06.02.17.17 0 0 0-.07.11.16.16 0 0 0 .14.2c.43.1.88.13 1.32.13Z" fill="#263238"/><path d="M301.4 85.69a.35.35 0 0 0 .34-.27.35.35 0 0 0-.04-.26 4.1 4.1 0 0 0-3.17-2 .35.35 0 0 0-.36.34.34.34 0 0 0 .1.25.36.36 0 0 0 .24.11 3.4 3.4 0 0 1 2.59 1.71.35.35 0 0 0 .3.12Z" fill="#263238"/><path d="M286.48 82.87h.17a3.43 3.43 0 0 1 3.1-.2.35.35 0 0 0 .32-.62 4.08 4.08 0 0 0-3.77.21.35.35 0 0 0-.16.2.35.35 0 0 0 .03.27.33.33 0 0 0 .31.14Z" fill="#263238"/><path d="M326.54 124.16a32.7 32.7 0 0 1 1.68 1.77c.53.59 1 1.17 1.48 1.76a59.58 59.58 0 0 1 2.71 3.66 60.27 60.27 0 0 1 4.48 7.91 51.3 51.3 0 0 1 3.11 8.57c.39 1.47.74 3 1 4.47.5 2.12.25 4.35-.69 6.32a8.36 8.36 0 0 1-2.23 2.66c-.8.61-1.68 1.12-2.61 1.5a18.9 18.9 0 0 1-5 1.18c-3.04.3-6.1.25-9.13-.12a93.75 93.75 0 0 1-17.1-3.63l.92-3.63c2.72.45 5.52.87 8.28 1.16 2.76.29 5.54.55 8.27.61 2.65.1 5.3-.05 7.91-.44 1.13-.18 2.22-.52 3.26-1 .63-.24 1.16-.7 1.47-1.31.08-.23.13-.47.12-.72v-.54c0-.2-.07-.38-.16-.75a42.33 42.33 0 0 0-1.05-3.82 52.4 52.4 0 0 0-7.08-14.15 53.86 53.86 0 0 0-2.36-3.2c-.41-.52-.84-1-1.26-1.51-.42-.51-.9-1-1.23-1.36l5.21-5.39Z" fill="#FFC3BD"/><path d="m307.45 157.13-7-3.71-.32 9.27s5 .32 7.86-2l-.54-3.56Z" fill="#FFC3BD"/><path d="m295.17 207 5.78-62.81-12.35-9.46-37.7-3.47-6.55 71.06 50.82 4.68Z" fill="#1E60F6"/><path opacity=".8" d="m295.17 207 5.78-62.81-12.35-9.46-37.7-3.47-6.55 71.06 50.82 4.68Z" fill="#fff"/><path d="m300.95 144.19-12.35-9.46 3.24 11.32 9.11-1.86Z" fill="#1E60F6"/><path d="M248.77 213.3a15.4 15.4 0 1 0 0-30.8 15.4 15.4 0 0 0 0 30.8Z" fill="#1E60F6"/><path d="M256.38 207.53a12.28 12.28 0 1 0-15.23-19.28 12.28 12.28 0 0 0 15.23 19.28Z" fill="#fff"/><path d="m256.36 196.82-5.42-.63.63-5.42-3.88-.46-.63 5.42-5.42-.64-.46 3.89 5.42.64-.64 5.41 3.89.46.63-5.42 5.42.64.46-3.89Z" fill="#1E60F6"/><path opacity=".4" d="M291.73 157.21a4.2 4.2 0 0 1-4.57 3.8l-27.5-2.53a4.2 4.2 0 0 1-3.8-4.57 4.2 4.2 0 0 1 4.57-3.8l27.5 2.53a4.2 4.2 0 0 1 3.8 4.57Z" fill="#1E60F6"/><path opacity=".4" d="M282.36 168.56a4.2 4.2 0 0 1-4.57 3.8l-19.22-1.77a4.2 4.2 0 0 1-3.8-4.57 4.2 4.2 0 0 1 4.57-3.8l19.22 1.78a4.21 4.21 0 0 1 3.8 4.56Z" fill="#1E60F6"/><path d="m296.17 153.97 1.05 6.93 2.9 1.79.32-9.27-4.27.55Z" fill="#FFC3BD"/><path d="M325 116c4.41.78 10.59 13.42 10.59 13.42l-11.11 10s-8.84-9.64-8.37-15.38c.41-4.85 3.29-9.04 8.89-8.04Z" fill="#263238"/><path d="M369.28 331.5c.12 0 .23-.02.34-.05 1.06-.36 1.75-2.31 2.07-3.44v-.1a.18.18 0 0 0-.06-.08.15.15 0 0 0-.19 0c-.32.16-3.14 1.67-3.23 2.78a.65.65 0 0 0 .3.62c.22.18.49.27.77.27Zm2-3.18c-.49 1.56-1.12 2.59-1.72 2.79a.82.82 0 0 1-.79-.18.32.32 0 0 1-.16-.31c0-.68 1.65-1.75 2.62-2.3h.05Z" fill="#1E60F6"/><path d="M368.84 328.76c.96 0 1.9-.23 2.77-.65a.18.18 0 0 0 .08-.15c0-.03 0-.06-.02-.09a.16.16 0 0 0-.07-.06c-.09-.05-2.32-1.28-3.52-.85a.99.99 0 0 0-.66.62.7.7 0 0 0 .16.86 2 2 0 0 0 1.26.32Zm2.29-.8c-.95.41-2.8.66-3.32.22-.09-.08-.18-.2-.06-.47a.69.69 0 0 1 .44-.42c.81-.29 2.31.36 2.94.71v-.04Z" fill="#1E60F6"/><path d="M310.73 353.75c.97-.02 1.93-.15 2.87-.37a.18.18 0 0 0 .08-.06.17.17 0 0 0 0-.2.18.18 0 0 0-.08-.06c-.43-.21-4.26-2-5.22-1.32a.57.57 0 0 0-.25.54 1.25 1.25 0 0 0 .52 1c.63.37 1.35.54 2.08.47Zm2.27-.6c-1.13.21-3.23.49-4.1-.16a1 1 0 0 1-.38-.73.22.22 0 0 1 .1-.23c.53-.37 2.79.42 4.38 1.12Z" fill="#1E60F6"/><path d="M313.56 353.39a.2.2 0 0 0 .12 0 .17.17 0 0 0 .05-.18c0-.16-.9-3.93-3-3.69-.52.07-.67.32-.69.53-.13 1 2.28 2.89 3.43 3.37l.09-.03Zm-2.62-3.57c1.33 0 2.1 2.2 2.36 3.08-1.25-.66-3-2.23-2.89-2.84 0-.05 0-.19.39-.23l.14-.01Z" fill="#1E60F6"/><path d="m296.24 87.06-1.59-.82s.61 1.49 1.59.82Z" fill="#263238"/></g><defs><clipPath id="a"><path fill="#fff" d="M0 0h421v373H0z"/></clipPath></defs></svg>