<svg fill="none" xmlns="http://www.w3.org/2000/svg" viewBox="0 0 211 195"><g clip-path="url(#a)"><path d="M241 171H-27v.1h268v-.1Zm-26.8 8.6h-17.8v.1h17.8v-.1Zm-63.7 1.5H146h4.6Zm45.4-6.5h-10.3v.2h10.3v-.2Zm-171.6 1H1h23.2Zm8.1 0H29h3.4Zm61.3 2.2H43.5v.1h50.2v-.1ZM100 147H-3.5a3 3 0 0 1-3-3.1V-1.5a3 3 0 0 1 3-3H100a3 3 0 0 1 3 3V144a3 3 0 0 1-3 3ZM-3.5-4.4a3 3 0 0 0-2.9 3V144a3 3 0 0 0 3 3H100a3 3 0 0 0 3-3V-1.5a3 3 0 0 0-3-3H-3.5v.1ZM216 147.1H112.5a3 3 0 0 1-3-3.1V-1.5a3 3 0 0 1 3-3H216a3 3 0 0 1 3 3V144a3 3 0 0 1-3 3ZM112.5-4.4a3 3 0 0 0-3 3V144a3 3 0 0 0 3 3H216a3 3 0 0 0 2.9-3V-1.5a3 3 0 0 0-3-3H112.6v.1Z" fill="#EBEBEB"/><path d="M61.2 1.2H23v129.6h38.2V1.2Z" fill="#FAFAFA"/><path d="M55.5 1.2h-2.3L40 130.8h2.3L55.5 1.2Z" fill="#F5F5F5"/><path d="M60.5 1.7H22.7V3h37.8V1.7Z" fill="#E0E0E0"/><path d="M60.5 129.7H22.7v2.4h37.8v-2.4Z" fill="#EBEBEB"/><path d="M59.9 132H24.2v.1h35.7v-.1ZM24.2 1.7h35.7V132H62V.1H22V132h2.2V1.7Z" fill="#EBEBEB"/><path d="M103.7 1.2H65.5v129.6h38.2V1.2Z" fill="#FAFAFA"/><path d="M93 1.2H81L67.6 130.8h12.2L93 1.2Z" fill="#F5F5F5"/><path d="M104 1.7H65.3V3h38.9V1.7Z" fill="#E0E0E0"/><path d="M104 129.7H65.3v2.4h38.9v-2.4Z" fill="#EBEBEB"/><path d="M102.4 132H66.7v.1h35.7v-.1ZM66.7 1.7h35.7V132h2.1V.1h-40V132h2.2V1.7Z" fill="#EBEBEB"/><path d="M145 1.2h-37v129.6h37V1.2Z" fill="#FAFAFA"/><path d="M129 1.2h-2.2l-13.3 129.6h2.2L129 1.2Z" fill="#F5F5F5"/><path d="M145.5 1.7h-37.8V3h37.8V1.7Z" fill="#E0E0E0"/><path d="M145.5 129.7h-37.8v2.4h37.8v-2.4Z" fill="#EBEBEB"/><path d="M144.9 132h-35.7v.1h35.7v-.1ZM109.2 1.7h35.7V132h2.1V.1h-40V132h2.2V1.7Z" fill="#EBEBEB"/><path d="M188.7 1.2h-38.2v129.6h38.2V1.2Z" fill="#FAFAFA"/><path d="M185 1.2h-12.3l-13.3 129.6h12.2L184.9 1.2Z" fill="#F5F5F5"/><path d="M188 1.7h-37.8V3H188V1.7Z" fill="#E0E0E0"/><path d="M188 129.7h-37.8v2.4H188v-2.4Z" fill="#EBEBEB"/><path d="M151.7 1.7h35.7V132h2.1V.1h-40V132h2.2V1.7ZM187.4 132h-35.7v.1h35.7v-.1ZM52 101H35.5v28.7H52V101Z" fill="#EBEBEB"/><path d="M48.8 97v7.2H38.6V97h10.2Z" fill="#EBEBEB"/><path d="M48.8 104.2H51V102h-2.2v2Zm-4 0h2V102h-2v2Zm-4.2 0h2.1V102h-2v2Z" fill="#FAFAFA"/><path d="M36.5 104.2h2.1V102h-2.1v2Zm12.3 3.8H51v-2h-2.2v2Zm-4 0h2v-2h-2v2Z" fill="#F0F0F0"/><path d="M40.6 108h2.1v-2h-2v2Zm-4 0h2v-2h-2.1v2Z" fill="#FAFAFA"/><path d="M48.8 111.9H51v-2.1h-2.2v2.1Z" fill="#F0F0F0"/><path d="M44.7 111.9H47v-2.1h-2.2v2.1Zm-4 0h2v-2.1h-2v2.1Zm4-11H47v-2.2h-2.2v2.1Z" fill="#FAFAFA"/><path d="M40.6 100.8h2.1v-2h-2v2Zm-4 11.1h2v-2.1h-2.1v2.1Z" fill="#F0F0F0"/><path d="M48.8 115.8H51v-2.2h-2.2v2.2Z" fill="#FAFAFA"/><path d="M44.7 115.8H47v-2.2h-2.2v2.2Zm-4 0h2v-2.2h-2v2.2Z" fill="#F0F0F0"/><path d="M36.5 115.8h2.1v-2.2h-2.1v2.2Z" fill="#FAFAFA"/><path d="M48.8 119.6H51v-2.1h-2.2v2.1Z" fill="#F0F0F0"/><path d="M44.7 119.6H47v-2.1h-2.2v2.1Zm-4 0h2v-2.1h-2v2.1Z" fill="#FAFAFA"/><path d="M36.5 119.6h2.1v-2.1h-2.1v2.1Zm12.3 3.9H51v-2.2h-2.2v2.2Z" fill="#F0F0F0"/><path d="M44.7 123.5H47v-2.2h-2.2v2.2Z" fill="#FAFAFA"/><path d="M40.6 123.5h2.1v-2.2h-2v2.2Z" fill="#F0F0F0"/><path d="M36.5 123.5h2.1v-2.2h-2.1v2.2Zm12.3 3.8H51v-2.1h-2.2v2.1Zm-4 0h2v-2.1h-2v2.1Z" fill="#FAFAFA"/><path d="M40.6 127.3h2.1v-2.1h-2v2.1Zm-4 0h2v-2.1h-2.1v2.1Zm132.2-15.9H154v18.3h14.8v-18.3Z" fill="#F0F0F0"/><path d="M155.3 113.5h5.3v1.9h-5.3v-2Z" fill="#E6E6E6"/><path d="M155.3 117.2h5.3v1.8h-5.3v-1.8Z" fill="#FAFAFA"/><path d="M155.3 120.8h5.3v2h-5.3v-2Z" fill="#E6E6E6"/><path d="M155.3 124.5h5.3v2h-5.3v-2Zm6.9-11h5.3v1.9h-5.3v-2Zm0 3.7h5.3v1.8h-5.3v-1.8Z" fill="#FAFAFA"/><path d="M162.2 120.8h5.3v2h-5.3v-2Z" fill="#E6E6E6"/><path d="M162.2 124.5h5.3v2h-5.3v-2Z" fill="#FAFAFA"/><path d="M97.3 118.3H83.8v11.4h13.5v-11.4Z" fill="#F0F0F0"/><path d="M94.7 121.5h1.7v-1.7h-1.7v1.7Zm-3.4 0H93v-1.7h-1.7v1.7Zm-3.3 0h1.7v-1.7H88v1.7Zm-3.4 0h1.8v-1.7h-1.8v1.7Zm10 3.1h1.8V123h-1.7v1.7Zm-3.3 0H93V123h-1.7v1.7Zm-3.3 0h1.7V123H88v1.7Z" fill="#FAFAFA"/><path d="M84.6 124.6h1.8V123h-1.8v1.7Zm10 3.2h1.8V126h-1.7v1.8Zm-3.3 0H93V126h-1.7v1.8Z" fill="#E6E6E6"/><path d="M88 127.8h1.7V126H88v1.8Z" fill="#FAFAFA"/><path d="M84.6 127.8h1.8V126h-1.8v1.8Z" fill="#E6E6E6"/><path d="M82 110H68.3v19.7H82V110Z" fill="#F0F0F0"/><path d="M81 110.8h-5v4.9h5v-4.9Zm-6.6 0h-5.1v4.9h5v-4.9Zm6.7 6.3H76v4.9h5V117Zm-6.7 0h-5.1v4.9h5V117Zm6.7 6.3H76v4.8h5v-4.8Zm-6.7 0h-5.1v4.8h5v-4.8Z" fill="#FAFAFA"/><path d="M107 195.2c57.4 0 104-2.7 104-6 0-3.4-46.6-6.2-104-6.2S3 185.8 3 189.1c0 3.4 46.6 6 104 6Z" fill="#F5F5F5"/><path d="M211.3 8.7v118L197.1 141h-82.2V8.7h96.4Z" fill="#407BFF"/><path opacity=".8" d="M211.3 8.7v118L197.1 141h-82.2V8.7h96.4Z" fill="#fff"/><path opacity=".2" d="M197 141V127h14.3l-14 14" fill="#000"/><path opacity=".1" d="M151.3 20.1h-26.6a1.4 1.4 0 0 1 0-2.8h26.6a1.4 1.4 0 0 1 0 2.8Zm48.3 11.5h-64.1a1.4 1.4 0 0 1 0-2.9h64a1.4 1.4 0 0 1 1 2.4c-.2.3-.5.5-1 .5Zm0 5.5h-74.8a1.4 1.4 0 1 1 0-2.8h74.8a1.4 1.4 0 1 1 0 2.8Zm0 6.3h-74.8a1.4 1.4 0 0 1-1.5-1.4 1.4 1.4 0 0 1 1.5-1.4h74.8a1.4 1.4 0 1 1 0 2.8Zm0 6.3h-74.8a1.4 1.4 0 0 1 0-2.8h74.8a1.4 1.4 0 1 1 0 2.8Zm0 6.3h-74.8a1.4 1.4 0 1 1 0-2.9h74.8a1.4 1.4 0 1 1 0 2.9Zm0 6.3h-74.8a1.4 1.4 0 0 1-.6-2.8h75.4a1.4 1.4 0 1 1 0 2.8Zm0 3.4h-74.8a1.4 1.4 0 0 0 0 2.8h74.8a1.4 1.4 0 0 0 0-2.8Zm0 9.1h-74.8a1.4 1.4 0 1 1 0-2.8h74.8a1.4 1.4 0 1 1 0 2.8Zm0 6.3h-74.8a1.4 1.4 0 0 1-1.3-2 1.4 1.4 0 0 1 1.3-.8h74.8a1.4 1.4 0 1 1 0 2.8Zm0 6.3h-74.8a1.4 1.4 0 0 1 0-2.9h74.8a1.4 1.4 0 0 1 0 2.9Zm0 6.3h-74.8a1.4 1.4 0 0 1-1.5-1.5 1.4 1.4 0 0 1 1.5-1.4h74.8a1.4 1.4 0 1 1 0 2.9Zm-42.9 6.2h-32a1.4 1.4 0 1 1 0-2.8h32a1.4 1.4 0 1 1 0 2.8Z" fill="#000"/><path d="M193.8 37.6c-.4-.3-.5-.2-.7-.7v-1l-1-1.5-1.3-2.4a2.3 2.3 0 0 0-3-.9L175.5 38c0 .4-.4.7-.4 1a.7.7 0 0 0 .2.7l-.4-.1c-.8-.4-1-.7-1.7-.3l-1 .5-3.2 1.8-10 5.6-11.8 6.6-9.9 5.5c-1.3.7-3 1.4-4.1 2.3.3.2.4.5 0 .7l-.5.5c0 .1.3.1.4 0l.6-.2c-.4.6-1 1-1.6 1.5-1 .6-2.2 1-3.4 1.4l.6-.7v-.2l-.1-.1c-.3 0-.6 0-.8-.2l-5.6 3a2.3 2.3 0 0 0-.9 3.2l12.3 22a2.3 2.3 0 0 0 3 .8l3.3-1.8c0-.4.3-.8 0-1.1V90l.1-.1c.3-.2.7-.4 1.1-.4.1 0 .3 0 .3.2l.8-.4c0 .3-.2.6.2.7.3 0 .8-.6 1-.7l3.3-1.8 10.2-5.6 11.1-6.3 7.5-4.1.8-.5c0-.5.3-1 .7-1.3.5-.3 1.4 0 1.8-.5l.2-.3.6-.4.4-.2c.2 0 .3.1.3.3 1.1-.3 2.1-1 3-1.5.4-.3 3.6-1.7 3.5-2 0-.7.4-1.3.4-2 0-.1-.3-1-.1-1.1l-8.6 4.7-.5.3-.1.3-.4 1c0 .1-.6.9-.7.7-.2-.9-.5-1-1.2-.6l-1 .5-3 1.7-10 5.6-12 6.6-9.8 5.5-4.2 2.3-2.5-4.5-1.6-2.9-.7-1c-.2-.2-.6-.1-.8-.3-.5-.4-.9-1-1.3-1.5-.4-.3-.8-1.2-.7-1.7l.5.2v-1l-4.6-8.3-.1-.2 3.7-2.1 2.8-1.5 1.6-1 1-1 .9-.4 1-.5H135.8c.6.1 1.9-.9 2.4-1.1l3-1.8 9.5-5.2 11.7-6.5 11.8-6.6 9.4-5.3 4.8-2.6.3-.2 5.2 9.4c.3.6.8 1.1 1.5 1.5.2 0 .4.2.4.4s-.4.4-.3.6c0 .3.5.2.6.4.1.2-.2.5-.1.8 0 .3.2.6.4 1l1.6 2.6 2.5 4.6-9.3 5.2.1.1v.1c.3 0 .4.2.6.3a.5.5 0 0 1 .3.4.5.5 0 0 1-.3.4l-.6.3a.6.6 0 0 1-.4.5h-.2a.5.5 0 0 1-.4 0 .5.5 0 0 1-.4-.5l.1-.2v-.5h-.4c-.5.3-.9.8-1.1 1.3l.2.1v1.1c.3.3 0 1 .5.7l.1-.4.4-.4 1.3-.1 11.2-6.3a2.3 2.3 0 0 0 .8-3v-.2l-5-9-3-5.3-.8-1.5-.4-.5Z" fill="#407BFF"/><path d="M142.2 67.2c-.4-.4-.3-.5-.3-1h-.1c-.3 0-.5.1-.8.3l-5 2.7 2 3.6c-.2-.5.8-.3.8-.3l.3-.1c.1 0 .2 0 .3.2.2.3.3.8.2 1.2-.1.5.2 1-.1 1.6L142 80l5-2.7c.3-.2 1-.5 1-.8.3-.3 0-.7.3-.8a.8.8 0 0 1 .7 0 6 6 0 0 0 1-7.2c-1.5-2.5-4.6-4-7.4-2.8-.2 0 0 1-.4 1l.4-.4-.5.8Zm3.6 8.1-2.3 1.3-.6-1c.3.4-.4.3-.6.2-.3-.2-.4-.9-.4-1.2 0-.6-.2-1.3-.5-1.8l-1.6-3 2.3-1.2c2.1-1.2 4.3-.7 5.4 1.4 1.2 2 .4 4.2-1.7 5.3Zm12.7-17.2c.1.2.2.5.1.8 0 .1-.3.5-.2.6l.2.7.2.1c.9 0 .8.2.9.9 0 .6.6 1 .9 1.5a4 4 0 0 1-4.8 5.6h-.1l-.4.1a1.6 1.6 0 0 1-1.1-1.2v-.1a4 4 0 0 1-.4-.6 3.8 3.8 0 0 1 1.4-5.4c.7-.4 1.5-.5 2.3-.5-.5-.6 1.1-.9.4-1.3-.3-.2-.3-1-.4-1.3-1.2 0-2.4.4-3.4 1-3.5 1.9-4.7 5.7-2.9 9A6.3 6.3 0 0 0 156 71c.4 0 .2 0 .4-.2.2-.3 0-.4.3-.7.3-.3.7-.4.7-.9l.2.6v.1l.1.2c.2.3.5.6.5.9.8-.2 1.6-.4 2.2-.9 3.4-1.9 4.7-5.7 2.8-8.9-.9-1.6-2.7-3.1-4.6-3.2Zm11-7.5 3.7 6.6-9.1-3.6-2.1 1.2c1.4 2.5 2.9 5 4.2 7.6.1-.3.3-.4.6-.4.4 0 .4.2.7.7h.4l.1.2-.1.3c-.2.3 0 .5 0 .7l-.4.8.6 1 2.5-1.4-.7-1.2h-.1c-.8 0-.4-.9-.6-1.3l-.9-1.6-1.4-2.5 7.3 2.9.1-.7.5-.4c0 .4.2.7.5.9.3.3.3.2.2.7l.5.1 2-1.1-6-10.9-2.5 1.4Zm12.5 4.7-1.4-2.5 5-2.9-1-2-5.1 2.9-1.3-2.4 3.4-1.9.5-.4h.4l1.4-.9-1.1-2c-.5.3 0 .9-.5 1.2.1 0 .3.5 0 .5l-.4-.2-.2.1h-.1c0-.2-.2-.4-.3-.5-.3-.4-3.4 1.7-3.8 2l-2.9 1.5 6 10.9 2.5-1.3v-.1l.6-.7a.5.5 0 0 1 .5 0h.2L189 54l-1.2-2-6 3.3Zm6.4 115.6s-3.5-7.7.5-15.3c4-7.6 5.2-9.4 2.7-11-2.6-1.5-3.8 6.1-3.8 6.1s-2.2-5.2-.4-10.7c1.8-5.5 3-14.4.5-15.4s-.5 11.2-2.6 15.3c-1-2.9-1.8-6-2-9-.4-4.4.1-11.4-1.8-13.2-2-1.8-3.2-.6-1.3 9.1a102 102 0 0 1 1.9 17.7s-4.2-12.8-7-13.2c-2.8-.3-2.8 3.8-.4 7.4 2.4 3.6 7 10 7.8 13.3 0 0-4.6-9.6-8.7-6.7-4.2 3 3.6 8.8 7 10.9 3.4 2 5.8 15.2 5.8 15.2l1.8-.5Z" fill="#407BFF"/><path opacity=".2" d="M188.4 170.9s-3.5-7.7.5-15.3c4-7.6 5.2-9.4 2.7-11-2.6-1.5-3.8 6.1-3.8 6.1s-2.2-5.2-.4-10.7c1.8-5.5 3-14.4.5-15.4s-.5 11.2-2.6 15.3c-1-2.9-1.8-6-2-9-.4-4.4.1-11.4-1.8-13.2-2-1.8-3.2-.6-1.3 9.1a102 102 0 0 1 1.9 17.7s-4.2-12.8-7-13.2c-2.8-.3-2.8 3.8-.4 7.4 2.4 3.6 7 10 7.8 13.3 0 0-4.6-9.6-8.7-6.7-4.2 3 3.6 8.8 7 10.9 3.4 2 5.8 15.2 5.8 15.2l1.8-.5Z" fill="#000"/><path d="M185.6 174s3.5-7.7-.7-15.2c-4-7.6-5.3-9.3-2.7-11 2.5-1.5 3.8 6 3.8 6s2.1-5.2.3-10.6c-1.9-5.5-3.1-14.4-.7-15.4 2.4-1 .6 11.1 2.8 15.2 1-2.9 1.7-6 2-9 .2-4.4-.4-11.4 1.5-13.3 2-1.8 3.2-.6 1.4 9.2-1 5.8-1.6 11.7-1.7 17.6 0 0 4-12.8 6.9-13.2 2.8-.4 2.8 3.7.5 7.3-2.4 3.7-7 10.1-7.7 13.4 0 0 4.5-9.6 8.7-6.8 4.1 3-3.5 8.9-7 11-3.3 2.1-5.6 15.3-5.6 15.3l-1.8-.5Z" fill="#407BFF"/><path d="M201.5 168.5H173l2.3 20.3h23.8l2.3-20.3Z" fill="#263238"/><path d="M56.4 40.9H37.7a2.7 2.7 0 0 0-2.7 2.7v18.2a2.7 2.7 0 0 0 2.7 2.7h6l-4 5.5 7-5.5h9.7a2.7 2.7 0 0 0 2.7-2.7V43.6a2.7 2.7 0 0 0-2.7-2.7Z" fill="#407BFF"/><path opacity=".6" d="M56.4 40.9H37.7a2.7 2.7 0 0 0-2.7 2.7v18.2a2.7 2.7 0 0 0 2.7 2.7h6l-4 5.5 7-5.5h9.7a2.7 2.7 0 0 0 2.7-2.7V43.6a2.7 2.7 0 0 0-2.7-2.7Z" fill="#fff"/><path d="M47 61.2a8.5 8.5 0 1 0 0-17 8.5 8.5 0 0 0 0 17Z" fill="#407BFF"/><path opacity=".2" d="M54.1 54.4A7.3 7.3 0 1 0 40 51 7.3 7.3 0 0 0 54 54.4Z" fill="#000"/><path d="M46.2 56.2a.8.8 0 0 1-.6-.2l-3-3a.7.7 0 1 1 1-1.1l2.5 2.5 4.4-5a.7.7 0 1 1 1.1 1L46.7 56a.7.7 0 0 1-.5.3Z" fill="#fff"/><path d="m22.8 176.6 15.4-1.5v-17.4h6.2V175l15.5 1.5a3 3 0 0 1 2.7 3v2.3H20v-2.3a3 3 0 0 1 2.7-3Z" fill="#263238"/><path opacity=".1" d="m22.8 176.6 15.4-1.5v-17.4h6.2V175l15.5 1.5a3 3 0 0 1 2.7 3v2.3H20v-2.3a3 3 0 0 1 2.7-3Z" fill="#fff"/><path d="M61 188.8a4 4 0 1 0 0-8 4 4 0 0 0 0 8Zm-39.3 0a4 4 0 1 0 0-8 4 4 0 0 0 0 8Zm21.5-26.5h-3.8a2.2 2.2 0 0 1-2.2-2.2V143h8.2v17.1a2.2 2.2 0 0 1-2.2 2.2Z" fill="#263238"/><path opacity=".2" d="M43.2 162.3h-3.8a2.2 2.2 0 0 1-2.2-2.2V143h8.2v17.1a2.2 2.2 0 0 1-2.2 2.2Z" fill="#fff"/><path d="M20 109.4s4.5 28.7 13.6 33.6h-9.2s-9.1-9.8-11.9-33.6h7.4Z" fill="#263238"/><path opacity=".1" d="M20 109.4s4.5 28.7 13.6 33.6h-9.2s-9.1-9.8-11.9-33.6h7.4Z" fill="#fff"/><path d="M24 139h35.8a2.7 2.7 0 0 1 2.7 2.6v3.6H21.2v-3.6A2.7 2.7 0 0 1 24 139Z" fill="#407BFF"/><path d="M63.1 142H20.6a1 1 0 0 0-1.1 1.2v1c0 .5.5 1 1 1h42.6c.6 0 1-.5 1-1v-1c0-.6-.4-1.1-1-1.1Z" fill="#263238"/><path opacity=".6" d="M63.1 142H20.6a1 1 0 0 0-1.1 1.2v1c0 .5.5 1 1 1h42.6c.6 0 1-.5 1-1v-1c0-.6-.4-1.1-1-1.1Z" fill="#fff"/><path d="M11.4 115.3h14.7c4.4 0 7.2-3.5 6.3-7.8l-1.1-5.7a10 10 0 0 0-9.4-7.7H7.2c-4.4 0-7.2 3.5-6.3 7.7l1.1 5.7a10 10 0 0 0 9.4 7.8Z" fill="#407BFF"/><path d="m89.6 163.2-3.4 1.3-2.4-4.6-2.2-4.1 3.7-2.3 2.3 5.1 2 4.6Z" fill="#E4897B"/><path opacity=".2" d="m87.6 158.6-3.8 1.3-2.2-4.1 3.7-2.3 2.3 5.1Z" fill="#000"/><path d="m86.9 156.1-4.6 2.5s-17.4-30.5-20-30.3c-2.7.3-28 16.4-35.7 10.5-7.8-6-.3-24-.3-24s16-4.5 17.7-1a26.2 26.2 0 0 1 1.8 5.2c.5-.2 16.2-6.6 23.3-3.2 7.2 3.6 17.8 40.3 17.8 40.3Z" fill="#263238"/><path opacity=".3" d="m86.9 156.1-4.6 2.5s-17.4-30.5-20-30.3c-2.7.3-28 16.4-35.7 10.5-7.8-6-.3-24-.3-24s16-4.5 17.7-1a26.2 26.2 0 0 1 1.8 5.2c.5-.2 16.2-6.6 23.3-3.2 7.2 3.6 17.8 40.3 17.8 40.3Z" fill="#fff"/><path d="m62 181-3.7-.4V171l4.4-.2-.4 5.5-.4 4.8Z" fill="#E4897B"/><path opacity=".2" d="m62.3 176.3-4-.7V171l4.4-.2-.4 5.6Z" fill="#000"/><path d="m80 157 6.8-3.3.7 2.9-5.1 2.6-2.4-2.1Z" fill="#407BFF"/><path d="m38.5 138.8 18-3.3s.5 21.8 1.3 38l5.2.1s7.5-35.9 6.6-41.3c-.9-5.5-7.3-6.2-7.3-6.2s-11.2 8.7-23.8 12.7Z" fill="#263238"/><path opacity=".4" d="m38.5 138.8 18-3.3s.5 21.8 1.3 38l5.2.1s7.5-35.9 6.6-41.3c-.9-5.5-7.3-6.2-7.3-6.2s-11.2 8.7-23.8 12.7Z" fill="#fff"/><path opacity=".3" d="m38.5 138.8 18-3.3s.5 21.8 1.3 38l5.2.1s7.5-35.9 6.6-41.3c-.9-5.5-7.3-6.2-7.3-6.2s-11.2 8.7-23.8 12.7Z" fill="#000"/><path d="m56.8 172 7.1-.2-1 3h-5.7l-.4-2.8Z" fill="#407BFF"/><path opacity=".3" d="m45.8 119-9.3 3.3s4.9-3.6 8.7-5.3l.6 2Z" fill="#000"/><path d="m25.3 113.8.3 2.5 17.4-3.7-.4-3-17.3 4.2Z" fill="#263238"/><path opacity=".2" d="m25.3 113.8.3 2.5 17.4-3.7-.4-3-17.3 4.2Z" fill="#000"/><path d="m31 111.9-.9.1.9 4.5.8-.2-.8-4.4Z" fill="#263238"/><path d="m38.6 110.8-3.8.8.6 2.9 3.8-.8-.6-3Z" fill="#fff"/><path d="m41 109-.9.2.9 4.3.8-.1-.8-4.4Z" fill="#263238"/><path opacity=".3" d="m31 111.9-.9.1.9 4.5.8-.2-.8-4.4Zm10-3-.9.3.9 4.3.8-.1-.8-4.4Z" fill="#fff"/><path d="M96.3 169.2c-.6-.2-1.1-.3-1.7-.2 0 0-2.2-1-4.8-5.3l-2.3.3a1.9 1.9 0 0 0-1.6 1.5v.3l.4 1.6 2 5.1.5-.1-1.2-3.3c-.4-1 1-.1 1.7 1 .7 1 1.7 2 4 1.1 2.9-1 4-1.6 3-2Z" fill="#263238"/><path d="M89.2 162.6s3.6 5.5 5.4 6.4c0 0-2 1.6-4.7-1-3.4-3.3-4-2.2-4-2.2l.1-2c.3-1.2 3.2-1.2 3.2-1.2Z" fill="#E4897B"/><path d="M67.3 187.4c-.5-.3-1-.5-1.6-.6 0 0-2-1.4-3.5-6.2l-2.2-.3a1.8 1.8 0 0 0-2 1.4v1.7c.2 1.8.4 3.6.8 5.4h.4l-.4-3.5c0-1.2 1 0 1.5 1.3.4 1.2 1.1 2.5 3.7 2.1 3-.4 4.2-.7 3.3-1.3Z" fill="#263238"/><path d="M62 179.3s2.2 6.2 3.7 7.5c0 0-2.3 1.1-4.3-2-2.5-4-3.4-3-3.4-3l.6-2c.5-1.1 3.4-.5 3.4-.5ZM21.5 70l-4.6.9a1.5 1.5 0 0 1-1.2.3 9.2 9.2 0 0 1-3.6-2.7c-.3-.8 0-3.2 1-3.6 1-.4 4.2 3.6 4.2 3.6l4.9-1.1-.7 2.6Z" fill="#E4897B"/><path d="M35.8 85s-.4-14.6-2.1-15.3C32 69.1 19.2 71 19.2 71l-.3-3.4s14.9-2.3 17.7-1c3 1.4 3.9 23.3 3.3 27.5l-4.1-9Z" fill="#407BFF"/><path opacity=".6" d="M35.8 85s-.4-14.6-2.1-15.3C32 69.1 19.2 71 19.2 71l-.3-3.4s14.9-2.3 17.7-1c3 1.4 3.9 23.3 3.3 27.5l-4.1-9Z" fill="#fff"/><path d="m19.4 71.2-.9-3.7 1.3-.5.8 4.3-1.2-.1Z" fill="#407BFF"/><path opacity=".7" d="m19.4 71.2-.9-3.7 1.3-.5.8 4.3-1.2-.1Z" fill="#fff"/><path d="M35.7 83.2s-1.1 4.5-6.6 6c-5.5 1.3-11.6-2.4-11.6-2.4l1.2 10.7 6.7 16.8 17.2-4.5s-1-19.5-6.9-26.6Z" fill="#407BFF"/><path opacity=".7" d="M35.7 83.2s-1.1 4.5-6.6 6c-5.5 1.3-11.6-2.4-11.6-2.4l1.2 10.7 6.7 16.8 17.2-4.5s-1-19.5-6.9-26.6Z" fill="#fff"/><path opacity=".6" d="m38.7 101 2-.7c.2 0 .4-.3.3-.5L39.8 96a.4.4 0 0 0-.5-.3l-2 .6a.4.4 0 0 0-.3.6l1.2 3.8c0 .2.3.3.5.3Z" fill="#407BFF"/><path opacity=".2" d="m38.3 99.8 2.3-.7-1-3.2-2.3.8 1 3Z" fill="#000"/><path d="m38.2 94.8-.5.2.6 1.8.5-.1-.6-1.9ZM24 66.5c-4.2 0-7 4.5-6 11.6 1 7.2 5 9.2 5 9.2l-.3-1.7c4.4 1 9 1.3 13.4.8 0 0-2-5.9-1.4-11.8 0 0 1.4-8-10.7-8Z" fill="#263238"/><path opacity=".2" d="m32.4 87.7 1.8 6.4-3-2.3s2.9 6.8 3.7 10.7c0 0-2.6-6.7-4.8-10.4l-1.3 3.7-5.2-5.3s4.6-3.5 8.8-2.8Z" fill="#000"/><path d="m29.9 89.8-5.3.1c2.4-3-1.9-8.2-1.9-8.2l5.3 1.1c1.2 5.2 3.4 5.3 3.4 5.3l-1.5 1.6Z" fill="#E4897B"/><path opacity=".2" d="M29.4 86.5a8 8 0 0 1-5.2-2.6 16 16 0 0 0-1.5-2.2l5.3 1.1a12 12 0 0 0 1.4 3.7Z" fill="#000"/><path d="M28 68.7c4.5.4 5.8 3 5.7 7.7 0 5.9-1.7 10-7.3 8.2-7.6-2.3-6-16.5 1.6-15.9Z" fill="#E4897B"/><path d="m30.8 75.9 1.1 2a1.3 1.3 0 0 1-1.2.4v-2.4Z" fill="#DE5753"/><path d="m27.7 75.1 1-.3s-.5.8-1 .3Z" fill="#263238"/><path d="M28 75a.8.8 0 0 0-1 .3 1.3 1.3 0 0 1 1 0V75Zm-1.8-2.2a.2.2 0 0 1-.1-.3 2.6 2.6 0 0 1 2.2-.6.2.2 0 0 1 .1.3.2.2 0 0 1-.2.1 2.2 2.2 0 0 0-2 .5Zm7.2.1h-.2a2 2 0 0 0-1.7-.5.2.2 0 0 1 0-.3.2.2 0 0 1 0-.1 2.3 2.3 0 0 1 2 .6.2.2 0 0 1 0 .3.2.2 0 0 1-.1 0Z" fill="#263238"/><path d="M22.3 76s2.4-3.6 2.4-6.5c0 0 9.3-3 9 6.3 0 0 1.5-8-6.3-9-7.8-.8-8.7 10.7-5 14.4 0 0-1.6-3 0-5.2Z" fill="#263238"/><path d="M23 77a2 2 0 0 0-2-2c-1.4 0-2.3 2.9 1.1 3.9.5 0 .8-.4.9-2Z" fill="#E4897B"/><path d="m30.8 79.6-1 1.5-.2-.1c-1.3-.5-1.7-1.1-1.8-1.7v-.8l.2-.4c.8.7 1.7 1.3 2.8 1.5Z" fill="#263238"/><path d="m30.3 79.5-.3.4c-1.1-.4-2-.9-2.2-1.4l.2-.4c.7.6 1.5 1 2.3 1.4Z" fill="#fff"/><path d="M29.6 81c-1.3-.5-1.7-1.1-1.8-1.7l1.3.8c.2.2.4.5.5.9Z" fill="#DE5753"/><path d="M27.8 69s-2.4 7.4-7.1 6.9c-4.7-.5 3.3-9.4 3.3-9.4s8-2.3 11.4 2.2c3.5 4.4-1.7 7-1.7 7s.8-5.7-5.9-6.7Z" fill="#263238"/><path d="M24 75.3a.1.1 0 0 1 0-.3c3.8-1.4 3.7-6.4 3.7-6.5v-.1h.2v.1s.1 5.3-3.8 6.8Zm8.3.3 1-.3s-.5.7-1 .3Z" fill="#263238"/><path d="M32.7 75.5a.8.8 0 0 0-1.1.3 1.3 1.3 0 0 1 1 0v-.3Z" fill="#263238"/><path d="m25.4 87.7 4 2-.1 4.1-5.7-3.3 1.8-2.8ZM30 87l.2 2.4 2.6 2.8-.4-4.5L30 87Z" fill="#407BFF"/><path d="M11.6 59.3 9.9 55a1.5 1.5 0 0 0-.4-1.3 9.3 9.3 0 0 0-4.2-1.5c-.9 0-2.7 1.7-2.5 2.7.1 1 5.2 1.7 5.2 1.7l1.7 4.7 1.9-2Z" fill="#E4897B"/><path d="M18.7 97.5s3.2-2.6 2-8.2l-3.5-15.6-6-16.2L8.4 59s4.8 15.8 5.3 16.8c.2.5 1.1 8.7 2.4 14.2 1.1 5 2.6 7.5 2.6 7.5Z" fill="#407BFF"/><path opacity=".6" d="M18.7 97.5s3.2-2.6 2-8.2l-3.5-15.6-6-16.2L8.4 59s4.8 15.8 5.3 16.8c.2.5 1.1 8.7 2.4 14.2 1.1 5 2.6 7.5 2.6 7.5Z" fill="#fff"/><path d="m7.8 58.5 3.4-1.7.8 1.2-4 1.7-.2-1.2Z" fill="#407BFF"/><path opacity=".7" d="m7.8 58.5 3.4-1.7.8 1.2-4 1.7-.2-1.2Z" fill="#fff"/><path opacity=".6" d="m25.4 87.7 4 2-.1 4.1-5.7-3.3 1.8-2.8ZM30 87l.2 2.4 2.6 2.8-.4-4.5L30 87Z" fill="#fff"/><path d="M143 79.3h-16v12.5h16V79.3Z" fill="#fff"/><path opacity=".1" d="M143 79.3h-4v12.5h4V79.3Z" fill="#000"/><path d="M126 102.8h18.2V80.2h-5.8L126 86v16.7Z" fill="#407BFF"/><path opacity=".2" d="M144.2 80.2h-5.8v22.6h5.8V80.2Z" fill="#000"/><path opacity=".7" d="M136.4 90.5H128v4.1h8.5v-4Zm0 5.5H128v.5h8.5V96Zm7.3 1.7h-4.8v3.4h4.8v-3.4Z" fill="#fff"/><path d="M136.2 78.6h-16v13.2h16V78.6Z" fill="#fff"/><path opacity=".1" d="M136.2 78.6h-4v13.2h4V78.6Z" fill="#000"/><path d="M119.3 102.8h18.1V80.2h-5.8L119.3 86v16.7Z" fill="#407BFF"/><path opacity=".2" d="M137.4 80.2h-5.8v22.6h5.8V80.2Z" fill="#000"/><path opacity=".7" d="M129.6 90.5h-8.5v4.1h8.5v-4Zm0 5.5h-8.5v.5h8.5V96Zm7.2 1.7h-4.7v3.4h4.7v-3.4Z" fill="#fff"/><path d="M108 188.8h3.3l5.9-82.2h-4.4l-4.8 82.2Z" fill="#263238"/><path opacity=".1" d="M108 188.8h3.3l5.6-78 .3-4h-4.4l-.2 4-4.6 78Z" fill="#fff"/><path opacity=".2" d="M112.6 110.5h4.3l.3-3.7h-4.4l-.2 3.7Z" fill="#000"/><path d="M83.9 188.8h3.3l.5-82.2h-4.4l.6 82.2Z" fill="#263238"/><path opacity=".1" d="m83.3 106.8.1 13.2.5 68.8h3.3l.4-68.8v-13.2h-4.3Z" fill="#fff"/><path opacity=".2" d="m83.3 106.8.1 13.4h4.2v-13.4h-4.3Z" fill="#000"/><path d="M49 188.8h3.3l5.9-82.2h-4.4L49 188.9Z" fill="#263238"/><path opacity=".1" d="M49 188.8h3.3l5.6-78 .3-4h-4.4l-.2 4-4.6 78Z" fill="#fff"/><path opacity=".2" d="M53.6 110.5h4.3l.3-3.7h-4.4l-.2 3.7Z" fill="#000"/><path d="M145.5 188.8h3.3l-4.8-82.2h-4.4l6 82.2Z" fill="#263238"/><path opacity=".1" d="m139.6 106.8.3 4 5.6 78h3.3l-4.6-78-.2-4h-4.4Z" fill="#fff"/><path opacity=".2" d="M144 106.8h-4.4l.3 3.7h4.3l-.2-3.7Z" fill="#000"/><path d="M146.3 108.7H51.5a1.1 1.1 0 0 1-1-.7l-.1-.5v-2.9h97v3a1.2 1.2 0 0 1-1.1 1.1Z" fill="#407BFF"/><path opacity=".4" d="M146.3 108.7H51.5a1.1 1.1 0 0 1-1-.7l-.1-.5v-2.9h97v3a1.2 1.2 0 0 1-1.1 1.1Z" fill="#fff"/><path opacity=".2" d="M50.4 106.7h97v-2.1h-97v2Z" fill="#000"/><path d="M48.4 105.1h101a1.1 1.1 0 0 0 1.2-1.1 1.1 1.1 0 0 0-1.1-1.2H48.3a1.2 1.2 0 0 0-1 1.4 1.2 1.2 0 0 0 1 1Z" fill="#407BFF"/><path opacity=".4" d="M48.4 105.1h101a1.1 1.1 0 0 0 1.2-1.1 1.1 1.1 0 0 0-1.1-1.2H48.3a1.2 1.2 0 0 0-1 1.4 1.2 1.2 0 0 0 1 1Z" fill="#fff"/><path d="M127.8 102.8V101h1.2l-1.3-.7h1l-1.2-.8h-1.2v-1h1.3l-1.3-.5v-2h1.3v-1.2h1.4l-1.4-.5v-.9h1l-.8-.8-.7-.6h-20.7v.9H105l1.6.7v.7h-2.8v1.5h-1.3l1.3.6V98h.9v.7h1.7v2.3h-1l.8.8v1h21.5Z" fill="#407BFF"/><path opacity=".7" d="M127.8 102.8V101h1.2l-1.3-.7h1l-1.2-.8h-1.2v-1h1.3l-1.3-.5v-2h1.3v-1.2h1.4l-1.4-.5v-.9h1l-.8-.8-.7-.6h-20.7v.9H105l1.6.7v.7h-2.8v1.5h-1.3l1.3.6V98h.9v.7h1.7v2.3h-1l.8.8v1h21.5Z" fill="#fff"/><path opacity=".1" d="M127.8 102.8V101h1.2l-1.3-.7h1l-1.3-.8h-1.1v-1h1.3l-1.3-.5v-2h1.3v-1.2h1.4l-1.4-.5v-.9h1l-.8-.8-.7-.6h-10.9v.9h-1.4l1.6.7v.7h-2.8v1.5h-1.3l1.3.6V98h.9v.7h1.7v2.3h-1l.8.8v1h11.8Z" fill="#000"/><path opacity=".1" d="M106.6 94.3h9.8l-9.8-.3v.3Zm-.2 4.4h9.8v.7l-9.8-.7Zm-1.7-.7h9.8l-9.8.3V98Zm1.7 3h9.8l-9.8-.4v.4Zm-.2.8h9.8v.4l-9.8-.4Zm-2.4-6h9.8l-9.8-.3v.3Zm2.6-3h9.8l-9.8-.3v.4Zm21.2.6h-10l10 .3v-.3Zm-11.2 1h11.2l-10.2.3-1-.4Zm-2.8 1.3 14 .4v-.3h-14Zm0 .7h7l-7 .3v-.3Zm12.7 1.6h-10l10-.3v.3Zm0 .6H116l10.3.3v-.3Zm1.5 1.7h-11.4v.3l11.3-.3Zm0 .7h-8.3l8.3.2v-.2Z" fill="#000"/><path d="M101.4 100.5v1.7c0 .4-.6.6-1 .6H66c-.4 0-1-.2-1-.6v-1.7h36.4Z" fill="#263238"/><path opacity=".4" d="M101.4 100.5v1.7c0 .4-.6.6-1 .6H66c-.4 0-1-.2-1-.6v-1.7h36.4Z" fill="#fff"/><path opacity=".2" d="M101.4 100.5v1.7c0 .4-.6.6-1 .6H77.7c-.4 0-1-.2-1-.6v-1.7h24.7Z" fill="#000"/><path d="m107.1 82.6-4 18.6a1.4 1.4 0 0 1-1.4 1H79.4a1 1 0 0 1-.8-.3 1 1 0 0 1 0-.8l4-18.4a1.3 1.3 0 0 1 1.3-1h22.4c.6 0 1 .3.8 1v-.1Z" fill="#263238"/><path opacity=".4" d="m107.1 82.6-4 18.6a1.4 1.4 0 0 1-1.4 1H80.1a.9.9 0 0 1-.8-1.1l4-18.4a1.3 1.3 0 0 1 1.4-1h21.6c.6 0 1 .3.8 1v-.1Z" fill="#fff"/><path opacity=".2" d="M96.1 92c0 1.6-1.7 3-3 3-1.2 0-2-1.4-1.5-3 .3-1.5 1.6-2.8 2.8-2.8-.4 1.6.4 2.8 1.6 2.8h.1Z" fill="#000"/></g><defs><clipPath id="a"><path fill="#fff" d="M0 0h211v195H0z"/></clipPath></defs></svg>