<svg fill="none" xmlns="http://www.w3.org/2000/svg" viewBox="0 0 410 440"><path d="M18.42 384.6.45 409l30.26 22.52c2-3-9.37-20.48-9.37-20.48l12.16-15.16-15.08-11.28Z" fill="#455A64"/><path d="M13 402.78a1.52 1.52 0 0 0-1.9.77 1.49 1.49 0 0 0 .75 1.9 1.62 1.62 0 0 0 2-.83 1.54 1.54 0 0 0-1-1.89" fill="#fff"/><path d="m.4 409.06 1.92-2.62 28.27 22.76s.9 1.6 0 2.43L.4 409.06Z" fill="#263238"/><path d="M22 411.26c-.11.15-.9-.33-2-.4s-1.93.27-2 .11c-.07-.16.77-.85 2.07-.75 1.3.1 2 .93 1.93 1.04Z" fill="#263238"/><path d="M24.14 414.94c-.08.17-.9-.06-1.87.19-.97.25-1.6.81-1.75.69-.15-.12.4-1 1.6-1.31 1.21-.31 2.12.29 2.02.43Z" fill="#263238"/><path d="M23.12 420.08c-.16-.07.19-1 1.17-1.49s1.9-.33 1.88-.16c-.03.17-.78.28-1.57.73-.8.45-1.32 1.01-1.48.92Z" fill="#263238"/><path d="M24.33 407.5c-.17.09-.69-.62-1.57-1.18-.88-.56-1.72-.79-1.7-1 0-.21 1-.25 2.05.43 1.06.68 1.38 1.69 1.22 1.75Z" fill="#263238"/><path d="M91.57 282.46c.54 3.06 1.4 29.09 1.95 42.82s-.82 20.48-2.39 23.56c-1.57 3.08-60.78 46.7-65.29 57.16l-15-12.1s22-39.48 31.38-46.66c9.38-7.18 27.43-13.77 27.43-13.77l-5.13-75.2 24.6-1.33 2.45 25.52Z" fill="#263238"/><path d="M36.55 408.73 36.29 439l37.7.52c-.16-3.6-19.57-11.11-19.57-11.11l1-19.41-18.87-.27Z" fill="#455A64"/><path d="M42.78 426.66a1.54 1.54 0 0 0-1.1 1.74 1.5 1.5 0 0 0 1.73 1.1 1.63 1.63 0 0 0 1.14-1.85 1.53 1.53 0 0 0-1.91-.94" fill="#fff"/><path d="M36.27 439.11v-3.25l36.25 1.88s1.66.77 1.45 1.95l-37.7-.58Z" fill="#263238"/><path d="M55 428.27c0 .19-.93.26-1.84.84s-1.41 1.34-1.58 1.27c-.17-.07.12-1.14 1.24-1.82 1.12-.68 2.26-.46 2.18-.29Z" fill="#263238"/><path d="M59 430c0 .18-.78.48-1.4 1.25-.64.77-.84 1.6-1 1.58-.18-.02-.3-1.05.51-2S59 429.79 59 430Z" fill="#263238"/><path d="M61.14 434.73c-.17 0-.4-.9.07-1.9.48-1 1.36-1.38 1.43-1.23.07.15-.46.69-.85 1.52-.39.83-.47 1.59-.65 1.6Z" fill="#263238"/><path d="M54.76 423.82c-.08.17-.92-.1-2 0s-1.86.37-2 .21c-.14-.16.69-.8 1.92-.85 1.23-.05 2.17.5 2.08.64Z" fill="#263238"/><path d="M94.3 253.83c0 1.77 2.87 46.58-11.78 79 0 0-5.07 10.14-6 14.57-.93 4.43-19.88 77.91-19.88 77.91l-21.9-.8s-3.5-36.81 0-58.12c3.5-21.31 10-18.81 10-32.57 0-13.76-3.27-42.29-3.27-42.29s-4.78-7.79-6.41-22.9c-1.33-12.27 4.45-25.42 4.45-25.42l5.7-10.11 48.32-2.53.77 23.26Z" fill="#263238"/><path d="M94.3 253.83v-1.53c0-1.01-.06-2.51-.1-4.48l-.42-17.29v-.11h-.12l-48.31 2.46h-.1l-.06.09-5.72 10.11a64.7 64.7 0 0 0-3.47 11.1c-.91 4-1.32 8.1-1.21 12.19.3 4.28.97 8.52 2 12.69.99 4.37 2.54 8.6 4.63 12.57v-.1c.83 7.46 1.6 15.19 2.25 23.15.32 4 .6 8 .8 12.11.1 2 .18 4.1.19 6.17 0 1 0 2.07-.06 3.1a20.23 20.23 0 0 1-2.53 8.94c-1 1.87-2 3.72-3 5.67a53.32 53.32 0 0 0-3.93 12.4c-1.74 8.6-2.1 17.54-2.2 26.55 0 11.89.57 23.57 1.55 34.86v.24h.23l21.9.8h.2l.06-.21c6.35-24.61 12.27-47.61 17.49-68.29l1.89-7.65c.33-1.27.54-2.53.93-3.73.39-1.2.83-2.39 1.29-3.55.94-2.32 2-4.57 3-6.76l.78-1.63c.27-.53.52-1.08.74-1.64l1.35-3.29a132.68 132.68 0 0 0 6.9-24.93 216.82 216.82 0 0 0 3.3-36.74c.07-8.62-.28-13.3-.28-13.3v.86a198.42 198.42 0 0 1 .06 12.44c-.1 12.3-1.21 24.59-3.33 36.71a132.6 132.6 0 0 1-7 24.84l-1.34 3.27c-.22.56-.47 1.09-.74 1.63l-.8 1.64c-1 2.19-2.05 4.44-3 6.77a52.5 52.5 0 0 0-1.3 3.58c-.4 1.22-.62 2.51-.94 3.75l-1.91 7.65-17.55 68.27.26-.19-21.9-.81.26.24c-1-11.27-1.58-22.94-1.54-34.81.1-9 .45-17.9 2.18-26.44a53.5 53.5 0 0 1 3.89-12.29c.9-1.93 2-3.76 3-5.66 1-1.88 1.72-3.9 2.12-6 .18-1.04.32-2.1.39-3.15 0-1 .1-2.1.06-3.13 0-2.08-.1-4.15-.2-6.2-.2-4.1-.48-8.14-.81-12.12a775 775 0 0 0-2.27-23.17v-.06A51 51 0 0 1 37.2 279a75.55 75.55 0 0 1-2-12.6 49.1 49.1 0 0 1 1.18-12.08c.8-3.76 1.94-7.44 3.39-11l5.7-10.12-.16.1 48.3-2.61-.12-.11.54 17.28.16 4.48c.04 1.02.1 1.49.1 1.49Z" fill="#455A64"/><path d="M78.59 162.07s-13-2.3-11.8 14.43c.77 10 3.7 27.16 5.34 38.11.56 3.79 1.8 10.57 6.8 14.55l35.9 24.84 11.34-13.55-32.06-30.53-5-30.2-10.52-17.65Z" fill="#455A64"/><path d="M80.11 101.77a16.46 16.46 0 0 1 6.1 13.92c-.2 2.56-.9 5.47.76 7.42 1.67 1.95 4.87 1.88 6.45 3.86 1.85 2.34.3 5.82 1 8.73a5.92 5.92 0 0 0 6.3 4.39 23.1 23.1 0 0 1-11.45 5L86 141c1.22 1.44.9 3.73-.28 5.2A9.7 9.7 0 0 1 81 149a29.3 29.3 0 0 1-25.65-4.17" fill="#263238"/><path d="M32.09 124.34c.64-2 1.72-3.77 2.15-5.78.92-4.33-1.2-9.21.9-13.11 1.5-2.77 4.69-4.13 7.7-5.06 3.03-.93 6.25-1.71 8.5-3.92 1.64-1.62 2.58-3.86 4.22-5.48 2.34-2.32 5.8-3.11 9.08-3.31 3.38-.33 6.8.23 9.9 1.61a10.82 10.82 0 0 1 6.1 7.63c.27 1.62.07 3.33.59 4.9.56 1.72 1.9 3.06 2.75 4.67a8.68 8.68 0 0 1-2.17 10.4l-23.18 29.94c-4.87 1.84-16.67-.38-20.43-4-3.76-3.62-7.72-13.54-6.11-18.49Z" fill="#263238"/><path d="M81.2 113.09c-1-6.8-6.13-14.83-12.88-13.59l-20.84 7c-2 .38-.58 3.73-.38 5.8l4.53 47s-2.82 2-3.82 1.62a.29.29 0 0 0-.33.1.29.29 0 0 0-.01.33C50 165 61.79 180.87 74 176c2.72-1.09-.3-9.66 0-12.83l-.36-8.11c-.27-4.14-.4-5.84-.4-5.8 0 .04 8.62-2.12 9.55-13.65.47-5.71-.53-14.97-1.6-22.52Z" fill="#FFBF9D"/><path d="M79.74 123.55a1.47 1.47 0 0 1-1.3 1.58 1.4 1.4 0 0 1-1.6-1.2 1.47 1.47 0 0 1 1.3-1.58 1.4 1.4 0 0 1 1.6 1.2Z" fill="#263238"/><path d="M65.55 124.44a1.46 1.46 0 0 1-1.3 1.58 1.4 1.4 0 0 1-1.6-1.2 1.47 1.47 0 0 1 1.3-1.58 1.4 1.4 0 0 1 1.6 1.2Z" fill="#263238"/><path d="M80.27 118.73c-.16.27-1.52-.59-3.22-.34-1.7.25-2.79 1.41-3 1.2-.21-.21 0-.56.49-1.09a3.89 3.89 0 0 1 5-.69c.56.39.81.8.73.92Z" fill="#263238"/><path d="M65 120c-.2.25-1.54-.72-3.37-.64-1.83.08-3.13 1.11-3.34.88-.2-.23.1-.54.66-1a4.37 4.37 0 0 1 5.35-.19c.57.41.78.83.7.95Z" fill="#263238"/><path d="M70.73 130.77a9.9 9.9 0 0 1 2.52-.66c.39-.07.77-.18.8-.46a2 2 0 0 0-.35-1.17l-1.42-3c-2-4.23-3.45-7.71-3.28-7.79.17-.08 1.92 3.28 3.9 7.5.48 1.05.94 2 1.37 3 .29.46.4 1.02.33 1.56a1 1 0 0 1-.61.64c-.22.07-.44.12-.67.14a11 11 0 0 1-2.6.24Z" fill="#263238"/><path d="M73.24 149.28c-5.36.5-10.74-.51-15.56-2.9 0 0 4.45 7.7 15.76 5.76l-.2-2.86Z" fill="#FF9A6C"/><path d="M65.94 135.35c.18-.4.45-.74.8-1a2 2 0 0 1 1.36-.13c.68.1 1.3.41 1.78.9a1.9 1.9 0 0 1 .45 1.88c-.18.66-1.16 1-1.83 1.14a3 3 0 0 1-2-.41 1.74 1.74 0 0 1-1-1.3c.04-.4.2-.77.44-1.08Z" fill="#FF9A6C"/><path d="M66.26 133.14c.25 0 .39 1.67 1.94 2.77 1.55 1.1 3.35.77 3.38 1 .03.23-.37.36-1.14.44-1 .1-2-.17-2.82-.75a3.67 3.67 0 0 1-1.52-2.33c-.1-.69.04-1.13.16-1.13Z" fill="#263238"/><path d="M64.86 113.85c-.13.43-1.71.35-3.54.72s-3.28 1-3.55.61c-.12-.17.1-.59.67-1.05a6.23 6.23 0 0 1 5.4-1c.7.2 1.07.51 1.02.72Z" fill="#263238"/><path d="M79.3 113c-.3.38-1.55.11-3 .21-1.45.1-2.73.45-3.05.1-.14-.17 0-.55.55-.93a4.69 4.69 0 0 1 2.43-.77c.86-.06 1.72.12 2.48.53.52.3.72.66.59.86Z" fill="#263238"/><path d="M42.87 108.14c1-1.62 2.94-2.45 4.74-3.14 7.77-3 15.87-5.07 24.14-6.15 1 1.69.08 4-1.47 5.23-1.55 1.23-3.55 1.72-5.4 2.41-1.85.69-3.76 1.77-4.53 3.6-.77 1.83-.12 4.24-.84 6.22-1.23 3.42-6 4.52-7.2 7.93-.91 2.59.59 5.34 1 8.06a9.8 9.8 0 0 1-9.61 11.15L42 114.09c-.16-2.04-.24-4.24.87-5.95Z" fill="#263238"/><path d="M23.15 132.87c1.55-1.4 3.49-2.6 4.1-4.57.9-2.9-1.42-6.28.08-8.91 1.36-2.4 5.37-2.27 6.64-4.72 1-1.92-.15-3.61.22-5.3.37-1.67 2.77-3.14 4.47-2.94L52 125.8c1.24 6.5 2.49 10 1.1 13.76a30.37 30.37 0 0 0-2.07 6.32c-.3 2.2.27 4.69 2.06 6-8 .63-15.48-3.55-22.4-7.6l-7.3-4.28a5.22 5.22 0 0 1-2-1.68c-1.08-1.78.22-4.07 1.76-5.45Z" fill="#263238"/><path d="M30.52 142.3c.27.1.56.16.86.18a7.68 7.68 0 0 0 5.96-2.05 7.57 7.57 0 0 0 2.28-4.67 7.73 7.73 0 0 0-.26-3.07 12.68 12.68 0 0 0-1.48-3 11.5 11.5 0 0 1-1.53-3.08 3.94 3.94 0 0 1 .43-3.4c.72-1 2.07-1.2 3.33-1.7a3.62 3.62 0 0 0 1.7-1.27c.39-.62.58-1.35.55-2.1-.18-1.4-.48-2.8-.91-4.15a4.4 4.4 0 0 1 0-2c.17-.66.58-1.24 1.15-1.63a8.1 8.1 0 0 1 4-1.08 8.59 8.59 0 0 0 4.12-1.21 7.7 7.7 0 0 0 2.85-3.07c.53-1.22.87-2.5 1-3.83.13-1.22.4-2.43.78-3.6a8.16 8.16 0 0 1 1.88-2.83 9.14 9.14 0 0 1 10.53-1.5 11 11 0 0 1 3.08 2.34c.73.83 1.37 1.75 1.9 2.73 0 0 0-.07-.07-.21-.09-.2-.18-.4-.28-.58a11.18 11.18 0 0 0-4.49-4.47A9.3 9.3 0 0 0 57 94.47a8.46 8.46 0 0 0-2 3c-.4 1.2-.68 2.42-.82 3.67a12.34 12.34 0 0 1-1 3.7 7.31 7.31 0 0 1-2.66 2.87 8.24 8.24 0 0 1-3.92 1.13c-1.5 0-2.99.4-4.28 1.16a3.27 3.27 0 0 0-1.32 1.86 4.88 4.88 0 0 0 0 2.25c.42 1.33.72 2.7.9 4.08.04.64-.12 1.28-.46 1.83-.4.5-.91.9-1.51 1.1-.6.26-1.23.43-1.85.69a3.9 3.9 0 0 0-1.65 1.19 4.43 4.43 0 0 0-.48 3.76c.37 1.13.9 2.2 1.6 3.18.6.88 1.1 1.85 1.45 2.86a7.55 7.55 0 0 1-1.86 7.44 7.54 7.54 0 0 1-3.34 1.88 8.36 8.36 0 0 1-3.28.19Z" fill="#455A64"/><path d="M19.86 128.54c-.13.2-.22.42-.26.65-.13.69-.01 1.4.34 2 .24.43.59.8 1 1.07.51.31 1.1.47 1.71.46a4 4 0 0 0 3.5-2.23c.38-.75.58-1.59.57-2.43-.02-.9-.21-1.8-.56-2.64-.63-1.73-1.8-3.42-1.81-5.44a3.71 3.71 0 0 1 .93-2.75 4 4 0 0 1 2.9-.9 9.91 9.91 0 0 0 3.46-.36 3 3 0 0 0 1.42-1.2c.32-.54.52-1.14.59-1.76.06-1.2-.04-2.4-.3-3.56a7.57 7.57 0 0 1 .2-3.29 8.28 8.28 0 0 1 3.71-4.88 11.77 11.77 0 0 1 5.57-1.28c1.72 0 3.43-.27 5.06-.8a10.6 10.6 0 0 0 5.58-4.72c.47-.78.8-1.64.95-2.53-.3.84-.67 1.66-1.11 2.44a10.75 10.75 0 0 1-5.5 4.56c-1.62.5-3.3.74-5 .72a12 12 0 0 0-5.74 1.28 8.68 8.68 0 0 0-3.94 5.05 8.11 8.11 0 0 0-.21 3.47c.23 1.13.33 2.29.29 3.44a3 3 0 0 1-1.73 2.59 9.4 9.4 0 0 1-3.29.33 4.43 4.43 0 0 0-3.21 1 4.1 4.1 0 0 0-1 3.07c.04 1.04.3 2.06.73 3 .39.9.82 1.74 1.15 2.58.34.8.52 1.65.56 2.51.01.79-.16 1.57-.5 2.28a3.71 3.71 0 0 1-3.21 2.12 3 3 0 0 1-1.6-.39 2.78 2.78 0 0 1-1-1 2.82 2.82 0 0 1-.4-1.87c.05-.36.18-.58.15-.59Z" fill="#263238"/><path d="M104.08 133.31c.24.68.24 1.41 0 2.09a2.71 2.71 0 0 1-1.66 1.69 2.9 2.9 0 0 1-2.93-.8 2.66 2.66 0 0 1-.69-1.68c-.02-.68.09-1.36.31-2 .42-1.35 1.3-2.82 1.16-4.59a6.47 6.47 0 0 0-2.44-4.62 7.4 7.4 0 0 0-2.49-1.31c-.92-.26-1.88-.4-2.84-.41-.93 0-1.86-.1-2.77-.29a3.68 3.68 0 0 1-2.15-1.33 4.48 4.48 0 0 1-.77-2.37c-.04-.83.03-1.65.2-2.46.44-1.52.68-3.1.72-4.68a7.09 7.09 0 0 0-1.43-3.88 9.06 9.06 0 0 0-2.6-2.2c-.73-.43-1.42-.91-2.09-1.44a5.26 5.26 0 0 1-1.3-1.68v.14a4.33 4.33 0 0 0 1.16 1.67c.65.56 1.34 1.08 2.07 1.53.96.57 1.8 1.3 2.48 2.18a6.7 6.7 0 0 1 1.3 3.7 18.68 18.68 0 0 1-.75 4.57c-.2.84-.27 1.71-.23 2.58a5 5 0 0 0 .86 2.61c.6.77 1.45 1.3 2.4 1.51.94.2 1.9.3 2.85.31.93.01 1.85.14 2.74.38.85.26 1.64.68 2.34 1.23a6.05 6.05 0 0 1 2.3 4.29c.13 1.61-.67 3-1.1 4.45a6 6 0 0 0-.3 2.16 3 3 0 0 0 2.31 2.75c.58.15 1.19.13 1.75-.05a2.95 2.95 0 0 0 1.74-1.88c.18-.52.21-1.08.08-1.62-.04-.2-.12-.38-.23-.55Z" fill="#263238"/><path d="M94.53 211.64v-11.06c1.24-6.21.65-13.57-2.24-19.24a103.5 103.5 0 0 0-6.94-10.55l-11-14.29c-6.06 4.41-15.55 1.22-23.69-1.74 0 0-8 4.45-11.78 8.63-3.93 4.4 9.51 59.45 9.51 59.45-6.09 12.18-13.95 23-15.14 34.1l63.6 2.45-2.7-29.16.38-18.59Z" fill="#455A64"/><path d="M93.64 230.54a5.6 5.6 0 0 1-.05-1.25v-3.39l.18-11.18c.07-4.31.2-8.32.34-11.18a139 139 0 0 1 .2-3.39c.01-.41.06-.83.16-1.23.04.41.04.83 0 1.24v3.39l-.19 11.18c-.07 4.31-.19 8.32-.33 11.18a96.83 96.83 0 0 1-.2 3.39c0 .42-.03.83-.1 1.24Z" fill="#263238"/><path d="M122.7 240.6s6.2.34 10 2.74c3.8 2.4 10 6.14 12.54 10.77 1.17 2.13-2.16 2.58-3.8 1.35-1.66-1.23-4.17-3.57-5.42-3.85l-1.25-.29a83.78 83.78 0 0 0 3.81 7.56c1.3 2 2.41 5.32-1.47 5.47 0 0-2.6 3.4-5.25.88 0 0-2.06 3.09-5.38-1.19 0 0-1.94 2.45-2.74 1.51-.8-.94-3.45-2.42-4.22-5.48a110.59 110.59 0 0 0-4-10.49l7.17-8.98Z" fill="#FFBF9D"/><path d="M261.5 154.66c.7 0 29.08-3 29.08-3s2.41-11.54 2.28-14.54c-.13-3-2.15-22.85-2.15-22.85l10.63-5s14.21 47.92 11.11 51.9c-3.1 3.98-8.93 7.55-9.43 7.57-.5.02-27.5 12-46.3 5.77-18.79-6.23 4.78-19.85 4.78-19.85Z" fill="#FFBF9D"/><path d="M236.63 180.53c4.18 4.15 11.38 7.6 23.4 4.6 23.76-5.94 41.57-11 48.65-14.8 7.07-3.8 4.31-20.78 4.92-21.55 1.78-2.32-.19-7.3-2.74-8.08-7.26-2.2-19.92-1.33-20.56-.67-3.73 3.92-.32 8.68-.32 8.68l-31.34 4.11a52.4 52.4 0 0 0-11.5.73" fill="#455A64"/><path d="m247.14 153.55.75-.16a51.43 51.43 0 0 1 10.77-.7l31.32-4.2-.15.35a8.4 8.4 0 0 1-1.44-5.15 6 6 0 0 1 .9-2.66c.25-.4.54-.78.86-1.14.12-.1.26-.17.4-.22l.37-.09c.24-.06.47-.08.7-.13 3.88-.45 7.8-.53 11.69-.24 2.04.12 4.07.4 6.08.84.5.11 1 .26 1.52.39.53.17 1.02.46 1.43.84a7 7 0 0 1 1.77 2.72c.4 1.03.53 2.15.4 3.25a4 4 0 0 1-.62 1.6c-.1.1-.08.37-.1.63v.8c.08 2.15.18 4.34.12 6.54.01 3.12-.5 6.23-1.51 9.18a9.09 9.09 0 0 1-2.6 3.83c-.62.48-1.29.88-2 1.18-.66.35-1.36.62-2 .94a93.67 93.67 0 0 1-8.2 3c-2.71.87-5.37 1.71-8 2.48-10.46 3-20 5.43-27.94 7.42-1.9.5-3.82.9-5.76 1.19-1.74.24-3.5.34-5.25.28a21.9 21.9 0 0 1-8.2-1.78 18.9 18.9 0 0 1-5.83-4.07 21.76 21.76 0 0 0 5.93 3.89 22.12 22.12 0 0 0 8.1 1.67c1.74.04 3.48-.07 5.2-.32 1.92-.3 3.83-.71 5.72-1.22 8-2 17.46-4.46 27.89-7.52 2.6-.77 5.27-1.59 8-2.49 2.73-.9 5.44-1.85 8.15-3 .66-.31 1.35-.58 2-.93.66-.3 1.3-.67 1.87-1.12a8.5 8.5 0 0 0 2.45-3.61 27.54 27.54 0 0 0 1.45-9.05c.06-2.19 0-4.36-.11-6.52v-1.49l.08-.18.05-.08c.28-.41.46-.88.54-1.37a6.27 6.27 0 0 0-.4-3 6.48 6.48 0 0 0-1.61-2.52 3.27 3.27 0 0 0-1.24-.73l-1.5-.39c-1.97-.43-3.98-.7-6-.83-3.85-.3-7.72-.22-11.56.22-.23 0-.46.06-.68.12l-.32.07-.2.1c-.3.33-.57.68-.81 1.06a5.37 5.37 0 0 0-.84 2.45 8 8 0 0 0 1.34 4.85l.2.31h-.35l-31.34 4a54 54 0 0 0-8.51.24c-1 .1-1.73.21-2.23.28-.5.07-.75.19-.75.19Z" fill="#263238"/><path d="m162.3 186.12-12.75-22.93L390.92 28.85a12 12 0 0 1 16.32 4.64l1.1 1.97a12 12 0 0 1-4.66 16.32L162.31 186.13v-.01Z" fill="#1E60F6"/><path d="m364.71 64.86-29.55-53.1a2.25 2.25 0 0 1 .86-3.04l13.56-7.55a2.24 2.24 0 0 1 3.05.87l29.56 53.1-17.48 9.72Z" fill="#1E60F6"/><path d="m306.57 40.14 21.54 38.7a3.24 3.24 0 0 0 4.4 1.25l11.82-6.57a3.24 3.24 0 0 0 1.26-4.41l-21.54-38.7a3.24 3.24 0 0 0-4.4-1.26l-11.82 6.58a3.24 3.24 0 0 0-1.26 4.4Z" fill="#1E60F6"/><path d="m325.59 37.88 13.33 23.95 27.14-15.1-13.33-23.96-27.14 15.1Z" fill="#1E60F6"/><path d="M387.39 30.86c.07.12-47.3 26.62-105.78 59.18-58.48 32.56-106 58.86-106 58.73 0-.13 47.29-26.62 105.79-59.19 58.5-32.57 105.92-58.85 105.99-58.72Z" fill="#263238"/><path d="M64.56 230.41c17.8 32 55.33 45 83.83 29.15 28.5-15.85 37.2-54.65 19.4-86.61-17.8-31.96-55.32-45-83.83-29.15-28.51 15.85-37.2 54.65-19.4 86.61Zm87.79-48.86c12.47 22.4 6.38 49.57-13.6 60.68s-46.27 2-58.74-20.42c-12.47-22.42-6.38-49.57 13.59-60.69 19.97-11.12 46.28-1.97 58.75 20.43Z" fill="#1E60F6"/><path d="m190.18 140.3 13.16 23.66a6.52 6.52 0 0 0 8.87 2.53l1.07-.6a6.52 6.52 0 0 0 2.53-8.86l-13.18-23.67a6.52 6.52 0 0 0-8.86-2.52l-1.07.6a6.52 6.52 0 0 0-2.52 8.86Z" fill="#1E60F6"/><path d="m215.47 126.22 13.17 23.66a6.52 6.52 0 0 0 8.87 2.53l1.07-.6a6.52 6.52 0 0 0 2.52-8.86l-13.17-23.66a6.52 6.52 0 0 0-8.87-2.53l-1.06.6a6.52 6.52 0 0 0-2.53 8.86Z" fill="#1E60F6"/><path d="M202.36 133c.13-.07 3.18 5.3 6.83 12s6.5 12.16 6.37 12.23c-.13.07-3.18-5.29-6.83-12s-6.5-12.23-6.37-12.23Z" fill="#263238"/><path d="M190.75 141.25c.13-.07 3.1 5.06 6.67 11.44 3.56 6.38 6.33 11.63 6.2 11.7-.11.07-3.1-5.06-6.62-11.39-3.52-6.33-6.37-11.68-6.25-11.75Z" fill="#263238"/><path d="M227.8 119.07c.14-.07 3.25 5.27 6.96 11.93 3.7 6.66 6.6 12.13 6.48 12.2-.13.07-3.23-5.28-6.94-11.94-3.71-6.66-6.61-12.12-6.5-12.19Z" fill="#263238"/><path d="M215.6 126.44c.12-.07 3.17 5.24 6.79 11.86 3.62 6.62 6.47 12 6.34 12.11-.13.11-3.16-5.24-6.8-11.86-3.62-6.62-6.46-12.04-6.33-12.11Z" fill="#263238"/><path d="M288.12 90.37a4.72 4.72 0 0 0 2-9.18 4.93 4.93 0 0 0-4.27-8.3 5.9 5.9 0 0 0-8.86-4.84 6.62 6.62 0 0 0-8.15-.18 4.7 4.7 0 0 0-4.17 8" fill="#263238"/><path d="M267.83 72.53h1A20.06 20.06 0 0 1 288.81 91c.75 9.69 1.45 20.4 1.37 25.6-.19 10.8-10.93 12.4-10.93 12.4l.87 12.94-26.13-.85-2.17-46.9c-.92-11.19 4.81-21.04 16.01-21.66Z" fill="#FFBF9D"/><path d="M279.35 129c-5-.01-9.9-1.46-14.1-4.17 0 0 3.47 8.15 14.2 7.21l-.1-3.04Z" fill="#FF9A6C"/><path d="M282.9 101.15a1.53 1.53 0 0 1-1.48 1.54 1.49 1.49 0 0 1-1.58-1.39 1.55 1.55 0 0 1 1.49-1.55 1.48 1.48 0 0 1 1.58 1.4Z" fill="#263238"/><path d="M286.49 96.29c-.2.2-1.36-.66-3-.66s-2.87.82-3.05.62c-.18-.2.1-.45.64-.84a4.21 4.21 0 0 1 4.83.04c.5.39.67.76.58.84Z" fill="#263238"/><path d="M268 100.43a1.54 1.54 0 0 1-1.5 1.57 1.49 1.49 0 0 1-1.44-.83 1.51 1.51 0 0 1-.15-.56 1.54 1.54 0 0 1 1.5-1.55 1.48 1.48 0 0 1 1.58 1.37Z" fill="#263238"/><path d="M270.23 96.55c-.2.2-1.36-.66-3-.66s-2.87.82-3.05.62c-.18-.2.1-.45.64-.84a4.21 4.21 0 0 1 4.83.04c.5.39.67.75.58.84Z" fill="#263238"/><path d="M276.19 108.84c.87-.27 1.77-.44 2.69-.48.42 0 .82-.12.9-.41.03-.44-.06-.87-.28-1.25l-1.24-3.22c-1.72-4.59-3-8.36-2.78-8.42.22-.06 1.73 3.59 3.45 8.17.4 1.13.8 2.21 1.19 3.24.26.51.33 1.1.2 1.66a1.07 1.07 0 0 1-.7.61c-.22.07-.46.1-.7.1-.9.11-1.83.11-2.73 0Z" fill="#263238"/><path d="M271.67 90.19c-.22.42-1.63 0-3.38-.1s-3.2.23-3.37-.21c-.07-.21.24-.58.87-.92a5.29 5.29 0 0 1 5.15.24c.57.39.83.8.73.99Z" fill="#263238"/><path d="M286.59 89.48c-.35.37-1.72 0-3.36 0s-3 .25-3.35-.15c-.14-.19.08-.57.69-.92a5.38 5.38 0 0 1 2.73-.61c.94.01 1.86.28 2.67.77.58.34.77.72.62.91Z" fill="#263238"/><path d="M287.8 86.1s-2.83-6.75-6.08-8.33c-3.93-1.92-5.63 2.39-9.38 1.33-3.75-1.06-7.5-2.89-11.34 0-4.2 3.16-2.24 5.39-2.52 10.17-1.1 19.36-4.66 24.82-5.63 15.7-.1-1-2.88-1.8-3.28-6-.52-5.47-.7-12.12.53-16 1-3.27 2.91-5.53 6.26-8 5.3-3.92 12.56-4 17.5-3.47 4.92.53 14.4 6.16 13.93 14.6Z" fill="#263238"/><path d="M253.53 104.67a2.93 2.93 0 0 0-3.14-2.83c-2 .19-4.25 1.32-4.13 5.47.21 7.36 7.56 5.63 7.57 5.4.01-.21-.18-4.96-.3-8.04Z" fill="#FFBF9D"/><path d="M252.15 110s-.12.1-.34.2c-.3.14-.64.16-.95.05a3.17 3.17 0 0 1-1.55-2.81c-.04-.63.06-1.26.3-1.84a1.48 1.48 0 0 1 .94-1 .65.65 0 0 1 .77.33c.1.2.06.35.1.36.04.01.15-.13.08-.43a.74.74 0 0 0-.3-.45.97.97 0 0 0-.71-.17 1.8 1.8 0 0 0-1.31 1.18 4.3 4.3 0 0 0-.4 2.06c.1 1.48.9 2.85 2 3.13a1.35 1.35 0 0 0 1.17-.23c.2-.2.23-.38.2-.38Z" fill="#FF9A6C"/><path d="M253.72 90.41a7 7 0 0 0 3.11 1.45 2.4 2.4 0 0 0 2.67-1.68c.1-.51 0-1.11.3-1.5.3-.39 1.15-.32 1.76-.25 2.14.23 4.65-2.13 5.2-4.21a1.9 1.9 0 0 0 2.56.54 6.86 6.86 0 0 0 1.78-1.57 3.05 3.05 0 0 1 2.53-1.25 7 7 0 0 0 1.6.35c1-.08 1.44-1.21 1.6-2.17.14-.96.26-2.07 1.08-2.59a3.87 3.87 0 0 1 2.63-.07c.9.14 2-.07 2.27-.94a1.77 1.77 0 0 0-.33-1.33 4.76 4.76 0 0 0-5.62-1.82A6.45 6.45 0 0 0 265 72.08a6.55 6.55 0 0 0-10.49 2.36 4.75 4.75 0 0 0-5.38 6.89 4.52 4.52 0 0 0-2.49 3.59c0 1.52 1.45 3 2.92 2.64a2.63 2.63 0 0 0 4.54 2.64" fill="#263238"/><path d="M277.4 75.53v.14c0 .14 0 .22-.04.39-.1.5-.3.98-.55 1.42-.4.7-.96 1.28-1.63 1.73-.88.6-1.93.9-3 .85l.13-.16c.21.66.16 1.38-.16 2a7.6 7.6 0 0 1-1.25 1.8c-.25.31-.53.6-.83.85a2.75 2.75 0 0 1-3.53-.43l.26-.08a5.52 5.52 0 0 1-2.35 3.81 4 4 0 0 1-2.41.79 7.44 7.44 0 0 1-2.39-.53l.2-.09a5.84 5.84 0 0 1-1.75 2.27 3.08 3.08 0 0 1-2.56.69 4.06 4.06 0 0 1-3.11-3.18l.16.08c-.77.4-1.67.53-2.53.36a4.17 4.17 0 0 1-1.75-.79c-.33-.25-.6-.56-.82-.9a1.31 1.31 0 0 1-.19-.39 4 4 0 0 0 5.18 1.52l.14-.08v.16a3.8 3.8 0 0 0 2.94 2.94 2.8 2.8 0 0 0 2.33-.65 5.53 5.53 0 0 0 1.65-2.15l.06-.13h.13c.73.3 1.5.46 2.27.5.81 0 1.6-.25 2.25-.73a5.23 5.23 0 0 0 2.21-3.59v-.35l.24.27a2.38 2.38 0 0 0 3.09.38c.28-.23.55-.5.77-.79.5-.51.92-1.09 1.25-1.72a2.4 2.4 0 0 0 .15-1.84l-.06-.18h.2c1.02.06 2.03-.2 2.88-.77.66-.42 1.21-.99 1.63-1.65.36-.54.63-1.14.8-1.77Z" fill="#455A64"/><path d="M276.17 114.33c-.06-.27-1.85.17-3.51-1.05-1.66-1.22-1.93-3.18-2.18-3.13-.25.05-.25.52-.07 1.33.24 1.06.86 2 1.73 2.64a4 4 0 0 0 2.9.76c.77-.12 1.17-.43 1.13-.55Z" fill="#263238"/><path d="m331.63 394.12 7.1 24.19s27 .9 28.72 5.25L321 439l-12.63-37.25 23.25-7.63Z" fill="#455A64"/><path d="M323.7 421.08a2 2 0 0 0-.58 2.6 1.92 1.92 0 0 0 2.57.61 2.12 2.12 0 0 0 .6-2.76 2 2 0 0 0-2.74-.34" fill="#E0E0E0"/><path d="M364.83 421.81s2.38.21 2.63 1.75L321 439l-1.13-3.81 44.93-13.4" fill="#263238"/><path d="M339.4 417.82c.07.23-1 .71-1.9 1.81-.9 1.1-1.15 2.25-1.4 2.23-.23-.02-.32-1.44.76-2.75s2.52-1.51 2.54-1.29Z" fill="#fff"/><path d="M344.94 418.21c.13.21-.72.92-1.18 2.13-.46 1.21-.33 2.31-.56 2.37-.23.06-.8-1.17-.21-2.67.59-1.5 1.88-2.04 1.95-1.83Z" fill="#fff"/><path d="M349.64 423.12c-.19.12-.88-.91-.7-2.34.16-1.43 1.05-2.29 1.21-2.13.16.16-.28 1-.4 2.22-.12 1.22.11 2.13-.1 2.25Z" fill="#fff"/><path d="M337.17 412.49c0 .24-1.17.27-2.42.78s-2.12 1.25-2.3 1.1c-.18-.15.51-1.28 2-1.87 1.49-.59 2.78-.23 2.72-.01Z" fill="#fff"/><path d="m223.28 394.33-10.1 23.1s20.08 18 18.63 22.48l-45.5-18 14.27-36.64 22.7 9.06Z" fill="#455A64"/><path d="M199.88 409.9a2 2 0 0 0-2.12 1.61 1.93 1.93 0 0 0 1.58 2.12 2.12 2.12 0 0 0 2.24-1.72c0-1-.9-2.14-1.89-2" fill="#E0E0E0"/><path d="M230.92 436.89s1.68 1.69.9 3l-45.5-18 1.58-3.63 43 18.6" fill="#263238"/><path d="M214 417.49c-.1.22-1.25-.12-2.63.16s-2.33 1-2.5.82c-.17-.18.67-1.32 2.34-1.63 1.67-.31 2.92.46 2.78.65Z" fill="#fff"/><path d="M218 421.35c0 .23-1.14.23-2.27.87-1.13.64-1.73 1.55-2 1.46-.27-.09.14-1.41 1.55-2.18 1.4-.77 2.8-.36 2.72-.15Z" fill="#fff"/><path d="M218.46 428.13c-.22 0-.1-1.26 1-2.25 1.09-.99 2.28-1.07 2.3-.85.02.22-.88.62-1.73 1.45s-1.34 1.72-1.57 1.65Z" fill="#fff"/><path d="M215.73 412c-.17.16-1.07-.54-2.36-1-1.3-.46-2.42-.4-2.46-.63-.04-.23 1.2-.66 2.72-.16 1.5.5 2.28 1.63 2.1 1.79Z" fill="#fff"/><path d="m240.32 267.43-15.94 64.66s-28.75 48.4-33.62 72.62l26.3 10.34s19.13-46.65 24.74-55.21a68.87 68.87 0 0 1 8.66-10.67c2.1-2.09 3.61-4.7 4.37-7.56l12.07-46.13-26.58-28.05Z" fill="#263238"/><path d="M233.52 257.09s2.22 17.32 18.9 25l35.11 57.2s2.75 18.6 8 34.27a4621.32 4621.32 0 0 0 15.86 45.87l28.9-10.8-18.42-62.94-3-21.83-28.66-73-24.62-14.76-32.07 20.99Z" fill="#263238"/><path d="m233.52 257.09.53-.36 1.6-1.06 6.23-4.12L265.54 236l.08-.05.08.05 24.64 14.73v.06l28.72 72.93v.05c.95 6.9 2 14.29 3 21.83 5 17 10.3 35.19 15.78 53.93l2.64 9 .07.23-.23.08-28.89 10.8-.25.09-.08-.25c-5-14.51-9.84-28.48-14.4-41.73a188.79 188.79 0 0 1-3.23-9.87c-.94-3.28-1.79-6.54-2.56-9.76a253.67 253.67 0 0 1-3.7-18.83v.08l-34.92-57.22.06.05a32.62 32.62 0 0 1-11-8.38 34.66 34.66 0 0 1-7.4-14.66c-.17-.68-.27-1.21-.33-1.57-.06-.36-.07-.54-.07-.54s0 .18.11.53c.11.35.17.88.36 1.57.52 2.03 1.2 4 2.06 5.92 1.38 3.1 3.2 6 5.42 8.57a32.66 32.66 0 0 0 11 8.28l35.2 57.16v.05c1 6.08 2.2 12.36 3.71 18.79.77 3.21 1.61 6.46 2.56 9.73.95 3.27 2.07 6.53 3.22 9.84 4.6 13.25 9.42 27.22 14.44 41.72l-.33-.15 28.9-10.8-.17.31c-.86-2.98-1.74-5.98-2.64-9l-15.76-53.94c-1-7.54-2.06-14.93-3-21.83v.06l-28.6-73 .07.09-24.6-14.79h.15L242 251.64l-6.3 4.06-1.62 1.05-.55.34Z" fill="#455A64"/><path d="M249 133.52s-8.43 6.48-12.52 13.72c-4.9 8.67-5.43 21.52-5.58 41.48-.15 18.46 2.61 23.59 1.55 30.55-2.09 13.59-3.64 59.2-3.64 59.2s27-10.37 32.24-15l5.27-4.58 33.8 11.17-6.83-41.52-4.68-51.75-6-27.45-1-10.77-29.02-11.66-3.6 6.61Z" fill="#455A64"/><path d="M280.53 138c.35.07-.83 2.44-2.91 5.92l-.1.14-.15-.06c-2.93-1.14-6.81-2.57-11.05-4.12-4.78-1.74-9.1-3.36-12.2-4.62a95.92 95.92 0 0 1-3.63-1.55 8.07 8.07 0 0 1-1.3-.64c.47.1.93.26 1.38.46l3.69 1.39 12.24 4.47c4.24 1.55 8.1 3 11 4.24l-.24.08c2.18-3.41 3.47-5.66 3.27-5.71Z" fill="#263238"/><path d="M315.45 116.44s-2.14-3.33-4.16-6.4c-2.02-3.07-5.08-4.58-5.57-6.18-.5-1.6-3.18-8.73-3.61-10.5a22.78 22.78 0 0 1-.52-5.22s2.2-.94 3.27 2.22c.64 1.9 2.68 8.35 3.12 8.67.44.32 1-.15 1-.15-.9-2.42-1.7-4.88-2.35-7.37-.1-1.17.3-8.93.3-8.93a2.34 2.34 0 0 1 2.67 1.49c1.05 2 1.09 7 1.09 7l1.59 5.58-.56-5.52.8-10.15a3.82 3.82 0 0 1 3.2 3c.67 2.74-.22 6.56.23 7.37.45.8.94 5.71.94 5.71s.55-11.9 1.82-12.24c1.27-.34 2.3.92 2.13 3.32-.18 2.4-.23 7.48.43 9.72s7.43 11 6.88 14.84a64.38 64.38 0 0 0-.63 7h-11.6l-.47-3.26Z" fill="#FFBF9D"/><path d="M274.76 146.41c.65.25 28.36 7.11 28.36 7.11s6.19-10 7.1-12.9c.9-2.9 5.78-22.22 5.78-22.22l11.7-1.1s-3 49.89-7.23 52.58c-4.24 2.69-11 4.05-11.44 3.9-.44-.15-29.95 1.9-45.5-10.35s11.23-17.02 11.23-17.02Z" fill="#FFBF9D"/><path opacity=".3" d="M254.9 172.82a21.15 21.15 0 0 0 11.33 6.66c7.35 1.62 23 4.49 23 4.49l-.76-7.68-34-3.64" fill="#000"/><path d="M242.56 162.26c2.51 5.32 8.12 11 20.43 12.29 24.37 2.52 42.81 3.86 50.78 2.66 7.98-1.2 11.15-18.07 12-18.6 2.49-1.55 2.33-6.91.19-8.51-6.08-4.55-18.27-8-19.1-7.63-4.85 2.4-3.26 8.05-3.26 8.05l-30.9-6.82a52.05 52.05 0 0 0-11.07-3.22" fill="#455A64"/><path d="M261.63 140.48s.25 0 .75.1 1.25.22 2.22.43c2.78.63 5.51 1.5 8.15 2.58l30.88 6.72-.25.28a8.31 8.31 0 0 1 .4-5.33c.39-.86.99-1.62 1.74-2.2.37-.3.78-.56 1.2-.78.15-.04.3-.07.45-.07h.38c.25 0 .46.08.7.12 3.8.9 7.51 2.15 11.07 3.75 1.88.82 3.7 1.77 5.44 2.86.43.28.86.59 1.29.89.44.34.8.77 1.06 1.27.48.98.74 2.06.74 3.16.02 1.1-.23 2.2-.73 3.2a3.8 3.8 0 0 1-1.13 1.29c-.13.06-.2.32-.3.56l-.26.75c-.67 2-1.32 4.14-2.13 6.2a28.11 28.11 0 0 1-4.54 8.16 8.02 8.02 0 0 1-6 3.14c-.75.11-1.5.13-2.24.19-3 .18-5.88.14-8.72.06-2.86-.08-5.65-.23-8.36-.4a718.93 718.93 0 0 1-28.8-2.54c-1.95-.17-3.9-.45-5.81-.84-1.71-.37-3.38-.87-5-1.52a22.06 22.06 0 0 1-7.1-4.46 18.91 18.91 0 0 1-4.1-5.82s.28.57.91 1.6a19.8 19.8 0 0 0 3.34 4.07 21.84 21.84 0 0 0 7.06 4.34c1.62.63 3.3 1.12 5 1.47 1.91.37 3.85.63 5.8.79 8.18.81 17.93 1.76 28.77 2.44 2.73.16 5.5.3 8.35.37 2.83.07 5.75.11 8.69-.06.72-.07 1.47-.09 2.2-.2a8.04 8.04 0 0 0 2.14-.41 8.56 8.56 0 0 0 3.55-2.56c1.91-2.4 3.41-5.1 4.44-8 .8-2 1.44-4.11 2.1-6.17l.28-.78c0-.12.1-.25.17-.39.03-.08.07-.15.13-.22a.8.8 0 0 1 .13-.13l.06-.06c.42-.29.76-.67 1-1.11.47-.93.7-1.96.67-3a6.6 6.6 0 0 0-.68-2.92c-.21-.43-.52-.8-.9-1.1-.44-.29-.84-.6-1.27-.87a39.85 39.85 0 0 0-5.37-2.83 61.34 61.34 0 0 0-10.94-3.74c-.24 0-.46-.1-.69-.12h-.55c-.39.21-.76.45-1.12.73a5.4 5.4 0 0 0-1.63 2 8 8 0 0 0-.38 5l.09.35-.36-.08-30.82-6.9c-2.63-1.1-5.33-2-8.09-2.68-1-.23-1.69-.39-2.19-.49-.5-.1-.9-.09-.9-.09Z" fill="#263238"/><path d="M313.77 160.17a6.58 6.58 0 0 1-2-.87 20.98 20.98 0 0 1-7.48-7.24 7.22 7.22 0 0 1-.95-2 44.32 44.32 0 0 0 4.6 5.69 40.96 40.96 0 0 0 5.83 4.42Z" fill="#263238"/><path d="M96.22 242.53s6.2.33 10 2.74 10 6.13 12.55 10.77c1.17 2.13-2.16 2.58-3.8 1.34-1.64-1.24-4.17-3.56-5.42-3.85l-1.25-.28a82.06 82.06 0 0 0 3.8 7.55c1.3 2 2.42 5.32-1.45 5.48 0 0-2.62 3.4-5.26.88 0 0-2.06 3.08-5.38-1.19 0 0-1.93 2.44-2.74 1.51-.81-.93-3.45-2.42-4.22-5.48a107.16 107.16 0 0 0-4-10.49l7.17-8.98Z" fill="#FFBF9D"/><path d="M43.45 161a14.92 14.92 0 0 0-7.79 5.85c-2.38 3.66-3.1 10-2.43 14.72 1.44 9.95 6 26.74 8.57 37.52.88 3.72 2.7 10.38 8 13.91l37.9 22.72 10.12-15-34.54-28.15-6.83-38.58-13-12.99Z" fill="#455A64"/><path d="M36.9 198.92c.06.13.1.26.13.39l.32 1.17 1.15 4.53 4.19 16.75c1.02 3.85 3.2 7.3 6.24 9.88a37.6 37.6 0 0 0 5.54 3.68l6.09 3.68 27.29 16.48-.35.08 3.65-5.41 6.48-9.63.05.35-34.23-28.19h-.06v-.07c-2.26-9.51-3.9-17.3-4.94-22.72a234.9 234.9 0 0 1-1.34-7.9 6.9 6.9 0 0 1-.07-.56c.05.18.1.36.13.55l.29 1.63c.27 1.43.66 3.54 1.22 6.24a608.1 608.1 0 0 0 5.1 22.67l-.07-.11L98 240.47l.18.15-.13.19-6.48 9.63-3.65 5.41-.13.2-.22-.12-27.25-16.53-6.08-3.69a38.3 38.3 0 0 1-5.58-3.71 19.87 19.87 0 0 1-6.31-10.11c-1.71-7.09-3.08-12.82-4-16.79-.45-2-.81-3.49-1.06-4.55l-.3-1.23a2.93 2.93 0 0 1-.08-.4Z" fill="#263238"/><path d="M37.52 166.33c.24-.15.5-.27.77-.33.73-.22 1.47-.4 2.22-.5 2.51-.39 5.08-.04 7.4 1a14.75 14.75 0 0 1 5.51 5 9 9 0 0 1 1 2.05c.11.26.17.53.18.81a21.1 21.1 0 0 0-1.49-2.65 15.68 15.68 0 0 0-5.44-4.71 13.82 13.82 0 0 0-7.12-1.1c-1.87.15-3 .52-3.03.43Z" fill="#263238"/></svg>