<svg fill="none" xmlns="http://www.w3.org/2000/svg" viewBox="0 0 614 600"><path d="M110.33 294.1H14.32v100.1h96.01V294.1Z" fill="#E0E0E0"/><path d="M103.82 294.1h-96v100.1h96V294.1Z" fill="#F5F5F5"/><path d="M103.86 394.23H7.78V294.08h96.08v100.15Zm-96-.07h95.93V294.13H7.85v100.03Z" fill="#E0E0E0"/><path d="M90.93 307.56h-70.2v73.17h70.2v-73.17Z" fill="#fff"/><path d="M20.72 381.22a11.1 11.1 0 0 1-1.73 2.02c-1.12 1.18-2.72 2.71-4.47 4.53-1.75 1.82-3.39 3.28-4.58 4.38-.6.65-1.3 1.21-2.03 1.7.5-.74 1.08-1.41 1.73-2.01a208.71 208.71 0 0 1 9.06-8.94c.6-.63 1.29-1.2 2.02-1.68ZM90.93 381.05c.73.5 1.4 1.08 2 1.73a208.86 208.86 0 0 1 8.93 9.05c.64.6 1.2 1.28 1.68 2.03-.73-.5-1.4-1.08-2.01-1.72-1.18-1.13-2.71-2.71-4.53-4.48-1.82-1.76-3.3-3.4-4.4-4.6-.63-.6-1.2-1.27-1.67-2.01ZM90.74 307.76c.5-.71 1.07-1.37 1.72-1.95 1.12-1.18 2.71-2.71 4.46-4.51 1.75-1.8 3.39-3.3 4.6-4.4.6-.63 1.29-1.2 2.02-1.7-.49.75-1.07 1.42-1.72 2.01-1.13 1.18-2.72 2.8-4.48 4.53a207.5 207.5 0 0 1-4.58 4.41 11.4 11.4 0 0 1-2.02 1.61ZM20.53 307.94c-.74-.5-1.41-1.08-2.02-1.74a211.02 211.02 0 0 1-8.9-9.04c-.66-.6-1.22-1.29-1.69-2.04.72.5 1.4 1.08 2 1.73a208.56 208.56 0 0 1 8.93 9.07c.64.6 1.2 1.28 1.68 2.02Z" fill="#E0E0E0"/><path d="M90.73 380.75a2.26 2.26 0 0 1 0-.37V360.5c0-12.81-.08-31.08-.13-52.89l.27.27h-70l.31-.3v73.22l-.27-.27 50.69.14h19.32-4.97l-14.17.06-50.87.14h-.27v-73.79h70.6v.26c0 21.94-.11 40.27-.15 53.12v19.81c0 .25-.36.48-.36.48Z" fill="#E0E0E0"/><path d="M67.53 332.44H44.11v23.42h23.42v-23.42Z" fill="#EBEBEB"/><path d="M137.57 64.35h-131v189.88h131V64.34Z" fill="#E0E0E0"/><path d="M131.01 64.35H.01v189.88h131V64.34Z" fill="#F5F5F5"/><path d="M114.75 84.9H16.3v148.75h98.45V84.9Z" fill="#fff"/><path d="M114.74 233.65v-10.97c0-7.13 0-17.52-.1-30.63 0-26.24-.1-63.39-.16-107.13l.33.32H16.38l.35-.35v148.75l-.28-.28 71.66.14 19.8.07h6.98-26.61l-71.87.15h-.29v-.28c0-40.9 0-92.64-.08-148.75v-.36h99.13v.33c0 43.83-.12 81.04-.15 107.32 0 13.1-.06 23.46-.1 30.57v10.21c0 .47-.18.9-.18.9Z" fill="#E0E0E0"/><path d="M131.4 64.35a23.67 23.67 0 0 1-2.36 3.39 217.77 217.77 0 0 1-12.61 15.32 22.7 22.7 0 0 1-2.89 2.94 24.6 24.6 0 0 1 2.51-3.28l6.3-7.65 6.3-7.65c.82-1.1 1.74-2.13 2.74-3.07Z" fill="#E0E0E0"/><path d="M115.24 233.18a122.45 122.45 0 0 0 17.18 21.47l-17.18-21.47Z" fill="#fff"/><path d="M132.42 254.65c-1.09-.8-2.1-1.71-3-2.72a94.1 94.1 0 0 1-12.19-15.28 21.26 21.26 0 0 1-2-3.51c.89 1 1.7 2.09 2.41 3.23a161.64 161.64 0 0 0 12.14 15.17c.95.97 1.83 2.01 2.64 3.1Z" fill="#E0E0E0"/><path d="M0 254.06c5.72-7.05 11.44-14.1 17.15-21.17L0 254.06Z" fill="#fff"/><path d="M17.15 232.9a125.68 125.68 0 0 1-8.3 10.84A131 131 0 0 1 0 254.1c2.58-3.75 5.35-7.37 8.3-10.85 2.77-3.6 5.73-7.06 8.85-10.36ZM.01 64.35a114.3 114.3 0 0 1 8.34 9.95 121.2 121.2 0 0 1 7.77 10.47c-2.96-3.17-5.74-6.5-8.34-9.97A122.37 122.37 0 0 1 .01 64.35ZM84.08 115.1H51.1v93.6h32.97v-93.6Z" fill="#E0E0E0"/><path d="M348.08 54.43H282.1V71.9h65.97V54.43Z" fill="#F5F5F5"/><path d="M320.19 90.27v-4.65c0-3 0-7.35-.11-12.8l.2.2-66.08.13.34-.33v17.45l-.33-.33 47.02.14 13.87.1h5.09-4.93l-13.8.1-47.26.32h-.34V72.82l.34-.34 65.97.12h.2v.22c0 5.5-.08 9.89-.1 12.92V90l-.08.28ZM489.26 35.22v-4.65c0-3.01 0-7.34-.1-12.8l.2.2-65.98.13.34-.34V35.2l-.32-.33 47.01.15 13.87.1h5.09-4.92l-13.8.1-47.25.14h-.33V17.8l.34-.34 65.97.14h.2v.2c0 5.52-.07 9.89-.1 12.92v4.26c-.2.17-.2.26-.22.25Z" fill="#E0E0E0"/><path d="M498.21 17.76V13c0-3.05-.08-7.37-.13-12.69l.24.25-39.75.13c-.3.3.41-.4.33-.34v17.43l-.31-.33 28.35.17 8.26.08H498.23c-.24.02-.48.02-.72 0h-2.17l-8.14.08-28.57.16h-.33V.34l.34-.34 39.64.1h.24v.24c0 5.42-.1 9.75-.13 12.84v3.45c0 .84-.1 1.15-.18 1.13ZM613.14 119.44H490.51v177.75h122.63V119.44Z" fill="#E0E0E0"/><path d="M607 119.44H484.37v177.75H607V119.44Z" fill="#F5F5F5"/><path d="M591.77 138.68H499.6v139.26h92.16V138.68Z" fill="#fff"/><path d="M591.77 277.94v-10.29c0-6.68 0-16.4-.08-28.69 0-24.56-.1-59.33-.15-100.28l.3.31h-92.22l.33-.34c0 52.54 0 100.98-.07 139.26l-.26-.26 67.09.14h25.07-24.91l-67.25.15h-.27V138.09h92.88v.3c0 41.03-.12 75.93-.15 100.48 0 12.2-.07 21.95-.08 28.61V277c0 .46-.23.94-.23.94Z" fill="#E0E0E0"/><path d="M607.35 119.44a22.17 22.17 0 0 1-2.18 3.17 218.98 218.98 0 0 1-11.81 14.35c-.83.98-1.74 1.89-2.72 2.71.68-1.09 1.47-2.12 2.34-3.06l5.9-7.16 5.92-7.2a22.29 22.29 0 0 1 2.55-2.81Z" fill="#E0E0E0"/><path d="M592.24 277.49a114.22 114.22 0 0 0 16.07 20.11l-16.07-20.11Z" fill="#fff"/><path d="M608.31 297.6a19.51 19.51 0 0 1-2.8-2.55 89.13 89.13 0 0 1-11.4-14.26 17.38 17.38 0 0 1-1.87-3.3c.83.96 1.59 1.97 2.27 3.04a212.8 212.8 0 0 0 5.42 7.27c2.19 2.78 4.33 5.2 5.89 6.93.9.89 1.73 1.85 2.5 2.87Z" fill="#E0E0E0"/><path d="m484.35 297.05 16.13-19.82-16.13 19.81Z" fill="#fff"/><path d="M500.48 277.23c-2.41 3.51-5 6.89-7.77 10.12a121.25 121.25 0 0 1-8.29 9.7c2.41-3.5 5-6.88 7.77-10.12 2.6-3.37 5.36-6.6 8.29-9.7ZM484.37 119.44c2.77 2.95 5.37 6.07 7.8 9.31 2.6 3.13 5.03 6.4 7.28 9.78a109.6 109.6 0 0 1-7.8-9.33c-2.6-3.12-5.03-6.38-7.28-9.76ZM563.06 166.96H532.2v87.61h30.86v-87.61ZM376.38 94.88l-12.02.07.32 59.81 12.02-.06-.32-59.82Z" fill="#E0E0E0"/><path d="m291.35 95.03-31.13.17.17 33.02 31.14-.17-.18-33.02Z" fill="#EBEBEB"/><path d="m322.34 94.86-31.14.17.18 33.02 31.13-.17-.17-33.02Z" fill="#F5F5F5"/><path d="M260.26 104.36c20.7.18 41.4.08 62.1-.29a.34.34 0 0 0 .28-.33.33.33 0 0 0-.08-.21.34.34 0 0 0-.2-.12c-20.67-.1-41.42 0-62.1.38a.29.29 0 0 0-.28.28c0 .08.02.15.08.2.05.06.12.09.2.09Z" fill="#E0E0E0"/><path d="m297.36 127.52-56.56.3.14 26.92 56.56-.3-.14-26.92Z" fill="#EBEBEB"/><path d="m353.66 127.21-56.56.3.14 26.92 56.57-.3-.15-26.92Z" fill="#F5F5F5"/><path d="M240.84 135.33c37.58.42 75.28 0 112.85-.55a.34.34 0 0 0 0-.66c-37.57-.2-75.29-.19-112.85.64a.29.29 0 0 0 0 .57ZM438.81 154.76H219.7v12.86h219.13v-12.86Z" fill="#E0E0E0"/><path d="M264.46 159.39h-8.9v16.45h8.9v-16.45ZM397.25 159.39h-8.9v16.45h8.9v-16.45Z" fill="#E0E0E0"/><path d="m388.1 72.56-12 .07.44 82.27 12.01-.06-.44-82.28Z" fill="#EBEBEB"/><path d="m406.89 87.9-18.67.1.36 66.66 18.67-.1-.36-66.67Z" fill="#F5F5F5"/><path d="M406.77 100.77c-6.22.43-12.46.43-18.69 0 6.23-.44 12.47-.44 18.7 0ZM406.77 97.97c-6.22.44-12.46.44-18.69 0 6.23-.43 12.47-.43 18.7 0ZM406.77 144.57c-6.22.43-12.46.43-18.69 0 6.23-.44 12.47-.44 18.7 0ZM406.77 141.76c-6.22.43-12.46.43-18.69 0 6.23-.43 12.47-.43 18.7 0ZM397.73 135.66c-.18 0-.33-6.78-.33-15.03 0-8.24.15-15.02.33-15.02.17 0 .32 6.78.32 15.02 0 8.25-.15 15.03-.32 15.03Z" fill="#E0E0E0"/><path d="M427.3 104.3h-20.32v50.32h20.32v-50.33Z" fill="#EBEBEB"/><path d="M385.37 86.66a3.46 3.46 0 1 1-6.9 0 3.46 3.46 0 0 1 6.9 0ZM383 96.15h-2.14v48.95H383V96.15Z" fill="#E0E0E0"/><path d="M588.57 328.62h-65.98v17.45h65.98v-17.45Z" fill="#F5F5F5"/><path d="M560.67 364.46v-4.66c0-3-.06-7.33-.1-12.8l.2.2-65.98.14c.15-.15-.34.33.33-.34v17.46l-.33-.33 47.02.15 13.87.1h5.09H555.83l-13.79.09-47.25.15h-.34v-17.59l.34-.34 65.98.14h.2v.2c0 5.52-.08 9.89-.1 12.92v4.26l-.2.25ZM580.39 97.63V93c0-3.02 0-7.35-.1-12.82l.2.2-65.98.14.34-.34V97.62l-.33-.33 47.02.15 13.87.1h5.09-4.92l-13.92.31-47.24.15h-.38V80.22l.34-.32 65.97.12h.2v.2c0 5.52-.08 9.89-.1 12.94v4.24c-.05.15-.05.25-.06.23ZM164.2 32.15c-.02-.1-.02-.2 0-.3v-4.33c0-3.03-.07-7.36-.11-12.82l.2.2-66.04.14.34-.34v17.45l-.34-.27 47.01.15 13.88.1h5.08-4.92l-13.8.08-47.25.28h-.34V14.73l.34-.34 65.97.13h.2v.2c0 5.53-.07 9.9-.1 12.94v4.22c-.11.2-.11.29-.12.27Z" fill="#E0E0E0"/><path d="M612.95 578.56c0 .19-132.06.35-294.93.35-162.86 0-294.94-.16-294.94-.35 0-.19 132.02-.35 294.94-.35s294.93.17 294.93.35Z" fill="#263238"/><path d="M420.53 277.97c-15.93 8.26-28.15 22.47-36.94 38.12-8.78 15.65-14.44 32.82-20.05 49.86l-4.91 87.93c18.54-31.56 33.43-68.63 37.44-105l-12.34-1.1c8.29-1.26 15.23-7.25 19.65-14.37 4.42-7.12 6.69-15.3 8.9-23.37l-15.04 2.24a55.78 55.78 0 0 0 23.3-34.31Z" fill="#455A64"/><path opacity=".3" d="M420.53 277.97c-15.93 8.26-28.15 22.47-36.94 38.12-8.78 15.65-14.44 32.82-20.05 49.86l-4.91 87.93c18.54-31.56 33.43-68.63 37.44-105l-12.34-1.1c8.29-1.26 15.23-7.25 19.65-14.37 4.42-7.12 6.69-15.3 8.9-23.37l-15.04 2.24a55.78 55.78 0 0 0 23.3-34.31Z" fill="#000"/><path d="M355.89 474.48s-40.25-48.18-39.79-94.17h16.27s-17.62-11.6-16.27-18.11c1.36-6.51 1.86-31.13 1.86-31.13l14.92 3.72s-11.15-5.57-12.55-14.4c-1.4-8.83 3.26-49.7 3.26-49.7s18.12 19.05 23.69 38.55c5.57 19.5 20.2 42.27 15.9 101.7-4.3 59.44-7.3 63.54-7.3 63.54ZM376.29 479.02s43.66-29.04 53.29-66.08l-13.07-3.55s16.73-5.43 17.04-11.01c.31-5.59 5.3-25.43 5.3-25.43l-12.76-.27s10.19-2.04 13.24-8.83c3.05-6.8 8.26-40.68 8.26-40.68s-18.73 11.35-27.48 25.76c-8.74 14.42-25.49 29.57-35.05 78.3-9.56 48.74-8.77 51.8-8.77 51.8Z" fill="#455A64"/><path d="M334.52 312.69c.06.16.1.33.13.5l.36 1.49 1.27 5.7c.56 2.49 1.2 5.54 1.9 9.08s1.56 7.57 2.37 12.04a973.94 973.94 0 0 1 10.66 70.27c1.61 13.8 2.8 26.96 3.74 38.95.95 11.99 1.56 22.81 1.93 31.91.22 4.54.32 8.65.45 12.2.12 3.56.17 6.79.2 9.27.03 2.48 0 4.47 0 5.85v1.52c.02.18.02.36 0 .53a2.6 2.6 0 0 1 0-.51c0-.38 0-.88-.07-1.54 0-1.35-.12-3.33-.2-5.84-.08-2.5-.18-5.65-.34-9.26-.16-3.6-.29-7.72-.54-12.2-.44-9.08-1.15-19.89-2.08-31.87-.92-12-2.22-25.15-3.8-38.92-1.57-13.78-3.4-26.88-5.17-38.76a896.8 896.8 0 0 0-5.27-31.5c-.77-4.48-1.57-8.52-2.25-12.06-.68-3.54-1.27-6.6-1.79-9.1l-1.14-5.73-.28-1.5a2.64 2.64 0 0 1-.08-.52Z" fill="#263238"/><path d="M350.3 503.98s-36.83-41.8-48.26-67.05l8.62-3.69c-6.25 1.03-12.66-1.67-17.52-5.75-4.85-4.08-8.4-9.5-11.9-14.75l11.38-1.91a42.3 42.3 0 0 1-24.86-19.26c13.42 2.21 25.56 9.59 35.57 18.8 8.13 7.45 14.92 16.12 21.55 24.97a85.3 85.3 0 0 1 8.38 13.75c6.18 12.8 17.06 39.53 17.04 54.89Z" fill="#455A64"/><path d="M430.16 347.47c-.04.14-.1.28-.17.42l-.57 1.2c-.53 1.12-1.36 2.72-2.24 4.64a920.22 920.22 0 0 0-8.14 17.1 888.49 888.49 0 0 0-24.52 57.44 934.6 934.6 0 0 0-20.51 59 815.37 815.37 0 0 0-5.43 18.13 856.1 856.1 0 0 0-1.45 4.95l-.4 1.27c-.03.15-.09.3-.15.44 0-.15.03-.3.08-.45.1-.34.2-.76.34-1.36l1.35-4.97a617.31 617.31 0 0 1 5.24-18.2 835.34 835.34 0 0 1 33.4-90.95c4.2-9.71 8.13-18.37 11.65-25.58 3.5-7.22 6.32-13.02 8.36-17l2.38-4.56c.25-.5.47-.88.62-1.18.15-.3.15-.35.16-.34ZM353.42 521.89a4.34 4.34 0 0 1-.16-.77l-.37-2.23c-.13-.96-.3-2.14-.57-3.5-.25-1.35-.47-2.93-.85-4.62a163.03 163.03 0 0 0-13.37-39.9c-2-4.15-4-7.78-5.77-10.85-.85-1.51-1.69-2.84-2.4-4.06-.73-1.22-1.37-2.2-1.9-3.01l-1.2-1.9a5.52 5.52 0 0 1-.38-.7s.19.2.5.61c.31.43.77 1.09 1.36 1.82.58.74 1.25 1.8 2 2.96.74 1.16 1.62 2.48 2.5 3.99 1.82 2.98 3.84 6.63 5.91 10.76 2.08 4.14 4.07 8.8 6 13.8 1.95 4.98 3.4 9.84 4.6 14.3 1.21 4.46 2.08 8.54 2.72 11.99.34 1.7.54 3.28.76 4.65.21 1.37.35 2.56.46 3.54l.22 2.24c.02.3 0 .59-.06.88Z" fill="#263238"/><path d="M402.02 512.06h-80.6v16.45h80.6v-16.45Z" fill="#1E60F6"/><path d="m329.1 528.5 8.71 50h48.71l8.13-50h-65.56Z" fill="#1E60F6"/><path d="M397.07 528.5c0 .2-15.24.35-34.05.35-18.8 0-34.05-.15-34.05-.36 0-.2 15.24-.28 34.02-.28 18.79 0 34.08.1 34.08.28Z" fill="#263238"/><path d="m32.78 530.32 7.32 48.13h42.55l9.87-47.44-59.74-.69Z" fill="#1E60F6"/><path d="M86.58 561.17c0 .14-10.84.25-24.4.25-13.57 0-24.41-.1-24.41-.25 0-.13 10.84-.25 24.4-.25 13.57 0 24.41.1 24.41.25ZM86.75 558.8c0 .14-10.99.25-24.52.25s-24.52-.11-24.52-.25c0-.13 10.97-.24 24.52-.24 13.55 0 24.52.1 24.52.24ZM86.67 556.13c0 .14-10.99.24-24.52.24s-24.53-.1-24.53-.24c0-.14 10.98-.26 24.53-.26s24.52.12 24.52.26ZM44.98 575.67c-1.03-4-1.74-8.08-2.11-12.2.61 1.98 1.06 4 1.35 6.06a37 37 0 0 1 .76 6.14ZM47.88 575.2a43.65 43.65 0 0 1-.53-5.92 44.91 44.91 0 0 1-.27-5.92c.45 1.93.71 3.91.77 5.9.22 1.97.23 3.96.03 5.94ZM53.16 575.2c-.59-1.98-.96-4.01-1.11-6.07-.31-2.03-.42-4.1-.33-6.15.4 2.01.68 4.05.83 6.1.32 2.02.52 4.07.6 6.12ZM56.86 575.45c-.4-2.03-.6-4.1-.58-6.17a29.3 29.3 0 0 1 .19-6.18c.21 2.05.31 4.11.3 6.17.15 2.06.18 4.12.09 6.18ZM63.42 575.2a33.26 33.26 0 0 1-.44-5.85 35.9 35.9 0 0 1 0-5.88c.33 1.93.48 3.9.46 5.86a33.9 33.9 0 0 1-.02 5.87ZM68.21 575.45c-.3-4.02-.27-8.07.1-12.1.3 4.04.27 8.08-.1 12.1ZM72.7 574.8a40.7 40.7 0 0 1 .37-6.32c.12-2.1.4-4.2.85-6.26.04 2.11-.08 4.23-.37 6.32-.12 2.1-.4 4.2-.85 6.26ZM78.49 574.18c0-1.83.24-3.66.72-5.42.3-1.79.84-3.53 1.57-5.18a47.84 47.84 0 0 1-1.08 5.28c-.3 1.8-.71 3.57-1.21 5.32Z" fill="#FAFAFA"/><path d="M74.4 435.33v.24l-.2.68-.8 2.6a159.98 159.98 0 0 0-2.8 9.55c-.52 2.05-1.13 4.27-1.66 6.7-.53 2.43-1.08 5.02-1.64 7.76a218.23 218.23 0 0 0-2.6 17.95c-.65 6.4-.91 12.56-1 18.13a248.68 248.68 0 0 0 .38 14.83c.12 2.1.3 4.06.42 5.68.12 1.61.27 3.12.4 4.28.14 1.17.22 2.05.29 2.72v.94-.24c0-.16 0-.4-.11-.7l-.38-2.7c-.16-1.16-.34-2.6-.49-4.29-.15-1.68-.38-3.57-.5-5.68-.12-2.12-.3-4.42-.37-6.9a190.42 190.42 0 0 1 3.55-44.13c.56-2.71 1.08-5.34 1.69-7.76.6-2.41 1.16-4.66 1.72-6.7a150.9 150.9 0 0 1 2.97-9.49l.9-2.57.24-.67c.07-.18-.03-.23-.02-.23Z" fill="#455A64"/><path d="M66.7 465.14a15.84 15.84 0 0 1 6.62-8.36 3.83 3.83 0 0 1 3.5-.65c1.5.72 1.61 2.81 1.17 4.41a11.69 11.69 0 0 1-4.82 6.56 9.84 9.84 0 0 1-7.22 1.82M64.13 485.26c1.1-4.15 4.4-10.06 7.85-12.62a4.85 4.85 0 0 1 1.8-.95 2.03 2.03 0 0 1 1.89.4 2.94 2.94 0 0 1 .43 2.72 16.75 16.75 0 0 1-12.42 12.5M63.41 502.99a24.41 24.41 0 0 1 7.92-9.97 3.8 3.8 0 0 1 2.71-1c1.5.28 2.2 2.12 2.06 3.64-.27 3.13-2.7 5.64-5.14 7.6a31.65 31.65 0 0 1-7.33 3.77M63.82 515.72a23.23 23.23 0 0 1 6.78-7.68c.59-.45 1.28-.77 2.02-.9a2.06 2.06 0 0 1 1.98.75c.68 1 0 2.34-.7 3.3a19.22 19.22 0 0 1-9.6 7.05M63.48 510.58a75.06 75.06 0 0 0-9.64-9.83c-.55-.46-1.24-.95-1.93-.72a1.36 1.36 0 0 0-.88 1.29c0 .56.12 1.1.37 1.61a18.73 18.73 0 0 0 12.42 10.44M63.79 493.97l-7.58-9.24a9.34 9.34 0 0 0-2.45-2.33 3.09 3.09 0 0 0-3.23 0 3.04 3.04 0 0 0-1.05 3.04c.27 1.1.78 2.14 1.48 3.04a22.56 22.56 0 0 0 5.52 5.83c2.22 1.51 4.25 2.52 6.92 2.13M64.83 475.32a26.33 26.33 0 0 0-7.62-11.44 4.5 4.5 0 0 0-1.98-1.16 3.33 3.33 0 0 0-3.47 2.44 6.24 6.24 0 0 0 .7 5.02 13.01 13.01 0 0 0 3.55 3.78c2.55 1.96 5.4 3.5 8.43 4.56M67.87 458.67c-.74-5.35-3.52-9.8-6.78-14.13-.68-.92-1.63-1.89-2.71-1.71a2.18 2.18 0 0 0-1.59 1.36c-.25.67-.35 1.4-.3 2.12a16.52 16.52 0 0 0 10.73 14.79M69.99 450.18a44.45 44.45 0 0 1-.29-8.27c.17-2.78 1.1-5.45 2.71-7.72a6.47 6.47 0 0 1 2.72-2.2 3.48 3.48 0 0 1 3.37.45 3.7 3.7 0 0 1 1.16 2.97 9.36 9.36 0 0 1-.86 3.17c-2.02 4.86-5.42 10.24-8.9 11.6" fill="#455A64"/><path d="M36.98 456.55c.03.23.03.46 0 .68v5.02c0 1.2 0 2.56.14 4.07.13 3 .43 6.59.88 10.55.44 3.96 1.16 8.28 2.1 12.78a151.54 151.54 0 0 0 6.64 22.56c.52 1.42 1.06 2.7 1.5 3.78.46 1.07.86 2.06 1.2 2.83.34.78.56 1.36.76 1.8.1.2.17.41.23.63a4.15 4.15 0 0 1-.32-.6l-.68-1.75c-.38-.75-.81-1.69-1.28-2.8-.46-1.11-1.03-2.35-1.57-3.76a140.67 140.67 0 0 1-6.8-22.6 138.12 138.12 0 0 1-2.85-23.41v-7.15c0-.84 0-1.45.06-1.95a5.64 5.64 0 0 1-.01-.68Z" fill="#263238"/><path d="M38.17 478.5a11.33 11.33 0 0 1 2.72-7.11 2.72 2.72 0 0 1 2.25-1.2c1.16.18 1.7 1.58 1.73 2.72.06 2-.6 3.95-1.87 5.5a6.98 6.98 0 0 1-4.51 2.8M40.75 492.76c-.12-3.61.78-7.18 2.62-10.3.26-.4.61-.75 1.01-1.02a1.5 1.5 0 0 1 1.36-.13 2.07 2.07 0 0 1 .88 1.78 11.97 11.97 0 0 1-5.72 11.22M44.07 504.98c.3-3.07 1.43-6 3.26-8.5a2.62 2.62 0 0 1 1.66-1.25c1.09-.15 1.94.96 2.19 2.02.49 2.2-.61 4.42-1.87 6.28a22.55 22.55 0 0 1-4.18 4.15M47.08 513.56a16.82 16.82 0 0 1 2.94-6.67c.31-.44.72-.8 1.18-1.06a1.44 1.44 0 0 1 1.52.1c.67.53.52 1.57.23 2.38a13.71 13.71 0 0 1-5.03 6.88M45.74 510.12a52.1 52.1 0 0 0-8.68-4.61 1.53 1.53 0 0 0-1.46-.08 1.02 1.02 0 0 0-.32 1.07c.13.38.33.72.6 1.01a13.32 13.32 0 0 0 10.7 4.43M42.39 498.77l-7.15-4.67a6.65 6.65 0 0 0-2.18-1.06 2.2 2.2 0 0 0-2.2.68 2.14 2.14 0 0 0 0 2.3c.42.69.99 1.29 1.66 1.74 1.5 1.23 3.2 2.18 5.03 2.81a6.63 6.63 0 0 0 5.17 0M39.1 485.83a18.83 18.83 0 0 0-7.67-6.14 3.03 3.03 0 0 0-1.6-.37 2.4 2.4 0 0 0-1.84 2.42 4.45 4.45 0 0 0 1.56 3.25 9.34 9.34 0 0 0 3.22 1.8c2.18.8 4.47 1.26 6.79 1.36M37.56 473.86a21.95 21.95 0 0 0-7.63-8.14c-.67-.48-1.52-.94-2.24-.57a1.52 1.52 0 0 0-.79 1.26c-.03.52.06 1.04.26 1.52a11.81 11.81 0 0 0 10.48 7.76M37.22 467.62a31.41 31.41 0 0 1-1.96-5.59c-.48-1.92-.41-3.94.2-5.83.25-.8.72-1.53 1.36-2.09a2.48 2.48 0 0 1 2.38-.42 2.6 2.6 0 0 1 1.43 1.78c.18.77.21 1.56.1 2.34-.33 3.73-1.46 8.14-3.56 9.8" fill="#263238"/><path d="M90.79 456.1a18.17 18.17 0 0 0 .08 2.62c.08.79 0 1.87 0 3.07 0 1.19 0 2.56-.08 4.06a137.64 137.64 0 0 1-9.64 46.01 122.4 122.4 0 0 1-2.85 6.57c-.37.76-.64 1.36-.84 1.75-.1.2-.2.4-.33.6.04-.23.12-.44.23-.64l.76-1.8c.34-.76.75-1.71 1.2-2.83.44-1.1.97-2.36 1.49-3.78a150.22 150.22 0 0 0 6.66-22.57 146.76 146.76 0 0 0 2.97-23.32c.1-1.5.1-2.87.15-4.07.04-1.19 0-2.23 0-3.07v-1.94c.05-.23.11-.45.2-.67Z" fill="#455A64"/><path d="M89.61 478.03c-.05-2.6-1-5.12-2.71-7.1a2.71 2.71 0 0 0-2.24-1.2c-1.17.17-1.7 1.56-1.75 2.72a8.3 8.3 0 0 0 1.87 5.58 7 7 0 0 0 4.53 2.72M87.03 492.3c.12-3.61-.79-7.18-2.63-10.3a3.51 3.51 0 0 0-1.01-1.02 1.44 1.44 0 0 0-1.36-.14 2.11 2.11 0 0 0-.88 1.79 12 12 0 0 0 5.76 11.19M83.71 504.52a17.5 17.5 0 0 0-3.25-8.5 2.7 2.7 0 0 0-1.67-1.27c-1.09-.13-1.96.97-2.19 2.04-.48 2.2.6 4.42 1.86 6.28a23.06 23.06 0 0 0 4.2 4.13M80.69 513.1a16.85 16.85 0 0 0-2.93-6.68c-.32-.44-.72-.8-1.2-1.05a1.47 1.47 0 0 0-1.5.08c-.68.53-.53 1.59-.25 2.39a13.7 13.7 0 0 0 5.04 6.88M81.97 509.64a54.79 54.79 0 0 1 8.68-4.6 1.57 1.57 0 0 1 1.47-.09 1.02 1.02 0 0 1 .32 1.07 2.5 2.5 0 0 1-.6 1.02 13.34 13.34 0 0 1-10.7 4.45M85.4 498.3l7.14-4.66a6.32 6.32 0 0 1 2.17-1.06 1.96 1.96 0 0 1 2.26 2.97c-.43.7-1 1.3-1.66 1.75a15.75 15.75 0 0 1-5.02 2.8 6.59 6.59 0 0 1-5.17 0M88.75 485.37a18.99 18.99 0 0 1 7.65-6.16c.5-.25 1.06-.37 1.62-.35a2.38 2.38 0 0 1 1.83 2.4 4.46 4.46 0 0 1-1.6 3.27 9.77 9.77 0 0 1-3.24 1.8 21.7 21.7 0 0 1-6.72 1.28M90.2 473.38a22.13 22.13 0 0 1 7.64-8.13 2.36 2.36 0 0 1 2.25-.59 1.6 1.6 0 0 1 .79 1.28c.02.51-.07 1.03-.26 1.51a11.8 11.8 0 0 1-10.5 7.72M90.6 467.18c.83-1.79 1.48-3.65 1.96-5.57.48-1.93.4-3.96-.21-5.84a4.46 4.46 0 0 0-1.36-2.08 2.47 2.47 0 0 0-2.4-.42 2.7 2.7 0 0 0-1.35 1.76c-.17.77-.2 1.57-.1 2.35.33 3.74 1.47 8.14 3.57 9.8" fill="#455A64"/><path d="M27.9 520.79v9a3.54 3.54 0 0 0 3.53 3.54h61.64a3.54 3.54 0 0 0 3.54-3.54v-9H27.89Z" fill="#1E60F6"/><path opacity=".4" d="m33.24 533.33.5 2.88 56.87 4.05 1.44-6.93H33.24Z" fill="#000"/><path d="m187.36 260.58-9.09-2.7c-11-3.85-20.1-.89-26.05 6.54-5.95 7.43-8.26 17.3-7.92 26.81.22 6.13 1.36 12.59-1.07 18.2a32.42 32.42 0 0 1-6.03 8.23 24.13 24.13 0 0 0-5.56 8.53c-1.02 3.27-.52 7.23 2.08 9.5a19.8 19.8 0 0 1 3.38 2.7c1.22 1.58 1.11 3.78 1.23 5.77a21.02 21.02 0 0 0 40.32 7.04c2.71-6.23 2.17-13.26 1.9-20.02a261.27 261.27 0 0 1 6.8-70.6Z" fill="#263238"/><path d="M207.07 249.5c-7.86-2.33-15.28-.08-22.59 3.63a40.49 40.49 0 0 0-17.07 17.16 40.02 40.02 0 0 0-4.5 25.05 32.04 32.04 0 0 0 13.33 21.32c9.8 6.55 23.36 6.3 33.55.36 10.18-5.94 16.92-16.97 18.78-28.6 1.39-8.08.2-16.38-3.38-23.74a29.67 29.67 0 0 0-18.12-15.22" fill="#263238"/><path d="M180.97 274.05c1.53-2.93 1.49-6.41 2.34-9.61 1.89-7.04 8.34-12.09 15.36-14.08 6.52-1.86 14.03-.38 21.23 2.93 5 2.2 9.28 5.78 12.33 10.32a22.64 22.64 0 0 1 1.7 20.7l-35.98-9.69c-3.77 2.43-7.64 4.9-12 5.98a7.6 7.6 0 0 1-3.88.15 3.42 3.42 0 0 1-2.58-2.71c-.16-1.45.81-2.72 1.48-3.99Z" fill="#263238"/><path d="m219.48 263.5-32.8 2.98a5.98 5.98 0 0 0-6.28 5.18l-7.92 69.3a21.7 21.7 0 0 0 2.94 13.56l2.58 4.3c5.89 9.8 20.1 10.59 26.6 1.2.4-.54.72-1.12.96-1.73.2-.5.36-1.01.48-1.53l1.36-6.67c1.06-6.13 1.84-12.4 1.84-12.34 0 .05 13.3-.09 18.68-16.56 2.71-8.14 4.45-22.04 5.53-33.4 1.05-10.24-3.66-23.75-13.97-24.29Z" fill="#FFBF9D"/><path d="M227.32 301.51a2.18 2.18 0 0 1-2.44 1.85 2.08 2.08 0 0 1-1.93-2.31 2.2 2.2 0 0 1 2.44-1.86 2.13 2.13 0 0 1 1.93 2.32ZM229.38 294.49c-.31.24-1.76-1.24-4.07-1.6-2.3-.37-4.23.53-4.43.2-.2-.32.24-.61 1.08-1.04a6 6 0 0 1 6.81 1.12c.6.67.76 1.2.61 1.32ZM206.52 299.03a2.2 2.2 0 0 1-2.44 1.86 2.08 2.08 0 0 1-1.92-2.3 2.2 2.2 0 0 1 2.43-1.87 2.08 2.08 0 0 1 1.93 2.31ZM207.2 291.25c-.32.24-1.77-1.24-4.07-1.6-2.3-.37-4.22.52-4.44.2-.21-.33.26-.61 1.09-1.03a5.9 5.9 0 0 1 3.6-.52c1.22.18 2.34.75 3.2 1.63.62.66.78 1.2.62 1.31ZM212.16 309.88c1.3-.16 2.6-.16 3.9 0 .6 0 1.19 0 1.36-.4.16-.6.12-1.24-.1-1.83-.35-1.53-.69-3.13-1.05-4.81-1.36-6.85-2.33-12.44-2.06-12.49.27-.05 1.65 5.42 3.06 12.3.34 1.68.65 3.3.97 4.83.28.77.28 1.61 0 2.38a1.52 1.52 0 0 1-1.12.72 14.93 14.93 0 0 1-4.96-.7Z" fill="#263238"/><path d="M209.31 337.76a43.39 43.39 0 0 1-21.7-9.64s3.83 12.6 21 13.72l.7-4.08ZM210.2 315.37a4.23 4.23 0 0 0-5.05-1.95c-.49.17-.94.44-1.33.8a2.44 2.44 0 0 0-.62 2.71 2.82 2.82 0 0 0 2.93 1.26 8.95 8.95 0 0 0 3.26-1.36c.3-.14.56-.34.78-.58a.77.77 0 0 0 .13-.87" fill="#FF9A6C"/><path d="M204.97 310.43c.38 0 0 2.57 1.87 4.7 1.88 2.15 4.61 2.3 4.59 2.72-.03.42-.68.4-1.83.25a6.43 6.43 0 0 1-3.85-2.08 5.57 5.57 0 0 1-1.36-3.92c.03-1.12.42-1.7.58-1.67ZM209.1 283.01c-.34.6-2.62-.08-5.43-.17-2.8-.1-5.11.28-5.42-.34-.13-.3.35-.84 1.35-1.36a9.16 9.16 0 0 1 4.16-.74c1.43.05 2.83.45 4.07 1.15.98.6 1.4 1.2 1.26 1.46ZM231.4 284.29c-.49.46-2-.35-3.93-.68-1.93-.32-3.64-.22-3.92-.83-.12-.3.22-.78 1.02-1.18a5.76 5.76 0 0 1 6.32 1.22c.6.66.74 1.3.51 1.47Z" fill="#263238"/><path d="M175.7 268.4c4.5-9.33 20.57-20.89 30.71-18.73l14.98 12.1a15.96 15.96 0 0 1-12.4 10.57c-3.01.48-6.53.23-8.6 2.48-2.08 2.25-1.6 6.13-3.6 8.52-2.72 3.32-8.94 2.28-11.2 5.97-.97 1.61-.88 3.71-1.88 5.3-1.36 2.13-7.5 4.2-9.77 3.12-2.26-1.09-1.7-5.14-2.18-7.37-.64-2.52-.4-5.2.7-7.56 1.73-4.64 1.1-9.93 3.25-14.4Z" fill="#263238"/><path d="M180.67 300.71c.19-1.26.45-3.06-.7-3.63-3.4-1.71-10.56-2.96-11.95 5.42-1.91 11.51 10.03 11.05 10.1 10.73.07-.33 1.87-8.18 2.55-12.52Z" fill="#FFBF9D"/><path d="M175.33 308.32s-.22.1-.59.22c-.5.11-1.04.03-1.5-.22-1.14-.65-1.85-2.71-1.56-4.84a7 7 0 0 1 1.04-2.72 2.4 2.4 0 0 1 1.77-1.28 1.05 1.05 0 0 1 1.1.74c.09.35 0 .57 0 .6 0 .03.28-.15.27-.64-.03-.3-.15-.58-.34-.8a1.54 1.54 0 0 0-1.06-.47 2.85 2.85 0 0 0-2.39 1.44 6.86 6.86 0 0 0-1.23 3.09c-.31 2.33.51 4.69 2.1 5.42a2.16 2.16 0 0 0 1.88 0c.45-.26.55-.51.5-.54Z" fill="#FF9A6C"/><path d="M218.45 257.87c.5 4.83 6.93 11.73 9.64 15.77 5.16 7.73 6.06 10.19 4.07 25.84 3.49-5.08 6.28-10.1 6.78-16.28a25.45 25.45 0 0 0-4.7-17.38 19.77 19.77 0 0 0-15.86-7.99M171.72 265.43c6.58-9.5 14.92-14.53 22.44-16.07l-22.44 16.06Z" fill="#263238"/><path d="M169.17 310a16.28 16.28 0 0 1-1.7-2.22 25.23 25.23 0 0 1-3.04-7.02 46.4 46.4 0 0 1-1.44-11.25c-.14-4.67.69-9.31 2.44-13.64a48.06 48.06 0 0 1 6.78-12.2 44.22 44.22 0 0 1 7.96-8.14 32.47 32.47 0 0 1 6.58-3.9c.82-.36 1.47-.62 1.94-.77.22-.1.45-.16.69-.19 0 0-.91.42-2.51 1.2a35.35 35.35 0 0 0-6.39 4.08 45.5 45.5 0 0 0-7.75 8.13 48.32 48.32 0 0 0-6.68 12.03 33.49 33.49 0 0 0-2.45 13.39c-.01 3.75.41 7.49 1.27 11.14a27.1 27.1 0 0 0 2.8 7c.93 1.55 1.57 2.32 1.5 2.36Z" fill="#455A64"/><path d="M227.36 457.77s66.16-7.5 77.01-9.33c20.7-3.51 41.39-.16 50.18 17.63 4 8.14-1.07 23.72-13.2 35.26-9.06 8.65-53.98 54.1-53.98 54.1l-38.5-32.16 47.65-37.06-92.37 12.98 23.21-41.42Z" fill="#263238"/><path d="m296 533.28-24.77 26.12s18.73 34.36 14.63 39.65l-53.36-46.96 36.9-42.37 26.6 23.56Z" fill="#263238"/><path d="M256.73 542.62a2.85 2.85 0 0 0-3.66 1.12 2.8 2.8 0 0 0 1.14 3.64 3 3 0 0 0 3.87-1.2 2.9 2.9 0 0 0-1.6-3.67" fill="#E0E0E0"/><path d="m232.5 552.09 3.73-4.29 50.05 46.95c.43 1.45.29 3-.4 4.35L232.5 552.1Z" fill="#455A64"/><path d="M272.34 559.93c-.24.24-1.64-.79-3.64-1.09-2.01-.3-3.65.16-3.8-.15-.15-.31 1.54-1.45 3.97-1.03 2.43.42 3.73 2.08 3.47 2.27ZM275.9 567.14c-.17.3-1.69-.27-3.52 0s-3.1 1.22-3.36.98c-.26-.25.87-1.83 3.16-2.16 2.3-.32 3.96.92 3.72 1.18ZM273.32 576.52c-.29-.16.47-1.76 2.37-2.57 1.9-.82 3.62-.3 3.54 0-.08.3-1.5.4-3.04 1.1-1.54.69-2.6 1.68-2.87 1.48ZM277.25 553.34c-.31.13-1.2-1.28-2.71-2.49-1.52-1.2-3.12-1.75-3.05-2.08.07-.34 1.96-.29 3.78 1.15 1.82 1.44 2.35 3.32 1.98 3.42Z" fill="#fff"/><path d="M313.87 528.72c-.14.21-.3.41-.5.59l-1.44 1.61-5.52 5.72-18.8 19.12-.23.23-.24-.2-4.8-4.07-23.78-19.97-7.07-6.12-1.93-1.7c-.23-.18-.44-.4-.64-.62.26.15.5.32.73.52l2.01 1.58 7.3 5.96 23.9 19.8 4.8 4.08h-.48l18.98-18.99 5.67-5.56 1.56-1.48c.14-.18.3-.35.48-.5Z" fill="#455A64"/><path d="m370.21 526.62 32.55 28.67L435 570.57a4.43 4.43 0 0 1-1.41 8.42c-9.12.98-42.67 4.38-44.93 2.15-2.62-2.58-36.3-27.98-36.3-27.98l17.84-26.54Z" fill="#263238"/><path d="m436.94 576.74-50.55 2.51 2.24 1.89a4.49 4.49 0 0 0 3.5.88c4.25 0 15.98-.34 41.34-2.92a4.47 4.47 0 0 0 3.47-2.36Z" fill="#455A64"/><path opacity=".6" d="M386.38 566.88a2.71 2.71 0 0 1 3.16 1.71 2.58 2.58 0 0 1-1.66 3.13 2.82 2.82 0 0 1-3.34-1.8 2.72 2.72 0 0 1 2.1-3.1" fill="#fff"/><path d="M416.07 572.12c.25-.11-.85-2.32-.13-5.07.72-2.76 2.7-4.22 2.5-4.44-.23-.22-.69.11-1.44.79a7.07 7.07 0 0 0-1.82 7.36c.4.97.8 1.43.9 1.36ZM422.5 573.5c.27 0 .1-2 1.05-4.07.94-2.06 2.48-3.36 2.31-3.6-.16-.22-2.14.78-3.18 3.22-1.05 2.44-.4 4.55-.18 4.45ZM406.68 571.72c.3 0 0-3.05 1.19-6.5 1.2-3.44 3.21-5.67 3-5.88-.22-.2-2.72 1.88-3.9 5.59-1.2 3.72-.51 6.88-.3 6.8ZM396.07 563.83c.27.08 1.05-2.4 2.97-4.85 1.93-2.46 4.07-3.87 3.95-4.07-.12-.2-2.72.87-4.7 3.52-1.97 2.66-2.46 5.38-2.22 5.4ZM388.82 558.75c.28 0 .73-2.72 2.97-5.14 2.23-2.43 4.9-3.19 4.8-3.46-.1-.27-.75-.1-1.83.28a9.73 9.73 0 0 0-5.83 6.46c-.29 1.15-.22 1.84-.11 1.86Z" fill="#fff"/><path d="M121.75 487.2c.66 1.65-2.27 54.85 48.22 55.18 45.32.3 106.28-41.24 113.23-38.58 4.55 1.75 82.73 69.7 82.73 69.7l28.28-33.09s-72.38-69.16-79.5-74.1c-15.25-10.67-25.96-10.58-51.03-6.04-22.44 4.07-77.4 22.3-77.4 22.3l-5.31-4.54-59.22 9.17Z" fill="#263238"/><path d="M247.42 465.62s.28-.13.85-.35l2.52-.95c2.24-.8 5.55-1.94 9.9-3.16 5.29-1.49 10.67-2.63 16.1-3.4 3.4-.5 6.84-.74 10.28-.7 3.86.05 7.7.54 11.46 1.44a55.42 55.42 0 0 1 23.42 12.1c6.98 6.51 14.26 13.63 22.03 21.03l50.5 48.47.23.23-.21.26a522.68 522.68 0 0 1-3.9 4.57 420.22 420.22 0 0 1-12.8 14.54c-4.3 4.6-8.15 9.25-12.13 13.83l.1.24-44.32-38.33c-6.72-5.84-13.08-11.33-18.99-16.45l-8.54-7.4c-1.36-1.19-2.72-2.34-4.07-3.47-.65-.56-1.29-1.15-1.95-1.64a10.85 10.85 0 0 0-11.05-1.06l-7.48 3.67-11.92 5.84-7.48 3.65-1.94.92-.68.3s.22-.14.64-.35l1.92-1 7.43-3.74 11.87-5.94 7.46-3.71a11.28 11.28 0 0 1 11.5 1.06c.7.51 1.35 1.08 2 1.64l4.06 3.46 8.57 7.36 18.99 16.4 44.4 38.26.12.23c3.9-4.63 7.96-9.4 11.86-14.33 3.9-4.92 7.74-9.62 11.9-14.5l3.85-4.51v.49l-50.47-48.52c-7.75-7.42-15.03-14.57-21.96-21.06a55.19 55.19 0 0 0-23.1-12 53.3 53.3 0 0 0-11.36-1.48c-3.42-.05-6.83.18-10.21.66-5.43.73-10.8 1.83-16.09 3.27a161.04 161.04 0 0 0-9.9 3.04l-2.56.88c-.58.13-.85.21-.85.21Z" fill="#455A64"/><path d="M219.71 347.55s16.75 6.64 18.73 20.8c1.66 11.8-2.02 43.23-1.97 45.36a7.45 7.45 0 0 0 1.78 5.09 11.8 11.8 0 0 1 3.16 8.13c.13 2.02-.22 4.04-1.03 5.9-1.91 3.22-20.44 24.67-20.44 24.67l-16.46-34.27s10.85-32.08 10.85-32.9c0-.84 5.38-42.78 5.38-42.78Z" fill="#1E60F6"/><path d="M238.67 431.37c.7.1 24.86 17.25 24.86 17.25s5.9-11.4 8.54-11.73c2.65-.34 10.78 2.8 11.5 3.65.72.85 2.3 1 3.9 1.15 1.6.15 4.43 4.15 4.43 4.15l5.42 4.07s-1.7 3.17-2.15 3.71c-.45.55-4.07-.97-4.07-1.56 0-.58.46 3.57-2.36 3.7a15.8 15.8 0 0 1-6.46-1.8l-.95-4.78-7-4.56-.83 4.6s7.09 1.45 6.86 3.78a3.57 3.57 0 0 1-2.3 3.01l-5.85-.12-12.9 3.09s-33.82-7.49-35.05-11.32c-1.24-3.84 4.5-17.63 14.41-16.29Z" fill="#FFBF9D"/><path d="M238.91 423.36c2.96 2.5 5.26 5.69 6.69 9.28 1.5 3.44 17.63 15.23 17.63 15.23l-13.1 10.6s-27.28 1.12-28.56-2.94c-1.28-4.05 2.98-22.14 2.98-22.14l14.36-10.03Z" fill="#1E60F6"/><path d="M221.9 469.4a2.31 2.31 0 0 0 2.72 1.65l47.46-10.38 40.77-7.41.34-3.62-38.95 5.58-50.6 11.31a2.3 2.3 0 0 0-1.73 2.87Z" fill="#E0E0E0"/><path d="m296.02 399.45-21.93 56.14a3.11 3.11 0 0 0 3.4 4.19l48.4-8.94a3.08 3.08 0 0 0 2.38-1.94l22-55.7a1.65 1.65 0 0 0-1.67-2.24l-49.95 6.54a3.09 3.09 0 0 0-2.63 1.95Z" fill="#E0E0E0"/><path d="M300.97 397.5c.19.08-5.07 14.04-11.73 31.19-6.66 17.14-12.2 31.04-12.4 30.97-.19-.07 5.08-14.05 11.75-31.2 6.67-17.13 12.2-31.03 12.38-30.96Z" fill="#263238"/><path d="M313.1 424.05c-1.36 2.7-1.28 5.5.2 6.25 1.47.74 3.77-.86 5.12-3.57 1.36-2.71 1.29-5.5-.19-6.24-1.48-.73-3.77.84-5.14 3.56Z" fill="#fff"/><path d="M222.7 460.66s-3.95-16.64-3.15-19.69c2.28-8.77 14-30.92 13.03-44.18-.98-13.26-12.87-49.24-12.87-49.24l-11.34-3.95c-4.58 10-22.37 7.76-36.9-3.94l-18.2 3.69L124.8 432l-4.86 32.3c-11.55 15.06 1.77 23.05 1.77 23.05s21.94 6.92 39.33 3.81c12.97-2.3 31.9-11.47 36.15-14.8 10.16-7.95 26.27-7.4 26.27-7.4l-.75-8.3Z" fill="#1E60F6"/><path d="m190.87 461.48 11.88 4.85s6.6-3.93 7.56-4.3c5.55-1.02 11.14-1.7 16.76-2.06 1.85.04 3.69-.07 5.51-.34l-15.69 9.66-9.94 13.23a30 30 0 0 1-8.46 1.48c-4.37 0-14.67-2.5-14.67-2.5l7.05-20.02Z" fill="#FFBF9D"/><path d="M155.56 343.07s-20.85 1.24-28.18 17.88c-4.9 11.1-14.92 59.96-16.47 68.9-1.54 8.94 0 19.83 7.17 25.47 7.16 5.64 66.54 30.93 66.54 30.93L197 462.4l-50.1-31.11h-1.62l6-35.9" fill="#1E60F6"/><path d="M151.27 395.38v.62l-.28 1.82-1.12 7.05-4.3 26.43-.22-.24h1.69l50.18 31.02.25.17-.13.25c-3.94 7.6-8.07 15.6-12.37 23.87l-.14.29-.3-.14a1896.09 1896.09 0 0 1-38.05-16.7 818.53 818.53 0 0 1-15.35-7.14c-2.5-1.22-4.97-2.44-7.4-3.71a31.96 31.96 0 0 1-6.93-4.41 19.42 19.42 0 0 1-4.52-6.78c-1-2.45-1.66-5.04-1.94-7.68a38.1 38.1 0 0 1 0-7.74c.25-2.55.78-5 1.22-7.44 1.9-9.72 3.88-18.9 5.8-27.5 1.94-8.6 3.86-16.58 5.81-23.8.98-3.61 1.98-7.04 3.08-10.24a29.83 29.83 0 0 1 4.54-8.4 30.42 30.42 0 0 1 6.12-5.61c1.94-1.3 4-2.42 6.14-3.32a42.35 42.35 0 0 1 9.26-2.72c1.09-.17 1.93-.27 2.49-.32.28-.02.57-.02.85 0l-.84.1c-.57.09-1.36.2-2.48.41-3.15.6-6.23 1.55-9.17 2.82a35.46 35.46 0 0 0-6.06 3.34 30.18 30.18 0 0 0-6 5.59 29.34 29.34 0 0 0-4.43 8.3c-1.07 3.18-2.06 6.6-3 10.22a576.52 576.52 0 0 0-5.72 23.8c-1.9 8.6-3.86 17.78-5.75 27.49-.43 2.44-.96 4.9-1.2 7.39a35.57 35.57 0 0 0 0 7.6c.6 5.04 2.4 10.29 6.26 13.96a32.01 32.01 0 0 0 6.78 4.3c2.41 1.26 4.9 2.48 7.4 3.69 5 2.4 10.12 4.77 15.31 7.13 13.16 5.95 26 11.55 37.98 16.72l-.44.16 12.4-23.85.1.42-50.02-31.19h.1H145v-.26l4.59-26.35c.52-3.05.94-5.42 1.23-7.03l.32-1.8c.09-.46.14-.6.14-.6ZM230.78 368.34c.07 0-.29 1.26-.53 3.54a32.33 32.33 0 0 0-.14 4.16c0 1.63.26 3.47.55 5.52.78 4.77 1.28 9.58 1.47 14.42.25 5.96-.7 11.92-2.79 17.52-2.3 5.9-5.29 11.13-7.15 16.2-1.49 4.57-2 9.4-1.47 14.17.25 4.07.63 7.42.88 9.71l.25 2.63c.03.31.03.63 0 .94-.1-.3-.16-.6-.19-.91l-.4-2.63c-.31-2.28-.77-5.59-1.1-9.71-.6-4.85-.13-9.76 1.36-14.41 1.85-5.17 4.84-10.42 7.1-16.28 2.05-5.52 3-11.38 2.8-17.26-.18-4.81-.63-9.61-1.36-14.38-.25-2.04-.4-3.92-.44-5.56a26.8 26.8 0 0 1 .78-6.82c.1-.3.22-.58.38-.85Z" fill="#263238"/><path d="M157.18 377.97c-.13 0 .52-1.89.86-4.97.2-1.8.23-3.61.08-5.42-.2-2.2-.63-4.39-1.28-6.51a31.07 31.07 0 0 0-5.79-10.54c-1.99-2.37-3.52-3.58-3.43-3.68.4.2.78.47 1.12.78a21.8 21.8 0 0 1 2.7 2.58 29.13 29.13 0 0 1 6.1 10.64 31.41 31.41 0 0 1 1.24 6.69 26.25 26.25 0 0 1-.63 7.63c-.11.52-.26 1.04-.45 1.54-.12.44-.3.86-.52 1.26ZM186.07 427.6a31.25 31.25 0 0 0 5.64-2.2c.9-.5 1.75-1.05 2.58-1.65a32.19 32.19 0 0 0 7.58-8.62 43.04 43.04 0 0 0 5.27-13.57c.7-3.7.76-6.05.91-6.03.06.54.06 1.1 0 1.64-.05 1.5-.2 3-.45 4.49a39.65 39.65 0 0 1-5.16 13.87 29.98 29.98 0 0 1-7.81 8.73 23.29 23.29 0 0 1-5.09 2.63 11.49 11.49 0 0 1-3.47.71ZM132.15 437.78a16.72 16.72 0 0 1 6.78-4.88 17 17 0 0 1 8.14-1.7 50.45 50.45 0 0 0-7.88 2.35 50.3 50.3 0 0 0-7.04 4.23Z" fill="#263238"/><path d="M235.62 462.76a2.13 2.13 0 0 1-1.62 1.75c-.18.02-.36.02-.54 0-1.35 0-1.9-2.43-1.9-2.43l-5.9.8s-8.4 10.66-11.37 13.69c-11.68 11.9-14.72 3.3-14.72 3.3l3.61-13.98 7.47-12.5s-.47.76-.3-1.2c.18-1.97 3.64-2.31 3.64-2.31.23-1.02 2.26-1.97 2.26-1.97l9.38-1.73a6.5 6.5 0 0 1 5.42 1.46l5.68 4.88s3.36 3.75 3.35 4.87a1.9 1.9 0 0 1-1.75 1.83s.43 3.01-.28 3.34c-.8.2-1.61.25-2.42.15l-.01.05Z" fill="#FFBF9D"/><path d="M213.72 460.08c0 .1 1.2-.4 3.17-.9a28.44 28.44 0 0 1 12.13-.42c1.27.29 2.57.44 3.17 1.13a1.14 1.14 0 0 1 .23 1.11c-.1.3-.27.58-.52.79-.4.34-.76.3-.74.36.01.07.35.17.9-.17.3-.2.55-.52.67-.87a1.47 1.47 0 0 0-.22-1.48c-.4-.46-.92-.79-1.51-.94a24.95 24.95 0 0 0-14.22.08c-1.09.29-2.11.72-3.06 1.3ZM214.87 466.05c0 .16 3.7-1.12 8.31-2.24 4.61-1.13 8.42-1.68 8.4-1.86a9.5 9.5 0 0 0-2.54.15 55.36 55.36 0 0 0-11.85 2.9c-.81.25-1.6.6-2.32 1.05Z" fill="#FF9A6C"/><path d="M235.5 462.55a4.22 4.22 0 0 0-.18-1c-.22-.9-.49-1.79-.81-2.65-.22-.61-.5-1.2-.82-1.76a5.65 5.65 0 0 0-1.49-1.7 12.85 12.85 0 0 0-4.46-2.44c-1.61-.52-3.3-.81-4.99-.86-1.38.03-2.74.23-4.07.6-1.14.3-2.03.61-2.64.81-.33.09-.65.22-.94.4 1.24-.2 2.47-.45 3.68-.79a17.1 17.1 0 0 1 3.98-.46c1.65.07 3.27.37 4.83.88a12.9 12.9 0 0 1 4.3 2.3 7.18 7.18 0 0 1 2.25 3.18c.87 2.12 1.24 3.53 1.36 3.49Z" fill="#FF9A6C"/><path d="M217.4 450.12c0 .1 1.35-.28 3.63-.7 2.28-.42 5.56-1.18 8.34 1.11a32.2 32.2 0 0 1 6.78 5.7c.73.98 1.36 2.03 1.9 3.13-.03-.34-.1-.67-.25-.98a9.51 9.51 0 0 0-1.35-2.41 28.14 28.14 0 0 0-6.78-5.94c-.72-.51-1.5-.93-2.3-1.25a6.79 6.79 0 0 0-2.45-.34c-1.37.05-2.73.24-4.07.56-1.2.23-2.35.6-3.45 1.12Z" fill="#FF9A6C"/><path d="M219.56 471.25c.15-.18.29-.38.41-.58l1.15-1.68a63.88 63.88 0 0 1 4.7-5.92h-.13l5.9-.75-.27-.18c.12.47.3.93.53 1.36.23.47.6.87 1.05 1.15.26.11.56.15.85.1.28 0 .55-.07.8-.18a2.44 2.44 0 0 0 1.3-1.62v-.17l-.3.23h1.85c.14-.02.29-.05.43-.1a.9.9 0 0 0 .49-.26c.2-.26.3-.58.32-.9a14.13 14.13 0 0 0-.12-2.55l-.25.32a2.23 2.23 0 0 0 1.87-1.35c.15-.4.15-.85 0-1.25-.15-.36-.33-.7-.53-1.02a31.36 31.36 0 0 0-2.78-3.55l-2.97-2.6-1.93-1.66c-.62-.58-1.3-1.1-2.02-1.55a6.59 6.59 0 0 0-4.9-.5l-8.78 1.66c-.48.23-.94.52-1.36.85-.49.32-.85.8-1.03 1.36l.29-.2a3.28 3.28 0 0 0-2.87 1.05 3.86 3.86 0 0 0-.73 2.71v-.13l-5.16 8.57-1.36 2.36c-.17.26-.32.55-.45.84.22-.24.4-.5.56-.79l1.48-2.28 5.2-8.42v-.08c-.09-.85.15-1.7.67-2.39a2.72 2.72 0 0 1 2.41-.85h.23v-.22c.17-.41.47-.77.84-1.01.41-.3.84-.56 1.3-.79l8.83-1.6a7.75 7.75 0 0 1 2.3-.22c.78.07 1.53.3 2.22.67.69.42 1.33.92 1.91 1.48l1.93 1.65 3.13 2.55c.98 1.1 1.89 2.25 2.71 3.47.2.29.35.6.48.9.1.28.1.58 0 .85a1.6 1.6 0 0 1-1.36.99h-.3v.29c.08.53.12 1.08.12 1.62.05.46-.02.93-.2 1.36a.65.65 0 0 1-.23.1 4.63 4.63 0 0 1-1.1.07h-.97c.27-.2-.36.26-.29.22v.1a1.86 1.86 0 0 1-1 1.26c-.2.09-.41.14-.63.15a.92.92 0 0 1-.58 0 3.68 3.68 0 0 1-1.36-2.16v-.2h-.2l-5.88.84h-.09a57.47 57.47 0 0 0-4.58 6.06c-.47.75-.83 1.36-1.06 1.75-.2.24-.36.5-.49.77Z" fill="#FF9A6C"/><path opacity=".3" d="M207.56 401.83a42.94 42.94 0 0 1-5.65 14.16c-3.24 4.96-7.3 7.58-12.34 10.69l-.38.15a19.08 19.08 0 0 0 18.37-25Z" fill="#000"/></svg>