<svg fill="none" xmlns="http://www.w3.org/2000/svg" viewBox="0 0 500 373"><path d="M500 327.4H0v.25h500v-.25Z" fill="#E0E0E0"/><path d="M377.66 337.99h-34.4v.25h34.4v-.25Z" fill="#E0E0E0"/><path d="M111.04 338.11H91.68v.25h19.36v-.25Z" fill="#E0E0E0"/><path d="M251 337.53h-39.24v.25H251v-.25Z" fill="#E0E0E0"/><path d="M210.76 333.97h-17.54v.25h17.54v-.25Z" fill="#E0E0E0"/><path d="M424.56 334.1h-52.99v.25h52.99v-.25Z" fill="#E0E0E0"/><path d="M237 282.8H43.91a5.7 5.7 0 0 1-5.7-5.71V5.66A5.71 5.71 0 0 1 43.91 0H237a5.71 5.71 0 0 1 5.71 5.71v271.38a5.72 5.72 0 0 1-5.71 5.71ZM43.91.2a5.46 5.46 0 0 0-5.45 5.46v271.43a5.46 5.46 0 0 0 5.45 5.46H237a5.47 5.47 0 0 0 5.46-5.46V5.66A5.47 5.47 0 0 0 237 .2H43.91Z" fill="#E0E0E0"/><path d="M453.31 282.8h-193.1a5.72 5.72 0 0 1-5.71-5.71V5.66A5.72 5.72 0 0 1 260.21 0h193.1A5.71 5.71 0 0 1 459 5.66v271.43a5.71 5.71 0 0 1-5.69 5.71ZM260.21.2a5.47 5.47 0 0 0-5.46 5.46v271.43a5.47 5.47 0 0 0 5.46 5.46h193.1a5.47 5.47 0 0 0 5.46-5.46V5.66A5.47 5.47 0 0 0 453.31.2h-193.1Z" fill="#E0E0E0"/><path d="M439.31 202.23c-12.3-18.73-1.07-38.86-2.94-59.7-1.87-20.84-21.67-25.38-17.92-43 4.34-20.48-7.23-40.13-20.34-40.13S373.44 79 377.78 99.5c3.75 17.65-16 22.2-17.92 43-1.92 20.8 9.36 41-2.95 59.7-12.31 18.7-9.07 43.53-2.14 55.84a47.7 47.7 0 0 0 6.62 9.05 50.19 50.19 0 0 0 73.45 0 48.12 48.12 0 0 0 6.61-9.05c6.94-12.28 10.17-37.04-2.14-55.81Z" fill="#E0E0E0"/><path d="M398.11 216.44a6.23 6.23 0 0 1 6.22 6.22V327.4h-12.44V222.66a6.23 6.23 0 0 1 6.22-6.22Z" fill="#F0F0F0"/><path d="M319.91 327.4H303V222.67a8.48 8.48 0 0 1 8.47-8.47 8.48 8.48 0 0 1 8.47 8.47l-.03 104.73Z" fill="#E0E0E0"/><path d="M311.44 299.15a52.17 52.17 0 1 0 0-104.34 52.17 52.17 0 0 0 0 104.34Z" fill="#F0F0F0"/><path d="M372.74 231.32a20.56 20.56 0 1 0-39.9-9.9 20.56 20.56 0 0 0 39.9 9.9Z" fill="#F0F0F0"/><path d="M281.25 216.15a12.17 12.17 0 1 0-24.02-3.91 12.17 12.17 0 0 0 24.02 3.9Z" fill="#F0F0F0"/><path d="M282.48 216.44a8.54 8.54 0 1 0 0-17.08 8.54 8.54 0 0 0 0 17.08Z" fill="#F0F0F0"/><path d="M204 264.89a56.56 56.56 0 0 0-22.72 8.67c-.06-7.92-1.51-15.43-5.23-21.5-5.66 5.51-10.25 12.65-14 20.33-1.37-14.39-5.16-28.39-13.55-37.26-12.57 7.91-19.05 21.09-22.13 35.05A63.47 63.47 0 0 0 104.9 247c-7.69 8.1-10.15 19.3-9.94 30.78-8.74-10.18-18.44-18.12-27.9-19.05C64.73 274.82 69.69 290 76 302a47.92 47.92 0 0 0 42.47 25.41h41.09c17.51 0 33.93-9.34 42.14-24.81 5.19-9.8 7.67-22.41 2.3-37.71Z" fill="#E0E0E0"/><path d="M192.26 57.14c5.07-14.87 1-25.46-11.37-25.46-7.78 0-17.43 4.17-26.83 10.95-1.06-3.87-4.05-6.18-8.86-6.18-8.47 0-20.14 7.16-29.29 17.26a14 14 0 0 0-9.54-3.85c-8.11-.46-17.92 3.66-26.45 10.35a4.61 4.61 0 0 0-3.76-1.93c-4.67-.26-11 3.9-14.13 9.28-.19.33-.36.66-.54 1h133.23c.4-4.7-.43-8.62-2.46-11.42Z" fill="#F0F0F0"/><path d="M192.67 147.43c2.48-7.26.51-12.43-5.55-12.43-3.81 0-8.52 2-13.11 5.35a4.06 4.06 0 0 0-4.33-3c-4.13 0-9.83 3.5-14.31 8.44a6.79 6.79 0 0 0-4.66-1.88c-4-.23-8.75 1.78-12.92 5.05A2.24 2.24 0 0 0 136 148c-2.28-.13-5.37 1.9-6.9 4.53l-.27.48h65.08a8.17 8.17 0 0 0-1.24-5.58Z" fill="#F0F0F0"/><path d="M342.77 92.49a11.3 11.3 0 0 0-1.55-.11c.48-7.25-2.29-11.89-8.22-11.89-4.27 0-9.52 2.42-14.86 6.51 1.53-14.08-3.37-23.23-14.47-23.23-8.94 0-20.27 6-31.46 15.66-1-5.52-4.28-8.84-9.82-8.84-9.73 0-23.56 10.24-34.65 24.68A14 14 0 0 0 217 89.74c-9.26-.65-20.77 5.23-31 14.81a4.74 4.74 0 0 0-4.21-2.75c-5.07-.36-12 4.93-16.11 12h185.24c4.35-10.72.89-20.1-8.15-21.31Z" fill="#F0F0F0"/><path d="M250 372.56c107.08 0 193.89-5.07 193.89-11.32s-86.8-11.32-193.89-11.32c-107.08 0-193.89 5.07-193.89 11.32s86.8 11.32 193.89 11.32Z" fill="#F5F5F5"/><path d="m48.86 95.56 227.97 32.82 30.59 30.87L48.86 95.56Z" fill="#1E60F6"/><path opacity=".6" d="m48.86 95.56 227.97 32.82 30.59 30.87L48.86 95.56Z" fill="#fff"/><path d="m48.86 95.56 227.97 32.82-10.58 44.64L48.86 95.56Z" fill="#1E60F6"/><path opacity=".2" d="m48.86 95.56 227.97 32.82-10.58 44.64L48.86 95.56Z" fill="#000"/><path d="m261.57 43.88 13.23 62a6.25 6.25 0 0 1-4.8 7.41l-118.08 25.2a6.26 6.26 0 0 1-7.41-4.8l-13.24-62a6.26 6.26 0 0 1 4.81-7.41l118.08-25.2a6.26 6.26 0 0 1 7.41 4.81v-.01Z" fill="#1E60F6"/><path opacity=".4" d="m261.57 43.88 13.23 62a6.25 6.25 0 0 1-4.8 7.41l-118.08 25.2a6.26 6.26 0 0 1-7.41-4.8l-13.24-62a6.26 6.26 0 0 1 4.81-7.41l118.08-25.2a6.26 6.26 0 0 1 7.41 4.81v-.01Z" fill="#000"/><path d="m258.66 39.82-39.45 48.43a25.43 25.43 0 0 1-31.15 6.65l-55.79-28.1c.9-1.3 2.26-2.2 3.81-2.53l118.08-25.2a6.23 6.23 0 0 1 4.5.75Z" fill="#1E60F6"/><path d="m48.86 95.56 188.03 44.69 29.36 32.77L48.86 95.56Z" fill="#1E60F6"/><path opacity=".6" d="m48.86 95.56 188.03 44.69 29.36 32.77L48.86 95.56Z" fill="#fff"/><path d="m117.45 138.63-.5.87 20.92 12.25.5-.86-20.92-12.25Z" fill="#1E60F6"/><path d="m147.61 156.3-.5.86 7.52 4.4.5-.86-7.52-4.4Z" fill="#1E60F6"/><path d="m48.86 95.56 188.03 44.69-36.55 44.05L48.86 95.56Z" fill="#1E60F6"/><path d="M300.36 200.26a2 2 0 0 1-.74-.14L269 188a2 2 0 0 1-.05-3.69 2 2 0 0 1 1.52-.03l30.63 12.12a2 2 0 0 1-.74 3.86Z" fill="#1E60F6"/><path opacity=".3" d="M300.36 200.26a2 2 0 0 1-.74-.14L269 188a2 2 0 0 1-.05-3.69 2 2 0 0 1 1.52-.03l30.63 12.12a2 2 0 0 1-.74 3.86Z" fill="#000"/><path d="M298.55 182.7c-.25 0-.5-.05-.73-.15L281.37 176a1.98 1.98 0 0 1-1.28-1.83 2 2 0 0 1 1.98-2.03 2 2 0 0 1 .77.14l16.45 6.52a2 2 0 0 1 1.13 2.59 2 2 0 0 1-1.87 1.31Z" fill="#1E60F6"/><path opacity=".5" d="M298.55 182.7c-.25 0-.5-.05-.73-.15L281.37 176a1.98 1.98 0 0 1-1.28-1.83 2 2 0 0 1 1.98-2.03 2 2 0 0 1 .77.14l16.45 6.52a2 2 0 0 1 1.13 2.59 2 2 0 0 1-1.87 1.31Z" fill="#fff"/><path d="M264.16 200c-.25 0-.5-.05-.73-.14L233.56 188a1.98 1.98 0 0 1-1.28-1.83 2 2 0 0 1 1.98-2.03 2 2 0 0 1 .77.14l29.87 11.82a2 2 0 0 1-.74 3.86v.04Z" fill="#1E60F6"/><path opacity=".3" d="M264.16 200c-.25 0-.5-.05-.73-.14L233.56 188a1.98 1.98 0 0 1-1.28-1.83 2 2 0 0 1 1.98-2.03 2 2 0 0 1 .77.14l29.87 11.82a2 2 0 0 1-.74 3.86v.04Z" fill="#000"/><path d="M372.3 109.82a275.16 275.16 0 0 1 7.39 15.65c2.31 5.3 4.46 10.67 6.34 16.3l.68 2.13a13.9 13.9 0 0 1 .63 2.8c.23 1.61.35 3.24.35 4.87.01 3-.13 6-.42 9a144.1 144.1 0 0 1-2.72 17.22l-5.49-.61c-.07-5.63-.12-11.32-.32-16.87-.09-2.76-.25-5.53-.53-8.13a30.52 30.52 0 0 0-.6-3.63c-.05-.28-.13-.49-.19-.72-.06-.23-.12-.31-.22-.61l-.76-1.89a338.73 338.73 0 0 0-6.84-15.24l-7.26-15.24 9.96-5.03Z" fill="#E4897B"/><path d="m379.14 175.42-2.56 4.79 8.18 2.28s1.56-3.85-.3-6.89l-5.32-.18Z" fill="#E4897B"/><path d="m373.45 187.11 7.52.6 3.79-5.22-8.18-2.28-3.13 6.9Z" fill="#E4897B"/><path d="M337.87 75.26c-.11.59-.52 1-.9.92-.38-.08-.59-.61-.47-1.19s.52-1 .9-.92c.38.08.6.61.47 1.19Z" fill="#263238"/><path d="M337.41 76.26a21.32 21.32 0 0 1-3.79 4.41 3.45 3.45 0 0 0 2.67 1.08l1.12-5.49Z" fill="#DE5753"/><path d="M340.65 72.47a.36.36 0 0 1-.25-.11 2.78 2.78 0 0 0-2.33-.94.35.35 0 0 1-.12-.68 3.4 3.4 0 0 1 3 1.15.35.35 0 0 1 0 .49.36.36 0 0 1-.3.09Z" fill="#263238"/><path d="M354.41 83.43c-1.05 5.38-2.1 15.22 1.66 18.81 0 0-1.47 5.45-11.46 5.45-11 0-5.24-5.45-5.24-5.45 6-1.43 5.83-5.88 4.79-10.05l10.25-8.76Z" fill="#E4897B"/><path d="M357.58 105.63c.79-2.63 1.66-5.64-.14-6.59-2-1-12.87-2.1-16.62-.15-3.75 1.95-2.68 7.3-2.68 7.3l19.44-.56Z" fill="#263238"/><path d="M380.64 355a2.36 2.36 0 0 1-1.76-.48.71.71 0 0 1 0-.83.83.83 0 0 1 .55-.41c1.08-.24 3.1 1.14 3.19 1.2a.2.2 0 0 1 .07.18c0 .03-.02.06-.04.09a9.32 9.32 0 0 1-2 .25Zm-.92-1.4h-.21a.47.47 0 0 0-.32.24c-.16.28-.06.4 0 .44.31.42 1.81.42 2.91.24a5.78 5.78 0 0 0-2.38-.9v-.02Z" fill="#1E60F6"/><path d="M382.52 354.82h-.08c-.76-.42-2.23-2-2.08-2.84.03-.13.1-.25.2-.33.1-.08.23-.13.36-.13a1 1 0 0 1 .74.22c.85.7 1 2.82 1 2.91 0 .03 0 .06-.02.1a.16.16 0 0 1-.06.06.14.14 0 0 1-.06.01Zm-1.48-3H381c-.23 0-.25.14-.26.18-.09.49.85 1.7 1.6 2.27a4.2 4.2 0 0 0-.86-2.3.64.64 0 0 0-.48-.13l.04-.02Z" fill="#1E60F6"/><path d="M336.53 355c-.94 0-1.85-.13-2.16-.55a.66.66 0 0 1 0-.76.9.9 0 0 1 .56-.41c1.21-.33 3.79 1.13 3.9 1.19a.18.18 0 0 1 .08.18c0 .04-.02.07-.05.1a.16.16 0 0 1-.09.04c-.74.14-1.49.2-2.24.21Zm-1.17-1.42c-.1-.02-.22-.02-.33 0a.51.51 0 0 0-.34.24c-.13.22-.08.32 0 .38.33.46 2.19.49 3.57.3-.9-.49-1.88-.8-2.9-.9v-.02Z" fill="#1E60F6"/><path d="M338.75 354.82h-.07c-.89-.39-2.64-2-2.51-2.81 0-.2.17-.44.65-.49a1.22 1.22 0 0 1 1 .3c.94.76 1.13 2.74 1.14 2.83a.17.17 0 0 1-.07.16.17.17 0 0 1-.14.01Zm-1.79-3h-.11c-.31 0-.33.16-.34.2-.08.5 1.12 1.75 2 2.29a4 4 0 0 0-1-2.26.88.88 0 0 0-.51-.21l-.04-.02Z" fill="#1E60F6"/><path d="M346.83 354.64h-7.35l-.73-17.01h7.35l.73 17.01Z" fill="#E4897B"/><path d="M390.94 354.64h-7.35l-3.69-17.01h7.34l3.7 17.01Z" fill="#E4897B"/><path d="M383.07 353.79h8.25a.65.65 0 0 1 .63.51l1.45 6.53a1.08 1.08 0 0 1-.6 1.2c-.16.07-.32.1-.48.1-2.88-.05-4.28-.22-7.91-.22-2.23 0-6.83.24-9.92.24s-3.48-3-2.22-3.33c5.66-1.24 7.79-2.95 9.6-4.57.33-.3.76-.46 1.2-.46Z" fill="#263238"/><path d="M339.53 353.79h8a.65.65 0 0 1 .63.51l1.45 6.53a1.07 1.07 0 0 1-1.06 1.3c-2.89-.05-7.07-.22-10.71-.22-4.25 0-7.93.24-12.92.24-3 0-3.85-3-2.59-3.33 5.75-1.26 10.44-1.39 15.41-4.45a3.36 3.36 0 0 1 1.79-.58Z" fill="#263238"/><path d="M336 115.14a169.16 169.16 0 0 1-18.31-2.43c-3-.58-6.06-1.23-9.1-2.05a73.1 73.1 0 0 1-9.16-3c-.77-.32-1.55-.67-2.32-1-.87-.43-1.7-.91-2.5-1.46-1.44-.95-2.68-1.94-3.91-2.92-2.45-2-4.72-4-7-6.05a210.78 210.78 0 0 1-12.8-12.92l3.68-4.11 14.51 10.43c2.39 1.72 4.81 3.41 7.19 5a56.7 56.7 0 0 0 3.5 2.16c.46.26.95.5 1.44.7.59.23 1.19.46 1.82.68 5.4 1.66 10.93 2.9 16.53 3.7 5.71.9 11.61 1.64 17.31 2.24l-.88 11.03Z" fill="#E4897B"/><path d="M369.22 103.9c6.89 1.58 13.85 21.71 13.85 21.71l-14.17 10.17s-4-9.38-7.86-17.58c-4.04-8.59 1.14-15.91 8.18-14.3Z" fill="#1E60F6"/><path opacity=".4" d="M369.22 103.9c6.89 1.58 13.85 21.71 13.85 21.71l-14.17 10.17s-4-9.38-7.86-17.58c-4.04-8.59 1.14-15.91 8.18-14.3Z" fill="#000"/><path d="m365.25 114.9-2.81 6.29c2.91 6.28 5.57 12.5 6.28 14.16-.1-7.43-1.51-16.65-3.47-20.45Z" fill="#1E60F6"/><path opacity=".6" d="m365.25 114.9-2.81 6.29c2.91 6.28 5.57 12.5 6.28 14.16-.1-7.43-1.51-16.65-3.47-20.45Z" fill="#000"/><path d="M328.07 104.28s-7.82 8.83-.44 63.5h39.29c.28-6-3.51-35.46 2.3-63.88-4.34-.84-8.74-1.4-13.15-1.66-5.56-.32-11.14-.32-16.7 0-3.81.38-7.6 1.07-11.3 2.04Z" fill="#1E60F6"/><path opacity=".4" d="M328.07 104.28s-7.82 8.83-.44 63.5h39.29c.28-6-3.51-35.46 2.3-63.88-4.34-.84-8.74-1.4-13.15-1.66-5.56-.32-11.14-.32-16.7 0-3.81.38-7.6 1.07-11.3 2.04Z" fill="#000"/><path d="M325.16 114.9a94.02 94.02 0 0 0-.59 7.41 41.1 41.1 0 0 0 10.94-5.14l-10.35-2.27Z" fill="#1E60F6"/><path opacity=".6" d="M325.16 114.9a94.02 94.02 0 0 0-.59 7.41 41.1 41.1 0 0 0 10.94-5.14l-10.35-2.27Z" fill="#000"/><path d="M342 116c-5.26 4.66-25.34 4.19-25.34 4.19l-.66-19.44c6.78.97 13.62 1.46 20.47 1.48 11.19-.23 11.27 8.63 5.53 13.77Z" fill="#1E60F6"/><path opacity=".4" d="M342 116c-5.26 4.66-25.34 4.19-25.34 4.19l-.66-19.44c6.78.97 13.62 1.46 20.47 1.48 11.19-.23 11.27 8.63 5.53 13.77Z" fill="#000"/><path d="m274.77 79.24-5-5.89-5.39 6s3.32 5.58 8.59 4.7l1.8-4.81Z" fill="#E4897B"/><path d="m262.61 66.48-1.94 7.69 3.67 5.14 5.39-5.96-7.12-6.87Z" fill="#E4897B"/><path d="m338.75 337.64.38 8.76h7.35l-.38-8.76h-7.35Z" fill="#CE6F64"/><path d="M387.25 337.64h-7.35l1.9 8.76h7.35l-1.9-8.76Z" fill="#CE6F64"/><path d="M343.17 68c-6.59-3-8.67-16.33 10.29-13 0 0-2.86 3.16 2.94 5.16s.95 14.35-13.23 7.84Z" fill="#263238"/><path d="M357.49 78c-1.89 7-2.63 11.26-7 14.19-6.54 4.4-14.67-.65-14.93-8.12-.23-6.71 2.9-17.1 10.45-18.52A9.94 9.94 0 0 1 357.49 78Z" fill="#E4897B"/><path d="M353.2 58.5c4.49 2.5 10.57 4 10 7.56-.75 4.35 3.67 1.63 2.64 8.1-.67 4.23-8.47 17.05-14 16.43-8.26-1-7.21-13.56-7.24-20.18-.02-3.91-.2-16.84 8.6-11.91Z" fill="#263238"/><path d="M343.61 64.11c-2 .47-4.65 12 3.1 13.06 8.91 1.21-3.1-13.06-3.1-13.06Z" fill="#263238"/><path d="M343.81 68.2c-2.45.22-8-2.73-7.32-7.17 0-.03 3.51 5.19 7.32 7.17Z" fill="#263238"/><path d="M347.45 78.09a8.2 8.2 0 0 1-3.63 3.85c-2.11 1.1-3.3-.5-2.82-2.62.43-1.9 2.05-4.77 4.22-5 2.17-.23 3.1 1.77 2.23 3.77Z" fill="#E4897B"/><path d="M358.45 70a9.85 9.85 0 0 0 5.78-7.33s3.3 9.17-5.78 7.33Z" fill="#263238"/><path d="M366.79 69.85a5.07 5.07 0 0 0-4.78-.47s3.08-3.99 4.78.47Z" fill="#263238"/><path d="M341.57 167.78s8.34 56.14 12.91 77.17c5 23 23.9 99.76 23.9 99.76h13.45s-12.45-74.87-15.31-97.71c-3.1-24.75-9.6-79.26-9.6-79.26l-25.35.04Z" fill="#1E60F6"/><path opacity=".5" d="M341.57 167.78s8.34 56.14 12.91 77.17c5 23 23.9 99.76 23.9 99.76h13.45s-12.45-74.87-15.31-97.71c-3.1-24.75-9.6-79.26-9.6-79.26l-25.35.04Z" fill="#fff"/><path d="M376.23 339.75c-.06 0 1.39 5.17 1.39 5.17h15.14l-.28-4.61-16.25-.56Z" fill="#1E60F6"/><path opacity=".1" d="M376.23 339.75c-.06 0 1.39 5.17 1.39 5.17h15.14l-.28-4.61-16.25-.56Z" fill="#000"/><path d="M346.84 187.78c9.64 1.89 8.62 37.84 7.46 56.33-2.78-13.07-6.85-38.22-9.63-56.07a3.3 3.3 0 0 1 2.17-.26Z" fill="#1E60F6"/><path opacity=".4" d="M346.84 187.78c9.64 1.89 8.62 37.84 7.46 56.33-2.78-13.07-6.85-38.22-9.63-56.07a3.3 3.3 0 0 1 2.17-.26Z" fill="#fff"/><path d="M327.63 167.78s-1 54.92-.21 77.33c.83 23.3 9 99.6 9 99.6h12.44s.46-74.94 1-97.82c.61-24.95 3.62-79.11 3.62-79.11h-25.85Z" fill="#1E60F6"/><path opacity=".5" d="M327.63 167.78s-1 54.92-.21 77.33c.83 23.3 9 99.6 9 99.6h12.44s.46-74.94 1-97.82c.61-24.95 3.62-79.11 3.62-79.11h-25.85Z" fill="#fff"/><path d="M339 335.77a.12.12 0 0 1-.12-.11c-2.2-21.12-7.37-72.22-8-90.55-.67-18.71-.06-60.69.14-73.11 0-.03.01-.06.04-.09a.12.12 0 0 1 .08-.03l.09.03c.02.03.04.06.04.09-.2 12.42-.81 54.4-.14 73.1.65 18.33 5.82 69.41 8 90.53 0 .03-.01.07-.03.1a.14.14 0 0 1-.09.04H339Z" fill="#1E60F6"/><path opacity=".4" d="M339 335.77a.12.12 0 0 1-.12-.11c-2.2-21.12-7.37-72.22-8-90.55-.67-18.71-.06-60.69.14-73.11 0-.03.01-.06.04-.09a.12.12 0 0 1 .08-.03l.09.03c.02.03.04.06.04.09-.2 12.42-.81 54.4-.14 73.1.65 18.33 5.82 69.41 8 90.53 0 .03-.01.07-.03.1a.14.14 0 0 1-.09.04H339Z" fill="#fff"/><path d="M334 339.75c-.05 0 .71 5.17.71 5.17h15.13l.41-4.61-16.25-.56Z" fill="#1E60F6"/><path opacity=".1" d="M334 339.75c-.05 0 .71 5.17.71 5.17h15.13l.41-4.61-16.25-.56Z" fill="#000"/></svg>