<svg fill="none" xmlns="http://www.w3.org/2000/svg" viewBox="0 0 269 201"><g clip-path="url(#a)"><path d="M269 176.7H0v.2h269v-.2Zm-27 8.7h-17.8v.1H242v-.1Zm-63.8 1.4h-4.7v.2h4.7v-.2Zm45.5-6.4h-10.3v.1h10.3v-.1Zm-172.2.9H28.2v.1h23.3v-.1Zm8.2 0h-3.4v.1h3.4v-.1Zm61.4 2.3H70.7v.1h50.4v-.1Zm6.4-30.9H23.6a3 3 0 0 1-3-3V3.7a3 3 0 0 1 3-3.1h103.9a3 3 0 0 1 3 3v146a3 3 0 0 1-3 3.1ZM23.6.7a3 3 0 0 0-2.9 3v146a3 3 0 0 0 3 2.9h103.8a3 3 0 0 0 3-3V3.7a3 3 0 0 0-3-2.9H23.6Zm220.3 152H140a3 3 0 0 1-3-3V3.7a3 3 0 0 1 3-3.1h103.9a3 3 0 0 1 3 3v146a3 3 0 0 1-3 3.1ZM140 .7a3 3 0 0 0-3 3v146a3 3 0 0 0 3 2.9h103.9a3 3 0 0 0 3-3V3.7a3 3 0 0 0-3-2.9H140Z" fill="#EBEBEB"/><path d="M91.2 173h-1.5l.1-1.8c25.5 1.3 32.9-33.8 37.7-57a69 69 0 0 1 5.4-18.9c7.5-11 19.7-9.3 19.9-9.3l-.3 1.8c-.5 0-11.3-1.5-18.1 8.5a71 71 0 0 0-5.1 18.3C124.3 138 117 173 91.2 173Z" fill="#E6E6E6"/><path d="M81.1 167.3v-1.8c14.8-1 23.2-17.4 31.3-33.3 4.5-8.9 8.8-17.3 14.2-23C141.7 93 149 95.4 149.4 95.5l-.6 1.6.3-.8-.3.8s-6.8-1.8-21 13.3a102 102 0 0 0-13.9 22.7c-8.3 16.3-16.9 33-32.8 34.2Z" fill="#E6E6E6"/><path d="m89.9 170.6-.6-1.6c5.2-1.7 8.3-7.7 12-14.8 4.4-8.5 9.4-18.2 19.6-23.5 18.8-9.9 41.7 2.8 42.7 3.3l-1 1.6c-.1-.2-23-12.8-40.9-3.4-9.7 5.1-14.6 14.5-19 22.8-3.7 7.4-7 13.8-12.8 15.6Zm-2.8 5.8v-1.8c.2 0 25-1.3 38.5-13.9 14-13 31.2-8.3 31.4-8.3l-.5 1.7c-.2 0-16.4-4.5-29.7 8-14 13-38.7 14.2-39.7 14.3Z" fill="#E6E6E6"/><path d="M218 68h-70.1v108.3h70V68Z" fill="#E0E0E0"/><path d="M203 68h-57.3v108.3h57.2V68Z" fill="#EBEBEB"/><path d="M201 69.3h-53.4v107H201v-107Z" fill="#E0E0E0"/><path d="M173.6 167.8h-16.8c-.5 0-1 .4-1 1v3.6c0 .5.5 1 1 1h16.8c.5 0 .9-.5.9-1v-3.7c0-.5-.4-.9-1-.9Z" fill="#F0F0F0"/><path d="M173.6 167.8h-16.8c-.5 0-1 .4-1 1v3.6c0 .5.5 1 1 1h16.8c.5 0 .9-.5.9-1v-3.7c0-.5-.4-.9-1-.9Z" fill="#E6E6E6"/><path d="M167.2 167.8h-16.8c-.5 0-.9.4-.9 1v3.6c0 .5.4 1 1 1h16.7c.5 0 1-.5 1-1v-3.7c0-.5-.5-.9-1-.9Z" fill="#F0F0F0"/><path d="M166.3 170.6a1.1 1.1 0 0 1-.7 1 1.2 1.2 0 0 1-1.3-.3 1.2 1.2 0 1 1 2-.7Z" fill="#FAFAFA"/><path d="M165.7 170.6a.6.6 0 0 1-.2.4.6.6 0 0 1-1-.3v-.2a.6.6 0 0 1 .7-.5.6.6 0 0 1 .5.6Z" fill="#F0F0F0"/><path d="M162.7 170h-1.3v1.2h1.3V170Z" fill="#FAFAFA"/><path d="M173.6 161.9h-16.8c-.5 0-1 .4-1 .9v3.7c0 .5.5.8 1 .8h16.8c.5 0 .9-.4.9-.8v-3.7c0-.5-.4-1-1-1Z" fill="#F0F0F0"/><path d="M173.6 161.9h-16.8c-.5 0-1 .4-1 .9v3.7c0 .5.5.8 1 .8h16.8c.5 0 .9-.4.9-.8v-3.7c0-.5-.4-1-1-1Z" fill="#E6E6E6"/><path d="M167.2 161.9h-16.8c-.5 0-.9.4-.9.9v3.7c0 .5.4.8 1 .8h16.7c.5 0 1-.4 1-.8v-3.7c0-.5-.5-1-1-1Z" fill="#F0F0F0"/><path d="M166.3 164.6a1.1 1.1 0 1 1-2.3 0 1.1 1.1 0 0 1 2.3 0Z" fill="#FAFAFA"/><path d="M165.7 164.6a.6.6 0 0 1-.3.6.6.6 0 0 1-.8-.8.6.6 0 0 1 1-.1l.1.3Z" fill="#F0F0F0"/><path d="M162.7 164h-1.3v1.3h1.3V164Z" fill="#FAFAFA"/><path d="M173.6 156h-16.8c-.5 0-1 .3-1 .8v3.7c0 .5.5.9 1 .9h16.8c.5 0 .9-.4.9-.9v-3.7c0-.5-.4-.9-1-.9Z" fill="#F0F0F0"/><path d="M173.6 156h-16.8c-.5 0-1 .3-1 .8v3.7c0 .5.5.9 1 .9h16.8c.5 0 .9-.4.9-.9v-3.7c0-.5-.4-.9-1-.9Z" fill="#E6E6E6"/><path d="M167.2 156h-16.8c-.5 0-.9.3-.9.8v3.7c0 .5.4.9 1 .9h16.7c.5 0 1-.4 1-.9v-3.7c0-.5-.5-.9-1-.9Z" fill="#F0F0F0"/><path d="M166.3 158.7a1.1 1.1 0 1 1-2.3 0 1.1 1.1 0 0 1 2.3 0Z" fill="#FAFAFA"/><path d="M165.7 158.7a.6.6 0 0 1-.2.4.6.6 0 0 1-.5.1.6.6 0 0 1-.4-.4.6.6 0 0 1 .6-.7.6.6 0 0 1 .5.3v.3Z" fill="#F0F0F0"/><path d="M162.7 158h-1.3v1.3h1.3V158Z" fill="#FAFAFA"/><path d="M173.6 150h-16.8c-.5 0-1 .4-1 .8v3.7c0 .5.5 1 1 1h16.8c.5 0 .9-.5.9-1v-3.7c0-.5-.4-.8-1-.8Z" fill="#F0F0F0"/><path d="M173.6 150h-16.8c-.5 0-1 .4-1 .8v3.7c0 .5.5 1 1 1h16.8c.5 0 .9-.5.9-1v-3.7c0-.5-.4-.8-1-.8Z" fill="#E6E6E6"/><path d="M167.2 150h-16.8c-.5 0-.9.4-.9.8v3.7c0 .5.4 1 1 1h16.7c.5 0 1-.5 1-1v-3.7c0-.5-.5-.8-1-.8Z" fill="#F0F0F0"/><path d="M166.3 152.7a1.1 1.1 0 0 1-1.2 1.1 1.1 1.1 0 0 1-1.1-1.1 1.2 1.2 0 0 1 2.3 0Z" fill="#FAFAFA"/><path d="M165.7 152.7a.6.6 0 0 1-.3.5.6.6 0 0 1-.8-.3v-.3a.6.6 0 0 1 .5-.6.6.6 0 0 1 .6.7Z" fill="#F0F0F0"/><path d="M162.7 152h-1.3v1.3h1.3V152Z" fill="#FAFAFA"/><path d="M173.6 144h-16.8c-.5 0-.9.4-.9.9v3.7c0 .5.4.9.9.9h16.8c.5 0 .9-.4.9-1V145c0-.5-.4-1-.9-1v.1Z" fill="#F0F0F0"/><path d="M173.6 144h-16.8c-.5 0-.9.4-.9.9v3.7c0 .5.4.9.9.9h16.8c.5 0 .9-.4.9-1V145c0-.5-.4-1-.9-1v.1Z" fill="#E6E6E6"/><path d="M167.3 144h-16.8c-.5 0-1 .4-1 .9v3.7c0 .5.5.9 1 .9h16.8c.5 0 .9-.4.9-1V145c0-.5-.4-1-1-1v.1Z" fill="#F0F0F0"/><path d="M165.2 147.9a1.2 1.2 0 0 0 .9-.3 1.2 1.2 0 0 0-1-2 1.1 1.1 0 1 0 0 2.3Z" fill="#FAFAFA"/><path d="M165.8 146.7a.6.6 0 0 1-.4.6h-.3c-.1 0-.2 0-.3-.2-.1 0-.2-.1-.2-.3v-.3a.6.6 0 0 1 1.2.2Z" fill="#F0F0F0"/><path d="M162.7 146h-1.3v1.4h1.3V146Z" fill="#FAFAFA"/><path d="M173.7 138h-16.9c-.5 0-.9.4-.9 1v3.6c0 .5.4.9 1 .9h16.8c.5 0 .8-.4.8-.9V139c0-.5-.4-.9-.8-.9Z" fill="#F0F0F0"/><path d="M173.7 138h-16.9c-.5 0-.9.4-.9 1v3.6c0 .5.4.9 1 .9h16.8c.5 0 .8-.4.8-.9V139c0-.5-.4-.9-.8-.9Z" fill="#E6E6E6"/><path d="M167.3 138h-16.8c-.5 0-.9.4-.9 1v3.6c0 .5.4.9.9.9h16.8c.5 0 .9-.4.9-.9V139c0-.5-.4-.9-.9-.9Z" fill="#F0F0F0"/><path d="M166.4 140.8a1.1 1.1 0 1 1-2.3 0 1.1 1.1 0 0 1 2.3 0Z" fill="#FAFAFA"/><path d="M165.8 140.8a.6.6 0 0 1-.1.4.6.6 0 0 1-.7.2.6.6 0 0 1-.4-.6.6.6 0 0 1 .6-.6.6.6 0 0 1 .6.6Z" fill="#F0F0F0"/><path d="M162.8 140.1h-1.3v1.3h1.3v-1.3Z" fill="#FAFAFA"/><path d="M173.7 132h-16.8c-.5 0-1 .5-1 1v3.7c0 .4.5.8 1 .8h16.8c.5 0 .9-.4.9-.8V133c0-.5-.4-1-1-1h.1Z" fill="#F0F0F0"/><path d="M173.7 132h-16.8c-.5 0-1 .5-1 1v3.7c0 .4.5.8 1 .8h16.8c.5 0 .9-.4.9-.8V133c0-.5-.4-1-1-1h.1Z" fill="#E6E6E6"/><path d="M167.3 132h-16.8c-.5 0-.8.5-.8 1v3.7c0 .4.4.8.8.8h16.8c.5 0 1-.4 1-.8V133c0-.5-.5-1-1-1Z" fill="#F0F0F0"/><path d="M166.4 134.8a1.2 1.2 0 0 1-.9 1.1h-.5a1.1 1.1 0 0 1-.9-.8 1.1 1.1 0 0 1 .4-1.2 1.2 1.2 0 0 1 1.3-.1 1.2 1.2 0 0 1 .6 1Z" fill="#FAFAFA"/><path d="M165.8 134.8a.6.6 0 0 1-.1.4.6.6 0 0 1-1-.3.6.6 0 1 1 1.1-.1Z" fill="#F0F0F0"/><path d="M162.8 134.2h-1.3v1.3h1.3v-1.3Z" fill="#FAFAFA"/><path d="M173.7 126.1H157c-.5 0-.9.4-.9.9v3.7c0 .5.4.9 1 .9h16.7c.5 0 1-.4 1-1V127c0-.5-.5-.9-1-.9Z" fill="#F0F0F0"/><path d="M173.7 126.1H157c-.5 0-.9.4-.9.9v3.7c0 .5.4.9 1 .9h16.7c.5 0 1-.4 1-1V127c0-.5-.5-.9-1-.9Z" fill="#E6E6E6"/><path d="M167.4 126.1h-16.8c-.5 0-1 .4-1 .9v3.7c0 .5.5.9 1 .9h16.8c.5 0 .9-.4.9-1V127c0-.5-.4-.9-1-.9h.1Z" fill="#F0F0F0"/><path d="M166.4 128.8a1.1 1.1 0 1 1-2.2 0 1.1 1.1 0 0 1 2.3 0Z" fill="#FAFAFA"/><path d="M165.9 128.8a.6.6 0 0 1-.2.5.6.6 0 0 1-.6.2.6.6 0 0 1-.4-.7.6.6 0 0 1 1-.3l.2.3Z" fill="#F0F0F0"/><path d="M162.8 128.2h-1.3v1.3h1.3v-1.3Z" fill="#FAFAFA"/><path d="M173.8 120.2h-16.9c-.5 0-.8.3-.8.8v3.7c0 .5.3 1 .8 1h16.9c.5 0 .9-.5.9-1V121c0-.5-.4-.8-1-.8Z" fill="#F0F0F0"/><path d="M173.8 120.2h-16.9c-.5 0-.8.3-.8.8v3.7c0 .5.3 1 .8 1h16.9c.5 0 .9-.5.9-1V121c0-.5-.4-.8-1-.8Z" fill="#E6E6E6"/><path d="M167.4 120.2h-16.8c-.5 0-.9.3-.9.8v3.7c0 .5.4 1 1 1h16.7c.5 0 1-.5 1-1V121c0-.5-.5-.8-1-.8Z" fill="#F0F0F0"/><path d="M166.5 122.9a1.1 1.1 0 0 1-.4.8 1.2 1.2 0 0 1-1.8-.4l-.1-.4a1.2 1.2 0 0 1 1.1-1.2 1.2 1.2 0 0 1 1.2 1.2Z" fill="#FAFAFA"/><path d="M165.3 123.5a.6.6 0 1 0 0-1.2.6.6 0 0 0 0 1.2Z" fill="#F0F0F0"/><path d="M162.9 122.2h-1.3v1.3h1.3v-1.3Z" fill="#FAFAFA"/><path d="M173.8 114.2H157c-.5 0-1 .4-1 .9v3.7c0 .5.5.8 1 .8h16.8c.5 0 .9-.4.9-.8V115c0-.5-.4-1-.9-1Z" fill="#F0F0F0"/><path d="M173.8 114.2H157c-.5 0-1 .4-1 .9v3.7c0 .5.5.8 1 .8h16.8c.5 0 .9-.4.9-.8V115c0-.5-.4-1-.9-1Z" fill="#E6E6E6"/><path d="M167.5 114.2h-16.8c-.5 0-1 .4-1 .9v3.7c0 .5.5.8 1 .8h16.8c.5 0 .9-.4.9-.8V115c0-.5-.4-1-1-1Z" fill="#F0F0F0"/><path d="M166.5 117a1.1 1.1 0 0 1-.3.7 1.2 1.2 0 0 1-1.9-.3v-.5a1.2 1.2 0 0 1 1-1.1 1.2 1.2 0 0 1 1.2 1.1Z" fill="#FAFAFA"/><path d="M165.4 117.5c.1 0 .3 0 .4-.2a.6.6 0 0 0 0-.8.6.6 0 0 0-.8 0 .6.6 0 0 0 0 .8l.4.2Z" fill="#F0F0F0"/><path d="M163 116.3h-1.4v1.3h1.3v-1.3Z" fill="#FAFAFA"/><path d="M173.8 108.2H157c-.5 0-.9.4-.9 1v3.6c0 .5.4.9 1 .9h16.7c.5 0 1-.4 1-1v-3.6c0-.5-.5-.9-1-.9Z" fill="#F0F0F0"/><path d="M173.8 108.2H157c-.5 0-.9.4-.9 1v3.6c0 .5.4.9 1 .9h16.7c.5 0 1-.4 1-1v-3.6c0-.5-.5-.9-1-.9Z" fill="#E6E6E6"/><path d="M167.5 108.2h-16.8c-.5 0-.9.4-.9 1v3.6c0 .5.4.9.9.9h16.8c.5 0 1-.4 1-1v-3.6c0-.5-.5-.9-1-.9Z" fill="#F0F0F0"/><path d="M166.6 111a1.1 1.1 0 0 1-2 .8 1.2 1.2 0 1 1 2-.8Z" fill="#FAFAFA"/><path d="M166 111a.6.6 0 0 1-1 .5.6.6 0 0 1-.2-.4.6.6 0 0 1 .3-.6.6.6 0 0 1 .5 0 .6.6 0 0 1 .3.2v.3h.1Z" fill="#F0F0F0"/><path d="M163 110.3h-1.3v1.3h1.3v-1.3Z" fill="#FAFAFA"/><path d="M173.9 102.3H157c-.5 0-1 .4-1 .9v3.6c0 .5.5 1 1 1h16.8c.5 0 .9-.5.9-1v-3.6c0-.5-.4-1-1-1Z" fill="#F0F0F0"/><path d="M173.9 102.3H157c-.5 0-1 .4-1 .9v3.6c0 .5.5 1 1 1h16.8c.5 0 .9-.5.9-1v-3.6c0-.5-.4-1-1-1Z" fill="#E6E6E6"/><path d="M167.5 102.3h-16.8c-.5 0-.9.4-.9.9v3.6c0 .5.4 1 1 1h16.7c.5 0 1-.5 1-1v-3.6c0-.5-.5-1-1-1Z" fill="#F0F0F0"/><path d="M166.6 105a1.2 1.2 0 0 1-.9 1.1h-.5a1.2 1.2 0 0 1-.9-.9 1.1 1.1 0 0 1 .5-1.2 1.1 1.1 0 0 1 1.8 1Z" fill="#FAFAFA"/><path d="M166 105a.6.6 0 0 1-.3.6.6.6 0 0 1-.5 0l-.2-.1a.6.6 0 0 1-.1-.5.6.6 0 0 1 1.1 0Z" fill="#F0F0F0"/><path d="M163 104.3h-1.3v1.3h1.3v-1.3Z" fill="#FAFAFA"/><path d="M174 96.3H157c-.5 0-.9.4-.9.9v3.7c0 .5.4.9.9.9h16.8c.5 0 1-.4 1-1v-3.6c0-.5-.5-1-1-1v.1Z" fill="#F0F0F0"/><path d="M174 96.3H157c-.5 0-.9.4-.9.9v3.7c0 .5.4.9.9.9h16.8c.5 0 1-.4 1-1v-3.6c0-.5-.5-1-1-1v.1Z" fill="#E6E6E6"/><path d="M167.6 96.3h-16.8c-.5 0-1 .4-1 .9v3.7c0 .5.5.9 1 .9h16.8c.5 0 .9-.4.9-1v-3.6c0-.5-.4-1-1-1v.1Z" fill="#F0F0F0"/><path d="M166.6 99a1.1 1.1 0 0 1-.3.9 1.2 1.2 0 0 1-2-.9 1.1 1.1 0 1 1 2.3 0Z" fill="#FAFAFA"/><path d="M166 99a.6.6 0 1 1-1.1 0 .6.6 0 0 1 1.2 0Z" fill="#F0F0F0"/><path d="M163 98.4h-1.3v1.3h1.3v-1.3Z" fill="#FAFAFA"/><path d="M174 90.3H157c-.5 0-.8.4-.8 1v3.6c0 .5.3.9.8.9H174c.4 0 .8-.4.8-.9v-3.7c0-.5-.4-.9-.8-.9Z" fill="#F0F0F0"/><path d="M174 90.3H157c-.5 0-.8.4-.8 1v3.6c0 .5.3.9.8.9H174c.4 0 .8-.4.8-.9v-3.7c0-.5-.4-.9-.8-.9Z" fill="#E6E6E6"/><path d="M167.6 90.3h-16.8c-.5 0-.9.4-.9 1v3.6c0 .5.4.9.9.9h16.8c.5 0 1-.4 1-.9v-3.7c0-.5-.5-.9-1-.9Z" fill="#F0F0F0"/><path d="M165.5 94.2a1.2 1.2 0 0 0 .5-2.2h-.5a1.1 1.1 0 1 0 0 2.2Z" fill="#FAFAFA"/><path d="M166.1 93a.6.6 0 1 1-1.2 0 .6.6 0 0 1 1.2 0Z" fill="#F0F0F0"/><path d="M163 92.4h-1.2v1.3h1.3v-1.3Z" fill="#FAFAFA"/><path d="M174 84.4h-16.8c-.5 0-1 .4-1 .9V89c0 .4.5.8 1 .8H174c.5 0 .9-.4.9-.8v-3.7c0-.5-.4-1-.9-1Z" fill="#F0F0F0"/><path d="M174 84.4h-16.8c-.5 0-1 .4-1 .9V89c0 .4.5.8 1 .8H174c.5 0 .9-.4.9-.8v-3.7c0-.5-.4-1-.9-1Z" fill="#E6E6E6"/><path d="M167.7 84.4h-16.9c-.5 0-.9.4-.9.9V89c0 .4.4.8 1 .8h16.8c.5 0 .8-.4.8-.8v-3.7c0-.5-.4-1-.8-1Z" fill="#F0F0F0"/><path d="M165.6 88.3a1.1 1.1 0 1 0 0-2.3 1.1 1.1 0 0 0 0 2.3Z" fill="#FAFAFA"/><path d="M166.2 87.1a.6.6 0 0 1-.4.6.6.6 0 0 1-.8-.5.6.6 0 0 1 .6-.7c.1 0 .3 0 .4.2a.6.6 0 0 1 .2.4Z" fill="#F0F0F0"/><path d="M163.1 86.5h-1.3v1.3h1.3v-1.3Z" fill="#FAFAFA"/><path d="M174 78.4h-16.8c-.5 0-.9.4-.9.9V83c0 .5.4.9 1 .9H174c.5 0 1-.4 1-1v-3.6c0-.5-.5-.9-1-.9Z" fill="#F0F0F0"/><path d="M174 78.4h-16.8c-.5 0-.9.4-.9.9V83c0 .5.4.9 1 .9H174c.5 0 1-.4 1-1v-3.6c0-.5-.5-.9-1-.9Z" fill="#E6E6E6"/><path d="M167.7 78.4h-16.8c-.5 0-1 .4-1 .9V83c0 .5.5.9 1 .9h16.8c.5 0 .9-.4.9-1v-3.6c0-.5-.4-.9-1-.9h.1Z" fill="#F0F0F0"/><path d="M166.8 81.1a1.1 1.1 0 0 1-.4.9 1.2 1.2 0 0 1-1.2.2 1.2 1.2 0 0 1-.8-1 1.2 1.2 0 0 1 2-.9c.2.2.3.5.3.8Z" fill="#FAFAFA"/><path d="M166.2 81.1a.6.6 0 0 1-1 .4.6.6 0 0 1-.2-.4.6.6 0 0 1 .8-.6l.2.2a.6.6 0 0 1 .2.4Z" fill="#F0F0F0"/><path d="M163.1 80.5h-1.3v1.3h1.3v-1.3Z" fill="#FAFAFA"/><path d="M174 72.4h-16.8c-.4 0-.8.4-.8 1V77c0 .5.3 1 .8 1h16.9c.5 0 .9-.5.9-1v-3.7c0-.5-.4-.9-1-.9Z" fill="#F0F0F0"/><path d="M174 72.4h-16.8c-.4 0-.8.4-.8 1V77c0 .5.3 1 .8 1h16.9c.5 0 .9-.5.9-1v-3.7c0-.5-.4-.9-1-.9Z" fill="#E6E6E6"/><path d="M167.7 72.4H151c-.5 0-.9.4-.9 1V77c0 .5.4 1 1 1h16.7c.5 0 1-.5 1-1v-3.7c0-.5-.5-.9-1-.9Z" fill="#F0F0F0"/><path d="M166.8 75.2a1.1 1.1 0 1 1-2.3 0 1.1 1.1 0 0 1 2.3 0Z" fill="#FAFAFA"/><path d="M166.2 75.2Z" fill="#F0F0F0"/><path d="M163.2 74.5h-1.3v1.3h1.3v-1.3Z" fill="#FAFAFA"/><path d="M196.6 167.8h-16.8c-.5 0-.9.4-.9 1v3.6c0 .5.4 1 1 1h16.7c.5 0 1-.5 1-1v-3.7c0-.5-.5-.9-1-.9Z" fill="#F0F0F0"/><path d="M196.6 167.8h-16.8c-.5 0-.9.4-.9 1v3.6c0 .5.4 1 1 1h16.7c.5 0 1-.5 1-1v-3.7c0-.5-.5-.9-1-.9Z" fill="#E6E6E6"/><path d="M190.3 167.8h-16.8c-.5 0-1 .4-1 1v3.6c0 .5.5 1 1 1h16.8c.5 0 .9-.5.9-1v-3.7c0-.5-.4-.9-.9-.9Z" fill="#F0F0F0"/><path d="M189.4 170.6a1.1 1.1 0 0 1-.7 1 1.1 1.1 0 0 1-1.4-.3 1.1 1.1 0 0 1 0-1.3 1.2 1.2 0 0 1 1.3-.5 1.2 1.2 0 0 1 .8 1.1Z" fill="#FAFAFA"/><path d="M188.2 171.2a.6.6 0 1 0 0-1.2.6.6 0 0 0 0 1.2Z" fill="#F0F0F0"/><path d="M185.8 170h-1.4v1.2h1.3V170Z" fill="#FAFAFA"/><path d="M196.6 161.9h-16.8c-.5 0-.9.4-.9.9v3.7c0 .5.4.8 1 .8h16.7c.5 0 1-.4 1-.8v-3.7c0-.5-.5-1-1-1Z" fill="#F0F0F0"/><path d="M196.6 161.9h-16.8c-.5 0-.9.4-.9.9v3.7c0 .5.4.8 1 .8h16.7c.5 0 1-.4 1-.8v-3.7c0-.5-.5-1-1-1Z" fill="#E6E6E6"/><path d="M190.3 161.9h-16.8c-.5 0-1 .4-1 .9v3.7c0 .5.5.8 1 .8h16.8c.5 0 .9-.4.9-.8v-3.7c0-.5-.4-1-.9-1Z" fill="#F0F0F0"/><path d="M189.4 164.6a1.1 1.1 0 1 1-2.3 0 1.1 1.1 0 0 1 2.3 0Z" fill="#FAFAFA"/><path d="M188.8 164.6a.6.6 0 0 1-.5.6.6.6 0 0 1-.5-.2.6.6 0 0 1 .4-1l.4.2.2.4Z" fill="#F0F0F0"/><path d="M185.8 164h-1.4v1.3h1.3V164Z" fill="#FAFAFA"/><path d="M196.6 156h-16.8c-.5 0-.9.3-.9.8v3.7c0 .5.4.9 1 .9h16.7c.5 0 1-.4 1-.9v-3.7c0-.5-.5-.9-1-.9Z" fill="#F0F0F0"/><path d="M196.6 156h-16.8c-.5 0-.9.3-.9.8v3.7c0 .5.4.9 1 .9h16.7c.5 0 1-.4 1-.9v-3.7c0-.5-.5-.9-1-.9Z" fill="#E6E6E6"/><path d="M190.3 156h-16.8c-.5 0-1 .3-1 .8v3.7c0 .5.5.9 1 .9h16.8c.5 0 .9-.4.9-.9v-3.7c0-.5-.4-.9-.9-.9Z" fill="#F0F0F0"/><path d="M189.4 158.7a1.1 1.1 0 1 1-2.3 0 1.1 1.1 0 0 1 2.3 0Z" fill="#FAFAFA"/><path d="M188.8 158.7a.6.6 0 0 1-.3.5.6.6 0 0 1-.5 0l-.2-.1a.6.6 0 0 1 0-1h.4a.6.6 0 0 1 .4.1.6.6 0 0 1 .2.5Z" fill="#F0F0F0"/><path d="M185.8 158h-1.4v1.3h1.3V158Z" fill="#FAFAFA"/><path d="M196.6 150h-16.8c-.5 0-.9.4-.9.8v3.7c0 .5.4 1 1 1h16.7c.5 0 1-.5 1-1v-3.7c0-.5-.5-.8-1-.8Z" fill="#F0F0F0"/><path d="M196.6 150h-16.8c-.5 0-.9.4-.9.8v3.7c0 .5.4 1 1 1h16.7c.5 0 1-.5 1-1v-3.7c0-.5-.5-.8-1-.8Z" fill="#E6E6E6"/><path d="M190.3 150h-16.8c-.5 0-1 .4-1 .8v3.7c0 .5.5 1 1 1h16.8c.5 0 .9-.5.9-1v-3.7c0-.5-.4-.8-.9-.8Z" fill="#F0F0F0"/><path d="M189.4 152.7a1.1 1.1 0 0 1-.4.8 1.2 1.2 0 0 1-.8.3 1.1 1.1 0 0 1-.8-.3 1.2 1.2 0 0 1-.3-.8 1.1 1.1 0 0 1 2-.8c.2.2.3.5.3.8Z" fill="#FAFAFA"/><path d="M188.8 152.7a.6.6 0 0 1-.6.5.6.6 0 0 1-.5-.2.6.6 0 0 1 .2-.8l.3-.1a.6.6 0 0 1 .6.3v.3Z" fill="#F0F0F0"/><path d="M185.8 152h-1.4v1.3h1.3V152Z" fill="#FAFAFA"/><path d="M196.7 144h-16.8c-.6 0-1 .4-1 .9v3.7c0 .5.5.9 1 .9h16.8c.5 0 .9-.4.9-1V145c0-.5-.4-1-1-1v.1Z" fill="#F0F0F0"/><path d="M196.7 144h-16.8c-.6 0-1 .4-1 .9v3.7c0 .5.5.9 1 .9h16.8c.5 0 .9-.4.9-1V145c0-.5-.4-1-1-1v.1Z" fill="#E6E6E6"/><path d="M190.3 144h-16.8c-.5 0-.9.4-.9.9v3.7c0 .5.4.9 1 .9h16.7c.5 0 1-.4 1-1V145c0-.5-.5-1-1-1v.1Z" fill="#F0F0F0"/><path d="M189.4 146.7a1.1 1.1 0 1 1-2.3 0 1.1 1.1 0 0 1 2.3 0Z" fill="#FAFAFA"/><path d="M188.2 147.3a.6.6 0 0 0 .6-.3.6.6 0 0 0-.6-.8.6.6 0 1 0 0 1.1Z" fill="#F0F0F0"/><path d="M185.8 146h-1.3v1.4h1.3V146Z" fill="#FAFAFA"/><path d="M196.7 138h-16.8c-.5 0-.9.4-.9 1v3.6c0 .5.4.9.9.9h16.8c.5 0 .9-.4.9-.9V139c0-.5-.4-.9-.9-.9Z" fill="#F0F0F0"/><path d="M196.7 138h-16.8c-.5 0-.9.4-.9 1v3.6c0 .5.4.9.9.9h16.8c.5 0 .9-.4.9-.9V139c0-.5-.4-.9-.9-.9Z" fill="#E6E6E6"/><path d="M190.4 138h-16.8c-.5 0-1 .4-1 1v3.6c0 .5.5.9 1 .9h16.8c.5 0 .9-.4.9-.9V139c0-.5-.4-.9-1-.9Z" fill="#F0F0F0"/><path d="M189.4 140.8a1.2 1.2 0 0 1-2 .8 1.1 1.1 0 0 1 .5-1.9 1.1 1.1 0 0 1 1 .1 1.1 1.1 0 0 1 .5 1Z" fill="#FAFAFA"/><path d="M188.8 140.8a.6.6 0 1 1-1.1 0 .6.6 0 0 1 1.1 0Z" fill="#F0F0F0"/><path d="M185.8 140.1h-1.3v1.3h1.3v-1.3Z" fill="#FAFAFA"/><path d="M196.8 132h-16.9c-.5 0-.9.5-.9 1v3.7c0 .4.4.8 1 .8h16.8c.4 0 .8-.4.8-.8V133c0-.5-.4-1-.8-1Z" fill="#F0F0F0"/><path d="M196.8 132h-16.9c-.5 0-.9.5-.9 1v3.7c0 .4.4.8 1 .8h16.8c.4 0 .8-.4.8-.8V133c0-.5-.4-1-.8-1Z" fill="#E6E6E6"/><path d="M190.4 132h-16.8c-.5 0-1 .5-1 1v3.7c0 .4.5.8 1 .8h16.8c.5 0 .9-.4.9-.8V133c0-.5-.4-1-.9-1Z" fill="#F0F0F0"/><path d="M189.5 134.8a1.1 1.1 0 1 1-2.3 0 1.1 1.1 0 0 1 2.3 0Z" fill="#FAFAFA"/><path d="M188.9 134.8a.6.6 0 0 1-.2.4.6.6 0 0 1-1-.3.6.6 0 1 1 1.2-.1Z" fill="#F0F0F0"/><path d="M185.9 134.2h-1.3v1.3h1.3v-1.3Z" fill="#FAFAFA"/><path d="M196.8 126.1H180c-.5 0-1 .4-1 .9v3.7c0 .5.5.9 1 .9h16.8c.5 0 .9-.4.9-1V127c0-.5-.4-.9-1-.9Z" fill="#F0F0F0"/><path d="M196.8 126.1H180c-.5 0-1 .4-1 .9v3.7c0 .5.5.9 1 .9h16.8c.5 0 .9-.4.9-1V127c0-.5-.4-.9-1-.9Z" fill="#E6E6E6"/><path d="M190.4 126.1h-16.8c-.5 0-.9.4-.9.9v3.7c0 .5.4.9 1 .9h16.7c.5 0 1-.4 1-1V127c0-.5-.5-.9-1-.9Z" fill="#F0F0F0"/><path d="M189.5 128.8a1.1 1.1 0 0 1-2 .8 1.1 1.1 0 0 1 .9-2 1.1 1.1 0 0 1 1.1 1.2Z" fill="#FAFAFA"/><path d="M189 128.8a.6.6 0 0 1-.5.6.6.6 0 0 1-.6-.1.6.6 0 0 1 .4-1 .6.6 0 0 1 .5.1.6.6 0 0 1 .1.4Z" fill="#F0F0F0"/><path d="M185.9 128.2h-1.3v1.3h1.3v-1.3Z" fill="#FAFAFA"/><path d="M196.8 120.2H180c-.5 0-.9.3-.9.8v3.7c0 .5.4 1 .9 1h16.8c.5 0 1-.5 1-1V121c0-.5-.5-.8-1-.8Z" fill="#F0F0F0"/><path d="M196.8 120.2H180c-.5 0-.9.3-.9.8v3.7c0 .5.4 1 .9 1h16.8c.5 0 1-.5 1-1V121c0-.5-.5-.8-1-.8Z" fill="#E6E6E6"/><path d="M190.5 120.2h-16.8c-.5 0-1 .3-1 .8v3.7c0 .5.5 1 1 1h16.8c.5 0 .9-.5.9-1V121c0-.5-.4-.8-1-.8Z" fill="#F0F0F0"/><path d="M188.4 124a1.2 1.2 0 0 0 .9-.3 1.1 1.1 0 0 0 .3-1.3 1.2 1.2 0 0 0-1.2-.7 1.1 1.1 0 1 0 0 2.3Z" fill="#FAFAFA"/><path d="M188.4 123.5a.6.6 0 1 0 0-1.2.6.6 0 0 0 0 1.2Z" fill="#F0F0F0"/><path d="M186 122.2h-1.4v1.3h1.3v-1.3Z" fill="#FAFAFA"/><path d="M196.9 114.2H180c-.5 0-.9.4-.9.9v3.7c0 .5.4.8 1 .8h16.8c.4 0 .8-.4.8-.8V115c0-.5-.3-1-.8-1Z" fill="#F0F0F0"/><path d="M196.9 114.2H180c-.5 0-.9.4-.9.9v3.7c0 .5.4.8 1 .8h16.8c.4 0 .8-.4.8-.8V115c0-.5-.3-1-.8-1Z" fill="#E6E6E6"/><path d="M190.5 114.2h-16.8c-.5 0-.9.4-.9.9v3.7c0 .5.4.8.9.8h16.8c.5 0 1-.4 1-.8V115c0-.5-.5-1-1-1Z" fill="#F0F0F0"/><path d="M188.4 118a1.2 1.2 0 0 0 1-.2 1.2 1.2 0 0 0 .2-1.3 1.2 1.2 0 0 0-1.2-.7 1.1 1.1 0 1 0 0 2.3Z" fill="#FAFAFA"/><path d="M188.4 117.5c.2 0 .3 0 .4-.2a.6.6 0 0 0 0-.8.6.6 0 0 0-.8 0 .6.6 0 0 0 0 .8l.4.2Z" fill="#F0F0F0"/><path d="M186 116.3h-1.3v1.3h1.3v-1.3Z" fill="#FAFAFA"/><path d="M196.9 108.2h-16.8c-.5 0-1 .4-1 1v3.6c0 .5.5.9 1 .9h16.8c.5 0 .9-.4.9-1v-3.6c0-.5-.4-.9-1-.9h.1Z" fill="#F0F0F0"/><path d="M196.9 108.2h-16.8c-.5 0-1 .4-1 1v3.6c0 .5.5.9 1 .9h16.8c.5 0 .9-.4.9-1v-3.6c0-.5-.4-.9-1-.9h.1Z" fill="#E6E6E6"/><path d="M190.6 108.2h-16.9c-.5 0-.9.4-.9 1v3.6c0 .5.4.9 1 .9h16.8c.5 0 .8-.4.8-1v-3.6c0-.5-.3-.9-.8-.9Z" fill="#F0F0F0"/><path d="M189.6 111a1.1 1.1 0 0 1-2 .8 1.2 1.2 0 0 1-.3-.8 1.1 1.1 0 0 1 2.3 0Z" fill="#FAFAFA"/><path d="M189 111a.6.6 0 0 1-.3.5.6.6 0 0 1-.7-.1.6.6 0 1 1 1-.4Z" fill="#F0F0F0"/><path d="M186 110.3h-1.3v1.3h1.3v-1.3Z" fill="#FAFAFA"/><path d="M197 102.3H180c-.5 0-.9.4-.9.9v3.6c0 .5.4 1 1 1h16.7c.5 0 1-.5 1-1v-3.6c0-.5-.5-1-1-1Z" fill="#F0F0F0"/><path d="M197 102.3H180c-.5 0-.9.4-.9.9v3.6c0 .5.4 1 1 1h16.7c.5 0 1-.5 1-1v-3.6c0-.5-.5-1-1-1Z" fill="#E6E6E6"/><path d="M190.6 102.3h-16.8c-.5 0-1 .4-1 .9v3.6c0 .5.5 1 1 1h16.8c.5 0 .9-.5.9-1v-3.6c0-.5-.4-1-1-1h.1Z" fill="#F0F0F0"/><path d="M189.7 105a1.1 1.1 0 1 1-2.3 0 1.1 1.1 0 0 1 2.3 0Z" fill="#FAFAFA"/><path d="M189 105a.6.6 0 0 1-.4.6h-.2a.6.6 0 0 1-.5-.5.6.6 0 0 1 .3-.6.6.6 0 0 1 .9.5Z" fill="#F0F0F0"/><path d="M186 104.3h-1.3v1.3h1.3v-1.3Z" fill="#FAFAFA"/><path d="M197 96.3h-16.8c-.5 0-1 .4-1 .9v3.7c0 .5.5.9 1 .9H197c.5 0 .9-.4.9-1v-3.6c0-.5-.4-1-1-1v.1Z" fill="#F0F0F0"/><path d="M197 96.3h-16.8c-.5 0-1 .4-1 .9v3.7c0 .5.5.9 1 .9H197c.5 0 .9-.4.9-1v-3.6c0-.5-.4-1-1-1v.1Z" fill="#E6E6E6"/><path d="M190.6 96.3h-16.8c-.5 0-.9.4-.9.9v3.7c0 .5.4.9.9.9h16.8c.5 0 1-.4 1-1v-3.6c0-.5-.5-1-1-1v.1Z" fill="#F0F0F0"/><path d="M189.7 99a1.1 1.1 0 1 1-2.3 0 1.1 1.1 0 0 1 2.3 0Z" fill="#FAFAFA"/><path d="M189.1 99a.6.6 0 0 1-.2.5.6.6 0 0 1-.7.1.6.6 0 0 1-.2-.7.6.6 0 0 1 1-.2l.1.3Z" fill="#F0F0F0"/><path d="M186 98.4h-1.2v1.3h1.3v-1.3Z" fill="#FAFAFA"/><path d="M197 90.3h-16.8c-.5 0-.9.4-.9 1v3.6c0 .5.4.9.9.9H197c.5 0 .9-.4.9-.9v-3.7c0-.5-.4-.9-.9-.9Z" fill="#F0F0F0"/><path d="M197 90.3h-16.8c-.5 0-.9.4-.9 1v3.6c0 .5.4.9.9.9H197c.5 0 .9-.4.9-.9v-3.7c0-.5-.4-.9-.9-.9Z" fill="#E6E6E6"/><path d="M190.7 90.3h-16.8c-.6 0-1 .4-1 1v3.6c0 .5.5.9 1 .9h16.8c.5 0 .9-.4.9-.9v-3.7c0-.5-.4-.9-1-.9Z" fill="#F0F0F0"/><path d="M189.7 93a1.1 1.1 0 0 1-.8 1.2 1.1 1.1 0 0 1-1.1-.3 1.1 1.1 0 1 1 2-.8Z" fill="#FAFAFA"/><path d="M189.2 93Z" fill="#F0F0F0"/><path d="M186.1 92.4h-1.3v1.3h1.3v-1.3Z" fill="#FAFAFA"/><path d="M197 84.4h-16.8c-.5 0-.9.4-.9.9V89c0 .4.4.8 1 .8H197c.4 0 .8-.4.8-.8v-3.7c0-.5-.4-1-.8-1Z" fill="#F0F0F0"/><path d="M197 84.4h-16.8c-.5 0-.9.4-.9.9V89c0 .4.4.8 1 .8H197c.4 0 .8-.4.8-.8v-3.7c0-.5-.4-1-.8-1Z" fill="#E6E6E6"/><path d="M190.7 84.4H174c-.5 0-.9.4-.9.9V89c0 .4.4.8.9.8h16.8c.5 0 1-.4 1-.8v-3.7c0-.5-.5-1-1-1Z" fill="#F0F0F0"/><path d="M189.8 87.1a1.1 1.1 0 0 1-.4.8 1.2 1.2 0 0 1-1.2.3 1.2 1.2 0 0 1-.7-1 1.1 1.1 0 1 1 2.3 0V87Z" fill="#FAFAFA"/><path d="M189.2 87.1a.6.6 0 0 1-.4.6h-.3a.6.6 0 0 1-.4-.8c0-.1 0-.2.2-.3h.3a.6.6 0 0 1 .6.5Z" fill="#F0F0F0"/><path d="M186.2 86.5h-1.3v1.3h1.3v-1.3Z" fill="#FAFAFA"/><path d="M197 78.4h-16.7c-.5 0-1 .4-1 .9V83c0 .5.5.9 1 .9H197c.5 0 .9-.4.9-1v-3.6c0-.5-.4-.9-1-.9Z" fill="#F0F0F0"/><path d="M197 78.4h-16.7c-.5 0-1 .4-1 .9V83c0 .5.5.9 1 .9H197c.5 0 .9-.4.9-1v-3.6c0-.5-.4-.9-1-.9Z" fill="#E6E6E6"/><path d="M190.8 78.4h-16.9c-.5 0-.9.4-.9.9V83c0 .5.4.9 1 .9h16.8c.4 0 .8-.4.8-1v-3.6c0-.5-.4-.9-.8-.9Z" fill="#F0F0F0"/><path d="M189.8 81.1a1.1 1.1 0 0 1-.3.9 1.2 1.2 0 0 1-1.3.2 1.2 1.2 0 0 1-.7-1 1.2 1.2 0 0 1 2-.9c.2.2.3.5.3.8Z" fill="#FAFAFA"/><path d="M189.2 81.1a.6.6 0 0 1-1 .4.6.6 0 0 1 .1-1 .6.6 0 0 1 .8.2l.1.2v.2Z" fill="#F0F0F0"/><path d="M186.2 80.5h-1.3v1.3h1.3v-1.3Z" fill="#FAFAFA"/><path d="M197.1 72.4h-16.8c-.5 0-.9.4-.9 1V77c0 .5.4 1 1 1H197c.5 0 1-.5 1-1v-3.7c0-.5-.5-.9-1-.9Z" fill="#F0F0F0"/><path d="M197.1 72.4h-16.8c-.5 0-.9.4-.9 1V77c0 .5.4 1 1 1H197c.5 0 1-.5 1-1v-3.7c0-.5-.5-.9-1-.9Z" fill="#E6E6E6"/><path d="M190.8 72.4H174c-.5 0-1 .4-1 1V77c0 .5.5 1 1 1h16.8c.5 0 .9-.5.9-1v-3.7c0-.5-.4-.9-1-.9Z" fill="#F0F0F0"/><path d="M189.8 75.2a1.1 1.1 0 1 1-2.3 0 1.1 1.1 0 0 1 2.3 0Z" fill="#FAFAFA"/><path d="M189.3 75.2a.6.6 0 0 1-1 .4.6.6 0 0 1 0-1 .6.6 0 0 1 .8.1l.2.2v.3Z" fill="#F0F0F0"/><path d="M186.2 74.5H185v1.3h1.3v-1.3Z" fill="#FAFAFA"/><path d="M48.9 176.3h70V68H49v108.4Z" fill="#E0E0E0"/><path d="M63.9 176.3h57.2V68H64v108.4Z" fill="#EBEBEB"/><path d="M65.8 176.3h53.5v-107H65.8v107Z" fill="#E0E0E0"/><path d="M93.2 173.3h16.9c.5 0 .9-.4.9-.9v-3.7c0-.5-.5-.9-1-.9H93.3c-.4 0-.8.4-.8 1v3.6c0 .5.4 1 .9 1Z" fill="#F0F0F0"/><path d="M93.2 173.3h16.9c.5 0 .9-.4.9-.9v-3.7c0-.5-.5-.9-1-.9H93.3c-.4 0-.8.4-.8 1v3.6c0 .5.4 1 .9 1Z" fill="#E6E6E6"/><path d="M99.6 173.3h16.8c.5 0 .9-.4.9-.9v-3.7c0-.5-.4-.9-.9-.9H99.6c-.5 0-1 .4-1 1v3.6c0 .5.5 1 1 1Z" fill="#F0F0F0"/><path d="M101.7 171.7a1.1 1.1 0 1 0 0-2.3 1.1 1.1 0 0 0 0 2.3Z" fill="#FAFAFA"/><path d="M101.7 171.2a.6.6 0 1 0 0-1.2.6.6 0 0 0 0 1.2Z" fill="#F0F0F0"/><path d="M104.1 171.2h1.3V170h-1.3v1.3Z" fill="#FAFAFA"/><path d="M93.2 167.3h16.9c.5 0 .9-.4.9-.8v-3.7c0-.5-.5-1-1-1H93.3c-.4 0-.8.5-.8 1v3.7c0 .5.4.8.9.8Z" fill="#F0F0F0"/><path d="M93.2 167.3h16.9c.5 0 .9-.4.9-.8v-3.7c0-.5-.5-1-1-1H93.3c-.4 0-.8.5-.8 1v3.7c0 .5.4.8.9.8Z" fill="#E6E6E6"/><path d="M99.6 167.3h16.8c.5 0 .9-.4.9-.8v-3.7c0-.5-.4-1-.9-1H99.6c-.5 0-1 .5-1 1v3.7c0 .5.5.8 1 .8Z" fill="#F0F0F0"/><path d="M100.5 164.6a1.1 1.1 0 0 0 1.4 1.2 1.1 1.1 0 0 0 .2-2.2 1.1 1.1 0 0 0-1.6 1Z" fill="#FAFAFA"/><path d="M101 164.6a.6.6 0 0 0 .4.6.6.6 0 0 0 .5 0 .6.6 0 0 0 .3-.7l-.1-.3a.6.6 0 0 0-.8 0l-.2.4Z" fill="#F0F0F0"/><path d="M104.1 165.3h1.3V164h-1.3v1.3Z" fill="#FAFAFA"/><path d="M93.2 161.4h16.9c.5 0 .9-.4.9-1v-3.6c0-.5-.5-.9-1-.9H93.3c-.4 0-.8.4-.8 1v3.6c0 .5.4.9.9.9Z" fill="#F0F0F0"/><path d="M93.2 161.4h16.9c.5 0 .9-.4.9-1v-3.6c0-.5-.5-.9-1-.9H93.3c-.4 0-.8.4-.8 1v3.6c0 .5.4.9.9.9Z" fill="#E6E6E6"/><path d="M99.6 161.4h16.8c.5 0 .9-.4.9-1v-3.6c0-.5-.4-.9-.9-.9H99.6c-.5 0-1 .4-1 1v3.6c0 .5.5.9 1 .9Z" fill="#F0F0F0"/><path d="M100.5 158.7a1.2 1.2 0 1 0 2.3 0 1.2 1.2 0 0 0-2.3 0Z" fill="#FAFAFA"/><path d="M101 158.7a.6.6 0 0 0 .4.6.6.6 0 0 0 .8-.4.6.6 0 0 0-.1-.6.6.6 0 0 0-.8 0l-.2.4Z" fill="#F0F0F0"/><path d="M104.1 159.3h1.3V158h-1.3v1.3Z" fill="#FAFAFA"/><path d="M93.2 155.4h16.9c.5 0 .9-.4.9-.9v-3.7c0-.5-.5-.8-1-.8H93.3c-.4 0-.8.4-.8.8v3.7c0 .5.4 1 .9 1Z" fill="#F0F0F0"/><path d="M93.2 155.4h16.9c.5 0 .9-.4.9-.9v-3.7c0-.5-.5-.8-1-.8H93.3c-.4 0-.8.4-.8.8v3.7c0 .5.4 1 .9 1Z" fill="#E6E6E6"/><path d="M99.6 155.4h16.8c.5 0 .9-.4.9-.9v-3.7c0-.5-.4-.8-.9-.8H99.6c-.5 0-1 .4-1 .8v3.7c0 .5.5 1 1 1Z" fill="#F0F0F0"/><path d="M100.5 152.7a1.1 1.1 0 0 0 2 .8 1.1 1.1 0 0 0-.2-1.8 1.1 1.1 0 0 0-1.7.6v.4Z" fill="#FAFAFA"/><path d="M101 152.7a.6.6 0 0 0 .5.5.6.6 0 1 0-.4-.5Z" fill="#F0F0F0"/><path d="M104.1 153.3h1.3V152h-1.3v1.3Z" fill="#FAFAFA"/><path d="M93.2 149.5H110c.5 0 1-.4 1-1V145c0-.5-.5-1-1-1H93.2c-.5 0-.9.5-.9 1v3.7c0 .5.4.9.9.9Z" fill="#F0F0F0"/><path d="M93.2 149.5H110c.5 0 1-.4 1-1V145c0-.5-.5-1-1-1H93.2c-.5 0-.9.5-.9 1v3.7c0 .5.4.9.9.9Z" fill="#E6E6E6"/><path d="M99.5 149.5h16.9c.5 0 .8-.4.8-1V145c0-.5-.4-1-.8-1H99.5c-.5 0-.8.5-.8 1v3.7c0 .5.3.9.8.9Z" fill="#F0F0F0"/><path d="M101.6 147.9a1.2 1.2 0 0 0 1-.3 1.2 1.2 0 0 0-1-2 1.1 1.1 0 1 0 0 2.3Z" fill="#FAFAFA"/><path d="M101.6 147.3a.6.6 0 0 0 .6-.3.6.6 0 0 0-.6-.8.6.6 0 1 0 0 1.1Z" fill="#F0F0F0"/><path d="M104 147.4h1.4V146H104v1.3Z" fill="#FAFAFA"/><path d="M93.2 143.5H110c.5 0 .9-.4.9-.9v-3.7c0-.5-.4-.9-1-.9H93.3c-.5 0-1 .4-1 1v3.6c0 .5.5.9 1 .9Z" fill="#F0F0F0"/><path d="M93.2 143.5H110c.5 0 .9-.4.9-.9v-3.7c0-.5-.4-.9-1-.9H93.3c-.5 0-1 .4-1 1v3.6c0 .5.5.9 1 .9Z" fill="#E6E6E6"/><path d="M99.5 143.5h16.8c.5 0 1-.4 1-.9v-3.7c0-.5-.5-.9-1-.9H99.5c-.5 0-.9.4-.9 1v3.6c0 .5.4.9.9.9Z" fill="#F0F0F0"/><path d="M100.4 140.8a1.1 1.1 0 1 0 2.3 0 1.1 1.1 0 0 0-2.3 0Z" fill="#FAFAFA"/><path d="M101.6 141.3a.6.6 0 1 0 0-1.1.6.6 0 0 0 0 1.2Z" fill="#F0F0F0"/><path d="M104 141.4h1.3v-1.3H104v1.3Z" fill="#FAFAFA"/><path d="M93.1 137.5H110c.5 0 .8-.4.8-.8V133c0-.5-.4-1-.8-1H93c-.5 0-.9.5-.9 1v3.7c0 .5.4.8 1 .8Z" fill="#F0F0F0"/><path d="M93.1 137.5H110c.5 0 .8-.4.8-.8V133c0-.5-.4-1-.8-1H93c-.5 0-.9.5-.9 1v3.7c0 .5.4.8 1 .8Z" fill="#E6E6E6"/><path d="M99.5 137.5h16.8c.5 0 .9-.4.9-.8V133c0-.5-.4-1-1-1H99.6c-.5 0-1 .5-1 1v3.7c0 .5.5.8 1 .8Z" fill="#F0F0F0"/><path d="M100.4 134.8a1.1 1.1 0 1 0 2.3 0 1.1 1.1 0 0 0-2.3 0Z" fill="#FAFAFA"/><path d="M101 134.8a.6.6 0 0 0 .2.5.6.6 0 0 0 .5 0 .6.6 0 0 0 .4-.4.6.6 0 0 0 0-.5.6.6 0 0 0-.5-.2h-.3l-.2.2a.6.6 0 0 0-.1.4Z" fill="#F0F0F0"/><path d="M104 135.5h1.3v-1.3H104v1.3Z" fill="#FAFAFA"/><path d="M93 131.6h17c.4 0 .8-.4.8-1V127c0-.5-.4-.9-.9-.9H93.1c-.5 0-.9.4-.9.9v3.7c0 .5.4.9.9.9Z" fill="#F0F0F0"/><path d="M93 131.6h17c.4 0 .8-.4.8-1V127c0-.5-.4-.9-.9-.9H93.1c-.5 0-.9.4-.9.9v3.7c0 .5.4.9.9.9Z" fill="#E6E6E6"/><path d="M99.4 131.6h16.8c.5 0 1-.4 1-1V127c0-.5-.5-.9-1-.9H99.5c-.5 0-.9.4-.9.9v3.7c0 .5.4.9 1 .9Z" fill="#F0F0F0"/><path d="M100.4 128.8a1.1 1.1 0 1 0 2.3 0 1.1 1.1 0 0 0-2.3 0Z" fill="#FAFAFA"/><path d="M101 128.8a.6.6 0 0 0 .1.5.6.6 0 0 0 .8 0 .6.6 0 0 0 .2-.4v-.3a.6.6 0 0 0-.6-.3.6.6 0 0 0-.4.1.6.6 0 0 0-.2.4Z" fill="#F0F0F0"/><path d="M104 129.5h1.3v-1.3H104v1.3Z" fill="#FAFAFA"/><path d="M93 125.6H110c.5 0 .9-.4.9-.9V121c0-.5-.4-.8-1-.8H93c-.4 0-.8.3-.8.8v3.7c0 .5.4.9.9.9Z" fill="#F0F0F0"/><path d="M93 125.6H110c.5 0 .9-.4.9-.9V121c0-.5-.4-.8-1-.8H93c-.4 0-.8.3-.8.8v3.7c0 .5.4.9.9.9Z" fill="#E6E6E6"/><path d="M99.4 125.6h16.8c.5 0 1-.4 1-.9V121c0-.5-.5-.8-1-.8H99.4c-.5 0-.9.3-.9.8v3.7c0 .5.4.9 1 .9h-.1Z" fill="#F0F0F0"/><path d="M100.3 122.9a1.1 1.1 0 1 0 2.3 0 1.1 1.1 0 0 0-2.3 0Z" fill="#FAFAFA"/><path d="M101.5 123.5a.6.6 0 1 0 0-1.2.6.6 0 0 0 0 1.2Z" fill="#F0F0F0"/><path d="M104 123.5h1.2v-1.3H104v1.3Z" fill="#FAFAFA"/><path d="M93 119.7h16.8c.5 0 1-.5 1-1v-3.6c0-.5-.5-1-1-1H93c-.5 0-.9.5-.9 1v3.7c0 .5.4.9 1 .9Z" fill="#F0F0F0"/><path d="M93 119.7h16.8c.5 0 1-.5 1-1v-3.6c0-.5-.5-1-1-1H93c-.5 0-.9.5-.9 1v3.7c0 .5.4.9 1 .9Z" fill="#E6E6E6"/><path d="M99.3 119.7h16.9c.5 0 .9-.5.9-1v-3.6c0-.5-.4-1-1-1H99.4c-.4 0-.8.5-.8 1v3.7c0 .5.4.9.9.9Z" fill="#F0F0F0"/><path d="M100.3 117a1.1 1.1 0 0 0 2 .7 1.1 1.1 0 0 0-.9-2 1.1 1.1 0 0 0-1.1 1.2Z" fill="#FAFAFA"/><path d="M100.9 117a.6.6 0 0 0 .7.5.6.6 0 0 0-.1-1.2.6.6 0 0 0-.6.6Z" fill="#F0F0F0"/><path d="M103.9 117.6h1.3v-1.3h-1.3v1.3Z" fill="#FAFAFA"/><path d="M93 113.7h16.8c.5 0 .9-.4.9-1v-3.6c0-.5-.4-.9-.9-.9H93c-.5 0-1 .4-1 1v3.6c0 .5.5.9 1 .9Z" fill="#F0F0F0"/><path d="M93 113.7h16.8c.5 0 .9-.4.9-1v-3.6c0-.5-.4-.9-.9-.9H93c-.5 0-1 .4-1 1v3.6c0 .5.5.9 1 .9Z" fill="#E6E6E6"/><path d="M99.3 113.7h16.8c.5 0 1-.4 1-1v-3.6c0-.5-.5-.9-1-.9H99.3c-.5 0-.9.4-.9 1v3.6c0 .5.4.9 1 .9Z" fill="#F0F0F0"/><path d="M100.3 111a1.1 1.1 0 1 0 2.2-.4 1.2 1.2 0 0 0-1.6-.7 1.1 1.1 0 0 0-.6 1Z" fill="#FAFAFA"/><path d="M100.8 111a.6.6 0 0 0 .7.5.6.6 0 0 0 .5-.4.6.6 0 0 0-.1-.5.6.6 0 0 0-1 .1v.3Z" fill="#F0F0F0"/><path d="M103.9 111.6h1.3v-1.3h-1.3v1.3Z" fill="#FAFAFA"/><path d="M93 107.7h16.8c.5 0 .9-.4.9-.9v-3.7c0-.4-.5-.8-1-.8H93c-.5 0-.9.4-.9.8v3.7c0 .5.5 1 1 1Z" fill="#F0F0F0"/><path d="M93 107.7h16.8c.5 0 .9-.4.9-.9v-3.7c0-.4-.5-.8-1-.8H93c-.5 0-.9.4-.9.8v3.7c0 .5.5 1 1 1Z" fill="#E6E6E6"/><path d="M99.3 107.7H116c.5 0 .9-.4.9-.9v-3.7c0-.4-.4-.8-.9-.8H99.3c-.5 0-1 .4-1 .8v3.7c0 .5.5 1 1 1Z" fill="#F0F0F0"/><path d="M100.2 105a1.1 1.1 0 1 0 2.3 0 1.1 1.1 0 0 0-2.3 0Z" fill="#FAFAFA"/><path d="M100.8 105a.6.6 0 0 0 .1.4.6.6 0 0 0 .6.2.6.6 0 0 0 .4-.4v-.5a.6.6 0 0 0-.4-.3.6.6 0 0 0-.5.2.6.6 0 0 0-.2.4Z" fill="#F0F0F0"/><path d="M103.8 105.6h1.3v-1.3h-1.3v1.3Z" fill="#FAFAFA"/><path d="M92.9 101.8h16.8c.5 0 1-.4 1-1v-3.6c0-.5-.5-.9-1-.9H93c-.5 0-.9.4-.9.9v3.7c0 .5.4.9 1 .9h-.1Z" fill="#F0F0F0"/><path d="M92.9 101.8h16.8c.5 0 1-.4 1-1v-3.6c0-.5-.5-.9-1-.9H93c-.5 0-.9.4-.9.9v3.7c0 .5.4.9 1 .9h-.1Z" fill="#E6E6E6"/><path d="M99.2 101.8h16.9c.5 0 .8-.4.8-1v-3.6c0-.5-.4-.9-.8-.9H99.2c-.5 0-.9.4-.9.9v3.7c0 .5.5.9 1 .9Z" fill="#F0F0F0"/><path d="M100.2 99a1.1 1.1 0 0 0 .7 1.1 1.1 1.1 0 1 0-.7-1Z" fill="#FAFAFA"/><path d="M100.8 99a.6.6 0 0 0 .3.6.6.6 0 1 0-.3-.6Z" fill="#F0F0F0"/><path d="M103.8 99.7h1.3v-1.3h-1.3v1.3Z" fill="#FAFAFA"/><path d="M92.9 95.8h16.8c.5 0 .9-.4.9-.9v-3.7c0-.5-.4-.9-1-.9H93c-.5 0-1 .4-1 1v3.6c0 .5.5.9 1 .9Z" fill="#F0F0F0"/><path d="M92.9 95.8h16.8c.5 0 .9-.4.9-.9v-3.7c0-.5-.4-.9-1-.9H93c-.5 0-1 .4-1 1v3.6c0 .5.5.9 1 .9Z" fill="#E6E6E6"/><path d="M99.2 95.8H116c.5 0 1-.4 1-.9v-3.7c0-.5-.5-.9-1-.9H99.2c-.5 0-.9.4-.9 1v3.6c0 .5.4.9.9.9Z" fill="#F0F0F0"/><path d="M101.3 94.2a1.2 1.2 0 0 0 .5-2.2h-.5a1.2 1.2 0 0 0 0 2.2Z" fill="#FAFAFA"/><path d="M101.3 93.7a.6.6 0 1 0 0-1.2.6.6 0 0 0 0 1.2Z" fill="#F0F0F0"/><path d="M103.8 93.7h1.3v-1.3h-1.3v1.3Z" fill="#FAFAFA"/><path d="M92.8 89.8h16.9c.5 0 .8-.4.8-.8v-3.7c0-.5-.4-1-.8-1H92.8c-.5 0-.9.5-.9 1V89c0 .4.4.8 1 .8Z" fill="#F0F0F0"/><path d="M92.8 89.8h16.9c.5 0 .8-.4.8-.8v-3.7c0-.5-.4-1-.8-1H92.8c-.5 0-.9.5-.9 1V89c0 .4.4.8 1 .8Z" fill="#E6E6E6"/><path d="M99.2 89.8H116c.5 0 .9-.4.9-.8v-3.7c0-.5-.4-1-1-1H99.3c-.5 0-1 .5-1 1V89c0 .4.5.8 1 .8Z" fill="#F0F0F0"/><path d="M100.1 87.1a1.2 1.2 0 0 0 .9 1.1 1.2 1.2 0 0 0 1.3-.6 1.1 1.1 0 0 0 0-1 1.1 1.1 0 0 0-2.2.5Z" fill="#FAFAFA"/><path d="M101.3 87.7a.6.6 0 1 0 0-1.2.6.6 0 0 0 0 1.2Z" fill="#F0F0F0"/><path d="M103.7 87.8h1.3v-1.3h-1.3v1.3Z" fill="#FAFAFA"/><path d="M92.8 83.9h16.8c.5 0 .9-.4.9-1v-3.6c0-.5-.4-.9-.9-.9H92.8c-.5 0-.9.4-.9.9V83c0 .5.4.9.9.9Z" fill="#F0F0F0"/><path d="M92.8 83.9h16.8c.5 0 .9-.4.9-1v-3.6c0-.5-.4-.9-.9-.9H92.8c-.5 0-.9.4-.9.9V83c0 .5.4.9.9.9Z" fill="#E6E6E6"/><path d="M99.1 83.9H116c.5 0 1-.4 1-1v-3.6c0-.5-.5-.9-1-.9H99.1c-.5 0-.9.4-.9.9V83c0 .5.4.9 1 .9Z" fill="#F0F0F0"/><path d="M100 81.1a1.2 1.2 0 0 0 .4 1 1.2 1.2 0 0 0 1.7 0 1.2 1.2 0 0 0 .3-1 1.1 1.1 0 1 0-2.3 0Z" fill="#FAFAFA"/><path d="M100.6 81.1a.6.6 0 0 0 .4.6h.3a.6.6 0 0 0 .5-.5.6.6 0 0 0-.2-.5.6.6 0 0 0-1 .4Z" fill="#F0F0F0"/><path d="M103.7 81.8h1.3v-1.3h-1.3v1.3Z" fill="#FAFAFA"/><path d="M92.8 77.9h16.8c.5 0 .9-.4.9-.9v-3.7c0-.5-.4-.9-1-.9H92.8c-.4 0-.8.4-.8 1V77c0 .5.4 1 .8 1v-.1Z" fill="#F0F0F0"/><path d="M92.8 77.9h16.8c.5 0 .9-.4.9-.9v-3.7c0-.5-.4-.9-1-.9H92.8c-.4 0-.8.4-.8 1V77c0 .5.4 1 .8 1v-.1Z" fill="#E6E6E6"/><path d="M99 77.9h17c.4 0 .8-.4.8-.9v-3.7c0-.5-.4-.9-.9-.9H99.1c-.5 0-.9.4-.9 1V77c0 .5.4 1 .9 1v-.1Z" fill="#F0F0F0"/><path d="M100 75.2a1.2 1.2 0 0 0 .4.8 1.2 1.2 0 0 0 1.6 0 1.2 1.2 0 1 0-2-.8Z" fill="#FAFAFA"/><path d="m100.6 75.2.1.3a.6.6 0 1 0-.1-.3Z" fill="#F0F0F0"/><path d="M103.6 75.8h1.3v-1.3h-1.3v1.3Z" fill="#FAFAFA"/><path d="M70.2 173.3H87c.5 0 .9-.4.9-.9v-3.7c0-.5-.4-.9-.9-.9H70.2c-.5 0-.9.4-.9 1v3.6c0 .5.4 1 .9 1Z" fill="#F0F0F0"/><path d="M70.2 173.3H87c.5 0 .9-.4.9-.9v-3.7c0-.5-.4-.9-.9-.9H70.2c-.5 0-.9.4-.9 1v3.6c0 .5.4 1 .9 1Z" fill="#E6E6E6"/><path d="M76.5 173.3h16.8c.5 0 1-.4 1-.9v-3.7c0-.5-.5-.9-1-.9H76.5c-.5 0-.9.4-.9 1v3.6c0 .5.4 1 1 1Z" fill="#F0F0F0"/><path d="M77.5 170.6a1.2 1.2 0 1 0 2-.8 1.1 1.1 0 0 0-2 .8Z" fill="#FAFAFA"/><path d="M78 170.6a.6.6 0 1 0 1.2.2.6.6 0 0 0-1.2-.2Z" fill="#F0F0F0"/><path d="M81 171.2h1.4V170H81v1.3Z" fill="#FAFAFA"/><path d="M70.2 167.3H87c.5 0 .9-.4.9-.8v-3.7c0-.5-.4-1-.9-1H70.2c-.5 0-.9.5-.9 1v3.7c0 .5.4.8.9.8Z" fill="#F0F0F0"/><path d="M70.2 167.3H87c.5 0 .9-.4.9-.8v-3.7c0-.5-.4-1-.9-1H70.2c-.5 0-.9.5-.9 1v3.7c0 .5.4.8.9.8Z" fill="#E6E6E6"/><path d="M76.5 167.3h16.8c.5 0 1-.4 1-.8v-3.7c0-.5-.5-1-1-1H76.5c-.5 0-.9.5-.9 1v3.7c0 .5.4.8 1 .8Z" fill="#F0F0F0"/><path d="M77.5 164.6a1.2 1.2 0 0 0 1.3 1.2 1.2 1.2 0 0 0 1-.9 1.2 1.2 0 1 0-2.3-.3Z" fill="#FAFAFA"/><path d="M78 164.6a.6.6 0 0 0 .7.6.6.6 0 0 0 .5-.5.6.6 0 0 0-1.2 0Z" fill="#F0F0F0"/><path d="M81 165.3h1.4V164H81v1.3Z" fill="#FAFAFA"/><path d="M70.2 161.4H87c.5 0 .9-.4.9-1v-3.6c0-.5-.4-.9-.9-.9H70.2c-.5 0-.9.4-.9 1v3.6c0 .5.4.9.9.9Z" fill="#F0F0F0"/><path d="M70.2 161.4H87c.5 0 .9-.4.9-1v-3.6c0-.5-.4-.9-.9-.9H70.2c-.5 0-.9.4-.9 1v3.6c0 .5.4.9.9.9Z" fill="#E6E6E6"/><path d="M76.5 161.4h16.8c.5 0 1-.4 1-1v-3.6c0-.5-.5-.9-1-.9H76.5c-.5 0-.9.4-.9 1v3.6c0 .5.4.9 1 .9Z" fill="#F0F0F0"/><path d="M77.5 158.7a1.2 1.2 0 1 0 2.3 0 1.2 1.2 0 0 0-2.3 0Z" fill="#FAFAFA"/><path d="M78 158.7Z" fill="#F0F0F0"/><path d="M81 159.3h1.4V158H81v1.3Z" fill="#FAFAFA"/><path d="M70.2 155.4H87c.5 0 .9-.4.9-.9v-3.7c0-.5-.4-.8-.9-.8H70.2c-.5 0-.9.4-.9.8v3.7c0 .5.4 1 .9 1Z" fill="#F0F0F0"/><path d="M70.2 155.4H87c.5 0 .9-.4.9-.9v-3.7c0-.5-.4-.8-.9-.8H70.2c-.5 0-.9.4-.9.8v3.7c0 .5.4 1 .9 1Z" fill="#E6E6E6"/><path d="M76.5 155.4h16.8c.5 0 1-.4 1-.9v-3.7c0-.5-.5-.8-1-.8H76.5c-.5 0-.9.4-.9.8v3.7c0 .5.4 1 1 1Z" fill="#F0F0F0"/><path d="M77.5 152.7a1.1 1.1 0 1 0 2.3 0 1.1 1.1 0 0 0-2.3 0Z" fill="#FAFAFA"/><path d="M78 152.7a.6.6 0 1 0 1.2.2.6.6 0 0 0-1.2-.2Z" fill="#F0F0F0"/><path d="M81 153.3h1.4V152H81v1.3Z" fill="#FAFAFA"/><path d="M70.1 149.5H87c.5 0 .9-.4.9-1V145c0-.5-.4-1-1-1H70.2c-.4 0-.8.5-.8 1v3.7c0 .5.4.9.9.9Z" fill="#F0F0F0"/><path d="M70.1 149.5H87c.5 0 .9-.4.9-1V145c0-.5-.4-1-1-1H70.2c-.4 0-.8.5-.8 1v3.7c0 .5.4.9.9.9Z" fill="#E6E6E6"/><path d="M76.5 149.5h16.8c.5 0 .9-.4.9-1V145c0-.5-.4-1-.9-1H76.5c-.5 0-1 .5-1 1v3.7c0 .5.5.9 1 .9Z" fill="#F0F0F0"/><path d="M78.6 147.9a1.2 1.2 0 0 0 .9-.3 1.2 1.2 0 0 0 0-1.7 1.2 1.2 0 0 0-1-.3 1.1 1.1 0 1 0 0 2.3Z" fill="#FAFAFA"/><path d="M78 146.7a.6.6 0 0 0 .3.7.6.6 0 0 0 .7-.1.6.6 0 0 0 .2-.5.6.6 0 0 0-1.2 0Z" fill="#F0F0F0"/><path d="M81 147.4h1.3V146H81v1.3Z" fill="#FAFAFA"/><path d="M70.1 143.5h16.8c.5 0 1-.4 1-.9v-3.7c0-.5-.5-.9-1-.9H70.1c-.5 0-.9.4-.9 1v3.6c0 .5.4.9 1 .9H70Z" fill="#F0F0F0"/><path d="M70.1 143.5h16.8c.5 0 1-.4 1-.9v-3.7c0-.5-.5-.9-1-.9H70.1c-.5 0-.9.4-.9 1v3.6c0 .5.4.9 1 .9H70Z" fill="#E6E6E6"/><path d="M76.5 143.5h16.8c.5 0 .9-.4.9-.9v-3.7c0-.5-.4-.9-1-.9H76.5c-.5 0-.8.4-.8 1v3.6c0 .5.4.9.9.9Z" fill="#F0F0F0"/><path d="M77.4 140.8a1.1 1.1 0 1 0 2.3 0 1.1 1.1 0 0 0-2.3 0Z" fill="#FAFAFA"/><path d="M78 140.8a.6.6 0 0 0 1 .5.6.6 0 0 0 0-.8.6.6 0 0 0-1 .3Z" fill="#F0F0F0"/><path d="M81 141.4h1.3v-1.3H81v1.3Z" fill="#FAFAFA"/><path d="M70 137.5H87c.5 0 .9-.4.9-.8V133c0-.5-.4-1-1-1H70.2c-.5 0-1 .5-1 1v3.7c0 .5.5.8 1 .8Z" fill="#F0F0F0"/><path d="M70 137.5H87c.5 0 .9-.4.9-.8V133c0-.5-.4-1-1-1H70.2c-.5 0-1 .5-1 1v3.7c0 .5.5.8 1 .8Z" fill="#E6E6E6"/><path d="M76.4 137.5h16.8c.5 0 1-.4 1-.8V133c0-.5-.5-1-1-1H76.4c-.5 0-.9.5-.9 1v3.7c0 .5.4.8 1 .8Z" fill="#F0F0F0"/><path d="M77.4 134.8a1.2 1.2 0 1 0 2.3 0 1.2 1.2 0 0 0-2.3 0Z" fill="#FAFAFA"/><path d="M78 134.8a.6.6 0 0 0 .4.6h.2a.6.6 0 0 0 .4-.3.6.6 0 0 0 0-.5.6.6 0 0 0-.6-.4.6.6 0 0 0-.5.6Z" fill="#F0F0F0"/><path d="M81 135.5h1.3v-1.3H81v1.3Z" fill="#FAFAFA"/><path d="M70 131.6h16.8c.5 0 1-.4 1-1V127c0-.5-.5-.9-1-.9H70c-.5 0-.9.4-.9.9v3.7c0 .5.4.9 1 .9Z" fill="#F0F0F0"/><path d="M70 131.6h16.8c.5 0 1-.4 1-1V127c0-.5-.5-.9-1-.9H70c-.5 0-.9.4-.9.9v3.7c0 .5.4.9 1 .9Z" fill="#E6E6E6"/><path d="M76.4 131.6h16.8c.5 0 .9-.4.9-1V127c0-.5-.4-.9-1-.9H76.5c-.5 0-1 .4-1 .9v3.7c0 .5.5.9 1 .9Z" fill="#F0F0F0"/><path d="M77.3 128.8a1.2 1.2 0 1 0 2.3 0 1.2 1.2 0 0 0-2.3 0Z" fill="#FAFAFA"/><path d="M77.9 128.8a.6.6 0 1 0 1.1.2.6.6 0 0 0-1.1-.2Z" fill="#F0F0F0"/><path d="M81 129.5h1.2v-1.3H81v1.3Z" fill="#FAFAFA"/><path d="M70 125.6h16.8c.5 0 .9-.4.9-.9V121c0-.5-.4-.8-.9-.8H70c-.5 0-.9.3-.9.8v3.7c0 .5.4.9.9.9Z" fill="#F0F0F0"/><path d="M70 125.6h16.8c.5 0 .9-.4.9-.9V121c0-.5-.4-.8-.9-.8H70c-.5 0-.9.3-.9.8v3.7c0 .5.4.9.9.9Z" fill="#E6E6E6"/><path d="M76.3 125.6h16.9c.5 0 .8-.4.8-.9V121c0-.5-.3-.8-.8-.8H76.3c-.5 0-.8.3-.8.8v3.7c0 .5.3.9.8.9Z" fill="#F0F0F0"/><path d="M77.3 122.9a1.2 1.2 0 0 0 1.4 1.1 1.2 1.2 0 1 0-1.4-1.1Z" fill="#FAFAFA"/><path d="M78.4 123.5a.6.6 0 1 0 0-1.2.6.6 0 0 0 0 1.2Z" fill="#F0F0F0"/><path d="M80.9 123.5h1.3v-1.3h-1.3v1.3Z" fill="#FAFAFA"/><path d="M70 119.7h16.8c.5 0 .9-.5.9-1v-3.6c0-.5-.4-1-1-1H70c-.5 0-1 .5-1 1v3.7c0 .5.5.9 1 .9Z" fill="#F0F0F0"/><path d="M70 119.7h16.8c.5 0 .9-.5.9-1v-3.6c0-.5-.4-1-1-1H70c-.5 0-1 .5-1 1v3.7c0 .5.5.9 1 .9Z" fill="#E6E6E6"/><path d="M76.3 119.7h16.8c.5 0 1-.5 1-1v-3.6c0-.5-.5-1-1-1H76.3c-.5 0-.9.5-.9 1v3.7c0 .5.4.9 1 .9h-.1Z" fill="#F0F0F0"/><path d="M77.2 117a1.1 1.1 0 1 0 2.3 0 1.1 1.1 0 0 0-2.3 0Z" fill="#FAFAFA"/><path d="M78.4 117.5a.6.6 0 0 0 .6-.6.6.6 0 0 0-1-.4.6.6 0 0 0 .4 1Z" fill="#F0F0F0"/><path d="M80.8 117.6h1.4v-1.3h-1.4v1.3Z" fill="#FAFAFA"/><path d="M70 113.7h16.8c.4 0 .8-.4.8-1v-3.6c0-.5-.4-.9-.9-.9H70c-.5 0-.9.4-.9 1v3.6c0 .5.4.9 1 .9Z" fill="#F0F0F0"/><path d="M70 113.7h16.8c.4 0 .8-.4.8-1v-3.6c0-.5-.4-.9-.9-.9H70c-.5 0-.9.4-.9 1v3.6c0 .5.4.9 1 .9Z" fill="#E6E6E6"/><path d="M76.3 113.7H93c.5 0 .9-.4.9-1v-3.6c0-.5-.4-.9-1-.9H76.4c-.5 0-1 .4-1 1v3.6c0 .5.5.9 1 .9Z" fill="#F0F0F0"/><path d="M77.2 111a1.1 1.1 0 1 0 2.3 0 1.1 1.1 0 0 0-2.3 0Z" fill="#FAFAFA"/><path d="M77.8 111a.6.6 0 1 0 1.1.1.6.6 0 0 0-1.1-.1Z" fill="#F0F0F0"/><path d="M80.8 111.6h1.3v-1.3h-1.3v1.3Z" fill="#FAFAFA"/><path d="M69.9 107.7h16.8c.5 0 .9-.4.9-.9v-3.7c0-.4-.4-.8-.9-.8H69.9c-.5 0-1 .4-1 .8v3.7c0 .5.5 1 1 1Z" fill="#F0F0F0"/><path d="M69.9 107.7h16.8c.5 0 .9-.4.9-.9v-3.7c0-.4-.4-.8-.9-.8H69.9c-.5 0-1 .4-1 .8v3.7c0 .5.5 1 1 1Z" fill="#E6E6E6"/><path d="M76.2 107.7H93c.5 0 1-.4 1-.9v-3.7c0-.4-.5-.8-1-.8H76.3c-.5 0-.9.4-.9.8v3.7c0 .5.4 1 1 1Z" fill="#F0F0F0"/><path d="M77.2 105a1.1 1.1 0 0 0 1.1 1.1 1.1 1.1 0 0 0 .8-.3 1.2 1.2 0 0 0 .4-.8 1.2 1.2 0 0 0-2.3 0Z" fill="#FAFAFA"/><path d="M77.7 105a.6.6 0 0 0 .8.6.6.6 0 0 0 .4-.4.6.6 0 1 0-1.2-.2Z" fill="#F0F0F0"/><path d="M80.8 105.6H82v-1.3h-1.3v1.3Z" fill="#FAFAFA"/><path d="M69.8 101.8h16.9c.5 0 .9-.4.9-1v-3.6c0-.5-.4-.9-1-.9H69.9c-.5 0-.8.4-.8.9v3.7c0 .5.4.9.8.9Z" fill="#F0F0F0"/><path d="M69.8 101.8h16.9c.5 0 .9-.4.9-1v-3.6c0-.5-.4-.9-1-.9H69.9c-.5 0-.8.4-.8.9v3.7c0 .5.4.9.8.9Z" fill="#E6E6E6"/><path d="M76.2 101.8H93c.5 0 .9-.4.9-1v-3.6c0-.5-.4-.9-.9-.9H76.2c-.5 0-.9.4-.9.9v3.7c0 .5.4.9.9.9Z" fill="#F0F0F0"/><path d="M77.1 99a1.2 1.2 0 1 0 2.3 0 1.2 1.2 0 0 0-2.3 0Z" fill="#FAFAFA"/><path d="M77.7 99a.6.6 0 1 0 1.2 0 .6.6 0 0 0-1.2 0Z" fill="#F0F0F0"/><path d="M80.7 99.7H82v-1.3h-1.3v1.3Z" fill="#FAFAFA"/><path d="M69.8 95.8h16.8c.5 0 1-.4 1-.9v-3.7c0-.5-.5-.9-1-.9H69.8c-.5 0-.9.4-.9 1v3.6c0 .5.4.9 1 .9Z" fill="#F0F0F0"/><path d="M69.8 95.8h16.8c.5 0 1-.4 1-.9v-3.7c0-.5-.5-.9-1-.9H69.8c-.5 0-.9.4-.9 1v3.6c0 .5.4.9 1 .9Z" fill="#E6E6E6"/><path d="M76.2 95.8H93c.5 0 .9-.4.9-.9v-3.7c0-.5-.4-.9-1-.9H76.2c-.4 0-.8.4-.8 1v3.6c0 .5.4.9.9.9Z" fill="#F0F0F0"/><path d="M78.2 94.2a1.2 1.2 0 1 0 0-2.3 1.2 1.2 0 0 0 0 2.3Z" fill="#FAFAFA"/><path d="M77.7 93a.6.6 0 0 0 .7.6.6.6 0 0 0 .4-.8.6.6 0 0 0-1-.1.6.6 0 0 0-.1.4Z" fill="#F0F0F0"/><path d="M80.7 93.7H82v-1.3h-1.3v1.3Z" fill="#FAFAFA"/><path d="M69.8 89.8h16.8c.5 0 .9-.4.9-.8v-3.7c0-.5-.4-1-.9-1H69.8c-.5 0-1 .5-1 1V89c0 .4.5.8 1 .8Z" fill="#F0F0F0"/><path d="M69.8 89.8h16.8c.5 0 .9-.4.9-.8v-3.7c0-.5-.4-1-.9-1H69.8c-.5 0-1 .5-1 1V89c0 .4.5.8 1 .8Z" fill="#E6E6E6"/><path d="M76.1 89.8h16.8c.5 0 1-.4 1-.8v-3.7c0-.5-.5-1-1-1H76.1c-.5 0-.9.5-.9 1V89c0 .4.4.8 1 .8H76Z" fill="#F0F0F0"/><path d="M78.2 88.3a1.2 1.2 0 1 0 0-2.4 1.2 1.2 0 0 0 0 2.3Z" fill="#FAFAFA"/><path d="M78.2 87.7a.6.6 0 1 0 0-1.2.6.6 0 0 0 0 1.2Z" fill="#F0F0F0"/><path d="M80.7 87.8H82v-1.3h-1.3v1.3Z" fill="#FAFAFA"/><path d="M69.7 83.9h16.9c.5 0 .9-.4.9-1v-3.6c0-.5-.5-.9-1-.9H69.8c-.5 0-.8.4-.8.9V83c0 .5.4.9.8.9Z" fill="#F0F0F0"/><path d="M69.7 83.9h16.9c.5 0 .9-.4.9-1v-3.6c0-.5-.5-.9-1-.9H69.8c-.5 0-.8.4-.8.9V83c0 .5.4.9.8.9Z" fill="#E6E6E6"/><path d="M76 83.9H93c.5 0 .9-.4.9-1v-3.6c0-.5-.4-.9-1-.9H76.2c-.5 0-.9.4-.9.9V83c0 .5.4.9.9.9Z" fill="#F0F0F0"/><path d="M77 81.1a1.1 1.1 0 1 0 1.2-1.1A1.2 1.2 0 0 0 77 81Z" fill="#FAFAFA"/><path d="M77.6 81.1a.6.6 0 1 0 1.1.2.6.6 0 0 0-1.1-.2Z" fill="#F0F0F0"/><path d="M80.6 81.8H82v-1.3h-1.3v1.3Z" fill="#FAFAFA"/><path d="M69.7 77.9h16.8c.5 0 1-.4 1-.9v-3.7c0-.5-.5-.9-1-.9H69.7c-.5 0-.9.4-.9 1V77c0 .5.4 1 .9 1v-.1Z" fill="#F0F0F0"/><path d="M69.7 77.9h16.8c.5 0 1-.4 1-.9v-3.7c0-.5-.5-.9-1-.9H69.7c-.5 0-.9.4-.9 1V77c0 .5.4 1 .9 1v-.1Z" fill="#E6E6E6"/><path d="M76 77.9H93c.4 0 .8-.4.8-.9v-3.7c0-.5-.4-.9-.9-.9H76c-.5 0-.8.4-.8 1V77c0 .5.3 1 .8 1v-.1Z" fill="#F0F0F0"/><path d="M77 75.2a1.1 1.1 0 1 0 2.3 0 1.2 1.2 0 0 0-2.3 0Z" fill="#FAFAFA"/><path d="M77.5 75.2a.6.6 0 1 0 1.2 0 .6.6 0 0 0-1.2 0Z" fill="#F0F0F0"/><path d="M80.6 75.8h1.3v-1.3h-1.3v1.3Z" fill="#FAFAFA"/><path d="M51 159.1H30.7c-.7 0-1.3.6-1.3 1.3v14.9c0 .7.6 1.3 1.3 1.3H51c.7 0 1.3-.6 1.3-1.3v-15c0-.6-.6-1.2-1.3-1.2Z" fill="#E0E0E0"/><path d="M59.8 159.1H39.5c-.7 0-1.3.6-1.3 1.3v14.9c0 .7.6 1.3 1.3 1.3h20.3c.7 0 1.3-.6 1.3-1.3v-15c0-.6-.6-1.2-1.3-1.2Z" fill="#F0F0F0"/><path d="M51.2 173.3h-3.1a.2.2 0 0 1-.2-.2v-.2H51.4a.2.2 0 0 1 0 .3h-.2Zm2.1-1.2H46a.2.2 0 0 1-.2-.2v-.2h7.7v.4h-.2Zm1-1.1h-9.5a.2.2 0 0 1 0-.3.2.2 0 0 1 .1-.2h9.4l.1.1v.1a.2.2 0 0 1-.1.3Zm.6-1.2H44.5a.2.2 0 0 1-.3-.2l.1-.2H55a.2.2 0 0 1 0 .2.2.2 0 0 1-.1.2Zm.2-1.2h-11a.2.2 0 0 1-.2-.2.2.2 0 0 1 .2-.2h11.1a.2.2 0 0 1-.1.4Zm0-1.1H44.2a.2.2 0 0 1-.2-.3.2.2 0 0 1 .1-.2h11.2v.4a.2.2 0 0 1-.2 0Zm-.2-1.2H44.3a.2.2 0 0 1 0-.2v-.2H55a.2.2 0 0 1-.1.4Zm-.6-1.2h-9.5v-.4h9.6a.2.2 0 0 1 .1.2v.2a.2.2 0 0 1-.2 0Zm-1-1.2h-7.5a.2.2 0 0 1 0-.3.2.2 0 0 1 .2 0h7.4a.2.2 0 0 1 .1.2.2.2 0 0 1-.2.1Zm-2-1.1H48l-.1-.1V162.4H51.4a.2.2 0 0 1 0 .3.2.2 0 0 1-.2 0v.1Zm164.5 13.8H236c.7 0 1.2-.6 1.2-1.3v-15c0-.6-.5-1.2-1.2-1.2h-20.3c-.8 0-1.3.6-1.3 1.3v14.9c0 .7.6 1.3 1.3 1.3Z" fill="#E0E0E0"/><path d="M207 176.6h20.3c.7 0 1.3-.6 1.3-1.3v-15c0-.6-.6-1.2-1.3-1.2H207c-.7 0-1.3.6-1.3 1.3v14.9c0 .7.6 1.3 1.3 1.3Z" fill="#F0F0F0"/><path d="M215.5 173.3H218.8a.2.2 0 0 0 0-.4H215.5a.2.2 0 0 0-.2.2v.1h.2Zm-2-1.2H220.9V171.8l-.1-.1h-7.3a.2.2 0 0 0-.2 0v.2a.2.2 0 0 0 .2.2Zm-1-1.1h9.3a.2.2 0 0 0 .2-.2v-.2a.2.2 0 0 0-.3 0h-9.4a.2.2 0 0 0 0 .2v.1h.2Zm-.6-1.2h10.4a.2.2 0 0 0 .2 0 .2.2 0 0 0 0-.3l-.1-.1h-10.6a.2.2 0 0 0-.1.2v.1l.2.1Zm-.2-1.2h11a.2.2 0 0 0 .1-.2v-.2H211.4v.1a.2.2 0 0 0 0 .2v.1h.2Zm0-1.1h10.9l.1-.1v-.2a.2.2 0 0 0 0-.2h-11.1l-.1.2a.2.2 0 0 0 0 .2h.2Zm.2-1.2h10.5l.1-.1a.2.2 0 0 0 0-.2.2.2 0 0 0-.2-.1h-10.6V166.3h.2v.1Zm.6-1.2h9.4a.2.2 0 0 0 0-.3l-.2-.1h-9.2a.2.2 0 0 0-.3.2l.1.2h.2Zm1-1.2H220.9a.2.2 0 0 0 0-.3h-7.5a.2.2 0 0 0-.2 0V164h.2Zm2-1.1h3.2a.2.2 0 0 0 .1 0v-.1c.1 0 .1-.1 0-.2l-.1-.2h-3.2l-.1.1a.2.2 0 0 0 0 .3h.1v.1Z" fill="#E0E0E0"/><path d="M134.5 201c57.6 0 104.3-2.7 104.3-6 0-3.4-46.7-6.2-104.3-6.2-57.6 0-104.3 2.8-104.3 6.1 0 3.4 46.7 6.1 104.3 6.1Z" fill="#F5F5F5"/><path d="M42.7 158.3s3.4-2.8 6.3 0c3 2.9 3.5 20.5 3.5 20.5" stroke="#1E60F6" stroke-miterlimit="10"/><path d="M52.8 182.2s-2-20.7 5.5-29.4" stroke="#1E60F6" stroke-miterlimit="10"/><path d="M52.8 180s0-15.6 4.3-18c4.3-2.4 6.4 5.5 6.4 5.5M52 180s1.6-23.5-4-28.8l4 28.8Z" stroke="#1E60F6" stroke-miterlimit="10"/><path d="M52.2 181.6s-2-28 1.4-32.7M51.1 180s.7-12-2.6-16.2c-3.3-4.3-6.7 1.8-6.7 1.8l9.3 14.4Z" stroke="#1E60F6" stroke-miterlimit="10"/><path d="M60.7 164.3s-2 .8-1.4 2.6c.6 1.8 7.3 4.8 7.3 4.8s2.7-2.5.2-6.7c-2.6-4.1-6-2-6-.7Z" fill="#1E60F6"/><path opacity=".2" d="M60.7 164.3s-2 .8-1.4 2.6c.6 1.8 7.3 4.8 7.3 4.8s2.7-2.5.2-6.7c-2.6-4.1-6-2-6-.7Z" fill="#fff"/><path d="M51.6 160.8s2.2 0 2.4 1.8c0 2-4.9 7.3-4.9 7.3s-3.5-1.3-2.8-6c.8-4.9 4.7-4.3 5.3-3Z" fill="#1E60F6"/><path opacity=".2" d="M51.6 160.8s2.2 0 2.4 1.8c0 2-4.9 7.3-4.9 7.3s-3.5-1.3-2.8-6c.8-4.9 4.7-4.3 5.3-3Z" fill="#fff"/><path d="M49.7 151.6s1.5-.2 1.4-1.1c-.1-1-5.9-3.3-9.2.5 0 0 2.2 3.7 5.3 3.8 3 0 2.5-3.2 2.5-3.2Z" fill="#1E60F6"/><path opacity=".2" d="M49.7 151.6s1.5-.2 1.4-1.1c-.1-1-5.9-3.3-9.2.5 0 0 2.2 3.7 5.3 3.8 3 0 2.5-3.2 2.5-3.2Z" fill="#fff"/><path d="M52.5 149.3s-1.4.7-1.8-.1c-.3-.9 3.3-5.9 8.1-4.4 0 0 .1 4.3-2.5 6-2.6 1.6-3.8-1.5-3.8-1.5Z" fill="#1E60F6"/><path opacity=".2" d="M52.5 149.3s-1.4.7-1.8-.1c-.3-.9 3.3-5.9 8.1-4.4 0 0 .1 4.3-2.5 6-2.6 1.6-3.8-1.5-3.8-1.5Z" fill="#fff"/><path d="M45.4 163.6s1-.9 0-1.3c-1.2-.4-6.7-.3-6.7 5.1 0 0 6.3 1.1 7.1-1 .8-2-.4-2.8-.4-2.8Z" fill="#1E60F6"/><path opacity=".2" d="M45.4 163.6s1-.9 0-1.3c-1.2-.4-6.7-.3-6.7 5.1 0 0 6.3 1.1 7.1-1 .8-2-.4-2.8-.4-2.8Z" fill="#fff"/><path d="M58.4 151.4s-1-.8 0-1.2c1.2-.4 6.6-.3 6.7 5.1 0 0-6.4 1-7.2-1-.8-2 .5-2.9.5-2.9Z" fill="#1E60F6"/><path opacity=".2" d="M58.4 151.4s-1-.8 0-1.2c1.2-.4 6.6-.3 6.7 5.1 0 0-6.4 1-7.2-1-.8-2 .5-2.9.5-2.9Z" fill="#fff"/><path d="M55 155.8s0-1 .7-.6c.8.4 3.7 3.4.8 6.4 0 0-4-3-3.3-4.5.7-1.5 1.8-1.3 1.8-1.3Z" fill="#1E60F6"/><path opacity=".2" d="M55 155.8s0-1 .7-.6c.8.4 3.7 3.4.8 6.4 0 0-4-3-3.3-4.5.7-1.5 1.8-1.3 1.8-1.3Z" fill="#fff"/><path d="M44.5 157.2s.6-.8-.3-.9c-1 0-5 1-4 5 0 0 5-.3 5.1-2 .2-1.7-.8-2-.8-2Z" fill="#1E60F6"/><path opacity=".2" d="M44.5 157.2s.6-.8-.3-.9c-1 0-5 1-4 5 0 0 5-.3 5.1-2 .2-1.7-.8-2-.8-2Z" fill="#fff"/><path d="M61.1 195H44.2l-1.8-18.5H63L61 195Z" fill="#1E60F6"/><path opacity=".5" d="M61.1 195H44.2l-1.8-18.5H63L61 195Z" fill="#fff"/><path d="M63.9 174.5H41.5v4h22.4v-4Z" fill="#1E60F6"/><path opacity=".2" d="M63.9 174.5H41.5v4h22.4v-4Z" fill="#fff"/><path d="M220.4 185a1.2 1.2 0 0 0-1-1.6 2.6 2.6 0 0 0-.8-2.8.6.6 0 0 0-.3-.2l-.4.2-2.2 1.6-.5.4c-.4 1 1.2 2 .5 2.8l-.7.4c-.6.3-.6 1-.8 1.6-.3.6-1.2 1-1.5.5.3-.5-.5-1-1-1-.7-.1-1.3-.2-1.6-.7-.9.7-2.8-1.3-2.8-2.2a1.7 1.7 0 0 0-1.3 1.4v2c0 1.4-.5 2.8-.5 4.1 0 1.1.4 2.3 1.4 2.7.5.2 1 .2 1.5.2h11l.8-.2c.5-.3.6-1 .6-1.5l.6-7.2-1-.4Z" fill="#1E60F6"/><path opacity=".3" d="M220.4 185a1.2 1.2 0 0 0-1-1.6 2.6 2.6 0 0 0-.8-2.8.6.6 0 0 0-.3-.2l-.4.2-2.2 1.6-.5.4c-.4 1 1.2 2 .5 2.8l-.7.4c-.6.3-.6 1-.8 1.6-.3.6-1.2 1-1.5.5.3-.5-.5-1-1-1-.7-.1-1.3-.2-1.6-.7-.9.7-2.8-1.3-2.8-2.2a1.7 1.7 0 0 0-1.3 1.4v2c0 1.4-.5 2.8-.5 4.1 0 1.1.4 2.3 1.4 2.7.5.2 1 .2 1.5.2h11l.8-.2c.5-.3.6-1 .6-1.5l.6-7.2-1-.4Z" fill="#fff"/><path d="M221 173.5h-17l.1 1.7.1 1.2.3 3.2.1 1.9.2 2.4.1 1v.4l.1 1.2.2 1.7v1.1l.1 1 .1 1.3.1 1 .1 1v.5h15.7v-.5l.1-1 .1-1 .1-1.2v-1.1l.2-1 .1-1.8.1-1.2V183.9l.3-2.4.1-1.9.3-3.2.1-1.2.1-1.8H221Zm1 1-.3-.2h.4v.3Zm0 1.1v.5l-1.6 1.5-1.7-1.8 1.5-1.5h.4l1.4 1.3Zm-.4 5.5-1.2 1.1-1.7-1.7 1.7-1.8 1.2 1.2v1.2Zm-16.3-1.2 1.2-1.2 1.8 1.8-1.8 1.7-1.1-1.1-.1-1.2Zm14.6-1.8L218 180l-1.7-1.8 1.7-1.7 1.8 1.7Zm-2.8-3.9h2l-1 1-1-1Zm.4 6.2-1.7 1.8-1.8-1.8 1.8-1.7 1.7 1.8Zm-5.8 2.4 1.8-1.8 1.7 1.8-1.7 1.7-1.8-1.7Zm1.2 2.3-1.8 1.7-1.7-1.7 1.8-1.7 1.7 1.7Zm2.9-1.8 1.7 1.8-1.7 1.7-1.8-1.7 1.8-1.8Zm-2.3-3.4-1.8-1.8 1.8-1.7 1.7 1.7-1.7 1.8Zm-.6.5-1.8 1.8-1.7-1.8 1.8-1.7 1.7 1.7Zm-4-.5L207 178l1.7-1.7 1.8 1.7-1.8 1.8Zm0 1.1 1.7 1.8-1.8 1.7-1.7-1.7 1.7-1.8Zm1.7 6.4-1.8 1.8-1.7-1.8 1.7-1.7 1.8 1.7Zm.6.6 1.7 1.7-1.8 1.8-1.7-1.8 1.8-1.7Zm.5-.6 1.8-1.7 1.7 1.7-1.7 1.8-1.8-1.8Zm4 .6 1.8 1.7-1.7 1.8-1.8-1.8 1.8-1.7Zm2.4 2.3 1.8 1.8-1.2 1h-1.2l-1.1-1 1.7-1.8Zm-1.7-2.9 1.7-1.7 1.8 1.7-1.8 1.8-1.7-1.8Zm0-4.6 1.7-1.8 1.8 1.8-1.8 1.7-1.7-1.7Zm1.1-7-1.7 1.8-1.8-1.8 1.6-1.5h.4l1.5 1.5Zm-4-.6-1-1h2l-1 1Zm-.6.6-1.8 1.8-1.7-1.8 1.6-1.5h.3l1.6 1.5Zm-3-1.5-1 1-1-1h2Zm-3.2 0 1.6 1.5-1.8 1.8-1.5-1.5v-.5l1.3-1.3h.4Zm-1.5 0-.3.3v-.3h.3Zm-.1 3 .8.8-.7.8-.1-1.6Zm.5 5.9-.1-.9.4.5-.3.4Zm0 1 .9-.8 1.8 1.7-1.8 1.8-.7-.7-.2-2Zm.3 3.3v-.1Zm.3 3.7-.2-2.7.5-.5 1.8 1.8-1.8 1.7-.3-.3Zm.2 2v-.4l.1-.1.6.5h-.7Zm.7-1.1 1.7-1.8 1.8 1.8-1.2 1.1h-1.2l-1.1-1.1Zm3.5 1.1.5-.5.6.5h-1.1Zm2.2 0-1-1.1 1.7-1.8 1.7 1.8-1.1 1-1.3.1Zm2.4 0 .6-.5.6.5h-1.2Zm5.4 0h-.8l.6-.5.2.1v.4Zm.1-2-.3.3-1.7-1.7 1.7-1.8.6.6-.3 2.6Zm.3-3.8v.1Zm.1-1.2-.7.7-1.7-1.8 1.7-1.7.9.8-.2 2Zm.3-3-.4-.4.4-.4v.8Zm.4-5.9v1.6l-.8-.8.9-.8Z" fill="#1E60F6"/><path opacity=".6" d="M221 173.5h-17l.1 1.7.1 1.2.3 3.2.1 1.9.2 2.4.1 1v.4l.1 1.2.2 1.7v1.1l.1 1 .1 1.3.1 1 .1 1v.5h15.7v-.5l.1-1 .1-1 .1-1.2v-1.1l.2-1 .1-1.8.1-1.2V183.9l.3-2.4.1-1.9.3-3.2.1-1.2.1-1.8H221Zm1 1-.3-.2h.4v.3Zm0 1.1v.5l-1.6 1.5-1.7-1.8 1.5-1.5h.4l1.4 1.3Zm-.4 5.5-1.2 1.1-1.7-1.7 1.7-1.8 1.2 1.2v1.2Zm-16.3-1.2 1.2-1.2 1.8 1.8-1.8 1.7-1.1-1.1-.1-1.2Zm14.6-1.8L218 180l-1.7-1.8 1.7-1.7 1.8 1.7Zm-2.8-3.9h2l-1 1-1-1Zm.4 6.2-1.7 1.8-1.8-1.8 1.8-1.7 1.7 1.8Zm-5.8 2.4 1.8-1.8 1.7 1.8-1.7 1.7-1.8-1.7Zm1.2 2.3-1.8 1.7-1.7-1.7 1.8-1.7 1.7 1.7Zm2.9-1.8 1.7 1.8-1.7 1.7-1.8-1.7 1.8-1.8Zm-2.3-3.4-1.8-1.8 1.8-1.7 1.7 1.7-1.7 1.8Zm-.6.5-1.8 1.8-1.7-1.8 1.8-1.7 1.7 1.7Zm-4-.5L207 178l1.7-1.7 1.8 1.7-1.8 1.8Zm0 1.1 1.7 1.8-1.8 1.7-1.7-1.7 1.7-1.8Zm1.7 6.4-1.8 1.8-1.7-1.8 1.7-1.7 1.8 1.7Zm.6.6 1.7 1.7-1.8 1.8-1.7-1.8 1.8-1.7Zm.5-.6 1.8-1.7 1.7 1.7-1.7 1.8-1.8-1.8Zm4 .6 1.8 1.7-1.7 1.8-1.8-1.8 1.8-1.7Zm2.4 2.3 1.8 1.8-1.2 1h-1.2l-1.1-1 1.7-1.8Zm-1.7-2.9 1.7-1.7 1.8 1.7-1.8 1.8-1.7-1.8Zm0-4.6 1.7-1.8 1.8 1.8-1.8 1.7-1.7-1.7Zm1.1-7-1.7 1.8-1.8-1.8 1.6-1.5h.4l1.5 1.5Zm-4-.6-1-1h2l-1 1Zm-.6.6-1.8 1.8-1.7-1.8 1.6-1.5h.3l1.6 1.5Zm-3-1.5-1 1-1-1h2Zm-3.2 0 1.6 1.5-1.8 1.8-1.5-1.5v-.5l1.3-1.3h.4Zm-1.5 0-.3.3v-.3h.3Zm-.1 3 .8.8-.7.8-.1-1.6Zm.5 5.9-.1-.9.4.5-.3.4Zm0 1 .9-.8 1.8 1.7-1.8 1.8-.7-.7-.2-2Zm.3 3.3v-.1Zm.3 3.7-.2-2.7.5-.5 1.8 1.8-1.8 1.7-.3-.3Zm.2 2v-.4l.1-.1.6.5h-.7Zm.7-1.1 1.7-1.8 1.8 1.8-1.2 1.1h-1.2l-1.1-1.1Zm3.5 1.1.5-.5.6.5h-1.1Zm2.2 0-1-1.1 1.7-1.8 1.7 1.8-1.1 1-1.3.1Zm2.4 0 .6-.5.6.5h-1.2Zm5.4 0h-.8l.6-.5.2.1v.4Zm.1-2-.3.3-1.7-1.7 1.7-1.8.6.6-.3 2.6Zm.3-3.8v.1Zm.1-1.2-.7.7-1.7-1.8 1.7-1.7.9.8-.2 2Zm.3-3-.4-.4.4-.4v.8Zm.4-5.9v1.6l-.8-.8.9-.8Z" fill="#fff"/><path d="M203.8 175h19.4c.5 0 .9-.4.9-1v-.4c0-.5-.4-.9-1-.9h-19.3c-.5 0-1 .4-1 1v.4c0 .5.5.9 1 .9Zm17.8 17.8h-16.3c-.5 0-.9.4-.9.9v.5c0 .4.4.8.9.8h16.3c.5 0 1-.4 1-.8v-.5c0-.5-.5-.9-1-.9Z" fill="#1E60F6"/><path opacity=".8" d="M42.5 29.1a2.4 2.4 0 0 0-2.5 2.5v82.8a2.5 2.5 0 0 0 2.5 2.5h144.8a2.5 2.5 0 0 0 2.4-2.5V31.6a2.4 2.4 0 0 0-2.4-2.5H42.5Z" fill="#1E60F6"/><path d="M45.2 26.4a2.5 2.5 0 0 0-2.5 2.5v82.8a2.5 2.5 0 0 0 2.5 2.5H190a2.4 2.4 0 0 0 2.4-2.5V29a2.5 2.5 0 0 0-2.4-2.5H45.2Z" fill="#1E60F6"/><path opacity=".8" d="M45.2 26.4a2.5 2.5 0 0 0-2.5 2.5v82.8a2.5 2.5 0 0 0 2.5 2.5H190a2.4 2.4 0 0 0 2.4-2.5V29a2.5 2.5 0 0 0-2.4-2.5H45.2Z" fill="#fff"/><path d="m178.2 41.1-1-2.2h-18.6v62.8h18.6l1-2.2V41Z" fill="#1E60F6"/><path opacity=".2" d="m161.7 41.1-3.1-2.2v62.8l3-2.2V41Z" fill="#000"/><path opacity=".2" d="m158.6 38.9 3 2.2h16.6l-1-2.2h-18.6Z" fill="#fff"/><path opacity=".4" d="M161.7 99.5h16.5l-1 2.2h-18.6l3-2.2Z" fill="#000"/><path opacity=".3" d="M170 50.4a3.2 3.2 0 1 1 0-6.4 3.2 3.2 0 0 1 0 6.4Zm0-5.4a2.1 2.1 0 1 0 2.1 2.2A2.1 2.1 0 0 0 170 45Zm0 51.6a.5.5 0 0 1-.6-.5v-5.4a.5.5 0 0 1 1.1 0v5.4c0 .1 0 .3-.2.4l-.3.1Z" fill="#fff"/><path d="M176.6 53.5h-13.3v33.6h13.3V53.5Z" fill="#263238"/><path d="m187.4 64-1.2-10h-22.9v32.7H174c.7-5.3 1-10.7 1-16l12.4-3.4h.4l-.4-3.3Z" fill="#1E60F6"/><path opacity=".4" d="m187.4 64-1.2-10h-22.9v32.7H174c.7-5.3 1-10.7 1-16l12.4-3.4h.4l-.4-3.3Z" fill="#fff"/><path opacity=".2" d="M175.5 54h10.7l1.6 13.3H177L175.5 54Z" fill="#fff"/><path opacity=".4" d="M164.2 70.6H175l12.8-3.3H177l-12.8 3.4Z" fill="#000"/><path opacity=".2" d="M177 67.3h-.4l-12.4 3.4c0 5.3-.3 10.7-1 16V54l.5 3.5 11.8-3.5 1.1 10 .4 3.3Z" fill="#000"/><path d="m144.6 41.1-1-2.2H125v62.8h18.6l1-2.2V41Z" fill="#1E60F6"/><path opacity=".2" d="m128 41.1-3-2.2v62.8l3-2.2V41Z" fill="#000"/><path opacity=".2" d="m125 38.9 3 2.2h16.6l-1-2.2H125Z" fill="#fff"/><path opacity=".4" d="M128 99.5h16.6l-1 2.2H125l3-2.2Z" fill="#000"/><path opacity=".3" d="M136.3 50.4a3.2 3.2 0 1 1 0-6.4 3.2 3.2 0 0 1 0 6.4Zm0-5.4a2.1 2.1 0 1 0 2.2 2.2 2.2 2.2 0 0 0-2.2-2.1Zm0 51.6a.5.5 0 0 1-.4-.3V90.7a.5.5 0 0 1 0-.4.5.5 0 0 1 .8 0l.2.4v5.4c0 .1 0 .3-.2.4l-.3.1Z" fill="#fff"/><path d="M143 53.5h-13.3v33.6H143V53.5Z" fill="#263238"/><path d="m153.8 64-1.2-10h-22.9v32.7h10.7c.7-5.3 1-10.7 1-16l12.4-3.4h.4l-.4-3.3Z" fill="#1E60F6"/><path opacity=".4" d="m153.8 64-1.2-10h-22.9v32.7h10.7c.7-5.3 1-10.7 1-16l12.4-3.4h.4l-.4-3.3Z" fill="#fff"/><path opacity=".2" d="M141.8 54h10.8l1.6 13.3h-10.8L141.8 54Z" fill="#fff"/><path opacity=".4" d="M130.6 70.6h10.7l12.9-3.3h-10.8l-12.8 3.4Z" fill="#000"/><path opacity=".2" d="M143.4 67.3h-.4l-12.4 3.4c0 5.3-.3 10.6-1 16V54l.5 3.5 11.7-3.5 1.2 10 .4 3.3Z" fill="#000"/><path d="m111 41.1-1-2.2H91.2v62.8H110l1.1-2.2V41Z" fill="#1E60F6"/><path opacity=".2" d="m94.4 41.1-3-2.2v62.8l3-2.2V41Z" fill="#000"/><path opacity=".2" d="m91.3 38.9 3.1 2.2H111l-1-2.2H91.2Z" fill="#fff"/><path opacity=".4" d="M94.4 99.5H111l-1 2.2H91.2l3.1-2.2Z" fill="#000"/><path opacity=".3" d="M102.7 50.4a3.2 3.2 0 1 1 0-6.4 3.2 3.2 0 0 1 0 6.4Zm0-5.4a2.1 2.1 0 1 0 2.2 2.2 2.2 2.2 0 0 0-2.2-2.1Zm0 51.6a.5.5 0 0 1-.5-.3V90.7a.5.5 0 0 1 .1-.4.5.5 0 0 1 .8 0l.2.4v5.4c0 .1 0 .3-.2.4l-.4.1Z" fill="#fff"/><path d="M109.4 53.5H96v33.6h13.4V53.5Z" fill="#263238"/><path d="m120.2 76.7-1.2 10H96V54h10.8c.7 5.3 1 10.7 1 16l12.4 3.3h.3l-.3 3.4Z" fill="#1E60F6"/><path opacity=".4" d="m120.2 76.7-1.2 10H96V54h10.8c.7 5.3 1 10.7 1 16l12.4 3.3h.3l-.3 3.4Z" fill="#fff"/><path opacity=".2" d="M108.2 86.7H119l1.5-13.3h-10.7l-1.6 13.3Z" fill="#fff"/><path opacity=".4" d="M97 70h10.7l12.8 3.4h-10.7L97 70Z" fill="#fff"/><path opacity=".2" d="m109.8 73.4-.4-.1L97 70c0-5.4-.3-10.7-1-16v32.6l.5-3.4 11.7 3.5 1.2-10 .4-3.3Z" fill="#000"/><path d="m77.4 41.1-1-2.2H57.6v62.8h18.6l1-2.2V41h.1Z" fill="#1E60F6"/><path opacity=".2" d="m60.8 41.1-3-2.2v62.8l3-2.2V41Z" fill="#000"/><path opacity=".2" d="m57.7 38.9 3.1 2.2h16.6l-1-2.2H57.6Z" fill="#fff"/><path opacity=".4" d="M60.8 99.5h16.6l-1 2.2H57.6l3.1-2.2Z" fill="#000"/><path opacity=".3" d="M69.1 50.4a3.2 3.2 0 1 1 0-6.4 3.2 3.2 0 0 1 0 6.4Zm0-5.4a2.2 2.2 0 1 0 2.2 2.2A2.2 2.2 0 0 0 69 45Zm0 51.6a.5.5 0 0 1-.5-.5v-5.4a.5.5 0 0 1 .5-.5.5.5 0 0 1 .6.5v5.4a.5.5 0 0 1-.6.5Z" fill="#fff"/><path d="M75.8 53.5H62.4v33.6h13.4V53.5Z" fill="#263238"/><path d="m86.5 76.7-1.1 10h-23V54h10.8c.6 5.3 1 10.7.9 16l12.4 3.3h.4l-.4 3.4Z" fill="#1E60F6"/><path opacity=".4" d="m86.5 76.7-1.1 10h-23V54h10.8c.6 5.3 1 10.7.9 16l12.4 3.3h.4l-.4 3.4Z" fill="#fff"/><path opacity=".2" d="M74.6 86.7h10.8l1.5-13.3H76.2l-1.6 13.3Z" fill="#fff"/><path opacity=".4" d="M63.3 70h10.8L87 73.4H76.2L63.3 70Z" fill="#fff"/><path opacity=".2" d="m76.2 73.4-.4-.1L63.4 70c0-5.4-.3-10.7-1-16v32.6l.5-3.4 11.7 3.5 1.2-10 .4-3.3Z" fill="#000"/><path d="M195.4 72.2s5.6 10.6 6 13.1c.4 2.5-5.6 18.4-5.6 18.4s1.1 4.2-.2 4.9c-1.3.6-3.7 2-4 .8-.3-1.2.1-5.2.1-5.2l1-.9s4-16.6 4-17.2c0-.6-6-10.6-6-10.6l4.7-3.3Z" fill="#FBC2BB"/><path d="M201.8 85.8c0 2-4 14.6-4 14.6l-4.6-.5s2.4-12.5 2.4-13.8l-.7-1.7-2.8-4.5-3-4.4 3.8-3 .7-1.8c.5-1 1.1-2.1 1.7-2 2.1.7 6.5 15.2 6.4 17.1Z" fill="#263238"/><path d="m193.3 98 5.7.9-1.2 1.5-4.6-.6V98h.1Z" fill="#1E60F6"/><path opacity=".6" d="m193.3 98 5.7.9-1.2 1.5-4.6-.6V98h.1Z" fill="#fff"/><path opacity=".2" d="m194.9 84.3-2.8-4.5-3-4.3 3.8-3 .7-1.8c1 2 4 8.1 1.3 13.6Z" fill="#000"/><path d="M179.7 60.6a5.5 5.5 0 0 0 5 4.2 5 5 0 0 0 3.8-1.5c2-2 1.9-4.3 2.1-8.2a5.4 5.4 0 0 0-7.4-5.4c-3.8 1.6-4.4 7.4-3.5 11Z" fill="#FBC2BB"/><path opacity=".2" d="M181.8 63.8a5 5 0 0 0 5 .6c-.2-.5-.4-1-.7-1.3-1.5-.2-3 0-4.3.7Z" fill="#000"/><path d="M189.7 68.8c-2 1.8-6.7 1.1-6.7 1.1s-3-.8-2.3-1.7c1.7-.3 2.6-1 2.9-2.2a5 5 0 0 0 .2-2l-.2-1 5.9-4.3c-.8 2.8-1.7 8 .2 10.1Z" fill="#FBC2BB"/><path d="M184.3 48s-1-.6-2.8 1c-1.5 1.5 0 2.6-.9 4.4-.9 1.7.3 3.5.3 3.5s.9 1.9 2.4 1.8c0 0 1.2 1.4 1 3-.2 1.5 2 2.7 5 2.7s1.8-2 1.8-2a11.4 11.4 0 0 0 2.9-8 6.2 6.2 0 0 0-1.8-4.5c-2-2.2-6.7-3.3-8-1.9Z" fill="#263238"/><path d="M184 57.8a2.5 2.5 0 0 1-1.3 1.8c-.8.3-1.3-.8-1.2-2 .1-1 .7-2.5 1.5-2.3.8.2 1.3 1.5 1 2.5Z" fill="#FBC2BB"/><path d="m190.1 68.5-.8-2.2s-5.8-1.2-7.8 1.7c-2 3 8.6.5 8.6.5Z" fill="#1E60F6"/><path opacity=".6" d="m190.1 68.5-.8-2.2s-5.8-1.2-7.8 1.7c-2 3 8.6.5 8.6.5Z" fill="#fff"/><path d="m174.6 191.3-4 .4-.2-2.3-.6-6.5 4-.4.7 7.1.1 1.7Zm20.4-.5h-4v-1l-.2-5.8-.1-2.3h4l.3 9Z" fill="#FBC2BB"/><path opacity=".2" d="m173.9 182.5.6 7.1-4.2-.2-.5-6.5 4-.4Zm21 7.8-4-.5-.1-5.6 4 .4.1 5.5v.2Z" fill="#000"/><path d="M190.5 190.5h4.8l.2.1v.2l.9 3.5a.6.6 0 0 1-.5.7h-.1l-4.6-.1-6.5.1c-1.6 0-1.9-1.6-1.2-1.8 3-.6 5.3-1.5 6.3-2.4.2-.2.4-.3.7-.3Zm-20.4 0h4.8a.3.3 0 0 1 .4.2l.7 3.5v.2a.6.6 0 0 1-.2.4h-11.4c-1.6 0-1.9-1.6-1.2-1.7 3-.7 5.3-1.6 6.3-2.4l.6-.3Z" fill="#263238"/><path d="M169.4 188.8h5.8s-.5-49.9 5.8-66.8a810.8 810.8 0 0 0 2.3 23.7l6.4 43.5h5.8s-.7-29.7-1.4-42c-.7-13.4-1-42.8-1-45.4h-21c-2 10.6-7.1 52.8-2.7 87Z" fill="#1E60F6"/><path opacity=".2" d="m181 122 1.4 16.2c.7-7 1.6-12 1.6-12s.9-.6 3.1-4.2c2.3-3.6 0-10.3 0-10.3 0 6.3-6.1 10.3-6.1 10.3Z" fill="#000"/><path d="m168.8 187.1.3 1.7h6.8v-1.5l-7.1-.2Zm20.3.7.7 1.5h5.7l.4-1.5H189Z" fill="#1E60F6"/><path d="M193.5 103.3s-.8-9.1.4-23c.3-3.6.8-7.4 1.4-11.6 0 0-11.4-2.5-19.4 0l-.7 4.6-1 6.4v.2c-.8 6-2.3 14.9-2.4 23l21.7.4Z" fill="#263238"/><path opacity=".2" d="M174.2 80c1.7-1.5 2.5-7 2.6-7.2l-1.6.5a213.5 213.5 0 0 0-1 6.6Z" fill="#000"/><path d="M174.8 74.4s-8.6 0-11.4-.8c-2.8-.9-8.5-13.8-8.5-13.8l-4.2-2s1-3.3 2.2-3.4c1.3-.1 3.9 3 4.2 3.8.3.7 7.5 10 7.9 10.6.4.5 10.8 0 10.8 0l-1 5.6Z" fill="#FBC2BB"/><path d="M177.4 68.3c-2.8.6-11.3.5-12 .2a71 71 0 0 1-6-7.9l-3.2 3.6s4.8 9.5 6 10.2c1.3.8 12.5 1.7 12.5 1.7 3.2-3.2 2.7-7.8 2.7-7.8Z" fill="#263238"/><path opacity=".6" d="m168.8 187.1.3 1.7h6.8v-1.5l-7.1-.2Zm20.3.7.7 1.5h5.7l.4-1.5H189Z" fill="#fff"/><path d="m157.1 66 3.2-4-1-1.4-3.1 3.6 1 1.8Z" fill="#1E60F6"/><path opacity=".6" d="m157.1 66 3.2-4-1-1.4-3.1 3.6 1 1.8Z" fill="#fff"/></g><defs><clipPath id="a"><path fill="#fff" d="M0 0h269v201H0z"/></clipPath></defs></svg>