<svg fill="none" xmlns="http://www.w3.org/2000/svg" viewBox="0 0 527 390"><path d="M474.2 363.01h-34.91v.26h34.9v-.26ZM349.1 365.88h-9.16v.26h9.17v-.26ZM438.23 353.23h-20.22v.26h20.22v-.26ZM100.81 355H55.3v.26h45.52V355ZM116.88 355h-6.67v.26h6.67V355ZM237.3 359.45h-98.73v.26h98.74v-.26ZM249.8 299.04H46.3a6.02 6.02 0 0 1-6.03-6.02V6.94A6.02 6.02 0 0 1 46.3.97h203.5A6.02 6.02 0 0 1 255.83 7v286.03a6.02 6.02 0 0 1-6.02 6.02ZM46.3 1.18a5.77 5.77 0 0 0-5.76 5.76v286.08a5.77 5.77 0 0 0 5.75 5.76h203.5a5.76 5.76 0 0 0 5.76-5.76V6.94a5.77 5.77 0 0 0-5.75-5.76H46.3ZM477.79 299.04H274.26a6.03 6.03 0 0 1-6.02-6.02V6.94a6.03 6.03 0 0 1 6.02-5.97H477.8a6.02 6.02 0 0 1 6 5.97v286.08a6.02 6.02 0 0 1-6 6.02ZM274.26 1.18a5.77 5.77 0 0 0-5.75 5.76v286.08a5.77 5.77 0 0 0 5.75 5.76H477.8a5.77 5.77 0 0 0 5.75-5.76V6.94a5.77 5.77 0 0 0-5.75-5.76H274.26ZM527 346.05H0v.26h527v-.26Z" fill="#EBEBEB"/><path d="M454.12 91.34h-89.15v224.6h89.15V91.34Z" fill="#E0E0E0"/><path d="M454.12 89.37V317.9h16.42V89.37h-16.42ZM349.34 89.37V317.9h16.4V89.37h-16.4Z" fill="#E6E6E6"/><path d="M346.54 89.37V317.9h109.54V89.37H346.54Zm105.62 3.94v40.98H350.48V93.31h101.68ZM350.48 224.12v-40.98h101.68v40.98H350.48Zm101.68 3.94v40.99H350.48v-40.99h101.68Zm-101.65-48.85v-40.98h101.65v40.98H350.51Zm0 134.76v-40.98h101.65V314l-101.65-.04Z" fill="#F5F5F5"/><path d="M416.63 134.66h3.79v-31.8h-3.79v31.8Z" fill="#E6E6E6"/><path d="M420.43 134.66h3.78v-31.8h-3.78v31.8Z" fill="#E0E0E0"/><path d="M409.05 134.66h7.57V105.1h-7.57v29.56Z" fill="#E6E6E6"/><path d="M400.37 134.66h4.9v-31.8h-4.9v31.8Z" fill="#F0F0F0"/><path d="M405.27 134.66h3.79v-31.8h-3.79v31.8Z" fill="#EBEBEB"/><path d="M371.62 134.66h4.9v-31.8h-4.9v31.8Z" fill="#E6E6E6"/><path d="M376.53 134.66h3.79v-31.8h-3.79v31.8Z" fill="#EBEBEB"/><path d="M387.88 134.66h4.9v-31.8h-4.9v31.8Z" fill="#E6E6E6"/><path d="M392.8 134.66h3.78v-31.8h-3.79v31.8Z" fill="#E0E0E0"/><path d="M364.05 134.66h7.58v-31.04h-7.58v31.04Z" fill="#EBEBEB"/><path d="M360.26 134.66h3.8v-31.04h-3.8v31.04ZM382.83 134.66h5.05v-31.04h-5.05v31.04Z" fill="#E0E0E0"/><path d="M380.3 134.66h2.53v-31.04h-2.53v31.04Z" fill="#F0F0F0"/><path d="M392.8 134.66h7.57V105.1h-7.58v29.56Z" fill="#F5F5F5"/><path d="M435.57 134.66h4.9v-31.8h-4.9v31.8Z" fill="#EBEBEB"/><path d="M440.48 134.66h3.78v-31.8h-3.78v31.8Z" fill="#E6E6E6"/><path d="M428 134.66h7.57v-31.04H428v31.04Z" fill="#E0E0E0"/><path d="M424.2 134.66h3.8v-31.04h-3.8v31.04ZM446.8 134.66h5.04v-31.04h-5.05v31.04Z" fill="#EBEBEB"/><path d="M444.26 134.66h2.53v-31.04h-2.53v31.04Z" fill="#FAFAFA"/><path d="M395.46 147.4h-3.78v31.8h3.78v-31.8Z" fill="#E6E6E6"/><path d="M391.68 147.4h-3.79v31.8h3.79v-31.8Z" fill="#E0E0E0"/><path d="M403.05 149.63h-7.58v29.56h7.58v-29.56Z" fill="#E6E6E6"/><path d="M411.73 147.4h-4.9v31.8h4.9v-31.8Z" fill="#F0F0F0"/><path d="M406.85 147.4h-3.8v31.8h3.8v-31.8Z" fill="#EBEBEB"/><path d="M440.48 147.4h-4.9v31.8h4.9v-31.8Z" fill="#E6E6E6"/><path d="M435.58 147.4h-3.79v31.8h3.79v-31.8Z" fill="#EBEBEB"/><path d="M424.21 147.4h-4.9v31.8h4.9v-31.8Z" fill="#E6E6E6"/><path d="M419.3 147.4h-3.78v31.8h3.78v-31.8Z" fill="#E0E0E0"/><path d="M448.06 148.15h-7.58v31.04h7.57v-31.04Z" fill="#EBEBEB"/><path d="M451.85 148.15h-3.8v31.04h3.8v-31.04ZM429.26 148.15h-5.05v31.04h5.05v-31.04Z" fill="#E0E0E0"/><path d="M431.8 148.15h-2.54v31.04h2.53v-31.04Z" fill="#F0F0F0"/><path d="M419.31 149.63h-7.58v29.56h7.58v-29.56Z" fill="#F5F5F5"/><path d="M376.53 147.4h-4.9v31.8h4.9v-31.8Z" fill="#EBEBEB"/><path d="M371.62 147.4h-3.78v31.8h3.78v-31.8Z" fill="#E6E6E6"/><path d="M384.1 148.15h-7.58v31.04h7.58v-31.04Z" fill="#E0E0E0"/><path d="M387.9 148.15h-3.8v31.04h3.8v-31.04ZM365.3 148.15h-5.04v31.04h5.05v-31.04Z" fill="#EBEBEB"/><path d="M367.85 148.15h-2.53v31.04h2.53v-31.04Z" fill="#FAFAFA"/><path d="M395.46 192.7h-3.78v31.8h3.78v-31.8Z" fill="#E6E6E6"/><path d="M391.68 192.7h-3.79v31.8h3.79v-31.8Z" fill="#E0E0E0"/><path d="M403.05 194.94h-7.58v29.56h7.58v-29.56Z" fill="#E6E6E6"/><path d="M411.73 192.7h-4.9v31.8h4.9v-31.8Z" fill="#F0F0F0"/><path d="M406.85 192.7h-3.8v31.8h3.8v-31.8Z" fill="#EBEBEB"/><path d="M440.48 192.7h-4.9v31.8h4.9v-31.8Z" fill="#E6E6E6"/><path d="M435.58 192.7h-3.79v31.8h3.79v-31.8Z" fill="#EBEBEB"/><path d="M424.21 192.7h-4.9v31.8h4.9v-31.8Z" fill="#E6E6E6"/><path d="M419.3 192.7h-3.78v31.8h3.78v-31.8Z" fill="#E0E0E0"/><path d="M448.06 193.46h-7.58v31.04h7.57v-31.04Z" fill="#EBEBEB"/><path d="M451.85 193.46h-3.8v31.04h3.8v-31.04ZM429.26 193.46h-5.05v31.04h5.05v-31.04Z" fill="#E0E0E0"/><path d="M431.8 193.46h-2.54v31.04h2.53v-31.04Z" fill="#F0F0F0"/><path d="M419.31 194.94h-7.58v29.56h7.58v-29.56Z" fill="#F5F5F5"/><path d="M376.53 192.7h-4.9v31.8h4.9v-31.8Z" fill="#EBEBEB"/><path d="M371.62 192.7h-3.78v31.8h3.78v-31.8Z" fill="#E6E6E6"/><path d="M384.1 193.46h-7.58v31.04h7.58v-31.04Z" fill="#E0E0E0"/><path d="M387.9 193.46h-3.8v31.04h3.8v-31.04ZM365.3 193.46h-5.04v31.04h5.05v-31.04Z" fill="#EBEBEB"/><path d="M367.85 193.46h-2.53v31.04h2.53v-31.04Z" fill="#FAFAFA"/><path d="M416.63 269.81h3.79v-31.8h-3.79v31.8Z" fill="#E6E6E6"/><path d="M420.43 269.81h3.78v-31.8h-3.78v31.8Z" fill="#E0E0E0"/><path d="M409.05 267.58h7.57v-29.56h-7.57v29.56Z" fill="#E6E6E6"/><path d="M400.37 269.81h4.9v-31.8h-4.9v31.8Z" fill="#F0F0F0"/><path d="M405.27 269.81h3.79v-31.8h-3.79v31.8Z" fill="#EBEBEB"/><path d="M371.62 269.81h4.9v-31.8h-4.9v31.8Z" fill="#E6E6E6"/><path d="M376.53 269.81h3.79v-31.8h-3.79v31.8Z" fill="#EBEBEB"/><path d="M387.88 269.81h4.9v-31.8h-4.9v31.8Z" fill="#E6E6E6"/><path d="M392.8 269.81h3.78v-31.8h-3.79v31.8Z" fill="#E0E0E0"/><path d="M364.05 269.07h7.58v-31.04h-7.58v31.04Z" fill="#EBEBEB"/><path d="M360.26 269.07h3.8v-31.04h-3.8v31.04ZM382.83 269.07h5.05v-31.04h-5.05v31.04Z" fill="#E0E0E0"/><path d="M380.3 269.07h2.53v-31.04h-2.53v31.04Z" fill="#F0F0F0"/><path d="M392.8 267.58h7.57v-29.56h-7.58v29.56Z" fill="#F5F5F5"/><path d="M435.57 269.81h4.9v-31.8h-4.9v31.8Z" fill="#EBEBEB"/><path d="M440.48 269.81h3.78v-31.8h-3.78v31.8Z" fill="#E6E6E6"/><path d="M428 269.07h7.57v-31.04H428v31.04Z" fill="#E0E0E0"/><path d="M424.2 269.07h3.8v-31.04h-3.8v31.04ZM446.8 269.07h5.04v-31.04h-5.05v31.04Z" fill="#EBEBEB"/><path d="M444.26 269.07h2.53v-31.04h-2.53v31.04Z" fill="#FAFAFA"/><path d="M395.46 283.34h-3.78v31.8h3.78v-31.8Z" fill="#E6E6E6"/><path d="M391.68 283.34h-3.79v31.8h3.79v-31.8Z" fill="#E0E0E0"/><path d="M403.05 283.34h-7.58v29.56h7.58v-29.56Z" fill="#E6E6E6"/><path d="M411.73 283.34h-4.9v31.8h4.9v-31.8Z" fill="#F0F0F0"/><path d="M406.85 283.34h-3.8v31.8h3.8v-31.8Z" fill="#EBEBEB"/><path d="M440.48 283.34h-4.9v31.8h4.9v-31.8Z" fill="#E6E6E6"/><path d="M435.58 283.34h-3.79v31.8h3.79v-31.8Z" fill="#EBEBEB"/><path d="M424.21 283.34h-4.9v31.8h4.9v-31.8Z" fill="#E6E6E6"/><path d="M419.3 283.34h-3.78v31.8h3.78v-31.8Z" fill="#E0E0E0"/><path d="M448.06 283.34h-7.58v31.04h7.57v-31.04Z" fill="#EBEBEB"/><path d="M451.85 283.34h-3.8v31.04h3.8v-31.04ZM429.26 283.34h-5.05v31.04h5.05v-31.04Z" fill="#E0E0E0"/><path d="M431.8 283.34h-2.54v31.04h2.53v-31.04Z" fill="#F0F0F0"/><path d="M419.31 283.34h-7.58v29.56h7.58v-29.56Z" fill="#F5F5F5"/><path d="M376.53 283.34h-4.9v31.8h4.9v-31.8Z" fill="#EBEBEB"/><path d="M371.62 283.34h-3.78v31.8h3.78v-31.8Z" fill="#E6E6E6"/><path d="M384.1 283.34h-7.58v31.04h7.58v-31.04Z" fill="#E0E0E0"/><path d="M387.9 283.34h-3.8v31.04h3.8v-31.04ZM365.3 283.34h-5.04v31.04h5.05v-31.04Z" fill="#EBEBEB"/><path d="M367.85 283.34h-2.53v31.04h2.53v-31.04Z" fill="#FAFAFA"/><path d="M451.94 49.03h-66.53v22.03h66.53V49.03ZM386.52 1.18h-1.05v47.85h1.05V1.18ZM451.84 1.18h-1.05v47.85h1.05V1.18Z" fill="#E6E6E6"/><path d="M345.17 79.34H243.1V336.5h102.08V79.34Z" fill="#E0E0E0"/><path d="M345.18 77.08v261.69h18.8V77.08h-18.8ZM225.19 77.08v261.69H244V77.08H225.2Z" fill="#E6E6E6"/><path d="M222 77.08v261.69h125.42V77.08H221.99Zm120.92 4.51v46.91H226.5V81.6h116.42ZM226.5 231.4v-46.93h116.42v46.93H226.5Zm116.42 4.5v46.93H226.5V235.9h116.42ZM226.5 179.96v-46.92h116.42v46.92H226.5Zm0 154.3v-46.92h116.42v46.93H226.5Z" fill="#F5F5F5"/><path d="M302.24 128.95h4.35v-36.4h-4.35v36.4Z" fill="#E6E6E6"/><path d="M306.57 128.95h4.35v-36.4h-4.35v36.4Z" fill="#E0E0E0"/><path d="M293.57 128.94h8.68V95.08h-8.68v33.86Z" fill="#E6E6E6"/><path d="M283.63 128.95h5.6v-36.4h-5.6v36.4Z" fill="#F0F0F0"/><path d="M289.23 128.95h4.34v-36.4h-4.34v36.4Z" fill="#EBEBEB"/><path d="M250.71 128.95h5.61v-36.4h-5.6v36.4Z" fill="#E6E6E6"/><path d="M256.32 128.95h4.34v-36.4h-4.34v36.4Z" fill="#EBEBEB"/><path d="M269.34 128.95h5.6v-36.4h-5.6v36.4Z" fill="#E6E6E6"/><path d="M274.95 128.95h4.34v-36.4h-4.34v36.4Z" fill="#E0E0E0"/><path d="M242.04 128.95h8.68V93.4h-8.68v35.55Z" fill="#EBEBEB"/><path d="M237.7 128.95h4.34V93.4h-4.34v35.55ZM263.55 128.95h5.79V93.4h-5.79v35.55Z" fill="#E0E0E0"/><path d="M260.66 128.95h2.9V93.4h-2.9v35.55Z" fill="#F0F0F0"/><path d="M274.95 128.94h8.67V95.08h-8.67v33.86Z" fill="#F5F5F5"/><path d="M323.95 128.95h5.6v-36.4h-5.6v36.4Z" fill="#EBEBEB"/><path d="M329.54 128.95h4.35v-36.4h-4.35v36.4Z" fill="#E6E6E6"/><path d="M315.26 128.95h8.68V93.4h-8.68v35.55Z" fill="#E0E0E0"/><path d="M310.93 128.95h4.34V93.4h-4.34v35.55ZM336.78 128.95h5.79V93.4h-5.79v35.55Z" fill="#EBEBEB"/><path d="M333.88 128.95h2.9V93.4h-2.9v35.55Z" fill="#FAFAFA"/><path d="M278.02 143.51h-4.34v36.4h4.34v-36.4Z" fill="#E6E6E6"/><path d="M273.68 143.51h-4.34v36.4h4.34v-36.4Z" fill="#E0E0E0"/><path d="M286.69 146.07H278v33.86h8.68v-33.86Z" fill="#E6E6E6"/><path d="M296.64 143.51h-5.6v36.4h5.6v-36.4Z" fill="#F0F0F0"/><path d="M291.04 143.51h-4.34v36.4h4.34v-36.4Z" fill="#EBEBEB"/><path d="M329.55 143.51h-5.61v36.4h5.6v-36.4Z" fill="#E6E6E6"/><path d="M323.95 143.51h-4.34v36.4h4.34v-36.4Z" fill="#EBEBEB"/><path d="M310.92 143.51h-5.6v36.4h5.6v-36.4Z" fill="#E6E6E6"/><path d="M305.32 143.51h-4.34v36.4h4.34v-36.4Z" fill="#E0E0E0"/><path d="M338.22 144.38h-8.68v35.55h8.68v-35.55Z" fill="#EBEBEB"/><path d="M342.57 144.38h-4.34v35.55h4.34v-35.55ZM316.7 144.38h-5.78v35.55h5.78v-35.55Z" fill="#E0E0E0"/><path d="M319.6 144.38h-2.9v35.55h2.9v-35.55Z" fill="#F0F0F0"/><path d="M305.31 146.07h-8.67v33.86h8.67v-33.86Z" fill="#F5F5F5"/><path d="M256.32 143.51h-5.6v36.4h5.6v-36.4Z" fill="#EBEBEB"/><path d="M250.71 143.51h-4.34v36.4h4.34v-36.4Z" fill="#E6E6E6"/><path d="M265 144.38h-8.68v35.55H265v-35.55Z" fill="#E0E0E0"/><path d="M269.34 144.38H265v35.55h4.34v-35.55ZM243.49 144.38h-5.8v35.55h5.8v-35.55Z" fill="#EBEBEB"/><path d="M246.37 144.38h-2.89v35.55h2.9v-35.55Z" fill="#FAFAFA"/><path d="M278.02 195.4h-4.34v36.4h4.34v-36.4Z" fill="#E6E6E6"/><path d="M273.68 195.4h-4.34v36.4h4.34v-36.4Z" fill="#E0E0E0"/><path d="M286.69 197.96H278v33.86h8.68v-33.86Z" fill="#E6E6E6"/><path d="M296.64 195.4h-5.6v36.4h5.6v-36.4Z" fill="#F0F0F0"/><path d="M291.04 195.4h-4.34v36.4h4.34v-36.4Z" fill="#EBEBEB"/><path d="M329.55 195.4h-5.61v36.4h5.6v-36.4Z" fill="#E6E6E6"/><path d="M323.95 195.4h-4.34v36.4h4.34v-36.4Z" fill="#EBEBEB"/><path d="M310.92 195.4h-5.6v36.4h5.6v-36.4Z" fill="#E6E6E6"/><path d="M305.32 195.4h-4.34v36.4h4.34v-36.4Z" fill="#E0E0E0"/><path d="M338.22 196.27h-8.68v35.55h8.68v-35.55Z" fill="#EBEBEB"/><path d="M342.57 196.27h-4.34v35.55h4.34v-35.55ZM316.7 196.27h-5.78v35.55h5.78v-35.55Z" fill="#E0E0E0"/><path d="M319.6 196.27h-2.9v35.55h2.9v-35.55Z" fill="#F0F0F0"/><path d="M305.31 197.96h-8.67v33.86h8.67v-33.86Z" fill="#F5F5F5"/><path d="M256.32 195.4h-5.6v36.4h5.6v-36.4Z" fill="#EBEBEB"/><path d="M250.71 195.4h-4.34v36.4h4.34v-36.4Z" fill="#E6E6E6"/><path d="M265 196.27h-8.68v35.55H265v-35.55Z" fill="#E0E0E0"/><path d="M269.34 196.27H265v35.55h4.34v-35.55ZM243.49 196.27h-5.8v35.55h5.8v-35.55Z" fill="#EBEBEB"/><path d="M246.37 196.27h-2.89v35.55h2.9v-35.55Z" fill="#FAFAFA"/><path d="M302.24 283.7h4.35v-36.41h-4.35v36.4Z" fill="#E6E6E6"/><path d="M306.57 283.7h4.35v-36.41h-4.35v36.4Z" fill="#E0E0E0"/><path d="M293.57 281.14h8.68V247.3h-8.68v33.85Z" fill="#E6E6E6"/><path d="M283.63 283.7h5.6v-36.41h-5.6v36.4Z" fill="#F0F0F0"/><path d="M289.23 283.7h4.34v-36.41h-4.34v36.4Z" fill="#EBEBEB"/><path d="M250.71 283.7h5.61v-36.41h-5.6v36.4Z" fill="#E6E6E6"/><path d="M256.32 283.7h4.34v-36.41h-4.34v36.4Z" fill="#EBEBEB"/><path d="M269.34 283.7h5.6v-36.41h-5.6v36.4Z" fill="#E6E6E6"/><path d="M274.95 283.7h4.34v-36.41h-4.34v36.4Z" fill="#E0E0E0"/><path d="M242.04 282.84h8.68V247.3h-8.68v35.55Z" fill="#EBEBEB"/><path d="M237.7 282.84h4.34V247.3h-4.34v35.55ZM263.55 282.84h5.79V247.3h-5.79v35.55Z" fill="#E0E0E0"/><path d="M260.66 282.84h2.9V247.3h-2.9v35.55Z" fill="#F0F0F0"/><path d="M274.95 281.14h8.67V247.3h-8.67v33.85Z" fill="#F5F5F5"/><path d="M323.95 283.7h5.6v-36.41h-5.6v36.4Z" fill="#EBEBEB"/><path d="M329.54 283.7h4.35v-36.41h-4.35v36.4Z" fill="#E6E6E6"/><path d="M315.26 282.84h8.68V247.3h-8.68v35.55Z" fill="#E0E0E0"/><path d="M310.93 282.84h4.34V247.3h-4.34v35.55ZM336.78 282.84h5.79V247.3h-5.79v35.55Z" fill="#EBEBEB"/><path d="M333.88 282.84h2.9V247.3h-2.9v35.55Z" fill="#FAFAFA"/><path d="M278.02 299.18h-4.34v36.4h4.34v-36.4Z" fill="#E6E6E6"/><path d="M273.68 299.18h-4.34v36.4h4.34v-36.4Z" fill="#E0E0E0"/><path d="M286.69 299.18H278v33.85h8.68v-33.85Z" fill="#E6E6E6"/><path d="M296.64 299.18h-5.6v36.4h5.6v-36.4Z" fill="#F0F0F0"/><path d="M291.04 299.18h-4.34v36.4h4.34v-36.4Z" fill="#EBEBEB"/><path d="M329.55 299.18h-5.61v36.4h5.6v-36.4Z" fill="#E6E6E6"/><path d="M323.95 299.18h-4.34v36.4h4.34v-36.4Z" fill="#EBEBEB"/><path d="M310.92 299.18h-5.6v36.4h5.6v-36.4Z" fill="#E6E6E6"/><path d="M305.32 299.18h-4.34v36.4h4.34v-36.4Z" fill="#E0E0E0"/><path d="M338.22 299.18h-8.68v35.55h8.68v-35.55Z" fill="#EBEBEB"/><path d="M342.57 299.18h-4.34v35.55h4.34v-35.55ZM316.7 299.18h-5.78v35.55h5.78v-35.55Z" fill="#E0E0E0"/><path d="M319.6 299.18h-2.9v35.55h2.9v-35.55Z" fill="#F0F0F0"/><path d="M305.31 299.18h-8.67v33.85h8.67v-33.85Z" fill="#F5F5F5"/><path d="M256.32 299.18h-5.6v36.4h5.6v-36.4Z" fill="#EBEBEB"/><path d="M250.71 299.18h-4.34v36.4h4.34v-36.4Z" fill="#E6E6E6"/><path d="M265 299.18h-8.68v35.55H265v-35.55Z" fill="#E0E0E0"/><path d="M269.34 299.18H265v35.55h4.34v-35.55ZM243.49 299.18h-5.8v35.55h5.8v-35.55Z" fill="#EBEBEB"/><path d="M246.37 299.18h-2.89v35.55h2.9v-35.55Z" fill="#FAFAFA"/><path d="M326.82 30.9h-76.2v25.22h76.2V30.89ZM251.83 1.18h-1.05v29.7h1.05V1.18ZM326.7.92h-1.06v29.96h1.06V.92Z" fill="#E6E6E6"/><path d="M258.42 389.6c112.86 0 204.36-5.35 204.36-11.94s-91.5-11.93-204.36-11.93c-112.87 0-204.36 5.34-204.36 11.93s91.5 11.93 204.36 11.93Z" fill="#F5F5F5"/><path d="M437.98 302.14h5.9l10.16 68.93c.25 1.77-1.12 2.47-2.9 2.47-1.45 0-2.68-.18-2.9-1.62l-10.26-69.78Z" fill="#263238"/><path opacity=".2" d="M437.98 302.14h5.9l10.16 68.93c.25 1.77-1.12 2.47-2.9 2.47-1.45 0-2.68-.18-2.9-1.62l-10.26-69.78Z" fill="#fff"/><path d="M419.24 302.14h5.91l5.1 69.12c.12 1.7-1.23 2.28-2.95 2.28-1.54 0-2.82-.3-2.94-1.85l-5.12-69.55Z" fill="#263238"/><path opacity=".2" d="M419.24 302.14h5.91l5.1 69.12c.12 1.7-1.23 2.28-2.95 2.28-1.54 0-2.82-.3-2.94-1.85l-5.12-69.55Z" fill="#fff"/><path d="M405.22 302.14h-5.91l-5.11 69.12c-.13 1.7 1.23 2.28 2.94 2.28 1.55 0 2.82-.3 2.94-1.85l5.14-69.55Z" fill="#263238"/><path opacity=".2" d="M405.22 302.14h-5.91l-5.11 69.12c-.13 1.7 1.23 2.28 2.94 2.28 1.55 0 2.82-.3 2.94-1.85l5.14-69.55Z" fill="#fff"/><path d="M386.49 302.14h-5.91l-10.15 68.93c-.27 1.77 1.1 2.47 2.88 2.47 1.46 0 2.7-.18 2.9-1.62l10.28-69.78Z" fill="#263238"/><path opacity=".2" d="M386.49 302.14h-5.91l-10.15 68.93c-.27 1.77 1.1 2.47 2.88 2.47 1.46 0 2.7-.18 2.9-1.62l10.28-69.78Z" fill="#fff"/><path d="m428.07 222.6-24.64 75.16h53.9l9.32-79.2h-33.01a5.85 5.85 0 0 0-5.57 4.03Z" fill="#263238"/><path opacity=".2" d="m428.07 222.6-24.64 75.16h53.9l9.32-79.2h-33.01a5.85 5.85 0 0 0-5.57 4.03Z" fill="#fff"/><path d="M419.63 291.74h-53.39a4.45 4.45 0 0 0-4.45 4.46v3.12a4.45 4.45 0 0 0 4.45 4.46h53.39v-12.04Z" fill="#263238"/><path opacity=".1" d="M419.63 291.74h-53.39a4.45 4.45 0 0 0-4.45 4.46v3.12a4.45 4.45 0 0 0 4.45 4.46h53.39v-12.04Z" fill="#fff"/><path d="m462.15 222.96-6.96 60.39a9.49 9.49 0 0 1-9.41 8.43h-37.2a4.47 4.47 0 0 0-4.47 4.47v3.1a4.46 4.46 0 0 0 4.46 4.47h45.05a9.48 9.48 0 0 0 9.43-8.54l7.58-76.67h-3.55a4.97 4.97 0 0 0-4.93 4.35Z" fill="#263238"/><path opacity=".3" d="m462.15 222.96-6.96 60.39a9.49 9.49 0 0 1-9.41 8.43h-37.2a4.47 4.47 0 0 0-4.47 4.47v3.1a4.46 4.46 0 0 0 4.46 4.47h45.05a9.48 9.48 0 0 0 9.43-8.54l7.58-76.67h-3.55a4.97 4.97 0 0 0-4.93 4.35Z" fill="#fff"/><path d="m375.5 349.98.77 14.1-7.9.61-1.97-13.4 9.1-1.31Z" fill="#F4BCB4"/><path d="M364.96 365.49a3.56 3.56 0 0 1-2.46-.48.75.75 0 0 1 0-.85c.13-.24.34-.41.6-.5 1.34-.46 4.31 1 4.45 1.05a.18.18 0 0 1 .1.2.2.2 0 0 1-.14.16c-.84.22-1.7.35-2.55.42Zm-1.4-1.52c-.13 0-.26.02-.37.06a.54.54 0 0 0-.37.3c-.13.25-.08.36 0 .43.4.51 2.49.4 4 .1a8.82 8.82 0 0 0-3.26-.9Z" fill="#1E60F6"/><path d="M367.44 365.08a.11.11 0 0 1-.09 0c-1.05-.37-3.1-2.03-2.98-2.97 0-.22.16-.5.68-.59.38-.05.75.05 1.06.26 1.1.8 1.46 3 1.48 3.1a.2.2 0 0 1-.07.2.22.22 0 0 1-.08 0Zm-2.23-3.16h-.11c-.35.05-.36.2-.37.24 0 .56 1.37 1.88 2.42 2.42a4.6 4.6 0 0 0-1.25-2.46c-.2-.14-.44-.21-.69-.2Z" fill="#1E60F6"/><path d="m368.24 363.88 8.97-.57a.72.72 0 0 1 .74.53l2.11 7.2a1.21 1.21 0 0 1-.4 1.28c-.12.1-.26.17-.41.22l-.25.05c-3.24.15-6.14.15-10.16.41-4.76.3-3.51.79-9.1 1.22-3.37.27-4.22-3.53-2.81-3.8 6.49-1.25 7.04-3.26 9.4-5.76.53-.48 1.2-.75 1.9-.78Z" fill="#263238"/><path opacity=".2" d="m366.4 351.3.98 6.68 8.53-.62-.4-7.38-9.1 1.32Z" fill="#263238"/><path d="M408.43 261.9s-44.54 6.49-50.51 21.08c-5.98 14.58 6.96 69.2 6.96 69.2l12.19-1.06s-.1-33.57-2.56-58.57l33.92-1.66 31.14-31.7-31.14 2.7Z" fill="#1E60F6"/><path opacity=".5" d="M408.43 261.9s-44.54 6.49-50.51 21.08c-5.98 14.58 6.96 69.2 6.96 69.2l12.19-1.06s-.1-33.57-2.56-58.57l33.92-1.66 31.14-31.7-31.14 2.7Z" fill="#000"/><path d="m364.05 351.49 13.79-1.51v3.78l-13.03 1.14-.76-3.41Z" fill="#1E60F6"/><path d="m405.78 351.56.76 14.11-7.9.6-1.97-13.4 9.1-1.3Z" fill="#F4BCB4"/><path d="M395.25 367.07a3.52 3.52 0 0 1-2.47-.48.75.75 0 0 1 0-.85c.13-.23.33-.41.58-.5 1.35-.46 4.32 1 4.46 1.06a.2.2 0 0 1 .1.2c0 .04-.02.07-.05.1a.24.24 0 0 1-.1.07c-.82.2-1.67.33-2.52.4Zm-1.41-1.52c-.13 0-.25.03-.37.07a.53.53 0 0 0-.37.3c-.13.25-.08.37 0 .42.4.52 2.49.4 4.01.12a9.05 9.05 0 0 0-3.28-.91Z" fill="#1E60F6"/><path d="M397.7 366.7h-.08c-1.05-.36-3.1-2.03-2.98-2.95 0-.24.16-.51.7-.6a1.49 1.49 0 0 1 1.1.26c1.05.8 1.45 3 1.48 3.1a.2.2 0 0 1-.08.19.22.22 0 0 1-.13 0Zm-2.22-3.16h-.1c-.36.06-.37.2-.38.26 0 .56 1.37 1.86 2.42 2.41a4.53 4.53 0 0 0-1.24-2.45c-.2-.15-.45-.22-.7-.2v-.02Z" fill="#1E60F6"/><path d="m398.5 365.46 8.98-.57a.73.73 0 0 1 .74.53l2.11 7.2a1.21 1.21 0 0 1-.81 1.5h-.25c-3.24.15-6.13.15-10.16.42-4.76.3-3.51.8-9.1 1.23-3.37.25-4.22-3.54-2.81-3.81 6.49-1.24 7.04-3.26 9.42-5.76a2.9 2.9 0 0 1 1.88-.74Z" fill="#263238"/><path opacity=".2" d="m406.2 359.4-.42-7.84-9.1 1.32 1.03 7.1 8.49-.59Z" fill="#263238"/><path d="M451.2 261.23s9.28 30.21-9.3 30.87c-18.58.67-43.16 0-43.16 0s8.66 23.82 8.7 62.08l-11.68 1s-19.64-64.7-14.94-73.36c6.32-11.6 50.12-20.59 50.12-20.59h20.26Z" fill="#1E60F6"/><path opacity=".4" d="M451.2 261.23s9.28 30.21-9.3 30.87c-18.58.67-43.16 0-43.16 0s8.66 23.82 8.7 62.08l-11.68 1s-19.64-64.7-14.94-73.36c6.32-11.6 50.12-20.59 50.12-20.59h20.26Z" fill="#000"/><path d="m394.4 353.6.93 3.74 13.04-1.1v-3.6l-13.98.97ZM421.97 189.01s-11.36-2.47-16.6 14.76c-3.17 10.28-2.6 24.34-2.6 24.34l-18.79.37-2.33 7.63s24.24.32 30.57-.5c6.32-.82 9.75-46.6 9.75-46.6Z" fill="#1E60F6"/><path d="M409.36 261.61s-5.98-75.06 12.29-75.06h26.22c6.33 0 9.96 8.63 8.64 24.24-1.33 15.6-2.66 54.11-2.66 54.11l-44.49-3.29Z" fill="#1E60F6"/><path opacity=".2" d="M409.36 261.61s-5.98-75.06 12.29-75.06h26.22c6.33 0 9.96 8.63 8.64 24.24-1.33 15.6-2.66 54.11-2.66 54.11l-44.49-3.29Z" fill="#fff"/><path d="m380.79 226.84 2.1.27a3.1 3.1 0 0 1 2.25 1.47l2.96 4.95a3.43 3.43 0 0 1 .4 2.65l-.48 1.86a3.47 3.47 0 0 1-4.72 2.36l-3.47-1.47a5.03 5.03 0 0 1-2.76-2.86l-.87-2.24a3.6 3.6 0 0 1 0-2.45l.73-2.1a3.6 3.6 0 0 1 3.86-2.44Z" fill="#EDB09F"/><path d="m382.33 228.17 6.47 14.94 9.96 3.81 13.28-6.63-.07-15.1-6.84-1-5.66 2.77-3.07 2.95-4.03-5.1-5.23-.62-3.36 1.5-1.45 2.48Z" fill="#1E60F6"/><path opacity=".1" d="m382.33 228.17 6.47 14.94 9.96 3.81 13.28-6.63-.07-15.1-6.84-1-5.66 2.77-3.07 2.95-4.03-5.1-5.23-.62-3.36 1.5-1.45 2.48Z" fill="#000"/><path opacity=".2" d="m400.6 246-2.08-18.15-2.12 2.06-2.79-3.52 3.37 19.86 1.78.67 1.83-.92Z" fill="#000"/><path d="M381.83 225.68s9.13-9.3 14.76 2.49c0 0 9.48-11.12 15.37-2.98l-.76 2.98s-3.06-7.38-14.81 3.54c0 0-5.94-11.5-14.07-3.54l-.49-2.49Z" fill="#1E60F6"/><path opacity=".8" d="M381.83 225.68s9.13-9.3 14.76 2.49c0 0 9.48-11.12 15.37-2.98l-.76 2.98s-3.06-7.38-14.81 3.54c0 0-5.94-11.5-14.07-3.54l-.49-2.49Z" fill="#fff"/><path d="M429.16 229.49h-10.03l-2.63-2.45a4.72 4.72 0 0 0-4.22-1.17l-1.22.25c-.82.17-1.67.12-2.45-.15a4.76 4.76 0 0 0-5.28 1.6l-.19.25a4.72 4.72 0 0 0-.2 5.47l2.53 3.85a4.74 4.74 0 0 0 5.17 2.03l7.07-1.79 12.07 1.62-.62-9.51Z" fill="#EDB09F"/><path d="M446.2 204.8c-.77-4.7-3.98-18.25 4.66-18.25 8.63 0 10.04 13.28 10.54 21.49.5 8.2 2.02 33.33-3.72 33.35-5.75.02-30.4-1.97-30.4-1.97l.26-10.97 21.66-1.73s-2-15.94-3-21.92Z" fill="#1E60F6"/><path opacity=".3" d="M446.2 204.8c-.77-4.7-3.98-18.25 4.66-18.25 8.63 0 10.04 13.28 10.54 21.49.5 8.2 2.02 33.33-3.72 33.35-5.75.02-30.4-1.97-30.4-1.97l.26-10.97 21.66-1.73s-2-15.94-3-21.92Z" fill="#fff"/><path d="m423.3 186.95.15.67 5.49 3.5 10.64-4.03.14-.1c-4.11-4.15-2.57-11.77-1.2-17.92l-5.12 4.22-6.96 5.8c.21.94.37 1.89.47 2.84.33 3.04-.5 4.07-3.61 5.02Z" fill="#EDB09F"/><path d="M416.97 156.8s-5.93 3.99-4.47 6.42c2.37 3.93 5.73-2.68 5.73-2.68l-1.26-3.74Z" fill="#263238"/><path opacity=".2" d="M435.9 178.92c.2-1.22.23-2.46.1-3.7l-9.27 5.4c.07.45.13.89.18 1.34.16.92.09 1.85-.22 2.73 3.42-.32 8.2-2.43 9.21-5.77Z" fill="#000"/><path d="M438 159.64c1.05 8.37 2.1 13.18-1.28 18.32-5.02 7.7-15.8 6.1-19.32-1.73-3.16-7.03-4.3-19.52 3.1-24.53a11.14 11.14 0 0 1 17.5 7.94Z" fill="#EDB09F"/><path d="M425.91 166.86c.13.68-.13 1.3-.56 1.39-.43.1-.9-.37-1.05-1.05-.16-.69.13-1.29.56-1.38.43-.1.96.37 1.05 1.04ZM418.07 168.36c.13.66-.13 1.3-.57 1.38-.44.08-.88-.37-1.05-1.06-.17-.68.12-1.3.56-1.39.43-.1.93.4 1.06 1.07Z" fill="#263238"/><path d="M421.13 166.14c-.36 1.9-.95 3.77-1.74 5.55a3.64 3.64 0 0 0 2.94 0l-1.2-5.55Z" fill="#D98477"/><path d="M427.65 161.91c.06 0 .13-.02.18-.06a.39.39 0 0 0 .16-.25c.02-.1 0-.2-.06-.29a3.9 3.9 0 0 0-3.16-1.66.4.4 0 0 0-.37.42.41.41 0 0 0 .27.36l.15.02a3 3 0 0 1 2.52 1.32.35.35 0 0 0 .3.14ZM414.41 163.64a.41.41 0 0 0 .32-.2 3.34 3.34 0 0 1 2.4-1.7.41.41 0 0 0 .37-.44.42.42 0 0 0-.14-.27.42.42 0 0 0-.3-.1 4.03 4.03 0 0 0-3 2.11.38.38 0 0 0 .35.6ZM427.17 173.57a6.77 6.77 0 0 0 .9-1.13.22.22 0 0 0-.09-.24.23.23 0 0 0-.17-.04.23.23 0 0 0-.15.1 6.33 6.33 0 0 1-5.07 2.81.26.26 0 0 0-.08.05.24.24 0 0 0-.08.17.24.24 0 0 0 .23.24 6.62 6.62 0 0 0 4.51-1.96ZM434.6 147.47s1.7-9.48-2.31-9.1c-4.02.38 2.3 9.1 2.3 9.1Z" fill="#263238"/><path d="M429.2 163.1a3.93 3.93 0 0 0-6.97 2.1l-2.16.53a3.94 3.94 0 1 0 .26 1.03l1.96-.47a3.96 3.96 0 1 0 7.53-2.25c4-1.55 9.64-3.3 10.72-2.62l.57-.9c-1.92-1.22-9.6 1.71-11.9 2.58Zm-12.87 6.89a2.9 2.9 0 0 1-2.87-3.47 2.9 2.9 0 1 1 2.87 3.47Zm9.78-1.5a2.9 2.9 0 1 1 .04 0h-.04Z" fill="#263238"/><path opacity=".2" d="M429.2 163.1a3.93 3.93 0 0 0-6.97 2.1l-2.16.53a3.94 3.94 0 1 0 .26 1.03l1.96-.47a3.96 3.96 0 1 0 7.53-2.25c4-1.55 9.64-3.3 10.72-2.62l.57-.9c-1.92-1.22-9.6 1.71-11.9 2.58Zm-12.87 6.89a2.9 2.9 0 0 1-2.87-3.47 2.9 2.9 0 1 1 2.87 3.47Zm9.78-1.5a2.9 2.9 0 1 1 .04 0h-.04Z" fill="#fff"/><path d="M427 153.19s-13.25 9.36-16.08 5.47c-2.82-3.9 3.07-4.22 3.07-4.22s-5.02-3.53-2.36-6.32c2.66-2.8 5.87 0 5.87 0s12.16-10.6 16.3-2.65c0 0 9.23-1.83 9.87 5.62.64 7.45 0 8.6 0 8.6s4.88.6 4.22 2.3c-.67 1.7-4.22.37-4.22.37s5.77 4.36 3.16 4.96c-2.6.6-9.39-.83-11.05-6.48-1.67-5.65.27-6.42.27-6.42s-15.87 6.54-9.05-1.23Z" fill="#263238"/><path d="M442.6 166.68a8.96 8.96 0 0 1-3.26 5.11c-2.11 1.56-3.72-.32-3.6-3 .1-2.38 1.33-6.08 3.67-6.57 2.34-.48 3.76 1.9 3.2 4.46Z" fill="#EDB09F"/><path d="M424.44 186.55s-1 2.74 4.6 2.82c5.6.09 10.76-3.32 10.76-3.32s2.25-.75 2.93.5c0 0-5.75 5.56-13.7 5.4-7.95-.17-6.71-5.5-6.71-5.5s1.45-.4 2.12.1ZM242.02 52.42H113.4v324.05h128.62V52.42Z" fill="#1E60F6"/><path opacity=".2" d="M242.02 52.42H113.4v324.05h128.62V52.42Z" fill="#fff"/><path d="M242.02 49.58v329.78h23.7V49.58h-23.7Z" fill="#1E60F6"/><path opacity=".3" d="M242.02 49.58v329.78h23.7V49.58h-23.7Z" fill="#fff"/><path d="M90.84 49.58v329.78h23.7V49.58h-23.7Z" fill="#1E60F6"/><path opacity=".4" d="M90.84 49.58v329.78h23.7V49.58h-23.7Z" fill="#fff"/><path d="M86.82 49.58v329.78h158.1V49.58H86.82Zm152.35 5.68v59.13H92.5V55.26h146.67ZM92.5 244v-59.12h146.67V244H92.5Zm146.67 5.71v59.12H92.5v-59.12h146.67ZM92.5 179.21v-59.14h146.67v59.13H92.5Zm0 194.41V314.5h146.67v59.12H92.5Z" fill="#1E60F6"/><path opacity=".6" d="M86.82 49.58v329.78h158.1V49.58H86.82Zm152.35 5.68v59.13H92.5V55.26h146.67ZM92.5 244v-59.12h146.67V244H92.5Zm146.67 5.71v59.12H92.5v-59.12h146.67ZM92.5 179.21v-59.14h146.67v59.13H92.5Zm0 194.41V314.5h146.67v59.12H92.5Z" fill="#fff"/><path d="M185.3 114.4h5.46V68.5h-5.47v45.88Z" fill="#1E60F6"/><path opacity=".1" d="M185.3 114.4h5.46V68.5h-5.47v45.88Z" fill="#fff"/><path d="M190.76 114.4h5.47V68.5h-5.47v45.88Z" fill="#1E60F6"/><path opacity=".4" d="M190.76 114.4h5.47V68.5h-5.47v45.88Z" fill="#fff"/><path d="M174.37 114.38h10.93V71.73h-10.93v42.65Z" fill="#1E60F6"/><path opacity=".6" d="M174.37 114.38h10.93V71.73h-10.93v42.65Z" fill="#fff"/><path d="M161.84 114.4h7.06V68.5h-7.06v45.88Z" fill="#1E60F6"/><path d="M168.9 114.4h5.46V68.5h-5.47v45.88Z" fill="#1E60F6"/><path opacity=".7" d="M168.9 114.4h5.46V68.5h-5.47v45.88Z" fill="#fff"/><path d="M120.38 114.4h7.06V68.5h-7.06v45.88Z" fill="#1E60F6"/><path opacity=".7" d="M120.38 114.4h7.06V68.5h-7.06v45.88Z" fill="#fff"/><path d="M127.43 114.4h5.47V68.5h-5.47v45.88Z" fill="#1E60F6"/><path opacity=".6" d="M127.43 114.4h5.47V68.5h-5.47v45.88Z" fill="#fff"/><path d="M143.84 114.4h7.06V68.5h-7.06v45.88Z" fill="#1E60F6"/><path opacity=".6" d="M143.84 114.4h7.06V68.5h-7.06v45.88Z" fill="#fff"/><path d="M150.9 114.4h5.47V68.5h-5.47v45.88Z" fill="#1E60F6"/><path opacity=".1" d="M150.9 114.4h5.47V68.5h-5.47v45.88Z" fill="#000"/><path d="M109.43 114.4h10.93V69.6h-10.93v44.8Z" fill="#1E60F6"/><path opacity=".1" d="M109.43 114.4h10.93V69.6h-10.93v44.8Z" fill="#fff"/><path d="M103.96 114.4h5.47V69.6h-5.47v44.8Z" fill="#1E60F6"/><path opacity=".6" d="M103.96 114.4h5.47V69.6h-5.47v44.8Z" fill="#fff"/><path d="M136.54 114.4h7.3V69.6h-7.3v44.8Z" fill="#1E60F6"/><path opacity=".1" d="M136.54 114.4h7.3V69.6h-7.3v44.8Z" fill="#fff"/><path d="M132.9 114.4h3.64V69.6h-3.64v44.8Z" fill="#1E60F6"/><path opacity=".3" d="M132.9 114.4h3.64V69.6h-3.64v44.8Z" fill="#fff"/><path d="M150.9 114.38h10.93V71.73H150.9v42.65Z" fill="#1E60F6"/><path opacity=".1" d="M150.9 114.38h10.93V71.73H150.9v42.65Z" fill="#fff"/><path d="M212.63 114.4h7.06V68.5h-7.06v45.88Z" fill="#1E60F6"/><path opacity=".3" d="M212.63 114.4h7.06V68.5h-7.06v45.88Z" fill="#fff"/><path d="M219.7 114.4h5.46V68.5h-5.47v45.88Z" fill="#1E60F6"/><path opacity=".2" d="M219.7 114.4h5.46V68.5h-5.47v45.88Z" fill="#fff"/><path d="M201.7 114.4h10.93V69.6H201.7v44.8Z" fill="#1E60F6"/><path opacity=".1" d="M201.7 114.4h10.93V69.6H201.7v44.8Z" fill="#fff"/><path d="M196.23 114.4h5.47V69.6h-5.47v44.8Z" fill="#1E60F6"/><path opacity=".6" d="M196.23 114.4h5.47V69.6h-5.47v44.8Z" fill="#fff"/><path d="M228.8 114.4h7.3V69.6h-7.3v44.8Z" fill="#1E60F6"/><path opacity=".1" d="M228.8 114.4h7.3V69.6h-7.3v44.8Z" fill="#fff"/><path d="M225.17 114.4h3.64V69.6h-3.64v44.8Z" fill="#1E60F6"/><path opacity=".6" d="M225.17 114.4h3.64V69.6h-3.64v44.8Z" fill="#fff"/><path d="M156.65 133.47h-5.34v45.74h5.34v-45.74Z" fill="#1E60F6"/><path opacity=".1" d="M156.65 133.47h-5.34v45.74h5.34v-45.74Z" fill="#fff"/><path d="M151.3 133.47h-5.33v45.74h5.33v-45.74Z" fill="#1E60F6"/><path opacity=".4" d="M151.3 133.47h-5.33v45.74h5.33v-45.74Z" fill="#fff"/><path d="M167.32 136.68h-10.67v42.53h10.67v-42.53Z" fill="#1E60F6"/><path opacity=".6" d="M167.32 136.68h-10.67v42.53h10.67v-42.53Z" fill="#fff"/><path d="M179.55 133.47h-6.9v45.74h6.9v-45.74ZM172.65 133.47h-5.33v45.74h5.33v-45.74Z" fill="#1E60F6"/><path opacity=".1" d="M172.65 133.47h-5.33v45.74h5.33v-45.74Z" fill="#000"/><path d="M220.03 133.47h-6.9v45.74h6.9v-45.74Z" fill="#1E60F6"/><path opacity=".1" d="M220.03 133.47h-6.9v45.74h6.9v-45.74Z" fill="#000"/><path d="M213.14 133.47h-5.33v45.74h5.33v-45.74Z" fill="#1E60F6"/><path opacity=".6" d="M213.14 133.47h-5.33v45.74h5.33v-45.74Z" fill="#fff"/><path d="M197.12 133.47h-6.9v45.74h6.9v-45.74Z" fill="#1E60F6"/><path opacity=".6" d="M197.12 133.47h-6.9v45.74h6.9v-45.74Z" fill="#fff"/><path d="M190.22 133.47h-5.33v45.74h5.33v-45.74Z" fill="#1E60F6"/><path opacity=".1" d="M190.22 133.47h-5.33v45.74h5.33v-45.74Z" fill="#000"/><path d="M230.7 134.55h-10.67v44.66h10.68v-44.66Z" fill="#1E60F6"/><path opacity=".1" d="M230.7 134.55h-10.67v44.66h10.68v-44.66Z" fill="#fff"/><path d="M236.04 134.55h-5.33v44.66h5.33v-44.66Z" fill="#1E60F6"/><path opacity=".6" d="M236.04 134.55h-5.33v44.66h5.33v-44.66Z" fill="#fff"/><path d="M204.24 134.55h-7.11v44.66h7.11v-44.66Z" fill="#1E60F6"/><path opacity=".1" d="M204.24 134.55h-7.11v44.66h7.11v-44.66Z" fill="#fff"/><path d="M207.8 134.55h-3.56v44.66h3.56v-44.66Z" fill="#1E60F6"/><path opacity=".3" d="M207.8 134.55h-3.56v44.66h3.56v-44.66Z" fill="#fff"/><path d="M190.24 136.68h-10.68v42.53h10.68v-42.53Z" fill="#1E60F6"/><path opacity=".1" d="M190.24 136.68h-10.68v42.53h10.68v-42.53Z" fill="#fff"/><path d="M129.96 133.47h-6.9v45.74h6.9v-45.74Z" fill="#1E60F6"/><path opacity=".1" d="M129.96 133.47h-6.9v45.74h6.9v-45.74Z" fill="#fff"/><path d="M123.05 133.47h-5.33v45.74h5.33v-45.74Z" fill="#1E60F6"/><path opacity=".2" d="M123.05 133.47h-5.33v45.74h5.33v-45.74Z" fill="#fff"/><path d="M140.63 134.55h-10.67v44.66h10.67v-44.66Z" fill="#1E60F6"/><path opacity=".1" d="M140.63 134.55h-10.67v44.66h10.67v-44.66Z" fill="#fff"/><path d="M145.97 134.55h-5.34v44.66h5.34v-44.66Z" fill="#1E60F6"/><path opacity=".6" d="M145.97 134.55h-5.34v44.66h5.34v-44.66Z" fill="#fff"/><path d="M114.17 134.55h-7.11v44.66h7.1v-44.66Z" fill="#1E60F6"/><path opacity=".1" d="M114.17 134.55h-7.11v44.66h7.1v-44.66Z" fill="#fff"/><path d="M117.73 134.55h-3.56v44.66h3.56v-44.66Z" fill="#1E60F6"/><path opacity=".6" d="M117.73 134.55h-3.56v44.66h3.56v-44.66Z" fill="#fff"/><path d="M186.42 308.82h5.33v-45.29h-5.33v45.3Z" fill="#1E60F6"/><path opacity=".1" d="M186.42 308.82h5.33v-45.29h-5.33v45.3Z" fill="#fff"/><path d="M191.76 308.82h5.34v-45.29h-5.34v45.3Z" fill="#1E60F6"/><path opacity=".4" d="M191.76 308.82h5.34v-45.29h-5.34v45.3Z" fill="#fff"/><path d="M175.74 308.82h10.68v-42.1h-10.68v42.1Z" fill="#1E60F6"/><path opacity=".6" d="M175.74 308.82h10.68v-42.1h-10.68v42.1Z" fill="#fff"/><path d="M163.52 308.82h6.89v-45.29h-6.9v45.3Z" fill="#1E60F6"/><path d="M170.4 308.82h5.34v-45.29h-5.33v45.3Z" fill="#1E60F6"/><path opacity=".6" d="M170.4 308.82h5.34v-45.29h-5.33v45.3Z" fill="#fff"/><path d="M123.03 308.82h6.9v-45.29h-6.9v45.3Z" fill="#1E60F6"/><path opacity=".3" d="M123.03 308.82h6.9v-45.29h-6.9v45.3Z" fill="#fff"/><path d="M129.93 308.82h5.33v-45.29h-5.33v45.3Z" fill="#1E60F6"/><path opacity=".6" d="M129.93 308.82h5.33v-45.29h-5.33v45.3Z" fill="#fff"/><path d="M145.94 308.82h6.89v-45.29h-6.9v45.3Z" fill="#1E60F6"/><path opacity=".6" d="M145.94 308.82h6.89v-45.29h-6.9v45.3Z" fill="#fff"/><path d="M152.84 308.82h5.33v-45.29h-5.33v45.3Z" fill="#1E60F6"/><path opacity=".1" d="M152.84 308.82h5.33v-45.29h-5.33v45.3Z" fill="#000"/><path d="M112.34 308.82h10.68V264.6h-10.68v44.22Z" fill="#1E60F6"/><path opacity=".1" d="M112.34 308.82h10.68V264.6h-10.68v44.22Z" fill="#fff"/><path d="M107.02 308.82h5.34V264.6h-5.34v44.22Z" fill="#1E60F6"/><path opacity=".6" d="M107.02 308.82h5.34V264.6h-5.34v44.22Z" fill="#fff"/><path d="M138.82 308.82h7.11V264.6h-7.11v44.22Z" fill="#1E60F6"/><path opacity=".1" d="M138.82 308.82h7.11V264.6h-7.11v44.22Z" fill="#fff"/><path d="M135.26 308.82h3.56V264.6h-3.56v44.22Z" fill="#1E60F6"/><path opacity=".3" d="M135.26 308.82h3.56V264.6h-3.56v44.22Z" fill="#fff"/><path d="M152.84 308.82h10.68v-42.1h-10.68v42.1Z" fill="#1E60F6"/><path opacity=".1" d="M152.84 308.82h10.68v-42.1h-10.68v42.1Z" fill="#fff"/><path d="M213.1 308.82h6.9v-45.29h-6.9v45.3Z" fill="#1E60F6"/><path opacity=".1" d="M213.1 308.82h6.9v-45.29h-6.9v45.3Z" fill="#000"/><path d="M220.01 308.82h5.33v-45.29h-5.33v45.3Z" fill="#1E60F6"/><path opacity=".2" d="M220.01 308.82h5.33v-45.29h-5.33v45.3Z" fill="#fff"/><path d="M202.43 308.82h10.67V264.6h-10.67v44.22Z" fill="#1E60F6"/><path opacity=".1" d="M202.43 308.82h10.67V264.6h-10.67v44.22Z" fill="#fff"/><path d="M197.09 308.82h5.33V264.6h-5.33v44.22Z" fill="#1E60F6"/><path opacity=".6" d="M197.09 308.82h5.33V264.6h-5.33v44.22Z" fill="#fff"/><path d="M228.9 308.82H236V264.6h-7.11v44.22Z" fill="#1E60F6"/><path opacity=".1" d="M228.9 308.82H236V264.6h-7.11v44.22Z" fill="#fff"/><path d="M225.33 308.82h3.56V264.6h-3.56v44.22Z" fill="#1E60F6"/><path opacity=".6" d="M225.33 308.82h3.56V264.6h-3.56v44.22Z" fill="#fff"/><path d="M186.46 373.64h5.33v-44.73h-5.33v44.73Z" fill="#1E60F6"/><path opacity=".1" d="M186.46 373.64h5.33v-44.73h-5.33v44.73Z" fill="#fff"/><path d="M191.78 373.64h5.34v-44.73h-5.34v44.73Z" fill="#1E60F6"/><path opacity=".4" d="M191.78 373.64h5.34v-44.73h-5.34v44.73Z" fill="#fff"/><path d="M175.78 373.64h10.68v-41.58h-10.68v41.58Z" fill="#1E60F6"/><path opacity=".6" d="M175.78 373.64h10.68v-41.58h-10.68v41.58Z" fill="#fff"/><path d="M163.55 373.64h6.9v-44.73h-6.9v44.73Z" fill="#1E60F6"/><path d="M170.44 373.64h5.33v-44.73h-5.33v44.73Z" fill="#1E60F6"/><path opacity=".1" d="M170.44 373.64h5.33v-44.73h-5.33v44.73Z" fill="#000"/><path d="M123.06 373.64h6.9v-44.73h-6.9v44.73Z" fill="#1E60F6"/><path opacity=".4" d="M123.06 373.64h6.9v-44.73h-6.9v44.73Z" fill="#fff"/><path d="M129.97 373.64h5.33v-44.73h-5.33v44.73Z" fill="#1E60F6"/><path opacity=".6" d="M129.97 373.64h5.33v-44.73h-5.33v44.73Z" fill="#fff"/><path d="M145.98 373.64h6.9v-44.73h-6.9v44.73Z" fill="#1E60F6"/><path opacity=".6" d="M145.98 373.64h6.9v-44.73h-6.9v44.73Z" fill="#fff"/><path d="M152.87 373.64h5.33v-44.73h-5.33v44.73Z" fill="#1E60F6"/><path opacity=".1" d="M152.87 373.64h5.33v-44.73h-5.33v44.73Z" fill="#000"/><path d="M112.39 373.65h10.67V330H112.4v43.66Z" fill="#1E60F6"/><path opacity=".1" d="M112.39 373.65h10.67V330H112.4v43.66Z" fill="#fff"/><path d="M107.05 373.65h5.34V330h-5.34v43.66Z" fill="#1E60F6"/><path opacity=".6" d="M107.05 373.65h5.34V330h-5.34v43.66Z" fill="#fff"/><path d="M138.86 373.65h7.12V330h-7.12v43.66Z" fill="#1E60F6"/><path opacity=".1" d="M138.86 373.65h7.12V330h-7.12v43.66Z" fill="#fff"/><path d="M135.29 373.65h3.56V330h-3.56v43.66Z" fill="#1E60F6"/><path opacity=".3" d="M135.29 373.65h3.56V330h-3.56v43.66Z" fill="#fff"/><path d="M152.86 373.64h10.67v-41.58h-10.67v41.58Z" fill="#1E60F6"/><path opacity=".1" d="M152.86 373.64h10.67v-41.58h-10.67v41.58Z" fill="#fff"/><path d="M213.15 373.64h6.9v-44.73h-6.9v44.73Z" fill="#1E60F6"/><path opacity=".1" d="M213.15 373.64h6.9v-44.73h-6.9v44.73Z" fill="#000"/><path d="M220.03 373.64h5.33v-44.73h-5.33v44.73Z" fill="#1E60F6"/><path opacity=".2" d="M220.03 373.64h5.33v-44.73h-5.33v44.73Z" fill="#fff"/><path d="M202.46 373.65h10.68V330h-10.68v43.66Z" fill="#1E60F6"/><path opacity=".1" d="M202.46 373.65h10.68V330h-10.68v43.66Z" fill="#fff"/><path d="M197.13 373.65h5.33V330h-5.33v43.66Z" fill="#1E60F6"/><path opacity=".6" d="M197.13 373.65h5.33V330h-5.33v43.66Z" fill="#fff"/><path d="M228.94 373.65h7.11V330h-7.11v43.66Z" fill="#1E60F6"/><path opacity=".1" d="M228.94 373.65h7.11V330h-7.11v43.66Z" fill="#fff"/><path d="M225.36 373.65h3.57V330h-3.57v43.66Z" fill="#1E60F6"/><path opacity=".6" d="M225.36 373.65h3.57V330h-3.57v43.66Z" fill="#fff"/><path d="M153.96 197.51h-5.52v46.5h5.52v-46.5Z" fill="#1E60F6"/><path opacity=".1" d="M153.96 197.51h-5.52v46.5h5.52v-46.5Z" fill="#fff"/><path d="M148.43 197.51h-5.5v46.5h5.5v-46.5Z" fill="#1E60F6"/><path opacity=".4" d="M148.43 197.51h-5.5v46.5h5.5v-46.5Z" fill="#fff"/><path d="M165 200.78h-11.04V244h11.03v-43.22Z" fill="#1E60F6"/><path opacity=".6" d="M165 200.78h-11.04V244h11.03v-43.22Z" fill="#fff"/><path d="M177.65 197.51h-7.13v46.5h7.13v-46.5ZM170.5 197.51H165v46.5h5.5v-46.5Z" fill="#1E60F6"/><path opacity=".1" d="M170.5 197.51H165v46.5h5.5v-46.5Z" fill="#000"/><path d="M219.5 197.51h-7.13v46.5h7.13v-46.5Z" fill="#1E60F6"/><path opacity=".1" d="M219.5 197.51h-7.13v46.5h7.13v-46.5Z" fill="#000"/><path d="M212.36 197.51h-5.51v46.5h5.51v-46.5Z" fill="#1E60F6"/><path opacity=".6" d="M212.36 197.51h-5.51v46.5h5.51v-46.5Z" fill="#fff"/><path d="M195.81 197.51h-7.13v46.5h7.13v-46.5Z" fill="#1E60F6"/><path opacity=".6" d="M195.81 197.51h-7.13v46.5h7.13v-46.5Z" fill="#fff"/><path d="M188.68 197.51h-5.52v46.5h5.52v-46.5Z" fill="#1E60F6"/><path opacity=".1" d="M188.68 197.51h-5.52v46.5h5.52v-46.5Z" fill="#000"/><path d="M230.53 198.62h-11.04v45.4h11.04v-45.4Z" fill="#1E60F6"/><path opacity=".1" d="M230.53 198.62h-11.04v45.4h11.04v-45.4Z" fill="#fff"/><path d="M236.04 198.62h-5.5v45.4h5.5v-45.4Z" fill="#1E60F6"/><path opacity=".6" d="M236.04 198.62h-5.5v45.4h5.5v-45.4Z" fill="#fff"/><path d="M203.17 198.62h-7.36v45.4h7.36v-45.4Z" fill="#1E60F6"/><path opacity=".1" d="M203.17 198.62h-7.36v45.4h7.36v-45.4Z" fill="#fff"/><path d="M206.85 198.62h-3.68v45.4h3.68v-45.4Z" fill="#1E60F6"/><path opacity=".3" d="M206.85 198.62h-3.68v45.4h3.68v-45.4Z" fill="#fff"/><path d="M188.68 200.78h-11.04V244h11.04v-43.22Z" fill="#1E60F6"/><path opacity=".1" d="M188.68 200.78h-11.04V244h11.04v-43.22Z" fill="#fff"/><path d="M126.37 197.51h-7.13v46.5h7.13v-46.5Z" fill="#1E60F6"/><path opacity=".2" d="M126.37 197.51h-7.13v46.5h7.13v-46.5Z" fill="#fff"/><path d="M119.24 197.51h-5.51v46.5h5.5v-46.5Z" fill="#1E60F6"/><path opacity=".2" d="M119.24 197.51h-5.51v46.5h5.5v-46.5Z" fill="#fff"/><path d="M137.4 198.62h-11.03v45.4h11.04v-45.4Z" fill="#1E60F6"/><path opacity=".1" d="M137.4 198.62h-11.03v45.4h11.04v-45.4Z" fill="#fff"/><path d="M142.92 198.62h-5.51v45.4h5.51v-45.4Z" fill="#1E60F6"/><path opacity=".6" d="M142.92 198.62h-5.51v45.4h5.51v-45.4Z" fill="#fff"/><path d="M110.05 198.62h-7.36v45.4h7.36v-45.4Z" fill="#1E60F6"/><path opacity=".1" d="M110.05 198.62h-7.36v45.4h7.36v-45.4Z" fill="#fff"/><path d="M113.72 198.62h-3.67v45.4h3.67v-45.4Z" fill="#1E60F6"/><path opacity=".6" d="M113.72 198.62h-3.67v45.4h3.67v-45.4Z" fill="#fff"/><path d="M202.61 15.41h-85.3v28.24h85.3V15.4Z" fill="#1E60F6"/><path d="M119.94.92h-1.06v14.5h1.06V.91ZM202.21.92h-1.05v14.5h1.05V.91Z" fill="#1E60F6"/><path opacity=".7" d="M200.91 15.41h-83.6v26.38h83.6V15.41Z" fill="#fff"/><path d="M191.11 20.5h-59.38v5.13h59.38V20.5ZM191.12 29.53H178.4v2h12.73v-2ZM191.12 35.43h-25.55v2h25.55v-2Z" fill="#1E60F6"/><path opacity=".2" d="M98.72 379.26a2.7 2.7 0 0 0 3.32-2.69v-5.2h67.94v4.1a4.08 4.08 0 0 0 3.36 3.79 2.71 2.71 0 0 0 3.07-1.5c.18-.37.26-.77.25-1.19l-1.26-258.33a4.08 4.08 0 0 0-3.36-3.8 2.72 2.72 0 0 0-3.33 2.68v4.13H100.8v-3.01a4.07 4.07 0 0 0-3.35-3.8 2.7 2.7 0 0 0-3.32 2.68l1.27 258.35a4.06 4.06 0 0 0 3.33 3.79Zm70.97-62.1h-67.94l-.2-43.69h67.93l.21 43.7Zm-68.63-141.68H169l.22 43.7h-67.95l-.21-43.7Zm68.18 48.94.21 43.7h-67.94l-.21-43.7h67.94Zm-.47-97.95.2 43.7h-67.93l-.23-43.7h67.96ZM101.99 366.1l-.22-43.67h67.92l.21 43.7-67.9-.03Z" fill="#000"/><path d="M52.87 379.26a3.3 3.3 0 0 0 3.8-2.69l.9-5.2h67.94l-.7 4.1a3.29 3.29 0 1 0 6.49 1.1l44.26-258.33a3.29 3.29 0 1 0-6.48-1.12l-.7 4.13h-67.93l.51-3.01a3.3 3.3 0 0 0-6.5-1.12L50.2 375.47a3.28 3.28 0 0 0 2.67 3.8Zm81.94-62.19H66.87l7.49-43.7h67.93l-7.48 43.7ZM91.14 175.48h67.95l-7.5 43.67H83.67l7.48-43.67Zm59.58 48.94-7.48 43.7H75.25l7.5-43.7h67.97Zm16.8-97.95-7.5 43.7H92.05l7.49-43.7h67.97ZM58.45 366.11l7.5-43.67h67.9l-7.49 43.7-67.9-.03Z" fill="#263238"/><path opacity=".2" d="M52.87 379.26a3.3 3.3 0 0 0 3.8-2.69l.9-5.2h67.94l-.7 4.1a3.29 3.29 0 1 0 6.49 1.1l44.26-258.33a3.29 3.29 0 1 0-6.48-1.12l-.7 4.13h-67.93l.51-3.01a3.3 3.3 0 0 0-6.5-1.12L50.2 375.47a3.28 3.28 0 0 0 2.67 3.8Zm81.94-62.19H66.87l7.49-43.7h67.93l-7.48 43.7ZM91.14 175.48h67.95l-7.5 43.67H83.67l7.48-43.67Zm59.58 48.94-7.48 43.7H75.25l7.5-43.7h67.97Zm16.8-97.95-7.5 43.7H92.05l7.49-43.7h67.97ZM58.45 366.11l7.5-43.67h67.9l-7.49 43.7-67.9-.03Z" fill="#fff"/><path d="M185.74 136.67H163a2.1 2.1 0 0 1-2.1-2.1v-28.3a2.1 2.1 0 0 0 2.1 2.11h22.73v28.3Z" fill="#1E60F6"/><path opacity=".3" d="M185.74 136.67H163a2.1 2.1 0 0 1-2.1-2.1v-28.3a2.1 2.1 0 0 0 2.1 2.11h22.73v28.3Z" fill="#000"/><path d="M185.74 108.4H163a2.1 2.1 0 0 1 0-4.21h22.73v4.21Z" fill="#263238"/><path opacity=".5" d="M185.74 108.4H163a2.1 2.1 0 0 1 0-4.21h22.73v4.21Z" fill="#fff"/><path d="M160.88 106.28a2.1 2.1 0 0 0 2.11 2.1h22.72v-.73h-22.7a1.39 1.39 0 0 1-.98-2.38c.26-.26.61-.4.98-.4h22.73v-.75H163a2.11 2.11 0 0 0-2.13 2.16ZM180.7 114.49h-14.77v9.34h14.77v-9.34Z" fill="#1E60F6"/><path opacity=".5" d="M180.7 114.49h-14.77v9.34h14.77v-9.34Z" fill="#fff"/><path d="m51.76 280.8-5.12 14.24 7.9 3.05 6.16-13.12-8.94-4.16Z" fill="#F4BCB4"/><path d="M55.35 298.78a.2.2 0 0 1-.04-.32.2.2 0 0 1 .1-.06c.16 0 3.66-.61 4.9.28a1.06 1.06 0 0 1 .44.69.79.79 0 0 1-.3.86c-.89.24-1.83.14-2.66-.27-.85-.32-1.67-.71-2.44-1.18Zm.72 0c1.48.76 3.56 1.52 4.16 1.13.07 0 .16-.15.11-.45a.57.57 0 0 0-.28-.42 1.94 1.94 0 0 0-.36-.19 9.76 9.76 0 0 0-3.63-.1v.03Z" fill="#1E60F6"/><path d="M55.24 298.74a.23.23 0 0 1 0-.21c0-.11 1.06-2.26 2.48-2.73a1.54 1.54 0 0 1 1.21.07c.53.25.6.59.53.82-.17 1-2.83 2.06-3.98 2.11a.09.09 0 0 1-.04.01l-.04-.01a.23.23 0 0 1-.16-.06Zm3.4-2.54c-.24-.1-.52-.1-.76 0a4.99 4.99 0 0 0-2.05 2.1c1.26-.22 3.08-1.15 3.24-1.72 0-.06 0-.2-.3-.36h-.12v-.02Z" fill="#1E60F6"/><path d="m54.93 297.31-9.03-3.33a.77.77 0 0 0-.91.3l-4.37 6.75a1.3 1.3 0 0 0 .61 1.91c3.28 1.15 6.24 2.06 10.29 3.56 4.78 1.79 3.35 1.9 8.95 4.07 3.37 1.3 5.42-2.32 4.06-3.04-6.28-3.27-6.22-5.5-7.88-8.8-.38-.67-.99-1.17-1.72-1.42Z" fill="#263238"/><path opacity=".2" d="m49.3 287.64 8.29 3.95 3.1-6.62-8.93-4.16-2.46 6.83Z" fill="#263238"/><path d="m99 294.44 1.36 15.06 8.46-.57.04-14.5H99Z" fill="#F4BCB4"/><path d="M110.27 308.68a.2.2 0 0 1-.11-.06.21.21 0 0 1-.06-.11.2.2 0 0 1 .1-.22c.12-.09 3.16-1.95 4.62-1.6a1.06 1.06 0 0 1 .68.47.78.78 0 0 1 0 .9c-.74.57-1.65.84-2.58.77-.88.02-1.77-.03-2.65-.15Zm.67-.31c1.65.15 3.87.05 4.22-.54 0-.07.1-.2-.06-.45a.57.57 0 0 0-.43-.27 1.28 1.28 0 0 0-.4 0c-1.17.2-2.3.64-3.33 1.26Z" fill="#1E60F6"/><path d="M110.16 308.66a.22.22 0 0 1-.07-.07.2.2 0 0 1-.03-.1c0-.12.16-2.5 1.25-3.47a1.57 1.57 0 0 1 1.15-.4c.58 0 .77.32.8.56.22.99-1.83 2.98-2.86 3.48h-.1a.21.21 0 0 1-.14 0Zm2.17-3.64c-.26 0-.51.11-.71.3a4.92 4.92 0 0 0-1.06 2.73c1.06-.68 2.42-2.22 2.33-2.82 0-.06 0-.2-.42-.22h-.14Z" fill="#1E60F6"/><path d="m109.33 307.47-9.63.35a.77.77 0 0 0-.73.63l-1.46 7.9a1.29 1.29 0 0 0 1.05 1.5h.27c3.47-.19 6.55-.48 10.87-.63 5.1-.18 3.83.48 9.83.35 3.61-.08 4.13-4.21 2.59-4.36-7.04-.63-7.84-2.72-10.64-5.14a3.16 3.16 0 0 0-2.15-.6Z" fill="#263238"/><path opacity=".2" d="M108.86 294.44H99l.72 7.86 9.12-.25.02-7.61Z" fill="#263238"/><path d="M91.75 154.85s-15.12 9.95-12.65 39.22l-2.52 33.16s-14.99 10.06-26.93 56.4c3.1 2.44 6.7 4.18 10.54 5.1l36.05-55.14 13.37-57.41 1.56-19.11-19.42-2.22Z" fill="#263238"/><path opacity=".4" d="m102.9 204.93-5.45-21.08-8.66-4.27s0 41.1 3.89 59.45l3.55-5.44 6.66-28.66Z" fill="#000"/><path d="M83.92 119.33s-10.88 13.64-7.93 19.47c2.95 5.83 12.24 6.4 12.24 6.4a4.45 4.45 0 0 0 3.47 2.41l1.83-8.43a4.05 4.05 0 0 0-4.09.14l-6.08-3.7 8.38-11.09-7.82-5.2Z" fill="#F4BCB4"/><path d="M99.43 109.92s-8.43.32-12.96 4.16c-4.53 3.83-5.27 6.1-5.27 6.1s3 4.37 11.95 6.73l6.28-16.99Z" fill="#1E60F6"/><path opacity=".1" d="m93.16 126.91 3.39-9.17-3.64-3.73a26.35 26.35 0 0 0-4.12 11.43c1.42.6 2.88 1.09 4.37 1.47Z" fill="#000"/><path d="M95.35 154.85s-12.47 13.7-4.84 40.37l5.4 33.55s-6.83 31.95 1.56 69.92c4.23.6 8.52.5 12.72-.28l7.8-71.5 3.9-68.36-26.54-3.7Z" fill="#263238"/><path d="M103.78 109.44s4.6-.47 4.53-8.93c0 0 4.22-1.95 7 .56 2.78 2.5-2.49 8.34.94 10.8 0 0-3 2.02-12.47-2.43Z" fill="#F4BCB4"/><path d="M123.92 88.63c0-.57.38-1 .75-.98.37.02.63.52.59 1.06-.05.53-.37 1.05-.75.98-.38-.08-.63-.49-.6-1.06Z" fill="#263238"/><path d="m124.31 89.65 3 3.96a3.73 3.73 0 0 1-3.3.6l.3-4.56Z" fill="#FF5652"/><path d="M104.35 87.75c.33 7.16.33 10.21 3.9 13.93 5.48 3.82 14.1 3.61 15.91-3.51 1.62-6.42.8-17.04-6.19-20.03a9.8 9.8 0 0 0-13.62 9.6Z" fill="#F4BCB4"/><path d="M122.86 86.96a.38.38 0 0 0 .31-.08 2.64 2.64 0 0 1 2.3-.64.32.32 0 0 0 .26-.03.31.31 0 0 0 .15-.2c.01-.04.02-.09.01-.13a.33.33 0 0 0-.03-.12.33.33 0 0 0-.2-.16 3.31 3.31 0 0 0-2.93.78.31.31 0 0 0-.1.22c0 .05.01.09.03.13l.07.1c.03.05.07.1.13.13ZM124.53 87.68l1.56-.23s-.94 1.07-1.56.23Z" fill="#263238"/><path opacity=".2" d="M111.6 103.39a9.42 9.42 0 0 0 3.82 3.5c.24-.93.51-1.88.64-2.75a13.4 13.4 0 0 1-4.46-.75Z" fill="#000"/><path d="M117.13 91.9s4.31-4.62 2.57-9.18c0 0 4.91.58 4.61-3.16-.3-3.74-5.44-2.66-5.44-2.66s2.77-4.43.5-5.64c-2.28-1.21-6.33 2.4-6.33 2.4s-10.02-1.53-13.05 9.88c-3.02 11.42-9.66 4.64-10.14 9.6-.53 5.5 7.38 4.76 7.38 4.76a3.9 3.9 0 0 0 2.95 5.04 5.93 5.93 0 0 0 6.41-1.65s-.27 3.89 4.22 3.42c5.27-.54 4.13-3.98 4.58-5.76.46-1.78 2.54-3.6 1.74-7.05Z" fill="#263238"/><path d="M113.11 74.58s-1.94-5.72 1.46-6.04c3.4-.31-1.58 1.86-1.46 6.04Z" fill="#263238"/><path d="M117.08 90.17a5.51 5.51 0 0 1 1.8 3.83c.09 1.95-1.77 2.48-3.37 1.59-1.6-.9-3.23-2.8-2.54-4.59a2.5 2.5 0 0 1 4.11-.83Z" fill="#F4BCB4"/><path d="M101.58 110.66s-1.6-6.82 8.63-3.84c10.23 2.99 9.38 8.82 9.38 8.82l-18.02-4.98Z" fill="#1E60F6"/><path opacity=".5" d="M101.58 110.66s-1.6-6.82 8.63-3.84c10.23 2.99 9.38 8.82 9.38 8.82l-18.02-4.98Z" fill="#fff"/><path d="M87.88 158.27s4.77-16.4 4.36-27.03c-.42-10.63-4.22-23.28 13.37-21.29 17.6 2 21.34 8.1 21.34 17.76 0 9.67-4.94 37.1-4.94 37.1s-17.88 4.7-34.13-6.54Z" fill="#1E60F6"/><path opacity=".1" d="M126.96 127.71a22 22 0 0 0-.8-6.32l-5.83-2.73-3.33 4.9s4.74 10.66 9.05 15.02c.5-3.6.8-7.23.9-10.87Z" fill="#000"/><path d="M133.03 123.54s5.7 5.7 8.04 7.98l17.75-4.9 1.52-4.59 2.67-.15 8.09-2.4 3 2.95-2.92 6.33-9.58 1.85s-15.61 8.62-21.33 8.07c-5.73-.54-13.24-7.37-13.24-7.37l6-7.77Z" fill="#F4BCB4"/><path d="M118.78 113.21c4.9.72 9.92 4.62 17.72 11.52a23.92 23.92 0 0 1-8.24 9.49s-4.55-2-9.96-8.89c-6.58-8.28-2.54-12.56.48-12.12Z" fill="#1E60F6"/><path d="M312.7 379.36c-1.67 0-3.01-.5-2.96-2.11l3.46-108.7h5.91l-3.46 108.88c-.05 1.5-1.36 1.93-2.95 1.93Z" fill="#263238"/><path opacity=".2" d="M312.7 379.36c-1.67 0-3.01-.5-2.96-2.11l3.46-108.7h5.91l-3.46 108.88c-.05 1.5-1.36 1.93-2.95 1.93Z" fill="#fff"/><path d="M370.9 268.46h-73.67v15.5h73.67v-15.5Z" fill="#263238"/><path opacity=".2" d="M370.9 268.46h-73.67v15.5h73.67v-15.5Z" fill="#fff"/><path d="M389.8 268.46h-18.9v15.5h18.9v-15.5Z" fill="#1E60F6"/><path d="M389.8 268.46h-18.9v15.5h18.9v-15.5Z" fill="#263238"/><path opacity=".2" d="M389.8 268.46h-18.9v15.5h18.9v-15.5Z" fill="#fff"/><path d="M395.82 379.36c1.68 0 3.03-.54 2.94-2.24l-6.03-108.56h-5.91l6.05 108.94c.08 1.48 1.38 1.86 2.95 1.86Z" fill="#263238"/><path opacity=".2" d="M395.82 379.36c1.68 0 3.03-.54 2.94-2.24l-6.03-108.56h-5.91l6.05 108.94c.08 1.48 1.38 1.86 2.95 1.86Z" fill="#fff"/><path d="M374.3 379.36c1.67 0 3-.5 2.96-2.11l-3.46-108.7h-5.96l3.46 108.88c.1 1.5 1.4 1.93 3 1.93Z" fill="#263238"/><path opacity=".2" d="M374.3 379.36c1.67 0 3-.5 2.96-2.11l-3.46-108.7h-5.96l3.46 108.88c.1 1.5 1.4 1.93 3 1.93Z" fill="#fff"/><path d="M291.19 379.36c-1.7 0-3.05-.54-2.95-2.24l6.03-108.56h5.92l-6.06 108.94c-.07 1.48-1.38 1.86-2.94 1.86Z" fill="#263238"/><path opacity=".2" d="M291.19 379.36c-1.7 0-3.05-.54-2.95-2.24l6.03-108.56h5.92l-6.06 108.94c-.07 1.48-1.38 1.86-2.94 1.86Z" fill="#fff"/><path d="M272.99 263.57h140.97a2.82 2.82 0 0 1 2.82 2.83v4.11a2.83 2.83 0 0 1-2.83 2.84H272.99a2.83 2.83 0 0 1-2.83-2.83v-4.11a2.83 2.83 0 0 1 2.82-2.83Z" fill="#263238"/><path opacity=".5" d="M272.99 263.57h140.97a2.82 2.82 0 0 1 2.82 2.83v4.11a2.83 2.83 0 0 1-2.83 2.84H272.99a2.83 2.83 0 0 1-2.83-2.83v-4.11a2.83 2.83 0 0 1 2.82-2.83Z" fill="#fff"/><path d="M349.81 233.3v7.8a.75.75 0 0 1 .75.74.75.75 0 0 1-.75.75h-8.92v-10.8h8.92a.75.75 0 0 1 .75.76.75.75 0 0 1-.75.75Z" fill="#1E60F6"/><path opacity=".3" d="M349.81 233.3v7.8a.75.75 0 0 1 .75.74.75.75 0 0 1-.75.75h-8.92v-10.8h8.92a.75.75 0 0 1 .75.76.75.75 0 0 1-.75.75Z" fill="#fff"/><path d="M349.81 233.31h-6.92v7.78h6.92v-7.78Z" fill="#1E60F6"/><path opacity=".6" d="M349.81 233.31h-6.92v7.78h6.92v-7.78Z" fill="#fff"/><path d="M344.34 232.56H306.1c-1.65 0-3 2.1-3 4.64 0 2.54 1.35 4.64 3 4.64h38.23v-9.28Z" fill="#1E60F6"/><path opacity=".9" d="M344.34 232.56H306.1c-1.65 0-3 2.1-3 4.64 0 2.54 1.35 4.64 3 4.64h38.23v-9.28Z" fill="#fff"/><path d="M344.34 242.59c-7.86 0-29.95.15-37.82 0-5.38-.1-5.67-10.41-.39-10.78 3.68-.26 7.47 0 11.15 0h27.06a.75.75 0 0 1 0 1.5h-36.57c-1.73 0-2.96 0-3.63 2.05-.58 1.76-.39 5.35 1.97 5.73.27.02.54.02.8 0h37.43a.75.75 0 0 1 .75.75.75.75 0 0 1-.75.75Z" fill="#1E60F6"/><path opacity=".2" d="M344.34 242.59c-7.86 0-29.95.15-37.82 0-5.38-.1-5.67-10.41-.39-10.78 3.68-.26 7.47 0 11.15 0h27.06a.75.75 0 0 1 0 1.5h-36.57c-1.73 0-2.96 0-3.63 2.05-.58 1.76-.39 5.35 1.97 5.73.27.02.54.02.8 0h37.43a.75.75 0 0 1 .75.75.75.75 0 0 1-.75.75Z" fill="#fff"/><path d="M348.48 243.82v7.22a.7.7 0 0 1 0 1.38h-8.26v-10.01h8.26a.7.7 0 0 1 0 1.41Z" fill="#1E60F6"/><path opacity=".3" d="M348.48 243.82v7.22a.7.7 0 0 1 0 1.38h-8.26v-10.01h8.26a.7.7 0 0 1 0 1.41Z" fill="#fff"/><path d="M348.48 243.83h-6.42v7.21h6.42v-7.2Z" fill="#1E60F6"/><path opacity=".6" d="M348.48 243.83h-6.42v7.21h6.42v-7.2Z" fill="#fff"/><path d="M343.41 243.13h-35.4c-1.53 0-2.77 1.92-2.77 4.3 0 2.37 1.24 4.3 2.77 4.3h35.4v-8.6Z" fill="#1E60F6"/><path opacity=".9" d="M343.41 243.13h-35.4c-1.53 0-2.77 1.92-2.77 4.3 0 2.37 1.24 4.3 2.77 4.3h35.4v-8.6Z" fill="#fff"/><path d="M343.42 252.42c-7.29 0-27.75.13-35.03 0-4.99-.1-5.27-9.64-.36-9.98 3.4-.23 6.92 0 10.33 0h25.06a.7.7 0 0 1 0 1.38h-33.87c-1.6 0-2.74 0-3.36 1.9-.54 1.63-.37 4.96 1.82 5.32.25.02.5.02.75 0h34.66a.7.7 0 0 1 0 1.38Z" fill="#1E60F6"/><path d="M352.6 253.93v8.59a.82.82 0 0 1 .81.82.82.82 0 0 1-.82.82h-9.82V252.3h9.82a.83.83 0 0 1 .73.82.82.82 0 0 1-.73.82Z" fill="#1E60F6"/><path opacity=".3" d="M352.6 253.93v8.59a.82.82 0 0 1 .81.82.82.82 0 0 1-.82.82h-9.82V252.3h9.82a.83.83 0 0 1 .73.82.82.82 0 0 1-.73.82Z" fill="#fff"/><path d="M352.6 253.95h-7.64v8.58h7.63v-8.58Z" fill="#1E60F6"/><path opacity=".6" d="M352.6 253.95h-7.64v8.58h7.63v-8.58Z" fill="#fff"/><path d="M346.57 253.12H304.4c-1.82 0-3.3 2.28-3.3 5.1 0 2.83 1.48 5.13 3.3 5.13h42.16v-10.23Z" fill="#1E60F6"/><path opacity=".9" d="M346.57 253.12H304.4c-1.82 0-3.3 2.28-3.3 5.1 0 2.83 1.48 5.13 3.3 5.13h42.16v-10.23Z" fill="#fff"/><path d="M346.56 264.17c-8.66 0-33 .16-41.67 0-5.94-.1-6.25-11.47-.43-11.87 4.06-.28 8.23 0 12.29 0h29.81a.82.82 0 1 1 0 1.64h-40.3c-1.9 0-3.26 0-4 2.27-.63 1.94-.43 5.89 2.17 6.32.3.02.6.02.9 0h41.23a.82.82 0 0 1 .59 1.4.82.82 0 0 1-.59.24Z" fill="#1E60F6"/><path opacity=".2" d="M346.56 264.17c-8.66 0-33 .16-41.67 0-5.94-.1-6.25-11.47-.43-11.87 4.06-.28 8.23 0 12.29 0h29.81a.82.82 0 1 1 0 1.64h-40.3c-1.9 0-3.26 0-4 2.27-.63 1.94-.43 5.89 2.17 6.32.3.02.6.02.9 0h41.23a.82.82 0 0 1 .59 1.4.82.82 0 0 1-.59.24Z" fill="#000"/></svg>