<svg fill="none" xmlns="http://www.w3.org/2000/svg" viewBox="0 0 281 265"><g clip-path="url(#a)"><path d="M5.96 32.02 65.8 16.35a.93.93 0 0 1 1.12.61L78.77 56.7a.93.93 0 0 1-.67 1.16l-62.17 15.2a.92.92 0 0 1-1.12-.68L5.3 33.12a.93.93 0 0 1 .65-1.1Z" fill="#EBEBEB"/><path d="M5.1 32.25 28.26 1.19A3.46 3.46 0 0 1 32.54.13L66.7 16.12" fill="#EBEBEB"/><path d="m8.78 33.75-3.5-13.4L59.8 6.48l3.62 13.77L41.9 48.43 8.78 33.75Z" fill="#FAFAFA"/><path d="m8.78 33.73.61.26 1.77.78 6.7 2.96 24.09 10.64h-.06L63.4 20.2v.05l-1.6-6.1c-.7-2.59-1.36-5.15-2.02-7.64l.07.04L5.28 20.37v-.04a8987.17 8987.17 0 0 0 3.25 12.5l.17.69.06.23s0-.08-.06-.23l-.19-.67-.7-2.62-2.59-9.88L59.74 6.47h.05v.05l2 7.64 1.62 6.1-21.46 28.2h-.04L17.83 37.78l-6.71-2.99-1.76-.78-.58-.29Z" fill="#E0E0E0"/><path d="M48.2 18.66s-6.1 1.66-13.64 3.66a711 711 0 0 1-13.67 3.54c0-.03 6.1-1.66 13.64-3.66a678 678 0 0 1 13.67-3.54Z" fill="#E0E0E0"/><path d="M54.56 23.73c0 .03-8.24 2.2-18.41 4.88a1112.22 1112.22 0 0 1-18.44 4.74c-.02-.03 8.23-2.2 18.41-4.88 10.18-2.68 18.43-4.77 18.44-4.74Z" fill="#E0E0E0"/><path d="M56.16 30s-7.86 2.1-17.57 4.63c-9.7 2.53-17.58 4.59-17.6 4.53 0-.06 7.86-2.1 17.57-4.63C48.28 32 56.15 29.97 56.16 30Z" fill="#E0E0E0"/><path d="M50.65 37.26h-.06l-.16.04-.6.18-2.27.61-7.53 2.04c-2.92.8-5.58 1.5-7.51 1.99l-2.28.6-.61.16-.17.04h-.05.05l.16-.05.61-.17 2.28-.6 7.5-2.03c2.93-.79 5.6-1.48 7.52-1.98l2.28-.58.61-.15.16-.04.07-.06Z" fill="#E0E0E0"/><path d="M45.03 44.33s-1.75.5-3.92 1.05a70 70 0 0 1-3.94.95c-.01-.03 1.74-.5 3.92-1.06 2.18-.55 3.94-.97 3.94-.94Z" fill="#E0E0E0"/><path d="M78.63 57.52h-.18l-.55-.13-2.1-.52-7.69-1.98-11.4-2.99-6.7-1.77-3.57-.94-.9-.24-.9-.23a5.87 5.87 0 0 0-5.13 1.43l-2.7 2.5-5.03 4.8-8.54 8.11-5.78 5.45-1.58 1.47-.42.38-.14.12.12-.14.4-.4 1.53-1.5 5.7-5.53 8.5-8.17 5.03-4.82 2.66-2.54a6.2 6.2 0 0 1 5.43-1.5c.33.06.61.14.93.22l.9.25c1.22.31 2.32.95 3.48 1.25 2.33.61 4.66.91 6.8 1.48l11.39 3.05 7.66 2.08 2.08.61.54.16c.1.04.17.04.16.04Z" fill="#E0E0E0"/><path d="M24.52 129.38a10.64 10.64 0 0 0 7.83-8.68c.97-5.78-2.63-11.21-8.06-12.14-5.43-.92-10.6 3.05-11.59 8.83a10.6 10.6 0 0 0 4.65 10.81C1.86 128-.15 144.55-.15 144.55l35.76 6.04s3.53-16.49-11.1-21.21Z" fill="#EBEBEB"/><path d="m252.79 1.2-59.5 22.89 15.43 40.1 59.5-22.9L252.78 1.2Z" fill="#EBEBEB"/><path d="M253.16 1.6c-.09.27-.2.52-.35.76l-1.1 2.09-4.13 7.63-13.87 25.15-.11.2-.23-.06-.55-.18-27.72-8.86-8.38-2.75-2.27-.78a4.75 4.75 0 0 1-.78-.3c.28.04.55.1.82.19l2.3.67 8.44 2.57L233 36.64l.55.17-.34.14 14.03-25.07 4.27-7.55a60.2 60.2 0 0 1 1.65-2.72Z" fill="#E0E0E0"/><path d="M209.09 64.6c-.15-.06 2.2-7.27 5.27-16.13 3.06-8.85 5.67-15.98 5.82-15.93.15.05-2.21 7.27-5.27 16.12-3.06 8.85-5.66 15.99-5.82 15.94Z" fill="#E0E0E0"/><path d="M239.77 24.43c.08-.13 6.6 3.62 14.56 8.4 7.96 4.76 14.34 8.74 14.26 8.88-.09.14-6.6-3.62-14.56-8.39-7.96-4.77-14.35-8.74-14.26-8.89Z" fill="#E0E0E0"/><path d="m236.11 92.83-3.27 27.85 41.3 4.86 3.29-27.85-41.32-4.86Z" fill="#EBEBEB"/><path d="M277.53 98.06c-.13.12-.28.23-.43.32l-1.27.88-4.7 3.15-15.68 10.3-.13.1-.1-.12-.27-.26-13.32-13.55c-1.67-1.72-3.05-3.13-4-4.13l-1.08-1.14a3.18 3.18 0 0 1-.35-.41c.15.1.28.23.4.36l1.13 1.08 4.1 4.05 13.41 13.47.26.27h-.23l15.7-10.22 4.78-3.04 1.31-.82c.15-.11.3-.2.47-.29Z" fill="#E0E0E0"/><path d="M232.95 121.04c-.08-.07 3.48-3.53 7.93-7.7 4.44-4.18 8.13-7.51 8.2-7.44.07.07-3.48 3.52-7.93 7.71-4.45 4.19-8.14 7.5-8.2 7.43Z" fill="#E0E0E0"/><path d="M262.86 107.17c.09-.06 2.71 4.1 5.86 9.27 3.14 5.17 5.64 9.4 5.53 9.46-.1.06-2.7-4.1-5.86-9.26-3.14-5.18-5.62-9.42-5.53-9.47Z" fill="#E0E0E0"/><path d="M265.02 206.77c3.1-1.6 6.74-1.83 10.18-1.22 1.83.3 3.76.86 5.02 2.24 1.26 1.39 1.5 3.83.06 5.02-.86.71-2.06.82-3.17.8-2.7-.03-5.68-.5-7.82 1.12-1.23.92-2.05 2.44-3.51 2.9a3.46 3.46 0 0 1-3.81-1.69 5.9 5.9 0 0 1-.44-4.37 6.68 6.68 0 0 1 3.5-4.8Z" fill="#EBEBEB"/><path d="M257.93 193.08c1.9 2.7 5.57 1.83 7.28.16 1.7-1.67 2.44-4.04 3.08-6.32 1.5-5.21 3-10.67 1.9-15.98a8.9 8.9 0 0 0-2.05-4.34 4.64 4.64 0 0 0-4.39-1.46c-1.83.49-3 2.3-3.84 4.03a38.08 38.08 0 0 0-3.77 16.35c0 2.63.31 5.39 1.8 7.56Z" fill="#EBEBEB"/><path d="M252.74 196.96c2.05-2.44 2.44-6 1.53-9.05-.91-3.05-2.98-5.65-5.37-7.77a28.75 28.75 0 0 0-9.6-5.66c-1.36-.56-2.83-.81-4.31-.74a4.53 4.53 0 0 0-3.62 2.2c-1.01 1.91-.04 4.26 1 6.16a73.5 73.5 0 0 0 6.31 9.62c1.9 2.44 4.05 4.84 6.93 5.94 2.88 1.1 5.88.95 7.4-1.06" fill="#EBEBEB"/><path d="M257.8 233.85c.1-.4.16-.8.17-1.22l.33-3.35a37.58 37.58 0 0 1 2.54-10.72 21.36 21.36 0 0 1 2.97-5.25c1-1.3 2.28-2.36 3.74-3.1 1-.5 2.06-.83 3.15-.99.42-.02.82-.08 1.23-.18a9.4 9.4 0 0 0-4.5.85c-1.56.73-2.91 1.81-3.97 3.15a20.94 20.94 0 0 0-3.05 5.36 35.32 35.32 0 0 0-2.42 10.87c-.1 1.42-.15 2.58-.17 3.37-.05.4-.05.8-.02 1.21Z" fill="#E0E0E0"/><path d="M258.04 231.27c.03-.19.04-.38.03-.57v-1.63c0-1.41 0-3.46.06-5.98.13-5.06.56-10.5 1.4-18.17.8-7.2 1.87-15.6 3-21.06.24-1.22.48-2.35.72-3.33.23-.99.4-1.83.6-2.51.21-.68.29-1.17.38-1.59.06-.18.1-.37.1-.56-.08.18-.14.36-.2.54l-.47 1.56c-.2.64-.42 1.51-.67 2.49-.25.98-.54 2.11-.83 3.33a184.45 184.45 0 0 0-3.14 19.52 200.72 200.72 0 0 0-1.26 19.75c-.03 2.53 0 4.58.09 6l.1 1.63c0 .2.03.4.09.58Z" fill="#E0E0E0"/><path d="M258.07 217.77c.04-.56.04-1.13 0-1.7-.1-1.54-.27-3.08-.52-4.6-.38-2.27-.88-4.51-1.5-6.72a54.55 54.55 0 0 0-2.8-7.93 42.5 42.5 0 0 0-8.26-12.85c-.6-.64-1.26-1.24-1.94-1.8-.3-.26-.56-.5-.83-.7l-.76-.53c-.45-.34-.93-.65-1.43-.91-.08.1 2.03 1.35 4.7 4.19a44.53 44.53 0 0 1 8.04 12.8 70.4 70.4 0 0 1 4.42 14.53c.38 1.92.56 3.48.68 4.57.03.56.1 1.1.2 1.65Z" fill="#E0E0E0"/><path d="m245.03 241.58 1.35 18.53h23.8l1.35-18.53h-26.5Z" fill="#E0E0E0"/><path d="M274.37 234.28h-31.65v7.3h31.65v-7.3Z" fill="#E0E0E0"/><path d="M242.72 259.4v2.03h31.13v-2.03h-31.13Z" fill="#EBEBEB"/><path d="m245.67 264.99-1.46-3.56h28.5l-1.7 3.56h-25.34Z" fill="#E0E0E0"/><path d="M271.09 247.64c-.03.06-.07.12-.12.17l-.35.47-1.38 1.78-.06.07-.07-.08-3.4-4.71h.2l-3.36 4.75-.1.15-.13-.14c-1.21-1.48-2.58-3.05-3.97-4.74h.23l-.22.28-3.56 4.46-.11.15-.11-.16-3.36-4.74h.2l-4.14 4.7-.07.08-.06-.09-1.29-2.17-.33-.58a1.22 1.22 0 0 1-.1-.2l.14.18.36.55 1.36 2.14h-.13l4.07-4.77.1-.12.1.14 3.38 4.72h-.23l3.55-4.47.22-.27.11-.14.12.14 3.96 4.74h-.22l3.39-4.72.1-.15.1.15 3.33 4.76h-.13l1.45-1.73.38-.45c.1-.1.14-.16.15-.15Z" fill="#F5F5F5"/><path d="M271.86 241.46c0 .08-5.96.14-13.32.14-7.35 0-13.31-.06-13.31-.14 0-.08 5.96-.15 13.31-.15 7.36 0 13.32.07 13.32.15Z" fill="#F5F5F5"/><path d="M273.07 261.62c0 .09-6.49.15-14.48.15s-14.47-.06-14.47-.15c0-.08 6.47-.14 14.47-.14s14.48.06 14.48.14Z" fill="#F5F5F5"/><path d="m164.73 264.17-95.16.05a13.88 13.88 0 0 1-13.88-13.87L55.58 36a15.81 15.81 0 0 1 15.8-15.82l93.4-.05a14.03 14.03 0 0 1 14.04 14.03l.11 215.83a14.2 14.2 0 0 1-14.2 14.19Z" fill="#455A64"/><path d="m57.62 245.4-.1-206.42a16.87 16.87 0 0 1 16.86-16.84l85.6-.05a16.87 16.87 0 0 1 16.89 16.87l.11 206.42a16.86 16.86 0 0 1-16.87 16.88l-85.6.05a16.87 16.87 0 0 1-16.89-16.9Z" fill="#263238"/><path d="M108.34 29.78a1.37 1.37 0 1 1 0-2.74h17.62a1.37 1.37 0 1 1 0 2.74h-17.62Z" fill="#455A64"/><path d="M98.89 29.79a1.38 1.38 0 1 1-.01-2.75 1.38 1.38 0 0 1 0 2.75Z" fill="#455A64"/><path d="M103.93 29.78a1.37 1.37 0 1 1 0-2.75 1.37 1.37 0 0 1 0 2.75Z" fill="#455A64"/><path d="M135.49 29.76a1.37 1.37 0 1 1 0-2.73 1.37 1.37 0 0 1 0 2.73Z" fill="#455A64"/><path d="M130.44 29.77a1.37 1.37 0 1 1 0-2.75 1.37 1.37 0 0 1 0 2.75Z" fill="#455A64"/><path d="M160.9 24.9h-16.6a3.62 3.62 0 0 0-3.47 2.59l-1.35 4.65a4.04 4.04 0 0 1-3.89 2.9H98.83a4.06 4.06 0 0 1-3.89-2.9l-1.36-4.64a3.61 3.61 0 0 0-3.48-2.6H73.5a13.18 13.18 0 0 0-13.2 13.15l.1 207.78a13.18 13.18 0 0 0 13.22 13.14l87.38-.05a13.18 13.18 0 0 0 13.21-13.15L174.11 38a13.17 13.17 0 0 0-13.21-13.1Z" fill="#FAFAFA"/><path d="M178.83 73.15a.82.82 0 0 1 .8.82v26.43a.8.8 0 0 1-.8.8V73.16Z" fill="#455A64"/><path d="M55.6 90.51a.83.83 0 0 0-.84.83v16.1a.84.84 0 0 0 .84.83V90.5Z" fill="#455A64"/><path d="M55.58 67.28a.84.84 0 0 0-.83.84V84.2a.85.85 0 0 0 .84.84V67.28Z" fill="#455A64"/><path d="M55.58 49.89a.73.73 0 0 0-.73.72v6.82a.72.72 0 0 0 .73.72v-8.26Z" fill="#455A64"/><path d="M147.3 31.66h-.84v1.19h.85v-1.2Z" fill="#fff"/><path d="M148.69 31.13h-.85v1.7h.85v-1.7Z" fill="#fff"/><path d="M150.07 30.73h-.85v2.1h.85v-2.1Z" fill="#fff"/><path d="M151.45 29.96h-.85v2.88h.85v-2.88Z" fill="#fff"/><path d="M163.95 32.9h-4.27a.3.3 0 0 1-.22-.1.3.3 0 0 1-.09-.2v-2.12a.3.3 0 0 1 .3-.3h4.27c.02 0 .04 0 .06.02l.02.05v.7h.49l.03.02.01.03v1.04a.08.08 0 0 1-.08.08h-.45v.72a.08.08 0 0 1-.04.05h-.03Zm-.08-2.57h-4.19a.15.15 0 0 0-.1.04.15.15 0 0 0-.05.1v2.12c0 .04.02.08.05.1.02.03.06.05.1.05h4.17v-.7l.02-.05a.07.07 0 0 1 .06-.02h.45v-.87h-.43c-.02 0-.04 0-.05-.02a.08.08 0 0 1-.02-.05v-.7Z" fill="#fff"/><path d="M159.89 32.4v-1.72h3.63v1.71h-3.63Z" fill="#fff"/><path d="M155.5 32.73a.31.31 0 0 0-.2-.28.31.31 0 0 0-.42.22.3.3 0 0 0 .02.18.3.3 0 0 0 .28.2.31.31 0 0 0 .31-.32Z" fill="#fff"/><path d="m154.12 32 .4.38a.94.94 0 0 1 1.33 0l.4-.4a1.51 1.51 0 0 0-1.64-.32 1.5 1.5 0 0 0-.49.33Z" fill="#fff"/><path d="M155.18 30.68a2.4 2.4 0 0 0-1.68.7l.4.4a1.83 1.83 0 0 1 2.57 0l.4-.4a2.37 2.37 0 0 0-1.69-.7Z" fill="#fff"/><path d="m152.85 30.72.4.4a2.7 2.7 0 0 1 3.87 0l.4-.4a3.3 3.3 0 0 0-4.67 0Z" fill="#fff"/><path d="M83.72 82.96A7.86 7.86 0 1 1 68 82.82a7.86 7.86 0 0 1 15.72.14Z" fill="#1E60F6"/><path d="M123.02 76.9c0 .09-7.32.1-16.29 0-8.96-.1-16.3-.2-16.3-.3 0-.08 7.33-.09 16.3 0 8.98.1 16.3.22 16.29.3Z" fill="#263238"/><path d="M149.6 84.36c0 .09-13.29.05-29.7-.08-16.4-.14-29.7-.32-29.7-.4 0-.1 13.3-.06 29.71.08 16.41.13 29.7.3 29.7.4Z" fill="#E0E0E0"/><path d="M149.56 90.22c0 .09-13.3.05-29.7-.08-16.4-.14-29.72-.29-29.72-.4 0-.12 13.3-.05 29.7.08 16.41.14 29.72.31 29.72.4Z" fill="#E0E0E0"/><path d="M167.1 75.77c0 .1-2.89.14-6.43.11-3.54-.02-6.42-.13-6.42-.21 0-.09 2.88-.14 6.43-.1 3.54.02 6.41.12 6.41.2Z" fill="#263238"/><path d="M131.72 76.55a1.47 1.47 0 0 1-.93 1.35 1.46 1.46 0 0 1-1.6-.33 1.47 1.47 0 1 1 2.53-1.02Z" fill="#1E60F6"/><path d="M173.65 62.3c0 .09-25.4-.05-56.73-.3-31.32-.26-56.73-.54-56.73-.61 0-.08 25.4.05 56.73.3 31.33.26 56.74.53 56.73.61Z" fill="#E0E0E0"/><path d="M173.32 102.94c0 .1-25.41-.05-56.73-.3-31.32-.26-56.73-.54-56.73-.61 0-.08 25.4.04 56.73.3 31.32.26 56.73.53 56.73.61Z" fill="#E0E0E0"/><path d="M80.75 169.6a7.86 7.86 0 1 0-11.12-11.13 7.86 7.86 0 0 0 11.12 11.12Z" fill="#1E60F6"/><path d="M122.35 158.04c0 .09-7.29.1-16.28 0-9-.1-16.3-.2-16.3-.3 0-.08 7.32-.09 16.3 0 8.97.1 16.29.22 16.28.3Z" fill="#263238"/><path d="M148.94 165.5c0 .08-13.3.04-29.7-.1-16.4-.13-29.7-.31-29.7-.4 0-.08 13.3-.05 29.71.09 16.4.13 29.7.32 29.7.4Z" fill="#E0E0E0"/><path d="M148.9 171.36c0 .09-13.3.05-29.7-.08-16.4-.14-29.7-.32-29.7-.4 0-.09 13.3-.05 29.7.08 16.41.14 29.7.31 29.7.4Z" fill="#E0E0E0"/><path d="M166.43 156.91c0 .1-2.88.14-6.43.11-3.55-.02-6.41-.13-6.41-.21 0-.09 2.87-.13 6.42-.1s6.42.12 6.42.2Z" fill="#263238"/><path d="m161.45 165.1.53 1.1a.64.64 0 0 0 .48.35l1.22.19a.6.6 0 0 1 .55.42.6.6 0 0 1-.2.67l-.9.84a.65.65 0 0 0-.18.57l.2 1.22a.66.66 0 0 1-.26.63.65.65 0 0 1-.68.04l-1.07-.6a.65.65 0 0 0-.61 0l-1.09.55a.6.6 0 0 1-.7-.02.6.6 0 0 1-.22-.66l.22-1.22a.61.61 0 0 0-.18-.57l-.87-.86a.64.64 0 0 1 .37-1.09l1.22-.16a.61.61 0 0 0 .48-.35l.55-1.09a.65.65 0 0 1 1.14.03Z" fill="#1E60F6"/><path d="M131.03 157.98a1.48 1.48 0 1 0-2.9-.57 1.48 1.48 0 0 0 2.9.57Z" fill="#1E60F6"/><path d="M172.98 143.44c0 .09-25.4-.04-56.73-.3-31.32-.26-56.73-.54-56.73-.61 0-.07 25.4.05 56.73.3 31.33.26 56.74.53 56.73.61Z" fill="#E0E0E0"/><path d="M172.66 184.08c0 .1-25.01-.07-55.87-.36-30.86-.3-55.87-.61-55.87-.69 0-.07 25 .08 55.87.37 30.87.3 55.87.6 55.87.68Z" fill="#E0E0E0"/><path d="M82.42 241.26a7.86 7.86 0 1 1-15.72-.13 7.86 7.86 0 0 1 15.72.13Z" fill="#E0E0E0"/><path d="M121.73 235.21c0 .09-7.32.1-16.3 0-8.97-.1-16.28-.2-16.28-.29 0-.1 7.32-.1 16.29 0 8.97.1 16.29.2 16.29.3Z" fill="#263238"/><path d="M148.31 242.67c0 .09-13.3.05-29.7-.08-16.4-.14-29.7-.32-29.7-.4 0-.1 13.3-.05 29.7.08s29.7.31 29.7.4Z" fill="#E0E0E0"/><path d="M148.26 248.53c0 .1-13.3.06-29.7-.08-16.4-.13-29.7-.32-29.7-.4 0-.09 13.3-.06 29.7.08 16.4.13 29.7.32 29.7.4Z" fill="#E0E0E0"/><path d="M165.78 234.09c0 .08-2.87.13-6.42.1-3.54-.03-6.42-.12-6.42-.2 0-.1 2.88-.14 6.42-.12 3.55.03 6.42.13 6.42.22Z" fill="#263238"/><path d="M130.4 234.86a1.48 1.48 0 0 1-1.78 1.43 1.48 1.48 0 1 1 1.78-1.43Z" fill="#1E60F6"/><path d="m173.95 102.95-113.12-.93-.34 40.64 113.13.93.33-40.64Z" fill="#F5F5F5"/><path d="M81.32 128.23a7.86 7.86 0 1 0-11.12-11.12 7.86 7.86 0 0 0 11.12 11.12Z" fill="#455A64"/><path d="M122.92 116.7c0 .08-7.32.1-16.28.02-8.97-.07-16.3-.2-16.3-.3 0-.08 7.32-.1 16.3 0 8.97.11 16.28.17 16.28.27Z" fill="#263238"/><path d="M149.51 124.14c0 .09-13.3.05-29.7-.09-16.4-.13-29.7-.3-29.7-.4 0-.1 13.3-.05 29.7.09 16.4.13 29.7.31 29.7.4Z" fill="#E0E0E0"/><path d="M149.46 130c0 .09-13.3.05-29.7-.09-16.4-.13-29.7-.3-29.7-.4 0-.09 13.3-.05 29.7.09 16.42.13 29.7.31 29.7.4Z" fill="#E0E0E0"/><path d="M167 115.56c0 .08-2.88.13-6.42.1-2.14.03-4.29-.04-6.42-.22 0-.08 2.87-.13 6.42-.1 2.14-.03 4.29.04 6.42.22Z" fill="#263238"/><path d="M131.62 116.33a1.47 1.47 0 1 1-2.95-.02 1.47 1.47 0 0 1 2.95.02Z" fill="#1E60F6"/><path d="m174.03 183.96-113.12-.93-.33 40.64 113.12.93.34-40.64Z" fill="#F5F5F5"/><path d="M81.4 209.24a7.86 7.86 0 1 0-11.12-11.12 7.86 7.86 0 0 0 11.12 11.12Z" fill="#455A64"/><path d="M123 197.7c0 .08-7.31.09-16.28 0-8.97-.1-16.3-.2-16.3-.3 0-.1 7.33-.1 16.3 0s16.29.2 16.29.3Z" fill="#263238"/><path d="M149.6 205.14c0 .09-13.3.05-29.7-.09-16.4-.13-29.7-.31-29.7-.4 0-.08 13.3-.05 29.7.09 16.4.13 29.7.32 29.7.4Z" fill="#E0E0E0"/><path d="M149.55 211.01c0 .09-13.3.05-29.7-.08-16.4-.14-29.7-.3-29.7-.4 0-.1 13.29-.05 29.7.08 16.4.14 29.7.31 29.7.4Z" fill="#E0E0E0"/><path d="M167.08 196.56c0 .1-2.88.14-6.42.11-3.55-.02-6.42-.12-6.42-.21s2.87-.13 6.42-.1 6.42.12 6.42.2Z" fill="#263238"/><path d="m162.12 204.74-.16-.16a.6.6 0 0 0-.57-.12.56.56 0 0 0-.32.25c-.08.14-.16.33-.24.5l-.28.58a.77.77 0 0 1-.61.5l-.8.11-.4.07a.5.5 0 0 0-.4.33.5.5 0 0 0 .1.5l.7.68.18.18a.85.85 0 0 1 .22.86l-.18 1.06a.49.49 0 0 0 .08.4c.05.05.1.1.17.13.06.03.13.05.2.05.16 0 .32-.06.45-.16l.52-.27c.18-.1.36-.19.56-.25.22-.04.46 0 .65.14l.97.52a.5.5 0 0 0 .68-.26.74.74 0 0 0 0-.43c0-.17-.05-.34-.08-.51l-.07-.49c-.04-.2 0-.4.1-.56.1-.13.22-.25.35-.36l.33-.32.32-.3a.52.52 0 0 0 .17-.3.53.53 0 0 0-.26-.54 3.13 3.13 0 0 0-.67-.15l-.6-.1a.75.75 0 0 1-.54-.3 3.48 3.48 0 0 1-.21-.44 4.25 4.25 0 0 1-.32-.82c.16.24.31.5.44.76.06.14.13.27.22.4.05.07.12.12.2.15a.6.6 0 0 0 .23.06l.61.09c.24.02.47.07.7.14a.76.76 0 0 1 .39.8.78.78 0 0 1-.23.43l-.32.3-.32.32c-.11.1-.21.2-.3.32a.52.52 0 0 0-.06.37l.08.49.09.5c.06.2.06.41 0 .61a.8.8 0 0 1-1.1.43c-.33-.17-.66-.34-.99-.53a.61.61 0 0 0-.44-.1c-.16.07-.32.14-.48.23l-.51.26-.26.14a.8.8 0 0 1-1.1-.9l.2-1.05a.62.62 0 0 0 0-.42 1.46 1.46 0 0 0-.3-.35l-.7-.7a.8.8 0 0 1 0-1.02.82.82 0 0 1 .46-.25l.42-.06.8-.1a.56.56 0 0 0 .46-.35l.3-.57.27-.5c.1-.15.25-.25.43-.3a.67.67 0 0 1 .6.2c.17.1.17.18.17.18Z" fill="#263238"/><path d="M131.7 197.34a1.47 1.47 0 1 1-2.94-.02 1.47 1.47 0 0 1 2.95.02Z" fill="#1E60F6"/><path d="M77.8 51.2c0 .06-2.09.1-4.66.1a55.2 55.2 0 0 1-4.66-.1c0-.05 2.08-.1 4.66-.1 2.57 0 4.66.05 4.66.1Z" fill="#263238"/><path d="M77.8 53.59c0 .05-2.09.1-4.66.1a55.2 55.2 0 0 1-4.66-.1c0-.06 2.08-.1 4.66-.1 2.57 0 4.66.04 4.66.1Z" fill="#263238"/><path d="M77.8 55.97c0 .06-2.09.1-4.66.1-2.58 0-4.66-.04-4.66-.1 0-.04 2.08-.1 4.66-.1 2.57 0 4.66.05 4.66.1Z" fill="#263238"/><path d="m159.56 180.13-.08 32.78-14.49-2.98-12.2-2.55s16.7 32.94 34.87 32.94c18.16 0 20.51-27.4 20.51-27.4l1.08-32.8h-29.69Z" fill="#FFBF9D"/><path d="M234.82 95.56c-1.33.76-3.16-.22-3.77-1.64-.6-1.41-.33-3.05.13-4.53.47-1.5 1.12-2.92 1.22-4.46a6.56 6.56 0 0 0-4.41-6.47c2.62-2.08 2.83-6.54.43-8.86-1.13-1.09-2.63-1.68-3.94-2.53-.75-.5-1.44-1.06-2.08-1.7 1.17.3 2.39.33 3.58.12a5.8 5.8 0 0 0 4.2-3.66 5.24 5.24 0 0 0-1.28-5.38 4.8 4.8 0 0 0-5.4-.8c-1.7.9-2.62 2.74-3.45 4.47l-.77 1.6c-2.38-3.16-4.63-6.42-8.3-7.53-3.34-1-6.93.11-10.4-.14-2.54-.18-4.96-1.1-7.49-1.37-2.53-.28-5.4.26-6.89 2.31-.87 1.22-1.15 2.77-2.03 3.98-1.83 2.47-5.77 2.8-7.27 5.49-1.22 2.18-.28 4.94-.81 7.38-.57 2.66-2.76 4.6-4.56 6.65-1.79 2.05-3.36 4.85-2.35 7.38.89 2.22 3.48 3.42 4.32 5.66.61 1.63.18 3.44.14 5.19-.03 1.74.67 3.82 2.37 4.21l19.36 5.11c6.66 2.71 13.54 5.5 20.74 5.46 7.2-.04 14.87-3.47 17.69-10.08a4.12 4.12 0 0 1-2.78-1.22 6.94 6.94 0 0 0 3.8-4.64Z" fill="#263238"/><path d="M218.95 101.64c1.6-4.89 3.18-9.86 3.9-14.97.73-5.11.58-10.44-1.22-15.25-.27-.73-2.6-5.65-3.37-5.57-.56.05.87 4.64.6 5.13-2.68 4.6-3.4 10.15-2.97 15.48a69.77 69.77 0 0 0 3.09 15.2" fill="#263238"/><path d="M201.86 144.54c8-.17 17.08-17.69 17.08-17.69l.52-44.93c.41-12.94-6.77-23.97-19.71-24.03l-1.22.06a23.18 23.18 0 0 0-21.9 22.49c-.3 11.21-.5 23.62-.1 29.6.81 12.4 13.33 13.66 13.33 13.66s.07 2.88.1 6.53c.1 8.19 8.66 14.57 11.87 14.3l.03.01Z" fill="#FFBF9D"/><path d="M189.89 123.72s7.84.05 15.9-5.64c0 0-3.46 9.24-15.9 8.78v-3.14Z" fill="#FF9A6C"/><path d="M182.01 90.2a1.77 1.77 0 0 0 1.83 1.69 1.71 1.71 0 0 0 1.6-1.04c.1-.2.14-.43.14-.65a1.77 1.77 0 0 0-1.83-1.7 1.69 1.69 0 0 0-1.6 1.03c-.1.21-.14.44-.14.66Z" fill="#263238"/><path d="M179.59 85.46c.23.22 1.51-.84 3.42-.94 1.91-.1 3.36.79 3.55.54.1-.1-.15-.52-.78-.93a4.83 4.83 0 0 0-5.57.33c-.56.51-.74.9-.63 1Z" fill="#263238"/><path d="M199.18 89.73a1.78 1.78 0 0 0 1.83 1.7 1.69 1.69 0 0 0 1.6-1.04c.1-.2.14-.43.14-.66a1.77 1.77 0 0 0-1.8-1.7 1.7 1.7 0 0 0-1.77 1.7Z" fill="#263238"/><path d="M198.3 85.23c.23.22 1.52-.84 3.43-.94 1.9-.1 3.35.78 3.55.54.1-.11-.15-.51-.79-.93a4.87 4.87 0 0 0-5.57.33c-.55.48-.73.9-.62 1Z" fill="#263238"/><path d="M192.25 100.25c0-.1-1.22-.25-3.13-.39-.49 0-.95-.1-1.06-.43-.06-.5.02-1 .25-1.46.41-1.22.82-2.48 1.22-3.78 1.72-5.38 2.94-9.8 2.72-9.87-.22-.07-1.79 4.27-3.5 9.63l-1.18 3.8c-.28.6-.33 1.29-.15 1.93a1.21 1.21 0 0 0 .84.66c.27.06.55.09.83.08 1.96 0 3.15-.06 3.16-.17Z" fill="#263238"/><path d="M191.85 106.2c.3.08.73-1.95 2.77-3.02s4.15-.4 4.22-.67c.04-.13-.4-.5-1.3-.72a5.17 5.17 0 0 0-3.5.45 4.5 4.5 0 0 0-2.2 2.57c-.26.82-.13 1.37 0 1.39Z" fill="#263238"/><path d="M197.99 77.49c.22.51 2.1.17 4.36.31 2.25.15 4.1.67 4.36.18.12-.23-.22-.7-.97-1.16a7.6 7.6 0 0 0-6.65-.37c-.8.37-1.2.8-1.1 1.04Z" fill="#263238"/><path d="M180.03 79.08c.36.42 1.65-.1 3.23-.2 1.57-.1 2.93.13 3.21-.34.13-.23-.1-.65-.71-1.03a4.7 4.7 0 0 0-5.2.44c-.53.47-.69.92-.53 1.13Z" fill="#263238"/><path d="M218.94 91.18c.2-.1 8.39-2.98 8.58 5.49.19 8.47-8.39 6.92-8.4 6.7-.03-.2-.18-12.2-.18-12.2Z" fill="#FFBF9D"/><path d="M221.64 100.11c.04 0 .15.1.4.2.36.15.75.15 1.1 0 .9-.34 1.62-1.79 1.63-3.32 0-.73-.15-1.45-.46-2.1a1.72 1.72 0 0 0-1.13-1.12.76.76 0 0 0-.87.43c-.11.24-.05.4-.1.42-.05.01-.18-.14-.12-.49a.95.95 0 0 1 .7-.74c.15-.04.3-.05.44-.03a2.08 2.08 0 0 1 1.57 1.28 5 5 0 0 1 .57 2.36c0 1.71-.86 3.33-2.08 3.71a1.58 1.58 0 0 1-1.36-.2c-.27-.2-.32-.39-.3-.4Z" fill="#B4AAA7"/><path d="M181.97 66.3c-1.38-.73 2.69-5.24 6.05-6.82 5.07-2.38 12.86-3.9 17.58-2.63 5.7 1.54 10.44 4.27 13.35 9.42 2.92 5.15 4.07 11.12 3.97 17.02-.03 1.8-.18 3.65-1.13 5.2-1.16 1.9-3.42 3.11-3.29 5.7a3.57 3.57 0 0 1-.85 2.6c-1.53 1.68-3.46.15-4.34-1.4-1.92-3.3-2.18-7.27-2.39-11.08-.15-2.7-.3-5.49.43-8.09.4-1.42 1.05-2.77 1.37-4.2.32-1.45.25-3.06-.66-4.25a8.88 8.88 0 0 0-9.51-2.25c-4.76 1.76-12.9 4.4-15.05 2.8-3.1-2.3-3.86-3.82-3.86-3.82l-1.66 1.8Z" fill="#263238"/><path d="M205.14 55.69c-4.68-1.5-10-1.35-14.34.97-2.3 1.22-4.38 3.19-5.05 5.7-.67 2.53.44 5.62 2.87 6.57l.17.1c3.66 1.18 5.99.66 9.59-.64 3.05-1.09 5.7-3 8.74-4.08a17.3 17.3 0 0 1 10.1-.42c-3.3-3.64-7.39-6.68-12.08-8.2Z" fill="#263238"/><path d="M221.3 64.1c-.08.07-.77-.74-2.14-1.7-.8-.56-1.67-1.02-2.58-1.38a7.9 7.9 0 0 0-3.46-.6 11.6 11.6 0 0 0-5.92 2.43c-1.32 1.04-1.93 1.92-2 1.86-.09-.06.09-.26.37-.65.4-.55.86-1.06 1.37-1.51a11.03 11.03 0 0 1 6.13-2.7 8.1 8.1 0 0 1 3.7.65c.94.4 1.82.91 2.62 1.55 1.38 1.1 1.96 2.02 1.9 2.06Z" fill="#455A64"/><path d="M222.15 67.11a7.26 7.26 0 0 1-.65 2.44 17.7 17.7 0 0 1-7.93 8.94 7.1 7.1 0 0 1-2.33.93c-.1-.17 3.57-1.56 6.65-5.08 3.08-3.53 4.08-7.3 4.26-7.23Z" fill="#455A64"/><path d="M225.6 68.5c.08.32.09.64.04.96a17.77 17.77 0 0 1-11.4 15.28c-.83.32-1.68.56-2.55.72-.3.1-.63.13-.96.1 0-.1 1.34-.33 3.35-1.22a18.69 18.69 0 0 0 10.8-12.4c.58-2.08.63-3.44.73-3.44Z" fill="#455A64"/><path d="M195.41 54.93c0 .1-.88.3-2.25.85a18.45 18.45 0 0 0-8.71 7.18c-.39.7-.81 1.39-1.27 2.04.17-.8.48-1.56.92-2.25a16.17 16.17 0 0 1 8.93-7.35c.76-.3 1.57-.46 2.38-.47Z" fill="#455A64"/><path d="M228.28 56c.13 0-.24 2.44-2.16 4.72-1.92 2.29-4.27 3.08-4.27 2.94 0-.14 2.06-1.13 3.85-3.3 1.8-2.17 2.4-4.42 2.58-4.36Z" fill="#455A64"/><path d="m138 207.66 5.04-3.1c.86-.51 1.84-.79 2.84-.8h9.76l10.07 9.19 3.01 1.5-1.12 15.86-6.55-.8s-13.99.6-15.34-.3c-1.36-.91-3.32-3.77-3.32-3.77s-7.66-2.48-8.41-3.15c-2.85-2.56-1.7-3.17-1.7-3.17l-1.32-.6c-.24.45-2.15-2.66-1.95-4.22.12-.9-.15-.9-.15-.9a5.01 5.01 0 0 1-2.44-3.47c-.14-.93 3.66-.26 3.66-.26l9.47.12-1.55-2.13Z" fill="#FFBF9D"/><path d="m146.42 209.58-8.9-12.13a3.45 3.45 0 0 0-2.81-1.42h-17.62a1.28 1.28 0 0 0-.97 2.11l10.1 11.71 20.2-.27Z" fill="#455A64"/><path d="M142.1 214.55c-.64.18-1.31.26-1.98.26-3.23.2-6.47-.09-9.62-.82a7.8 7.8 0 0 1-1.91-.62c.66.05 1.32.15 1.97.3 1.22.22 2.89.48 4.76.61 1.86.14 3.56.2 4.78.2.67-.04 1.34-.01 2 .07Z" fill="#B4AAA7"/><path d="M144.64 219.87c-.65.17-1.32.26-2 .26a32.95 32.95 0 0 1-9.61-.83 7.67 7.67 0 0 1-1.91-.61c.66.04 1.33.14 1.98.3 1.22.21 2.88.47 4.75.6 1.86.14 3.56.2 4.79.2.66-.04 1.33-.01 2 .08Z" fill="#B4AAA7"/><path d="M126.44 209.93c.08.37.17.75.3 1.1.4 1.01 1.17 1.82 2.15 2.26l.07.03v.08a6.7 6.7 0 0 0 .69 3.1 5.85 5.85 0 0 0 2.75 2.7l.17.07-.08.15a1.4 1.4 0 0 0 0 1.22c.2.41.5.77.86 1.06.8.62 1.7 1.12 2.64 1.5 2.09.87 4.25 1.55 6.46 2.03h.08l.05.08c.56.82 1.23 1.56 1.98 2.22a6.15 6.15 0 0 0 2.59 1.53c.75.18 1.52.26 2.3.23l2.31.06 4.47.12 8.06.23h.03l9.6 1.96 2.66.57.7.16a.7.7 0 0 1 .23.08 1 1 0 0 1-.24 0l-.71-.11-2.7-.48-9.62-1.83h.03l-8.05-.17-4.46-.1-2.33-.06a6.55 6.55 0 0 1-5.16-1.88 12.03 12.03 0 0 1-2.04-2.3l.13.08a37.06 37.06 0 0 1-6.52-2.08c-.98-.4-1.89-.93-2.72-1.58-.4-.33-.73-.75-.96-1.22a1.74 1.74 0 0 1 .04-1.5l.09.23a6.15 6.15 0 0 1-2.88-2.88c-.48-1-.7-2.11-.66-3.23l.07.1a4.15 4.15 0 0 1-2.38-3.53Z" fill="#B4AAA7"/><path d="M147.52 224.53c.05.1-1.13.7-2.74.92-1.6.2-2.9-.06-2.88-.16.02-.1 1.3-.06 2.83-.27 1.54-.22 2.75-.6 2.8-.49Z" fill="#B4AAA7"/><path d="M152.05 209.56c0 .12-1.93.28-4.34.37-2.4.1-4.35.06-4.35-.06s1.94-.28 4.34-.37c2.4-.1 4.35-.06 4.35.06Z" fill="#B4AAA7"/><path d="M168.53 213.15s-.18.18-.6.24a2.8 2.8 0 0 1-1.77-.39 13.63 13.63 0 0 1-2.05-1.64l-2.4-2.1-4.4-3.78a14.43 14.43 0 0 1-1.78-1.62c.7.4 1.36.86 1.97 1.38a115.16 115.16 0 0 1 6.87 5.8c.6.6 1.25 1.17 1.95 1.68a2.9 2.9 0 0 0 1.58.49c.4 0 .62-.1.63-.06Z" fill="#B4AAA7"/><path d="M144.55 209.84a1.7 1.7 0 0 1-.24-.26l-.61-.78-2.32-2.92-3.34-4.36-1.97-2.57a2.97 2.97 0 0 0-2.13-1.09h-.88l-12.2-.05-3.7-.05h-1c-.13 0-.25 0-.36-.02.11-.03.23-.04.35-.04l1-.03 3.71-.05 12.2-.04h.9a3.3 3.3 0 0 1 2.35 1.2l1.96 2.6 3.29 4.4 2.2 2.98c.23.33.42.6.6.81.07.09.14.18.19.27Z" fill="#263238"/><path d="M125.39 199.58a.73.73 0 0 1 1.16.66.72.72 0 0 1-.52.61.72.72 0 0 1-.77-.24.75.75 0 0 1 .1-1" fill="#F5F5F5"/><path d="m219.81 123.32 24.82 14.59 4.56 80.52 5.93 45.55h-89.18s.98-55.44 1.29-72.21c.22-11.76-.1-34.54 3.88-48.55 1.7-5.97 18.3-13.69 18.3-13.69 9.1 8.03 19.26 5.64 30.4-6.21Z" fill="#1E60F6"/><path d="M252.5 243.85c0 .09-19.25.16-43 .16-23.76 0-43.01-.07-43.01-.16s19.25-.16 43-.16c23.76 0 43 .07 43 .16Z" fill="#fff"/><path opacity=".3" d="M166.43 230.15c6.9 5.79 17.64 8.92 26.47 10.71 8.83 1.79 17.86 2.44 26.71 4.06 6.2 1.16 12.7 2.79 18.66.77a16.47 16.47 0 0 0 10.9-14.07 1.52 1.52 0 0 0-.27-1.22 1.61 1.61 0 0 0-1.26-.3c-26.67 1.18-54.9 1.01-81.2.03" fill="#000"/><path d="M161.71 213.46h62.32l.3-32.84 28.76-3.7s.13 33.34.13 44.28c0 13.13-11.35 22.25-20.88 20.85-9.53-1.4-70.63-12.81-70.63-12.81v-15.78Z" fill="#FFBF9D"/><path d="m255.08 183.74-33.51 3.48V147.9s3.3-13.29 14.87-12.73c11.58.55 18.4 13.08 18.64 24.56.25 11.49 0 24 0 24Z" fill="#1E60F6"/><path d="M174.65 138.6s-10.74 7.08-13.62 14.88c-3.02 8.18-7.26 34.68-7.26 34.68h15.06l5.82-49.55Z" fill="#1E60F6"/><path d="M221.3 149.46c.03.48.03.95 0 1.43l-.13 3.91a358.26 358.26 0 0 0 .08 25.77l.15 3.9c.04.49.04.97 0 1.44-.1-.47-.15-.94-.17-1.42-.09-.92-.19-2.26-.29-3.9a233.39 233.39 0 0 1 .18-29.7c.02-.48.08-.96.17-1.43Z" fill="#263238"/><path d="M238.16 135.8c0 .09-1.12-.21-2.94-.18a13.08 13.08 0 0 0-11.45 7.02c-.85 1.6-1.09 2.73-1.17 2.71 0-.27.05-.53.14-.79a12.67 12.67 0 0 1 14.66-9c.26.04.52.12.76.24Z" fill="#263238"/><path d="M167.75 157.13c.03.14.04.3.04.44 0 .34 0 .77.04 1.28 0 1.1.04 2.7.04 4.68 0 3.95-.06 9.4-.18 15.44l-.31 15.43-.1 4.68c0 .5-.03.93-.04 1.27 0 .15 0 .3-.04.44-.04-.14-.05-.3-.05-.44 0-.34 0-.76-.03-1.27 0-1.1-.04-2.7-.04-4.68 0-3.96.06-9.41.18-15.45l.3-15.42.1-4.68c0-.51.04-.94.04-1.28 0-.15.01-.3.05-.44Z" fill="#263238"/><path d="M167.37 170.3c-1.7.14-3.4.18-5.1.11-1.7.04-3.4-.03-5.1-.2 1.7-.15 3.4-.19 5.1-.12 1.7-.04 3.4.03 5.1.2Z" fill="#fff"/><path d="M220.72 161.22c0 .09-11.6.16-25.84.16s-25.84-.07-25.84-.16 11.59-.16 25.84-.16c14.26 0 25.84.06 25.84.16Z" fill="#fff"/><path d="M254.36 155.84a1.5 1.5 0 0 1-.34 0l-.97-.08-3.54-.3a216.17 216.17 0 0 0-23.43-.66l-3.55.11h-.97c-.1.02-.22.02-.34 0 .11-.03.22-.04.34-.05l.96-.08c.84-.07 2.05-.14 3.56-.22a165.19 165.19 0 0 1 23.45.65c1.5.15 2.7.3 3.53.4l.96.14c.12.02.23.05.34.09Z" fill="#fff"/><path d="M254.68 179.13c0 .1-7.58 0-16.9-.22-9.33-.21-16.9-.45-16.9-.54 0-.08 7.56 0 16.9.23 9.34.22 16.9.45 16.9.53Z" fill="#fff"/><path d="M224.23 141.63c0 .1-11.94.16-26.68.16-14.73 0-26.67-.06-26.67-.16 0-.09 11.94-.16 26.67-.16 14.74 0 26.68.08 26.68.16Z" fill="#fff"/><path d="M220.89 185.96c0 .08-11.98.15-26.76.15-14.78 0-26.76-.07-26.76-.16 0-.08 11.98-.15 26.76-.15 14.78 0 26.76.06 26.76.16Z" fill="#fff"/><path d="M224.73 205.52c0 .09-13.03.16-29.1.16-16.06 0-29.1-.07-29.1-.16 0-.08 13.03-.16 29.1-.16 16.08 0 29.1.07 29.1.16Z" fill="#fff"/><path d="M254.19 261.95c0 .09-19.65.16-43.88.16-24.23 0-43.88-.07-43.88-.16s19.65-.16 43.88-.16c24.24 0 43.88.08 43.88.16Z" fill="#fff"/><path opacity=".3" d="M221.16 187.59c-.39-7.77-.1-15.04-.5-22.8a144.2 144.2 0 0 0-3.73 34.76c.05 2.78.18 5.6 1.08 8.23.9 2.63 3.38 4.88 5.92 6l.24-26.53c-1.14.09-1.86.28-3 .34Z" fill="#000"/><path d="m48.49 235.32-4.4 28.9H18.54l-5.93-28.48 35.88-.42Z" fill="#1E60F6"/><path d="M16.18 253.84c0 .09 6.55.15 14.64.15 8.1 0 14.64-.06 14.64-.15 0-.08-6.54-.15-14.64-.15-8.1 0-14.64.07-14.64.15Z" fill="#FAFAFA"/><path d="M16.09 252.42c0 .09 6.58.15 14.72.15 8.13 0 14.71-.06 14.71-.15 0-.08-6.58-.14-14.71-.14-8.14 0-14.72.06-14.72.14Z" fill="#FAFAFA"/><path d="M16.13 250.82c0 .08 6.6.15 14.72.15 8.14 0 14.72-.07 14.72-.15 0-.09-6.58-.16-14.72-.16-8.13 0-14.72.07-14.72.16Z" fill="#FAFAFA"/><path d="M41.16 262.57c.35-1.2.61-2.42.78-3.66.26-1.21.42-2.45.48-3.69-.35 1.2-.62 2.42-.78 3.66a22.36 22.36 0 0 0-.48 3.7Z" fill="#FAFAFA"/><path d="M39.42 262.27c.17-1.18.28-2.37.32-3.55.12-1.19.18-2.38.16-3.57a16.95 16.95 0 0 0-.46 3.54 16.44 16.44 0 0 0-.02 3.58Z" fill="#FAFAFA"/><path d="M36.25 262.27c.6-2.4.88-4.86.86-7.32-.24 1.2-.4 2.43-.5 3.66a34.18 34.18 0 0 0-.36 3.66Z" fill="#FAFAFA"/><path d="M34.02 262.42c.4-2.45.47-4.94.24-7.42a32.2 32.2 0 0 0-.19 3.71c-.09 1.24-.1 2.47-.05 3.71Z" fill="#FAFAFA"/><path d="M30.09 262.27c.19-1.16.28-2.34.27-3.52.09-1.17.08-2.35-.04-3.52a21.46 21.46 0 0 0-.27 3.52c-.08 1.17-.07 2.35.04 3.52Z" fill="#FAFAFA"/><path d="M27.21 262.42c.15-1.22.19-2.44.12-3.66.04-1.21-.02-2.43-.18-3.63a22.76 22.76 0 0 0-.11 3.66c-.04 1.21.01 2.42.17 3.63Z" fill="#FAFAFA"/><path d="M24.52 262.03c.03-1.27-.05-2.54-.22-3.8a24.64 24.64 0 0 0-.52-3.76c-.03 1.27.05 2.54.22 3.8.08 1.26.25 2.52.52 3.76Z" fill="#FAFAFA"/><path d="M21.04 261.65c0-1.09-.15-2.17-.43-3.23-.18-1.07-.5-2.12-.95-3.1.16 1.06.38 2.12.66 3.17.18 1.07.42 2.12.72 3.16Z" fill="#FAFAFA"/><path d="M23.5 178.3v.15c0 .1.07.24.12.4l.49 1.56c.2.66.48 1.5.75 2.48.27.97.6 2.06.92 3.3.31 1.22.68 2.56 1 4.02.31 1.46.65 3 .98 4.65.61 3.3 1.17 6.94 1.56 10.78.4 3.84.55 7.53.61 10.89 0 1.67 0 3.26-.04 4.76s-.11 2.87-.18 4.14c-.08 1.27-.17 2.4-.25 3.4-.08 1.02-.17 1.88-.25 2.58-.09.71-.13 1.22-.17 1.63a2 2 0 0 1-.03.42v.14a.4.4 0 0 0 .03-.14c0-.1.04-.25.07-.42l.22-1.61c.1-.69.2-1.57.3-2.57.09-1 .22-2.15.3-3.42.07-1.27.17-2.65.21-4.15.04-1.5.07-3.08.08-4.77-.04-3.35-.2-7.05-.61-10.9-.4-3.86-.96-7.51-1.6-10.81-.33-1.65-.64-3.21-1-4.66-.37-1.46-.7-2.8-1.04-4.02-.33-1.22-.67-2.33-.97-3.3-.29-.96-.56-1.78-.8-2.43l-.53-1.54-.15-.4c0-.05 0-.1-.02-.16Z" fill="#263238"/><path d="M28.12 196.2a9.49 9.49 0 0 0-3.98-5.03c-.61-.39-1.43-.7-2.1-.38-.9.43-.96 1.68-.7 2.64a6.98 6.98 0 0 0 2.92 3.94 5.87 5.87 0 0 0 4.34 1.1" fill="#263238"/><path d="M29.66 208.28c-.65-2.5-2.64-6.04-4.71-7.6a3.09 3.09 0 0 0-1.07-.56 1.21 1.21 0 0 0-1.15.24 1.78 1.78 0 0 0-.26 1.66 10.07 10.07 0 0 0 7.46 7.5" fill="#263238"/><path d="M30.1 218.9a14.57 14.57 0 0 0-4.77-5.97 2.26 2.26 0 0 0-1.66-.61c-.9.16-1.3 1.26-1.22 2.18.17 1.88 1.6 3.39 3.1 4.55 1.35.95 2.83 1.7 4.39 2.27" fill="#263238"/><path d="M29.85 226.56c-.99-1.82-2.37-3.4-4.05-4.61a2.91 2.91 0 0 0-1.22-.55 1.22 1.22 0 0 0-1.22.45c-.4.62 0 1.4.42 1.99a11.55 11.55 0 0 0 5.77 4.23" fill="#263238"/><path d="M30.05 223.44a44.43 44.43 0 0 1 5.8-5.89 1.28 1.28 0 0 1 1.15-.43.86.86 0 0 1 .53.78c0 .33-.07.66-.22.97a11.22 11.22 0 0 1-7.45 6.26" fill="#263238"/><path d="m29.87 213.5 4.55-5.54c.4-.56.9-1.03 1.47-1.4a1.87 1.87 0 0 1 1.94 0 1.83 1.83 0 0 1 .61 1.82 4.8 4.8 0 0 1-.89 1.84c-.88 1.34-2 2.51-3.3 3.46-1.33.92-2.55 1.52-4.15 1.28" fill="#263238"/><path d="M29.24 202.3a15.77 15.77 0 0 1 4.57-6.87c.34-.34.76-.58 1.22-.7a2 2 0 0 1 2.09 1.47 3.72 3.72 0 0 1-.42 3 7.85 7.85 0 0 1-2.13 2.27 18.44 18.44 0 0 1-5.06 2.73" fill="#263238"/><path d="M27.42 192.33c.44-3.21 2.11-5.9 4.05-8.49.4-.55.98-1.13 1.65-1.03a1.3 1.3 0 0 1 .96.82c.15.4.2.85.17 1.28a9.92 9.92 0 0 1-6.44 8.87" fill="#263238"/><path d="M26.14 187.2c.21-1.64.27-3.3.17-4.96a8.9 8.9 0 0 0-1.65-4.63 3.8 3.8 0 0 0-1.62-1.32 2.1 2.1 0 0 0-2.03.27 2.22 2.22 0 0 0-.7 1.79c.07.66.24 1.3.52 1.9 1.22 2.92 3.23 6.15 5.34 6.96" fill="#263238"/><path d="M45.96 191.04c-.02.13-.02.27 0 .4v1.17c0 .48 0 1.13-.03 1.83-.03.7 0 1.54-.09 2.44a90.16 90.16 0 0 1-.53 6.33 91.68 91.68 0 0 1-6.18 23.51c-.3.67-.52 1.22-.72 1.7l-.45 1.08c-.06.12-.11.25-.15.38.08-.11.14-.23.2-.36.13-.27.3-.6.5-1.05.22-.44.49-1.02.77-1.68.28-.67.6-1.41.94-2.26a83.72 83.72 0 0 0 4.1-13.56c.57-2.71.95-5.32 1.21-7.7.26-2.4.42-4.55.46-6.37.05-.9.04-1.72.05-2.44v-1.83c0-.48 0-.86-.05-1.16.01-.15 0-.3-.03-.43Z" fill="#263238"/><path d="M45.24 204.21a6.78 6.78 0 0 0-1.62-4.27 1.63 1.63 0 0 0-1.35-.71c-.7.1-1.01.94-1.04 1.65a4.98 4.98 0 0 0 1.12 3.3 4.2 4.2 0 0 0 2.72 1.68" fill="#263238"/><path d="M43.7 212.78c.09-1.83-.5-4.69-1.58-6.18a2.18 2.18 0 0 0-.6-.61.9.9 0 0 0-.84-.08 1.22 1.22 0 0 0-.54 1.07 7.18 7.18 0 0 0 3.46 6.71" fill="#263238"/><path d="M41.7 220.11c-.18-1.84-.85-3.6-1.95-5.1a1.61 1.61 0 0 0-1-.76c-.65-.08-1.17.58-1.3 1.22-.3 1.31.35 2.65 1.1 3.77.73.93 1.58 1.77 2.52 2.49" fill="#263238"/><path d="M39.9 225.27a10.05 10.05 0 0 0-1.77-4 2.14 2.14 0 0 0-.71-.62.9.9 0 0 0-.91.06c-.4.31-.31.94-.14 1.43a8.22 8.22 0 0 0 3.05 4.13" fill="#263238"/><path d="M40.73 223.19c1.65-1.08 3.4-2 5.21-2.76a.9.9 0 0 1 .88-.05.61.61 0 0 1 .2.6c-.08.24-.2.45-.37.62a8 8 0 0 1-6.42 2.66" fill="#263238"/><path d="M42.71 216.38c1.43-.93 2.86-1.86 4.27-2.8.4-.28.84-.49 1.31-.6a1.18 1.18 0 0 1 1.36 1.77c-.26.42-.6.78-1 1.05a9.53 9.53 0 0 1-3.02 1.69 3.97 3.97 0 0 1-3.1 0" fill="#263238"/><path d="M44.7 208.62a11.36 11.36 0 0 1 4.59-3.7c.3-.15.63-.22.96-.21a1.43 1.43 0 0 1 1.1 1.44 2.68 2.68 0 0 1-.93 1.96c-.56.49-1.22.85-1.94 1.08a13 13 0 0 1-4.03.77" fill="#263238"/><path d="M45.6 201.43c1-2.1 2.71-3.56 4.59-4.92a1.4 1.4 0 0 1 1.35-.34.93.93 0 0 1 .47.76c.02.31-.04.62-.15.91a7.09 7.09 0 0 1-6.3 4.66" fill="#263238"/><path d="M45.84 197.68c.5-1.08.9-2.2 1.18-3.35a6.34 6.34 0 0 0-.12-3.5c-.16-.48-.46-.9-.84-1.23a1.5 1.5 0 0 0-1.44-.25 1.58 1.58 0 0 0-.86 1.06c-.1.46-.12.94-.06 1.4.2 2.25.88 4.89 2.14 5.9" fill="#263238"/><path d="M13.65 190.76v.4c0 .3-.03.69-.04 1.17-.01.48-.04 1.13 0 1.83.04.7 0 1.54.04 2.44a84.06 84.06 0 0 0 1.69 14.06c.53 2.7 1.25 5.26 1.95 7.56s1.45 4.32 2.13 6c.33.85.66 1.6.95 2.26.28.67.53 1.22.76 1.69l.5 1.05c.06.12.12.24.2.36a2.73 2.73 0 0 0-.14-.39l-.48-1.05c-.2-.46-.45-1.03-.71-1.7-.27-.67-.61-1.42-.9-2.27a86.4 86.4 0 0 1-5.26-21.22c-.3-2.37-.45-4.52-.53-6.35-.06-.9-.07-1.72-.1-2.44-.02-.72 0-1.34 0-1.83v-1.17c0-.13-.02-.27-.06-.4Z" fill="#455A64"/><path d="M14.37 203.92c.03-1.57.6-3.08 1.62-4.27a1.61 1.61 0 0 1 1.35-.71c.7.1 1.01.94 1.04 1.64a4.97 4.97 0 0 1-1.12 3.34c-.65.9-1.63 1.5-2.72 1.68" fill="#455A64"/><path d="M15.9 212.5c-.08-1.83.51-4.69 1.59-6.18.16-.25.37-.45.6-.61a.88.88 0 0 1 .84-.08 1.22 1.22 0 0 1 .53 1.07 7.17 7.17 0 0 1-3.46 6.71" fill="#455A64"/><path d="M17.91 219.83c.19-1.84.86-3.6 1.95-5.1a1.63 1.63 0 0 1 1-.76c.66-.08 1.17.58 1.31 1.22.3 1.31-.36 2.66-1.12 3.77a13.5 13.5 0 0 1-2.5 2.48" fill="#455A64"/><path d="M19.72 224.98c.28-1.44.89-2.8 1.76-3.98.2-.25.43-.46.71-.6a.88.88 0 0 1 .91.05c.4.31.32.95.15 1.43a8.27 8.27 0 0 1-3.05 4.13" fill="#455A64"/><path d="M18.92 222.91c-1.65-1.08-3.4-2-5.22-2.76a.91.91 0 0 0-.88-.05.6.6 0 0 0-.19.64c.07.23.2.44.36.6a8 8 0 0 0 6.42 2.67" fill="#455A64"/><path d="m16.9 216.12-4.27-2.8c-.4-.28-.84-.48-1.3-.6a1.32 1.32 0 0 0-1.33.4 1.3 1.3 0 0 0-.03 1.38c.25.4.58.74.97 1.01a9.6 9.6 0 0 0 3.02 1.68 3.98 3.98 0 0 0 3.1 0" fill="#455A64"/><path d="M14.91 208.34a11.29 11.29 0 0 0-4.59-3.7c-.3-.15-.62-.22-.96-.21a1.43 1.43 0 0 0-1.1 1.44 2.68 2.68 0 0 0 .93 1.96c.56.49 1.22.85 1.94 1.08a13 13 0 0 0 4.03.77" fill="#455A64"/><path d="M14 201.14c-.99-2.09-2.7-3.55-4.58-4.9a1.4 1.4 0 0 0-1.35-.35.94.94 0 0 0-.47.76c-.02.31.04.62.15.91a7.1 7.1 0 0 0 6.3 4.66" fill="#455A64"/><path d="M13.77 197.4c-.5-1.08-.9-2.2-1.18-3.35a6.34 6.34 0 0 1 .13-3.5c.15-.5.44-.94.84-1.27a1.47 1.47 0 0 1 1.43-.25 1.58 1.58 0 0 1 .86 1.06c.1.46.12.94.06 1.4-.2 2.26-.87 4.88-2.14 5.9" fill="#455A64"/><path d="M51.42 229.6v5.43a2.13 2.13 0 0 1-2.13 2.13h-37a2.13 2.13 0 0 1-2.13-2.13v-5.43h41.26Z" fill="#1E60F6"/><path opacity=".4" d="m48.2 237.13-.3 1.72-34.13 2.44-.87-4.16h35.3Z" fill="#000"/><path d="M271.36 264.1c0 .09-60.4.16-134.85.16-74.47 0-134.87-.07-134.87-.16 0-.08 60.4-.16 134.87-.16s134.85.07 134.85.16Z" fill="#263238"/></g><defs><clipPath id="a"><path fill="#fff" d="M0 0h281v265H0z"/></clipPath></defs></svg>