<svg fill="none" xmlns="http://www.w3.org/2000/svg" viewBox="0 0 422 427"><g clip-path="url(#a)"><path d="M36 107.49h85.11V18.77H36v88.72Z" fill="#E0E0E0"/><path d="M41.77 107.49h85.11V18.77H41.77v88.72Z" fill="#FAFAFA"/><path d="M41.74 18.74h85.17v88.77H41.74V18.74Zm85.12.05H41.8v88.67h85.06V18.79Z" fill="#E0E0E0"/><path d="M53.21 95.56h62.23V30.69H53.21v64.87Z" fill="#fff"/><path d="M115.44 96c.44.66.96 1.26 1.54 1.79 1 1.05 2.39 2.46 4 4 1.61 1.54 3 2.91 4.07 3.89.54.57 1.14 1.07 1.8 1.5-.44-.65-.95-1.25-1.53-1.78-1-1.05-2.4-2.47-4-4-1.6-1.53-3-2.92-4.07-3.9a9.82 9.82 0 0 0-1.81-1.5Z" fill="#E0E0E0"/><path d="M53.21 95.83c-.65.44-1.25.96-1.78 1.54a180.57 180.57 0 0 0-7.9 8.02 9.3 9.3 0 0 0-1.49 1.8 10.4 10.4 0 0 0 1.77-1.53c1-1 2.48-2.39 4-4 1.52-1.61 2.93-3 3.9-4.07a9.3 9.3 0 0 0 1.5-1.76Z" fill="#E0E0E0"/><path d="M53.38 30.86c-.44-.65-.96-1.25-1.53-1.78-1-1-2.39-2.47-4-4-1.61-1.53-3-2.92-4.06-3.89a10.45 10.45 0 0 0-1.8-1.5c.43.65.94 1.25 1.52 1.78 1 1.05 2.4 2.47 4 4 1.6 1.53 3 2.92 4.07 3.89a9.3 9.3 0 0 0 1.8 1.5Z" fill="#E0E0E0"/><path d="M115.61 31a9.98 9.98 0 0 0 1.79-1.53c1-1 2.46-2.39 4-4 1.54-1.61 2.91-3 3.89-4.06a10.6 10.6 0 0 0 1.5-1.8c-.66.45-1.27.98-1.79 1.59-1.05 1-2.47 2.39-4 4-1.53 1.61-2.92 3-3.9 4.07a9.84 9.84 0 0 0-1.49 1.73Z" fill="#E0E0E0"/><path d="M53.38 95.56v-4.72c0-3.08 0-7.55.06-13.22 0-11.36.07-27.55.12-46.93l-.24.24h62.05l-.27-.28v64.87l.24-.24-44.93.12-12.63.07h-4.2 4.13l12.57.07 45.08.12h.24V30.28H53.02v.24c0 19.44.09 35.68.12 47.08 0 5.65 0 10.11.07 13.17v4.33c0 .21.17.46.17.46Z" fill="#E0E0E0"/><path d="M73.95 73.51h20.76V52.75H73.95v20.76Z" fill="#EBEBEB"/><path d="M12.11 416.57h102.44V222.92H12.11v193.65Z" fill="#E0E0E0"/><path d="M42.5 416.57h102.44V222.92H42.5v193.65Z" fill="#F5F5F5"/><path d="M50.05 232.08H138v30.7H50.05v-30.7Zm86.85 1.08H51.13v28.54h85.77v-28.54Z" fill="#E0E0E0"/><path d="M105.15 238.74H81.68a4.95 4.95 0 0 1-4.95-4.95v-1.17h33.37v1.17a4.95 4.95 0 0 1-4.95 4.95Z" fill="#EBEBEB"/><path d="M50.05 271.07H138v30.7H50.05v-30.7Zm86.85 1.09H51.13v28.53h85.77v-28.53Z" fill="#E0E0E0"/><path d="M105.15 277.73H81.68a4.95 4.95 0 0 1-4.95-4.95v-1.17h33.37v1.17a4.95 4.95 0 0 1-4.95 4.95Z" fill="#EBEBEB"/><path d="M50.05 310.07H138v30.69H50.05v-30.69Zm86.85 1.08H51.13v28.53h85.77v-28.53Z" fill="#E0E0E0"/><path d="M105.15 316.72H81.68a4.95 4.95 0 0 1-4.95-4.95v-1.17h33.37v1.17a4.95 4.95 0 0 1-4.95 4.95Z" fill="#EBEBEB"/><path d="M50.05 349.06H138v30.7H50.05v-30.7Zm86.85 1.08H51.13v28.54h85.77v-28.54Z" fill="#E0E0E0"/><path d="M105.15 355.72H81.68a4.95 4.95 0 0 1-4.95-4.95v-1.17h33.37v1.17a4.95 4.95 0 0 1-4.95 4.95Z" fill="#EBEBEB"/><path d="M38.22 225.32h111.27v-9.65H38.22v9.65Z" fill="#EBEBEB"/><path d="M4.76 225.32h33.46v-9.65H4.76v9.65Z" fill="#E0E0E0"/><path d="M139.57 426.46h5.38v-9.89h-5.38v9.89Z" fill="#E0E0E0"/><path d="M106.31 426.46h5.38v-9.89h-5.38v9.89Z" fill="#E0E0E0"/><path d="M45.55 426.46h5.38v-9.89h-5.38v9.89Z" fill="#E0E0E0"/><path d="M15.17 426.46h5.38v-9.89h-5.38v9.89Z" fill="#E0E0E0"/><path d="m261.76-.3-6.19 31.89 47.3 9.18 6.19-31.88-47.3-9.19Z" fill="#F5F5F5"/><path d="M309.15 9.31c-.16.13-.34.24-.52.34l-1.54.9-5.72 3.23-19 10.56-.15.09-.12-.14-.28-.33-14.21-16.8L263.37 2a62.73 62.73 0 0 1-1.52-1.92c.16.14.3.3.44.46l1.21 1.35 4.37 5 14.31 16.72c.1.1.2.22.28.33l-.27-.05 19-10.45L307 10.4l1.58-.83c.18-.1.37-.19.57-.26Z" fill="#E0E0E0"/><path d="M255.66 32c-.08-.1 4.33-3.78 9.84-8.22 5.51-4.44 10-8 10.11-7.88.11.12-4.33 3.77-9.84 8.22-5.51 4.45-10.04 7.98-10.11 7.88Z" fill="#E0E0E0"/><path d="M291.41 18.57c.11-.06 2.78 5 6 11.21 3.22 6.21 5.69 11.36 5.58 11.41-.11.05-2.78-5-6-11.21-3.22-6.21-5.69-11.36-5.58-11.41Z" fill="#E0E0E0"/><path d="m410.74 42.08-33.77 16.97L388.4 81.8l33.78-16.96-11.44-22.77Z" fill="#F5F5F5"/><path d="M411 42.31c-.04.16-.1.31-.16.46l-.53 1.3-2 4.74-6.72 15.65-.06.13h-.14l-.33-.07-16.87-3.62-5.11-1.14-1.38-.32a2.84 2.84 0 0 1-.48-.14c.16 0 .33.03.49.07l1.4.26 5.13 1 16.89 3.52.34.07-.2.1 6.82-15.6 2.08-4.72.59-1.27c.07-.15.15-.29.24-.42Z" fill="#E0E0E0"/><path d="M388.64 82c-.09 0 .88-4.42 2.17-9.82s2.42-9.76 2.51-9.74c.09.02-.88 4.42-2.17 9.82s-2.42 9.8-2.51 9.74Z" fill="#E0E0E0"/><path d="M404.4 56.56c0-.09 4.11 1.75 9.08 4.1 4.97 2.35 9 4.33 8.94 4.41-.06.08-4.11-1.75-9.08-4.1-4.97-2.35-8.98-4.33-8.94-4.41Z" fill="#E0E0E0"/><path d="m249.36 139.96-3.9 19.05 28.28 5.78 3.9-19.05-28.28-5.78Z" fill="#F5F5F5"/><path d="m277.66 146-.31.2-.93.52-3.42 1.89-11.42 6.21-.1.05-.07-.08-.16-.2c-3.28-4-6.25-7.53-8.41-10.15l-2.53-3.09-.68-.85a1.4 1.4 0 0 1-.22-.31c.1.09.18.18.26.28l.72.82 2.59 3 8.47 10.1.17.2h-.17l11.46-6.14 3.48-1.83.95-.49c.1-.05.2-.1.32-.13Z" fill="#E0E0E0"/><path d="M245.49 159.25c0-.06 2.62-2.23 5.94-4.86 3.32-2.63 6.06-4.72 6.11-4.66.05.06-2.62 2.23-5.94 4.86a104.78 104.78 0 0 1-6.11 4.66Z" fill="#E0E0E0"/><path d="M267 151.41c.06 0 1.63 3 3.5 6.75s3.34 6.84 3.28 6.87c-.06.03-1.64-3-3.51-6.75-1.87-3.75-3.35-6.83-3.27-6.87Z" fill="#E0E0E0"/><path d="m316.95 119.35 45.26-5.19 4.58 30.65-46.95 4.61-2.89-30.07Z" fill="#EBEBEB"/><path d="m317 119.36 19.58-19.66a2.48 2.48 0 0 1 3.11-.32l22.57 14.78" fill="#E0E0E0"/><path d="M319.84 149.42c-.06 0 3.14-4.39 7.15-9.71 4.01-5.32 7.31-9.59 7.37-9.54.06.05-3.14 4.39-7.15 9.71a255.39 255.39 0 0 1-7.37 9.54Z" fill="#E0E0E0"/><path d="M366.79 144.82c-.06.05-4-3.45-8.82-7.82s-8.68-8-8.63-8c.05 0 4 3.45 8.82 7.82a255 255 0 0 1 8.63 8Z" fill="#E0E0E0"/><path d="m319.42 120.79-1.6-14.14 39.62-4.73 2.04 14.84-18.09 17.77-21.97-13.74Z" fill="#FAFAFA"/><path d="m319.41 120.79.43.23 1.19.71 4.47 2.73 16 9.89h-.27l18.06-17.81-.07.22-1.22-8.82-.83-6 .29.22-39.63 4.64.15-.19 1.09 10.39.27 2.79c0 .3 0 .54.06.73a.8.8 0 0 1 0 .25v-.23l-.1-.7-.36-2.76-1.25-10.43v-.16h.16l39.6-4.83h.26v.25c.27 2 .54 4 .83 6l1.22 8.82v.13l-.1.09-18.12 17.75-.12.11-.14-.09-16-10.1-4.39-2.81-1.14-.74a2.94 2.94 0 0 1-.34-.28Z" fill="#E0E0E0"/><path d="M351.93 109.72c0 .14-6 .94-13.51 1.79-7.51.85-13.55 1.43-13.56 1.28-.01-.15 6-.94 13.51-1.79 7.51-.85 13.55-1.43 13.56-1.28Z" fill="#E0E0E0"/><path d="M352.36 113.71c0 .15-6 .95-13.51 1.8-7.51.85-13.55 1.42-13.56 1.28-.01-.14 6-.95 13.51-1.8 7.51-.85 13.55-1.42 13.56-1.28Z" fill="#E0E0E0"/><path d="M352.86 118.32c0 .14-6 1-13.51 1.8s-13.55 1.42-13.57 1.28c-.02-.14 6-1 13.51-1.8s13.55-1.42 13.57-1.28Z" fill="#E0E0E0"/><path d="M353.35 122.92c0 .15-5.75.92-12.88 1.73-7.13.81-12.93 1.35-13 1.21-.07-.14 5.75-.92 12.89-1.73 7.14-.81 12.98-1.35 12.99-1.21Z" fill="#E0E0E0"/><path d="M348.71 127.51c-.73.24-1.5.39-2.26.45-1.41.21-3.36.46-5.51.73-2.15.27-4.12.47-5.54.59a9.6 9.6 0 0 1-2.31.07c.74-.23 1.5-.38 2.27-.44 1.41-.21 3.36-.47 5.51-.74s4.12-.46 5.53-.58a9.97 9.97 0 0 1 2.31-.08Z" fill="#E0E0E0"/><path d="M344 132c-.92.35-1.88.54-2.86.57-.97.17-1.95.17-2.92 0a7.99 7.99 0 0 1 2.86-.57 8.19 8.19 0 0 1 2.92 0Z" fill="#E0E0E0"/><path d="M319.38 357.06a32.05 32.05 0 0 0-10.7-30.32s-2.48-.91-2.27 1.87c.13 1.66-1.47 4-2.79 3-2.31-1.78-1.58-5.39-2.57-8.13-1.17-3.2-4.58-4.91-7.7-6.28-5.76-2.52-11.61-5-17.8-6.09-6.19-1.09-12.8-.83-18.44 1.95l4.1 8.27a2.9 2.9 0 0 0 3.67 1.84l7.5-.55c1.09-.08 2.49 0 2.81 1.09.32 1.09-1.06 2.06-2.22 2.47l-7.86 2.82a25.18 25.18 0 0 0 10.4 8.67 75.3 75.3 0 0 0 13 4.43c1.37.52 2.87.63 4.3.33 2.29-.74 3.87-3.6 6.26-3.25a10 10 0 0 1-3.69 6.76c9.27 3.64 15.73 8.09 24 11.13" fill="#1E60F6"/><path d="M327.33 398.21a2.53 2.53 0 0 1-.07-.24c0-.19-.09-.42-.16-.71a188 188 0 0 0-.57-2.74l-2-10.07-1.38-7-.76-3.88-.4-2-.3-2.1c-.87-5.64-1.89-11.94-4.63-17.94-2.74-6-7.24-10.63-11.49-14.42a96.6 96.6 0 0 0-12.21-9c-3.65-2.34-6.69-4.09-8.78-5.32l-2.41-1.42-.62-.38-.2-.14s.08 0 .23.1l.64.34 2.45 1.34c2.11 1.19 5.18 2.91 8.86 5.21a95.52 95.52 0 0 1 12.32 9 62.08 62.08 0 0 1 6.35 6.41c2.1 2.47 3.87 5.2 5.26 8.13 2.78 6.08 3.79 12.42 4.64 18.07l.29 2.1.39 2 .74 3.88 1.32 7 1.88 10.09.49 2.75.12.72a.9.9 0 0 1 0 .22Z" fill="#263238"/><path d="M341.87 294.34c-2 3-7.67 1.53-8-2-.33-3.53 4.92-6.09 7.48-3.56.9-10.5-.18-21.06-3.16-31.16-.6 2.07-1.59 4-2.93 5.69-1.45 1.58-3.78 2.57-5.79 1.81-2.72-1-3.52-4.75-2.39-7.43 1.13-2.68 3.58-4.53 5.92-6.25a29.22 29.22 0 0 0-18.13-14.45c-3 4.88-6.07 9.87-7.43 15.44-1.36 5.57-.74 11.94 3 16.31 1.58 1.86 3.67 3.31 4.9 5.42 1.23 2.11 1.14 5.33-1 6.47-2.54 1.33-5.41-1.18-6.85-3.67-1.44-2.49-2.91-5.53-5.75-6a55.06 55.06 0 0 0 25.45 50.54l-.29-.27a79.2 79.2 0 0 0 14.97-26.89Zm-13-21.92a13.74 13.74 0 0 1 5.28-3 2 2 0 0 1 2.26.6 2.93 2.93 0 0 1 .58 2.36c-.16.83-.5 1.61-1 2.29a7.56 7.56 0 0 1-3 2.68 4.73 4.73 0 0 1-4 0 2.78 2.78 0 0 1-1.59-2.24 3.75 3.75 0 0 1 1.44-2.69h.03Z" fill="#1E60F6"/><path d="M331.07 398.21v-1.23c0-.83-.08-2-.13-3.52l-.52-12.93c-.48-10.92-1.25-26-2.48-42.64a1253.7 1253.7 0 0 0-3.84-42.53c-.58-5.44-1.11-9.83-1.48-12.86l-.4-3.5c0-.38-.07-.68-.1-.91a1 1 0 0 1 0-.31l.06.3c0 .23.08.53.13.91l.49 3.48c.42 3 1 7.42 1.62 12.85 1.28 10.86 2.77 25.9 4 42.54s1.94 31.73 2.35 42.66c.2 5.46.31 9.88.37 12.94v4.43c-.01.1-.04.22-.07.32Z" fill="#263238"/><path d="m299.05 379.82 7.98 33.85h41.84l8.84-33.85h-58.66Z" fill="#455A64"/><path d="M312.21 406.56c0 .64 3.23 20.05 3.23 20.05h25.45l2.8-20.05h-31.48Z" fill="#455A64"/><path d="M347.71 413.52c0 .12-9.13.22-20.39.22s-20.39-.1-20.39-.22 9.13-.23 20.39-.23 20.39.1 20.39.23Z" fill="#263238"/><path d="M352.06 399.87c0 .12-10.76.22-24 .22s-24-.1-24-.22 10.77-.22 24-.22 24 .1 24 .22Z" fill="#263238"/><path d="M350.18 404.58c0 .13-10.14.23-22.63.23-12.49 0-22.64-.1-22.64-.23s10.14-.22 22.64-.22 22.63.1 22.63.22Z" fill="#263238"/><path d="M350 409.3c0 .12-9.77.22-21.82.22s-21.82-.1-21.82-.22 9.77-.22 21.82-.22 21.82.1 21.82.22Z" fill="#263238"/><path d="M353.28 395.29c0 .12-11.25.22-25.13.22-13.88 0-25.12-.1-25.12-.22s11.24-.22 25.12-.22 25.13.1 25.13.22Z" fill="#263238"/><path d="M354.08 391.52c0 .12-11.46.22-25.59.22-14.13 0-25.6-.1-25.6-.22s11.46-.23 25.6-.23 25.59.1 25.59.23Z" fill="#263238"/><path d="M422 426.64c0 .15-95.38.26-213 .26s-213-.11-213-.26c0-.15 95.36-.26 213-.26s213 .12 213 .26Z" fill="#263238"/><path d="m201.3 383.8-2.71 35.94-15.63-.32-2.14-37.4 20.48 1.78Z" fill="#FFBE9D"/><path d="M199.08 415v1s17.56 7.25 17.72 10.59l-35-.5.65-11.64a19.99 19.99 0 0 0 16.63.55Z" fill="#1E60F6"/><path d="M204.59 421.57c-.13 0-.33-.73.07-1.55.4-.82 1.11-1.13 1.17-1 .06.13-.38.56-.7 1.24-.32.68-.39 1.3-.54 1.31Z" fill="#263238"/><path d="M185.93 418.27a1.45 1.45 0 0 0-1 1.62 1.4 1.4 0 0 0 1.6 1 1.52 1.52 0 0 0 1.06-1.72 1.42 1.42 0 0 0-1.77-.88" fill="#fff"/><path d="M199.19 416.15c0 .17-.86.24-1.71.78s-1.31 1.24-1.46 1.17c-.15-.07.11-1.05 1.15-1.68 1.04-.63 2.06-.42 2.02-.27Z" fill="#263238"/><path d="M202.84 417.72c0 .17-.7.45-1.29 1.16-.59.71-.77 1.48-.94 1.47-.17-.01-.27-1 .48-1.85.75-.85 1.75-.94 1.75-.78Z" fill="#263238"/><path d="m181.8 426.16.15-2.65 33.76 1.49c.54.42.92 1.02 1.07 1.69l-34.98-.53Z" fill="#263238"/><path d="M283.23 71.51s6.55-6.47 8.29-7.56c1.74-1.09 3.88-3.54 5.23-4.1 1.55-.8 3.04-1.7 4.47-2.7l2.66-3.29s2-.21 1.56 2l4.95-1s1.33 1.15-.78 2.51a5 5 0 0 1-3.6 1l-2.08 2.32.36 1.22 12 1.57a2.24 2.24 0 0 1-2.21 2c-2 0-9.24-.31-9.24-.31L316 69.38s.59 1.71-2.9 1.21a80.53 80.53 0 0 1-9.06-2.21l-1 .88 3.05 1.78 2.85 3.68a3.1 3.1 0 0 1-3.61-.81l-1.84-1.8h-2.67s-7.26 5.07-9.69 3.89l-2.06 2.07-5.84-6.56Z" fill="#FFBE9D"/><path d="M304.5 62.72c.06 0 .27.45.41 1.25.18 1.07.1 2.16-.24 3.19a5 5 0 0 1-1.92 2.57c-.67.48-1.16.63-1.19.57-.03-.06.38-.33 1-.86a5.46 5.46 0 0 0 1.65-2.44c.7-2.27.1-4.26.29-4.28Z" fill="#EB996E"/><path d="M294.28 71.28a6.45 6.45 0 0 0 3-1.17 8.18 8.18 0 0 0 2.3-2.75c.7-1.4 1.24-2.85 1.64-4.35v-.06l.06-.06a12.4 12.4 0 0 0 3.3-4.53c.36-.88.6-1.81.7-2.76.04-.4-.08-.8-.34-1.12a1.43 1.43 0 0 0-1-.37l.18-.11a22.57 22.57 0 0 1-5.88 6.11c-.67.47-1.37.89-2.1 1.25-.26.15-.53.26-.82.33 0-.07 1.09-.58 2.74-1.83a23.85 23.85 0 0 0 5.65-6.13l.07-.11h.12a1.86 1.86 0 0 1 1.43.51 2 2 0 0 1 .49 1.49c-.1 1.01-.34 2-.73 2.94a12.7 12.7 0 0 1-3.48 4.72l.09-.12c-.43 1.52-1.01 3-1.75 4.4a8 8 0 0 1-2.49 2.8 5.2 5.2 0 0 1-2.27.91c-.3.07-.61.07-.91.01Z" fill="#EB996E"/><path d="m194.54 119.46 47.75-20.23 41.21-29.82 8.34 8.86s-28.88 30.08-36.4 36.22c-7.52 6.14-48.15 32-48.15 32l-12.75-27.03Z" fill="#1E60F6"/><path d="M222 125.57a6.16 6.16 0 0 0-3.66.28c-.38.19-.77.61-.56 1 .13.23.44.29.7.34 4.74.73 9 2.15 13.73 2.89l.8-.34c-3.41-2-7.13-3.4-11.01-4.17Z" fill="#FAFAFA"/><path d="M230.57 122.68a37.74 37.74 0 0 0 3 6.78l.47-.27c.1-2.4-.04-4.8-.42-7.17a11.4 11.4 0 0 0-2.8-6.19 11 11 0 0 0-.25 6.85Z" fill="#FAFAFA"/><path d="M238.36 120c-1 2.79-1.95 5.47-3 8.26l2-2.05a28.6 28.6 0 0 0 4.4-7.74c.12-.32.18-.66.17-1a1 1 0 0 0-.56-.83 1.2 1.2 0 0 0-1.09.26c-.93.82-1.6 1.9-1.92 3.1Z" fill="#FAFAFA"/><path d="M272 86.78c1.11 0 2.2-.36 3.1-1 .29-.24.54-.7.28-1a.8.8 0 0 0-.68-.15c-4.25.38-8.23.06-12.48.44l-.62.46c3.37 1 6.89 1.42 10.4 1.25Z" fill="#FAFAFA"/><path d="M265.15 91.13a33.24 33.24 0 0 0-4-5.23l-.35.34c.43 2.1 1.07 4.13 1.9 6.1a10.07 10.07 0 0 0 3.75 4.75 9.77 9.77 0 0 0-1.3-5.96Z" fill="#FAFAFA"/><path d="m259 95.11.79-7.76-1.25 2.18c-1.1 2.42-1.83 5-2.14 7.64-.04.31-.02.63.07.93a.87.87 0 0 0 .67.6 1.06 1.06 0 0 0 .88-.46c.63-.92.97-2.01.98-3.13Z" fill="#FAFAFA"/><path d="m99.16 329.3-36.17 11.87-6-15.38 35.64-17.21 6.53 20.72Z" fill="#FFBE9D"/><path d="m67.81 339.74-1 .41s0 20.07-3.18 21.57L50 327.36l11.62-4.08a21.17 21.17 0 0 0 6.19 16.46Z" fill="#1E60F6"/><path d="M59.31 328.22a1.51 1.51 0 0 0-2-.34 1.46 1.46 0 0 0-.35 2 1.6 1.6 0 0 0 2.11.34 1.52 1.52 0 0 0 .14-2.09" fill="#fff"/><path d="m50 327.36 2.8-1 12 33.29s0 1.8-1.2 2.05L50 327.36Z" fill="#263238"/><path d="M66.74 340.31c-.17.06-.58-.75-1.45-1.36-.87-.61-1.74-.77-1.74-.95 0-.18 1.07-.32 2.11.44 1.04.76 1.25 1.84 1.08 1.87Z" fill="#263238"/><path d="M66.68 344.51c-.15.1-.72-.51-1.66-.8-.94-.29-1.75-.16-1.81-.33-.06-.17.85-.65 2-.27s1.63 1.33 1.47 1.4Z" fill="#263238"/><path d="M63.18 348.27c-.1-.14.65-.71 1.74-.64 1.09.07 1.77.7 1.65.83-.12.13-.79-.16-1.69-.21-.9-.05-1.62.18-1.7.02Z" fill="#263238"/><path d="M196.61 247s-26.52 54-33.64 58.15c-7.12 4.15-89.1 33.33-89.1 33.33L67.56 319l74.19-39.18s9.69-26.42 13.3-46.49c2.21-12.3 7.28-19.51 14.57-29.09 2.23-2.93 6-7.12 7.93-8.41l33.33 6.31L196.61 247Z" fill="#263238"/><path d="m220.05 203.82-35.79-6L177 239.9l7.27 88.37s-5 30.72-4.15 50.93c.77 19.06 1.51 26.25 1.51 26.25s15.39.07 18.89.07c1.47 0 14.62-95.65 14.62-95.65l4.91-106.05Z" fill="#263238"/><path d="M203.66 226.9c-.06.21-.15.42-.24.62l-.76 1.76-2.83 6.43-9.21 21.28a304.5 304.5 0 0 1-10 20.94 191.37 191.37 0 0 1-3.38 6.17l-1 1.65c-.1.2-.22.39-.36.56.07-.21.16-.42.27-.61l.88-1.7 3.22-6.24a421.38 421.38 0 0 0 9.84-21c3.63-8.31 6.91-15.76 9.4-21.2 1.24-2.7 2.26-4.88 3-6.37l.85-1.71c.08-.2.19-.4.32-.58Z" fill="#455A64"/><path d="M71.48 323c.06.13-.4.47-1 .77-.6.3-1.17.44-1.24.31-.07-.13.4-.48 1-.78.6-.3 1.17-.41 1.24-.3Z" fill="#455A64"/><path d="M80.43 318.69c.07.13-.89.72-2.12 1.32-.72.44-1.52.73-2.35.85-.07-.13.89-.72 2.12-1.32a6.16 6.16 0 0 1 2.35-.85Z" fill="#455A64"/><path d="M89.38 314.33c.07.13-.89.72-2.12 1.33-.72.44-1.52.73-2.35.86-.07-.13.89-.73 2.12-1.33a6.29 6.29 0 0 1 2.35-.86Z" fill="#455A64"/><path d="M98.3 310a12.25 12.25 0 0 1-4.46 2.2 11.65 11.65 0 0 1 4.46-2.2Z" fill="#455A64"/><path d="M107.2 305.52c.07.13-.88.73-2.11 1.35-.71.45-1.5.74-2.34.87-.07-.13.88-.73 2.11-1.34.71-.45 1.5-.75 2.34-.88Z" fill="#455A64"/><path d="M116.09 301.05c.07.13-.88.73-2.1 1.35-.71.45-1.5.76-2.34.89a6.29 6.29 0 0 1 2.1-1.35c.71-.45 1.5-.76 2.34-.89Z" fill="#455A64"/><path d="M125 296.5a12 12 0 0 1-4.43 2.29c.6-.6 1.3-1.07 2.09-1.38.71-.46 1.5-.77 2.34-.91Z" fill="#455A64"/><path d="M133.74 291.85c.07.13-.86.75-2.07 1.4-.7.47-1.48.79-2.31.94.59-.6 1.3-1.08 2.07-1.4.7-.47 1.48-.79 2.31-.94Z" fill="#455A64"/><path d="M142.41 287c.07.12-.83.78-2 1.47a6 6 0 0 1-2.29 1 6.38 6.38 0 0 1 2-1.47 5.9 5.9 0 0 1 2.29-1Z" fill="#455A64"/><path d="M147.82 279.56a7 7 0 0 1-.17 2.48 9.05 9.05 0 0 0-.1 1.13.5.5 0 0 1-.08.31c-.07.12-.17.23-.27.33-.36.32-.62.42-.67.37-.05-.05.14-.27.39-.62.07-.08.12-.17.16-.27v-.08a.74.74 0 0 1 0-.23 5.57 5.57 0 0 1 0-1c.06-.85.3-1.68.74-2.42Z" fill="#455A64"/><path d="M150.13 269.88a6.2 6.2 0 0 1-.35 2.48 6.13 6.13 0 0 1-.86 2.35c-.05-.84.07-1.69.35-2.48.13-.83.42-1.63.86-2.35Z" fill="#455A64"/><path d="M152.68 260.27c-.1 1.67-.54 3.3-1.29 4.8a6 6 0 0 1 .39-2.47c.14-.83.44-1.62.9-2.33Z" fill="#455A64"/><path d="M155.35 250.68c-.1 1.67-.56 3.3-1.35 4.79-.03-.84.11-1.68.42-2.46.15-.83.47-1.63.93-2.33Z" fill="#455A64"/><path d="M158.11 241.12c.02.84-.13 1.68-.45 2.46a6.23 6.23 0 0 1-.94 2.32c.12-1.67.59-3.3 1.39-4.78Z" fill="#455A64"/><path d="M161 231.59c-.15 1.67-.65 3.3-1.46 4.76-.01-.84.15-1.68.48-2.46.16-.83.5-1.6.98-2.3Z" fill="#455A64"/><path d="M164.32 222.22a9.6 9.6 0 0 1-.72 2.39c-.2.81-.58 1.58-1.09 2.24a6.4 6.4 0 0 1 .61-2.44c.19-.83.6-1.59 1.2-2.19Z" fill="#455A64"/><path d="M169.68 213.84a6.1 6.1 0 0 1-1.18 2.21c-.77 1.13-1.5 2-1.62 1.91.24-.81.65-1.56 1.19-2.21.77-1.13 1.5-1.99 1.61-1.91Z" fill="#455A64"/><path d="M175.54 205.8c.12.09-.45 1-1.27 2.15-.82 1.15-1.57 1.93-1.69 1.85.27-.8.7-1.53 1.27-2.16.82-1.1 1.58-1.93 1.69-1.84Z" fill="#455A64"/><path d="M180.09 199.85c.11.09-.14.6-.56 1.15-.42.55-.85.91-1 .83-.15-.08.14-.6.56-1.15.42-.55.91-.92 1-.83Z" fill="#455A64"/><path d="M184.32 273.83c-.14 0-.3-.53-.35-1.22-.05-.69 0-1.26.16-1.27.16-.01.3.54.35 1.23.05.69-.01 1.25-.16 1.26Z" fill="#455A64"/><path d="M185.1 284.16a6.8 6.8 0 0 1-.45-2.56 6.4 6.4 0 0 1 .07-2.6c.31.82.47 1.69.45 2.56a6.6 6.6 0 0 1-.07 2.6Z" fill="#455A64"/><path d="M185.79 294.5a6.55 6.55 0 0 1-.43-2.57 6.7 6.7 0 0 1 .1-2.6c.3.82.45 1.7.42 2.57.14.86.1 1.75-.09 2.6Z" fill="#455A64"/><path d="M186.29 304.83a6.5 6.5 0 0 1-.37-2.57 6.35 6.35 0 0 1 .15-2.6 13 13 0 0 1 .22 5.17Z" fill="#455A64"/><path d="M186.53 315.18a6.76 6.76 0 0 1-.3-2.59 6.6 6.6 0 0 1 .22-2.59 13 13 0 0 1 .08 5.18Z" fill="#455A64"/><path d="M186.46 325.53a6.9 6.9 0 0 1-.22-2.6c-.08-.87.03-1.75.3-2.58.24.84.31 1.72.22 2.59.08.88-.03 1.76-.3 2.59Z" fill="#455A64"/><path d="M186.05 335.88a6.58 6.58 0 0 1-.13-2.6c-.04-.88.09-1.75.38-2.58.22.85.26 1.73.14 2.6.04.88-.1 1.75-.39 2.58Z" fill="#455A64"/><path d="M185.32 346.21c-.21-1.73-.08-3.49.39-5.17.2.85.22 1.74.07 2.6.01.88-.14 1.75-.46 2.57Z" fill="#455A64"/><path d="M184.45 356.52a6.5 6.5 0 0 1 0-2.6c-.01-.87.15-1.74.48-2.55.17.86.17 1.74 0 2.6.01.87-.15 1.74-.48 2.55Z" fill="#455A64"/><path d="M183.63 366.85a6.75 6.75 0 0 1-.06-2.6c-.02-.88.13-1.75.45-2.57.19.86.21 1.74.07 2.61.02.88-.14 1.75-.46 2.56Z" fill="#455A64"/><path d="M183.07 377.19a6.9 6.9 0 0 1-.14-2.6c-.04-.87.09-1.75.38-2.57.22.85.26 1.73.14 2.59.05.88-.08 1.75-.38 2.58Z" fill="#455A64"/><path d="M183 387.55a6.42 6.42 0 0 1-.27-2.59 6.8 6.8 0 0 1 .24-2.6c.26.84.36 1.72.28 2.59.08.88 0 1.76-.25 2.6Z" fill="#455A64"/><path d="M183.55 397.88a6.64 6.64 0 0 1-.45-2.56 6.36 6.36 0 0 1 .07-2.6 13 13 0 0 1 .38 5.16Z" fill="#455A64"/><path d="M184.53 405.52c-.14 0-.34-.51-.44-1.2-.1-.69-.08-1.25.07-1.27.15-.02.34.52.44 1.2.1.68.07 1.25-.07 1.27Z" fill="#455A64"/><path d="M195.45 204c-.13.36-.31.7-.54 1-.55.88-1.14 1.73-1.78 2.55a23.34 23.34 0 0 1-7.81 6.64 15.43 15.43 0 0 1-10.11 1.33 11 11 0 0 1-2.93-1.1 3.65 3.65 0 0 1-.94-.64c1.26.6 2.59 1.07 3.95 1.38 3.34.59 6.77.08 9.8-1.44a24.8 24.8 0 0 0 7.75-6.4c1.67-1.98 2.54-3.32 2.61-3.32Z" fill="#455A64"/><path d="M213.31 204.64a12.2 12.2 0 0 1-.44 2.86 41.48 41.48 0 0 1-5.39 12.88 12.5 12.5 0 0 1-1.73 2.33c.41-.87.88-1.71 1.41-2.52a53.73 53.73 0 0 0 5.35-12.78c.2-.94.48-1.86.8-2.77Z" fill="#455A64"/><path d="M209 205.48c0 .08-.48.12-.81.71a1.27 1.27 0 0 0-.1 1 1.13 1.13 0 0 0 2 0 1.28 1.28 0 0 0-.11-1c-.33-.58-.83-.62-.81-.7.02-.08.12-.07.34 0 .31.08.59.27.78.53a1.6 1.6 0 0 1 .26 1.4 1.6 1.6 0 0 1-2.93 0 1.59 1.59 0 0 1 .26-1.4c.19-.27.46-.46.77-.54.26-.07.35-.03.35 0Z" fill="#455A64"/><path d="M159.48 75.2a13.72 13.72 0 0 0-18.34 6.19c-1.59 3.21-2 7.09-4.37 9.75-2.15 2.37-5.44 3.24-8.47 4.27-3.03 1.03-6.25 2.61-7.44 5.59-1 2.54-.33 5.66-1.88 7.91-1.55 2.25-4.77 2.68-7.55 2.86a3 3 0 0 0 2.74 2.28 11.18 11.18 0 0 1-6.72 1.44c.74 3.38 3.72 5.93 7 7 3.28 1.07 6.82 1.06 10.27.84 3.91-.24 8.09-.79 11-3.4 3.51-3.14 4.62-8.82 8.93-10.74 2.2-1 4.81-.72 7-1.74 3-1.4 4.5-4.9 4.83-8.21.33-3.31-.21-6.65 0-10 .21-3.35 1.53-6.85 4.42-8.49l-1.42-5.55Z" fill="#263238"/><path d="M160.24 74.22c.29-.64-.45-1.37-1.16-1.34-.7.12-1.34.5-1.77 1.07a12.14 12.14 0 0 0-3.31 6.73 8.37 8.37 0 0 0 2.35 7c.39.44.92.7 1.5.76a1.83 1.83 0 0 0 1.47-.92 5 5 0 0 0 .58-1.7 46.6 46.6 0 0 0 .86-11.73l-.52.13Z" fill="#1E60F6"/><path d="M157.2 87.61c0-7.15 1.15-14.74 5.76-20.19 4.11-4.85 11.06-8 17.34-9a22.6 22.6 0 0 1 9.83 1.16c4.09 1.32 6.5 5.2 9.06 8.66 5.12 6.92 6.8 17.37 5 20.74l-28.49 23.46c-6.27-1.78-13.26-4.52-16-10.42-1.92-4.02-2.48-10.02-2.5-14.41Z" fill="#263238"/><path d="m166.76 73.62 18.9-10.09c6.28-2.28 12.54 4.61 14.55 11 2.24 7.08 4.69 15.82 5.17 21.41 1 11.22-7 14.64-7 14.64l3.86 12.68 4.43 14.1-28.69-17-13.69-42.05a3.92 3.92 0 0 1 2.47-4.69Z" fill="#FFBE9D"/><path d="M199.91 81.85a1.42 1.42 0 0 1-1 1.73 1.35 1.35 0 0 1-1.73-.9 1.43 1.43 0 0 1 1-1.73 1.36 1.36 0 0 1 1.73.9Z" fill="#263238"/><path d="M199.2 78.34c-.1.24-1.39-.13-2.83.41-1.44.54-2.23 1.65-2.45 1.53-.22-.12 0-.43.28-.94a4 4 0 0 1 1.88-1.44 3.74 3.74 0 0 1 2.34-.1c.58.2.83.44.78.54Z" fill="#263238"/><path d="M186.31 85.82a1.43 1.43 0 0 1-1 1.73 1.37 1.37 0 0 1-1.74-.9 1.43 1.43 0 0 1 1-1.73 1.38 1.38 0 0 1 1.74.9Z" fill="#263238"/><path d="M184.93 82.72c-.12.22-1.37-.29-2.85.08s-2.4 1.39-2.61 1.24c-.21-.15 0-.43.39-.89a3.87 3.87 0 0 1 4.33-1.06c.57.24.81.53.74.63Z" fill="#263238"/><path d="M193 93.19c.73-.43 1.5-.76 2.31-1 .38-.14.72-.3.72-.58-.06-.4-.25-.77-.54-1.06l-1.84-2.62c-2.58-3.74-4.55-6.86-4.4-7 .15-.14 2.37 2.85 4.95 6.59l1.8 2.64c.35.4.55.92.57 1.45a1 1 0 0 1-.49.71c-.2.1-.4.2-.62.25a10 10 0 0 1-2.46.62Z" fill="#263238"/><path d="M198.4 110.57a28.32 28.32 0 0 1-15.4-.27s5.66 6.59 16.22 2.9l-.82-2.63Z" fill="#EB996E"/><path d="M188.77 97.19a2.45 2.45 0 0 1 1.72-1.58 3.22 3.22 0 0 1 3.18.71 2 2 0 0 1 .48 1.36c-.05.27 0 .13-.14.34a5.55 5.55 0 0 1-1.89 1.93 2.4 2.4 0 0 1-2.69-.3 2.43 2.43 0 0 1-.66-2.46Z" fill="#EB996E"/><path d="M188.87 95.31c.24-.08.64 1.54 2.31 2.35s3.35.2 3.42.42c.07.22-.31.41-1 .61-.94.25-1.95.16-2.83-.26a3.63 3.63 0 0 1-1.83-2c-.26-.66-.18-1.1-.07-1.12Z" fill="#263238"/><path d="M184.48 79c0 .45-1.58.62-3.28 1.27-1.7.65-3 1.47-3.31 1.16-.15-.15 0-.59.48-1.12a5.94 5.94 0 0 1 5.02-1.85c.7.13 1.11.37 1.09.54Z" fill="#263238"/><path d="M197.62 74.56c-.18.4-1.29.3-2.53.59-1.24.29-2.22.79-2.55.5-.15-.15-.07-.53.31-1a3.57 3.57 0 0 1 1.91-1.06c.73-.17 1.5-.1 2.18.18.53.28.76.59.68.79Z" fill="#263238"/><path d="M170.39 90.78c-.17 0-6.49-.49-5 5.54 1.49 6.03 7.24 3.27 7.21 3.1-.03-.17-2.21-8.64-2.21-8.64Z" fill="#FFBE9D"/><path d="M170.21 97.59s-.09.1-.25.23c-.22.17-.5.24-.78.21-.69-.07-1.48-.95-1.78-2a3.57 3.57 0 0 1-.08-1.58 1.24 1.24 0 0 1 .59-1 .56.56 0 0 1 .69.13c.12.15.11.28.15.28.04 0 .1-.13 0-.37a.7.7 0 0 0-.64-.37c-.1 0-.21.02-.31.06a1.5 1.5 0 0 0-.86 1.21 3.68 3.68 0 0 0 0 1.77 2.83 2.83 0 0 0 2.18 2.22 1.19 1.19 0 0 0 .92-.4c.19-.24.19-.38.17-.39Z" fill="#EB996E"/><path d="M168.69 100.08s-.2.32 0 .85a1.17 1.17 0 0 0 .63.75 1.3 1.3 0 0 0 1.18-.2 1.25 1.25 0 0 0 .6-1 1.3 1.3 0 0 0-.39-.89c-.41-.39-.8-.34-.79-.31.01.03.32.09.63.46.17.21.26.47.26.74a1 1 0 0 1-.49.77 1.07 1.07 0 0 1-.9.19 1 1 0 0 1-.52-.56c-.1-.26-.17-.53-.21-.8Z" fill="#FAFAFA"/><path d="M200.76 74.63a9.76 9.76 0 0 0-5-3c-1.9-.55-3.89-.81-5.79-1.38a18.62 18.62 0 0 1-10.55-8.2 11.2 11.2 0 0 1 9.7-2.19c3.36.85 6.33 2.83 8.41 5.61a23.76 23.76 0 0 1 4.2 9.34" fill="#263238"/><path d="M165.05 71.82c3.44-5.31 11.31-9.68 17.61-9.09.36 5.29-2.1 11.92-4.54 16.63-2.44 4.71-2.85 12.1-10.8 11.54-.55 0-1 .57-1.55.41a2 2 0 0 1-1-.95 17.82 17.82 0 0 1 .28-18.54Z" fill="#263238"/><path d="M182.54 63.13c.03.46 0 .93-.08 1.39-.1.89-.24 2.17-.46 3.76a68.03 68.03 0 0 1-2.69 12.23 36.95 36.95 0 0 1-2.79 6.33 9.58 9.58 0 0 1-3.73 4.24 4 4 0 0 1-3.78 0c-.3-.17-.58-.4-.79-.69-.14-.2-.19-.32-.17-.33a3.55 3.55 0 0 0 4.57.72 9.52 9.52 0 0 0 3.48-4.15c1.09-2 2-4.1 2.72-6.27a80.55 80.55 0 0 0 2.82-12.12l.62-3.73c.05-.47.15-.93.28-1.38Z" fill="#263238"/><path d="M116.56 106.3c-.08-.2-.12-.4-.14-.62-.06-.6-.03-1.22.1-1.81a6.81 6.81 0 0 1 4.26-4.91 8.15 8.15 0 0 1 4.62 0 8.3 8.3 0 0 0 5 0 8.2 8.2 0 0 0 4-3.83 17.36 17.36 0 0 0 1.77-5.85c.26-2.07.66-4.13 1.2-6.15a14.6 14.6 0 0 1 9.62-9.73 14.43 14.43 0 0 1 9.92.52c.2.08.38.18.56.3 0 .05-.8-.35-2.32-.72a14.63 14.63 0 0 0-6.5-.14c-3.2.65-6.07 2.4-8.13 4.92a14.29 14.29 0 0 0-2.67 5c-.52 2-.9 4.04-1.16 6.09-.25 2.1-.88 4.13-1.84 6a8.65 8.65 0 0 1-4.25 4 6.3 6.3 0 0 1-2.76.39c-.86-.08-1.7-.23-2.54-.43a7.73 7.73 0 0 0-4.41-.08 6.39 6.39 0 0 0-2.94 2.12c-.58.73-1 1.58-1.24 2.48-.2.8-.24 1.63-.15 2.45Z" fill="#263238"/><path d="M158.77 72.82c.11-.33.27-.64.46-.92.5-.8 1.1-1.54 1.79-2.19a16.85 16.85 0 0 1 8.26-4.16c3.06-.56 6.18-.67 9.27-.35 1.18.11 2.13.22 2.79.32.34.02.68.09 1 .2-1.28.02-2.56-.03-3.83-.15a37.19 37.19 0 0 0-9.14.49c-3 .58-5.8 1.93-8.11 3.92-.9.87-1.74 1.82-2.49 2.84Z" fill="#455A64"/><path d="M167.08 63.45a8.3 8.3 0 0 1 2.36-.86c1.96-.51 3.97-.77 6-.79 1.12-.02 2.24.07 3.34.25.94.15 1.8.6 2.46 1.3.44.48.7 1.1.71 1.74 0 .45-.14.68-.16.67-.02-.01 0-.25 0-.66-.1-.57-.37-1.1-.78-1.5a4 4 0 0 0-2.28-1.08 19.54 19.54 0 0 0-3.25-.19c-1.99.01-3.97.22-5.91.62-.82.21-1.65.38-2.49.5Z" fill="#455A64"/><path d="M156.29 97a5 5 0 0 1-.45-1.63 8.19 8.19 0 0 1 .86-4.52 13.27 13.27 0 0 1 4.5-5.12 77.17 77.17 0 0 1 7.25-4.12 29.93 29.93 0 0 0 12.97-14.15c.2-.52.44-1.03.71-1.52-.02.14-.06.29-.11.42-.09.27-.2.68-.41 1.18a26.6 26.6 0 0 1-2 4.13 29.19 29.19 0 0 1-10.88 10.41 81.25 81.25 0 0 0-7.22 4 13.24 13.24 0 0 0-4.45 4.89 8.41 8.41 0 0 0-1 4.34c.06 1.14.29 1.69.23 1.69Z" fill="#455A64"/><path d="M180 137.35c-.08 0-.07-1-.35-2.64a18.3 18.3 0 0 0-2.14-6 10.1 10.1 0 0 0-4.36-4.44 6.28 6.28 0 0 0-2.56-.41c.22-.12.46-.19.71-.19.68-.07 1.36.03 2 .28a9.67 9.67 0 0 1 4.66 4.51c1.09 1.9 1.8 4 2.06 6.17.16.9.15 1.82-.02 2.72Z" fill="#263238"/><path d="m183.48 119.9 23.67 18.1-6.79-21 5.74 2.94s10.24 18.94 13.5 28.47c1.27 3.7 2.21 7.5 2.82 11.37.76 6.85-3.06 14.51-3.06 14.51l3.27 24.71c.46 2.66-1.27 5.23-2.44 5.23l-37.07-5c-4.83-.95-6.81-3.48-6.52-6.28l.56-5.18-15.84-53c-.93 3.14-1.9-7.62 5.17-10.21 2.99-1.13 12.44-5.56 16.99-4.66Z" fill="#1E60F6"/><path d="M210 130.21s.12.12.3.38l.77 1.13c.66 1 1.6 2.42 2.71 4.23 3 4.66 5.43 9.68 7.2 14.93a33 33 0 0 1 1.11 16.47 22.13 22.13 0 0 1-1.55 4.8c-.23.55-.48.94-.62 1.22-.07.14-.15.28-.25.4l.69-1.7a25.43 25.43 0 0 0 1.39-4.79 34.1 34.1 0 0 0-1.24-16.28 73.1 73.1 0 0 0-7-14.9l-2.57-4.31-.7-1.18c-.1-.12-.18-.26-.24-.4Z" fill="#263238"/><path d="M213.75 195.38a6.39 6.39 0 0 0-1 3.58c.05.43.32 1 .75.89.27 0 .44-.31.57-.55 2.37-4.26 4.61-7.89 7-12.15l-.11-.84a33.38 33.38 0 0 0-7.21 9.07Z" fill="#FAFAFA"/><path d="M213.13 185.23c2.54.15 5.08.04 7.6-.32l-.06-.43a39.7 39.7 0 0 0-7.1-2.36c-2.3-.54-4.7-.36-6.88.5a11.18 11.18 0 0 0 6.44 2.61Z" fill="#FAFAFA"/><path d="m213.32 176.86 7.13 6-1.57-2.86a29.2 29.2 0 0 0-5.84-6.91 2.47 2.47 0 0 0-.93-.53 1 1 0 0 0-1 .24 1.23 1.23 0 0 0-.13 1.14 6.46 6.46 0 0 0 2.34 2.92Z" fill="#FAFAFA"/><path d="M192.43 169.44c2 1.31 4 1.73 6.15 2.59h.42c-1.4-1.87-3-3.59-4.75-5.13a11.56 11.56 0 0 0-6.32-2.78 11.06 11.06 0 0 0 4.5 5.32Z" fill="#FAFAFA"/><path d="m197.68 163.46 3.36 8.25.09-2.88c-.19-3.03-.84-6-1.93-8.83a2.8 2.8 0 0 0-.57-.9 1 1 0 0 0-1-.24 1.2 1.2 0 0 0-.64.93c-.14 1.27.1 2.54.69 3.67Z" fill="#FAFAFA"/><path d="M211.7 160.73c-.03.28-.1.55-.2.8a12.45 12.45 0 0 1-.86 2.04 17.05 17.05 0 0 1-11.36 8.64 11.82 11.82 0 0 1-3.01.3c0-.1 1.15-.15 2.93-.62a18.1 18.1 0 0 0 3-1.11 20.73 20.73 0 0 0 3.37-2 18.65 18.65 0 0 0 4.73-5.35c.95-1.63 1.31-2.73 1.4-2.7Z" fill="#263238"/><path opacity=".3" d="M194 172.88a9.9 9.9 0 0 0 11.17.18c3.56-2.23 5.29-6.08 5.75-10a20.19 20.19 0 0 1-16.92 9.82Z" fill="#000"/><path opacity=".3" d="m172.06 149.24-4.5 6.4c.94 3.55 2.18 6.89 3.12 10.43a30.24 30.24 0 0 0 1.38-16.83Z" fill="#000"/><path d="m106.93 224.44-6.47 10.28L86.13 239a3.58 3.58 0 0 1 .82-2.68c1-.92-3 .38-3 .38l-3 6.24s-2-.14-1.89-1.89c.11-1.75 2.38-7.25 2.38-7.25l1.07-.18a3.19 3.19 0 0 1 .41-2.88c.1-1.72.67-3.38 1.62-4.82.8-1.3 1.8-2.47 2.94-3.48l12.52-5.16 6.93 7.16Z" fill="#FFBE9D"/><path d="M96.9 232.4c-1.44.98-3 1.75-4.66 2.3-1.6.69-3.28 1.15-5 1.37 0-.13 2.19-.79 4.85-1.8 2.66-1.01 4.75-1.99 4.81-1.87Z" fill="#EB996E"/><path d="M89 231.12a17.73 17.73 0 0 1-3.67 1.63c-1.22.54-2.5.95-3.82 1.2a17.2 17.2 0 0 1 3.66-1.63c1.23-.54 2.51-.95 3.83-1.2Z" fill="#EB996E"/><path d="M88.76 228c-.95.51-1.93.97-2.94 1.36-.94.54-1.9 1.02-2.9 1.45a10.46 10.46 0 0 1 5.84-2.81Z" fill="#EB996E"/><path d="M88.82 224.86c-.73.46-1.51.84-2.33 1.12-.76.42-1.56.76-2.39 1a5.6 5.6 0 0 1 2.2-1.41 5.54 5.54 0 0 1 2.52-.71Z" fill="#EB996E"/><path d="M173.83 125.51a8.12 8.12 0 0 1 1.76 1.92 17.75 17.75 0 0 1 3.24 11.96 8 8 0 0 1-.55 2.55c-.09 0 .11-1 .18-2.58a19.9 19.9 0 0 0-3.17-11.72c-.87-1.33-1.53-2.07-1.46-2.13Z" fill="#263238"/><path d="M169.46 124.2c3.3 0 6.34 3.05 6.62 6.34.34 3.9.38 9.68-1.55 14.21-3.23 7.56-36 46.43-36 46.43l-31.59 33.26-8.14-8.15s16.79-27.44 19.07-30.75c4.74-6.91 16.67-19.08 21.4-27.16 4.73-8.08 15.3-22.9 18.49-26.13 3.19-3.23 5.87-8.04 11.7-8.05Z" fill="#1E60F6"/><path d="M149.92 162.07c-1.3.07-2.54.54-3.57 1.33-.32.3-.59.84-.27 1.15a.9.9 0 0 0 .79.14c4.95-.64 9.53-1 14.48-1.65l.38-.58a34.21 34.21 0 0 0-11.81-.39Z" fill="#FAFAFA"/><path d="M157.91 155.39a35.82 35.82 0 0 0 4.65 5.78l.27-.46a34.6 34.6 0 0 0-2.1-6.85 11.7 11.7 0 0 0-4.59-5.36c-.16 2.43.46 4.84 1.77 6.89Z" fill="#FAFAFA"/><path d="m164.92 150.08-.57 9.09 1.35-2.6a29.8 29.8 0 0 0 2.15-9c.04-.37 0-.74-.12-1.09a1 1 0 0 0-.81-.66 1.24 1.24 0 0 0-1 .58 6.58 6.58 0 0 0-1 3.68Z" fill="#FAFAFA"/><path d="M172 148.6c-.06.15-.13.3-.23.43l-.74 1.16c-.66 1-1.65 2.43-2.9 4.16a421.9 421.9 0 0 1-10.18 13.29 674.4 674.4 0 0 1-10.6 13 282.66 282.66 0 0 1-3.31 3.84l-.93 1c-.22.23-.34.35-.35.33-.01-.02.08-.14.27-.4l.86-1.08 3.18-3.94 10.48-13c4.06-5.11 7.7-9.77 10.29-13.18 1.24-1.67 2.26-3 3-4.06a58.32 58.32 0 0 1 1.16-1.55Z" fill="#263238"/><path d="M120.07 182.56c3.8 1.14 7.77 1.6 11.73 1.38a6.4 6.4 0 0 0 3.67-1c.35-.27.66-.78.37-1.12a.93.93 0 0 0-.78-.2c-5 .21-9.58.21-14.56.42" fill="#FAFAFA"/><path d="M123.28 189.92a35.76 35.76 0 0 0-4.14-6.15l-.32.44c.27 2.38.78 4.72 1.52 7 .75 2.3 2.19 4.3 4.12 5.74.37-2.4-.05-4.87-1.18-7.03Z" fill="#FAFAFA"/><path d="M115.87 195.53c.46-3.05.88-6 1.34-9l-1.57 2.47a30.15 30.15 0 0 0-2.91 8.8c-.08.36-.08.73 0 1.09a1 1 0 0 0 .74.73 1.24 1.24 0 0 0 1.06-.49 6.54 6.54 0 0 0 1.34-3.6Z" fill="#FAFAFA"/><path d="m357.5 15.82 4.63 5.98 1.6 9.84 3.5-2.46 3.5 5.21 31.02-29.38-44.25 10.81Z" fill="#1E60F6"/><path opacity=".3" d="m367.18 29.24-1.58 1.08-1.12-5.51 2.7 4.43Z" fill="#000"/><path opacity=".3" d="m362.13 21.8 39.62-16.79-37.03 19.24-.99 7.39-1.6-9.84Z" fill="#000"/><path d="M401.75 5c-.14.12-.3.22-.46.3l-1.36.77-5.07 2.74L378 17.68l-13.49 7 .09-.29c1.7 3.09 3.24 5.57 4.34 7.28l1.29 2c.17.22.3.46.42.72a50.18 50.18 0 0 1-1.91-2.57 94.1 94.1 0 0 1-4.52-7.21l-.11-.19.2-.11 13.45-7.07 16.88-8.73 5.15-2.59 1.41-.69c.17-.1.36-.18.55-.23Z" fill="#263238"/><path d="M401.75 5c.06.13-8.82 4-19.83 8.73-11.01 4.73-20 8.38-20 8.25 0-.13 8.82-4 19.83-8.73 11.01-4.73 19.95-8.37 20-8.25Z" fill="#263238"/><path d="M363.73 31.64c-.14-1.2-.1-2.42.1-3.61.04-1.2.25-2.4.62-3.55.14 1.2.1 2.41-.1 3.6a12.5 12.5 0 0 1-.62 3.56Z" fill="#263238"/><path d="M325.7 56c0 .14-.51.33-1.21.43-.7.1-1.26 0-1.27-.09-.01-.09.53-.34 1.2-.43.67-.09 1.25-.07 1.28.09Z" fill="#263238"/><path d="M334.61 52c.08.11-.74.88-1.92 1.58-.68.5-1.48.81-2.32.91-.06-.14.9-.68 2.05-1.36.66-.5 1.4-.87 2.19-1.13Z" fill="#263238"/><path d="M341.06 44.66a4.9 4.9 0 0 1-1.1 2.23c-.79 1.13-1.63 1.87-1.74 1.78.33-.76.78-1.46 1.32-2.08.77-1.09 1.39-2 1.52-1.93Z" fill="#263238"/><path d="M343.41 35.24c.32.79.4 1.65.22 2.48 0 .85-.26 1.68-.72 2.39-.04-.82.02-1.64.2-2.44 0-.82.1-1.63.3-2.43Z" fill="#263238"/><path d="M337.46 28.48a3.37 3.37 0 0 1 2.47.45c1.3.65 1.88 1.72 1.78 1.77-.1.05-.85-.73-2-1.31-1.15-.58-2.27-.75-2.25-.91Z" fill="#263238"/><path d="M329.66 33.25c.04-.86.4-1.68 1-2.3a3.37 3.37 0 0 1 2.06-1.43c.08.13-.83.74-1.65 1.76s-1.27 2.02-1.41 1.97Z" fill="#263238"/><path d="M331.27 42.51a3.9 3.9 0 0 1-1.54-2c-.43-.74-.6-1.6-.48-2.45.4.72.73 1.47 1 2.24.5 1.23 1.15 2.1 1.02 2.21Z" fill="#263238"/><path d="M339.83 46.83c-.83.18-1.69.12-2.48-.19a4.26 4.26 0 0 1-2.23-1.12c.81.12 1.6.32 2.37.62.8.13 1.6.37 2.34.69Z" fill="#263238"/><path d="M349.34 44.83c-.61.57-1.36.97-2.17 1.17-.76.37-1.6.52-2.45.44.7-.41 1.47-.73 2.27-.93a8.38 8.38 0 0 1 2.35-.68Z" fill="#263238"/><path d="M357.32 39.14c.1.1-.68.89-1.74 1.75a6 6 0 0 1-2.06 1.36c-.09-.12.69-.91 1.74-1.76a6.07 6.07 0 0 1 2.06-1.35Z" fill="#263238"/><path d="M362.2 33.58c.13.06 0 .63-.45 1.21s-.86.93-1 .84c-.14-.09.16-.59.55-1.14.39-.55.77-.97.9-.91Z" fill="#263238"/></g><defs><clipPath id="a"><path fill="#fff" d="M0 0h422v427H0z"/></clipPath></defs></svg>