<svg fill="none" xmlns="http://www.w3.org/2000/svg" viewBox="0 0 676 440"><g clip-path="url(#a)"><path d="M394.83 192.86V189.43c0-2.22 0-5.42-.08-9.44l.15.15-48.65.09.25-.24v12.85l-.24-.25 34.67.11 10.23.07h3.75-3.63L381 193l-34.84.11h-.24V180l.25-.25 48.65.09h.18v.16c0 4.06-.06 7.29-.08 9.53v3.13a.86.86 0 0 1-.09.2Z" fill="#E0E0E0"/><path d="M488.41 58.24v-3.43c0-2.22-.05-5.41-.08-9.44l.15.15-48.65.1.24-.25v12.87l-.25-.24 34.67.11 10.24.07h3.75-3.64l-10.18.07-34.84.11h-.24V45.39l.25-.25 48.65.1h.15v.15c0 4.07-.07 7.29-.09 9.53v3.14l-.13.18Z" fill="#E0E0E0"/><path d="M668.83 251v-3.42c0-2.22 0-5.42-.08-9.45l.15.15-48.65.1.25-.25V251l-.24-.24 34.67.11 10.23.07h3.75-3.63l-10.18.07-34.84.11h-.25v-12.94l.25-.24 48.65.09h.09v.15c0 4.07-.06 7.29-.08 9.54v3.13l-.09.15Z" fill="#E0E0E0"/><path d="M675.43 238.17a.7.7 0 0 1 0-.24V234.67c0-2.26-.05-5.45-.09-9.37l.18.18-29.23.07c-.23.22.3-.3.24-.25v12.86l-.24-.23 20.92.11 6.09.07h2.23-2.13l-6 .07-21.07.11H646V225.19c-.06.06.47-.47.25-.24l29.23.06h.18v.17c0 4-.07 7.19-.09 9.47v2.55c-.03.33-.08.65-.14.97Z" fill="#E0E0E0"/><path d="m215.55 395.62-11 4.73.74-65.25c.34-7.81-3.25-11.14-5.2-13.36-17.71-20.14-44.12-5.53-44.35 14.88l-.66 58.31-10.71-.12 1.06-61c.08-6.87 5.42-18.79 10.81-23.06 29.8-23.61 60.29.78 60 26.58l-.69 58.29Z" fill="#F5F5F5"/><path d="M215.55 395.62v-4.55c0-3 .06-7.35.1-13l.18-20.49.12-12.77c0-4.52.41-9.33-.52-14.27a34.63 34.63 0 0 0-6.13-14.31c-.41-.55-.8-1.11-1.23-1.65-.43-.54-.92-1-1.38-1.55a34.95 34.95 0 0 0-3-2.95c-.51-.49-1.11-.88-1.67-1.33-.56-.45-1.11-.91-1.74-1.27a36.18 36.18 0 0 0-12.2-5.18l-2.26-.37-1.13-.19-1.15-.07-2.32-.15c-.78 0-1.56.05-2.34.08a35.07 35.07 0 0 0-18.08 6 35.45 35.45 0 0 0-12.73 15.44 37.39 37.39 0 0 0-2.62 10.11c-.3 3.5-.22 7.11-.29 10.72l-.5 44.8c0 2.05-.02 4.09-.07 6.12l-.25-.26 10.71.12-.25.25a31811.27 31811.27 0 0 1 .58-50.29c0-2.67.03-5.32.09-7.95s.5-5.24 1.3-7.74a25.2 25.2 0 0 1 10.39-13.26l1.6-1a25.12 25.12 0 0 1 3.37-1.48c1.15-.42 2.32-.75 3.51-1 .59-.13 1.19-.18 1.78-.28l.89-.12h.9c2.35-.13 4.7.07 7 .59a26.7 26.7 0 0 1 6.42 2.45 25.5 25.5 0 0 1 12 14.81 26.2 26.2 0 0 1 1.05 7.49c.05.49 0 1 0 1.47v2.9c0 1.91 0 3.79-.07 5.63l-.26 20.22-.39 28.07-.07-.07 8.08.13h2.65H213l-8.12-.05h-.07v-.07c0-6.34.14-15.88.25-28.07l.2-20.23c0-1.84 0-3.72.06-5.63V337.06l-.06-1.47a23.55 23.55 0 0 0-3.53-11.57 24.9 24.9 0 0 0-9.27-8.91c-2-1.07-4.11-1.87-6.31-2.4-2.27-.5-4.6-.7-6.91-.56h-.88l-.87.13c-.59.09-1.18.14-1.76.27a26.6 26.6 0 0 0-6.75 2.43l-1.57.94c-.52.3-1.02.64-1.5 1a24.7 24.7 0 0 0-8.69 12 26.52 26.52 0 0 0-1.26 7.6 41267.93 41267.93 0 0 0-.27 24.24l-.38 34v.25h-.25l-10.72-.12h-.25v-.25c0-2 .02-4.04.07-6.12l.52-44.8c.07-3.62 0-7.19.29-10.77a38 38 0 0 1 2.67-10.24c1.4-3.13 3.2-6.06 5.36-8.71a38.29 38.29 0 0 1 7.51-6.79 35.48 35.48 0 0 1 18.32-6.08c.79 0 1.58-.09 2.37-.07l2.69.16 1.48.17 2.24.37 1 .22c2.78.65 5.46 1.64 8 2.94 1.32.65 2.6 1.39 3.83 2.21.63.37 1.17.87 1.75 1.29.58.42 1.17.85 1.7 1.34 1.06.94 2.06 1.94 3 3l1.4 1.57c.43.55.82 1.12 1.23 1.68a34.9 34.9 0 0 1 6.17 14.47c.93 5 .46 9.84.49 14.36.03 4.52-.12 8.82-.17 12.82l-.29 20.51-.19 12.94c0 1.46 0 2.59-.06 3.35-.06.76.08 1.16.08 1.16Z" fill="#E0E0E0"/><path d="m132.14 356.72 97 1.1a3.74 3.74 0 0 1 3.69 3.78l-.85 74.97a3.4 3.4 0 0 1-3.44 3.36l-97.3-1.1.94-82.1h-.04Z" fill="#E0E0E0"/><path d="m132.14 356.51 85.3.85a4.06 4.06 0 0 1 4.02 4.1l-.73 73a5 5 0 0 1-5.05 4.96l-84.22-.85a4.2 4.2 0 0 1-4.16-4.24l.74-73.8a4.06 4.06 0 0 1 4.1-4.02Z" fill="#EBEBEB"/><path d="M186.85 391.15a11.45 11.45 0 0 0-11.68-11.58 11.58 11.58 0 0 0-11.23 11.23 11.41 11.41 0 0 0 8.2 11.16l-7.65 15.72 19.75.59L178.4 402a11.42 11.42 0 0 0 8.45-10.85Z" fill="#E0E0E0"/><path d="M220.18 432.09c-.14 0 0-14.29.25-31.91s.61-31.92.75-31.92 0 14.29-.25 31.92c-.25 17.63-.61 31.92-.75 31.91Z" fill="#FAFAFA"/><path d="M199.34 360c0 .14-12.57.28-28.08.31-15.51.03-28.09-.06-28.09-.2s12.57-.27 28.09-.3c15.52-.03 28.08.03 28.08.19Z" fill="#fff"/><path d="M163.5 397.06c-.2-.21-.35-.45-.47-.72a12.84 12.84 0 0 1 5.84-17.23c.25-.14.52-.23.8-.28 0 .08-1.09.55-2.59 1.77a13.18 13.18 0 0 0-4.57 13.47c.49 1.93 1.07 2.93.99 2.99Z" fill="#fff"/><path d="M168 402.54c-.07.12-.74-.17-1.5-.64s-1.31-.95-1.24-1.07c.07-.12.75.17 1.51.64s1.23.95 1.23 1.07Z" fill="#fff"/><path d="M177.52 304.17c-.64.12-1.28.2-1.93.25-1.75.23-3.47.6-5.16 1.11a30.76 30.76 0 0 0-21.81 24.74 30.7 30.7 0 0 0-.45 5.26v1.94a1.54 1.54 0 0 1-.08-.5c0-.33-.1-.81-.11-1.44a30.34 30.34 0 0 1 22.36-30.32c1.71-.5 3.47-.84 5.24-1 .62-.07 1.11-.06 1.44-.07.17 0 .33 0 .5.03Z" fill="#fff"/><path d="M147.64 346.32c-.23-.98-.29-2-.18-3a8.9 8.9 0 0 1 .31-3c.3 2 .26 4.02-.13 6Z" fill="#fff"/><path d="M209.27 67.77h-48.65v12.87h48.65V67.77Z" fill="#F5F5F5"/><path d="M188.7 94.2v-3.43c0-2.22 0-5.41-.08-9.44l.15.15-48.65.1.25-.25v12.85l-.24-.24 34.67.11 10.23.07h3.75-3.63l-10.18.07-34.84.11h-.24V81.21l.25-.25 48.65.1h.15v.15c0 4.06-.06 7.29-.08 9.53v3.13c0 .16-.15.33-.16.33Z" fill="#E0E0E0"/><path d="M661.66 34.17h-48.65v12.87h48.65V34.17Z" fill="#F5F5F5"/><path d="M641.09 60.6v-3.43c0-2.22 0-5.41-.08-9.44l.15.15-48.65.1.25-.25V60.6l-.24-.24 34.67.11 10.23.07h3.75-3.63l-10.18.07-34.84.11h-.25V47.75l.25-.25 48.65.1h.15v.15c0 4.06-.06 7.29-.08 9.53v3.14c0 .17-.14.18-.15.18Z" fill="#E0E0E0"/><path d="M384.21 290.03h-48.65v12.87h48.65v-12.87Z" fill="#F5F5F5"/><path d="M363.64 316.46V313.03c0-2.22-.05-5.41-.08-9.44l.15.15-48.65.1c.11-.11-.25.24.24-.25v12.85l-.24-.24 34.67.11 10.23.07h3.75-3.63l-10.18.07-34.9.25h-.25v-13.09l.25-.25 48.65.1h.15v.15c0 4.06-.06 7.29-.08 9.53v3.13l-.08.19Z" fill="#E0E0E0"/><path d="M65.26 47.61a1 1 0 0 1 0-.23v-3.2c0-2.22 0-5.41-.08-9.44l.15.15-48.72.11.24-.25v12.86l-.24-.24 34.67.11 10.23.07h3.75-3.64l-10.17.07-34.84.11h-.25V34.76l.25-.25 48.65.1h.15v.15c0 4.07-.06 7.29-.08 9.53v3.14l-.07.18Z" fill="#E0E0E0"/><path d="M550.41 418.73v-3.43c0-2.22 0-5.41-.08-9.44l.15.15-48.65.1.25-.25v12.85l-.24-.24 34.67.11 10.23.07h3.75-3.63l-10.18.07-34.84.11h-.24v-13.09l.25-.25 48.65.1h.15v.15c0 4.06-.06 7.29-.08 9.53v3.14c0 .17-.15.33-.16.32Z" fill="#E0E0E0"/><path d="M355.36 29.13V25.7c0-2.22 0-5.42-.08-9.44l.15.15-48.65.09.25-.24V29.13l-.24-.24 34.67.11 10.23.06h3.75-3.63l-10.18.07-34.84.11h-.24V16.28l.25-.25 48.65.1h.15v.15c0 4.06-.06 7.29-.08 9.53v3.13a.87.87 0 0 1-.16.19Z" fill="#E0E0E0"/><path d="M362 16.26V12.75c0-2.26-.06-5.44-.1-9.36l.18.17-29.23.07.24-.24V16.24l-.23-.24 20.91.11 6.09.07h2.23-2.13l-6 .06-21.07.11h-.24V3.41c-.06 0 .47-.47.25-.25l29.23.07h.18v.18c0 4-.08 7.18-.1 9.47v2.54c0 .63-.21.85-.21.84Z" fill="#E0E0E0"/><path d="M48.36 336v-3.42c0-2.22 0-5.42-.08-9.45l.15.15-48.65.1.25-.25v12.86l-.24-.24 34.67.11 10.23.07h3.75-3.63l-10.18.07-34.84.11h-.24v-12.97l.25-.24 48.65.09h.15v.15c0 4.07-.06 7.29-.08 9.54v3.13l-.16.19Z" fill="#E0E0E0"/><path d="M55 323.15v-3.5c0-2.26-.06-5.45-.1-9.37l.18.18-29.23.07.24-.25v12.86l-.23-.23 20.91.11 6.09.07h2.23-2.13l-6 .07-21.07.11h-.24V310.17l.25-.25 29.1.18h.18v.18c0 4-.08 7.19-.1 9.47v2.55c0 .63-.08.87-.08.85Z" fill="#E0E0E0"/><path d="M201.56 230.19v-3.42c0-2.23-.05-5.42-.08-9.45l.15.15-48.65.1.24-.25v12.85l-.24-.24 34.67.11 10.23.07h3.75-3.64l-10.17.06-34.84.11h-.25v-13.1l.25-.25 48.65.1h.15v.15c0 4.07-.06 7.29-.08 9.54V229.85c-.03.12-.08.23-.14.34Z" fill="#E0E0E0"/><path d="M208.16 217.32a.7.7 0 0 1 0-.24v-.69l-.05-2.58c0-2.25 0-5.44-.09-9.36l.18.18-29.24.07.25-.25v12.86l-.24-.23 20.91.11 6.1.06h2.23-2.13l-6 .07-21.07.11h-.23V204.33c0 .05.48-.47.25-.25l29.24.07h.18v.18c0 4-.07 7.19-.09 9.47 0 1.07 0 1.92-.05 2.54-.05.62-.14.99-.15.98Z" fill="#E0E0E0"/><path d="M655.36 439.89c0 .14-142.55.26-318.34.26-175.79 0-318.38-.15-318.38-.26 0-.11 142.52-.26 318.38-.26 175.86 0 318.34.12 318.34.26Z" fill="#263238"/><path d="M644.38 97.9H417.37v291.34h227.01V97.9Z" fill="#fff"/><path d="m644.38 389.23-.24-291.33.24.23h-227l.26-.26V389.2l-.22-.21 227 .21-227 .22h-.21v-.22c0-82.92 0-183.26-.05-291.33v-.26H644.68v.24c-.21 172.96-.3 289.33-.3 291.38Z" fill="#263238"/><path d="M620.95 209.05H441.5c-.8 0-1.45.65-1.45 1.45v28.6c0 .8.65 1.45 1.45 1.45h179.45c.8 0 1.45-.65 1.45-1.45v-28.6c0-.8-.65-1.45-1.45-1.45Z" fill="#EBEBEB"/><path d="M621.13 252.31H441.68c-.8 0-1.45.65-1.45 1.45v28.6c0 .8.65 1.45 1.45 1.45h179.45c.8 0 1.45-.65 1.45-1.45v-28.6c0-.8-.65-1.45-1.45-1.45Z" fill="#EBEBEB"/><path d="M460 223c0 1.58-1.15 2.54-3 2.54h-1.8v2.2h-1v-7.28h2.84c1.78-.02 2.96.94 2.96 2.54Zm-1 0c0-1-.7-1.64-2-1.64h-1.77v3.27H457c1.23-.02 1.93-.63 1.93-1.63h.07Z" fill="#263238"/><path d="M465.67 224.39v3.33h-.95V227a2.06 2.06 0 0 1-1.81.8c-1.25 0-2-.67-2-1.63 0-.96.57-1.61 2.22-1.61h1.58v-.2c0-.84-.49-1.33-1.48-1.33-.63 0-1.25.2-1.75.59l-.41-.75a3.7 3.7 0 0 1 2.27-.7c1.47-.01 2.33.71 2.33 2.22Zm-1 1.65v-.77h-1.54c-1 0-1.27.38-1.27.85s.46.89 1.22.89a1.61 1.61 0 0 0 1.59-1.01v.04Z" fill="#263238"/><path d="m466.82 227.14.41-.79c.58.37 1.25.57 1.94.57.93 0 1.31-.28 1.31-.75 0-1.24-3.48-.16-3.48-2.36 0-1 .88-1.65 2.3-1.65.7-.01 1.39.16 2 .5l-.42.79a2.83 2.83 0 0 0-1.6-.44c-.87 0-1.3.32-1.3.76 0 1.3 3.5.24 3.5 2.38 0 1-.91 1.64-2.38 1.64a4 4 0 0 1-2.28-.65Z" fill="#263238"/><path d="m472 227.14.42-.79c.57.37 1.25.57 1.93.57.93 0 1.31-.28 1.31-.75 0-1.24-3.48-.16-3.48-2.36 0-1 .88-1.65 2.3-1.65a4 4 0 0 1 2 .5l-.43.79a2.82 2.82 0 0 0-1.59-.44c-.88 0-1.31.32-1.31.76 0 1.3 3.5.24 3.5 2.38 0 1-.91 1.64-2.38 1.64a4 4 0 0 1-2.27-.65Z" fill="#263238"/><path d="m486.18 222.21-2.06 5.51h-1l-1.59-4.18-1.53 4.18h-1l-2-5.51h.95l1.6 4.39 1.66-4.39h.79l1.63 4.41 1.64-4.41h.91Z" fill="#263238"/><path d="M486.52 225a2.87 2.87 0 1 1 2.87 2.82 2.74 2.74 0 0 1-2.87-2.82Zm4.72 0a1.87 1.87 0 0 0-2.27-1.73 1.85 1.85 0 0 0-1.3 2.55 1.86 1.86 0 0 0 1.72 1.12 1.81 1.81 0 0 0 1.85-1.94Z" fill="#263238"/><path d="M496.6 222.16v1h-.23a1.63 1.63 0 0 0-1.31.52 1.64 1.64 0 0 0-.43 1.35v2.74h-1v-5.51h1v.92a2.1 2.1 0 0 1 1.97-1.02Z" fill="#263238"/><path d="M503 220v7.72h-1v-.87a2.36 2.36 0 0 1-2 .94 2.82 2.82 0 0 1 0-5.63 2.35 2.35 0 0 1 2 .84v-3h1Zm-1 5a1.86 1.86 0 1 0-1.86 1.94A1.83 1.83 0 0 0 502 225Z" fill="#263238"/><path d="M453.5 269.38a3.7 3.7 0 0 1 3.86-3.73 3.6 3.6 0 0 1 2.76 1.14l-.67.65a2.7 2.7 0 0 0-2.05-.86 2.8 2.8 0 1 0 0 5.6 2.71 2.71 0 0 0 2.05-.88l.67.66a3.6 3.6 0 0 1-2.77 1.14 3.68 3.68 0 0 1-3.85-3.72Z" fill="#263238"/><path d="M460.72 270.26a2.87 2.87 0 1 1 2.88 2.82 2.74 2.74 0 0 1-2.88-2.82Zm4.73 0a1.86 1.86 0 1 0-3.72 0 1.86 1.86 0 0 0 3.72 0Z" fill="#263238"/><path d="M473.07 269.85V273h-1v-3c0-1.08-.54-1.61-1.48-1.61a1.63 1.63 0 0 0-1.75 1.83V273h-1v-5.51h1v.83a2.36 2.36 0 0 1 2-.89 2.14 2.14 0 0 1 2.23 2.42Z" fill="#263238"/><path d="M476.89 265.24c.4-.02.8.1 1.12.32l-.3.76c-.22-.17-.5-.26-.77-.26-.59 0-.89.33-.89 1v.48h1.6v.82h-1.58V273h-1v-4.69h-.94v-.82h.94V267a1.66 1.66 0 0 1 1.82-1.76Zm2.36.56a.67.67 0 0 1 .42-.62.66.66 0 0 1 .26-.04.66.66 0 0 1 .58.42.65.65 0 0 1-.16.7.65.65 0 0 1-.99-.1.64.64 0 0 1-.11-.36Zm.18 1.71h1V273h-1v-5.49Z" fill="#263238"/><path d="M485.29 267.45v1h-.23a1.63 1.63 0 0 0-1.73 1.86V273h-1v-5.51h.95v.92a2.11 2.11 0 0 1 2.01-.96Z" fill="#263238"/><path d="M495.68 269.85V273h-1v-3c0-1.08-.52-1.61-1.43-1.61-.91 0-1.65.63-1.65 1.83V273h-1v-3c0-1.08-.52-1.61-1.43-1.61-.91 0-1.65.63-1.65 1.83V273h-1v-5.51h1v.82a2.2 2.2 0 0 1 1.9-.88 2 2 0 0 1 1.91 1 2.5 2.5 0 0 1 2.13-1 2.12 2.12 0 0 1 2.22 2.42Z" fill="#263238"/><path d="M506.34 268.28c0 1.58-1.15 2.53-3 2.53h-1.8V273h-1v-7.28h2.84c1.81.02 2.96.97 2.96 2.56Zm-1.05 0c0-1-.69-1.64-2-1.64h-1.79v3.27h1.77c1.33 0 2.02-.59 2.02-1.63Z" fill="#263238"/><path d="M512 269.69V273h-.94v-.73a2.06 2.06 0 0 1-1.81.79c-1.25 0-2-.66-2-1.62 0-.96.57-1.61 2.21-1.61H511v-.2c0-.84-.48-1.33-1.47-1.33-.63 0-1.25.2-1.75.59l-.42-.75a3.69 3.69 0 0 1 2.28-.71c1.54.02 2.36.75 2.36 2.26Zm-1 1.64v-.77h-1.54c-1 0-1.26.39-1.26.86s.45.89 1.21.89a1.58 1.58 0 0 0 1.59-.98Z" fill="#263238"/><path d="m513.19 272.44.41-.79c.58.37 1.25.57 1.94.57.92 0 1.31-.28 1.31-.75 0-1.24-3.49-.17-3.49-2.36 0-1 .89-1.66 2.3-1.66a4 4 0 0 1 2 .5l-.43.79a2.88 2.88 0 0 0-1.59-.43c-.87 0-1.3.32-1.3.76 0 1.3 3.5.24 3.5 2.38 0 1-.92 1.63-2.39 1.63a4 4 0 0 1-2.26-.64Z" fill="#263238"/><path d="m518.4 272.44.41-.79c.58.37 1.25.57 1.94.57.92 0 1.31-.28 1.31-.75 0-1.24-3.49-.17-3.49-2.36 0-1 .89-1.66 2.3-1.66a4 4 0 0 1 2 .5l-.43.79a2.89 2.89 0 0 0-1.59-.43c-.87 0-1.3.32-1.3.76 0 1.3 3.5.24 3.5 2.38 0 1-.92 1.63-2.39 1.63a4 4 0 0 1-2.26-.64Z" fill="#263238"/><path d="m532.55 267.51-2.06 5.49h-1l-1.59-4.18-1.58 4.18h-1l-2-5.51h.94l1.61 4.39 1.66-4.39h.84l1.64 4.41 1.64-4.41.9.02Z" fill="#263238"/><path d="M532.89 270.26a2.87 2.87 0 1 1 2.87 2.82 2.74 2.74 0 0 1-2.87-2.82Zm4.72 0a1.86 1.86 0 1 0-3.72 0 1.86 1.86 0 0 0 3.72 0Z" fill="#263238"/><path d="M543 267.45v1h-.23a1.65 1.65 0 0 0-1.74 1.86V273h-1v-5.51h1v.92a2.11 2.11 0 0 1 1.97-.96Z" fill="#263238"/><path d="M549.34 265.3v7.7h-1v-.87a2.32 2.32 0 0 1-2 .93 2.82 2.82 0 0 1 0-5.63 2.31 2.31 0 0 1 1.92.89v-3l1.08-.02Zm-1 5a1.87 1.87 0 0 0-3.2-1.19 1.85 1.85 0 0 0 .32 2.84c.3.2.67.3 1.03.3a1.82 1.82 0 0 0 1.86-1.99l-.01.04Z" fill="#263238"/><path d="M620.06 301.09H440.62c-.8 0-1.45.65-1.45 1.45v28.6c0 .8.65 1.45 1.45 1.45h179.44c.8 0 1.45-.65 1.45-1.45v-28.6c0-.8-.65-1.45-1.45-1.45Z" fill="#1E60F6"/><path d="M507.79 317.08a3.77 3.77 0 0 1 4-3.78 3.83 3.83 0 0 1 3.13 1.37l-1.31 1.19a2.13 2.13 0 0 0-1.72-.86 2.1 2.1 0 0 0 0 4.17 2.17 2.17 0 0 0 1.72-.86l1.31 1.19a3.86 3.86 0 0 1-3.13 1.37 3.76 3.76 0 0 1-4-3.79Z" fill="#fff"/><path d="M521.75 317.5v3.23h-2v-2.91c0-.81-.36-1.15-.93-1.15-.57 0-1.12.39-1.12 1.33v2.73h-2V313h2v2.61a2.41 2.41 0 0 1 1.69-.62 2.2 2.2 0 0 1 2.36 2.51Z" fill="#fff"/><path d="M528.28 317.59v3.14h-1.84V320a1.71 1.71 0 0 1-1.67.82c-1.35 0-2.1-.76-2.1-1.74s.76-1.68 2.51-1.68h1.12c0-.58-.42-.9-1.2-.9-.55 0-1.08.17-1.53.49l-.66-1.34a4.69 4.69 0 0 1 2.49-.66c1.83.01 2.88.81 2.88 2.6Zm-2 1.33v-.49h-.85c-.64 0-.87.22-.87.57s.28.57.74.57a1 1 0 0 0 1-.65h-.02Z" fill="#fff"/><path d="M535.53 317.5v3.23h-2v-2.91c0-.81-.35-1.15-.92-1.15-.57 0-1.13.39-1.13 1.33v2.73h-2v-5.64h1.88v.61a2.41 2.41 0 0 1 1.79-.71 2.2 2.2 0 0 1 2.38 2.51Z" fill="#fff"/><path d="M542.92 315.09v4.61c0 2.13-1.21 3.14-3.31 3.14a5 5 0 0 1-2.8-.74l.72-1.38c.56.4 1.22.6 1.9.6 1.06 0 1.51-.48 1.51-1.36v-.19a2.1 2.1 0 0 1-1.67.66 2.72 2.72 0 0 1 0-5.44 2.06 2.06 0 0 1 1.77.78v-.68h1.88Zm-2 2.62a1.23 1.23 0 1 0-1.23 1.15 1.15 1.15 0 0 0 1.21-.67c.07-.15.1-.31.1-.48h-.08Z" fill="#fff"/><path d="M549.92 318.41h-4.1a1.3 1.3 0 0 0 1.39.9c.48.01.95-.16 1.3-.49l1 1.08a3 3 0 0 1-2.41.92c-2 0-3.31-1.24-3.31-2.93a2.92 2.92 0 0 1 3.11-2.9 2.82 2.82 0 0 1 3 2.93c.1.14.03.33.02.49Zm-4.13-1.05h2.31a1.17 1.17 0 0 0-2.31 0Z" fill="#fff"/><path d="M513.38 164.38h-1.67v2.87h-3.06v-10.81h4.94c2.95 0 4.81 1.53 4.81 4a3.58 3.58 0 0 1-2.12 3.41l2.33 3.4h-3.27l-1.96-2.87Zm0-5.53h-1.7V162h1.7c1.26 0 1.9-.58 1.9-1.57 0-.99-.61-1.58-1.87-1.58h-.03Z" fill="#263238"/><path d="M528.45 163.81h-6.08a1.92 1.92 0 0 0 2 1.34 2.67 2.67 0 0 0 1.93-.73l1.54 1.61a4.5 4.5 0 0 1-3.56 1.36c-3 0-4.91-1.84-4.91-4.34a4.31 4.31 0 0 1 4.6-4.31 4.18 4.18 0 0 1 4.48 4.34c.05.22.02.49 0 .73Zm-6.13-1.55h3.43a1.73 1.73 0 0 0-2.84-1.04c-.31.27-.52.63-.59 1.04Z" fill="#263238"/><path d="m529.19 166.52.88-2c.9.5 1.9.77 2.92.77 1 0 1.31-.22 1.31-.57 0-1.13-4.94.15-4.94-3.2 0-1.57 1.45-2.78 4.08-2.78a7.36 7.36 0 0 1 3.3.71l-.88 2a4.9 4.9 0 0 0-2.41-.61c-1 0-1.34.27-1.34.58 0 1.16 4.93-.09 4.93 3.23 0 1.54-1.42 2.75-4.14 2.75a7.7 7.7 0 0 1-3.71-.88Z" fill="#263238"/><path d="M546.81 163.81h-6.08a1.93 1.93 0 0 0 2 1.34 2.67 2.67 0 0 0 1.93-.73l1.55 1.61a4.53 4.53 0 0 1-3.57 1.36c-3 0-4.91-1.84-4.91-4.34a4.31 4.31 0 0 1 4.6-4.31 4.18 4.18 0 0 1 4.48 4.34c.05.22.02.49 0 .73Zm-6.13-1.55h3.43a1.64 1.64 0 0 0-1.71-1.43 1.67 1.67 0 0 0-1.72 1.43Z" fill="#263238"/><path d="M554 166.91c-.61.33-1.3.5-2 .48-2.15 0-3.4-1-3.4-3.2v-2.81h-1.22v-2.19h1.22V157h2.93v2.18h1.92v2.19h-1.92v2.78a.84.84 0 0 0 .2.71.84.84 0 0 0 .68.29c.32 0 .63-.09.9-.26l.69 2.02Z" fill="#263238"/><path d="M476.9 180.71v3.88h-3.06v-3.93l-4.12-6.88h3.22l2.57 4.29 2.56-4.29h3l-4.17 6.93Z" fill="#263238"/><path d="M480.22 180.39c0-2.52 2-4.31 4.72-4.31 2.72 0 4.73 1.79 4.73 4.31 0 2.52-2 4.34-4.73 4.34-2.73 0-4.72-1.81-4.72-4.34Zm6.48 0a1.78 1.78 0 0 0-1.04-1.8 1.77 1.77 0 0 0-2.4 1.07c-.08.23-.1.48-.08.73a1.78 1.78 0 0 0 1.04 1.8 1.77 1.77 0 0 0 2.48-1.8Z" fill="#263238"/><path d="M499.83 176.22v8.37H497v-.9a3.31 3.31 0 0 1-2.49 1c-2 0-3.55-1.18-3.55-3.83v-4.68h2.93v4.2c0 1.3.51 1.8 1.39 1.8.88 0 1.58-.57 1.58-2v-4l2.97.04Z" fill="#263238"/><path d="M507.32 176.08v2.64a5.6 5.6 0 0 0-.66-.05 1.84 1.84 0 0 0-2 2.07v3.85h-2.93v-8.37h2.79v1a3.41 3.41 0 0 1 2.8-1.14Z" fill="#263238"/><path d="M522.94 177.78c0 2.45-1.86 4-4.81 4h-1.88v2.83h-3.06v-10.83h4.94c2.95 0 4.81 1.53 4.81 4Zm-3.09 0c0-1-.64-1.59-1.9-1.59h-1.7v3.16H518c1.21 0 1.85-.58 1.85-1.57Z" fill="#263238"/><path d="M532.05 179.94v4.65h-2.73v-1.08a2.56 2.56 0 0 1-2.48 1.22c-2 0-3.12-1.13-3.12-2.58 0-1.45 1.13-2.5 3.73-2.5h1.66c0-.85-.61-1.33-1.77-1.33-.81 0-1.6.25-2.27.72l-1-2a7.07 7.07 0 0 1 3.69-1c2.73.04 4.29 1.24 4.29 3.9Zm-2.94 2v-.73h-1.26c-.94 0-1.28.34-1.28.85s.4.85 1.09.85a1.44 1.44 0 0 0 1.45-1.01v.04Z" fill="#263238"/><path d="m533.24 183.86.88-2c.89.51 1.9.78 2.92.78 1 0 1.31-.22 1.31-.57 0-1.13-4.94.15-4.94-3.2 0-1.58 1.45-2.78 4.07-2.78a7.38 7.38 0 0 1 3.31.71l-.88 2a4.94 4.94 0 0 0-2.41-.62c-1 0-1.34.28-1.34.59 0 1.16 4.92-.09 4.92 3.23 0 1.54-1.42 2.75-4.14 2.75a7.64 7.64 0 0 1-3.7-.89Z" fill="#263238"/><path d="m541.69 183.86.88-2c.88.51 1.89.78 2.91.78 1 0 1.32-.22 1.32-.57 0-1.13-4.94.15-4.94-3.2 0-1.58 1.45-2.78 4.07-2.78a7.4 7.4 0 0 1 3.31.71l-.88 2a5 5 0 0 0-2.41-.62c-1 0-1.35.28-1.35.59 0 1.16 4.93-.09 4.93 3.23 0 1.54-1.42 2.75-4.14 2.75a7.63 7.63 0 0 1-3.7-.89Z" fill="#263238"/><path d="m564.51 176.22-3 8.37h-2.84l-1.56-4.59-1.63 4.56h-2.84l-3-8.37h2.78l1.71 5.06 1.77-5.06h2.51l1.73 5.11 1.77-5.11 2.6.03Z" fill="#263238"/><path d="M564.65 180.39c0-2.52 2-4.31 4.73-4.31 2.73 0 4.72 1.79 4.72 4.31 0 2.52-2 4.34-4.72 4.34-2.72 0-4.73-1.81-4.73-4.34Zm6.49 0a1.78 1.78 0 0 0-2.24-1.47 1.77 1.77 0 1 0 1.21 3.32 1.75 1.75 0 0 0 1.03-1.85Z" fill="#263238"/><path d="M581.07 176.08v2.64a5.56 5.56 0 0 0-.67-.05 1.83 1.83 0 0 0-1.93 1.25c-.09.27-.11.55-.07.82v3.85h-2.94v-8.37h2.8v1a3.4 3.4 0 0 1 2.81-1.14Z" fill="#263238"/><path d="M591.09 173.13v11.46h-2.79v-.84a3 3 0 0 1-2.46 1 4.32 4.32 0 0 1 0-8.65 3.1 3.1 0 0 1 2.32.86v-3.81l2.93-.02Zm-2.89 7.26a1.77 1.77 0 1 0-1.74 2 1.75 1.75 0 0 0 1.74-2Z" fill="#263238"/><path d="m561.17 108.83-7.9-1.64 10-48.11c.37-2.52-.18-5.1-1.56-7.24-12.59-17.43-33.07-10.35-36.21 4.71l-9 43-7.9-1.65 10.09-48.42a17.23 17.23 0 0 1 8.93-11.79c25.44-13.11 46.79 7.27 42.44 28.16l-8.89 42.98Z" fill="#E0E0E0"/><path d="m561.17 108.83.17-.86.5-2.5 2-9.57 3.11-15.11 2-9.42c.62-3.34 1.65-6.84 1.69-10.62.06-3.96-.78-7.88-2.46-11.46-.22-.46-.43-.94-.66-1.4l-.8-1.35c-.55-.9-1.14-1.78-1.79-2.61-.32-.44-.7-.82-1.05-1.23-.35-.41-.69-.83-1.1-1.19-.78-.77-1.6-1.5-2.48-2.16a26.8 26.8 0 0 0-5.78-3.45l-1.61-.6-.91-.3-.84-.22-1.69-.44c-.58-.13-1.16-.19-1.74-.29a26.44 26.44 0 0 0-23.58 8.48 26.55 26.55 0 0 0-5.66 9.99c-.73 2.55-1.2 5.22-1.77 7.88l-6.88 33-.94 4.51-.15-.23 7.9 1.65-.22.15a27293.65 27293.65 0 0 1 7.73-37l1.22-5.86a21 21 0 0 1 2.08-5.54 19.11 19.11 0 0 1 8.32-7.72c.43-.19.84-.42 1.29-.57l1.32-.46a19.84 19.84 0 0 1 5.44-.83c.45 0 .91 0 1.36.06h.67l.67.11a18.79 18.79 0 0 1 9.47 4.19 19.1 19.1 0 0 1 5.63 8.07c1.1 2.93 1.42 6.1.93 9.2l-.18 1.11-.22 1.08-.45 2.14-.87 4.15-3.13 14.9-4.36 20.69-.05-.07 6 1.27 1.46.32.48.11-.47-.09-1.45-.28-6-1.22v-.06l4.26-20.7c.93-4.5 2-9.49 3.09-14.92l.86-4.15.44-2.13.23-1.09c.08-.37.11-.73.17-1.09.48-3.05.16-6.17-.93-9.06a18.78 18.78 0 0 0-5.56-7.93 19.87 19.87 0 0 0-4.32-2.69c-1.6-.7-3.28-1.18-5-1.42l-.66-.1h-.67c-.44 0-.88-.06-1.33 0-1.81.02-3.6.3-5.34.82l-1.3.46a18.66 18.66 0 0 0-9.42 8.15c-.93 1.7-1.6 3.53-2 5.43-.4 1.94-.8 3.9-1.22 5.86l-2.5 12-5.21 25v.19h-.19l-7.9-1.65h-.18v-.19l.94-4.51 6.89-33c.57-2.67 1-5.32 1.78-7.92a28.81 28.81 0 0 1 3.45-7.18 27 27 0 0 1 26.24-11.51c.59.1 1.18.17 1.76.29l2 .52 1.07.34 1.6.6.74.31a26.88 26.88 0 0 1 7.99 5.52c.32.34.62.7.9 1.07.35.42.74.8 1.05 1.24.66.85 1.27 1.73 1.82 2.65l.8 1.36c.24.47.44 1 .67 1.42a26.34 26.34 0 0 1 2.45 11.59c0 3.82-1.09 7.33-1.72 10.68-.63 3.35-1.37 6.5-2 9.45L563.88 96c-.87 4.11-1.56 7.35-2 9.53l-.53 2.47c-.11.56-.18.83-.18.83Z" fill="#263238"/><path d="m505.2 67.95 70.56 14.7a3.74 3.74 0 0 1 2.9 4.43l-11.15 53.5a3.4 3.4 0 0 1-4.02 2.64l-70.9-14.77 12.6-60.5Z" fill="#455A64"/><path opacity=".3" d="m505.23 68 70.2 14.63a4.12 4.12 0 0 1 3.2 4.88l-11 52.76a3.77 3.77 0 0 1-4.47 2.93l-70.54-14.7 12.6-60.5Z" fill="#000"/><path d="m505.8 68.08 60.86 12.68a4.06 4.06 0 0 1 3.15 4.8l-10.76 51.66a5 5 0 0 1-5.92 3.88l-59.77-12.46a4.22 4.22 0 0 1-3.26-4.97l10.93-52.44a4.06 4.06 0 0 1 4.76-3.16Z" fill="#455A64"/><path opacity=".3" d="M540.61 101.36a8.63 8.63 0 0 0-6.94-10.26 8.74 8.74 0 0 0-9.94 6.67 8.61 8.61 0 0 0 4.45 9.44l-7.95 10.51 14.51 3.3-2-12.85a8.6 8.6 0 0 0 7.87-6.81Z" fill="#000"/><path d="M559.29 136.45c-.1 0 2.06-10.56 4.82-23.54 2.76-12.98 5.09-23.5 5.19-23.48.1.02-2.06 10.57-4.82 23.57-2.76 13-5.09 23.47-5.19 23.45Z" fill="#263238"/><path d="M554.37 80.14c0 .1-9.33-1.63-20.79-3.86-11.46-2.23-20.75-4.12-20.73-4.22.02-.1 9.33 1.62 20.8 3.85s20.74 4.09 20.72 4.23Z" fill="#fff"/><path d="M522.5 102.33s-.12-.2-.24-.6a9.8 9.8 0 0 1 .93-7.36 9.89 9.89 0 0 1 4.23-3.92 8.87 8.87 0 0 1 1.66-.6 2 2 0 0 1 .64-.09c0 .07-.89.25-2.18.93a10 10 0 0 0-5.33 9.29c.05 1.46.36 2.33.29 2.35Z" fill="#fff"/><path d="M525 107c-.07.08-.53-.23-1-.69-.47-.46-.83-.89-.76-1 .07-.11.53.24 1 .69.47.45.83 1 .76 1Z" fill="#fff"/><path d="M546.35 35.74s-.52 0-1.46-.1a25.06 25.06 0 0 0-4 .07 23.2 23.2 0 0 0-19.69 15.11 24.96 24.96 0 0 0-1.09 3.82c-.18.92-.26 1.44-.29 1.44a1.61 1.61 0 0 1 0-.38c0-.25 0-.62.13-1.09a22.9 22.9 0 0 1 24.94-19.11c.47 0 .83.12 1.08.15.13.01.26.04.38.09Z" fill="#fff"/><path d="M518.15 62.54c-.02-.76.08-1.52.3-2.24.1-.75.32-1.47.66-2.15.03.75-.07 1.5-.29 2.23-.1.75-.33 1.48-.67 2.16Z" fill="#fff"/><path d="M21.42 384.6 3.45 409l30.26 22.52c2-3-9.37-20.48-9.37-20.48l12.16-15.16-15.08-11.28Z" fill="#455A64"/><path d="M16 402.78a1.52 1.52 0 0 0-1.9.77 1.49 1.49 0 0 0 .75 1.9 1.62 1.62 0 0 0 2-.83 1.54 1.54 0 0 0-1-1.89" fill="#fff"/><path d="m3.41 409.06 1.91-2.62 28.27 22.76s.9 1.6 0 2.43L3.41 409.06Z" fill="#263238"/><path d="M25 411.26c-.11.15-.9-.33-2-.4s-1.93.27-2 .11c-.07-.16.77-.85 2.07-.75 1.3.1 2.01.93 1.93 1.04Z" fill="#263238"/><path d="M27.15 414.94c-.08.17-.9-.06-1.87.19-.97.25-1.6.81-1.75.69-.15-.12.39-1 1.6-1.31 1.21-.31 2.12.29 2.02.43Z" fill="#263238"/><path d="M26.12 420.08c-.16-.07.19-1 1.17-1.49s1.91-.33 1.88-.16c-.03.17-.78.28-1.57.73-.79.45-1.32 1.01-1.48.92Z" fill="#263238"/><path d="M27.34 407.5c-.17.09-.69-.62-1.57-1.18-.88-.56-1.72-.79-1.71-1 .01-.21 1-.25 2.06.43 1.06.68 1.38 1.69 1.22 1.75Z" fill="#263238"/><path d="M94.58 282.46c.54 3.06 1.4 29.09 1.95 42.82s-.82 20.48-2.39 23.56c-1.57 3.08-60.78 46.71-65.29 57.16l-15-12.09s22-39.49 31.38-46.67c9.38-7.18 27.43-13.77 27.43-13.77l-5.13-75.19 24.59-1.34 2.46 25.52Z" fill="#263238"/><path d="M39.55 408.73 39.29 439l37.71.52c-.17-3.6-19.58-11.11-19.58-11.11l1-19.41-18.87-.27Z" fill="#455A64"/><path d="M45.78 426.66a1.54 1.54 0 0 0-1.09 1.74 1.5 1.5 0 0 0 1.72 1.1 1.63 1.63 0 0 0 1.14-1.85 1.53 1.53 0 0 0-1.91-.94" fill="#fff"/><path d="M39.28 439.11v-3.25l36.25 1.88s1.66.77 1.45 1.95l-37.7-.58Z" fill="#263238"/><path d="M58 428.27c0 .19-.93.26-1.84.84s-1.41 1.34-1.58 1.27c-.17-.07.12-1.14 1.24-1.82 1.12-.68 2.26-.46 2.18-.29Z" fill="#263238"/><path d="M62 430c0 .18-.77.48-1.4 1.25-.63.77-.83 1.6-1 1.58-.17-.02-.29-1.05.52-2S62 429.79 62 430Z" fill="#263238"/><path d="M64.15 434.73c-.17 0-.41-.89.07-1.89.48-1 1.36-1.39 1.43-1.24.07.15-.46.69-.85 1.52-.39.83-.47 1.59-.65 1.61Z" fill="#263238"/><path d="M57.76 423.82c-.08.17-.92-.1-2 0s-1.86.37-2 .21c-.14-.16.69-.8 1.92-.85 1.23-.05 2.17.5 2.08.64Z" fill="#263238"/><path d="M97.3 253.83c0 1.77 2.87 46.58-11.78 79 0 0-5.07 10.14-6 14.57-.93 4.43-19.88 77.91-19.88 77.91l-21.9-.8s-3.5-36.81 0-58.12c3.5-21.31 10-18.81 10-32.57 0-13.76-3.27-42.29-3.27-42.29s-4.78-7.79-6.41-22.9c-1.33-12.27 4.45-25.42 4.45-25.42l5.71-10.11 48.31-2.53.77 23.26Z" fill="#263238"/><path d="M97.3 253.83v-1.53c0-1.01-.06-2.51-.1-4.48l-.42-17.29v-.11h-.12l-48.31 2.46h-.1l-.06.09-5.72 10.11a64.7 64.7 0 0 0-3.47 11.1c-.9 4-1.31 8.1-1.21 12.19.3 4.28.97 8.52 2 12.69.99 4.37 2.55 8.6 4.63 12.57v-.1c.83 7.46 1.6 15.19 2.25 23.15.32 4 .6 8 .8 12.11.1 2 .18 4.1.19 6.17 0 1 0 2.07-.06 3.1a20.23 20.23 0 0 1-2.53 8.94c-1 1.87-2 3.72-3 5.67a53.34 53.34 0 0 0-3.93 12.4c-1.74 8.6-2.09 17.54-2.19 26.55 0 11.89.56 23.57 1.54 34.86v.24h.23l21.9.8h.21l.05-.21c6.35-24.61 12.27-47.61 17.49-68.29l1.89-7.65c.33-1.27.54-2.53.93-3.73.39-1.2.83-2.39 1.29-3.55.94-2.32 2-4.57 3-6.76l.78-1.63c.28-.53.52-1.08.74-1.64l1.35-3.29a132.68 132.68 0 0 0 6.91-24.93 216.82 216.82 0 0 0 3.3-36.74c.06-8.62-.29-13.3-.29-13.3v.86a198.42 198.42 0 0 1 .06 12.44c-.1 12.3-1.2 24.59-3.33 36.71a132.6 132.6 0 0 1-7 24.84l-1.34 3.27c-.22.56-.47 1.09-.74 1.63l-.79 1.64c-1 2.19-2.06 4.44-3 6.77a52.5 52.5 0 0 0-1.31 3.58c-.39 1.22-.62 2.51-.94 3.75l-1.91 7.65-17.55 68.27.26-.19-21.9-.81.26.24c-1-11.27-1.58-22.94-1.54-34.81.1-9 .45-17.9 2.18-26.44.8-4.24 2.1-8.37 3.89-12.29.9-1.93 2-3.76 3-5.66 1-1.88 1.72-3.9 2.12-6 .19-1.04.32-2.1.39-3.15 0-1 .1-2.1.06-3.13 0-2.08-.09-4.15-.19-6.2-.2-4.1-.49-8.14-.82-12.12a775 775 0 0 0-2.27-23.17v-.06A51 51 0 0 1 40.21 279a75.55 75.55 0 0 1-2-12.6 49.1 49.1 0 0 1 1.18-12.08c.8-3.76 1.94-7.44 3.39-11l5.7-10.12-.16.1 48.31-2.61-.13-.11.54 17.28.16 4.48c.04 1.02.1 1.49.1 1.49Z" fill="#455A64"/><path d="M81.59 162.07s-13-2.3-11.79 14.43c.76 10 3.7 27.16 5.33 38.11.56 3.79 1.8 10.57 6.81 14.55l35.9 24.84 11.33-13.55-32.06-30.53-5-30.2-10.52-17.65Z" fill="#455A64"/><path d="M83.12 101.77a16.46 16.46 0 0 1 6.1 13.92c-.2 2.56-.91 5.47.76 7.42 1.67 1.95 4.87 1.88 6.45 3.86 1.85 2.34.3 5.82 1 8.73a5.92 5.92 0 0 0 6.29 4.39 23.1 23.1 0 0 1-11.44 5L89 141c1.22 1.44.89 3.73-.28 5.2A9.7 9.7 0 0 1 84 149a29.29 29.29 0 0 1-25.65-4.17" fill="#263238"/><path d="M35.09 124.34c.64-2 1.72-3.77 2.15-5.78.92-4.33-1.19-9.21.91-13.11 1.5-2.77 4.68-4.13 7.7-5.06 3.02-.93 6.24-1.71 8.49-3.92 1.64-1.62 2.58-3.86 4.22-5.48 2.34-2.32 5.8-3.11 9.08-3.31 3.39-.33 6.8.23 9.91 1.61a10.82 10.82 0 0 1 6.1 7.63c.26 1.62.06 3.33.58 4.9.56 1.72 1.91 3.06 2.75 4.67a8.68 8.68 0 0 1-2.17 10.4l-23.18 29.94c-4.87 1.84-16.67-.38-20.43-4-3.76-3.62-7.72-13.54-6.11-18.49Z" fill="#263238"/><path d="M84.2 113.09c-1-6.8-6.13-14.83-12.88-13.59l-20.84 7c-2 .38-.58 3.73-.38 5.8l4.53 47s-2.82 2-3.82 1.62a.29.29 0 0 0-.32.1.29.29 0 0 0-.02.33C53 165 64.79 180.87 77 176c2.72-1.09-.29-9.66 0-12.83l-.36-8.11c-.27-4.14-.4-5.84-.4-5.8 0 .04 8.62-2.12 9.55-13.65.47-5.71-.53-14.97-1.59-22.52Z" fill="#FFBF9D"/><path d="M82.75 123.55a1.47 1.47 0 0 1-1.3 1.58 1.39 1.39 0 0 1-1.43-.67 1.4 1.4 0 0 1-.18-.53 1.47 1.47 0 0 1 1.3-1.58 1.39 1.39 0 0 1 1.43.67c.1.17.16.34.18.53Z" fill="#263238"/><path d="M68.55 124.44a1.46 1.46 0 0 1-1.29 1.58 1.4 1.4 0 0 1-1.43-.68c-.1-.16-.15-.34-.18-.52a1.47 1.47 0 0 1 1.3-1.58 1.38 1.38 0 0 1 1.42.68c.1.16.16.33.18.52Z" fill="#263238"/><path d="M83.27 118.73c-.16.27-1.52-.59-3.22-.34-1.7.25-2.79 1.41-3 1.2-.21-.21 0-.56.49-1.09a3.89 3.89 0 0 1 5-.69c.56.39.81.8.73.92Z" fill="#263238"/><path d="M68 120c-.2.25-1.53-.72-3.36-.64-1.83.08-3.13 1.11-3.34.88-.21-.23.09-.54.66-1a4.38 4.38 0 0 1 5.35-.19c.57.41.78.83.69.95Z" fill="#263238"/><path d="M73.73 130.77c.8-.33 1.65-.55 2.52-.66.39-.07.77-.18.81-.46a2 2 0 0 0-.36-1.17l-1.42-3c-2-4.23-3.45-7.71-3.28-7.79.17-.08 1.92 3.28 3.9 7.5.48 1.05.94 2 1.37 3 .3.46.41 1.02.33 1.56a1 1 0 0 1-.61.64c-.22.07-.44.12-.67.14a11 11 0 0 1-2.59.24Z" fill="#263238"/><path d="M76.24 149.28c-5.36.5-10.74-.51-15.56-2.9 0 0 4.45 7.7 15.76 5.76l-.2-2.86Z" fill="#FF9A6C"/><path d="M68.94 135.35c.18-.4.45-.74.8-1a2 2 0 0 1 1.36-.13c.68.1 1.3.41 1.78.9a1.9 1.9 0 0 1 .45 1.88c-.18.66-1.16 1-1.83 1.14a3 3 0 0 1-2-.41 1.74 1.74 0 0 1-1-1.3c.04-.4.2-.77.44-1.08Z" fill="#FF9A6C"/><path d="M69.26 133.14c.25 0 .39 1.67 1.94 2.77 1.55 1.1 3.35.77 3.38 1 .03.23-.37.36-1.14.44-1 .1-2-.17-2.82-.75a3.67 3.67 0 0 1-1.52-2.33c-.1-.69.04-1.13.16-1.13Z" fill="#263238"/><path d="M67.86 113.85c-.13.43-1.71.35-3.54.72s-3.28 1-3.55.61c-.12-.17.1-.59.67-1.05a6.21 6.21 0 0 1 5.4-1c.7.2 1.07.51 1.02.72Z" fill="#263238"/><path d="M82.3 113c-.29.38-1.55.11-3 .21-1.45.1-2.73.45-3.05.1-.14-.17 0-.55.55-.93a4.68 4.68 0 0 1 2.43-.77c.86-.06 1.72.12 2.48.53.52.3.72.66.59.86Z" fill="#263238"/><path d="M45.87 108.14c1-1.62 2.94-2.45 4.74-3.14 7.77-3 15.88-5.07 24.14-6.15 1 1.69.08 4-1.47 5.23-1.55 1.23-3.55 1.72-5.4 2.41-1.85.69-3.76 1.77-4.53 3.6-.77 1.83-.12 4.24-.84 6.22-1.23 3.42-6 4.52-7.19 7.93-.92 2.59.58 5.34 1 8.06a9.8 9.8 0 0 1-9.62 11.15l-1.69-29.36c-.17-2.04-.25-4.24.86-5.95Z" fill="#263238"/><path d="M26.15 132.87c1.55-1.39 3.49-2.59 4.1-4.57.9-2.89-1.42-6.28.08-8.91 1.36-2.4 5.37-2.27 6.64-4.72 1-1.92-.15-3.61.22-5.29.37-1.68 2.77-3.15 4.47-2.95L55 125.8c1.24 6.5 2.49 10 1.1 13.76a30.37 30.37 0 0 0-2.07 6.32c-.3 2.2.27 4.69 2.06 6-8 .63-15.48-3.55-22.4-7.6L26.4 140a5.23 5.23 0 0 1-2-1.68c-1.09-1.78.21-4.07 1.75-5.45Z" fill="#263238"/><path d="M33.52 142.31c.28.09.57.15.86.17a7.69 7.69 0 0 0 5.96-2.05 7.57 7.57 0 0 0 2.28-4.67 7.73 7.73 0 0 0-.26-3.07 12.67 12.67 0 0 0-1.48-3 11.5 11.5 0 0 1-1.53-3.08 3.94 3.94 0 0 1 .43-3.39c.72-1 2.07-1.21 3.33-1.71a3.63 3.63 0 0 0 1.7-1.27c.4-.62.59-1.35.55-2.09a22.8 22.8 0 0 0-.91-4.16 4.4 4.4 0 0 1 0-2c.18-.66.58-1.24 1.15-1.63a8.07 8.07 0 0 1 4-1.08 8.59 8.59 0 0 0 4.12-1.21 7.71 7.71 0 0 0 2.85-3.07c.53-1.22.87-2.5 1-3.83.14-1.22.4-2.43.78-3.6a8.16 8.16 0 0 1 1.88-2.83 9.14 9.14 0 0 1 10.53-1.5 11 11 0 0 1 3.08 2.34c.74.83 1.37 1.75 1.9 2.73 0 0 0-.07-.07-.21A10.37 10.37 0 0 0 74 95.5c-.88-1-1.93-1.82-3.1-2.45A9.3 9.3 0 0 0 60 94.47a8.46 8.46 0 0 0-2 3c-.4 1.2-.67 2.42-.82 3.67a12.35 12.35 0 0 1-1 3.7 7.33 7.33 0 0 1-2.66 2.87 8.25 8.25 0 0 1-3.92 1.13c-1.5 0-2.98.4-4.28 1.16a3.27 3.27 0 0 0-1.32 1.86 4.88 4.88 0 0 0 0 2.25c.42 1.33.72 2.7.9 4.08.04.64-.12 1.28-.46 1.83-.39.5-.91.9-1.51 1.11-.59.25-1.23.42-1.85.68a3.9 3.9 0 0 0-1.65 1.19 4.43 4.43 0 0 0-.48 3.76c.37 1.13.91 2.2 1.6 3.18A12 12 0 0 1 42 132.8a7.55 7.55 0 0 1-1.86 7.44 7.55 7.55 0 0 1-3.34 1.88 8.38 8.38 0 0 1-3.28.19Z" fill="#455A64"/><path d="M22.86 128.54c-.13.2-.22.42-.26.65-.13.69-.01 1.4.34 2 .24.43.59.8 1 1.07.52.31 1.1.47 1.71.46a4 4 0 0 0 3.5-2.23 5.3 5.3 0 0 0 .57-2.43c-.02-.9-.21-1.8-.56-2.64-.63-1.73-1.79-3.42-1.81-5.44a3.71 3.71 0 0 1 .93-2.75 4 4 0 0 1 2.9-.9 9.91 9.91 0 0 0 3.46-.36 3 3 0 0 0 1.42-1.2c.32-.54.52-1.14.59-1.76.06-1.2-.04-2.4-.29-3.56a7.57 7.57 0 0 1 .19-3.29 8.28 8.28 0 0 1 3.71-4.88 11.77 11.77 0 0 1 5.57-1.28c1.72 0 3.43-.27 5.06-.8a10.6 10.6 0 0 0 5.58-4.72c.47-.78.8-1.64.95-2.53-.3.84-.67 1.66-1.11 2.44a10.75 10.75 0 0 1-5.5 4.56c-1.62.5-3.3.74-5 .72a12 12 0 0 0-5.74 1.28 8.68 8.68 0 0 0-3.94 5.05 8.11 8.11 0 0 0-.21 3.47c.23 1.13.33 2.29.29 3.44a3 3 0 0 1-1.73 2.59c-1.07.3-2.18.42-3.29.33a4.43 4.43 0 0 0-3.21 1 4.09 4.09 0 0 0-1 3.07c.04 1.04.3 2.06.73 3 .39.9.82 1.74 1.15 2.58.34.8.53 1.65.56 2.51.01.79-.16 1.57-.5 2.28a3.71 3.71 0 0 1-3.21 2.12 3 3 0 0 1-1.59-.39 2.78 2.78 0 0 1-1-1 2.82 2.82 0 0 1-.41-1.87c.05-.36.18-.58.15-.59Z" fill="#263238"/><path d="M107.09 133.31c.24.68.24 1.41 0 2.09a2.73 2.73 0 0 1-1.66 1.69 2.9 2.9 0 0 1-2.93-.8 2.66 2.66 0 0 1-.69-1.68 5.6 5.6 0 0 1 .31-2c.42-1.35 1.29-2.82 1.16-4.59a6.47 6.47 0 0 0-2.44-4.62 7.43 7.43 0 0 0-2.49-1.31c-.93-.26-1.88-.4-2.84-.41-.93 0-1.86-.1-2.77-.29a3.68 3.68 0 0 1-2.15-1.33 4.48 4.48 0 0 1-.77-2.37c-.04-.83.02-1.65.2-2.46.44-1.52.68-3.1.72-4.68a7.09 7.09 0 0 0-1.43-3.88 9.08 9.08 0 0 0-2.6-2.2c-.73-.43-1.43-.91-2.09-1.44a5.23 5.23 0 0 1-1.3-1.68v.14a4.33 4.33 0 0 0 1.16 1.67c.65.56 1.34 1.08 2.07 1.53.95.57 1.8 1.3 2.48 2.18a6.7 6.7 0 0 1 1.3 3.7 18.67 18.67 0 0 1-.75 4.57c-.2.85-.27 1.71-.23 2.58a5 5 0 0 0 .86 2.61c.6.77 1.45 1.3 2.4 1.51.94.2 1.9.3 2.85.31.93.01 1.85.14 2.74.38a7.3 7.3 0 0 1 2.34 1.23 6.06 6.06 0 0 1 2.29 4.29c.14 1.61-.66 3-1.1 4.45a6 6 0 0 0-.3 2.16 3 3 0 0 0 2.32 2.75c.58.15 1.18.13 1.75-.05a2.9 2.9 0 0 0 1.74-1.88c.18-.52.2-1.08.08-1.62-.04-.2-.12-.38-.23-.55Z" fill="#263238"/><path d="M97.53 211.64v-11.06c1.24-6.21.65-13.57-2.24-19.24a103.5 103.5 0 0 0-6.94-10.55l-11-14.29c-6.06 4.41-15.55 1.22-23.69-1.74 0 0-8 4.45-11.78 8.63-3.93 4.4 9.51 59.45 9.51 59.45-6.09 12.18-13.95 23-15.14 34.1l63.6 2.45-2.7-29.16.38-18.59Z" fill="#455A64"/><path d="M96.65 230.54a5.61 5.61 0 0 1-.05-1.25v-3.39l.18-11.18c.07-4.31.2-8.32.34-11.18a139 139 0 0 1 .2-3.39c0-.41.06-.83.16-1.23.04.41.04.83 0 1.24v3.39l-.19 11.18c-.07 4.31-.19 8.32-.33 11.18a96.83 96.83 0 0 1-.21 3.39c.02.42-.02.83-.1 1.24Z" fill="#263238"/><path d="M125.7 240.6s6.2.34 10 2.74c3.8 2.4 10 6.14 12.55 10.77 1.17 2.13-2.16 2.58-3.81 1.35s-4.16-3.57-5.41-3.85l-1.25-.29a83.4 83.4 0 0 0 3.81 7.56c1.29 2 2.41 5.32-1.47 5.47 0 0-2.61 3.4-5.25.88 0 0-2.06 3.09-5.38-1.19 0 0-1.94 2.45-2.74 1.51-.8-.94-3.45-2.42-4.22-5.48a110.69 110.69 0 0 0-4-10.49l7.17-8.98Z" fill="#FFBF9D"/><path d="M264.51 154.66c.69 0 29.08-3 29.08-3s2.41-11.54 2.28-14.54c-.13-3-2.15-22.85-2.15-22.85l10.63-5s14.21 47.92 11.11 51.9c-3.1 3.98-8.93 7.55-9.43 7.57-.5.02-27.51 12-46.3 5.77-18.79-6.23 4.78-19.85 4.78-19.85Z" fill="#FFBF9D"/><path d="M239.63 180.53c4.18 4.15 11.38 7.6 23.4 4.6 23.76-5.94 41.57-11 48.65-14.8 7.08-3.8 4.32-20.78 4.92-21.55 1.79-2.32-.18-7.3-2.73-8.08-7.27-2.2-19.92-1.33-20.56-.67-3.73 3.92-.33 8.68-.33 8.68l-31.33 4.11a52.4 52.4 0 0 0-11.51.73" fill="#455A64"/><path d="m250.14 153.55.75-.16a51.54 51.54 0 0 1 10.77-.7l31.32-4.2-.15.35a8.39 8.39 0 0 1-1.44-5.15 6 6 0 0 1 .9-2.66c.25-.4.54-.78.86-1.14.13-.1.26-.17.41-.22l.36-.09c.24-.06.47-.08.7-.13 3.88-.45 7.8-.53 11.69-.24 2.05.13 4.08.4 6.08.84.5.11 1 .26 1.52.39.53.17 1.02.46 1.43.84a7 7 0 0 1 1.77 2.72c.4 1.03.54 2.15.41 3.25a4 4 0 0 1-.63 1.6c-.09.1-.08.37-.09.63v.8c.07 2.15.17 4.34.11 6.54a27.8 27.8 0 0 1-1.51 9.18 9.09 9.09 0 0 1-2.6 3.83c-.61.48-1.29.88-2 1.18-.66.35-1.36.62-2 .94a93.67 93.67 0 0 1-8.2 3c-2.71.87-5.37 1.71-8 2.48-10.46 3-20 5.43-27.94 7.42-1.9.5-3.82.9-5.76 1.19-1.74.24-3.5.34-5.25.28a21.9 21.9 0 0 1-8.19-1.78 18.86 18.86 0 0 1-5.84-4.07 21.76 21.76 0 0 0 5.93 3.89 22.12 22.12 0 0 0 8.11 1.67c1.74.04 3.47-.06 5.19-.32 1.93-.3 3.84-.71 5.72-1.22 8-2 17.46-4.46 27.89-7.52 2.61-.77 5.27-1.59 8-2.49 2.73-.9 5.44-1.85 8.15-3 .66-.31 1.35-.58 2-.93.67-.3 1.3-.67 1.87-1.12a8.5 8.5 0 0 0 2.45-3.61 27.57 27.57 0 0 0 1.45-9.05c.06-2.19 0-4.36-.11-6.52v-1.49l.08-.18.05-.08c.28-.41.47-.88.54-1.37a6.27 6.27 0 0 0-.39-3 6.49 6.49 0 0 0-1.62-2.52 3.29 3.29 0 0 0-1.24-.73l-1.49-.39a39.9 39.9 0 0 0-6-.83c-3.85-.3-7.73-.22-11.57.22-.23 0-.46.06-.68.12l-.32.07-.2.1c-.3.33-.57.68-.81 1.06a5.37 5.37 0 0 0-.84 2.45 8 8 0 0 0 1.34 4.85l.2.31h-.35l-31.34 4a53.99 53.99 0 0 0-8.51.24c-1 .1-1.73.21-2.23.28-.5.07-.75.19-.75.19Z" fill="#263238"/><path d="m165.31 186.12-12.76-22.93L393.92 28.84a12 12 0 0 1 16.32 4.65l1.1 1.97a12 12 0 0 1-4.65 16.32L165.32 186.13v-.01Z" fill="#1E60F6"/><path d="m367.71 64.86-29.55-53.1a2.25 2.25 0 0 1 .87-3.04l13.56-7.55a2.24 2.24 0 0 1 3.05.87l29.55 53.1-17.48 9.72Z" fill="#1E60F6"/><path d="m309.57 40.14 21.54 38.7a3.24 3.24 0 0 0 4.4 1.25l11.82-6.57a3.24 3.24 0 0 0 1.26-4.41l-21.54-38.7a3.24 3.24 0 0 0-4.4-1.26l-11.82 6.58a3.24 3.24 0 0 0-1.26 4.4Z" fill="#1E60F6"/><path d="m328.6 37.88 13.33 23.96 27.13-15.11-13.33-23.96-27.14 15.1Z" fill="#1E60F6"/><path d="M390.39 30.86c.07.12-47.3 26.62-105.78 59.18-58.48 32.56-106 58.86-106 58.73 0-.13 47.29-26.62 105.79-59.19 58.5-32.57 105.92-58.85 105.99-58.72Z" fill="#263238"/><path d="M67.56 230.41c17.8 32 55.33 45 83.83 29.15 28.5-15.85 37.2-54.65 19.4-86.61-17.8-31.96-55.32-45-83.83-29.15-28.51 15.85-37.19 54.65-19.4 86.61Zm87.79-48.86c12.47 22.4 6.38 49.57-13.6 60.68s-46.27 2-58.74-20.42c-12.47-22.42-6.38-49.57 13.59-60.69 19.97-11.12 46.28-1.97 58.75 20.43Z" fill="#1E60F6"/><path d="m193.18 140.3 13.17 23.66a6.52 6.52 0 0 0 8.87 2.53l1.07-.6a6.52 6.52 0 0 0 2.52-8.86l-13.17-23.67a6.52 6.52 0 0 0-8.87-2.52l-1.06.6a6.52 6.52 0 0 0-2.53 8.86Z" fill="#1E60F6"/><path d="m218.47 126.22 13.18 23.66a6.52 6.52 0 0 0 8.86 2.53l1.07-.6a6.52 6.52 0 0 0 2.52-8.86l-13.16-23.66a6.52 6.52 0 0 0-8.87-2.53l-1.07.6a6.52 6.52 0 0 0-2.53 8.86Z" fill="#1E60F6"/><path d="M205.36 133c.13-.07 3.18 5.3 6.83 12s6.5 12.16 6.37 12.23c-.13.07-3.18-5.29-6.83-12s-6.5-12.23-6.37-12.23Z" fill="#263238"/><path d="M193.75 141.25c.13-.07 3.11 5.06 6.67 11.44s6.33 11.63 6.21 11.7c-.12.07-3.11-5.06-6.63-11.39-3.52-6.33-6.37-11.68-6.25-11.75Z" fill="#263238"/><path d="M230.81 119.07c.13-.07 3.24 5.27 6.95 11.93s6.61 12.13 6.48 12.2c-.13.07-3.23-5.28-6.94-11.94-3.71-6.66-6.61-12.12-6.49-12.19Z" fill="#263238"/><path d="M218.6 126.44c.12-.07 3.17 5.24 6.79 11.86 3.62 6.62 6.47 12 6.34 12.11-.13.11-3.16-5.24-6.79-11.86-3.63-6.62-6.47-12.04-6.34-12.11Z" fill="#263238"/><path d="M291.13 90.37a4.72 4.72 0 0 0 2-9.18 4.92 4.92 0 0 0-4.27-8.3 5.9 5.9 0 0 0-8.86-4.84 6.62 6.62 0 0 0-8.15-.18 4.7 4.7 0 0 0-4.17 8" fill="#263238"/><path d="M270.84 72.53h1A20.06 20.06 0 0 1 291.82 91c.75 9.69 1.45 20.4 1.37 25.6-.19 10.8-10.93 12.4-10.93 12.4l.87 12.94-26.13-.85-2.17-46.9c-.92-11.19 4.81-21.04 16.01-21.66Z" fill="#FFBF9D"/><path d="M282.35 129c-5-.01-9.89-1.46-14.09-4.17 0 0 3.46 8.15 14.2 7.21l-.11-3.04Z" fill="#FF9A6C"/><path d="M285.91 101.15a1.53 1.53 0 0 1-1.49 1.54 1.49 1.49 0 0 1-1.43-.83 1.46 1.46 0 0 1-.15-.56 1.55 1.55 0 0 1 1.49-1.55 1.48 1.48 0 0 1 1.58 1.4Z" fill="#263238"/><path d="M289.49 96.29c-.19.2-1.36-.66-3-.66s-2.87.82-3.05.62c-.18-.2.11-.45.64-.84a4.21 4.21 0 0 1 4.83.04c.5.39.67.76.58.84Z" fill="#263238"/><path d="M271 100.43a1.54 1.54 0 0 1-1.5 1.57 1.49 1.49 0 0 1-1.43-.83 1.48 1.48 0 0 1-.15-.56 1.54 1.54 0 0 1 1.49-1.55 1.48 1.48 0 0 1 1.59 1.37Z" fill="#263238"/><path d="M273.23 96.55c-.19.2-1.36-.66-3-.66s-2.87.82-3.05.62c-.18-.2.11-.45.64-.84a4.21 4.21 0 0 1 4.83.04c.5.39.67.75.58.84Z" fill="#263238"/><path d="M279.19 108.84a10.7 10.7 0 0 1 2.69-.48c.42 0 .82-.12.9-.41.04-.44-.06-.87-.28-1.25l-1.24-3.22c-1.72-4.59-3-8.36-2.78-8.42.22-.06 1.73 3.59 3.45 8.17l1.19 3.24c.26.51.33 1.1.21 1.66a1.06 1.06 0 0 1-.7.61c-.23.07-.47.1-.71.1-.9.11-1.82.11-2.73 0Z" fill="#263238"/><path d="M274.68 90.19c-.22.42-1.63 0-3.38-.1s-3.21.23-3.37-.21c-.07-.21.24-.58.87-.92a5.3 5.3 0 0 1 5.15.24c.57.39.83.8.73.99Z" fill="#263238"/><path d="M289.59 89.48c-.35.37-1.72 0-3.36 0s-3 .25-3.35-.15c-.14-.19.08-.57.69-.92a5.38 5.38 0 0 1 2.73-.61c.94.01 1.87.28 2.67.77.58.34.77.72.62.91Z" fill="#263238"/><path d="M290.8 86.1s-2.82-6.75-6.07-8.33c-3.93-1.92-5.63 2.39-9.38 1.33-3.75-1.06-7.5-2.89-11.34 0-4.2 3.16-2.24 5.39-2.52 10.17-1.1 19.36-4.66 24.82-5.63 15.7-.11-1-2.88-1.8-3.28-6-.52-5.47-.71-12.12.53-16 1-3.27 2.91-5.53 6.26-8 5.3-3.92 12.56-4 17.49-3.47 4.93.53 14.41 6.16 13.94 14.6Z" fill="#263238"/><path d="M256.54 104.67a2.92 2.92 0 0 0-3.14-2.83c-2 .19-4.25 1.32-4.13 5.47.21 7.36 7.56 5.63 7.57 5.41.01-.22-.18-4.97-.3-8.05Z" fill="#FFBF9D"/><path d="M255.15 110s-.12.1-.34.2c-.3.14-.64.16-.95.05a3.15 3.15 0 0 1-1.55-2.81c-.04-.63.06-1.26.3-1.84a1.47 1.47 0 0 1 .94-1 .65.65 0 0 1 .77.33c.1.2.06.35.1.36.04.01.15-.13.08-.43a.74.74 0 0 0-.3-.45.94.94 0 0 0-.71-.17 1.8 1.8 0 0 0-1.31 1.18c-.3.64-.43 1.35-.39 2.06.09 1.48.89 2.85 2 3.13a1.35 1.35 0 0 0 1.16-.23c.2-.2.23-.38.2-.38Z" fill="#FF9A6C"/><path d="M256.73 90.41a7 7 0 0 0 3.11 1.45 2.4 2.4 0 0 0 2.67-1.68c.09-.51 0-1.11.3-1.5.3-.39 1.15-.32 1.76-.25 2.14.23 4.65-2.13 5.2-4.21a1.91 1.91 0 0 0 2.56.54 6.84 6.84 0 0 0 1.78-1.57 3.05 3.05 0 0 1 2.53-1.25 7 7 0 0 0 1.6.35c1-.08 1.44-1.21 1.59-2.17.15-.96.27-2.07 1.09-2.59a3.87 3.87 0 0 1 2.63-.07c.89.14 2-.07 2.27-.94a1.77 1.77 0 0 0-.33-1.33 4.76 4.76 0 0 0-5.62-1.82A6.45 6.45 0 0 0 268 72.08a6.55 6.55 0 0 0-10.49 2.36 4.75 4.75 0 0 0-5.38 6.89 4.52 4.52 0 0 0-2.49 3.59c0 1.52 1.45 3 2.92 2.64a2.63 2.63 0 0 0 4.54 2.64" fill="#263238"/><path d="M280.41 75.53v.14c0 .14 0 .22-.05.39-.1.5-.29.98-.54 1.42-.4.7-.96 1.28-1.63 1.73-.88.6-1.93.9-3 .85l.12-.16c.22.66.16 1.38-.15 2a7.58 7.58 0 0 1-1.26 1.8c-.25.31-.52.6-.83.85a2.75 2.75 0 0 1-3.53-.43l.27-.08a5.5 5.5 0 0 1-2.35 3.81 4 4 0 0 1-2.42.79 7.44 7.44 0 0 1-2.38-.53l.2-.09c-.38.9-.99 1.67-1.75 2.27a3.08 3.08 0 0 1-2.56.69 4.06 4.06 0 0 1-3.12-3.18l.17.08c-.78.4-1.67.53-2.53.36a4.17 4.17 0 0 1-1.76-.79c-.32-.25-.6-.56-.82-.9a1.3 1.3 0 0 1-.18-.39 4 4 0 0 0 5.18 1.52l.14-.08v.16a3.8 3.8 0 0 0 2.94 2.94 2.81 2.81 0 0 0 2.33-.65 5.52 5.52 0 0 0 1.64-2.15l.06-.13h.14c.72.3 1.5.46 2.27.5.8 0 1.6-.25 2.24-.73a5.23 5.23 0 0 0 2.22-3.59v-.35l.23.27a2.38 2.38 0 0 0 3.09.38c.29-.23.55-.5.78-.79.5-.51.91-1.09 1.24-1.72a2.4 2.4 0 0 0 .16-1.84l-.06-.18h.19c1.02.06 2.04-.2 2.89-.77a5.24 5.24 0 0 0 1.62-1.65c.37-.54.64-1.14.8-1.77Z" fill="#455A64"/><path d="M279.17 114.33c-.06-.27-1.85.17-3.51-1.05-1.66-1.22-1.93-3.18-2.18-3.13-.25.05-.25.52-.07 1.33.25 1.06.86 2 1.73 2.64a4 4 0 0 0 2.9.76c.77-.12 1.17-.43 1.13-.55Z" fill="#263238"/><path d="m334.63 394.12 7.1 24.19s27 .9 28.73 5.25L324 439l-12.62-37.25 23.25-7.63Z" fill="#455A64"/><path d="M326.71 421.08a2 2 0 0 0-.59 2.6 1.92 1.92 0 0 0 2.57.61 2.1 2.1 0 0 0 .61-2.76 2 2 0 0 0-2.75-.34" fill="#E0E0E0"/><path d="M367.84 421.81s2.37.21 2.62 1.75L324 439l-1.12-3.81 44.92-13.4" fill="#263238"/><path d="M342.4 417.82c.07.23-1 .71-1.9 1.81-.9 1.1-1.15 2.25-1.39 2.23-.24-.02-.33-1.44.75-2.75s2.52-1.51 2.54-1.29Z" fill="#fff"/><path d="M347.94 418.21c.13.21-.72.92-1.18 2.13-.46 1.21-.33 2.31-.56 2.37-.23.06-.8-1.17-.21-2.67.59-1.5 1.88-2.04 1.95-1.83Z" fill="#fff"/><path d="M352.65 423.12c-.19.12-.88-.91-.71-2.34.17-1.43 1.06-2.29 1.22-2.13.16.16-.28 1-.4 2.22-.12 1.22.11 2.13-.11 2.25Z" fill="#fff"/><path d="M340.17 412.49c0 .24-1.17.27-2.42.78s-2.12 1.25-2.3 1.1c-.18-.15.51-1.28 2-1.87 1.49-.59 2.78-.23 2.72-.01Z" fill="#fff"/><path d="m226.29 394.33-10.11 23.1s20.09 18 18.64 22.48l-45.5-18 14.27-36.64 22.7 9.06Z" fill="#455A64"/><path d="M202.89 409.9a2 2 0 0 0-2.12 1.61 1.93 1.93 0 0 0 1.58 2.12 2.11 2.11 0 0 0 2.24-1.72c0-1-.91-2.14-1.89-2" fill="#E0E0E0"/><path d="M233.93 436.89s1.68 1.69.89 3l-45.5-18 1.59-3.63 43 18.6" fill="#263238"/><path d="M217 417.49c-.09.22-1.24-.12-2.62.16-1.38.28-2.33 1-2.5.82-.17-.18.67-1.32 2.34-1.63 1.67-.31 2.92.46 2.78.65Z" fill="#fff"/><path d="M221 421.35c0 .23-1.14.23-2.27.87-1.13.64-1.73 1.55-2 1.46-.27-.09.14-1.41 1.55-2.18 1.41-.77 2.8-.36 2.72-.15Z" fill="#fff"/><path d="M221.46 428.13c-.22 0-.09-1.26 1-2.25s2.28-1.07 2.3-.85c.02.22-.88.62-1.73 1.45s-1.34 1.72-1.57 1.65Z" fill="#fff"/><path d="M218.73 412c-.17.16-1.07-.54-2.36-1-1.29-.46-2.42-.4-2.46-.63-.04-.23 1.21-.66 2.72-.16 1.51.5 2.28 1.63 2.1 1.79Z" fill="#fff"/><path d="m243.32 267.43-15.94 64.66s-28.75 48.4-33.62 72.62l26.3 10.34s19.13-46.65 24.74-55.21a68.92 68.92 0 0 1 8.66-10.67c2.1-2.09 3.61-4.7 4.37-7.56l12.07-46.13-26.58-28.05Z" fill="#263238"/><path d="M236.53 257.09s2.22 17.32 18.89 25l35.12 57.2s2.75 18.6 8 34.27a4621.32 4621.32 0 0 0 15.86 45.87l28.89-10.8-18.41-62.94-3-21.83-28.66-73-24.62-14.76-32.07 20.99Z" fill="#263238"/><path d="m236.53 257.09.53-.36 1.59-1.06 6.24-4.12L268.55 236l.08-.05.08.05 24.64 14.73v.06l28.72 72.93v.05c.95 6.9 2 14.29 3 21.83 5 17 10.3 35.19 15.78 53.93l2.64 9 .07.23-.23.08-28.89 10.8-.25.09-.08-.25-14.41-41.73a188.79 188.79 0 0 1-3.22-9.87c-.94-3.28-1.79-6.54-2.56-9.76a253.67 253.67 0 0 1-3.7-18.83v.08l-34.92-57.22.06.05a32.6 32.6 0 0 1-11-8.38 34.65 34.65 0 0 1-7.4-14.66c-.17-.68-.27-1.21-.33-1.57-.06-.36-.07-.54-.07-.54s0 .18.11.53c.11.35.17.88.36 1.57.52 2.03 1.2 4 2.06 5.92 1.38 3.1 3.2 6 5.42 8.57a32.64 32.64 0 0 0 11 8.28l35.19 57.16v.05c1 6.08 2.2 12.36 3.72 18.79.77 3.21 1.61 6.46 2.56 9.73.95 3.27 2.07 6.53 3.22 9.84l14.44 41.72-.33-.15 28.89-10.8-.16.31-2.64-9-15.76-53.94c-1-7.54-2.06-14.93-3-21.83v.06l-28.61-73 .08.09-24.6-14.79h.15L245 251.64l-6.3 4.06-1.62 1.05-.55.34Z" fill="#455A64"/><path d="M252 133.52s-8.42 6.48-12.51 13.72c-4.9 8.67-5.43 21.52-5.58 41.48-.15 18.46 2.61 23.59 1.55 30.55-2.09 13.59-3.64 59.2-3.64 59.2s27-10.37 32.24-15l5.27-4.58 33.79 11.17-6.82-41.52-4.68-51.75-6-27.45-1-10.77-29.02-11.66-3.6 6.61Z" fill="#455A64"/><path d="M283.53 138c.35.07-.83 2.44-2.91 5.92l-.09.14-.16-.06a626.02 626.02 0 0 0-11.05-4.12c-4.78-1.74-9.1-3.36-12.19-4.62a95.74 95.74 0 0 1-3.64-1.55 8.3 8.3 0 0 1-1.3-.64c.47.1.94.26 1.38.46l3.69 1.39 12.24 4.47c4.24 1.55 8.11 3 11 4.24l-.24.08c2.18-3.41 3.47-5.66 3.27-5.71Z" fill="#263238"/><path d="M318.45 116.44s-2.14-3.33-4.16-6.4c-2.02-3.07-5.08-4.58-5.57-6.18-.49-1.6-3.18-8.73-3.61-10.5a22.78 22.78 0 0 1-.52-5.22s2.21-.94 3.27 2.22c.64 1.9 2.68 8.35 3.12 8.67.44.32 1-.15 1-.15-.9-2.41-1.7-4.87-2.35-7.37-.1-1.17.31-8.93.31-8.93a2.34 2.34 0 0 1 2.66 1.49c1.05 2 1.09 7 1.09 7l1.59 5.58-.56-5.52.8-10.15a3.82 3.82 0 0 1 3.2 3c.67 2.74-.22 6.56.23 7.37.45.81.94 5.71.94 5.71s.55-11.9 1.82-12.24c1.27-.34 2.31.92 2.13 3.32-.18 2.4-.23 7.48.43 9.72s7.43 11 6.88 14.84a64.6 64.6 0 0 0-.63 7h-11.6l-.47-3.26Z" fill="#FFBF9D"/><path d="M277.76 146.41c.65.25 28.36 7.11 28.36 7.11s6.19-10 7.1-12.9c.91-2.9 5.78-22.22 5.78-22.22l11.71-1.1s-3 49.89-7.24 52.58c-4.24 2.69-11 4.05-11.44 3.9-.44-.15-29.95 1.9-45.5-10.35s11.23-17.02 11.23-17.02Z" fill="#FFBF9D"/><path opacity=".3" d="M257.9 172.82a21.16 21.16 0 0 0 11.33 6.66c7.35 1.62 23 4.49 23 4.49l-.76-7.68-34-3.64" fill="#000"/><path d="M245.56 162.26c2.52 5.32 8.12 11 20.43 12.29 24.37 2.52 42.82 3.86 50.79 2.66 7.97-1.2 11.14-18.07 12-18.59 2.48-1.56 2.32-6.92.18-8.52-6.08-4.55-18.27-8-19.09-7.63-4.85 2.41-3.27 8.05-3.27 8.05l-30.9-6.82a52.03 52.03 0 0 0-11.07-3.22" fill="#455A64"/><path d="M264.63 140.48s.26 0 .76.1 1.25.22 2.21.43c2.79.63 5.52 1.5 8.16 2.58l30.88 6.72-.26.28a8.31 8.31 0 0 1 .4-5.33c.4-.86 1-1.62 1.74-2.2.38-.3.78-.56 1.21-.78.15-.04.3-.07.45-.07h.37c.25 0 .47.08.71.12 3.8.9 7.5 2.15 11.07 3.75 1.88.82 3.7 1.77 5.43 2.86.43.28.86.59 1.29.89.44.34.8.77 1.06 1.27.49.98.74 2.06.74 3.16a6.78 6.78 0 0 1-.72 3.2c-.28.51-.67.95-1.14 1.29-.12.06-.2.32-.3.56l-.26.75c-.66 2-1.32 4.14-2.12 6.2a28.11 28.11 0 0 1-4.54 8.16 8 8 0 0 1-6 3.14c-.75.11-1.5.13-2.24.19-3 .18-5.88.14-8.73.06-2.85-.08-5.64-.23-8.35-.4a718.93 718.93 0 0 1-28.8-2.54c-1.95-.17-3.9-.45-5.82-.84-1.7-.37-3.38-.87-5-1.52a22.06 22.06 0 0 1-7.09-4.46 18.91 18.91 0 0 1-4.11-5.82s.28.57.92 1.6c.92 1.5 2.04 2.87 3.33 4.07a21.84 21.84 0 0 0 7.06 4.34c1.62.63 3.3 1.12 5 1.47 1.92.37 3.85.63 5.8.79 8.18.81 17.93 1.76 28.78 2.44 2.72.16 5.5.3 8.34.37s5.75.11 8.69-.06c.73-.07 1.48-.09 2.21-.2a7.96 7.96 0 0 0 2.14-.41 8.56 8.56 0 0 0 3.54-2.56c1.92-2.4 3.42-5.1 4.44-8 .8-2 1.45-4.11 2.11-6.17l.28-.78c0-.12.1-.25.16-.39l.13-.22a.8.8 0 0 1 .13-.13l.07-.06c.42-.29.76-.67 1-1.11.47-.93.7-1.96.66-3a6.6 6.6 0 0 0-.67-2.92c-.22-.43-.53-.8-.91-1.1-.43-.29-.84-.6-1.27-.87a39.85 39.85 0 0 0-5.36-2.83 61.34 61.34 0 0 0-10.95-3.74c-.23 0-.46-.1-.68-.12h-.55c-.4.21-.77.46-1.12.73a5.4 5.4 0 0 0-1.63 2 8 8 0 0 0-.39 5l.09.35-.35-.08-30.83-6.9c-2.62-1.1-5.32-2-8.08-2.68-1-.23-1.69-.39-2.19-.49-.5-.1-.9-.09-.9-.09Z" fill="#263238"/><path d="M316.78 160.17a6.53 6.53 0 0 1-2-.87 20.95 20.95 0 0 1-7.48-7.24 7.25 7.25 0 0 1-.95-2 44.34 44.34 0 0 0 4.59 5.69 40.94 40.94 0 0 0 5.84 4.42Z" fill="#263238"/><path d="M99.22 242.53s6.2.33 10 2.74 10 6.13 12.55 10.77c1.17 2.13-2.16 2.58-3.8 1.34-1.64-1.24-4.17-3.56-5.42-3.85l-1.25-.28a82.32 82.32 0 0 0 3.81 7.55c1.29 2 2.41 5.32-1.46 5.48 0 0-2.62 3.4-5.26.88 0 0-2.06 3.08-5.38-1.19 0 0-1.93 2.44-2.74 1.51-.81-.93-3.45-2.42-4.22-5.48a107.03 107.03 0 0 0-4-10.49l7.17-8.98Z" fill="#FFBF9D"/><path d="M46.46 161a14.92 14.92 0 0 0-7.79 5.85c-2.38 3.66-3.11 10-2.43 14.72 1.44 9.95 6 26.74 8.57 37.52.88 3.72 2.69 10.38 8 13.91l37.89 22.72 10.13-15-34.54-28.15-6.83-38.58-13-12.99Z" fill="#455A64"/><path d="M39.91 198.92c.05.13.1.26.12.39l.32 1.17 1.15 4.53 4.19 16.75c1.03 3.85 3.2 7.3 6.24 9.88a37.52 37.52 0 0 0 5.54 3.68l6.09 3.68 27.29 16.48-.35.08 3.65-5.41 6.48-9.63.05.35-34.23-28.19h-.06v-.07c-2.26-9.51-3.9-17.3-4.94-22.72a234.9 234.9 0 0 1-1.34-7.9 6.9 6.9 0 0 1-.07-.56c.05.18.1.36.13.55l.29 1.63c.27 1.43.66 3.54 1.22 6.24a608.1 608.1 0 0 0 5.1 22.67l-.07-.11L101 240.47l.18.15-.13.19-6.48 9.63-3.65 5.41-.13.2-.22-.12-27.25-16.53-6.08-3.69a38.3 38.3 0 0 1-5.58-3.71 19.87 19.87 0 0 1-6.31-10.11c-1.71-7.09-3.08-12.82-4-16.79-.45-2-.81-3.49-1.06-4.55l-.29-1.23a2.93 2.93 0 0 1-.09-.4Z" fill="#263238"/><path d="M40.53 166.33c.24-.15.5-.27.77-.33.73-.22 1.47-.4 2.22-.5 2.5-.39 5.07-.04 7.39 1a14.74 14.74 0 0 1 5.52 5 9 9 0 0 1 1 2.05c.1.26.17.53.18.81-.43-.92-.93-1.8-1.49-2.65a15.67 15.67 0 0 0-5.44-4.71 13.8 13.8 0 0 0-7.12-1.1c-1.87.15-3 .52-3.03.43Z" fill="#263238"/></g><defs><clipPath id="a"><path fill="#fff" d="M0 0h676v440H0z"/></clipPath></defs></svg>