<svg width="600" height="600" viewBox="0 0 600 600" fill="none" xmlns="http://www.w3.org/2000/svg">
<g clip-path="url(#clip0_1051_43309)">
<path d="M637 392.88H37V393.18H637V392.88Z" fill="#EBEBEB"/>
<path d="M576.881 404.304H467.801V404.604H576.881V404.304Z" fill="#EBEBEB"/>
<path d="M434.464 401.052H404.596V401.352H434.464V401.052Z" fill="#EBEBEB"/>
<path d="M502.732 415.452H456.424V415.752H502.732V415.452Z" fill="#EBEBEB"/>
<path d="M127.119 413.436H99.9512V413.736H127.119V413.436Z" fill="#EBEBEB"/>
<path d="M170.069 413.436H137.801V413.736H170.069V413.436Z" fill="#EBEBEB"/>
<path d="M307.181 408.372H250.973V408.672H307.181V408.372Z" fill="#EBEBEB"/>
<path d="M321.4 339.36H89.6916C87.8764 339.357 86.1366 338.634 84.8542 337.349C83.5718 336.064 82.8516 334.323 82.8516 332.508V6.792C82.8674 4.98723 83.5946 3.26157 84.8753 1.98986C86.156 0.71815 87.8867 0.00309167 89.6916 0H321.4C323.217 0 324.96 0.721905 326.245 2.0069C327.53 3.2919 328.252 5.03474 328.252 6.852V332.508C328.252 334.325 327.53 336.068 326.245 337.353C324.96 338.638 323.217 339.36 321.4 339.36ZM89.6916 0.240001C87.9559 0.24318 86.2925 0.934878 85.0664 2.16327C83.8402 3.39167 83.1516 5.05638 83.1516 6.792V332.508C83.1516 334.244 83.8402 335.908 85.0664 337.137C86.2925 338.365 87.9559 339.057 89.6916 339.06H321.4C323.136 339.057 324.801 338.366 326.029 337.137C327.257 335.909 327.948 334.245 327.952 332.508V6.792C327.948 5.05528 327.257 3.39059 326.029 2.16254C324.801 0.934488 323.136 0.243173 321.4 0.240001H89.6916Z" fill="#EBEBEB"/>
<path d="M580.972 339.36H349.252C347.436 339.357 345.695 338.634 344.411 337.35C343.127 336.065 342.404 334.324 342.4 332.508V6.792C342.419 4.98614 343.149 3.26049 344.432 1.98911C345.714 0.71773 347.446 0.00305795 349.252 0H580.972C582.775 0.0062454 584.503 0.722699 585.781 1.99407C587.059 3.26545 587.785 4.9893 587.8 6.792V332.508C587.8 334.321 587.082 336.06 585.802 337.345C584.522 338.629 582.785 339.354 580.972 339.36ZM349.252 0.240001C347.516 0.243173 345.851 0.934488 344.623 2.16254C343.395 3.39059 342.704 5.05528 342.7 6.792V332.508C342.704 334.245 343.395 335.909 344.623 337.137C345.851 338.366 347.516 339.057 349.252 339.06H580.972C582.709 339.057 584.374 338.366 585.602 337.137C586.83 335.909 587.521 334.245 587.524 332.508V6.792C587.521 5.05528 586.83 3.39059 585.602 2.16254C584.374 0.934488 582.709 0.243173 580.972 0.240001H349.252Z" fill="#EBEBEB"/>
<path d="M548.439 386.064H570.939V261.24H548.439V386.064Z" fill="#F0F0F0"/>
<path d="M318.783 392.88L566.619 392.88V386.052L318.783 386.052V392.88Z" fill="#F0F0F0"/>
<path d="M548.441 261.228H314.465V386.052H548.441V261.228Z" fill="#F5F5F5"/>
<path d="M550.779 261.228H573.771V255.276H550.779V261.228Z" fill="#F0F0F0"/>
<path d="M550.781 255.276H311.633V261.228H550.781V255.276Z" fill="#FAFAFA"/>
<path d="M540.364 306.276H322.6V273.732H540.364V306.276ZM324.064 304.8H538.864V275.28H324.064V304.8Z" fill="#E0E0E0"/>
<path d="M540.364 373.56H322.6V315.3H540.364V373.56ZM324.064 372H538.864V316.8H324.064V372Z" fill="#E0E0E0"/>
<path d="M353.884 279.324H509.02C510.12 279.324 511.012 278.432 511.012 277.332V276.468C511.012 275.368 510.12 274.476 509.02 274.476H353.884C352.784 274.476 351.892 275.368 351.892 276.468V277.332C351.892 278.432 352.784 279.324 353.884 279.324Z" fill="#E0E0E0"/>
<path d="M353.884 320.904H509.02C510.12 320.904 511.012 320.012 511.012 318.912V318.048C511.012 316.948 510.12 316.056 509.02 316.056H353.884C352.784 316.056 351.892 316.948 351.892 318.048V318.912C351.892 320.012 352.784 320.904 353.884 320.904Z" fill="#E0E0E0"/>
<path d="M105.519 392.88H114.867L114.867 234H105.519L105.519 392.88Z" fill="#E6E6E6"/>
<path d="M102.58 392.88H109.072L109.072 234H102.58L102.58 392.88Z" fill="#F0F0F0"/>
<path d="M211.78 234H100.564V245.484H211.78V234Z" fill="#F0F0F0"/>
<path d="M215.968 392.88H225.316L225.316 245.496H215.968L215.968 392.88Z" fill="#E6E6E6"/>
<path d="M213.028 392.88H219.52L219.52 245.496H213.028L213.028 392.88Z" fill="#F0F0F0"/>
<path d="M275.14 392.88H284.488V245.496H275.14V392.88Z" fill="#E6E6E6"/>
<path d="M272.176 392.88H278.668V245.496H272.176V392.88Z" fill="#F0F0F0"/>
<path d="M164.691 392.88H174.039L174.039 245.496H164.691L164.691 392.88Z" fill="#E6E6E6"/>
<path d="M161.74 392.88H168.232L168.232 245.496H161.74L161.74 392.88Z" fill="#F0F0F0"/>
<path d="M211.792 245.484H284.488V234H211.792V245.484Z" fill="#E6E6E6"/>
<path d="M202.36 145.164H112.492L120.448 75.6001H194.404L202.36 145.164Z" fill="#EBEBEB"/>
<path d="M162.315 145.164H152.535V234H162.315V145.164Z" fill="#F5F5F5"/>
<path d="M177.4 234H137.488C137.488 232.873 137.936 231.793 138.732 230.996C139.529 230.2 140.61 229.752 141.736 229.752H173.116C173.677 229.747 174.233 229.854 174.753 230.065C175.273 230.276 175.745 230.589 176.143 230.984C176.542 231.378 176.858 231.848 177.074 232.366C177.289 232.884 177.4 233.439 177.4 234Z" fill="#F0F0F0"/>
<path d="M162.315 152.856L152.535 148.188V145.164H162.315V152.856Z" fill="#E0E0E0"/>
<path d="M199.469 233.748H241.673L246.893 176.424H204.689L199.469 233.748Z" fill="#E6E6E6"/>
<path d="M197.283 233.748H239.487L244.707 176.424H202.503L197.283 233.748Z" fill="#F0F0F0"/>
<path d="M233.715 227.4L237.783 182.772H208.275L204.207 227.4H233.715Z" fill="white"/>
<path d="M546.748 192.636H461.08L444.412 252H530.08L546.748 192.636Z" fill="#E6E6E6"/>
<path d="M530.081 252L529.745 255.276H444.053L444.401 252H530.081Z" fill="#E6E6E6"/>
<path d="M544.119 192.636H458.44L441.771 252H527.451L544.119 192.636Z" fill="#F0F0F0"/>
<path d="M526.481 248.124L540.269 196.716C540.461 195.984 540.089 195.348 539.465 195.348H460.696C460.381 195.385 460.086 195.522 459.853 195.737C459.62 195.953 459.462 196.237 459.401 196.548L445.624 247.92C445.42 248.652 445.792 249.288 446.416 249.288H525.185C525.496 249.257 525.79 249.127 526.023 248.918C526.256 248.708 526.416 248.431 526.481 248.124Z" fill="white"/>
<path d="M505.12 252L504.772 255.276H410.428L410.776 252H505.12Z" fill="#F0F0F0"/>
<path d="M564.497 37.728H356.633V166.02H564.497V37.728Z" fill="#F0F0F0"/>
<path d="M558.591 43.6318H362.535V160.128H558.591V43.6318Z" fill="white"/>
<path d="M564.495 166.032H566.619V37.7402H564.495V166.032Z" fill="#E6E6E6"/>
<path d="M337 447.072C465.499 447.072 569.668 440.99 569.668 433.488C569.668 425.986 465.499 419.904 337 419.904C208.501 419.904 104.332 425.986 104.332 433.488C104.332 440.99 208.501 447.072 337 447.072Z" fill="#F5F5F5"/>
<path d="M289.515 17.9999C295.115 13.0159 302.367 9.75189 311.271 8.20789C320.175 6.66389 329.587 7.64389 339.507 11.1479C349.395 14.6519 358.439 20.9799 366.639 30.1319C374.264 38.6439 379.415 47.5599 382.095 56.8799C384.769 65.4984 385.014 74.6872 382.803 83.4359C380.703 91.5452 376.233 98.8442 369.963 104.4C365.502 108.583 360.058 111.575 354.135 113.1C348.847 114.417 343.388 114.919 337.947 114.588C332.723 114.252 323.659 113.36 310.756 111.912C307.735 111.583 304.698 111.415 301.659 111.408C299.578 111.394 297.503 111.632 295.479 112.116C293.874 112.525 292.314 113.096 290.823 113.82C289.383 114.528 286.947 115.836 283.491 117.768C276.387 122.112 270.211 121.352 264.963 115.488C263.66 114.101 262.644 112.47 261.974 110.688C261.305 108.907 260.995 107.01 261.063 105.108C261.199 101.244 263.231 97.5519 267.159 94.0319C275.16 86.3653 285.877 82.1874 296.955 82.4159C303.262 82.6264 309.554 83.155 315.807 83.9999C322.455 84.8039 327.363 85.3079 330.531 85.4759C333.677 85.6556 336.831 85.393 339.903 84.6959C342.968 84.0169 345.802 82.5483 348.123 80.4359C350.395 78.4636 352.215 76.0242 353.457 73.2842C354.7 70.5443 355.337 67.5684 355.323 64.5599C355.419 58.1599 353.019 52.2119 348.123 46.7159C342.339 40.2599 336.455 36.9679 330.471 36.8399C324.487 36.7119 317.363 38.4319 309.099 41.9999C300.691 45.9439 293.991 45.1439 288.999 39.5999C287.579 38.0769 286.492 36.2742 285.808 34.3071C285.124 32.3399 284.858 30.2517 285.027 28.1759C285.064 26.2669 285.479 24.3841 286.249 22.6371C287.02 20.8901 288.13 19.3138 289.515 17.9999ZM231.507 147.228C228.372 143.821 226.621 139.366 226.599 134.736C226.527 130 228.571 125.764 232.731 122.028C234.443 120.444 236.465 119.233 238.669 118.471C240.873 117.709 243.211 117.412 245.535 117.6C247.89 117.742 250.191 118.358 252.302 119.409C254.414 120.461 256.291 121.927 257.823 123.72C259.399 125.425 260.615 127.43 261.401 129.615C262.186 131.8 262.525 134.12 262.396 136.438C262.267 138.756 261.674 141.025 260.652 143.109C259.629 145.194 258.198 147.051 256.443 148.572C252.339 152.244 247.939 153.812 243.243 153.276C238.707 152.819 234.512 150.658 231.507 147.228Z" fill="#1E60F6"/>
<g opacity="0.5">
<path d="M396.819 98.4601C398.504 94.4566 401.297 91.0177 404.871 88.5481C409.07 85.5562 413.974 83.704 419.103 83.1721C425.078 82.5292 431.118 83.4128 436.659 85.7401C441.892 87.6764 446.619 90.774 450.483 94.8001C453.831 98.2842 456.156 102.623 457.203 107.34C458.168 111.749 457.791 116.346 456.123 120.54C454.99 123.616 453.1 126.357 450.627 128.508C448.412 130.412 445.919 131.966 443.235 133.116C440.659 134.212 436.103 135.964 429.567 138.372C428.038 138.933 426.544 139.582 425.091 140.316C424.091 140.807 423.156 141.419 422.307 142.14C421.632 142.718 421.02 143.365 420.483 144.072C419.967 144.756 419.115 145.968 417.927 147.672C415.527 151.464 412.387 152.584 408.507 151.032C407.549 150.681 406.67 150.144 405.92 149.452C405.17 148.76 404.565 147.927 404.139 147C403.71 145.915 403.513 144.754 403.558 143.588C403.604 142.423 403.891 141.28 404.403 140.232C406.392 134.641 410.518 130.066 415.875 127.512C418.941 126.084 422.077 124.81 425.271 123.696C428.643 122.496 431.115 121.548 432.675 120.876C434.222 120.205 435.668 119.32 436.971 118.248C438.275 117.184 439.28 115.798 439.887 114.228C440.501 112.739 440.786 111.135 440.722 109.525C440.658 107.916 440.246 106.339 439.515 104.904C437.909 101.745 435.144 99.329 431.799 98.1601C427.479 96.4561 423.879 96.2921 420.999 97.6681C417.501 99.5293 414.441 102.115 412.023 105.252C408.935 109.164 405.527 110.364 401.799 108.852C400.753 108.461 399.801 107.857 399.001 107.078C398.202 106.299 397.573 105.363 397.155 104.328C396.712 103.421 396.455 102.435 396.397 101.428C396.339 100.42 396.483 99.4116 396.819 98.4601ZM400.095 174.3C397.776 173.421 395.868 171.71 394.743 169.5C394.166 168.338 393.855 167.063 393.83 165.766C393.805 164.47 394.067 163.183 394.599 162C395.031 160.826 395.704 159.756 396.574 158.857C397.444 157.958 398.492 157.251 399.651 156.78C400.813 156.284 402.064 156.028 403.329 156.028C404.593 156.028 405.844 156.284 407.007 156.78C408.17 157.218 409.234 157.886 410.135 158.743C411.036 159.6 411.756 160.629 412.252 161.769C412.748 162.91 413.009 164.138 413.021 165.382C413.034 166.625 412.796 167.858 412.323 169.008C411.908 170.24 411.226 171.365 410.326 172.303C409.425 173.241 408.329 173.968 407.115 174.432C404.842 175.276 402.334 175.229 400.095 174.3Z" fill="#1E60F6"/>
</g>
<g opacity="0.1">
<path d="M477.531 91.3917C476.446 89.6839 475.868 87.7032 475.863 85.6797C475.823 83.2823 476.411 80.9161 477.567 78.8157C478.902 76.3695 480.839 74.3044 483.195 72.8157C485.32 71.3198 487.758 70.3267 490.323 69.9117C492.546 69.5515 494.825 69.8088 496.911 70.6557C498.865 71.4469 500.537 72.8053 501.711 74.5557C502.593 75.8023 503.146 77.2509 503.319 78.7677C503.457 80.1178 503.392 81.4808 503.127 82.8117C502.863 84.0997 502.327 86.3077 501.519 89.4357C501.337 90.1718 501.193 90.9168 501.087 91.6677C500.947 92.5922 501.021 93.5363 501.303 94.4277C501.435 94.8117 501.675 95.4597 502.035 96.3717C502.254 96.7454 502.397 97.1588 502.455 97.588C502.513 98.0172 502.486 98.4536 502.374 98.8721C502.263 99.2906 502.069 99.6828 501.805 100.026C501.541 100.369 501.211 100.657 500.835 100.872C500.054 101.42 499.087 101.636 498.147 101.472C497.617 101.352 497.118 101.123 496.682 100.798C496.245 100.474 495.882 100.061 495.615 99.5877C494.77 98.3906 494.174 97.0357 493.863 95.6037C493.615 94.3624 493.586 93.087 493.779 91.8357C494.038 90.283 494.379 88.7449 494.799 87.2277C495.231 85.6077 495.519 84.4197 495.675 83.6277C495.826 82.8372 495.87 82.0301 495.807 81.2277C495.739 80.4449 495.47 79.6929 495.027 79.0437C494.618 78.4163 494.078 77.8846 493.444 77.4849C492.81 77.0852 492.098 76.8269 491.355 76.7277C489.706 76.5031 488.034 76.9339 486.699 77.9277C485.942 78.3486 485.279 78.9221 484.755 79.612C484.23 80.3019 483.854 81.0932 483.651 81.9357C483.443 83.7695 483.627 85.6266 484.191 87.3837C484.875 89.6037 484.431 91.2237 482.883 92.2677C482.458 92.564 481.977 92.7692 481.469 92.8704C480.961 92.9716 480.437 92.9666 479.931 92.8557C479.453 92.7852 478.995 92.6192 478.582 92.3677C478.17 92.1162 477.813 91.7843 477.531 91.3917ZM507.471 110.184C506.52 110.834 505.362 111.112 504.219 110.964C503.616 110.878 503.039 110.658 502.533 110.319C502.026 109.98 501.602 109.532 501.291 109.008C500.956 108.532 500.723 107.992 500.607 107.422C500.492 106.852 500.496 106.264 500.619 105.696C500.736 105.119 500.967 104.57 501.298 104.084C501.63 103.598 502.056 103.183 502.551 102.864C503.026 102.533 503.564 102.301 504.131 102.184C504.698 102.066 505.284 102.065 505.851 102.18C506.422 102.285 506.964 102.507 507.445 102.831C507.926 103.155 508.336 103.575 508.647 104.064C509.009 104.549 509.26 105.108 509.382 105.701C509.505 106.294 509.495 106.907 509.355 107.496C509.086 108.596 508.414 109.555 507.471 110.184Z" fill="#1E60F6"/>
</g>
<path d="M259.949 425.544L250.877 423.192L256.289 402.444L265.361 404.796L259.949 425.544Z" fill="#FFC3BD"/>
<path d="M250.782 420.792L260.91 423.996C260.994 424.017 261.073 424.054 261.142 424.106C261.212 424.158 261.27 424.224 261.314 424.299C261.357 424.374 261.386 424.457 261.397 424.543C261.408 424.629 261.401 424.716 261.378 424.8L259.242 432.66C259.092 433.072 258.789 433.411 258.395 433.606C258.002 433.8 257.548 433.835 257.13 433.704C253.626 432.504 252.006 431.808 247.53 430.392C244.782 429.528 238.158 427.572 234.33 426.372C230.502 425.172 231.93 421.572 233.598 421.8C241.302 422.604 245.778 421.956 248.982 420.84C249.56 420.626 250.193 420.609 250.782 420.792Z" fill="#263238"/>
<path opacity="0.2" d="M265.362 404.808L256.29 402.456L253.506 413.148L262.578 415.5L265.362 404.808Z" fill="black"/>
<path d="M288.222 192.636C288.222 192.636 271.614 271.56 267.198 297.396C262.398 325.692 251.85 406.704 251.85 406.704L267.27 412.308C267.27 412.308 291.402 326.4 295.062 299.196C302.73 272.604 322.158 192.636 322.158 192.636H288.222Z" fill="#1E60F6"/>
<path opacity="0.3" d="M309.545 218.4C304.157 231.336 302.201 254.892 303.137 268.98C307.409 252.348 312.149 233.352 315.821 218.472C314.633 214.38 313.001 210.084 309.545 218.4Z" fill="black"/>
<path d="M266.958 414.132L250.422 409.356L251.046 402.36L270.726 407.892L266.958 414.132Z" fill="#263238"/>
<path d="M247.06 421.296C247.879 421.531 248.719 421.679 249.568 421.74C249.611 421.748 249.655 421.741 249.694 421.722C249.733 421.702 249.764 421.671 249.784 421.632C249.807 421.598 249.819 421.559 249.819 421.518C249.819 421.478 249.807 421.438 249.784 421.404C249.556 421.116 247.576 418.632 246.34 418.704C246.198 418.71 246.06 418.751 245.938 418.824C245.816 418.898 245.715 419.001 245.644 419.124C245.522 419.297 245.448 419.499 245.429 419.71C245.41 419.92 245.447 420.132 245.536 420.324C245.908 420.824 246.45 421.17 247.06 421.296ZM249.1 421.296C247.372 421.092 246.208 420.672 245.92 420.096C245.864 419.972 245.844 419.834 245.86 419.699C245.877 419.563 245.931 419.435 246.016 419.328C246.05 419.267 246.098 419.215 246.157 419.178C246.216 419.14 246.283 419.117 246.352 419.112C247 419.088 248.272 420.3 249.1 421.272V421.296Z" fill="#1E60F6"/>
<path d="M249.521 421.74H249.629C249.664 421.735 249.698 421.721 249.727 421.7C249.756 421.679 249.78 421.652 249.797 421.62C249.797 421.512 250.901 419.076 250.277 417.948C250.192 417.804 250.077 417.679 249.941 417.582C249.804 417.485 249.649 417.417 249.485 417.384C249.305 417.332 249.112 417.34 248.937 417.407C248.761 417.474 248.613 417.597 248.513 417.756C247.973 418.644 248.705 420.876 249.425 421.668C249.448 421.702 249.482 421.727 249.521 421.74ZM249.521 417.828C249.604 417.853 249.68 417.895 249.746 417.95C249.812 418.006 249.866 418.075 249.905 418.152C250.122 419.143 249.999 420.179 249.557 421.092C248.993 420.204 248.561 418.548 248.921 417.972C248.921 417.864 249.101 417.744 249.413 417.804L249.521 417.828Z" fill="#1E60F6"/>
<path d="M301.072 125.04C300.268 126.984 299.5 128.712 298.672 130.488C297.844 132.264 296.956 134.004 296.056 135.744C294.232 139.212 292.312 142.632 290.2 145.968C285.998 152.902 280.916 159.263 275.08 164.892L274.864 165.108C274.558 165.384 274.22 165.621 273.856 165.816C272.857 166.355 271.759 166.685 270.628 166.788C269.981 166.834 269.331 166.834 268.684 166.788C267.716 166.725 266.753 166.593 265.804 166.392C264.1 166.032 262.588 165.588 261.1 165.12C258.148 164.184 255.4 163.044 252.7 161.892C250 160.74 247.336 159.492 244.72 158.136C242.104 156.78 239.536 155.424 236.992 153.888C236.402 153.528 235.96 152.969 235.745 152.312C235.531 151.655 235.557 150.943 235.82 150.304C236.083 149.665 236.566 149.14 237.181 148.825C237.796 148.51 238.504 148.424 239.176 148.584C244.744 149.928 250.3 151.428 255.772 152.76C258.496 153.444 261.22 154.044 263.836 154.548C265.069 154.797 266.315 154.978 267.568 155.088C268.04 155.115 268.513 155.115 268.984 155.088C269.164 155.088 269.236 155.088 269.188 155.088C268.762 155.1 268.347 155.228 267.988 155.46L266.788 156.384C269.11 153.814 271.262 151.096 273.232 148.248C275.248 145.332 277.156 142.248 278.992 139.152C280.828 136.056 282.592 132.804 284.26 129.552C285.928 126.3 287.584 122.952 289.06 119.82L289.132 119.664C289.84 118.073 291.152 116.828 292.778 116.203C294.403 115.579 296.211 115.626 297.802 116.334C299.394 117.042 300.638 118.353 301.263 119.979C301.887 121.605 301.84 123.413 301.132 125.004L301.072 125.04Z" fill="#FFC3BD"/>
<path d="M299.225 112.344C291.497 112.56 286.193 120.948 281.129 131.4C285.011 138.11 290.573 143.693 297.269 147.6C297.269 147.6 317.573 111.828 299.225 112.344Z" fill="#E0E0E0"/>
<path d="M236.608 153.936L229.648 152.16L235.072 145.188C235.072 145.188 241.072 146.136 243.352 151.188L240.88 152.952C240.281 153.413 239.589 153.74 238.852 153.909C238.115 154.079 237.349 154.088 236.608 153.936Z" fill="#FFC3BD"/>
<path d="M227.957 145.032L229.301 143.832C229.851 143.351 230.553 143.078 231.284 143.063C232.015 143.047 232.727 143.29 233.297 143.748L235.073 145.176L229.649 152.148L227.429 148.692C227.061 148.121 226.912 147.436 227.009 146.764C227.106 146.091 227.443 145.476 227.957 145.032Z" fill="#FFC3BD"/>
<path d="M341.153 424.464H331.661L329.393 403.32H338.885L341.153 424.464Z" fill="#FFC3BD"/>
<path d="M330.832 423.408H341.5C341.676 423.398 341.85 423.458 341.982 423.575C342.115 423.692 342.196 423.856 342.208 424.032L342.724 432.144C342.715 432.58 342.535 432.995 342.223 433.301C341.911 433.606 341.492 433.776 341.056 433.776C337.348 433.704 335.572 433.5 330.88 433.5C328 433.5 320.08 433.788 316.06 433.788C312.04 433.788 312.184 429.996 313.876 429.66C321.448 428.112 326.512 425.988 329.2 423.972C329.667 423.61 330.241 423.412 330.832 423.408Z" fill="#263238"/>
<path opacity="0.2" d="M338.885 403.32H329.393L330.569 414.228H340.061L338.885 403.32Z" fill="black"/>
<path d="M306.773 192.636C306.773 192.636 308.873 271.98 310.373 298.128C312.053 326.76 326.273 411.588 326.273 411.588H343.673C343.673 411.588 339.857 325.68 336.977 297.588C338.177 266.82 338.969 192.612 338.969 192.612L306.773 192.636Z" fill="#1E60F6"/>
<path d="M344.369 411.588H324.641L323.705 405.24L344.897 405.6L344.369 411.588Z" fill="#263238"/>
<path d="M327.473 424.992C328.326 424.973 329.174 424.865 330.005 424.668C330.045 424.66 330.082 424.64 330.111 424.61C330.139 424.58 330.156 424.541 330.161 424.5C330.172 424.46 330.17 424.417 330.155 424.378C330.14 424.339 330.112 424.306 330.077 424.284C329.777 424.092 327.089 422.316 325.925 422.76C325.795 422.808 325.679 422.888 325.589 422.993C325.499 423.098 325.437 423.224 325.409 423.36C325.334 423.565 325.32 423.788 325.369 424.001C325.418 424.214 325.527 424.408 325.685 424.56C326.21 424.913 326.844 425.066 327.473 424.992ZM329.393 424.368C327.689 424.692 326.441 424.632 325.997 424.212C325.905 424.112 325.842 423.988 325.815 423.855C325.788 423.722 325.796 423.584 325.841 423.456C325.852 423.39 325.88 423.327 325.922 423.275C325.964 423.222 326.019 423.182 326.081 423.156C326.705 422.916 328.289 423.684 329.393 424.368Z" fill="#1E60F6"/>
<path d="M329.944 424.68H330.052C330.084 424.661 330.112 424.635 330.132 424.604C330.153 424.573 330.167 424.537 330.172 424.5C330.172 424.392 330.388 421.764 329.428 420.9C329.305 420.783 329.157 420.695 328.994 420.645C328.832 420.595 328.66 420.584 328.492 420.612C328.307 420.615 328.127 420.678 327.982 420.793C327.836 420.908 327.733 421.068 327.688 421.248C327.472 422.244 328.888 424.152 329.836 424.692L329.944 424.68ZM328.6 420.972C328.689 420.97 328.777 420.985 328.86 421.018C328.943 421.051 329.018 421.101 329.08 421.164C329.606 422.036 329.825 423.058 329.704 424.068C328.876 423.396 327.928 421.944 328.072 421.296C328.072 421.164 328.18 421.02 328.504 420.984L328.6 420.972Z" fill="#1E60F6"/>
<path d="M292.218 118.452C292.73 116.898 293.651 115.511 294.884 114.437C296.117 113.362 297.617 112.639 299.226 112.344C301.571 111.797 303.947 111.396 306.342 111.144C313.536 110.747 320.747 110.747 327.942 111.144C331.71 111.312 335.55 111.756 338.61 112.188H338.718C339.504 112.28 340.263 112.53 340.95 112.924C341.636 113.319 342.235 113.849 342.709 114.482C343.184 115.115 343.525 115.838 343.712 116.607C343.898 117.377 343.926 118.176 343.794 118.956C341.398 131.184 339.831 143.561 339.102 156C338.358 174.072 339.366 188.256 339.006 192.612H288.222C285.138 148.536 289.122 128.496 292.218 118.452Z" fill="#E0E0E0"/>
<path d="M331.386 84.2521C332.272 84.8918 332.976 85.7506 333.431 86.7443C333.885 87.7381 334.074 88.8328 333.978 89.9213C333.883 91.0098 333.506 92.0549 332.886 92.9543C332.265 93.8537 331.422 94.5765 330.438 95.0521C332.49 98.4481 327.03 104.448 321.534 100.68C316.038 96.9121 323.802 81.0481 331.386 84.2521Z" fill="#263238"/>
<path d="M308.657 80.6042C307.903 80.6265 307.156 80.4526 306.489 80.0996C305.822 79.7465 305.259 79.2264 304.854 78.5901C304.448 77.9538 304.215 77.2232 304.177 76.4698C304.139 75.7164 304.298 74.9661 304.637 74.2922C302.081 73.2962 302.537 67.7162 307.145 67.4762C311.753 67.2362 314.129 79.2002 308.657 80.6042Z" fill="#263238"/>
<path d="M307.158 115.86C306.814 115.545 306.559 115.146 306.416 114.702C306.273 114.258 306.249 113.785 306.344 113.328C306.44 112.872 306.653 112.448 306.961 112.099C307.27 111.75 307.665 111.487 308.106 111.336C312.738 109.632 313.578 106.272 313.206 102.612C313.099 101.583 312.931 100.561 312.702 99.552L320.562 93.276L326.346 88.668C324.906 94.668 323.298 105.12 326.346 110.412C326.687 110.966 326.819 111.623 326.718 112.266C326.617 112.909 326.289 113.494 325.794 113.916C323.802 115.68 319.722 117.96 313.002 117.6C309.918 117.444 308.202 116.736 307.158 115.86Z" fill="#FFC3BD"/>
<path d="M289.612 118.668C290.185 116.94 291.193 115.39 292.541 114.166C293.889 112.942 295.529 112.088 297.304 111.684C299.582 111.322 301.877 111.082 304.18 110.964C304.42 110.93 304.666 110.955 304.894 111.039C305.122 111.123 305.325 111.262 305.486 111.445C305.647 111.627 305.759 111.846 305.814 112.083C305.869 112.319 305.864 112.566 305.8 112.8C301.78 127.728 296.044 157.596 297.82 194.592C297.828 194.822 297.789 195.052 297.706 195.267C297.622 195.481 297.496 195.677 297.334 195.841C297.172 196.005 296.978 196.134 296.765 196.221C296.551 196.307 296.322 196.349 296.092 196.344H286.012C285.575 196.351 285.151 196.192 284.828 195.897C284.504 195.603 284.306 195.196 284.272 194.76C281.236 149.556 286.6 127.032 289.612 118.668Z" fill="#263238"/>
<path d="M338.333 111.288C335.106 110.826 331.858 110.53 328.601 110.4C328.012 110.357 327.426 110.524 326.947 110.871C326.469 111.218 326.128 111.723 325.985 112.296C322.253 128.736 318.929 165.264 318.785 194.652C318.79 194.876 318.839 195.097 318.929 195.302C319.019 195.507 319.148 195.692 319.31 195.847C319.471 196.002 319.662 196.123 319.87 196.204C320.079 196.286 320.301 196.325 320.525 196.32H338.525C338.971 196.33 339.403 196.165 339.728 195.859C340.054 195.554 340.246 195.134 340.265 194.688C340.385 188.772 339.569 174.912 340.265 157.704C340.93 145.442 342.47 133.243 344.873 121.2C345.497 117.828 341.897 111.792 338.333 111.288Z" fill="#263238"/>
<path d="M344.657 116.508C348.509 122.316 352.013 128.136 355.325 134.244C356.957 137.304 358.565 140.412 360.017 143.676C360.737 145.308 361.445 146.976 362.105 148.74C362.833 150.648 363.395 152.616 363.785 154.62C364.081 156.081 364.146 157.579 363.977 159.06C363.781 160.259 363.472 161.436 363.053 162.576C362.368 164.435 361.53 166.233 360.545 167.952C358.779 171.069 356.811 174.068 354.653 176.928C350.502 182.467 345.963 187.705 341.069 192.6C340.504 193.167 339.75 193.506 338.951 193.553C338.152 193.6 337.363 193.352 336.735 192.856C336.107 192.36 335.683 191.65 335.544 190.861C335.405 190.073 335.561 189.261 335.981 188.58V188.508C339.473 182.88 343.001 177.144 346.193 171.456C347.777 168.624 349.289 165.744 350.501 162.96C351.713 160.176 352.601 157.128 351.977 157.044C351.594 155.767 351.129 154.517 350.585 153.3C349.985 151.932 349.301 150.516 348.581 149.112C347.117 146.292 345.545 143.424 343.901 140.604C340.613 134.94 337.109 129.228 333.641 123.696V123.624C332.697 122.163 332.373 120.387 332.738 118.687C333.104 116.987 334.13 115.502 335.591 114.558C337.052 113.614 338.828 113.29 340.528 113.655C342.228 114.021 343.713 115.047 344.657 116.508Z" fill="#FFC3BD"/>
<path d="M337.194 111.132C344.922 110.988 349.014 117.528 354.078 127.932C348.342 138.552 337.398 143.148 337.398 143.148C337.398 143.148 322.002 111.396 337.194 111.132Z" fill="#E0E0E0"/>
<path d="M333.233 188.268L328.781 189.684L337.025 195.948C337.025 195.948 343.769 192.444 341.657 189.264L340.289 188.652C338.062 187.669 335.554 187.533 333.233 188.268Z" fill="#FFC3BD"/>
<path d="M326.285 195.18L331.289 200.208C331.451 200.366 331.643 200.488 331.855 200.568C332.066 200.647 332.292 200.682 332.518 200.669C332.743 200.657 332.964 200.598 333.165 200.496C333.367 200.393 333.545 200.251 333.689 200.076L337.013 195.948L328.769 189.684L326.201 193.2C325.964 193.481 325.841 193.84 325.857 194.206C325.872 194.573 326.025 194.921 326.285 195.18Z" fill="#FFC3BD"/>
<path opacity="0.2" d="M312.701 99.6002C312.93 100.609 313.099 101.631 313.205 102.66C316.181 103.416 320.405 100.008 320.801 97.1162C320.852 95.8473 320.772 94.5766 320.561 93.3242L312.701 99.6002Z" fill="black"/>
<path d="M331.276 80.1482C329.248 89.0042 328.528 94.2842 323.08 98.2322C321.298 99.5357 319.202 100.344 317.006 100.573C314.81 100.803 312.593 100.447 310.579 99.5409C308.566 98.6348 306.828 97.2111 305.544 95.415C304.26 93.6189 303.475 91.5145 303.268 89.3162C302.572 81.0122 306.004 67.9202 315.7 65.5922C325.396 63.2642 333.304 71.2802 331.276 80.1482Z" fill="#FFC3BD"/>
<path d="M327.172 87.9C324.604 88.032 321.868 78.972 327.532 74.604C326.632 75.096 324.172 74.196 324.604 72.504C322.936 73.2 315.64 72.9 317.404 69.936C313.696 70.896 305.608 69.288 304.744 65.748C303.88 62.208 308.056 62.088 308.704 62.556C306.868 59.988 306.904 56.22 311.776 54.852C316.648 53.484 323.992 60.528 323.992 60.528C323.224 58.668 325.924 57.168 328.72 58.764C331.516 60.36 332.824 64.896 332.824 64.896C332.824 63.528 339.352 65.364 336.256 71.1C339.46 72.3 340.924 74.004 340.72 76.968C340.516 79.932 338.488 80.1 338.488 80.1C338.917 81.1672 338.977 82.3473 338.657 83.4522C338.337 84.5571 337.657 85.5231 336.724 86.196C333.4 88.872 330.496 85.728 327.172 87.9Z" fill="#263238"/>
<path d="M332.261 88.5843C331.132 90.2359 329.466 91.4446 327.545 92.0043C325.073 92.6643 324.233 90.4563 325.241 88.1523C326.153 86.0763 328.529 83.2203 330.857 83.5803C333.185 83.9403 333.653 86.5203 332.261 88.5843Z" fill="#FFC3BD"/>
<path d="M316.601 79.7881C316.481 80.5081 315.977 81.0481 315.485 80.9881C314.993 80.9281 314.681 80.2801 314.801 79.5481C314.921 78.8161 315.425 78.3481 315.917 78.3481C316.409 78.3481 316.661 79.0561 316.601 79.7881Z" fill="#263238"/>
<path d="M307.818 78.192C307.698 78.924 307.206 79.464 306.714 79.392C306.222 79.32 305.91 78.684 306.03 77.952C306.15 77.22 306.642 76.752 307.134 76.752C307.626 76.752 307.938 77.472 307.818 78.192Z" fill="#263238"/>
<path d="M311.285 79.8242C310.006 81.936 308.444 83.862 306.641 85.5482C307.107 85.987 307.663 86.3211 308.269 86.528C308.875 86.735 309.519 86.81 310.157 86.7482L311.285 79.8242Z" fill="#ED847E"/>
<path d="M311.717 90.3243C312.589 90.4229 313.473 90.3463 314.316 90.099C315.159 89.8518 315.943 89.4388 316.625 88.8843C316.664 88.842 316.686 88.7862 316.686 88.7283C316.686 88.6703 316.664 88.6145 316.625 88.5723C316.581 88.5351 316.526 88.5146 316.469 88.5146C316.411 88.5146 316.356 88.5351 316.313 88.5723C315.564 89.1666 314.69 89.5833 313.756 89.7912C312.823 89.999 311.855 89.9925 310.925 89.7723C310.896 89.7652 310.867 89.764 310.838 89.7687C310.809 89.7734 310.781 89.784 310.757 89.7997C310.732 89.8154 310.711 89.8359 310.694 89.8601C310.678 89.8843 310.666 89.9115 310.661 89.9403C310.654 89.9679 310.652 89.9968 310.657 90.0249C310.662 90.053 310.673 90.0798 310.689 90.1036C310.704 90.1274 310.725 90.1475 310.749 90.1628C310.773 90.1781 310.8 90.1881 310.829 90.1923C311.121 90.2579 311.418 90.3021 311.717 90.3243Z" fill="#263238"/>
<path d="M316.961 74.796C316.889 74.8153 316.823 74.8525 316.769 74.904C316.727 74.9433 316.694 74.9907 316.671 75.0433C316.648 75.096 316.637 75.1527 316.637 75.21C316.637 75.2674 316.648 75.3241 316.671 75.3767C316.694 75.4294 316.727 75.4768 316.769 75.516C317.236 76.0385 317.823 76.4402 318.479 76.6868C319.135 76.9334 319.841 77.0175 320.537 76.932C320.595 76.9263 320.651 76.9087 320.701 76.8804C320.752 76.8521 320.796 76.8136 320.831 76.7674C320.866 76.7212 320.891 76.6682 320.904 76.6119C320.918 76.5556 320.919 76.497 320.909 76.44C320.899 76.3825 320.878 76.3275 320.846 76.2782C320.815 76.2289 320.774 76.1863 320.726 76.1529C320.678 76.1194 320.624 76.0958 320.567 76.0833C320.51 76.0708 320.451 76.0697 320.393 76.08C319.843 76.1286 319.289 76.045 318.778 75.8363C318.266 75.6276 317.812 75.2997 317.453 74.88C317.387 74.8223 317.306 74.7839 317.219 74.7691C317.132 74.7542 317.043 74.7636 316.961 74.796Z" fill="#263238"/>
<path d="M305.333 72.6242C305.399 72.6536 305.471 72.6688 305.543 72.6688C305.615 72.6688 305.687 72.6536 305.753 72.6242C306.265 72.3687 306.827 72.2288 307.4 72.2142C307.972 72.1997 308.54 72.311 309.065 72.5402C309.167 72.5982 309.288 72.6143 309.402 72.5853C309.516 72.5562 309.615 72.4841 309.677 72.3842C309.729 72.2801 309.74 72.1599 309.706 72.0484C309.673 71.9368 309.598 71.8423 309.497 71.7842C308.849 71.4734 308.14 71.312 307.421 71.312C306.702 71.312 305.993 71.4734 305.345 71.7842C305.292 71.807 305.245 71.8406 305.207 71.8829C305.168 71.9251 305.139 71.975 305.121 72.0293C305.102 72.0837 305.096 72.1412 305.102 72.1982C305.107 72.2552 305.125 72.3104 305.153 72.3602C305.18 72.4666 305.244 72.56 305.333 72.6242Z" fill="#263238"/>
</g>
<defs>
<clipPath id="clip0_1051_43309">
<rect width="600" height="600" fill="white"/>
</clipPath>
</defs>
</svg>
