<svg width="392" height="391" viewBox="0 0 392 391" fill="none" xmlns="http://www.w3.org/2000/svg">
<g clip-path="url(#clip0_1051_46284)">
<path d="M427.5 319.217H-35V319.448H427.5V319.217Z" fill="#EBEBEB"/>
<path d="M381.157 334.1H350.521V334.331H381.157V334.1Z" fill="#EBEBEB"/>
<path d="M271.378 336.616H263.34V336.847H271.378V336.616Z" fill="#EBEBEB"/>
<path d="M349.596 325.516H331.846V325.747H349.596V325.516Z" fill="#EBEBEB"/>
<path d="M53.4761 327.07H13.5254V327.301H53.4761V327.07Z" fill="#EBEBEB"/>
<path d="M67.5733 327.07H61.718V327.301H67.5733V327.07Z" fill="#EBEBEB"/>
<path d="M173.264 330.973H86.6097V331.204H173.264V330.973Z" fill="#EBEBEB"/>
<path d="M184.225 277.962H5.61674C4.21753 277.959 2.87648 277.402 1.88796 276.411C0.899436 275.421 0.344236 274.079 0.344238 272.68V21.6071C0.356419 20.2159 0.916992 18.8857 1.9042 17.9054C2.8914 16.9252 4.22551 16.374 5.61674 16.3716H184.225C185.626 16.3716 186.969 16.9281 187.96 17.9186C188.95 18.9091 189.507 20.2525 189.507 21.6533V272.68C189.507 274.081 188.95 275.424 187.96 276.415C186.969 277.405 185.626 277.962 184.225 277.962ZM5.61674 16.5566C4.27887 16.559 2.99663 17.0922 2.05147 18.0391C1.10632 18.986 0.575486 20.2692 0.575488 21.6071V272.68C0.575486 274.018 1.10632 275.301 2.05147 276.248C2.99663 277.195 4.27887 277.728 5.61674 277.73H184.225C185.564 277.728 186.847 277.195 187.794 276.248C188.74 275.302 189.273 274.019 189.275 272.68V21.6071C189.273 20.2684 188.74 18.9852 187.794 18.0385C186.847 17.0919 185.564 16.559 184.225 16.5566H5.61674Z" fill="#EBEBEB"/>
<path d="M384.312 277.962H205.694C204.294 277.959 202.952 277.402 201.962 276.412C200.972 275.422 200.415 274.08 200.412 272.68V21.6071C200.427 20.2151 200.99 18.8849 201.978 17.9049C202.967 16.9248 204.302 16.3739 205.694 16.3716H384.312C385.701 16.3764 387.033 16.9287 388.018 17.9087C389.004 18.8887 389.563 20.2175 389.575 21.6071V272.68C389.575 274.077 389.021 275.418 388.035 276.408C387.048 277.398 385.709 277.957 384.312 277.962ZM205.694 16.5566C204.355 16.559 203.072 17.0919 202.126 18.0385C201.179 18.9852 200.646 20.2684 200.644 21.6071V272.68C200.646 274.019 201.179 275.302 202.126 276.248C203.072 277.195 204.355 277.728 205.694 277.73H384.312C385.65 277.728 386.934 277.195 387.88 276.248C388.827 275.302 389.36 274.019 389.362 272.68V21.6071C389.36 20.2684 388.827 18.9852 387.88 18.0385C386.934 17.0919 385.65 16.559 384.312 16.5566H205.694Z" fill="#EBEBEB"/>
<path d="M263.988 242.581H258.345V318.394H263.988V242.581Z" fill="#E6E6E6"/>
<path d="M363.888 242.581H358.245V318.394H363.888V242.581Z" fill="#E6E6E6"/>
<path d="M361.067 312.816V307.173H258.928V312.816H361.067Z" fill="#E6E6E6"/>
<path d="M361.067 275.815V270.173H258.928V275.815H361.067Z" fill="#E6E6E6"/>
<path d="M333.788 296.767C333.788 296.082 325.463 296.619 325.463 296.619C325.463 296.619 320.33 301.836 315.344 303.011C310.358 304.185 313.142 307.173 318.72 307.173H332.503C336.425 307.173 333.955 303.806 333.788 296.767Z" fill="#EBEBEB"/>
<path d="M320.302 298.552C320.172 298.441 320.082 298.29 320.045 298.124C320.008 297.957 320.027 297.782 320.098 297.627C320.131 297.508 320.187 297.397 320.263 297.3C320.34 297.203 320.434 297.122 320.542 297.063C321.127 296.82 321.769 296.749 322.392 296.859C321.717 296.489 321.125 296.055 321.097 295.611C321.097 295.333 321.264 295.093 321.643 294.917C321.812 294.837 321.997 294.795 322.184 294.795C322.371 294.795 322.556 294.837 322.725 294.917C323.854 295.389 324.575 297.34 324.575 297.424C324.589 297.449 324.596 297.478 324.596 297.507C324.596 297.536 324.589 297.564 324.575 297.59C324.575 297.59 324.575 297.59 324.575 297.636C324.557 297.662 324.531 297.682 324.501 297.692C323.42 298.247 322.248 298.607 321.042 298.756C320.779 298.773 320.518 298.701 320.302 298.552ZM320.764 297.479C320.706 297.507 320.655 297.547 320.613 297.596C320.572 297.646 320.541 297.704 320.524 297.766C320.441 298.099 320.524 298.182 320.579 298.21C320.977 298.534 322.503 298.071 323.734 297.553C322.79 297.35 321.365 297.137 320.764 297.479ZM321.856 295.352C321.736 295.352 321.551 295.509 321.56 295.629C321.56 295.999 322.772 296.647 324.011 297.118C323.731 296.386 323.23 295.758 322.577 295.324C322.468 295.281 322.352 295.259 322.235 295.259C322.103 295.26 321.973 295.291 321.856 295.352Z" fill="#EBEBEB"/>
<path d="M353.713 296.887C353.713 296.212 345.388 296.739 345.388 296.739C345.388 296.739 340.254 301.965 335.268 303.131C330.282 304.296 333.067 307.302 338.644 307.302H352.427C356.349 307.302 353.879 303.926 353.713 296.887Z" fill="#EBEBEB"/>
<path d="M340.226 298.672C340.095 298.562 340.004 298.412 339.967 298.244C339.93 298.077 339.95 297.902 340.023 297.747C340.055 297.628 340.111 297.517 340.188 297.42C340.264 297.323 340.359 297.243 340.467 297.183C341.054 296.949 341.693 296.879 342.317 296.979C341.641 296.619 341.049 296.175 341.022 295.74C341.022 295.453 341.188 295.222 341.567 295.037C341.737 294.96 341.922 294.919 342.109 294.919C342.295 294.919 342.48 294.96 342.65 295.037C343.778 295.509 344.5 297.451 344.5 297.534C344.513 297.56 344.521 297.589 344.521 297.618C344.521 297.647 344.513 297.675 344.5 297.701C344.506 297.719 344.506 297.739 344.5 297.757L344.426 297.812C343.342 298.359 342.171 298.716 340.966 298.866C340.704 298.891 340.442 298.823 340.226 298.672ZM340.689 297.599C340.63 297.629 340.579 297.671 340.537 297.722C340.496 297.773 340.466 297.832 340.448 297.895C340.365 298.219 340.448 298.302 340.504 298.339C340.901 298.663 342.428 298.2 343.658 297.682C342.714 297.47 341.29 297.257 340.689 297.571V297.599ZM341.78 295.472C341.66 295.527 341.475 295.638 341.484 295.749C341.484 296.128 342.696 296.776 343.935 297.248C343.66 296.513 343.158 295.884 342.502 295.453C342.393 295.407 342.277 295.382 342.159 295.379C342.027 295.379 341.897 295.411 341.78 295.472Z" fill="#EBEBEB"/>
<path d="M332.012 269.267C332.951 268.502 334.024 267.918 335.176 267.546C335.176 267.546 338.617 264.133 340.273 253.856L344.777 252.681C345.542 252.493 346.346 252.546 347.08 252.833C347.813 253.119 348.44 253.625 348.875 254.282C349.003 254.461 349.1 254.662 349.162 254.874C349.396 255.975 349.557 257.09 349.643 258.213C350.096 261.691 349.708 269.498 349.708 269.498H348.875L348.551 262.412C348.431 260.007 346.59 262.829 346.063 265.419C345.536 268.009 344.417 270.765 339.144 270.895C333.011 271.015 330.458 270.747 332.012 269.267Z" fill="#EBEBEB"/>
<path d="M312.069 269.267C313.008 268.502 314.081 267.918 315.233 267.546C315.233 267.546 318.674 264.133 320.33 253.856L324.834 252.681C325.599 252.493 326.403 252.546 327.137 252.833C327.87 253.119 328.497 253.625 328.932 254.282C329.06 254.461 329.157 254.662 329.219 254.874C329.453 255.975 329.614 257.09 329.7 258.213C330.153 261.691 329.765 269.498 329.765 269.498H328.951L328.627 262.412C328.507 260.007 326.666 262.829 326.139 265.419C325.611 268.009 324.492 270.765 319.22 270.895C313.068 271.015 310.515 270.747 312.069 269.267Z" fill="#EBEBEB"/>
<path d="M289.074 306.341C290.012 305.576 291.085 304.992 292.237 304.62C292.237 304.62 295.678 301.207 297.334 290.93L301.839 289.755C302.603 289.569 303.407 289.622 304.14 289.908C304.874 290.195 305.501 290.7 305.937 291.356C306.065 291.535 306.162 291.735 306.223 291.948C306.458 293.049 306.619 294.164 306.704 295.287C307.158 298.765 306.769 306.572 306.769 306.572H305.955L305.631 299.486C305.511 297.081 303.67 299.903 303.143 302.493C302.616 305.083 301.497 307.839 296.224 307.969C290.073 308.089 287.52 307.848 289.074 306.341Z" fill="#EBEBEB"/>
<path d="M269.131 306.341C270.069 305.576 271.142 304.992 272.294 304.62C272.294 304.62 275.735 301.207 277.391 290.93L281.896 289.755C282.66 289.569 283.464 289.622 284.197 289.908C284.931 290.195 285.558 290.7 285.994 291.356C286.122 291.535 286.219 291.735 286.28 291.948C286.515 293.049 286.676 294.164 286.761 295.287C287.215 298.765 286.826 306.572 286.826 306.572H285.975L285.651 299.486C285.531 297.081 283.69 299.903 283.163 302.493C282.636 305.083 281.517 307.839 276.244 307.969C270.13 308.089 267.577 307.848 269.131 306.341Z" fill="#EBEBEB"/>
<path d="M309.276 257.982C309.237 257.8 309.172 257.626 309.082 257.464C305.733 256.751 303.041 264.142 301.386 266.214C299.73 268.286 296.474 267.37 296.474 267.37C295.487 267.59 294.547 267.985 293.699 268.536C292.265 269.664 294.383 270.09 299.536 270.525C303.957 270.867 305.132 268.675 305.798 266.538C306.464 264.401 308.249 262.218 308.147 264.244L307.796 270.201L308.48 270.266C308.978 267.139 309.287 263.985 309.405 260.821C309.422 259.873 309.379 258.925 309.276 257.982Z" fill="#EBEBEB"/>
<path d="M291.701 257.982C291.662 257.8 291.597 257.626 291.506 257.464C288.158 256.751 285.466 264.142 283.81 266.214C282.155 268.286 278.899 267.37 278.899 267.37C277.911 267.59 276.972 267.985 276.124 268.536C274.69 269.664 276.808 270.09 281.96 270.525C286.382 270.867 287.557 268.675 288.223 266.538C288.889 264.401 290.674 262.218 290.572 264.244L290.221 270.201L290.905 270.266C291.403 267.139 291.712 263.985 291.83 260.821C291.847 259.873 291.804 258.925 291.701 257.982Z" fill="#EBEBEB"/>
<path d="M187.99 228.668V318.393H182.44V239.768H84.3898V318.393H77.9148V228.668H187.99Z" fill="#E0E0E0"/>
<path d="M126.94 228.668V318.393H121.39V239.768H23.3397V318.393H16.8647V228.668H126.94Z" fill="#F5F5F5"/>
<path d="M23.5803 189.865C24.4285 190.143 25.1985 190.618 25.8273 191.252C26.456 191.885 26.9254 192.659 27.1971 193.509C27.7694 194.892 28.7226 196.085 29.9457 196.948C31.1689 197.811 32.6118 198.309 34.1068 198.384C35.1005 198.424 36.0626 198.745 36.8818 199.309L37.7513 199.809C37.7513 199.503 37.6773 199.189 37.6588 198.884C37.4183 198.689 37.1778 198.495 36.9466 198.282L36.7893 198.125C34.0698 195.517 34.0143 192.76 30.8231 190.29C27.6318 187.821 23.5803 189.865 23.5803 189.865Z" fill="#E0E0E0"/>
<path d="M49.9612 187.136C49.1577 187.53 48.4598 188.109 47.9256 188.827C47.3914 189.544 47.0364 190.379 46.8902 191.262C46.5192 192.711 45.7439 194.024 44.6548 195.05C43.5658 196.075 42.2077 196.769 40.739 197.052C39.7617 197.246 38.86 197.714 38.1397 198.403L37.3535 199.023C37.3535 198.717 37.3535 198.394 37.298 198.097C37.5192 197.877 37.7291 197.645 37.927 197.404L38.0657 197.228C40.3875 194.259 40.073 191.53 42.8665 188.625C45.66 185.721 49.9612 187.136 49.9612 187.136Z" fill="#E0E0E0"/>
<path d="M38.1398 198.402C38.2147 200.121 38.0339 201.842 37.6033 203.508C36.0771 209.447 36.7616 203.601 36.7616 203.601C37.1963 202.099 37.396 200.539 37.3536 198.976C37.3536 198.671 37.3536 198.347 37.2981 198.051C37.2097 196.872 36.9703 195.709 36.5858 194.591C34.9763 189.966 31.7573 188.486 30.4808 183.491C29.2043 178.496 33.6166 174.926 33.6166 174.926C33.5074 176.046 33.666 177.176 34.0794 178.223C34.4927 179.27 35.1488 180.204 35.9938 180.948C38.9631 183.834 39.3886 188.838 38.1121 191.382C37.3721 192.862 37.8438 194.721 38.0658 197.191C38.0751 197.588 38.1213 197.986 38.1398 198.402Z" fill="#E0E0E0"/>
<path d="M45.327 228.669L41.8213 208.605L42.811 202.769H31.7758L32.7655 208.605L29.269 228.669H45.327Z" fill="#EBEBEB"/>
<path d="M360.447 41.6333H240.077V174.824H360.447V41.6333Z" fill="#E9E9E9"/>
<path d="M355.47 46.915H245.377V169.829H355.47V46.915Z" fill="#F5F5F5"/>
<path d="M276.494 46.915L245.377 163.437V100.352L259.612 46.915H276.494Z" fill="white"/>
<path d="M290.396 46.915L257.587 169.829H251.398L284.208 46.915H290.396Z" fill="white"/>
<path d="M355.47 80.4277V143.522L348.496 169.829H331.624L355.47 80.4277Z" fill="white"/>
<path d="M302.403 41.6333H298.13V174.824H302.403V41.6333Z" fill="#E9E9E9"/>
<path d="M358.134 68.6621H242.167V72.9356H358.134V68.6621Z" fill="#E9E9E9"/>
<path d="M84.325 56.8126C84.3231 61.1232 85.5997 65.3376 87.9932 68.9226C90.3868 72.5077 93.7897 75.3024 97.7717 76.9533C101.754 78.6041 106.136 79.037 110.364 78.1972C114.592 77.3573 118.476 75.2825 121.525 72.2351C124.573 69.1876 126.65 65.3045 127.492 61.0768C128.333 56.8491 127.902 52.4668 126.253 48.4841C124.604 44.5014 121.81 41.0973 118.226 38.7022C114.642 36.3072 110.429 35.0288 106.118 35.0288C103.256 35.0276 100.423 35.5902 97.7788 36.6843C95.1348 37.7785 92.7323 39.3829 90.7085 41.4059C88.6847 43.4288 87.0793 45.8306 85.984 48.4741C84.8887 51.1177 84.325 53.9511 84.325 56.8126Z" fill="#E0E0E0"/>
<path d="M87.5718 56.8125C87.5718 60.4715 88.6568 64.0482 90.6896 67.0905C92.7224 70.1329 95.6117 72.5041 98.9921 73.9043C102.373 75.3045 106.092 75.6709 109.681 74.957C113.27 74.2432 116.566 72.4812 119.153 69.894C121.741 67.3067 123.502 64.0103 124.216 60.4217C124.93 56.833 124.564 53.1133 123.164 49.7329C121.763 46.3524 119.392 43.4631 116.35 41.4303C113.308 39.3975 109.731 38.3125 106.072 38.3125C101.165 38.3125 96.4597 40.2616 92.9903 43.731C89.5209 47.2004 87.5718 51.906 87.5718 56.8125Z" fill="#F0F0F0"/>
<path d="M106.969 44.103V57.053L115.553 52.1968" fill="#F0F0F0"/>
<path d="M106.969 57.9968C106.724 57.9968 106.488 57.8993 106.315 57.7259C106.141 57.5524 106.044 57.3171 106.044 57.0718V44.1218C106.044 43.8765 106.141 43.6412 106.315 43.4677C106.488 43.2942 106.724 43.1968 106.969 43.1968C107.214 43.1968 107.45 43.2942 107.623 43.4677C107.796 43.6412 107.894 43.8765 107.894 44.1218V55.4715L115.1 51.3923C115.205 51.3315 115.322 51.2922 115.443 51.2765C115.564 51.2609 115.687 51.2692 115.804 51.3009C115.922 51.3327 116.032 51.3874 116.129 51.4618C116.225 51.5362 116.306 51.6288 116.367 51.7345C116.428 51.8402 116.467 51.9568 116.483 52.0777C116.498 52.1986 116.49 52.3214 116.458 52.439C116.427 52.5567 116.372 52.667 116.297 52.7635C116.223 52.8601 116.13 52.941 116.025 53.0018L107.45 57.858C107.305 57.9476 107.139 57.9956 106.969 57.9968Z" fill="#E0E0E0"/>
<path d="M196.25 360.99C295.301 360.99 375.598 356.302 375.598 350.519C375.598 344.736 295.301 340.048 196.25 340.048C97.1988 340.048 16.9019 344.736 16.9019 350.519C16.9019 356.302 97.1988 360.99 196.25 360.99Z" fill="#F5F5F5"/>
<path d="M69.7193 283.559C69.9135 284.918 66.2228 285.816 63.2443 286.334C63.494 288.803 65.0943 291.292 67.4068 293.623C70.2558 292.013 74.335 289.923 75.0843 290.413C75.8335 290.903 71.7265 293.678 69.118 295.26C70.9845 296.884 72.9593 298.38 75.0288 299.737C76.3145 298.544 77.8038 297.498 78.7288 298.063C79.6538 298.627 79.404 300.505 78.9508 302.151C82.0495 304.001 84.3805 305.065 84.3805 305.065C85.2785 302.179 85.9709 299.233 86.4525 296.25C86.2953 295.935 86.138 295.63 85.9993 295.325C85.4998 294.168 85.9993 293.669 86.8133 293.475C87.0457 291.363 87.0612 289.234 86.8595 287.12C83.3445 286.389 79.071 285.02 80.6713 282.911C81.6425 281.644 83.4463 281.496 85.2408 281.82C84.9944 281.397 84.7062 281 84.3805 280.636C77.9795 273.587 73.521 280.636 73.521 280.636C69.821 277.537 64.5855 278.379 63.457 283.216C65.4828 282.671 69.525 281.847 69.7193 283.559Z" fill="#EB5757"/>
<path opacity="0.3" d="M69.7193 283.559C69.9135 284.918 66.2228 285.816 63.2443 286.334C63.494 288.803 65.0943 291.292 67.4068 293.623C70.2558 292.013 74.335 289.923 75.0843 290.413C75.8335 290.903 71.7265 293.678 69.118 295.26C70.9845 296.884 72.9593 298.38 75.0288 299.737C76.3145 298.544 77.8038 297.498 78.7288 298.063C79.6538 298.627 79.404 300.505 78.9508 302.151C82.0495 304.001 84.3805 305.065 84.3805 305.065C85.2785 302.179 85.9709 299.233 86.4525 296.25C86.2953 295.935 86.138 295.63 85.9993 295.325C85.4998 294.168 85.9993 293.669 86.8133 293.475C87.0457 291.363 87.0612 289.234 86.8595 287.12C83.3445 286.389 79.071 285.02 80.6713 282.911C81.6425 281.644 83.4463 281.496 85.2408 281.82C84.9944 281.397 84.7062 281 84.3805 280.636C77.9795 273.587 73.521 280.636 73.521 280.636C69.821 277.537 64.5855 278.379 63.457 283.216C65.4828 282.671 69.525 281.847 69.7193 283.559Z" fill="white"/>
<path d="M77.7019 335.34L76.7769 335.266C76.7769 334.795 80.5602 287.61 69.9782 283.161C69.4742 282.923 68.9217 282.806 68.3646 282.819C67.8075 282.832 67.261 282.974 66.7684 283.235C62.9389 285.233 61.1074 293.493 61.0889 293.577L60.1639 293.373C60.2379 293.022 62.1064 284.613 66.3152 282.421C66.9282 282.098 67.6074 281.919 68.3003 281.9C68.9931 281.881 69.6811 282.021 70.3112 282.31C81.5499 287.009 77.8499 333.37 77.7019 335.34Z" fill="#EB5757"/>
<path d="M79.0339 334.323C78.8489 332.195 74.5199 282.273 82.6044 276.973C84.5469 275.705 86.3044 275.428 87.7382 276.177C91.5584 278.101 92.0579 286.269 92.0764 286.611L91.1514 286.667C91.1514 286.583 90.6612 278.684 87.3127 277C86.1657 276.418 84.7504 276.667 83.1039 277.75C75.4819 282.745 79.9034 333.721 79.9497 334.239L79.0339 334.323Z" fill="#EB5757"/>
<path d="M80.2457 338.355C80.1902 336.727 78.8582 298.516 86.2212 295.167C86.9062 294.847 87.6529 294.682 88.4088 294.682C89.1648 294.682 89.9115 294.847 90.5965 295.167C95.647 297.387 98.7642 306.794 98.9215 307.192L98.0427 307.479C98.0427 307.377 94.9255 298.053 90.2542 296C89.6871 295.733 89.068 295.594 88.4412 295.594C87.8144 295.594 87.1953 295.733 86.6282 296C80.9857 298.571 80.8007 327.45 81.1985 338.309L80.2457 338.355Z" fill="#EB5757"/>
<path d="M78.3773 336.607L77.4523 336.506C78.7473 325.128 81.2263 294.825 77.1748 291.181C76.9774 290.945 76.716 290.771 76.4222 290.681C76.1284 290.591 75.8147 290.588 75.519 290.672C72.7995 291.708 71.153 301.568 70.7368 305.278L69.8118 305.176C69.969 303.751 71.449 291.236 75.1768 289.802C75.6297 289.652 76.1166 289.637 76.5781 289.758C77.0396 289.88 77.4558 290.133 77.776 290.487C83.03 295.186 78.5715 334.924 78.3773 336.607Z" fill="#EB5757"/>
<path d="M62.939 315.046H96.1742L93.3992 352.277H65.714L62.939 315.046Z" fill="#EB5757"/>
<path opacity="0.2" d="M73.0308 315.046L73.9558 352.268H93.3993L96.1743 315.046H73.0308Z" fill="white"/>
<path d="M67.4714 301.383C67.1199 302.308 64.5392 301.578 62.5134 300.856C61.8197 302.466 61.9769 304.556 62.5782 306.785C64.8907 306.785 68.1282 306.85 68.4149 307.433C68.7017 308.016 65.2237 308.293 63.0777 308.358C63.6668 310.003 64.3716 311.604 65.1867 313.149C66.3799 312.853 67.6657 312.715 68.0264 313.371C68.3872 314.028 67.6009 315.11 66.7592 315.971C68.0449 318.154 69.1087 319.624 69.1087 319.624C70.6538 318.154 72.0913 316.574 73.4099 314.898C73.4099 314.657 73.4099 314.407 73.4099 314.158C73.4932 313.233 73.9649 313.131 74.5292 313.316C75.396 312.096 76.1367 310.791 76.7399 309.422C74.8252 307.757 72.6514 305.453 74.3627 304.704C75.3987 304.251 76.5364 304.769 77.5632 305.629C77.5485 305.284 77.5052 304.941 77.4337 304.602C75.8982 298.063 70.7367 300.902 70.7367 300.902C69.5064 297.72 66.0007 296.444 63.6419 299.052C65.1589 299.422 67.8969 300.273 67.4714 301.383Z" fill="#EB5757"/>
<path opacity="0.3" d="M67.4714 301.383C67.1199 302.308 64.5392 301.578 62.5134 300.856C61.8197 302.466 61.9769 304.556 62.5782 306.785C64.8907 306.785 68.1282 306.85 68.4149 307.433C68.7017 308.016 65.2237 308.293 63.0777 308.358C63.6668 310.003 64.3716 311.604 65.1867 313.149C66.3799 312.853 67.6657 312.715 68.0264 313.371C68.3872 314.028 67.6009 315.11 66.7592 315.971C68.0449 318.154 69.1087 319.624 69.1087 319.624C70.6538 318.154 72.0913 316.574 73.4099 314.898C73.4099 314.657 73.4099 314.407 73.4099 314.158C73.4932 313.233 73.9649 313.131 74.5292 313.316C75.396 312.096 76.1367 310.791 76.7399 309.422C74.8252 307.757 72.6514 305.453 74.3627 304.704C75.3987 304.251 76.5364 304.769 77.5632 305.629C77.5485 305.284 77.5052 304.941 77.4337 304.602C75.8982 298.063 70.7367 300.902 70.7367 300.902C69.5064 297.72 66.0007 296.444 63.6419 299.052C65.1589 299.422 67.8969 300.273 67.4714 301.383Z" fill="white"/>
<path d="M92.1412 305.805C91.1086 305.899 90.0905 306.114 89.1072 306.443C88.8407 305.741 88.6877 305.001 88.6539 304.251C88.4504 297.544 93.279 300.375 95.7765 298.405C96.3502 297.896 97.0251 297.514 97.7569 297.285C98.4886 297.055 99.2606 296.983 100.022 297.073C99.8071 297.443 99.6156 297.826 99.4487 298.22C99.3879 298.367 99.3615 298.525 99.3713 298.684C99.3812 298.843 99.4271 298.997 99.5056 299.135C99.5841 299.274 99.6931 299.392 99.8243 299.482C99.9555 299.572 100.105 299.63 100.263 299.653C100.887 299.775 101.534 299.697 102.113 299.431C102.28 299.331 102.441 299.22 102.594 299.098C103.006 299.797 103.317 300.551 103.519 301.337C103.77 302.274 103.916 303.235 103.953 304.204C103.574 304.286 103.201 304.392 102.834 304.519C102.688 304.581 102.558 304.676 102.454 304.795C102.35 304.915 102.275 305.057 102.234 305.211C102.193 305.364 102.187 305.525 102.217 305.68C102.248 305.836 102.313 305.983 102.409 306.11C102.813 306.497 103.283 306.811 103.796 307.035C103.625 308.11 103.343 309.163 102.954 310.18L102.612 310.226C102.362 310.282 102.122 310.337 101.881 310.411C101.746 310.449 101.613 310.495 101.484 310.55C101.32 310.623 101.177 310.736 101.067 310.878C100.958 311.02 100.885 311.187 100.855 311.364C100.83 311.546 100.854 311.732 100.924 311.903C100.994 312.073 101.107 312.222 101.252 312.335C101.41 312.451 101.577 312.553 101.752 312.64C101.114 313.749 100.199 314.673 99.0972 315.323C98.1299 314.879 97.1881 314.382 96.2759 313.834C96.4702 313.556 96.6737 313.288 96.8587 313.02C97.0743 312.712 97.1758 312.339 97.1454 311.965C97.1227 311.779 97.063 311.599 96.9699 311.435C96.8768 311.272 96.7522 311.129 96.6032 311.015C96.4542 310.9 96.284 310.816 96.1023 310.768C95.9207 310.72 95.7313 310.709 95.5452 310.735C95.1789 310.787 94.8472 310.979 94.6202 311.271C94.3982 311.604 94.1577 311.919 93.9079 312.196C92.6301 311.254 91.4851 310.143 90.5039 308.894H90.6057C91.2114 308.733 91.8307 308.627 92.4557 308.58C92.6415 308.555 92.8208 308.495 92.9832 308.401C93.1456 308.308 93.288 308.183 93.4022 308.034C93.5165 307.886 93.6003 307.716 93.649 307.535C93.6977 307.354 93.7102 307.165 93.6859 306.979C93.6616 306.794 93.601 306.614 93.5074 306.452C93.4139 306.289 93.2892 306.147 93.1406 306.033C92.992 305.919 92.8224 305.835 92.6414 305.786C92.4604 305.737 92.2715 305.725 92.0857 305.749L92.1412 305.805Z" fill="#EB5757"/>
<path opacity="0.5" d="M92.1412 305.805C91.1086 305.899 90.0905 306.114 89.1072 306.443C88.8407 305.741 88.6877 305.001 88.6539 304.251C88.4504 297.544 93.279 300.375 95.7765 298.405C96.3502 297.896 97.0251 297.514 97.7569 297.285C98.4886 297.055 99.2606 296.983 100.022 297.073C99.8071 297.443 99.6156 297.826 99.4487 298.22C99.3879 298.367 99.3615 298.525 99.3713 298.684C99.3812 298.843 99.4271 298.997 99.5056 299.135C99.5841 299.274 99.6931 299.392 99.8243 299.482C99.9555 299.572 100.105 299.63 100.263 299.653C100.887 299.775 101.534 299.697 102.113 299.431C102.28 299.331 102.441 299.22 102.594 299.098C103.006 299.797 103.317 300.551 103.519 301.337C103.77 302.274 103.916 303.235 103.953 304.204C103.574 304.286 103.201 304.392 102.834 304.519C102.688 304.581 102.558 304.676 102.454 304.795C102.35 304.915 102.275 305.057 102.234 305.211C102.193 305.364 102.187 305.525 102.217 305.68C102.248 305.836 102.313 305.983 102.409 306.11C102.813 306.497 103.283 306.811 103.796 307.035C103.625 308.11 103.343 309.163 102.954 310.18L102.612 310.226C102.362 310.282 102.122 310.337 101.881 310.411C101.746 310.449 101.613 310.495 101.484 310.55C101.32 310.623 101.177 310.736 101.067 310.878C100.958 311.02 100.885 311.187 100.855 311.364C100.83 311.546 100.854 311.732 100.924 311.903C100.994 312.073 101.107 312.222 101.252 312.335C101.41 312.451 101.577 312.553 101.752 312.64C101.114 313.749 100.199 314.673 99.0972 315.323C98.1299 314.879 97.1881 314.382 96.2759 313.834C96.4702 313.556 96.6737 313.288 96.8587 313.02C97.0743 312.712 97.1758 312.339 97.1454 311.965C97.1227 311.779 97.063 311.599 96.9699 311.435C96.8768 311.272 96.7522 311.129 96.6032 311.015C96.4542 310.9 96.284 310.816 96.1023 310.768C95.9207 310.72 95.7313 310.709 95.5452 310.735C95.1789 310.787 94.8472 310.979 94.6202 311.271C94.3982 311.604 94.1577 311.919 93.9079 312.196C92.6301 311.254 91.4851 310.143 90.5039 308.894H90.6057C91.2114 308.733 91.8307 308.627 92.4557 308.58C92.6415 308.555 92.8208 308.495 92.9832 308.401C93.1456 308.308 93.288 308.183 93.4022 308.034C93.5165 307.886 93.6003 307.716 93.649 307.535C93.6977 307.354 93.7102 307.165 93.6859 306.979C93.6616 306.794 93.601 306.614 93.5074 306.452C93.4139 306.289 93.2892 306.147 93.1406 306.033C92.992 305.919 92.8224 305.835 92.6414 305.786C92.4604 305.737 92.2715 305.725 92.0857 305.749L92.1412 305.805Z" fill="white"/>
<path d="M94.056 282.699C94.6333 282.297 95.2539 281.962 95.906 281.7C95.7347 281.214 95.4881 280.758 95.1752 280.349C92.3447 276.732 91.0682 280.349 88.876 280.405C88.3576 280.394 87.8427 280.492 87.3646 280.692C86.8866 280.893 86.4561 281.192 86.101 281.57C86.3758 281.672 86.6445 281.789 86.9057 281.922C87.0006 281.974 87.0826 282.046 87.1456 282.134C87.2086 282.222 87.251 282.323 87.2697 282.43C87.2883 282.536 87.2827 282.646 87.2534 282.75C87.224 282.854 87.1716 282.95 87.1 283.032C86.8251 283.377 86.4452 283.624 86.0178 283.735C85.8855 283.748 85.7522 283.748 85.62 283.735C85.7142 284.282 85.8822 284.814 86.1195 285.316C86.3954 285.921 86.7399 286.492 87.1463 287.018C87.3809 286.889 87.6252 286.777 87.877 286.685C87.9818 286.654 88.0922 286.648 88.1999 286.666C88.3077 286.684 88.41 286.726 88.499 286.789C88.5881 286.852 88.6617 286.935 88.7141 287.031C88.7666 287.126 88.7967 287.233 88.802 287.342C88.7647 287.729 88.6647 288.107 88.506 288.461C89.0773 288.949 89.6973 289.377 90.356 289.738L90.5502 289.618C90.7075 289.534 90.8555 289.46 91.0127 289.396C91.1021 289.354 91.1949 289.319 91.2902 289.294C91.4103 289.253 91.5391 289.244 91.6635 289.27C91.7878 289.295 91.9031 289.353 91.9974 289.438C92.0917 289.523 92.1616 289.632 92.1999 289.753C92.2382 289.874 92.2435 290.003 92.2152 290.126C92.2152 290.256 92.132 290.385 92.0858 290.506C92.9078 290.806 93.7937 290.889 94.6572 290.746C94.971 290.091 95.2459 289.417 95.4805 288.73L94.8145 288.554C94.5664 288.49 94.3496 288.339 94.204 288.128C94.0653 287.908 94.0187 287.642 94.0745 287.388C94.1018 287.263 94.1538 287.144 94.2273 287.039C94.3008 286.934 94.3945 286.844 94.5029 286.775C94.6113 286.706 94.7322 286.66 94.8587 286.638C94.9853 286.616 95.1149 286.62 95.24 286.648C95.499 286.722 95.7673 286.787 96.0355 286.843C96.2783 285.813 96.384 284.755 96.35 283.698H96.2852C95.8878 283.881 95.5098 284.105 95.1568 284.364C94.9391 284.48 94.6854 284.511 94.4463 284.449C94.2072 284.387 94.0003 284.237 93.8671 284.029C93.7339 283.821 93.6841 283.57 93.7277 283.327C93.7713 283.084 93.9051 282.866 94.1023 282.717L94.056 282.699Z" fill="#EB5757"/>
<path opacity="0.3" d="M94.056 282.699C94.6333 282.297 95.2539 281.962 95.906 281.7C95.7347 281.214 95.4881 280.758 95.1752 280.349C92.3447 276.732 91.0682 280.349 88.876 280.405C88.3576 280.394 87.8427 280.492 87.3646 280.692C86.8866 280.893 86.4561 281.192 86.101 281.57C86.3758 281.672 86.6445 281.789 86.9057 281.922C87.0006 281.974 87.0826 282.046 87.1456 282.134C87.2086 282.222 87.251 282.323 87.2697 282.43C87.2883 282.536 87.2827 282.646 87.2534 282.75C87.224 282.854 87.1716 282.95 87.1 283.032C86.8251 283.377 86.4452 283.624 86.0178 283.735C85.8855 283.748 85.7522 283.748 85.62 283.735C85.7142 284.282 85.8822 284.814 86.1195 285.316C86.3954 285.921 86.7399 286.492 87.1463 287.018C87.3809 286.889 87.6252 286.777 87.877 286.685C87.9818 286.654 88.0922 286.648 88.1999 286.666C88.3077 286.684 88.41 286.726 88.499 286.789C88.5881 286.852 88.6617 286.935 88.7141 287.031C88.7666 287.126 88.7967 287.233 88.802 287.342C88.7647 287.729 88.6647 288.107 88.506 288.461C89.0773 288.949 89.6973 289.377 90.356 289.738L90.5502 289.618C90.7075 289.534 90.8555 289.46 91.0127 289.396C91.1021 289.354 91.1949 289.319 91.2902 289.294C91.4103 289.253 91.5391 289.244 91.6635 289.27C91.7878 289.295 91.9031 289.353 91.9974 289.438C92.0917 289.523 92.1616 289.632 92.1999 289.753C92.2382 289.874 92.2435 290.003 92.2152 290.126C92.2152 290.256 92.132 290.385 92.0858 290.506C92.9078 290.806 93.7937 290.889 94.6572 290.746C94.971 290.091 95.2459 289.417 95.4805 288.73L94.8145 288.554C94.5664 288.49 94.3496 288.339 94.204 288.128C94.0653 287.908 94.0187 287.642 94.0745 287.388C94.1018 287.263 94.1538 287.144 94.2273 287.039C94.3008 286.934 94.3945 286.844 94.5029 286.775C94.6113 286.706 94.7322 286.66 94.8587 286.638C94.9853 286.616 95.1149 286.62 95.24 286.648C95.499 286.722 95.7673 286.787 96.0355 286.843C96.2783 285.813 96.384 284.755 96.35 283.698H96.2852C95.8878 283.881 95.5098 284.105 95.1568 284.364C94.9391 284.48 94.6854 284.511 94.4463 284.449C94.2072 284.387 94.0003 284.237 93.8671 284.029C93.7339 283.821 93.6841 283.57 93.7277 283.327C93.7713 283.084 93.9051 282.866 94.1023 282.717L94.056 282.699Z" fill="white"/>
<path d="M66.9812 289.405C66.787 290.764 70.4777 291.662 73.4562 292.18C73.2065 294.649 71.6062 297.147 69.303 299.478C66.4447 297.868 62.3747 295.778 61.6162 296.259C60.8577 296.74 64.974 299.524 67.5825 301.115C65.7178 302.742 63.7429 304.238 61.6717 305.592C60.3952 304.39 58.8967 303.344 57.9717 303.909C57.0467 304.473 57.2965 306.351 57.759 307.997C54.651 309.847 52.3292 310.911 52.3292 310.911C51.4261 308.026 50.7336 305.08 50.2572 302.096C50.4052 301.79 50.5625 301.476 50.7105 301.171C51.21 300.014 50.7105 299.524 49.8965 299.321C49.6611 297.213 49.6425 295.087 49.841 292.975C53.356 292.235 57.6295 290.875 56.0292 288.766C55.1042 287.49 53.2542 287.351 51.4597 287.666C51.7096 287.243 52.0009 286.846 52.3292 286.482C58.721 279.442 63.1795 286.482 63.1795 286.482C66.8795 283.392 72.1242 284.225 73.2527 289.062C71.2177 288.526 67.2217 287.73 66.9812 289.405Z" fill="#EB5757"/>
<path opacity="0.5" d="M66.9812 289.405C66.787 290.764 70.4777 291.662 73.4562 292.18C73.2065 294.649 71.6062 297.147 69.303 299.478C66.4447 297.868 62.3747 295.778 61.6162 296.259C60.8577 296.74 64.974 299.524 67.5825 301.115C65.7178 302.742 63.7429 304.238 61.6717 305.592C60.3952 304.39 58.8967 303.344 57.9717 303.909C57.0467 304.473 57.2965 306.351 57.759 307.997C54.651 309.847 52.3292 310.911 52.3292 310.911C51.4261 308.026 50.7336 305.08 50.2572 302.096C50.4052 301.79 50.5625 301.476 50.7105 301.171C51.21 300.014 50.7105 299.524 49.8965 299.321C49.6611 297.213 49.6425 295.087 49.841 292.975C53.356 292.235 57.6295 290.875 56.0292 288.766C55.1042 287.49 53.2542 287.351 51.4597 287.666C51.7096 287.243 52.0009 286.846 52.3292 286.482C58.721 279.442 63.1795 286.482 63.1795 286.482C66.8795 283.392 72.1242 284.225 73.2527 289.062C71.2177 288.526 67.2217 287.73 66.9812 289.405Z" fill="white"/>
<path d="M48.8882 212.685L233.833 212.685C237.215 212.685 239.956 209.943 239.956 206.561L239.956 75.7661C239.956 72.3841 237.215 69.6426 233.833 69.6426L48.8882 69.6426C45.5062 69.6426 42.7647 72.3841 42.7647 75.7661L42.7647 206.561C42.7647 209.943 45.5062 212.685 48.8882 212.685Z" fill="#EB5757"/>
<path opacity="0.6" d="M239.956 75.7568V206.561C239.956 207.364 239.798 208.159 239.491 208.901C239.183 209.643 238.733 210.317 238.165 210.884C237.598 211.452 236.924 211.903 236.182 212.21C235.44 212.517 234.645 212.675 233.842 212.675H48.8882C47.2666 212.675 45.7114 212.031 44.5648 210.884C43.4181 209.738 42.7739 208.183 42.7739 206.561V75.7568C42.7727 74.9531 42.93 74.157 43.2367 73.4141C43.5434 72.6713 43.9936 71.9961 44.5615 71.4274C45.1294 70.8587 45.8038 70.4075 46.5462 70.0996C47.2886 69.7918 48.0845 69.6333 48.8882 69.6333H233.888C235.503 69.6455 237.048 70.2964 238.185 71.4437C239.322 72.591 239.959 74.1416 239.956 75.7568Z" fill="white"/>
<path opacity="0.4" d="M189.673 207.264C187.22 207.264 184.867 206.29 183.132 204.555C181.398 202.82 180.423 200.467 180.423 198.014C180.423 195.561 181.398 193.208 183.132 191.473C184.867 189.739 187.22 188.764 189.673 188.764H224.99C227.443 188.764 229.796 189.739 231.53 191.473C233.265 193.208 234.24 195.561 234.24 198.014C234.24 200.467 233.265 202.82 231.53 204.555C229.796 206.29 227.443 207.264 224.99 207.264H189.673Z" fill="white"/>
<path d="M224.99 189.698H189.673C187.465 189.698 185.348 190.575 183.786 192.137C182.225 193.698 181.348 195.815 181.348 198.023C181.348 200.231 182.225 202.349 183.786 203.91C185.348 205.471 187.465 206.348 189.673 206.348H224.99C227.198 206.348 229.315 205.471 230.876 203.91C232.438 202.349 233.315 200.231 233.315 198.023C233.315 195.815 232.438 193.698 230.876 192.137C229.315 190.575 227.198 189.698 224.99 189.698Z" fill="#EB5757"/>
<path opacity="0.7" d="M232.538 132.645H52.7177C52.2937 132.645 51.95 132.988 51.95 133.412V143.856C51.95 144.28 52.2937 144.623 52.7177 144.623H232.538C232.962 144.623 233.305 144.28 233.305 143.856V133.412C233.305 132.988 232.962 132.645 232.538 132.645Z" fill="black"/>
<path d="M58.2677 134.55H53.8739V142.718H58.2677V134.55Z" fill="#EB5757"/>
<path d="M106.099 134.55H101.706V142.718H106.099V134.55Z" fill="#EB5757"/>
<path d="M112.084 134.55H107.69V142.718H112.084V134.55Z" fill="#EB5757"/>
<path d="M118.06 134.55H113.666V142.718H118.06V134.55Z" fill="#EB5757"/>
<path d="M124.035 134.55H119.641V142.718H124.035V134.55Z" fill="#EB5757"/>
<path d="M130.02 134.55H125.626V142.718H130.02V134.55Z" fill="#EB5757"/>
<path opacity="0.9" d="M135.995 134.55H131.602V142.718H135.995V134.55Z" fill="#EB5757"/>
<path opacity="0.8" d="M141.98 134.55H137.586V142.718H141.98V134.55Z" fill="#EB5757"/>
<path opacity="0.7" d="M147.956 134.55H143.562V142.718H147.956V134.55Z" fill="#EB5757"/>
<path opacity="0.6" d="M153.94 134.55H149.547V142.718H153.94V134.55Z" fill="#EB5757"/>
<path opacity="0.5" d="M159.916 134.55H155.522V142.718H159.916V134.55Z" fill="#EB5757"/>
<path opacity="0.4" d="M165.891 134.55H161.498V142.718H165.891V134.55Z" fill="#EB5757"/>
<path opacity="0.3" d="M171.876 134.55H167.482V142.718H171.876V134.55Z" fill="#EB5757"/>
<path opacity="0.2" d="M177.852 134.55H173.458V142.718H177.852V134.55Z" fill="#EB5757"/>
<path d="M100.124 134.55H95.7302V142.718H100.124V134.55Z" fill="#EB5757"/>
<path d="M94.1391 134.55H89.7454V142.718H94.1391V134.55Z" fill="#EB5757"/>
<path d="M88.1636 134.55H83.7699V142.718H88.1636V134.55Z" fill="#EB5757"/>
<path d="M82.1789 134.55H77.7852V142.718H82.1789V134.55Z" fill="#EB5757"/>
<path d="M76.2034 134.55H71.8097V142.718H76.2034V134.55Z" fill="#EB5757"/>
<path d="M70.228 134.55H65.8342V142.718H70.228V134.55Z" fill="#EB5757"/>
<path d="M64.2431 134.55H59.8494V142.718H64.2431V134.55Z" fill="#EB5757"/>
<path opacity="0.7" d="M82.8357 122.997H53.9572C53.424 122.999 52.9135 123.213 52.5373 123.59C52.1611 123.968 51.9499 124.48 51.95 125.013C51.95 125.545 52.1614 126.056 52.5379 126.432C52.9143 126.809 53.4248 127.02 53.9572 127.02H82.8357C83.3681 127.02 83.8786 126.809 84.255 126.432C84.6315 126.056 84.8429 125.545 84.8429 125.013C84.843 124.48 84.6318 123.968 84.2556 123.59C83.8794 123.213 83.3689 122.999 82.8357 122.997Z" fill="#EB5757"/>
<path d="M239.956 75.7568V90.7788H42.7739V75.7568C42.7727 74.9531 42.93 74.157 43.2367 73.4141C43.5434 72.6713 43.9936 71.9961 44.5615 71.4274C45.1294 70.8587 45.8038 70.4075 46.5462 70.0996C47.2886 69.7918 48.0845 69.6333 48.8882 69.6333H233.888C235.503 69.6455 237.048 70.2964 238.185 71.4437C239.322 72.591 239.959 74.1416 239.956 75.7568Z" fill="#EB5757"/>
<path opacity="0.6" d="M234.878 80.5297C234.878 81.1572 234.692 81.7706 234.343 82.2924C233.995 82.8141 233.499 83.2208 232.919 83.4609C232.34 83.7011 231.702 83.7639 231.086 83.6415C230.471 83.519 229.905 83.2169 229.462 82.7732C229.018 82.3294 228.716 81.7641 228.593 81.1487C228.471 80.5332 228.534 79.8953 228.774 79.3155C229.014 78.7358 229.421 78.2403 229.943 77.8916C230.464 77.543 231.078 77.3569 231.705 77.3569C232.547 77.3569 233.354 77.6912 233.949 78.2862C234.544 78.8812 234.878 79.6882 234.878 80.5297Z" fill="white"/>
<path opacity="0.6" d="M225.628 80.5297C225.628 81.1572 225.442 81.7706 225.093 82.2924C224.745 82.8141 224.249 83.2208 223.669 83.4609C223.09 83.7011 222.452 83.7639 221.836 83.6415C221.221 83.519 220.655 83.2169 220.212 82.7732C219.768 82.3294 219.466 81.7641 219.343 81.1487C219.221 80.5332 219.284 79.8953 219.524 79.3155C219.764 78.7358 220.171 78.2403 220.693 77.8916C221.214 77.543 221.828 77.3569 222.455 77.3569C223.297 77.3569 224.104 77.6912 224.699 78.2862C225.294 78.8812 225.628 79.6882 225.628 80.5297Z" fill="white"/>
<path opacity="0.6" d="M216.378 80.5297C216.378 81.1572 216.192 81.7706 215.843 82.2924C215.495 82.8141 214.999 83.2208 214.419 83.4609C213.84 83.7011 213.202 83.7639 212.586 83.6415C211.971 83.519 211.405 83.2169 210.962 82.7732C210.518 82.3294 210.216 81.7641 210.093 81.1487C209.971 80.5332 210.034 79.8953 210.274 79.3155C210.514 78.7358 210.921 78.2403 211.443 77.8916C211.964 77.543 212.578 77.3569 213.205 77.3569C214.047 77.3569 214.854 77.6912 215.449 78.2862C216.044 78.8812 216.378 79.6882 216.378 80.5297Z" fill="white"/>
<path opacity="0.7" d="M239.956 90.7788H42.7739V114.912H239.956V90.7788Z" fill="black"/>
<path opacity="0.6" d="M147.586 97.0967H53.9572C53.424 97.0991 52.9135 97.3127 52.5373 97.6906C52.1611 98.0685 51.9499 98.58 51.95 99.1132C51.95 99.6455 52.1614 100.156 52.5379 100.533C52.9143 100.909 53.4248 101.12 53.9572 101.12H147.586C148.118 101.12 148.629 100.909 149.005 100.533C149.381 100.156 149.593 99.6455 149.593 99.1132C149.593 98.58 149.382 98.0685 149.006 97.6906C148.629 97.3127 148.119 97.0991 147.586 97.0967Z" fill="white"/>
<path opacity="0.6" d="M119.836 105.421H53.9572C53.424 105.424 52.9135 105.637 52.5373 106.015C52.1611 106.393 51.9499 106.905 51.95 107.438C51.95 107.97 52.1614 108.481 52.5379 108.857C52.9143 109.234 53.4248 109.445 53.9572 109.445H119.836C120.368 109.445 120.879 109.234 121.255 108.857C121.631 108.481 121.843 107.97 121.843 107.438C121.843 106.905 121.632 106.393 121.256 106.015C120.879 105.637 120.369 105.424 119.836 105.421Z" fill="white"/>
<path opacity="0.6" d="M233.305 97.0967H212.872V109.436H233.305V97.0967Z" fill="white"/>
<path d="M232.103 151.422H51.95V181.299H232.103V151.422Z" fill="white"/>
<path opacity="0.2" d="M123.517 154.447H57.0744C56.8866 154.447 56.7006 154.484 56.5272 154.556C56.3537 154.628 56.1963 154.734 56.0639 154.867C55.9315 155.001 55.8267 155.159 55.7557 155.333C55.6847 155.506 55.6487 155.693 55.6499 155.881C55.6487 156.068 55.6847 156.254 55.7559 156.427C55.827 156.6 55.9319 156.758 56.0644 156.891C56.1969 157.023 56.3545 157.128 56.5278 157.199C56.7012 157.27 56.887 157.306 57.0744 157.305H123.517C123.895 157.305 124.257 157.155 124.524 156.888C124.792 156.621 124.942 156.258 124.942 155.881C124.943 155.693 124.907 155.506 124.836 155.333C124.765 155.159 124.66 155.001 124.528 154.867C124.395 154.734 124.238 154.628 124.064 154.556C123.891 154.484 123.705 154.447 123.517 154.447Z" fill="black"/>
<path opacity="0.2" d="M103.824 161.042H57.0744C56.887 161.041 56.7012 161.077 56.5278 161.148C56.3545 161.219 56.1969 161.324 56.0644 161.457C55.9319 161.589 55.827 161.747 55.7559 161.92C55.6847 162.093 55.6487 162.279 55.6499 162.467C55.6487 162.654 55.6847 162.84 55.7559 163.013C55.827 163.186 55.9319 163.344 56.0644 163.477C56.1969 163.609 56.3545 163.714 56.5278 163.785C56.7012 163.856 56.887 163.892 57.0744 163.891H103.824C104.202 163.891 104.564 163.741 104.831 163.474C105.098 163.207 105.248 162.844 105.248 162.467C105.248 162.089 105.098 161.726 104.831 161.459C104.564 161.192 104.202 161.042 103.824 161.042Z" fill="black"/>
<path opacity="0.2" d="M150.074 167.637H57.0744C56.887 167.636 56.7012 167.672 56.5278 167.743C56.3545 167.814 56.1969 167.919 56.0644 168.052C55.9319 168.184 55.827 168.342 55.7559 168.515C55.6847 168.689 55.6487 168.874 55.6499 169.062C55.6487 169.249 55.6847 169.435 55.7559 169.608C55.827 169.782 55.9319 169.939 56.0644 170.072C56.1969 170.204 56.3545 170.309 56.5278 170.38C56.7012 170.451 56.887 170.487 57.0744 170.486H150.074C150.452 170.486 150.814 170.336 151.081 170.069C151.348 169.802 151.498 169.44 151.498 169.062C151.498 168.684 151.348 168.322 151.081 168.054C150.814 167.787 150.452 167.637 150.074 167.637Z" fill="black"/>
<path opacity="0.2" d="M94.5739 174.232H57.0744C56.887 174.231 56.7012 174.267 56.5278 174.338C56.3545 174.41 56.1969 174.514 56.0644 174.647C55.9319 174.779 55.827 174.937 55.7559 175.11C55.6847 175.284 55.6487 175.47 55.6499 175.657C55.6487 175.844 55.6847 176.03 55.7559 176.204C55.827 176.377 55.9319 176.534 56.0644 176.667C56.1969 176.799 56.3545 176.904 56.5278 176.976C56.7012 177.047 56.887 177.083 57.0744 177.081H94.5739C94.9517 177.081 95.3141 176.931 95.5812 176.664C95.8484 176.397 95.9984 176.035 95.9984 175.657C95.9984 175.279 95.8484 174.917 95.5812 174.65C95.3141 174.383 94.9517 174.232 94.5739 174.232Z" fill="black"/>
<path opacity="0.4" d="M232.103 151.422H228.523V181.299H232.103V151.422Z" fill="black"/>
<path d="M232.103 151.422H228.523V161.569H232.103V151.422Z" fill="#EB5757"/>
<path opacity="0.6" d="M82.8357 78.5967H53.9572C53.424 78.5991 52.9135 78.8127 52.5373 79.1906C52.1611 79.5685 51.9499 80.08 51.95 80.6132C51.95 81.1455 52.1614 81.6561 52.5379 82.0325C52.9143 82.409 53.4248 82.6204 53.9572 82.6204H82.8357C83.3681 82.6204 83.8786 82.409 84.255 82.0325C84.6315 81.6561 84.8429 81.1455 84.8429 80.6132C84.843 80.08 84.6318 79.5685 84.2556 79.1906C83.8794 78.8127 83.3689 78.5991 82.8357 78.5967Z" fill="white"/>
<path opacity="0.1" d="M239.956 90.7788V114.912H150.925C163.172 102.212 180.432 94.8581 193.771 90.7788H239.956Z" fill="white"/>
<path d="M351.983 239.297H251.658C249.491 239.297 247.414 240.158 245.882 241.69C244.35 243.221 243.49 245.299 243.49 247.465L232.39 318.2H349.051L360.151 247.465C360.148 245.3 359.287 243.224 357.756 241.692C356.225 240.161 354.148 239.3 351.983 239.297Z" fill="#EB5757"/>
<path opacity="0.4" d="M351.983 239.297H251.658C249.491 239.297 247.414 240.158 245.882 241.69C244.35 243.221 243.49 245.299 243.49 247.465L232.39 318.2H349.051L360.151 247.465C360.148 245.3 359.287 243.224 357.756 241.692C356.225 240.161 354.148 239.3 351.983 239.297Z" fill="white"/>
<path opacity="0.2" d="M332.706 319.208H349.051L360.151 247.428C360.148 245.261 359.286 243.183 357.753 241.652C356.219 240.121 354.141 239.26 351.974 239.26C349.808 239.26 347.73 240.121 346.198 241.653C344.667 243.184 343.806 245.262 343.806 247.428L332.706 319.208Z" fill="black"/>
<path d="M232.677 266.612H193.956H193.54C192.231 266.612 190.935 266.87 189.725 267.372C188.516 267.873 187.417 268.607 186.492 269.533C185.567 270.46 184.833 271.559 184.333 272.769C183.833 273.978 183.576 275.275 183.578 276.584V352.295H242.056V276.565C242.092 274.013 241.133 271.546 239.383 269.689C237.632 267.831 235.227 266.727 232.677 266.612Z" fill="#EB5757"/>
<path opacity="0.5" d="M232.677 266.612H193.956H193.54C192.231 266.612 190.935 266.87 189.725 267.372C188.516 267.873 187.417 268.607 186.492 269.533C185.567 270.46 184.833 271.559 184.333 272.769C183.833 273.978 183.576 275.275 183.578 276.584V352.295H242.056V276.565C242.092 274.013 241.133 271.546 239.383 269.689C237.632 267.831 235.227 266.727 232.677 266.612Z" fill="white"/>
<path opacity="0.6" d="M193.54 266.594C192.231 266.594 190.935 266.852 189.725 267.353C188.516 267.854 187.417 268.589 186.492 269.515C185.567 270.441 184.833 271.54 184.333 272.75C183.833 273.96 183.576 275.256 183.578 276.565V352.277H203.511V276.565C203.512 275.255 203.255 273.958 202.755 272.748C202.254 271.538 201.52 270.438 200.593 269.512C199.667 268.585 198.567 267.851 197.357 267.35C196.147 266.85 194.85 266.593 193.54 266.594Z" fill="white"/>
<path d="M295.503 291.689H210.023V352.277H295.503V291.689Z" fill="#EB5757"/>
<path opacity="0.4" d="M295.503 291.689H210.023V352.277H295.503V291.689Z" fill="white"/>
<path d="M311.745 306.49H215.592C212.805 306.49 210.132 305.383 208.161 303.412C206.191 301.441 205.084 298.769 205.084 295.982C205.084 293.195 206.191 290.522 208.161 288.551C210.132 286.581 212.805 285.474 215.592 285.474H311.792L311.745 306.49Z" fill="#EB5757"/>
<path opacity="0.6" d="M311.745 306.49H215.592C212.805 306.49 210.132 305.383 208.161 303.412C206.191 301.441 205.084 298.769 205.084 295.982C205.084 293.195 206.191 290.522 208.161 288.551C210.132 286.581 212.805 285.474 215.592 285.474H311.792L311.745 306.49Z" fill="white"/>
<path d="M265.949 259.204L293.097 266.521C295.179 259.333 299.193 246.642 303.319 238.438C304.641 235.783 306.223 232.841 308.156 229.465C309.192 227.661 310.321 225.765 311.56 223.656C312.485 222.084 313.503 220.409 314.594 218.652C310.892 216.498 307.041 214.613 303.069 213.009C298.888 211.269 294.588 209.829 290.202 208.699C284.504 207.385 277.798 206.571 277.798 206.571C277.798 206.571 276.817 206.571 274.884 212.51C273.09 218.069 269.325 238.271 265.949 259.204Z" fill="#EBB376"/>
<path d="M245.395 260.572C249.798 256.808 261.12 260.008 262.739 260.508L263.886 253.949L264.136 252.525L293.736 254.81C293.976 255.374 294.217 255.938 294.448 256.512C294.966 257.788 295.438 259.092 295.882 260.397C308.517 260.397 315.575 268.222 312.689 276.806C309.452 286.417 300.553 296.425 289.305 296.425C287.056 296.447 284.826 296.016 282.747 295.158C278.222 293.401 273.245 293.184 268.585 294.538C265.473 295.221 262.252 295.24 259.132 294.594C231.502 289.83 239.374 265.715 245.395 260.572Z" fill="#EB5757"/>
<path opacity="0.6" d="M275.8 256.299C275.8 256.596 275.712 256.886 275.547 257.132C275.382 257.379 275.147 257.571 274.873 257.684C274.598 257.797 274.297 257.826 274.006 257.768C273.715 257.709 273.448 257.566 273.239 257.355C273.029 257.145 272.887 256.877 272.831 256.585C272.774 256.294 272.805 255.993 272.92 255.719C273.035 255.445 273.228 255.212 273.476 255.048C273.723 254.885 274.014 254.798 274.311 254.8C274.707 254.803 275.085 254.962 275.364 255.242C275.643 255.523 275.8 255.903 275.8 256.299Z" fill="white"/>
<path d="M277.104 253.653L276.734 257.113C276.713 257.295 276.623 257.462 276.481 257.58C276.34 257.697 276.159 257.755 275.976 257.742L271.351 257.372C271.258 257.365 271.167 257.339 271.084 257.297C271.002 257.254 270.928 257.195 270.869 257.123C270.809 257.052 270.765 256.969 270.738 256.88C270.711 256.79 270.702 256.697 270.713 256.604L271.036 253.2C271.053 253.017 271.14 252.847 271.281 252.728C271.421 252.609 271.602 252.549 271.786 252.562L276.411 252.876C276.508 252.878 276.604 252.901 276.693 252.942C276.782 252.982 276.861 253.041 276.926 253.114C276.991 253.187 277.041 253.272 277.071 253.365C277.102 253.458 277.113 253.556 277.104 253.653Z" fill="#E0E0E0"/>
<path d="M284.828 254.069L285.198 258.139H286.336L286.16 254.069H284.828Z" fill="#EB5757"/>
<path d="M268.224 252.83L267.771 257.094H266.717L267.087 252.654L268.224 252.83Z" fill="#EB5757"/>
<path opacity="0.1" d="M259.15 294.585C262.267 295.23 265.485 295.211 268.594 294.529C273.254 293.176 278.23 293.39 282.756 295.14C284.836 296.005 287.071 296.44 289.323 296.416C300.571 296.416 309.47 286.408 312.698 276.797C313.327 275.002 313.493 273.077 313.179 271.201L277.65 276.566C279.352 266.058 290.211 262.746 290.211 262.746C283.995 262.571 272.794 270.433 272.794 270.433C271.236 268.904 269.428 267.652 267.447 266.733C268.193 267.712 268.794 268.793 269.232 269.943L266.698 270.461C263.488 262.959 259.298 259.666 249.484 259.037L242.5 264.328C237.755 272.921 235.914 290.589 259.15 294.585Z" fill="black"/>
<path d="M216.239 267.353C230.494 278.517 262.027 291.477 262.027 291.477C263.881 288.203 265.039 284.581 265.428 280.839C265.816 277.097 265.427 273.314 264.284 269.73C263.697 267.942 262.941 266.213 262.027 264.568C262.027 264.568 224.435 245.264 211.152 255.198C207.239 258.167 210.171 262.589 216.239 267.353Z" fill="#EBB376"/>
<path d="M311.755 267.704C305.724 254.069 287.705 262.737 281.655 270.775C275.106 279.461 279.232 292.688 289.259 292.577C297.649 292.475 317.148 279.905 311.755 267.704Z" fill="#EBB376"/>
<path opacity="0.1" d="M280.675 287.952C281.583 289.4 282.851 290.588 284.356 291.399C285.86 292.209 287.55 292.615 289.259 292.577C295.133 292.503 306.473 286.306 310.867 278.406C312.717 275.039 313.364 271.358 311.792 267.704C311.727 267.556 311.653 267.408 311.579 267.26C310.838 265.517 309.656 263.997 308.15 262.851C306.643 261.704 304.863 260.97 302.986 260.72C295.364 259.647 285.799 265.345 281.711 270.793C277.585 276.177 277.65 283.336 280.675 287.952Z" fill="black"/>
<path opacity="0.2" d="M216.239 267.353C230.494 278.517 262.027 291.477 262.027 291.477C263.881 288.203 265.039 284.581 265.428 280.839C265.816 277.097 265.427 273.315 264.284 269.73C261.327 270.989 258.183 271.751 254.978 271.987C254.978 271.987 235.831 256.872 223.88 259.277C220.522 259.962 217.756 263.116 216.239 267.353Z" fill="black"/>
<path d="M233.648 282.199C244.119 287.271 254.852 291.785 265.801 295.722C273.756 298.627 279.26 300.347 279.26 300.347L282.617 292.716C280.878 292.099 279.149 291.433 277.428 290.718C269.821 287.345 262.546 283.266 255.7 278.536C234.721 264.467 217.775 248.196 210.227 256.114C202.818 263.865 216.535 273.754 233.648 282.199Z" fill="#EBB376"/>
<path d="M273.95 288.489L269.991 298.035C269.991 298.035 278.982 301.384 281.026 302.753C283.755 304.603 286.576 310.097 288.778 309.737C290.979 309.376 294.059 305.722 291.368 301.014C288.676 296.306 288.167 293.262 285.882 291.912C283.598 290.561 282.34 291.792 278.223 290.802C276.719 290.189 275.286 289.414 273.95 288.489Z" fill="#263238"/>
<path d="M279.5 301.078L279.574 301.032H279.648H279.722H279.796C279.879 301.096 281.433 302.41 281.489 303.622C281.499 303.806 281.469 303.99 281.4 304.161C281.331 304.332 281.226 304.486 281.091 304.611C280.795 304.907 280.508 305 280.249 304.889C279.99 304.778 279.639 304.01 279.537 303.252C279.419 303.876 279.131 304.455 278.705 304.926C278.612 305.006 278.505 305.066 278.389 305.104C278.273 305.143 278.151 305.157 278.029 305.148C277.867 305.152 277.707 305.106 277.572 305.017C277.436 304.928 277.331 304.799 277.271 304.648C277.207 304.399 277.23 304.134 277.336 303.899C277.887 302.84 278.62 301.885 279.5 301.078ZM279.371 301.836C278.446 302.761 277.521 304.066 277.678 304.547C277.678 304.547 277.743 304.713 278.076 304.75C278.14 304.755 278.205 304.746 278.265 304.723C278.326 304.701 278.381 304.666 278.427 304.621C278.664 304.383 278.838 304.091 278.936 303.77C279.148 303.142 279.296 302.494 279.38 301.836H279.371ZM281.054 303.686C280.879 302.926 280.464 302.241 279.87 301.735C279.87 303.048 280.083 304.38 280.425 304.51C280.527 304.556 280.693 304.417 280.786 304.334C280.883 304.242 280.956 304.128 280.999 304.001C281.039 303.898 281.061 303.788 281.063 303.677L281.054 303.686Z" fill="#EB5757"/>
<path opacity="0.1" d="M233.648 282.199C244.119 287.271 254.852 291.785 265.801 295.722C269.78 294.319 273.663 292.66 277.428 290.755C269.821 287.382 262.546 283.303 255.7 278.573C248.213 278.719 240.787 279.94 233.648 282.199Z" fill="black"/>
<path d="M229.485 285.889L230.956 294.094C230.956 294.094 257.781 292.771 280.675 287.952C293.181 285.325 304.493 281.644 309.553 276.575C312.125 273.994 313.087 271.025 311.755 267.704C311.69 267.556 311.616 267.408 311.542 267.26C310.284 264.994 307.037 264.485 302.421 265.086C297.038 265.789 289.786 268.018 281.674 270.793C265.051 276.427 244.812 284.326 229.485 285.889Z" fill="#EBB376"/>
<path d="M231.687 284.678L232.417 294.797C232.417 294.797 222.862 295.667 220.531 296.444C217.414 297.48 213.224 302.058 211.207 301.143C209.191 300.227 207.174 295.879 211.013 292.041C214.852 288.202 216.137 285.408 218.7 284.705C221.262 284.002 222.141 285.529 226.377 285.63C228.169 285.452 229.945 285.134 231.687 284.678Z" fill="#263238"/>
<path d="M277.798 206.562C270.546 206.821 258.031 219.641 251.436 222.287C244.84 224.932 238.8 207.441 238.8 207.441C238.8 207.441 239.845 203.741 234.508 200.67C229.171 197.599 227.82 196.479 226.914 199.291C226.007 202.103 225.138 205.72 226.664 206.562C228.19 207.404 232.658 210.345 234.018 210.345C234.018 210.345 241.64 234.885 250.955 233.637C260.269 232.388 267.188 224.572 274.246 221.889L277.798 206.562Z" fill="#EBB376"/>
<path d="M313.725 217.514C308.16 214.659 302.423 212.154 296.548 210.012C291.756 208.319 281.35 205.979 276.558 206.312C271.767 206.645 252.721 220.797 252.721 220.797L258.271 232.332L262.554 230.057L270.315 226.051C270.315 226.051 265.588 239.926 263.923 247.391L296.252 259.037C296.252 259.037 296.252 256.659 303.707 241.018C305.363 237.558 306.898 234.478 307.99 233.294L313.725 217.514Z" fill="#263238"/>
<path d="M308.009 216.08C308.009 216.08 297.982 221.084 290.101 219.216C282.22 217.347 281.415 207.838 281.415 207.838C281.415 207.838 294.485 206.923 308.009 216.08Z" fill="#EBB376"/>
<path d="M309.544 179.431C309.544 179.431 307.352 174.612 296.252 177.063C285.152 179.515 283.2 194.185 285.975 199.439C288.75 204.693 304.003 204.36 304.003 204.36L307.703 203.167C307.703 203.167 312.541 202.344 313.586 191.456C314.632 180.569 309.544 179.431 309.544 179.431Z" fill="#263238"/>
<path d="M308.869 182.696C308.869 182.696 309.692 177.563 315.002 177.637C320.311 177.711 323.854 179.653 324.325 185.758C324.797 191.863 319.793 197.783 319.155 200.105C318.517 202.427 322.697 202.343 321.606 204.573C320.514 206.802 317.795 206.783 317.601 208.273C317.407 209.762 320.302 209.373 318.683 213.379C317.064 217.384 312.726 216.903 312.208 215.377C311.69 213.85 314.733 214.535 313.29 212.176C311.847 209.817 309.738 210.206 311.246 206.857C312.754 203.509 312.846 201.899 309.812 199.272C306.778 196.645 308.869 182.696 308.869 182.696Z" fill="#263238"/>
<path d="M295.651 225.644C296.036 225.459 296.448 225.335 296.872 225.274C297.121 225.33 298.305 232.341 299.23 234.043L298.416 233.461L298.805 235.967C298.046 234.467 297.427 232.9 296.955 231.287L297.343 233.22C297.343 233.22 295.882 227.559 295.651 225.644Z" fill="white"/>
<path d="M293.634 230.806C293.634 230.806 300.646 226.8 300.914 227.013C301.182 227.226 301.154 227.855 301.21 228.179C301.265 228.502 296.52 230.759 294.864 231.583L295.66 230.972C295.66 230.972 294.319 231.647 293.144 232.286C293.641 231.807 294.17 231.362 294.726 230.954L293.801 231.287C293.801 231.287 294.726 230.528 295.845 229.834C295.882 229.834 294.79 230.251 293.634 230.806Z" fill="white"/>
<path opacity="0.2" d="M308.027 233.267C306.935 234.451 305.354 237.512 303.744 240.99C302.949 233.313 307.629 227.023 307.629 227.023C307.247 229.105 307.383 231.25 308.027 233.267Z" fill="black"/>
<path opacity="0.2" d="M273.599 216.829C272.331 219.9 270.352 226.024 270.352 226.024L262.591 230.047C266.254 222 273.599 216.829 273.599 216.829Z" fill="black"/>
<path d="M313.725 217.514C316.833 219.225 327.813 232.314 327.813 232.314L316.296 242.859L305.881 233.609C305.817 230.173 306.247 226.747 307.157 223.434C308.563 219.04 313.725 217.514 313.725 217.514Z" fill="#263238"/>
<path d="M304.808 205.073C303.986 205.89 303.354 206.878 302.958 207.968C302.143 210.16 301.548 212.429 301.182 214.739C301.182 214.739 294.541 216.589 292.728 215.275C290.915 213.962 290.239 210.974 290.239 210.974C290.721 210.8 291.189 210.586 291.636 210.336C295.447 208.245 294.189 205.073 294.189 205.073C294.189 205.073 307.25 202.945 304.808 205.073Z" fill="#EBB376"/>
<path opacity="0.2" d="M304.808 205.072C303.986 205.889 303.354 206.878 302.958 207.967C300.238 210.548 296.159 212.898 291.645 210.345C295.456 208.254 294.198 205.081 294.198 205.081C294.198 205.081 307.25 202.945 304.808 205.072Z" fill="black"/>
<path d="M309.34 198.967C308.36 203.259 305.779 207.033 301.459 208.458L300.858 208.633C291.257 211.205 288.722 204.212 288.981 194.185C289.185 186.165 291.497 181.901 299.249 181.559C307.509 181.189 311.19 190.966 309.34 198.967Z" fill="#EBB376"/>
<path d="M293.976 193.528C293.404 194.715 292.693 195.83 291.858 196.849C292.101 197.159 292.425 197.395 292.794 197.534C293.162 197.673 293.562 197.708 293.949 197.635L293.976 193.528Z" fill="#D58745"/>
<path d="M301.7 188.848C301.062 188.87 300.427 188.747 299.843 188.487C299.26 188.228 298.743 187.838 298.333 187.349C298.306 187.314 298.287 187.274 298.277 187.232C298.266 187.189 298.264 187.145 298.271 187.102C298.278 187.059 298.294 187.017 298.317 186.98C298.34 186.943 298.371 186.911 298.407 186.886C298.443 186.86 298.483 186.84 298.526 186.83C298.57 186.819 298.615 186.817 298.659 186.824C298.702 186.831 298.745 186.846 298.782 186.87C298.82 186.893 298.853 186.924 298.879 186.961C299.254 187.376 299.719 187.701 300.238 187.911C300.757 188.121 301.317 188.21 301.876 188.172C301.92 188.168 301.965 188.174 302.007 188.188C302.05 188.201 302.089 188.224 302.123 188.253C302.156 188.282 302.184 188.318 302.203 188.358C302.223 188.398 302.234 188.442 302.236 188.487C302.24 188.53 302.235 188.574 302.222 188.615C302.208 188.656 302.187 188.694 302.158 188.727C302.13 188.76 302.095 188.787 302.056 188.806C302.017 188.825 301.975 188.836 301.931 188.838L301.7 188.848Z" fill="#263238"/>
<path d="M290.119 188.329C289.906 188.329 289.777 188.329 289.758 188.329C289.681 188.303 289.615 188.25 289.574 188.179C289.532 188.108 289.518 188.025 289.532 187.945C289.547 187.864 289.59 187.791 289.653 187.74C289.717 187.688 289.797 187.661 289.879 187.663C290.371 187.696 290.864 187.617 291.322 187.433C291.78 187.249 292.191 186.964 292.524 186.6C292.589 186.538 292.676 186.505 292.765 186.508C292.809 186.509 292.853 186.519 292.893 186.537C292.934 186.555 292.97 186.581 293 186.614C293.031 186.646 293.054 186.684 293.07 186.725C293.086 186.766 293.093 186.81 293.092 186.855C293.091 186.899 293.081 186.942 293.063 186.983C293.045 187.023 293.019 187.06 292.986 187.09C292.226 187.856 291.199 188.3 290.119 188.329Z" fill="#263238"/>
<path d="M308.314 194.24C308.314 194.24 304.401 188.034 304.734 183.14C304.734 183.14 289.074 177.59 289.009 193.186C289.009 193.186 286.881 179.403 300.192 178.488C313.503 177.572 314.335 197.089 307.712 203.213C307.731 203.167 310.737 198.125 308.314 194.24Z" fill="#263238"/>
<path d="M307.12 195.942C307.154 195.04 307.544 194.188 308.205 193.573C308.865 192.957 309.742 192.629 310.645 192.659C313.059 192.816 314.428 197.7 308.508 199.134C307.657 199.365 307.13 198.597 307.12 195.942Z" fill="#EBB376"/>
<path d="M294.217 200.947C294.168 200.961 294.117 200.961 294.069 200.947C294.029 200.928 293.994 200.902 293.965 200.869C293.935 200.837 293.913 200.799 293.898 200.757C293.884 200.716 293.877 200.672 293.879 200.629C293.882 200.585 293.893 200.542 293.911 200.503C294.938 198.403 297.334 198.514 298.462 198.866C298.504 198.878 298.543 198.899 298.577 198.927C298.61 198.955 298.638 198.989 298.658 199.028C298.678 199.067 298.689 199.11 298.692 199.153C298.695 199.197 298.69 199.241 298.675 199.282C298.663 199.324 298.642 199.363 298.614 199.397C298.586 199.431 298.552 199.459 298.513 199.479C298.475 199.5 298.432 199.513 298.389 199.517C298.345 199.521 298.301 199.517 298.259 199.504C298.148 199.504 295.539 198.69 294.559 200.79C294.524 200.847 294.473 200.893 294.412 200.921C294.351 200.949 294.283 200.958 294.217 200.947Z" fill="#263238"/>
<path opacity="0.2" d="M309.34 198.968C308.36 203.26 305.779 207.034 301.459 208.458C301.2 204.693 304.179 196.609 305.835 197.044C307.101 197.488 308.286 198.138 309.34 198.968Z" fill="black"/>
<path d="M298.139 193.047C298.139 193.686 298.481 194.204 298.907 194.194C299.332 194.185 299.647 193.667 299.647 193.029C299.647 192.391 299.295 191.882 298.879 191.891C298.463 191.9 298.139 192.363 298.139 193.047Z" fill="#263238"/>
<path d="M290.6 192.659C290.6 193.288 290.942 193.806 291.368 193.806C291.793 193.806 292.117 193.27 292.117 192.641C292.117 192.012 291.765 191.494 291.349 191.494C290.933 191.494 290.6 192.012 290.6 192.659Z" fill="#263238"/>
<path d="M305.835 197.848C307.213 197.219 310.663 199.791 311.015 200.411C312.005 202.159 309.914 207.441 309.914 207.441C309.914 207.441 330.773 229.104 331.467 237.337C332.16 245.569 319.016 240.306 319.016 240.306L320.672 238.789C320.672 238.789 316.842 227.569 305.872 210.826C305.872 210.826 303.68 210.262 303.097 208.976C302.514 207.69 304.475 198.487 305.835 197.848Z" fill="#EBB376"/>
<path d="M230.244 198.255C230.244 198.255 222.15 194.435 221.577 195.591C221.003 196.747 227.469 199.291 227.469 199.291L230.244 198.255Z" fill="#EBB376"/>
<path d="M344.602 266.612H305.881H305.465C304.156 266.612 302.86 266.87 301.65 267.372C300.441 267.873 299.342 268.607 298.417 269.533C297.492 270.46 296.758 271.559 296.258 272.769C295.758 273.978 295.501 275.275 295.503 276.584V352.295H353.981V276.565C354.017 274.013 353.059 271.546 351.308 269.689C349.557 267.831 347.152 266.727 344.602 266.612Z" fill="#EB5757"/>
<path opacity="0.5" d="M344.602 266.612H305.881H305.465C304.156 266.612 302.86 266.87 301.65 267.372C300.441 267.873 299.342 268.607 298.417 269.533C297.492 270.46 296.758 271.559 296.258 272.769C295.758 273.978 295.501 275.275 295.503 276.584V352.295H353.981V276.565C354.017 274.013 353.059 271.546 351.308 269.689C349.557 267.831 347.152 266.727 344.602 266.612Z" fill="white"/>
<path opacity="0.6" d="M305.465 266.594C304.156 266.594 302.86 266.852 301.65 267.353C300.441 267.854 299.342 268.589 298.417 269.515C297.492 270.441 296.758 271.54 296.258 272.75C295.758 273.96 295.501 275.256 295.503 276.565V352.277H315.436V276.565C315.438 275.255 315.18 273.958 314.68 272.748C314.179 271.538 313.445 270.438 312.518 269.512C311.592 268.585 310.493 267.851 309.282 267.35C308.072 266.85 306.775 266.593 305.465 266.594Z" fill="white"/>
<path d="M356.136 334.702C356.288 334.396 356.362 334.058 356.354 333.717C356.346 333.376 356.256 333.042 356.09 332.743C355.925 332.445 355.689 332.191 355.404 332.004C355.119 331.816 354.792 331.701 354.453 331.668C354.74 330.797 354.757 329.86 354.501 328.98C354.245 328.1 353.729 327.318 353.019 326.737C352.85 326.577 352.631 326.479 352.399 326.46C352.149 326.485 351.913 326.589 351.724 326.756L347.774 329.596C347.458 329.79 347.19 330.052 346.988 330.363C346.183 331.936 349.097 333.934 347.913 335.229C347.571 335.599 346.988 335.673 346.59 335.941C345.665 336.533 345.536 337.791 345.101 338.846C344.666 339.9 343.131 340.649 342.548 339.706C342.983 338.735 341.669 337.856 340.615 337.763C339.56 337.671 338.441 337.588 337.84 336.589C336.332 337.902 332.965 334.23 333.039 332.75C332.445 332.857 331.898 333.147 331.477 333.58C331.056 334.013 330.78 334.567 330.69 335.164C330.511 336.389 330.468 337.63 330.56 338.864C330.56 341.26 329.746 343.609 329.792 346.005C329.792 347.855 330.542 349.936 332.253 350.695C333.1 350.997 334.002 351.117 334.898 351.046L354.323 350.926C354.791 350.954 355.259 350.875 355.692 350.695C356.571 350.232 356.756 349.085 356.839 348.096C357.185 343.878 357.533 339.654 357.885 335.423L356.136 334.702Z" fill="#263238"/>
<path opacity="0.7" d="M356.136 334.702C356.288 334.396 356.362 334.058 356.354 333.717C356.346 333.376 356.256 333.042 356.09 332.743C355.925 332.445 355.689 332.191 355.404 332.004C355.119 331.816 354.792 331.701 354.453 331.668C354.74 330.797 354.757 329.86 354.501 328.98C354.245 328.1 353.729 327.318 353.019 326.737C352.85 326.577 352.631 326.479 352.399 326.46C352.149 326.485 351.913 326.589 351.724 326.756L347.774 329.596C347.458 329.79 347.19 330.052 346.988 330.363C346.183 331.936 349.097 333.934 347.913 335.229C347.571 335.599 346.988 335.673 346.59 335.941C345.665 336.533 345.536 337.791 345.101 338.846C344.666 339.9 343.131 340.649 342.548 339.706C342.983 338.735 341.669 337.856 340.615 337.763C339.56 337.671 338.441 337.588 337.84 336.589C336.332 337.902 332.965 334.23 333.039 332.75C332.445 332.857 331.898 333.147 331.477 333.58C331.056 334.013 330.78 334.567 330.69 335.164C330.511 336.389 330.468 337.63 330.56 338.864C330.56 341.26 329.746 343.609 329.792 346.005C329.792 347.855 330.542 349.936 332.253 350.695C333.1 350.997 334.002 351.117 334.898 351.046L354.323 350.926C354.791 350.954 355.259 350.875 355.692 350.695C356.571 350.232 356.756 349.085 356.839 348.096C357.185 343.878 357.533 339.654 357.885 335.423L356.136 334.702Z" fill="white"/>
<path d="M357.274 314.148H327.1L327.35 317.191L327.526 319.374L327.988 325.035L328.257 328.291L328.599 332.62L328.747 334.47L328.802 335.025L328.978 337.208L329.219 340.196L329.367 342.046L329.524 343.896L329.7 346.079L329.838 347.725L329.986 349.575L330.051 350.38H357.736L357.801 349.575L357.949 347.725L358.079 346.06L358.264 343.877L358.412 342.027L358.569 340.177L358.809 337.18L358.985 335.007V334.452L359.133 332.602L359.494 328.273L359.753 325.026L360.206 319.356L360.382 317.173L360.632 314.129L357.274 314.148ZM359.124 316.146L358.541 315.563H359.179L359.124 316.146ZM358.976 317.996L358.92 318.736L356.219 321.437L353.121 318.338L355.896 315.563H356.543L358.976 317.996ZM358.125 327.653L356.145 329.632L353.047 326.534L356.182 323.472L358.319 325.609L358.125 327.653ZM329.45 325.581L331.596 323.444L334.685 326.534L331.596 329.632L329.626 327.653L329.45 325.581ZM355.183 322.436L352.085 325.535L348.986 322.436L352.085 319.337L355.183 322.436ZM350.318 315.563H353.861L352.085 317.339L350.318 315.563ZM351.076 326.534L347.95 329.632L344.851 326.534L347.95 323.472L351.076 326.534ZM340.79 330.631L343.889 327.533L346.979 330.631L343.889 333.721L340.79 330.631ZM342.881 334.729L339.782 337.819L336.693 334.729L339.791 331.63L342.881 334.729ZM347.987 331.63L351.076 334.729L347.95 337.819L344.851 334.729L347.987 331.63ZM343.889 325.535L340.79 322.436L343.889 319.337L346.979 322.436L343.889 325.535ZM342.881 326.534L339.791 329.632L336.693 326.534L339.791 323.444L342.881 326.534ZM335.694 325.535L332.595 322.436L335.694 319.337L338.783 322.436L335.694 325.535ZM335.694 327.533L338.783 330.631L335.694 333.721L332.595 330.631L335.694 327.533ZM338.783 338.827L335.694 341.916L332.595 338.827L335.694 335.728L338.783 338.827ZM339.782 339.826L342.881 342.925L339.791 346.023L336.693 342.897L339.782 339.826ZM340.79 338.827L343.889 335.728L347.025 338.827L343.935 341.916L340.79 338.827ZM347.987 339.826L351.076 342.925L347.95 346.023L344.888 342.897L347.987 339.826ZM352.085 343.924L355.183 347.022L353.176 349.03H350.993L348.986 347.022L352.085 343.924ZM348.986 338.827L352.085 335.728L355.183 338.827L352.085 341.916L348.986 338.827ZM348.986 330.631L352.085 327.533L355.183 330.631L352.085 333.721L348.986 330.631ZM351.076 318.338L347.95 321.437L344.851 318.338L347.626 315.563H348.274L351.076 318.338ZM343.889 317.339L342.122 315.563H345.656L343.889 317.339ZM342.881 318.338L339.791 321.437L336.693 318.338L339.468 315.563H340.124L342.881 318.338ZM337.46 315.563L335.694 317.339L333.927 315.563H337.46ZM331.91 315.563L334.685 318.338L331.596 321.437L328.895 318.736L328.839 317.996L331.263 315.563H331.91ZM329.256 315.563L328.682 316.137L328.636 315.563H329.256ZM329.071 320.919L330.588 322.436L329.293 323.722L329.071 320.919ZM329.912 331.297L329.792 329.836L330.588 330.631L329.912 331.297ZM330.06 333.147L331.587 331.612L334.676 334.711L331.587 337.8L330.375 336.579L330.06 333.147ZM330.523 338.873V338.744L330.597 338.808L330.532 338.873H330.523ZM331.059 345.478L330.671 340.723L331.596 339.798L334.685 342.897L331.596 345.986L331.069 345.468L331.059 345.478ZM331.346 349.011L331.281 348.299L331.587 348.003L332.586 349.011H331.346ZM332.586 347.004L335.684 343.905L338.774 347.004L336.776 349.011H334.593L332.586 347.004ZM338.774 349.011L339.782 348.003L340.79 349.011H338.774ZM342.788 349.011L340.781 347.004L343.88 343.905L346.969 347.004L344.971 349.011H342.788ZM346.969 349.011L347.978 348.003L348.986 349.011H346.969ZM356.414 349.011H355.165L356.173 348.003L356.469 348.299L356.414 349.011ZM356.71 345.478L356.173 345.996L353.084 342.897L356.182 339.798L357.107 340.723L356.71 345.478ZM357.255 338.734V338.873L357.191 338.808L357.274 338.734H357.255ZM357.431 336.561L356.173 337.8L353.074 334.711L356.173 331.612L357.709 333.147L357.431 336.561ZM357.857 331.288L357.172 330.613L357.977 329.817L357.857 331.288ZM358.698 320.891L358.467 323.666L357.172 322.371L358.698 320.845V320.891Z" fill="#263238"/>
<g opacity="0.4">
<path d="M357.274 314.148H327.1L327.35 317.191L327.526 319.374L327.988 325.035L328.257 328.291L328.599 332.62L328.747 334.47L328.802 335.025L328.978 337.208L329.219 340.196L329.367 342.046L329.524 343.896L329.7 346.079L329.838 347.725L329.986 349.575L330.051 350.38H357.736L357.801 349.575L357.949 347.725L358.079 346.06L358.264 343.877L358.412 342.027L358.569 340.177L358.809 337.18L358.985 335.007V334.452L359.133 332.602L359.494 328.273L359.753 325.026L360.206 319.356L360.382 317.173L360.632 314.129L357.274 314.148ZM359.124 316.146L358.541 315.563H359.179L359.124 316.146ZM358.976 317.996L358.92 318.736L356.219 321.437L353.121 318.338L355.896 315.563H356.543L358.976 317.996ZM358.125 327.653L356.145 329.632L353.047 326.534L356.182 323.472L358.319 325.609L358.125 327.653ZM329.45 325.581L331.596 323.444L334.685 326.534L331.596 329.632L329.626 327.653L329.45 325.581ZM355.183 322.436L352.085 325.535L348.986 322.436L352.085 319.337L355.183 322.436ZM350.318 315.563H353.861L352.085 317.339L350.318 315.563ZM351.076 326.534L347.95 329.632L344.851 326.534L347.95 323.472L351.076 326.534ZM340.79 330.631L343.889 327.533L346.979 330.631L343.889 333.721L340.79 330.631ZM342.881 334.729L339.782 337.819L336.693 334.729L339.791 331.63L342.881 334.729ZM347.987 331.63L351.076 334.729L347.95 337.819L344.851 334.729L347.987 331.63ZM343.889 325.535L340.79 322.436L343.889 319.337L346.979 322.436L343.889 325.535ZM342.881 326.534L339.791 329.632L336.693 326.534L339.791 323.444L342.881 326.534ZM335.694 325.535L332.595 322.436L335.694 319.337L338.783 322.436L335.694 325.535ZM335.694 327.533L338.783 330.631L335.694 333.721L332.595 330.631L335.694 327.533ZM338.783 338.827L335.694 341.916L332.595 338.827L335.694 335.728L338.783 338.827ZM339.782 339.826L342.881 342.925L339.791 346.023L336.693 342.897L339.782 339.826ZM340.79 338.827L343.889 335.728L347.025 338.827L343.935 341.916L340.79 338.827ZM347.987 339.826L351.076 342.925L347.95 346.023L344.888 342.897L347.987 339.826ZM352.085 343.924L355.183 347.022L353.176 349.03H350.993L348.986 347.022L352.085 343.924ZM348.986 338.827L352.085 335.728L355.183 338.827L352.085 341.916L348.986 338.827ZM348.986 330.631L352.085 327.533L355.183 330.631L352.085 333.721L348.986 330.631ZM351.076 318.338L347.95 321.437L344.851 318.338L347.626 315.563H348.274L351.076 318.338ZM343.889 317.339L342.122 315.563H345.656L343.889 317.339ZM342.881 318.338L339.791 321.437L336.693 318.338L339.468 315.563H340.124L342.881 318.338ZM337.46 315.563L335.694 317.339L333.927 315.563H337.46ZM331.91 315.563L334.685 318.338L331.596 321.437L328.895 318.736L328.839 317.996L331.263 315.563H331.91ZM329.256 315.563L328.682 316.137L328.636 315.563H329.256ZM329.071 320.919L330.588 322.436L329.293 323.722L329.071 320.919ZM329.912 331.297L329.792 329.836L330.588 330.631L329.912 331.297ZM330.06 333.147L331.587 331.612L334.676 334.711L331.587 337.8L330.375 336.579L330.06 333.147ZM330.523 338.873V338.744L330.597 338.808L330.532 338.873H330.523ZM331.059 345.478L330.671 340.723L331.596 339.798L334.685 342.897L331.596 345.986L331.069 345.468L331.059 345.478ZM331.346 349.011L331.281 348.299L331.587 348.003L332.586 349.011H331.346ZM332.586 347.004L335.684 343.905L338.774 347.004L336.776 349.011H334.593L332.586 347.004ZM338.774 349.011L339.782 348.003L340.79 349.011H338.774ZM342.788 349.011L340.781 347.004L343.88 343.905L346.969 347.004L344.971 349.011H342.788ZM346.969 349.011L347.978 348.003L348.986 349.011H346.969ZM356.414 349.011H355.165L356.173 348.003L356.469 348.299L356.414 349.011ZM356.71 345.478L356.173 345.996L353.084 342.897L356.182 339.798L357.107 340.723L356.71 345.478ZM357.255 338.734V338.873L357.191 338.808L357.274 338.734H357.255ZM357.431 336.561L356.173 337.8L353.074 334.711L356.173 331.612L357.709 333.147L357.431 336.561ZM357.857 331.288L357.172 330.613L357.977 329.817L357.857 331.288ZM358.698 320.891L358.467 323.666L357.172 322.371L358.698 320.845V320.891Z" fill="white"/>
</g>
<path d="M326.694 316.831H361.085C361.923 316.831 362.602 316.151 362.602 315.314V314.398C362.602 313.56 361.923 312.881 361.085 312.881H326.694C325.856 312.881 325.177 313.56 325.177 314.398V315.314C325.177 316.151 325.856 316.831 326.694 316.831Z" fill="#263238"/>
<path d="M358.384 348.327H329.385C328.547 348.327 327.868 349.006 327.868 349.844V350.759C327.868 351.597 328.547 352.276 329.385 352.276H358.384C359.222 352.276 359.901 351.597 359.901 350.759V349.844C359.901 349.006 359.222 348.327 358.384 348.327Z" fill="#263238"/>
</g>
<defs>
<clipPath id="clip0_1051_46284">
<rect width="391" height="391" fill="white" transform="translate(0.5)"/>
</clipPath>
</defs>
</svg>
