<svg width="573" height="573" viewBox="0 0 573 573" fill="none" xmlns="http://www.w3.org/2000/svg">
<g clip-path="url(#clip0_1093_36861)">
<path d="M615.296 430.591H-42.2949V430.92H615.296V430.591Z" fill="#EBEBEB"/>
<path d="M549.404 451.751H505.846V452.08H549.404V451.751Z" fill="#EBEBEB"/>
<path d="M393.32 455.328H381.891V455.657H393.32V455.328Z" fill="#EBEBEB"/>
<path d="M504.531 439.546H479.293V439.875H504.531V439.546Z" fill="#EBEBEB"/>
<path d="M83.5019 441.756H26.6992V442.085H83.5019V441.756Z" fill="#EBEBEB"/>
<path d="M103.546 441.756H95.2207V442.085H103.546V441.756Z" fill="#EBEBEB"/>
<path d="M253.817 447.307H130.611V447.635H253.817V447.307Z" fill="#EBEBEB"/>
<path d="M269.404 371.933H15.4555C13.4661 371.93 11.5594 371.137 10.1539 369.729C8.74837 368.321 7.95898 366.413 7.95898 364.424V7.44393C7.9763 5.46593 8.77334 3.57463 10.177 2.18086C11.5806 0.787081 13.4774 0.00338842 15.4555 0H269.404C271.396 0 273.306 0.791197 274.714 2.19954C276.122 3.60788 276.914 5.51799 276.914 7.50968V364.424C276.914 366.415 276.122 368.325 274.714 369.734C273.306 371.142 271.396 371.933 269.404 371.933ZM15.4555 0.263037C13.5533 0.266521 11.7302 1.02461 10.3864 2.37091C9.04253 3.71721 8.28778 5.54171 8.28778 7.44393V364.424C8.28778 366.326 9.04253 368.15 10.3864 369.497C11.7302 370.843 13.5533 371.601 15.4555 371.604H269.404C271.307 371.601 273.132 370.843 274.478 369.497C275.824 368.151 276.581 366.327 276.585 364.424V7.44393C276.581 5.5405 275.824 3.71603 274.478 2.37011C273.132 1.02418 271.307 0.266514 269.404 0.263037H15.4555Z" fill="#EBEBEB"/>
<path d="M553.889 371.933H299.928C297.937 371.93 296.029 371.137 294.621 369.73C293.214 368.322 292.421 366.414 292.418 364.424V7.44393C292.439 5.46473 293.239 3.57345 294.644 2.18003C296.05 0.786621 297.948 0.00335146 299.928 0H553.889C555.865 0.00684486 557.758 0.792067 559.159 2.18547C560.56 3.57888 561.355 5.4682 561.373 7.44393V364.424C561.373 366.411 560.585 368.317 559.182 369.724C557.78 371.132 555.876 371.926 553.889 371.933ZM299.928 0.263037C298.024 0.266514 296.2 1.02418 294.854 2.37011C293.508 3.71603 292.75 5.5405 292.747 7.44393V364.424C292.75 366.327 293.508 368.151 294.854 369.497C296.2 370.843 298.024 371.601 299.928 371.604H553.889C555.793 371.601 557.617 370.843 558.963 369.497C560.309 368.151 561.067 366.327 561.07 364.424V7.44393C561.067 5.5405 560.309 3.71603 558.963 2.37011C557.617 1.02418 555.793 0.266514 553.889 0.263037H299.928Z" fill="#EBEBEB"/>
<path d="M290.721 135.227C288.671 125.404 284.785 116.056 279.266 107.674L289.13 95.7587L268.087 74.7158L256.171 84.5796C247.797 79.0461 238.453 75.142 228.632 73.0718L227.185 57.7236H197.304L195.857 73.0718C186.038 75.1219 176.694 79.0084 168.317 84.527L156.402 74.6632L135.359 95.7061L145.223 107.622C139.704 116.003 135.818 125.351 133.768 135.175L118.406 136.621V166.437L133.768 167.883C135.82 177.706 139.706 187.054 145.223 195.436L135.254 207.404L156.297 228.447L168.212 218.583C176.586 224.107 185.931 227.994 195.752 230.039L197.199 245.4H227.027L228.474 230.039C238.298 227.992 247.647 224.105 256.027 218.583L267.942 228.447L288.985 207.404L279.121 195.489C284.638 187.106 288.524 177.759 290.577 167.936L305.938 166.489V136.674L290.721 135.227ZM252.581 151.575C252.581 159.561 250.213 167.367 245.776 174.007C241.34 180.646 235.034 185.822 227.656 188.878C220.278 191.934 212.16 192.733 204.328 191.175C196.496 189.617 189.301 185.772 183.655 180.125C178.008 174.478 174.163 167.284 172.605 159.452C171.047 151.62 171.846 143.501 174.902 136.124C177.958 128.746 183.133 122.44 189.773 118.003C196.413 113.567 204.219 111.199 212.205 111.199C217.509 111.195 222.761 112.237 227.662 114.265C232.563 116.293 237.017 119.266 240.768 123.016C244.519 126.766 247.494 131.218 249.523 136.119C251.552 141.019 252.596 146.271 252.594 151.575H252.581Z" fill="#E0E0E0"/>
<path d="M376.261 278.358L377.247 289.34H398.672L399.71 278.305C406.766 276.834 413.482 274.046 419.504 270.085L428.066 277.174L443.23 262.01L436.141 253.448C440.104 247.428 442.893 240.712 444.361 233.655L455.395 232.616V211.244L444.361 210.205C442.893 203.148 440.104 196.432 436.141 190.412L443.23 181.85L428.066 166.699L419.504 173.788C413.485 169.818 406.769 167.025 399.71 165.555L398.672 154.521H377.247L376.208 165.555C369.15 167.027 362.435 169.821 356.415 173.788L347.853 166.699L332.702 181.85L339.791 190.412C335.824 196.432 333.03 203.148 331.558 210.205L320.523 211.244V232.669L331.558 233.708C333.03 240.765 335.824 247.481 339.791 253.501L332.702 262.063L347.853 277.227L356.415 270.138C362.454 274.102 369.187 276.891 376.261 278.358ZM388.019 250.963C382.276 250.965 376.663 249.264 371.888 246.074C367.113 242.884 363.393 238.349 361.197 233.043C359.002 227.738 358.43 221.9 359.554 216.269C360.679 210.638 363.449 205.467 367.514 201.411C371.578 197.356 376.755 194.597 382.389 193.486C388.022 192.374 393.859 192.959 399.16 195.167C404.461 197.374 408.987 201.105 412.166 205.887C415.345 210.669 417.034 216.287 417.018 222.029C416.997 229.707 413.933 237.065 408.497 242.488C403.062 247.912 395.697 250.959 388.019 250.963Z" fill="#E0E0E0"/>
<path d="M103.045 383.927L103.571 389.556H114.5L115.04 383.941C118.636 383.183 122.058 381.755 125.127 379.732L129.493 383.349L137.227 375.629L133.61 371.262C135.632 368.189 137.055 364.763 137.805 361.162L143.434 360.636V349.706L137.805 349.18C137.055 345.579 135.632 342.153 133.61 339.08L137.227 334.713L129.493 326.98L125.127 330.597C122.058 328.578 118.636 327.154 115.04 326.401L114.5 320.772H103.571L103.045 326.401C99.4491 327.154 96.027 328.578 92.9577 330.597L88.5913 326.98L80.858 334.713L84.4748 339.08C82.4469 342.149 81.023 345.577 80.2794 349.18L74.6504 349.706V360.636L80.2794 361.162C81.023 364.765 82.4469 368.193 84.4748 371.262L80.858 375.629L88.5913 383.349L92.9577 379.732C96.0242 381.757 99.4473 383.18 103.045 383.927ZM109.042 369.96C106.116 369.96 103.255 369.092 100.822 367.467C98.3891 365.841 96.4927 363.53 95.3729 360.827C94.253 358.123 93.96 355.148 94.5309 352.278C95.1018 349.408 96.511 346.771 98.5802 344.702C100.649 342.633 103.286 341.224 106.156 340.653C109.026 340.082 112.001 340.375 114.704 341.495C117.408 342.615 119.719 344.511 121.345 346.944C122.97 349.378 123.838 352.238 123.838 355.164C123.838 357.107 123.455 359.031 122.712 360.827C121.968 362.622 120.878 364.253 119.505 365.627C118.131 367.001 116.5 368.09 114.704 368.834C112.909 369.578 110.985 369.96 109.042 369.96Z" fill="#F0F0F0"/>
<path d="M495.943 356.624L496.377 361.254H505.373L505.807 356.624C508.77 356.004 511.59 354.831 514.119 353.165L517.709 356.151L524.075 349.785L521.089 346.195C522.757 343.668 523.93 340.847 524.548 337.883L529.178 337.449V328.453L524.548 328.019C523.928 325.056 522.755 322.236 521.089 319.707L524.075 316.117L517.709 309.751L514.119 312.737C511.59 311.072 508.77 309.898 505.807 309.278L505.373 304.648H496.377L495.943 309.278C492.98 309.898 490.16 311.072 487.631 312.737L484.041 309.751L477.675 316.117L480.661 319.707C478.995 322.236 477.822 325.056 477.202 328.019L472.572 328.453V337.449L477.202 337.883C477.819 340.847 478.993 343.668 480.661 346.195L477.675 349.838L484.041 356.204L487.631 353.218C490.164 354.865 492.983 356.02 495.943 356.624ZM500.875 345.13C498.466 345.13 496.112 344.415 494.109 343.077C492.106 341.739 490.545 339.837 489.623 337.612C488.702 335.386 488.46 332.938 488.93 330.575C489.4 328.213 490.56 326.043 492.263 324.34C493.967 322.636 496.137 321.476 498.499 321.007C500.861 320.537 503.31 320.778 505.535 321.7C507.761 322.621 509.663 324.182 511.001 326.185C512.339 328.188 513.054 330.542 513.054 332.951C513.05 336.18 511.766 339.276 509.483 341.559C507.199 343.842 504.104 345.126 500.875 345.13Z" fill="#F0F0F0"/>
<path d="M262.472 428.42H287.986L289.222 415.268C297.632 413.53 305.634 410.21 312.804 405.483L322.996 413.927L341.014 395.869L332.531 385.69C337.252 378.522 340.572 370.525 342.316 362.122L355.468 360.885V335.371L342.316 334.135C340.57 325.736 337.25 317.744 332.531 310.58L340.962 300.387L322.917 282.343L312.804 290.773C305.637 286.056 297.646 282.732 289.249 280.975L288.012 267.823H262.498L261.262 280.975C252.859 282.73 244.863 286.054 237.694 290.773L227.501 282.343L209.43 300.387L217.874 310.58C213.146 317.74 209.821 325.733 208.076 334.135L194.924 335.371V360.885L208.076 362.122C209.819 370.528 213.144 378.526 217.874 385.69L209.43 395.869L227.475 413.914L237.667 405.47C244.831 410.2 252.829 413.525 261.235 415.268L262.472 428.42ZM275.229 382.665C268.398 382.665 261.721 380.639 256.041 376.844C250.362 373.049 245.935 367.656 243.321 361.345C240.707 355.034 240.023 348.09 241.356 341.39C242.688 334.691 245.978 328.537 250.808 323.707C255.638 318.877 261.792 315.588 268.491 314.255C275.19 312.923 282.135 313.606 288.445 316.22C294.756 318.834 300.15 323.261 303.945 328.941C307.74 334.62 309.765 341.297 309.765 348.128C309.772 352.668 308.884 357.165 307.152 361.361C305.419 365.557 302.876 369.371 299.669 372.583C296.461 375.796 292.651 378.345 288.458 380.083C284.264 381.822 279.769 382.717 275.229 382.717V382.665Z" fill="#E0E0E0"/>
<path d="M405.077 381.745L403.761 379.115C401.643 375.087 398.013 372.064 393.668 370.71C389.324 369.356 384.619 369.782 380.588 371.894L374.433 375.116C370.407 377.24 367.386 380.872 366.033 385.218C364.679 389.564 365.104 394.269 367.213 398.303L368.528 400.868L364.24 403.13L379.694 432.564L424.818 408.89L409.364 379.443L405.077 381.745ZM395.66 404.261L398.356 409.403L395.094 411.126L392.398 405.984C391.776 405.96 391.171 405.773 390.643 405.443C390.114 405.114 389.681 404.652 389.387 404.103C389.136 403.678 388.974 403.206 388.911 402.716C388.848 402.227 388.885 401.729 389.02 401.254C389.155 400.779 389.386 400.337 389.697 399.954C390.009 399.571 390.395 399.255 390.832 399.025C391.269 398.796 391.749 398.658 392.241 398.62C392.733 398.581 393.228 398.643 393.696 398.802C394.163 398.961 394.593 399.213 394.961 399.543C395.328 399.873 395.624 400.275 395.831 400.723C396.116 401.276 396.25 401.894 396.22 402.515C396.19 403.136 395.997 403.738 395.66 404.261ZM398.29 385.349L375.288 397.422L373.973 394.792C372.805 392.555 372.572 389.947 373.324 387.538C374.076 385.13 375.751 383.118 377.984 381.942L384.126 378.72C386.355 377.548 388.957 377.304 391.364 378.044C393.771 378.783 395.788 380.444 396.975 382.666L398.29 385.349Z" fill="#F0F0F0"/>
<path d="M89.6311 225.356L90.5911 222.621C92.0784 218.32 91.8007 213.604 89.8189 209.508C87.837 205.411 84.3125 202.266 80.0171 200.763L73.4412 198.487C69.135 197.003 64.4158 197.288 60.3199 199.281C56.224 201.273 53.0863 204.81 51.596 209.114L50.6359 211.863L46.0723 210.271L35.1562 241.691L83.305 258.367L94.2079 226.948L89.6311 225.356ZM66.7732 233.918L64.8662 239.363L61.381 238.153L63.288 232.669C62.8793 232.201 62.6 231.635 62.4777 231.025C62.3554 230.416 62.3945 229.786 62.5909 229.197C62.9101 228.281 63.5799 227.53 64.453 227.108C65.3261 226.686 66.3311 226.629 67.2467 226.948C68.1623 227.267 68.9136 227.937 69.3354 228.81C69.7571 229.683 69.8148 230.688 69.4956 231.604C69.2834 232.193 68.9205 232.718 68.4428 233.124C67.9652 233.53 67.3896 233.804 66.7732 233.918ZM82.4107 222.858L57.8694 214.375L58.8164 211.626C59.6489 209.245 61.391 207.291 63.6613 206.191C65.9315 205.092 68.5449 204.937 70.9292 205.76L77.5051 208.035C79.8883 208.865 81.8447 210.607 82.9446 212.878C84.0444 215.149 84.1977 217.764 83.3708 220.148L82.4107 222.858Z" fill="#F0F0F0"/>
<path d="M520.511 209.995L517.696 209.101C521.55 208.418 525.064 206.463 527.676 203.549C530.289 200.634 531.849 196.929 532.108 193.024C532.367 189.118 531.31 185.239 529.106 182.005C526.901 178.771 523.677 176.369 519.947 175.183C516.218 173.997 512.198 174.094 508.53 175.461C504.863 176.827 501.759 179.383 499.715 182.72C497.67 186.058 496.803 189.984 497.252 193.872C497.701 197.76 499.439 201.385 502.19 204.169L499.389 203.275C495.284 201.964 490.826 202.335 486.994 204.308C483.162 206.28 480.269 209.693 478.951 213.796L476.137 222.66L528.27 239.218L531.124 230.42C531.771 228.382 532.01 226.236 531.827 224.106C531.643 221.976 531.041 219.903 530.055 218.006C529.069 216.108 527.719 214.424 526.081 213.05C524.443 211.675 522.55 210.637 520.511 209.995Z" fill="#F0F0F0"/>
<path d="M331.466 51.1613L329.716 51.8978C331.319 49.9527 332.223 47.5267 332.285 45.0074C332.347 42.488 331.562 40.0206 330.057 37.9993C328.552 35.9781 326.413 34.5195 323.982 33.8568C321.55 33.194 318.967 33.3651 316.644 34.343C314.321 35.3208 312.393 37.0488 311.168 39.251C309.943 41.4532 309.491 44.0025 309.884 46.4917C310.278 48.9809 311.495 51.2663 313.34 52.983C315.185 54.6996 317.552 55.7483 320.063 55.9617L318.314 56.6982C315.763 57.7836 313.743 59.832 312.694 62.3981C311.645 64.9642 311.651 67.8407 312.711 70.4024L315.026 75.9262L347.498 62.2746L345.17 56.764C344.084 54.213 342.036 52.1935 339.47 51.1444C336.904 50.0953 334.027 50.1014 331.466 51.1613Z" fill="#F0F0F0"/>
<path d="M96.4563 88.1181L94.6019 87.7366C97.033 87.0473 99.1627 85.5629 100.651 83.5206C102.139 81.4783 102.899 78.9961 102.81 76.4708C102.722 73.9454 101.789 71.5228 100.161 69.59C98.5332 67.6573 96.3044 66.3261 93.831 65.8092C91.3575 65.2923 88.7822 65.6196 86.5166 66.7387C84.251 67.8578 82.4261 69.7042 81.3334 71.9826C80.2408 74.2611 79.9435 76.8401 80.4892 79.3073C81.0348 81.7746 82.3919 83.9877 84.3435 85.5929L82.4891 85.2115C79.7639 84.6596 76.9311 85.2088 74.6096 86.7392C72.2882 88.2696 70.6669 90.6567 70.1001 93.3788L68.877 99.2313L103.348 106.412L104.571 100.56C105.14 97.8342 104.605 94.9944 103.084 92.6623C101.563 90.3303 99.1798 88.6962 96.4563 88.1181Z" fill="#F0F0F0"/>
<path d="M286.5 561.283C427.333 561.283 541.501 554.617 541.501 546.395C541.501 538.172 427.333 531.507 286.5 531.507C145.668 531.507 31.5 538.172 31.5 546.395C31.5 554.617 145.668 561.283 286.5 561.283Z" fill="#F5F5F5"/>
<path d="M481.884 493.722C481.884 493.722 473.756 494.8 470.284 493.722C466.812 492.643 468.114 476.888 464.576 476.559C456.409 475.809 457.803 496.734 461.275 501.139C464.747 505.545 482.621 503.678 482.621 503.678L481.884 493.722Z" fill="#407BFF"/>
<path opacity="0.2" d="M481.884 493.722C481.884 493.722 473.756 494.8 470.284 493.722C466.812 492.643 468.114 476.888 464.576 476.559C456.409 475.809 457.803 496.734 461.275 501.139C464.747 505.545 482.621 503.678 482.621 503.678L481.884 493.722Z" fill="white"/>
<path d="M482.554 530.823C482.554 530.823 470.52 423.978 484.882 422.754C499.244 421.531 502.716 459.198 497.166 529.468L482.554 530.823Z" fill="#407BFF"/>
<path opacity="0.3" d="M482.554 530.823C482.554 530.823 470.52 423.978 484.882 422.754C499.244 421.531 502.716 459.198 497.166 529.468L482.554 530.823Z" fill="white"/>
<path d="M465.682 517.895H512.936L508.991 548.117H469.627L465.682 517.895Z" fill="#263238"/>
<path d="M496.824 457.778C496.824 457.778 509.976 458.475 510.304 457.778C510.633 457.081 510.699 441.996 516.249 442.85C521.799 443.705 519.366 461.947 516.249 464.064C513.132 466.182 496.824 467.326 496.824 467.326C496.824 467.326 494.641 460.592 496.824 457.778Z" fill="#407BFF"/>
<path opacity="0.4" d="M496.824 457.778C496.824 457.778 509.976 458.475 510.304 457.778C510.633 457.081 510.699 441.996 516.249 442.85C521.799 443.705 519.366 461.947 516.249 464.064C513.132 466.182 496.824 467.326 496.824 467.326C496.824 467.326 494.641 460.592 496.824 457.778Z" fill="white"/>
<path d="M488.526 521.091C485.62 492.591 482.463 463.946 483.187 435.262C483.397 433.066 483.542 422.307 487.198 423.951C487.667 424.343 488.025 424.851 488.237 425.424C489.356 428.884 490.063 432.465 490.341 436.09C493.103 464.656 492.893 493.406 492.748 522.064C492.209 493.432 492.17 464.709 489.368 436.209C489 432.724 486.896 417.428 484.752 429.252C484.046 435.327 483.787 441.446 483.976 447.559C484.463 472.113 486.448 496.615 488.526 521.091Z" fill="#407BFF"/>
<path d="M498.469 461.368C502.309 461 509.148 460.763 512.436 459.908C512.436 455.397 514.028 449.268 515.645 444.468C515.185 446.612 514.738 449.729 514.33 451.977C513.81 454.686 513.493 457.429 513.383 460.184C513.173 460.829 512.371 460.947 511.858 461.079C507.407 461.681 502.902 461.778 498.43 461.368H498.469Z" fill="#407BFF"/>
<path d="M498.469 464.853C503.953 463.841 510.069 463.446 515.448 462.157C516.842 459.948 516.763 456.831 517.157 454.266C517.473 451.399 517.71 448.519 517.986 445.639C518.137 448.534 518.137 451.436 517.986 454.332C517.936 456.916 517.538 459.482 516.802 461.96C516.65 462.429 516.338 462.829 515.921 463.091C510.184 464.218 504.355 464.808 498.508 464.853H498.469Z" fill="#407BFF"/>
<path d="M477.832 496.641C474.045 496.72 470.125 496.904 466.456 495.642C465.55 494.845 464.977 493.737 464.852 492.538C464.381 490.146 464.143 487.715 464.141 485.278C464.086 482.86 464.17 480.44 464.391 478.031C464.575 480.438 464.72 482.845 464.93 485.238C465.089 487.614 465.396 489.977 465.851 492.314C466.127 493.393 466.39 494.747 467.271 494.944C470.725 495.809 474.244 496.385 477.793 496.667L477.832 496.641Z" fill="#407BFF"/>
<path d="M461.973 479.938L462.828 488.342C463.354 492.012 463.262 496.01 464.722 499.403C464.952 499.576 465.204 499.718 465.471 499.824C469.417 501.139 473.718 501.231 477.834 501.718C475.01 501.864 472.18 501.807 469.364 501.547C467.418 501.218 464.104 501.284 463.433 498.916C461.802 492.722 461.894 486.238 461.973 479.886V479.938Z" fill="#407BFF"/>
<path d="M432.486 111.224C436.587 104.077 443.358 98.8496 451.31 96.6895C459.262 94.5295 467.746 95.6133 474.9 99.7031L473.585 101.926L482.397 99.5321L480.003 90.7204L478.688 92.9299C470.704 88.354 461.355 86.7589 452.305 88.4283C443.255 90.0977 435.09 94.9234 429.264 102.047C423.438 109.17 420.327 118.13 420.486 127.331C420.645 136.532 424.063 145.379 430.132 152.297L435.997 147.155C431.742 142.278 429.116 136.194 428.486 129.752C427.857 123.31 429.255 116.833 432.486 111.224Z" fill="#263238"/>
<path d="M489.039 101.519L483.121 106.529C487.853 112.105 490.468 119.172 490.504 126.485C490.54 133.799 487.996 140.891 483.319 146.513C478.642 152.136 472.132 155.929 464.934 157.225C457.737 158.522 450.312 157.238 443.968 153.6L445.283 151.377L436.432 153.876L438.825 162.688L440.14 160.465C448.083 164.983 457.364 166.561 466.353 164.92C475.343 163.279 483.468 158.525 489.302 151.492C495.136 144.458 498.308 135.595 498.26 126.457C498.211 117.319 494.947 108.49 489.039 101.519Z" fill="#263238"/>
<g opacity="0.6">
<path d="M432.486 111.224C436.587 104.077 443.358 98.8496 451.31 96.6895C459.262 94.5295 467.746 95.6133 474.9 99.7031L473.585 101.926L482.397 99.5321L480.003 90.7204L478.688 92.9299C470.704 88.354 461.355 86.7589 452.305 88.4283C443.255 90.0977 435.09 94.9234 429.264 102.047C423.438 109.17 420.327 118.13 420.486 127.331C420.645 136.532 424.063 145.379 430.132 152.297L435.997 147.155C431.742 142.278 429.116 136.194 428.486 129.752C427.857 123.31 429.255 116.833 432.486 111.224Z" fill="white"/>
<path d="M489.039 101.519L483.121 106.529C487.853 112.105 490.468 119.172 490.504 126.485C490.54 133.799 487.996 140.891 483.319 146.513C478.642 152.136 472.132 155.929 464.934 157.225C457.737 158.522 450.312 157.238 443.968 153.6L445.283 151.377L436.432 153.876L438.825 162.688L440.14 160.465C448.083 164.983 457.364 166.561 466.353 164.92C475.343 163.279 483.468 158.525 489.302 151.492C495.136 144.458 498.308 135.595 498.26 126.457C498.211 117.319 494.947 108.49 489.039 101.519Z" fill="white"/>
</g>
<path d="M453.817 89.8135H445.242V63.5099C445.242 58.6719 443.32 54.0321 439.899 50.6112C436.478 47.1902 431.838 45.2683 427 45.2683C422.162 45.2683 417.522 47.1902 414.101 50.6112C410.68 54.0321 408.759 58.6719 408.759 63.5099V89.8135H400.184V63.5099C400.184 56.3977 403.009 49.5768 408.038 44.5477C413.067 39.5187 419.888 36.6934 427 36.6934C434.112 36.6934 440.933 39.5187 445.962 44.5477C450.991 49.5768 453.817 56.3977 453.817 63.5099V89.8135Z" fill="#263238"/>
<g opacity="0.3">
<path d="M453.817 89.8135H445.242V63.5099C445.242 58.6719 443.32 54.0321 439.899 50.6112C436.478 47.1902 431.838 45.2683 427 45.2683C422.162 45.2683 417.522 47.1902 414.101 50.6112C410.68 54.0321 408.759 58.6719 408.759 63.5099V89.8135H400.184V63.5099C400.184 56.3977 403.009 49.5768 408.038 44.5477C413.067 39.5187 419.888 36.6934 427 36.6934C434.112 36.6934 440.933 39.5187 445.962 44.5477C450.991 49.5768 453.817 56.3977 453.817 63.5099V89.8135Z" fill="white"/>
</g>
<path d="M463.641 83.1199V126.166C463.641 126.822 463.512 127.472 463.261 128.078C463.01 128.685 462.642 129.236 462.177 129.7C461.713 130.164 461.162 130.532 460.556 130.783C459.95 131.034 459.3 131.163 458.644 131.163H395.331C394.676 131.162 394.028 131.031 393.424 130.779C392.82 130.527 392.272 130.158 391.81 129.694C391.348 129.23 390.983 128.68 390.734 128.074C390.485 127.469 390.358 126.82 390.359 126.166V83.1199C390.358 82.4653 390.485 81.8168 390.734 81.2114C390.983 80.606 391.348 80.0555 391.81 79.5914C392.272 79.1273 392.82 78.7587 393.424 78.5066C394.028 78.2546 394.676 78.1239 395.331 78.1222H458.644C459.472 78.1163 460.287 78.3247 461.011 78.7272C461.808 79.1508 462.473 79.7837 462.937 80.5577C463.4 81.3318 463.644 82.2177 463.641 83.1199Z" fill="#407BFF"/>
<path opacity="0.2" d="M461.011 78.7272V120.905C461.011 121.561 460.882 122.21 460.63 122.816C460.379 123.421 460.011 123.971 459.546 124.434C459.082 124.897 458.531 125.264 457.925 125.514C457.319 125.764 456.669 125.891 456.013 125.89H392.7C391.883 125.892 391.078 125.689 390.359 125.298V83.1199C390.358 82.4653 390.485 81.8168 390.734 81.2114C390.983 80.606 391.348 80.0555 391.81 79.5914C392.272 79.1273 392.82 78.7587 393.424 78.5066C394.028 78.2546 394.676 78.1239 395.331 78.1222H458.644C459.472 78.1163 460.287 78.3247 461.011 78.7272Z" fill="white"/>
<path opacity="0.5" d="M436.431 99.2434C436.407 97.5269 435.915 95.8496 435.008 94.3922C434.101 92.9348 432.813 91.7527 431.284 90.9733C429.754 90.1939 428.041 89.8468 426.329 89.9694C424.616 90.092 422.97 90.6797 421.567 91.6691C420.164 92.6584 419.058 94.012 418.368 95.5838C417.678 97.1555 417.43 98.8859 417.651 100.588C417.871 102.291 418.553 103.9 419.621 105.244C420.69 106.588 422.104 107.614 423.713 108.213L423.279 119.681H430.815L429.697 108.436C431.658 107.83 433.371 106.608 434.583 104.953C435.796 103.297 436.444 101.295 436.431 99.2434Z" fill="black"/>
<path d="M256.328 182.523L260.695 196.556L265.048 182.523H256.328Z" fill="#407BFF"/>
<path d="M296.388 149H224.987C218.747 149 213.689 154.058 213.689 160.297V175.514C213.689 181.753 218.747 186.811 224.987 186.811H296.388C302.627 186.811 307.685 181.753 307.685 175.514V160.297C307.685 154.058 302.627 149 296.388 149Z" fill="#407BFF"/>
<path d="M235.784 167.886L238.257 169.28L237.613 170.411L235.101 168.938V171.766H233.785V168.938L231.273 170.411L230.629 169.28L233.128 167.886L230.629 166.571L231.273 165.414L233.785 166.887V164.02H235.101V166.821L237.613 165.348L238.257 166.505L235.784 167.886Z" fill="white"/>
<path d="M244.517 167.886L246.989 169.28L246.345 170.411L243.833 168.938V171.766H242.597V168.938L240.058 170.411L239.414 169.28L241.913 167.886L239.414 166.571L240.058 165.414L242.57 166.887V164.02H243.807V166.821L246.319 165.348L246.963 166.505L244.517 167.886Z" fill="white"/>
<path d="M253.21 167.886L255.683 169.28L255.038 170.411L252.526 168.938V171.766H251.211V168.938L248.699 170.411L248.055 169.28L250.54 167.886L248.055 166.571L248.699 165.413L251.211 166.886V164.085H252.526V166.886L255.038 165.413L255.683 166.571L253.21 167.886Z" fill="white"/>
<path d="M261.982 167.886L264.455 169.28L263.81 170.411L261.298 168.938V171.766H260.049V168.938L257.537 170.411L256.893 169.28L259.378 167.886L256.893 166.571L257.537 165.413L260.049 166.886V164.085H261.298V166.886L263.81 165.413L264.455 166.571L261.982 167.886Z" fill="white"/>
<path d="M270.716 167.886L273.188 169.28L272.544 170.411L270.019 168.938V171.766H268.704V168.938L266.363 170.411L265.705 169.28L268.204 167.886L265.705 166.571L266.363 165.413L268.875 166.886V164.085H270.19V166.886L272.715 165.413L273.359 166.571L270.716 167.886Z" fill="white"/>
<path d="M279.435 167.886L281.921 169.28L281.276 170.411L278.751 168.938V171.766H277.502V168.938L274.976 170.411L274.332 169.28L276.831 167.886L274.332 166.571L274.976 165.413L277.502 166.886V164.085H278.751V166.886L281.276 165.413L281.921 166.571L279.435 167.886Z" fill="white"/>
<path d="M288.167 167.886L290.64 169.28L289.995 170.411L287.483 168.938V171.766H286.168V168.938L283.656 170.411L283.012 169.28L285.511 167.886L283.012 166.571L283.656 165.414L286.168 166.887V164.02H287.483V166.821L289.995 165.348L290.64 166.505L288.167 167.886Z" fill="white"/>
<path d="M317.748 280.504L325.771 275.309L316.735 269.759C316.735 269.759 309.857 274.822 312.619 278.255L317.748 280.504Z" fill="#F3C1BC"/>
<path d="M329.886 266.773L320.496 264.643L316.734 269.759L325.77 275.309L329.886 266.773Z" fill="#F3C1BC"/>
<path d="M284.776 263.643C289.853 271.323 294.942 280.661 301.873 286.645C302.005 286.75 301.952 286.645 301.439 286.645C301.176 286.711 301.308 286.842 301.847 286.645C303.425 285.746 304.814 284.549 305.937 283.12C308.509 280.003 310.798 276.662 312.776 273.138C312.868 272.994 312.776 273.138 312.776 273.296C312.743 273.536 312.743 273.779 312.776 274.019C312.895 274.138 312.474 273.796 313.289 275.598C313.674 276.172 314.22 276.62 314.859 276.885C315.498 277.15 316.201 277.219 316.88 277.084C317.314 276.99 317.724 276.807 318.084 276.547C318.444 276.287 318.746 275.954 318.971 275.571C318.765 275.814 318.58 276.074 318.418 276.347L312.526 273.835C312.669 272.999 313.012 272.209 313.526 271.534C314.002 270.998 314.631 270.622 315.328 270.455C316.011 270.321 316.719 270.392 317.362 270.659C318.006 270.926 318.556 271.376 318.944 271.955C319.76 273.769 319.352 273.428 319.471 273.559C319.485 273.979 319.446 274.399 319.352 274.808C317.287 283.581 311.895 298.035 300.716 298.113C292.825 297.39 286.841 288.723 282.409 283.252C279.263 279.04 276.365 274.648 273.729 270.1L284.71 263.656L284.776 263.643Z" fill="#F3C1BC"/>
<path d="M280.724 257.869C285.985 259.605 296.651 283.844 296.651 283.844L278.528 292.445C278.528 292.445 274.845 273.401 275.569 267.26C276.022 263.585 277.867 260.224 280.724 257.869Z" fill="#407BFF"/>
<path opacity="0.7" d="M280.724 257.869C285.985 259.605 296.651 283.844 296.651 283.844L278.528 292.445C278.528 292.445 274.845 273.401 275.569 267.26C276.022 263.585 277.867 260.224 280.724 257.869Z" fill="white"/>
<path d="M302.031 538.885L292.798 541.502L290.602 527.127L289.418 519.446L298.651 516.829L300.229 527.127L302.031 538.885Z" fill="#F3C1BC"/>
<path d="M248.949 539.634L239.427 540.896L239.335 527.126L239.27 518.564L248.805 517.328L248.87 527.126L248.949 539.634Z" fill="#F3C1BC"/>
<path opacity="0.2" d="M248.805 517.328L248.87 527.126H239.335L239.27 518.564L248.805 517.328Z" fill="black"/>
<path opacity="0.2" d="M300.229 527.127H290.602L289.418 519.446L298.651 516.829L300.229 527.127Z" fill="black"/>
<path d="M301.873 537.438L291.352 537.162C291.161 537.156 290.973 537.215 290.82 537.329C290.667 537.444 290.558 537.608 290.51 537.793L288.314 546.236C288.245 546.44 288.227 546.657 288.261 546.869C288.295 547.081 288.381 547.282 288.511 547.453C288.641 547.624 288.811 547.761 289.005 547.852C289.2 547.942 289.415 547.984 289.629 547.972C293.417 547.972 298.835 547.972 303.636 548.064C309.199 548.222 312.737 547.946 319.26 548.064C323.206 548.17 324.429 544.237 322.798 543.83C315.341 541.988 310.475 542.357 304.122 538.201C303.457 537.745 302.679 537.481 301.873 537.438Z" fill="#263238"/>
<path d="M302.675 538.608C302.667 538.561 302.674 538.513 302.695 538.47C302.717 538.428 302.751 538.393 302.793 538.371C303.241 538.161 307.173 536.307 308.317 536.99C308.426 537.053 308.516 537.143 308.578 537.252C308.64 537.36 308.673 537.483 308.672 537.609C308.685 537.815 308.648 538.021 308.566 538.211C308.484 538.401 308.358 538.568 308.199 538.7C307.12 539.595 304.385 539.147 302.846 538.792C302.802 538.784 302.761 538.762 302.73 538.729C302.699 538.695 302.68 538.653 302.675 538.608ZM303.609 538.503C305.726 538.911 307.305 538.858 307.91 538.345C308.017 538.263 308.101 538.154 308.154 538.03C308.207 537.905 308.227 537.769 308.212 537.635C308.216 537.585 308.206 537.535 308.183 537.491C308.159 537.447 308.124 537.41 308.08 537.385H308.002C307.278 537.083 305.161 537.819 303.609 538.503Z" fill="#407BFF"/>
<path d="M302.754 538.752C302.722 538.732 302.697 538.702 302.683 538.666C302.669 538.631 302.666 538.592 302.675 538.555C302.813 537.2 303.38 535.923 304.293 534.912C304.473 534.762 304.684 534.652 304.911 534.591C305.138 534.529 305.376 534.518 305.608 534.557C306.226 534.636 306.397 534.951 306.436 535.214C306.568 536.293 304.201 538.305 303.017 538.792C302.965 538.805 302.911 538.805 302.859 538.792L302.754 538.752ZM305.503 535.004C305.337 534.982 305.169 534.994 305.009 535.039C304.848 535.084 304.698 535.162 304.569 535.267C303.84 536.076 303.381 537.092 303.254 538.174C304.464 537.503 306.081 535.925 305.989 535.267C305.989 535.267 305.989 535.122 305.792 535.057L305.503 535.004Z" fill="#407BFF"/>
<path d="M248.568 537.438L238.047 537.162C237.856 537.156 237.668 537.215 237.515 537.329C237.362 537.444 237.253 537.608 237.205 537.793L234.996 546.236C234.942 546.439 234.935 546.652 234.975 546.858C235.016 547.064 235.103 547.258 235.229 547.425C235.356 547.593 235.52 547.729 235.707 547.824C235.894 547.919 236.101 547.969 236.311 547.972C240.085 547.972 245.517 547.972 250.318 548.064C255.881 548.222 259.405 547.946 265.929 548.064C269.874 548.17 271.111 544.237 269.467 543.83C262.023 541.988 257.143 542.357 250.804 538.201C250.142 537.749 249.369 537.485 248.568 537.438Z" fill="#263238"/>
<path d="M249.266 538.608C249.259 538.56 249.268 538.51 249.292 538.468C249.316 538.425 249.353 538.391 249.397 538.371C249.845 538.161 253.764 536.307 254.908 536.99C255.017 537.053 255.106 537.143 255.169 537.252C255.231 537.36 255.264 537.483 255.263 537.609C255.277 537.814 255.243 538.02 255.163 538.209C255.083 538.399 254.96 538.567 254.803 538.7C253.711 539.595 250.976 539.147 249.437 538.792C249.394 538.781 249.355 538.757 249.325 538.725C249.295 538.692 249.274 538.652 249.266 538.608ZM250.213 538.503C252.317 538.911 253.909 538.858 254.514 538.345C254.619 538.261 254.701 538.152 254.754 538.028C254.807 537.904 254.828 537.769 254.816 537.635C254.816 537.584 254.802 537.535 254.777 537.491C254.752 537.447 254.715 537.41 254.671 537.385H254.592C253.935 537.083 251.817 537.819 250.266 538.503H250.213Z" fill="#407BFF"/>
<path d="M249.411 538.753C249.378 538.733 249.351 538.703 249.335 538.668C249.319 538.633 249.313 538.594 249.319 538.556C249.463 537.2 250.034 535.924 250.949 534.913C251.13 534.762 251.341 534.651 251.568 534.59C251.795 534.529 252.033 534.518 252.265 534.558C252.883 534.637 253.054 534.952 253.08 535.215C253.225 536.294 250.844 538.306 249.674 538.793C249.617 538.806 249.559 538.806 249.503 538.793L249.411 538.753ZM252.159 535.005C251.994 534.982 251.826 534.993 251.665 535.039C251.504 535.084 251.355 535.162 251.226 535.268C250.503 536.081 250.044 537.095 249.91 538.174C251.12 537.504 252.738 535.926 252.659 535.268C252.648 535.216 252.622 535.169 252.585 535.132C252.547 535.095 252.5 535.069 252.449 535.058C252.356 535.022 252.258 535.004 252.159 535.005Z" fill="#407BFF"/>
<path d="M229.315 330.388C224.264 352.246 232.918 524.232 232.918 524.232H249.647L256.802 380.878L283.106 524.232L300.992 522.917C289.3 411.889 278.976 345.604 278.976 345.604V337.227L229.315 330.388Z" fill="#263238"/>
<path opacity="0.2" d="M301.017 522.891L283.131 524.206L262.417 411.363L256.814 380.864L249.659 524.219H232.93C232.93 524.219 224.276 352.207 229.314 330.388L279.027 337.24V345.617C279.027 345.617 289.325 411.929 301.017 522.891Z" fill="white"/>
<path d="M228.223 256.463C229.975 266.783 230.955 277.22 231.156 287.685C231.326 294.985 231.156 301.929 230.906 308.215C230.248 322.959 228.828 334.111 228.893 337.938L279.081 338.833C291.049 286.357 280.764 257.87 280.764 257.87C276.873 256.79 272.92 255.947 268.928 255.345C268.051 255.231 267.174 255.126 266.297 255.029C259.2 254.49 252.077 254.358 244.965 254.635C243.65 254.635 242.242 254.753 240.914 254.859C234.207 255.424 228.223 256.463 228.223 256.463Z" fill="#407BFF"/>
<path d="M267.929 256.739C267.929 256.739 264.943 261.066 262.55 261.368C259.157 261.829 246.768 254.24 246.768 254.24C249.635 252.123 251.042 247.506 251.66 242.627C252.102 238.666 252.186 234.674 251.91 230.698L263.497 243.298C261.971 247.243 261.064 251.452 264.062 254.411C265.164 255.462 266.485 256.256 267.929 256.739Z" fill="#F3C1BC"/>
<path opacity="0.2" d="M264.035 254.372C258.931 251.587 254.653 247.504 251.633 242.535C252.075 238.575 252.159 234.582 251.883 230.606L263.469 243.206C261.944 247.191 261.102 251.478 264.035 254.372Z" fill="black"/>
<path d="M276.885 219.336C277.872 222.979 276.885 230.37 271.993 227.74C267.1 225.109 275.241 213.049 276.885 219.336Z" fill="#263238"/>
<path d="M250.739 223.083C249.779 232.29 248.753 237.682 252.607 243.114C258.42 251.268 270.454 248.835 274.149 240.036C277.49 232.145 278.489 218.335 270.112 213.285C268.253 212.168 266.141 211.541 263.974 211.462C261.806 211.383 259.654 211.855 257.719 212.833C255.784 213.812 254.128 215.266 252.908 217.058C251.687 218.851 250.941 220.924 250.739 223.083Z" fill="#F3C1BC"/>
<path d="M257.445 218.322L257.906 207.972C257.906 207.972 246.911 206.656 247.161 212.338C240.927 215.1 243.399 224.714 251.396 229.725C256.051 226.331 255.907 217.638 255.907 217.638C256.38 217.875 256.906 218.098 257.445 218.322Z" fill="#263238"/>
<path d="M245.938 230.119C246.106 231.262 246.5 232.359 247.096 233.348C247.692 234.337 248.478 235.197 249.41 235.88C251.908 237.695 254.263 235.696 254.473 232.776C254.67 230.146 253.605 226.029 250.659 225.372C250.009 225.244 249.338 225.278 248.704 225.472C248.071 225.666 247.495 226.013 247.028 226.483C246.561 226.952 246.217 227.53 246.027 228.164C245.837 228.799 245.806 229.47 245.938 230.119Z" fill="#F3C1BC"/>
<path d="M264.246 227.806C264.114 228.555 264.417 229.213 264.903 229.292C265.39 229.371 265.89 228.831 266.008 228.082C266.126 227.332 265.837 226.674 265.35 226.596C264.864 226.517 264.364 227.056 264.246 227.806Z" fill="#263238"/>
<path d="M272.69 229.12C272.571 229.869 272.874 230.54 273.36 230.606C273.847 230.672 274.347 230.146 274.465 229.396C274.584 228.646 274.294 227.989 273.808 227.91C273.321 227.831 272.821 228.383 272.69 229.12Z" fill="#263238"/>
<path d="M269.94 229.12C270.505 231.466 271.39 233.723 272.57 235.828C271.995 236.084 271.372 236.216 270.742 236.216C270.112 236.216 269.49 236.084 268.914 235.828L269.94 229.12Z" fill="#A02724"/>
<path d="M264.43 238.063C264.743 238.162 265.064 238.237 265.39 238.287C265.447 238.295 265.505 238.28 265.552 238.245C265.598 238.211 265.63 238.16 265.64 238.103C265.645 238.073 265.645 238.043 265.639 238.014C265.632 237.985 265.62 237.957 265.603 237.932C265.586 237.908 265.564 237.887 265.539 237.871C265.513 237.855 265.485 237.845 265.455 237.84C264.527 237.716 263.641 237.375 262.869 236.845C262.096 236.315 261.46 235.61 261.01 234.789C261 234.761 260.984 234.736 260.964 234.714C260.944 234.693 260.919 234.676 260.892 234.665C260.864 234.654 260.835 234.649 260.806 234.65C260.776 234.65 260.747 234.657 260.721 234.67C260.667 234.693 260.625 234.737 260.603 234.791C260.58 234.845 260.58 234.905 260.602 234.96C260.994 235.711 261.536 236.375 262.194 236.908C262.852 237.442 263.613 237.835 264.43 238.063Z" fill="#263238"/>
<path d="M262.089 224.675C262.163 224.7 262.244 224.703 262.321 224.685C262.397 224.666 262.467 224.626 262.523 224.57C262.919 224.174 263.403 223.875 263.934 223.697C264.466 223.519 265.032 223.467 265.587 223.544C265.643 223.557 265.701 223.559 265.758 223.549C265.815 223.54 265.869 223.519 265.918 223.488C265.967 223.458 266.009 223.418 266.043 223.371C266.076 223.324 266.1 223.271 266.113 223.215C266.126 223.159 266.128 223.101 266.118 223.044C266.109 222.987 266.088 222.933 266.058 222.884C266.027 222.835 265.987 222.793 265.94 222.759C265.893 222.726 265.84 222.702 265.784 222.689C265.087 222.571 264.371 222.622 263.698 222.84C263.024 223.057 262.414 223.434 261.918 223.938C261.834 224.022 261.787 224.136 261.787 224.254C261.787 224.372 261.834 224.486 261.918 224.57C261.967 224.616 262.025 224.652 262.089 224.675Z" fill="#263238"/>
<path d="M276.885 226.792C276.967 226.818 277.054 226.818 277.135 226.792C277.248 226.758 277.344 226.681 277.4 226.578C277.457 226.474 277.47 226.353 277.438 226.239C277.253 225.561 276.906 224.937 276.427 224.422C275.949 223.906 275.352 223.515 274.689 223.28C274.576 223.251 274.456 223.266 274.353 223.322C274.25 223.378 274.173 223.472 274.137 223.583C274.104 223.696 274.117 223.818 274.174 223.921C274.231 224.025 274.326 224.102 274.439 224.135C274.965 224.32 275.437 224.634 275.811 225.047C276.185 225.461 276.45 225.961 276.583 226.502C276.606 226.572 276.645 226.634 276.698 226.685C276.751 226.735 276.815 226.772 276.885 226.792Z" fill="#263238"/>
<path d="M247.162 212.338C247.162 212.338 241.481 206.696 260.761 207.209C280.042 207.722 283.251 218.532 274.413 221.044L274.018 219.282C272.5 220.065 270.833 220.514 269.127 220.6C267.421 220.687 265.717 220.407 264.128 219.782L265.522 218.914C265.522 218.914 252.357 220.255 247.162 212.338Z" fill="#263238"/>
<path d="M262.55 261.329C262.55 261.329 260.09 264.17 257.289 266.971C253.199 264.906 243.624 259.369 244.137 254.253C244.703 252.767 248.595 251.82 248.595 251.82C248.595 251.82 252.725 257.331 262.55 261.329Z" fill="#407BFF"/>
<path d="M262.549 261.328C264.561 262.95 266.332 264.85 267.81 266.971C270.821 265.024 269.309 255.502 268.204 254.45C266.611 253.58 264.824 253.127 263.009 253.135C263.605 254.435 263.875 255.861 263.794 257.289C263.714 258.717 263.287 260.103 262.549 261.328Z" fill="#407BFF"/>
<g opacity="0.5">
<path d="M262.55 261.329C262.55 261.329 260.09 264.17 257.289 266.971C253.199 264.906 243.624 259.369 244.137 254.253C244.703 252.767 248.595 251.82 248.595 251.82C248.595 251.82 252.725 257.331 262.55 261.329Z" fill="white"/>
<path d="M262.549 261.328C264.561 262.95 266.332 264.85 267.81 266.971C270.821 265.024 269.309 255.502 268.204 254.45C266.611 253.58 264.824 253.127 263.009 253.135C263.605 254.435 263.875 255.861 263.794 257.289C263.714 258.717 263.287 260.103 262.549 261.328Z" fill="white"/>
</g>
<path opacity="0.2" d="M262.417 411.365L256.814 380.866L257.893 364.729C257.893 364.729 265.56 392.716 262.417 411.365Z" fill="black"/>
<path d="M233.484 270.39C228.618 278.504 221.082 290.117 216.952 298.364C214.755 303.033 214.072 308.03 212.875 313.067C211.731 318.446 210.586 323.931 209.324 329.349L203.037 328.797C202.814 323.102 202.866 317.46 203.208 311.765C203.642 305.834 203.958 299.429 206.194 293.8C210.639 282.976 216.492 273.296 222.765 263.551L233.484 270.416V270.39Z" fill="#F3C1BC"/>
<path d="M228.224 256.463C221.161 258.291 208.496 283.674 208.496 283.674L223.502 293.393L237.036 280.241C237.812 275.48 237.52 270.606 236.181 265.972C233.984 258.054 228.224 256.463 228.224 256.463Z" fill="#407BFF"/>
<path opacity="0.7" d="M228.224 256.463C221.161 258.291 208.496 283.674 208.496 283.674L223.502 293.393L237.036 280.241C237.812 275.48 237.52 270.606 236.181 265.972C233.984 258.054 228.224 256.463 228.224 256.463Z" fill="white"/>
<path d="M233.547 334.707L337.8 224.154C338.361 223.558 339.035 223.079 339.782 222.744C340.528 222.409 341.334 222.224 342.152 222.2C342.971 222.176 343.786 222.313 344.551 222.604C345.316 222.895 346.016 223.334 346.612 223.895L349.129 226.269C350.331 227.403 351.034 228.969 351.083 230.621C351.131 232.274 350.521 233.878 349.387 235.081L245.134 345.634L233.547 334.707Z" fill="#263238"/>
<path opacity="0.6" d="M233.547 334.707L337.8 224.154C338.361 223.558 339.035 223.079 339.782 222.744C340.528 222.409 341.334 222.224 342.152 222.2C342.971 222.176 343.786 222.313 344.551 222.604C345.316 222.895 346.016 223.334 346.612 223.895L349.129 226.269C350.331 227.403 351.034 228.969 351.083 230.621C351.131 232.274 350.521 233.878 349.387 235.081L245.134 345.634L233.547 334.707Z" fill="white"/>
<path opacity="0.2" d="M347.379 224.635L349.128 226.279C349.723 226.839 350.202 227.511 350.538 228.257C350.873 229.002 351.059 229.806 351.083 230.623C351.107 231.441 350.971 232.255 350.68 233.019C350.39 233.783 349.952 234.483 349.391 235.077L245.136 345.645L243.4 344.001L347.655 233.433C348.215 232.838 348.652 232.138 348.941 231.373C349.23 230.608 349.366 229.794 349.341 228.977C349.315 228.16 349.128 227.356 348.792 226.611C348.455 225.865 347.975 225.194 347.379 224.635Z" fill="black"/>
<path d="M314.117 267.444L333.437 285.672L335.949 283.003L333.45 280.648L337.422 276.427L335.962 275.046L341.933 268.72L343.393 270.101L347.128 266.142L349.627 268.509L352.218 265.748L350.758 264.367L354.493 260.395L351.56 257.633L354.007 255.042L358.413 259.185L362.884 254.45L343.564 236.222L314.117 267.444Z" fill="#263238"/>
<path opacity="0.6" d="M314.117 267.444L333.437 285.672L335.949 283.003L333.45 280.648L337.422 276.427L335.962 275.046L341.933 268.72L343.393 270.101L347.128 266.142L349.627 268.509L352.218 265.748L350.758 264.367L354.493 260.395L351.56 257.633L354.007 255.042L358.413 259.185L362.884 254.45L343.564 236.222L314.117 267.444Z" fill="white"/>
<g opacity="0.2">
<path opacity="0.6" d="M334.208 281.376L331.699 284.036L333.441 285.678L335.949 283.018L334.208 281.376Z" fill="black"/>
<path opacity="0.6" d="M343.393 270.1L341.933 268.706L335.962 275.045L337.422 276.426L333.45 280.647L331.701 279.004L335.686 274.782L334.213 273.401L340.184 267.062L341.657 268.456L345.379 264.497L347.128 266.141L343.393 270.1Z" fill="black"/>
<path opacity="0.6" d="M349.009 262.709L352.757 258.75L354.506 260.394L350.758 264.366L352.231 265.747L349.627 268.509L347.891 266.865L350.482 264.103L349.009 262.709Z" fill="black"/>
<path opacity="0.6" d="M352.252 253.391L349.807 255.984L351.548 257.627L353.993 255.034L352.252 253.391Z" fill="black"/>
<path opacity="0.6" d="M361.138 252.815L356.662 257.561L358.404 259.203L362.879 254.457L361.138 252.815Z" fill="black"/>
</g>
<path d="M335.024 225.06L303.064 258.952C302.536 259.512 302.562 260.394 303.122 260.922L314.719 271.858C315.279 272.386 316.161 272.361 316.689 271.8L348.649 237.909C349.177 237.349 349.151 236.467 348.591 235.939L336.994 225.003C336.434 224.474 335.552 224.5 335.024 225.06Z" fill="#263238"/>
<path d="M245.741 381.378C243.315 383.951 240.407 386.021 237.181 387.47C233.956 388.918 230.476 389.717 226.942 389.821C223.407 389.925 219.887 389.331 216.582 388.075C213.277 386.818 210.252 384.922 207.68 382.496L198.947 374.263C196.374 371.837 194.304 368.929 192.855 365.703C191.407 362.478 190.608 358.998 190.504 355.464C190.4 351.929 190.993 348.409 192.25 345.104C193.507 341.799 195.403 338.774 197.829 336.202C200.257 333.618 203.17 331.54 206.403 330.085C209.636 328.631 213.124 327.828 216.667 327.724C220.21 327.621 223.739 328.217 227.052 329.48C230.364 330.743 233.394 332.647 235.969 335.084L244.689 343.317C247.257 345.747 249.322 348.659 250.765 351.887C252.208 355.115 253.001 358.595 253.099 362.129C253.196 365.664 252.597 369.183 251.334 372.486C250.072 375.788 248.171 378.81 245.741 381.378Z" fill="#263238"/>
<path d="M235.707 371.91C234.5 373.192 233.053 374.223 231.447 374.946C229.841 375.668 228.108 376.067 226.348 376.12C224.588 376.172 222.835 375.877 221.189 375.252C219.543 374.627 218.037 373.683 216.755 372.475L208.496 364.584C207.215 363.376 206.184 361.928 205.463 360.322C204.742 358.715 204.344 356.983 204.293 355.223C204.242 353.463 204.538 351.71 205.164 350.064C205.79 348.419 206.735 346.913 207.944 345.632C209.149 344.35 210.596 343.318 212.202 342.596C213.807 341.874 215.539 341.476 217.298 341.425C219.058 341.373 220.81 341.67 222.455 342.297C224.099 342.924 225.604 343.87 226.882 345.08L235.221 352.971C237.795 355.419 239.293 358.788 239.384 362.34C239.475 365.891 238.153 369.333 235.707 371.91Z" fill="white"/>
<path opacity="0.5" d="M335.024 225.06L303.064 258.952C302.536 259.512 302.562 260.394 303.122 260.922L314.719 271.858C315.279 272.386 316.161 272.361 316.689 271.8L348.649 237.909C349.177 237.349 349.151 236.467 348.591 235.939L336.994 225.003C336.434 224.474 335.552 224.5 335.024 225.06Z" fill="white"/>
<g opacity="0.5">
<path d="M245.741 381.378C243.315 383.951 240.407 386.021 237.181 387.47C233.956 388.918 230.476 389.717 226.942 389.821C223.407 389.925 219.887 389.331 216.582 388.075C213.277 386.818 210.252 384.922 207.68 382.496L198.947 374.263C196.374 371.837 194.304 368.929 192.855 365.703C191.407 362.478 190.608 358.998 190.504 355.464C190.4 351.929 190.993 348.409 192.25 345.104C193.507 341.799 195.403 338.774 197.829 336.202C200.257 333.618 203.17 331.54 206.403 330.085C209.636 328.631 213.124 327.828 216.667 327.724C220.21 327.621 223.739 328.217 227.052 329.48C230.364 330.743 233.394 332.647 235.969 335.084L244.689 343.317C247.257 345.747 249.322 348.659 250.765 351.887C252.208 355.115 253.001 358.595 253.099 362.129C253.196 365.664 252.597 369.183 251.334 372.486C250.072 375.788 248.171 378.81 245.741 381.378Z" fill="white"/>
<path d="M235.707 371.909C234.5 373.191 233.053 374.222 231.447 374.945C229.841 375.667 228.108 376.066 226.348 376.119C224.588 376.171 222.835 375.876 221.189 375.251C219.543 374.626 218.037 373.682 216.755 372.474L208.496 364.583C207.215 363.375 206.184 361.927 205.463 360.321C204.742 358.714 204.344 356.982 204.293 355.222C204.242 353.462 204.538 351.709 205.164 350.063C205.79 348.418 206.735 346.912 207.944 345.631C209.149 344.349 210.596 343.317 212.202 342.595C213.807 341.873 215.539 341.475 217.298 341.424C219.058 341.372 220.81 341.669 222.455 342.296C224.099 342.923 225.604 343.869 226.882 345.079L235.221 352.97C237.795 355.418 239.293 358.787 239.384 362.339C239.475 365.89 238.153 369.332 235.707 371.909Z" fill="white"/>
</g>
<path opacity="0.2" d="M345.102 232.644L348.6 235.932C348.732 236.061 348.837 236.216 348.908 236.386C348.979 236.557 349.016 236.74 349.016 236.924C349.016 237.109 348.979 237.292 348.908 237.463C348.837 237.633 348.732 237.788 348.6 237.917L316.642 271.797C316.513 271.928 316.36 272.032 316.19 272.103C316.021 272.174 315.839 272.211 315.655 272.211C315.471 272.211 315.29 272.174 315.12 272.103C314.951 272.032 314.797 271.928 314.669 271.797L311.184 268.509C311.445 268.766 311.797 268.911 312.163 268.911C312.53 268.911 312.882 268.766 313.143 268.509L345.102 234.616C345.233 234.488 345.338 234.334 345.409 234.165C345.48 233.996 345.517 233.814 345.517 233.63C345.517 233.446 345.48 233.264 345.409 233.095C345.338 232.926 345.233 232.772 345.102 232.644Z" fill="black"/>
<g opacity="0.2">
<path d="M224.278 342.647L226.908 345.106C224.294 342.847 220.91 341.683 217.46 341.857C214.01 342.031 210.76 343.529 208.387 346.04C206.014 348.55 204.701 351.879 204.721 355.334C204.741 358.788 206.093 362.102 208.495 364.584L205.865 362.111C203.279 359.67 201.768 356.301 201.666 352.745C201.563 349.19 202.878 345.739 205.319 343.153C207.761 340.567 211.13 339.056 214.685 338.954C218.241 338.851 221.691 340.166 224.278 342.607V342.647Z" fill="black"/>
<path d="M242.019 340.911L244.649 343.384C249.681 348.323 252.575 355.038 252.71 362.087C252.846 369.136 250.212 375.958 245.374 381.087C240.536 386.215 233.88 389.243 226.835 389.519C219.79 389.795 212.917 387.298 207.693 382.563L205.062 380.104C210.269 384.95 217.182 387.539 224.291 387.307C231.401 387.075 238.129 384.04 243.009 378.865C247.889 373.69 250.524 366.795 250.339 359.684C250.153 352.573 247.162 345.825 242.019 340.911Z" fill="black"/>
</g>
<g opacity="0.2">
<path d="M224.278 342.647L226.908 345.106C224.294 342.847 220.91 341.683 217.46 341.857C214.01 342.031 210.76 343.529 208.387 346.04C206.014 348.55 204.701 351.879 204.721 355.334C204.741 358.788 206.093 362.102 208.495 364.584L205.865 362.111C203.279 359.67 201.768 356.301 201.666 352.745C201.563 349.19 202.878 345.739 205.319 343.153C207.761 340.567 211.13 339.056 214.685 338.954C218.241 338.851 221.691 340.166 224.278 342.607V342.647Z" fill="black"/>
<path d="M224.278 342.647L226.908 345.106C224.294 342.847 220.91 341.683 217.46 341.857C214.01 342.031 210.76 343.529 208.387 346.04C206.014 348.55 204.701 351.879 204.721 355.334C204.741 358.788 206.093 362.102 208.495 364.584L205.865 362.111C203.279 359.67 201.768 356.301 201.666 352.745C201.563 349.19 202.878 345.739 205.319 343.153C207.761 340.567 211.13 339.056 214.685 338.954C218.241 338.851 221.691 340.166 224.278 342.607V342.647Z" fill="black"/>
</g>
<path d="M204.26 343.816L213.927 341.397L212.848 334.334L201.064 336.714L204.26 343.816Z" fill="#F3C1BC"/>
<path d="M203.313 327.469L201.064 336.676L212.901 334.295C212.901 334.295 213.059 326.023 208.666 325.483L203.313 327.469Z" fill="#F3C1BC"/>
</g>
<defs>
<clipPath id="clip0_1093_36861">
<rect width="573" height="573" fill="white"/>
</clipPath>
</defs>
</svg>
