<svg fill="none" xmlns="http://www.w3.org/2000/svg" viewBox="0 0 421 373"><g clip-path="url(#a)"><path d="M462 327.4H-38v.25h500v-.25ZM199 282.8H5.91a5.71 5.71 0 0 1-5.7-5.71V5.66A5.71 5.71 0 0 1 5.91 0h193.1a5.71 5.71 0 0 1 5.7 5.71v271.38a5.72 5.72 0 0 1-5.7 5.71ZM5.91.2A5.46 5.46 0 0 0 .46 5.66v271.43a5.46 5.46 0 0 0 5.45 5.46h193.1a5.47 5.47 0 0 0 5.45-5.46V5.66A5.47 5.47 0 0 0 199 .2H5.91ZM415.31 282.8h-193.1a5.72 5.72 0 0 1-5.71-5.71V5.66A5.72 5.72 0 0 1 222.21 0h193.1A5.71 5.71 0 0 1 421 5.66v271.43a5.71 5.71 0 0 1-5.69 5.71ZM222.21.2a5.47 5.47 0 0 0-5.46 5.46v271.43a5.47 5.47 0 0 0 5.46 5.46h193.1a5.47 5.47 0 0 0 5.46-5.46V5.66A5.47 5.47 0 0 0 415.31.2h-193.1ZM411.9 336.92h-26v.25h26v-.25ZM318.03 334.21h-54.1v.25h54.1v-.25ZM394 346.21h-35.41v.25H394v-.25ZM38.15 344.53H14.46v.25h23.7v-.25ZM72.9 344.53H47.04v.25H72.9v-.25ZM227.14 340.31h-54.56v.25h54.56v-.25Z" fill="#EBEBEB"/><path d="M46.53 300.67h-9.59v22.56h9.6v-22.56Z" fill="#E0E0E0"/><path d="M61.53 172.67H21.95c-.58 0-1.06.47-1.06 1.06v135.21c0 .58.48 1.06 1.06 1.06h39.58c.59 0 1.06-.48 1.06-1.06V173.73c0-.59-.47-1.06-1.06-1.06ZM51 323.22H32.47l-1.42 4.18h21.37L51 323.22Z" fill="#E6E6E6"/><path d="M58.59 304.94V177.73c0-.59-.47-1.06-1.06-1.06H25.95c-.59 0-1.06.47-1.06 1.06v127.21c0 .58.47 1.06 1.06 1.06h31.58c.59 0 1.06-.48 1.06-1.06Z" fill="#FAFAFA"/><path d="m58.58 194.03-33.7 16.05v-12.69l33.7-16.06v12.7ZM58.58 224.45l-33.7 16.05v-12.7l33.7-16.05v12.7ZM58.58 254.86l-33.7 16.06v-12.7l33.7-16.05v12.69ZM58.58 285.28l-33.7 16.05v-12.69l33.7-16.06v12.7Z" fill="#F0F0F0"/><path d="M387.06 300.67h-9.6v22.56h9.6v-22.56Z" fill="#E0E0E0"/><path d="M402.06 172.67h-39.58c-.58 0-1.06.47-1.06 1.06v135.21c0 .58.48 1.06 1.06 1.06h39.58c.59 0 1.06-.48 1.06-1.06V173.73c0-.59-.47-1.06-1.06-1.06ZM391.53 323.22H373l-1.42 4.18h21.37l-1.42-4.18Z" fill="#E6E6E6"/><path d="M399.12 304.94V177.73c0-.59-.47-1.06-1.06-1.06h-31.58c-.58 0-1.06.47-1.06 1.06v127.21c0 .58.48 1.06 1.06 1.06h31.58c.59 0 1.06-.48 1.06-1.06Z" fill="#FAFAFA"/><path d="m399.12 194.03-33.7 16.05v-12.69l33.7-16.06v12.7ZM399.12 224.45l-33.7 16.05v-12.7l33.7-16.05v12.7ZM399.12 254.86l-33.7 16.06v-12.7l33.7-16.05v12.69ZM399.12 285.28l-33.7 16.05v-12.69l33.7-16.06v12.7ZM288.53 203.01H126.09v12.27h162.44v-12.27Z" fill="#F0F0F0"/><path d="M288.53 215.28H126.1L111.35 327.4h169.52l7.66-112.12Z" fill="#F0F0F0"/><path d="m252.84 235.26.74-7.88H241.9l-.74 7.88-14.91 72h27.9l-1.31-72ZM208.76 235.26l.74-7.88h-11.68l-.75 7.88-14.91 72h27.9l-1.3-72ZM164.68 235.26l.74-7.88h-11.68l-.75 7.88-14.91 72h27.9l-1.3-72ZM299.56 215.28v-12.27h-11.03v12.27l-7.66 112.12h26.35l-7.66-112.12Z" fill="#E0E0E0"/><path d="M107.05 30.4H20.9A26.58 26.58 0 0 1 36.43 22c9.65-1.3 6.93 2.73 6.93 2.73s6.87-12.65 29-13.49c22.13-.84 6.24 11.41 6.24 11.41s9.75-5.55 25.23-5.29c15.48.26 3.22 13.04 3.22 13.04Z" fill="#F5F5F5"/><path d="M253.2 73.68h-75a23.14 23.14 0 0 1 13.52-7.29c8.4-1.13 6 2.37 6 2.37s6-11 25.24-11.73c19.24-.73 5.43 9.93 5.43 9.93s8.48-4.84 22-4.61c13.52.23 2.8 11.33 2.8 11.33Z" fill="#FAFAFA"/><path d="M364.52 40.72H244.28a31.3 31.3 0 0 1 25.54-11.1s12.2-17.46 35-19.15c22.8-1.69 11.55 14.39 11.55 14.39s8.57-10.79 33.25-10.37c24.68.42 8.81 13.51 8.81 13.51s12.76-2.11 16.3 3c3.54 5.11-10.2 9.72-10.2 9.72ZM212 372.56c107.08 0 193.89-5.07 193.89-11.32s-86.8-11.32-193.9-11.32c-107.07 0-193.88 5.07-193.88 11.32s86.8 11.32 193.89 11.32Z" fill="#F5F5F5"/><path d="M287.55 75.52c-4.77 6-12.53.74-10.83-4.79 1.04-3.39 13.86.95 10.83 4.79Z" fill="#263238"/><path d="M305.48 78.33c-2.8-1.59-13-1.5-15.86-1.5-2.86 0-8-.62-9.37.75-1.37 1.37 1.24 8.34 1.24 8.34s12.37 5.46 16.88 5.46c4.5 0 10.37-11.19 7.1-13.05Z" fill="#1E60F6"/><path opacity=".6" d="M305.48 78.33c-2.8-1.59-13-1.5-15.86-1.5-2.86 0-8-.62-9.37.75-1.37 1.37 1.24 8.34 1.24 8.34s12.37 5.46 16.88 5.46c4.5 0 10.37-11.19 7.1-13.05Z" fill="#000"/><path d="M275.32 344.86h-9.4a.72.72 0 0 0-.7.66l-1.3 8.65a1.46 1.46 0 0 0 1.3 1.73c3.29-.07 4.88-.29 9-.29 2.55 0 9.42.31 12.93.31 3.5 0 3.8-4 2.35-4.41-6.51-1.64-10.64-3.9-12.8-6.05a1.94 1.94 0 0 0-1.38-.6Z" fill="#263238"/><path d="M302.74 161.6s-7.67 57-9.37 79.58c-1.62 21.39-4 69.86-7.61 85a5 5 0 0 1-5 3.72l-14.46-.2a4.9 4.9 0 0 1-5.07-5.4c2.45-17 5.79-60.93 6.37-81.14.76-26.28-1.93-61.78 6.24-81.55l28.9-.01Z" fill="#1E60F6"/><path d="M270.68 330.2a5.73 5.73 0 0 1-4.36-1.95 4.99 4.99 0 0 1-1.21-4c2.5-17.31 5.81-61.89 6.36-81.3.19-6.29.17-13 .15-20.11-.05-22.76-.11-46.29 6.14-61.4l.94.39c-6.18 14.92-6.12 39.41-6.06 61 0 7.11 0 13.83-.15 20.14-.56 19.43-3.87 64.08-6.37 81.42a3.99 3.99 0 0 0 1 3.22 4.75 4.75 0 0 0 3.59 1.6l-.03.99Z" fill="#fff"/><path d="m264.88 347.87 11.6 1.47 4.29-19.45-14.46-.2-1.43 18.18ZM344.23 343.17l-9 2.52a.59.59 0 0 0-.36.32.6.6 0 0 0-.01.48l2.48 8.34a1.75 1.75 0 0 0 2 1.24c3.12-.94 4.54-1.57 8.5-2.68 2.43-.68 9.14-2.24 12.5-3.19 3.36-.95 1.9-4.75.36-4.7-6.95.24-11.88-.74-14.87-2.15a2.22 2.22 0 0 0-1.6-.18Z" fill="#263238"/><path d="M324.06 200.15a8.63 8.63 0 0 1 6 8c.32 4.74 2.8 10.26 2.56 13.77-.25 3.51-4.47 5.83-4.47 5.83l-4.1-27.6Z" fill="#1E60F6"/><path opacity=".1" d="M324.06 200.15a8.63 8.63 0 0 1 6 8c.32 4.74 2.8 10.26 2.56 13.77-.25 3.51-4.47 5.83-4.47 5.83l-4.1-27.6Z" fill="#000"/><path d="M318.62 161.6s9.54 59.79 14 83.44c4 20.81 7.41 61.47 12.53 79.67.6 2.11-.68 4.08-3 4.73l-13.93 3.73c-3 .84-6.48-.82-7.47-3.53-5.9-16.07-7.67-56.17-12.3-79.68-8.18-22.53-18.79-88.36-18.79-88.36h28.96Z" fill="#1E60F6"/><path d="m334.8 346.55 10.72-1.32-3.3-15.79-13.92 3.73 6.5 13.38Z" fill="#263238"/><path d="M268.53 89c-3.2 1.25-5.4 5.15-4.67 8.31 6.65 28.62-.14 67 5.42 77.45 18.94 3.14 37 4.69 51.74 0 5.68-34.91-1.92-71.92-4.28-80.2-.57-2-2.4-3.27-4.47-4.08-7.2-2.78-35.5-4.68-43.74-1.48Z" fill="#1E60F6"/><path opacity=".4" d="M268.53 89c-3.2 1.25-5.4 5.15-4.67 8.31 6.65 28.62-.14 67 5.42 77.45 18.94 3.14 37 4.69 51.74 0 5.68-34.91-1.92-71.92-4.28-80.2-.57-2-2.4-3.27-4.47-4.08-7.2-2.78-35.5-4.68-43.74-1.48Z" fill="#000"/><path d="M285.5 72.43c.59 5.61.21 12.58-5.68 16.4 0 0 2.13 5.67 16.2 5.5 12.85-.16 7.32-5.79 7.32-5.79-8.2-1.4-6.52-9.17-4.36-13.56l-13.48-2.55Z" fill="#FFC2BA"/><path opacity=".2" d="M299 75c-1.3 2.58-2.4 6.31-1.41 9.25a15 15 0 0 1-3.64-.82c-4.5-1.61-6.42-4.2-8.24-8.07 0-1-.1-2-.2-2.91L299 75Z" fill="#000"/><path d="M297.45 52.73c6.7.45 4.46 6.88 2.28 9s-6.53-9.28-2.28-9Z" fill="#263238"/><path d="M300.8 56.73c6.18 2.46 1.8 7.85-1 9.19-2.8 1.34-2.92-10.76 1-9.19Z" fill="#263238"/><path d="M278.89 65.22c2.61 7.48 3.73 12 8.86 15 7.7 4.62 16.6-.87 16.4-8.82-.18-7.16-4.41-18.19-13.08-19.62-8.67-1.43-14.78 5.95-12.18 13.44Z" fill="#FFC2BA"/><path d="M280.56 70.05c3.42.07 2.19-7.35 1.22-8.67 3.5-.62 16.53-5.15 16.58-7 .05-1.85-2.76-5-6.91-4.65-4.15.35-15.22 4-15.7 7.58-.48 3.58-1.31 10.95 4.8 12.74Z" fill="#263238"/><path d="M299.32 53c1.37 6.13-5.88 5.87-8.66 4.49-2.78-1.38 7.79-8.42 8.66-4.49ZM278.79 72c-6.55-1.43-3.24-7.44-.72-9.22 2.52-1.78 4.87 10.14.72 9.22ZM296.78 73.13a6.15 6.15 0 0 1-4.4-1.36.18.18 0 0 1 .04-.2.21.21 0 0 1 .28 0 6 6 0 0 0 4.78 1.1.21.21 0 0 1 .24.14.19.19 0 0 1-.15.22c-.26.05-.53.08-.8.1Z" fill="#263238"/><path d="M278.16 72.78a8 8 0 0 0 5.32 2.1c2.6 0 3.1-2.33 1.7-4.3-1.25-1.77-4.12-3.91-6.41-3-2.3.91-2.36 3.57-.61 5.2Z" fill="#FFC2BA"/><path opacity=".2" d="M298.41 95.48c1.75 9.24 4.65 47.73 3.11 76.1 3.58-35.44-3.11-76.1-3.11-76.1Z" fill="#000"/><path d="M291.6 64.86c.18.62.67 1 1.09 1 .42 0 .64-.66.46-1.28s-.65-1-1.08-1c-.43 0-.63.67-.46 1.28ZM299 63.37c.17.61.66 1 1.08 1 .42 0 .64-.66.46-1.28s-.65-1-1.08-1c-.43 0-.66.66-.46 1.28Z" fill="#263238"/><path d="M296.72 64a22.46 22.46 0 0 0 4.14 4.2 3.5 3.5 0 0 1-2.67 1.07L296.72 64Z" fill="#FFA6A4"/><path d="M303.52 67.21c1.47 1.14.93 7.85.23 9.74a7.76 7.76 0 0 1-5 4.57c-3.11.77-9.82 1.63-10.48-2.65-.66-4.28-2.22-5.13-.8-7.35 1.42-2.22 7.52-5.08 10.73-5.29 2.19-.13 3.59-.36 5.32.98Z" fill="#fff"/><path d="M288.3 72.66a.38.38 0 0 1-.15 0 15.33 15.33 0 0 1-6.77-4.67.5.5 0 0 1-.11-.37.5.5 0 0 1 .19-.34.52.52 0 0 1 .7.08 14.47 14.47 0 0 0 6.29 4.33.5.5 0 0 1 .33.64.5.5 0 0 1-.48.33ZM285.69 76.29a6.16 6.16 0 0 1-3.25-.86.51.51 0 0 1-.04-.85.5.5 0 0 1 .38-.09c.06.01.12.04.18.07 2.53 1.54 5.79.08 5.83.07a.48.48 0 0 1 .2-.05c.06 0 .13.01.19.03a.5.5 0 0 1 .28.27.52.52 0 0 1-.25.67c-1.11.47-2.31.72-3.52.74Z" fill="#fff"/><path d="M289.74 64.31a.35.35 0 0 0 .24-.22 2.9 2.9 0 0 1 2-1.85.35.35 0 0 0 .24-.16.36.36 0 0 0 .04-.28.43.43 0 0 0-.49-.29 3.63 3.63 0 0 0-2.51 2.32.38.38 0 0 0 .25.47c.07.02.15.03.23.01ZM302 61a.36.36 0 0 0 .16-.4.36.36 0 0 0-.08-.13 4.34 4.34 0 0 0-3.77-.44.34.34 0 0 0-.17.48.42.42 0 0 0 .55.18 3.47 3.47 0 0 1 2.89.31.42.42 0 0 0 .42 0Z" fill="#263238"/><path d="M296.36 95.71 297.7 90s-2.93-8.68-4.9-9.05a15 15 0 0 1-8.04-2c-1.84-.89-2.26-1.54-3.11-1.72a1.66 1.66 0 0 0-2 1.23 73.15 73.15 0 0 0-1.36 9.42c3.19 4.69 8.43 6.93 18.06 7.83Z" fill="#1E60F6"/><path opacity=".4" d="M296.36 95.71 297.7 90s-2.93-8.68-4.9-9.05a15 15 0 0 1-8.04-2c-1.84-.89-2.26-1.54-3.11-1.72a1.66 1.66 0 0 0-2 1.23 73.15 73.15 0 0 0-1.36 9.42c3.19 4.69 8.43 6.93 18.06 7.83Z" fill="#000"/><path d="M296.36 95.71 297.7 90s4-6.36 4.29-9.09c3-1.63-1.21-3 2.93-2.74 1.72.11 1.75 3.19 1.75 3.19-.17 3.02-.5 6.02-1 9-1.52 3.47-4.54 5.04-9.32 5.35Z" fill="#1E60F6"/><path opacity=".4" d="M296.36 95.71 297.7 90s4-6.36 4.29-9.09c3-1.63-1.21-3 2.93-2.74 1.72.11 1.75 3.19 1.75 3.19-.17 3.02-.5 6.02-1 9-1.52 3.47-4.54 5.04-9.32 5.35Z" fill="#000"/><path d="M271.72 88.76a.71.71 0 0 1-.4-.68.7.7 0 0 1 .48-.63c1.85-.73 4.76-1.71 6.63-1.45 2.9.42 12 18.84 15 33.95 3 15.11.82 38-.27 42.39-13 .11-25.2-2.72-28-4.35-.44-5.85.92-36.74.92-36.74S278.4 109 277.17 98.86c-.8-6.64-3.61-9.15-5.45-10.1Z" fill="#1E60F6"/><path opacity=".6" d="M271.72 88.76a.71.71 0 0 1-.4-.68.7.7 0 0 1 .48-.63c1.85-.73 4.76-1.71 6.63-1.45 2.9.42 12 18.84 15 33.95 3 15.11.82 38-.27 42.39-13 .11-25.2-2.72-28-4.35-.44-5.85.92-36.74.92-36.74S278.4 109 277.17 98.86c-.8-6.64-3.61-9.15-5.45-10.1Z" fill="#fff"/><path d="m261.16 168.55 2 5.11c.48 1.19.55 2.5.2 3.73l-.87 3a2.5 2.5 0 0 1-2.85 1.7l-3.89-.64a2.35 2.35 0 0 1-2-2.63l.69-4.47s-2.23-6.15 2.49-8.81l4.23 3.01Z" fill="#1E60F6"/><path opacity=".3" d="m261.16 168.55 2 5.11c.48 1.19.55 2.5.2 3.73l-.87 3a2.5 2.5 0 0 1-2.85 1.7l-3.89-.64a2.35 2.35 0 0 1-2-2.63l.69-4.47s-2.23-6.15 2.49-8.81l4.23 3.01Z" fill="#fff"/><path d="M262.77 164.8a6.67 6.67 0 0 1-.66 5.43 9.27 9.27 0 0 1-8.42 0 3.4 3.4 0 0 1 .15-3.83l8.93-1.6Z" fill="#1E60F6"/><path d="m265.14 91.81 2.6 1.52a12.79 12.79 0 0 1 5.3 16.89c-4.54 9-10.3 21.06-10.31 24.06 0 6.78 1.32 23.59.64 31.7-1.73 2.47-9.1 3.52-10.66 2.22-4.51-11-4.63-31.1-3.93-37.16 1.58-13.81 16.36-39.23 16.36-39.23Z" fill="#1E60F6"/><path opacity=".4" d="m265.14 91.81 2.6 1.52a12.79 12.79 0 0 1 5.3 16.89c-4.54 9-10.3 21.06-10.31 24.06 0 6.78 1.32 23.59.64 31.7-1.73 2.47-9.1 3.52-10.66 2.22-4.51-11-4.63-31.1-3.93-37.16 1.58-13.81 16.36-39.23 16.36-39.23Z" fill="#000"/><path d="m340.77 163.41 4.27 3.74c.98.86 1.66 2 1.94 3.27l.66 3.09a2.32 2.32 0 0 1-1.76 2.69l-3.8 1a2.54 2.54 0 0 1-3.07-1.52l-1.5-4.29s-4.91-4.62-1.92-8.94l5.18.96Z" fill="#1E60F6"/><path opacity=".3" d="m340.77 163.41 4.27 3.74c.98.86 1.66 2 1.94 3.27l.66 3.09a2.32 2.32 0 0 1-1.76 2.69l-3.8 1a2.54 2.54 0 0 1-3.07-1.52l-1.5-4.29s-4.91-4.62-1.92-8.94l5.18.96Z" fill="#fff"/><path d="M340.44 159.38a6.71 6.71 0 0 1 2 5.15 8.83 8.83 0 0 1-7.56 3.44 3.48 3.48 0 0 1-1.68-3.5l7.24-5.09Z" fill="#1E60F6"/><path d="M302.72 91.31h3.06c7.2-.06 13.3 4.9 14.25 11.55 1.4 9.91 3.5 22.91 5.24 25.46 3.89 5.72 13.06 24.34 16.27 31.9-.38 2.92-6.5 6.89-8.51 6.38-9.27-8.08-18.46-28.55-21.4-34-6.63-12.45-8.91-41.29-8.91-41.29Z" fill="#1E60F6"/><path opacity=".4" d="M302.72 91.31h3.06c7.2-.06 13.3 4.9 14.25 11.55 1.4 9.91 3.5 22.91 5.24 25.46 3.89 5.72 13.06 24.34 16.27 31.9-.38 2.92-6.5 6.89-8.51 6.38-9.27-8.08-18.46-28.55-21.4-34-6.63-12.45-8.91-41.29-8.91-41.29Z" fill="#000"/><path d="M307.24 90.15c1.43 7.78 4.95 40.34-.56 72.19 5.2.59 10.47.13 15.49-1.34a3.14 3.14 0 0 0 2.36-3c-.18-8-.9-35.1-2.28-46.37-1.63-13.3-5.07-19.38-7.52-20.69a28.88 28.88 0 0 0-6.14-1.94 1.07 1.07 0 0 0-1.35 1.15Z" fill="#1E60F6"/><path opacity=".6" d="M307.24 90.15c1.43 7.78 4.95 40.34-.56 72.19 5.2.59 10.47.13 15.49-1.34a3.14 3.14 0 0 0 2.36-3c-.18-8-.9-35.1-2.28-46.37-1.63-13.3-5.07-19.38-7.52-20.69a28.88 28.88 0 0 0-6.14-1.94 1.07 1.07 0 0 0-1.35 1.15Z" fill="#fff"/><path d="M296.84 51.68c4-1.24 9.55-1.54 7 1.23-2.55 2.77-5-1.62-11.5 5.3s-13.4 5.28-13.4 5.28 7.27-8.56 17.9-11.81Z" fill="#1E60F6"/><path d="M298.36 51.79c-.9-1.91-7.24-6.49-10.13-6.36-5.19.24-12.31 5.7-14.81 8.42-2.73 3-.9 7.73 2.37 11.64 9.46-4.24 22.57-13.7 22.57-13.7Z" fill="#1E60F6"/><path opacity=".2" d="M298.36 51.79c-.9-1.91-7.24-6.49-10.13-6.36-5.19.24-12.31 5.7-14.81 8.42-2.73 3-.9 7.73 2.37 11.64 9.46-4.24 22.57-13.7 22.57-13.7Z" fill="#fff"/><path d="M125.5 56c2.82-1.72 13.09-1.62 16-1.62 2.93 0 8.07-.68 9.47.81 1.4 1.49-1.25 9-1.25 9s-12.5 5.91-17 5.91c-4.51 0-10.5-12.1-7.21-14.1Z" fill="#1E60F6"/><path opacity=".4" d="M125.5 56c2.82-1.72 13.09-1.62 16-1.62 2.93 0 8.07-.68 9.47.81 1.4 1.49-1.25 9-1.25 9s-12.5 5.91-17 5.91c-4.51 0-10.5-12.1-7.21-14.1Z" fill="#000"/><path d="M161 344.35h9.48a.76.76 0 0 1 .7.72l1.3 9.36a1.55 1.55 0 0 1-1.3 1.87c-3.31-.07-4.91-.31-9.08-.31-2.57 0-9.49.33-13 .33s-3.84-4.37-2.37-4.77c6.57-1.77 10.73-4.22 12.91-6.55a1.92 1.92 0 0 1 1.36-.65Z" fill="#263238"/><path d="M128.27 146.07s9 62.45 12 86.78c2.83 23 6.53 74.91 10.2 91.28a5.16 5.16 0 0 0 5 4l14.59-.21a5.14 5.14 0 0 0 5.11-5.84c-2.47-18.37-7.16-66.67-8.88-88.48-2.23-28.35-.67-66.17-8.91-87.55l-29.11.02Z" fill="#1E60F6"/><path d="M165.67 328.47v-1.06a4.61 4.61 0 0 0 4.58-5.24c-2.5-18.67-7.24-67.64-8.88-88.5-.64-8.09-1-16.77-1.3-26-.84-22.73-1.71-46.23-7.57-61.44l1-.38c5.92 15.37 6.8 39 7.64 61.79.34 9.17.66 17.84 1.3 25.91 1.64 20.85 6.37 69.79 8.87 88.45a5.66 5.66 0 0 1-5.63 6.44l-.01.03Z" fill="#fff"/><path d="m171.52 347.62-11.71 1.58-4.32-21.05 14.59-.21 1.44 19.68ZM112.23 344.35h9.48a.65.65 0 0 1 .46.23.67.67 0 0 1 .15.49l.2 9.36a1.76 1.76 0 0 1-1.52 1.87c-3.3-.07-4.87-.31-9-.31-2.57 0-9.53.33-13.07.33-3.54 0-3.33-4.37-1.81-4.77 6.78-1.77 11.23-4.22 13.68-6.55.38-.39.89-.62 1.43-.65Z" fill="#263238"/><path d="M110.27 185.83a8.4 8.4 0 0 0-5 8.2c0 4.68-1.94 10.23-1.5 13.67.44 3.44 4.45 5.47 4.45 5.47l2.05-27.34Z" fill="#1E60F6"/><path opacity=".1" d="M110.27 185.83a8.4 8.4 0 0 0-5 8.2c0 4.68-1.94 10.23-1.5 13.67.44 3.44 4.45 5.47 4.45 5.47l2.05-27.34Z" fill="#000"/><path d="M112.26 146.07s-5.7 66-7.17 91.91c-1.3 22.83-1.57 65.81-.8 86.15a4.16 4.16 0 0 0 4.35 4l14.62-.21a6.32 6.32 0 0 0 6.1-5.84c.64-18.37-1.1-55.91.53-81.72 5.3-25.18 11.5-94.31 11.5-94.31l-29.13.02Z" fill="#1E60F6"/><path d="m122.37 347.62-11.89 1.58-1.84-21.05 14.61-.21-.88 19.68Z" fill="#263238"/><path d="M162.78 67.54a8.52 8.52 0 0 1 4.7 9c-6.71 31 .14 72.47-5.47 83.8-19.09 3.4-37.33 5.08-52.18 0-5.72-37.77 1.94-77.82 4.32-86.78.58-2.19 2.43-3.53 4.51-4.4 7.25-3.06 35.8-5.16 44.12-1.62Z" fill="#1E60F6"/><path opacity=".2" d="M162.78 67.54a8.52 8.52 0 0 1 4.7 9c-6.71 31 .14 72.47-5.47 83.8-19.09 3.4-37.33 5.08-52.18 0-5.72-37.77 1.94-77.82 4.32-86.78.58-2.19 2.43-3.53 4.51-4.4 7.25-3.06 35.8-5.16 44.12-1.62Z" fill="#000"/><path d="M145.66 49.57c-.6 6.08-.22 13.62 5.73 17.75 0 0-2.16 6.14-16.34 6-13-.17-7.4-6.26-7.4-6.26 8.28-1.51 6.6-9.92 4.4-14.67l13.6-2.82Z" fill="#EFA79F"/><path opacity=".2" d="M132.06 52.34c1.29 2.79 2.4 6.83 1.42 10a14.5 14.5 0 0 0 3.67-.88c4.53-1.74 6.47-4.55 8.3-8.73 0-1.08.1-2.14.2-3.16l-13.6 2.77Z" fill="#000"/><path d="M125.84 45.54a7.53 7.53 0 0 0 3.89 4.5c2.48 1.16 4.28-1 4.06-3.65-.2-2.37-1.73-5.83-4.44-5.88a3.76 3.76 0 0 0-3.51 5.03Z" fill="#EFA79F"/><path opacity=".2" d="M125.84 45.54a7.53 7.53 0 0 0 3.89 4.5c2.48 1.16 4.28-1 4.06-3.65-.2-2.37-1.73-5.83-4.44-5.88a3.76 3.76 0 0 0-3.51 5.03Z" fill="#000"/><path d="M133.9 27.78c-2.78 2-4.5 7.43-2.3 9.73 2.2 2.3 5.83-12.21 2.3-9.73Z" fill="#263238"/><path d="M152.32 41.77c-2.62 8.1-3.76 13-8.93 16.27-7.77 5-16.75-.94-16.54-9.55.15-7.75 4.45-19.68 13.15-21.22 8.7-1.54 15 6.41 12.32 14.5Z" fill="#EFA79F"/><path d="M150.64 47c-3.45.08-2.2-8-1.23-9.37-3.53-.68-16.67-5.58-16.72-7.56-.05-1.98 2.78-5.43 7-5 4.22.43 15.35 4.32 15.83 8.2.48 3.88 1.3 11.79-4.88 13.73ZM134.28 50.34a5.99 5.99 0 0 0 4.4-1.41.2.2 0 0 0 0-.27.2.2 0 0 0-.27-.01 5.73 5.73 0 0 1-4.9 1.19.2.2 0 0 0-.07.02.21.21 0 0 0-.1.13.2.2 0 0 0 0 .08l.03.07.06.06a7.58 7.58 0 0 0 .85.14Z" fill="#263238"/><path d="M153.61 50a8.3 8.3 0 0 1-5.68 2.4c-2.78 0-3.31-2.67-1.82-4.93 1.34-2 4.41-4.49 6.86-3.42 2.45 1.07 2.51 4.06.64 5.95Z" fill="#EFA79F"/><path opacity=".2" d="M132.64 74.52c-1.76 10-4.7 51.64-3.13 82.34-3.62-38.34 3.13-82.34 3.13-82.34Z" fill="#000"/><path d="M139.49 41.39c-.17.67-.66 1.14-1.1 1-.42-.14-.62-.71-.45-1.38.17-.67.66-1.13 1.09-1 .43.13.64.71.46 1.38ZM132.07 39.77c-.17.67-.66 1.13-1.1 1-.42-.13-.63-.71-.45-1.38.18-.67.66-1.13 1.09-1 .43.13.64.71.46 1.38Z" fill="#263238"/><path d="M134.35 40.44a23.84 23.84 0 0 1-4.18 4.55 3.4 3.4 0 0 0 2.69 1.16l1.49-5.71Z" fill="#A02724"/><path d="M127.49 43.93c-1.5 1.23-.94 8.5-.23 10.54a8.01 8.01 0 0 0 5 4.94c3.14.84 9.9 1.77 10.57-2.86.67-4.63 2.23-5.55.8-8s-7.6-5.5-10.82-5.72c-2.16-.1-3.58-.35-5.32 1.1Z" fill="#fff"/><path d="M142.84 49.81a.54.54 0 0 1-.51-.36.55.55 0 0 1-.03-.2c0-.08.03-.14.06-.2a.53.53 0 0 1 .3-.26c2.5-.96 4.7-2.58 6.34-4.69a.54.54 0 0 1 .74-.11.53.53 0 0 1 .1.74 15.5 15.5 0 0 1-6.83 5.06l-.17.02ZM145.47 53.73a8.84 8.84 0 0 1-3.57-.8.55.55 0 0 1-.27-.73.55.55 0 0 1 .74-.27s3.29 1.58 5.82-.07a.54.54 0 0 1 .82.34.53.53 0 0 1-.24.55 6 6 0 0 1-3.3.98Z" fill="#fff"/><path d="M141.39 40.8a.4.4 0 0 1-.25-.25 3 3 0 0 0-2-2 .39.39 0 0 1-.24-.18.4.4 0 0 1-.04-.3.42.42 0 0 1 .49-.3 3.68 3.68 0 0 1 2.54 2.5.42.42 0 0 1-.1.42.42.42 0 0 1-.41.11ZM129 37.21a.3.3 0 0 1-.12-.13.37.37 0 0 1-.05-.15.39.39 0 0 1 .2-.39 4.11 4.11 0 0 1 3.68-.38.36.36 0 0 1 .2.22.36.36 0 0 1-.03.3.42.42 0 0 1-.54.2 3.24 3.24 0 0 0-2.91.33.41.41 0 0 1-.43 0Z" fill="#263238"/><path d="m134.71 74.76-1.37-6.17s3-9.4 4.94-9.79c2.86.11 5.68-.63 8.12-2.12 1.85-1 2.28-1.67 3.13-1.87a1.7 1.7 0 0 1 1.75.72c.13.19.2.4.25.62a83.24 83.24 0 0 1 1.37 10.19c-3.19 5.03-8.49 7.45-18.19 8.42Z" fill="#1E60F6"/><path opacity=".2" d="m134.71 74.76-1.37-6.17s3-9.4 4.94-9.79c2.86.11 5.68-.63 8.12-2.12 1.85-1 2.28-1.67 3.13-1.87a1.7 1.7 0 0 1 1.75.72c.13.19.2.4.25.62a83.24 83.24 0 0 1 1.37 10.19c-3.19 5.03-8.49 7.45-18.19 8.42Z" fill="#000"/><path d="m134.7 74.76-1.36-6.17s-4.05-6.88-4.32-9.84c-3-1.76 1.22-3.25-3-3-1.73.11-1.76 3.45-1.76 3.45.16 3.26.5 6.51 1 9.74 1.58 3.79 4.62 5.49 9.45 5.82Z" fill="#1E60F6"/><path opacity=".2" d="m134.7 74.76-1.36-6.17s-4.05-6.88-4.32-9.84c-3-1.76 1.22-3.25-3-3-1.73.11-1.76 3.45-1.76 3.45.16 3.26.5 6.51 1 9.74 1.58 3.79 4.62 5.49 9.45 5.82Z" fill="#000"/><path d="M159.56 67.25a.78.78 0 0 0 .4-.73.78.78 0 0 0-.48-.69c-1.87-.79-4.8-1.85-6.69-1.56-2.94.44-12.12 20.37-15.1 36.72-2.98 16.35-.83 41.17.27 45.87 13.1.12 25.42-2.94 28.26-4.7.45-6.34-.93-39.76-.93-39.76s-12.47-13.29-11.23-24.23c.81-7.17 3.65-9.9 5.5-10.92Z" fill="#1E60F6"/><path opacity=".7" d="M159.56 67.25a.78.78 0 0 0 .4-.73.78.78 0 0 0-.48-.69c-1.87-.79-4.8-1.85-6.69-1.56-2.94.44-12.12 20.37-15.1 36.72-2.98 16.35-.83 41.17.27 45.87 13.1.12 25.42-2.94 28.26-4.7.45-6.34-.93-39.76-.93-39.76s-12.47-13.29-11.23-24.23c.81-7.17 3.65-9.9 5.5-10.92Z" fill="#fff"/><path d="m163.27 149.13-5.72 1.48a6.57 6.57 0 0 0-3.42 2.15l-2.2 2.61a2.52 2.52 0 0 0 .15 3.41l2.82 2.81a2.53 2.53 0 0 0 3.5.06l3.6-3.35s6.75-2 6.37-7.53l-5.1-1.64Z" fill="#1E60F6"/><path opacity=".3" d="m163.27 149.13-5.72 1.48a6.57 6.57 0 0 0-3.42 2.15l-2.2 2.61a2.52 2.52 0 0 0 .15 3.41l2.82 2.81a2.53 2.53 0 0 0 3.5.06l3.6-3.35s6.75-2 6.37-7.53l-5.1-1.64Z" fill="#fff"/><path d="M163.15 145.51a6.33 6.33 0 0 0-1.24 3.33 7.5 7.5 0 0 0 6.2 5.08 3.9 3.9 0 0 0 2.42-3.38l-7.38-5.03Z" fill="#1E60F6"/><path d="m166.19 70.54-12.13 10.31s20.29 30.21 19.07 35.47c-1.66 7.14-6.83 20.94-10.31 29 .3 3.17 5.74 7.33 7.79 6.83 9.6-8.45 18.79-32.44 18-39-1.82-14.89-22.42-42.61-22.42-42.61Z" fill="#1E60F6"/><path opacity=".2" d="m166.19 70.54-12.13 10.31s20.29 30.21 19.07 35.47c-1.66 7.14-6.83 20.94-10.31 29 .3 3.17 5.74 7.33 7.79 6.83 9.6-8.45 18.79-32.44 18-39-1.82-14.89-22.42-42.61-22.42-42.61Z" fill="#000"/><path d="m50.56 93.5-4.9-3.31a6.67 6.67 0 0 0-3.88-1.13l-3.41.09a2.51 2.51 0 0 0-2.45 2.37l-.24 4A2.52 2.52 0 0 0 38 98.16l4.86.45s6 3.73 9.86-.23l-2.16-4.88Z" fill="#1E60F6"/><path opacity=".3" d="m50.56 93.5-4.9-3.31a6.67 6.67 0 0 0-3.88-1.13l-3.41.09a2.51 2.51 0 0 0-2.45 2.37l-.24 4A2.52 2.52 0 0 0 38 98.16l4.86.45s6 3.73 9.86-.23l-2.16-4.88Z" fill="#fff"/><path d="M53.8 93.39a6.32 6.32 0 0 0-3.5-.55 7.5 7.5 0 0 0-3.74 7.1 3.9 3.9 0 0 0 3.8 1.68l3.45-8.23Z" fill="#1E60F6"/><path d="m127.87 81.38-12.53-9.83S89.8 97.47 84.41 97.33c-7.33-.19-21.88-2.5-30.5-4.3-3 .93-6 7.09-5.14 9 10.21 7.71 35.55 11.91 41.8 9.82 14.26-4.75 37.3-30.47 37.3-30.47Z" fill="#1E60F6"/><path opacity=".2" d="m127.87 81.38-12.53-9.83S89.8 97.47 84.41 97.33c-7.33-.19-21.88-2.5-30.5-4.3-3 .93-6 7.09-5.14 9 10.21 7.71 35.55 11.91 41.8 9.82 14.26-4.75 37.3-30.47 37.3-30.47Z" fill="#000"/><path d="M123.74 68.75c-1.45 8.42-5 43.65.56 78.12a37 37 0 0 1-15.62-1.44 3.33 3.33 0 0 1-2.38-3.29c.18-8.67.9-38 2.3-50.17 1.64-14.38 5.1-21 7.58-22.38a27.42 27.42 0 0 1 6.19-2.11 1.13 1.13 0 0 1 1.32.72c.06.18.08.37.05.55Z" fill="#1E60F6"/><path opacity=".7" d="M123.74 68.75c-1.45 8.42-5 43.65.56 78.12a37 37 0 0 1-15.62-1.44 3.33 3.33 0 0 1-2.38-3.29c.18-8.67.9-38 2.3-50.17 1.64-14.38 5.1-21 7.58-22.38a27.42 27.42 0 0 1 6.19-2.11 1.13 1.13 0 0 1 1.32.72c.06.18.08.37.05.55Z" fill="#fff"/><path d="M51 61.71a14.42 14.42 0 1 0-14.57 16.38c3.1 8.55 1.77 23.5 2.46 27.91.8 5.15 4.3 4.4 4.3 4.4s3.58-.23 3-5.4c-.54-4.44-5.88-18.46-5.23-27.53A14.41 14.41 0 0 0 51 61.71Z" fill="#1E60F6"/><path opacity=".7" d="M51 61.71a14.42 14.42 0 1 0-14.57 16.38c3.1 8.55 1.77 23.5 2.46 27.91.8 5.15 4.3 4.4 4.3 4.4s3.58-.23 3-5.4c-.54-4.44-5.88-18.46-5.23-27.53A14.41 14.41 0 0 0 51 61.71Z" fill="#fff"/><path d="M43.95 64.08a7.26 7.26 0 1 0-14.5-.77 7.26 7.26 0 0 0 14.5.77ZM131.63 32.14c-4.27-.32-9.75.71-6.57 3 3.18 2.29 4.48-2.91 12.63 2.78 8.15 5.69 14.5 2.29 14.5 2.29s-9.31-7.21-20.56-8.07Z" fill="#1E60F6"/><path d="M130.17 32.62c.38-2.22 5.4-8.56 8.25-9.13 5.15-1 13.54 3 16.69 5.25 3.46 2.47 2.9 7.89.72 12.79-10.37-2.15-25.66-8.91-25.66-8.91Z" fill="#1E60F6"/><path opacity=".1" d="M130.17 32.62c.38-2.22 5.4-8.56 8.25-9.13 5.15-1 13.54 3 16.69 5.25 3.46 2.47 2.9 7.89.72 12.79-10.37-2.15-25.66-8.91-25.66-8.91Z" fill="#fff"/><path d="M88.22 361.24H80.1V199.88a4 4 0 0 1 4-4 4.05 4.05 0 0 1 4.06 4l.05 161.36Z" fill="#1E60F6"/><path opacity=".7" d="M88.22 361.24H80.1V199.88a4 4 0 0 1 4-4 4.05 4.05 0 0 1 4.06 4l.05 161.36Z" fill="#fff"/><path d="M337.87 195.83a4.06 4.06 0 0 1 4.05 4.05v161.36h-8.11V199.88a4.05 4.05 0 0 1 4.06-4.05Z" fill="#1E60F6"/><path opacity=".7" d="M337.87 195.83a4.06 4.06 0 0 1 4.05 4.05v161.36h-8.11V199.88a4.05 4.05 0 0 1 4.06-4.05Z" fill="#fff"/><path d="M350.03 210.89H72v39.6h278.03v-39.6Z" fill="#1E60F6"/><path opacity=".3" d="M350.03 210.89H72v39.6h278.03v-39.6Z" fill="#fff"/><path d="M350.03 250.49H352v-39.6h-1.97v39.6Z" fill="#1E60F6"/><g opacity=".6" fill="#fff"><path opacity=".6" d="M116.44 250.49H88.22l14.18-39.6h28.23l-14.2 39.6ZM167.24 250.49H139l14.19-39.6h28.22l-14.18 39.6ZM218.03 250.49H189.8l14.19-39.6h28.22l-14.2 39.6ZM268.83 250.49H240.6l14.18-39.6h28.23l-14.2 39.6ZM319.63 250.49H291.4l14.19-39.6h28.22l-14.18 39.6Z"/></g><path opacity=".5" d="M88.22 250.49H80.1v3.88h8.1v-3.88ZM341.92 250.49h-8.11v3.88h8.1v-3.88Z" fill="#1E60F6"/><path d="M256.06 197.8a52.67 52.67 0 0 0-4.52-6.11l.76-.65a53.92 53.92 0 0 1 4.6 6.23l-.84.53ZM246.9 186.89c-4.9-4.48-10.6-8-16.8-10.39l.36-.93a54.24 54.24 0 0 1 17.11 10.58l-.68.74Z" fill="#1E60F6"/><path d="M211.01 277.07a50.8 50.8 0 1 0 0-101.6 50.8 50.8 0 0 0 0 101.6Z" fill="#1E60F6"/><path d="M211 178.4a47.87 47.87 0 1 1 .02 95.74 47.87 47.87 0 0 1-.02-95.74Zm0-1.17a49 49 0 1 0 0 98 49 49 0 0 0 0-98Z" fill="#fff"/><path d="M240.76 217.06h-59.5c-1.06 0-1.93.87-1.93 1.94v14.53c0 1.07.87 1.94 1.94 1.94h59.49c1.07 0 1.94-.87 1.94-1.94V219c0-1.07-.87-1.94-1.94-1.94Z" fill="#fff"/></g><defs><clipPath id="a"><path fill="#fff" d="M0 0h421v373H0z"/></clipPath></defs></svg>