<svg fill="none" xmlns="http://www.w3.org/2000/svg" viewBox="0 0 349 234"><g clip-path="url(#a)"><path d="M33.5 67a33.5 33.5 0 1 0 0-67 33.5 33.5 0 0 0 0 67Z" fill="#1E60F6"/><path d="M286.5 185a33.5 33.5 0 1 0 0-67 33.5 33.5 0 0 0 0 67Z" fill="#1E60F6"/><path d="M334 33a15 15 0 1 0 0-30 15 15 0 0 0 0 30Z" fill="#1E60F6"/><path d="M330 205.91H15v.16h315v-.16Zm-65.64 4.79h-6.6v.16h6.6v-.16Zm31.36 3.15h-25.36v.16h25.36v-.16Zm-104.19-.47h-7.59v.16h7.6v-.16h-.01Zm-11.21 0H139.9v.16h40.4v-.16h.02Zm-77.32-.99H70.5v.16H103v-.16Zm139.97-2.59h-26v.15h26v-.16.01Zm-178.05 2.51h-9.01v.16h9.01v-.16Zm99.39-34.5H42.67a3.6 3.6 0 0 1-3.6-3.6v-171a3.6 3.6 0 0 1 3.6-3.56H164.3a3.6 3.6 0 0 1 3.6 3.6v170.97a3.6 3.6 0 0 1-3.6 3.6l.01-.01ZM42.67-.22a3.44 3.44 0 0 0-3.44 3.44v171a3.44 3.44 0 0 0 3.44 3.44H164.3a3.44 3.44 0 0 0 3.44-3.44v-171a3.45 3.45 0 0 0-3.44-3.44H42.67Zm257.92 178.03H178.93a3.6 3.6 0 0 1-3.6-3.6v-171a3.6 3.6 0 0 1 3.6-3.56H300.6a3.6 3.6 0 0 1 3.58 3.57v171a3.6 3.6 0 0 1-3.58 3.6l-.01-.01ZM178.93-.22a3.44 3.44 0 0 0-3.44 3.44v171a3.45 3.45 0 0 0 3.44 3.44H300.6a3.44 3.44 0 0 0 3.44-3.44v-171a3.45 3.45 0 0 0-3.44-3.44H178.93Z" fill="#E0E0E0"/><path d="M276.51 23.56h-54.6v62.83h54.6V23.56Z" fill="#E0E0E0"/><path d="M282.71 23.56H223.6v62.83h59.11V23.56Z" fill="#F0F0F0"/><path d="M277.76 81.44V28.51h-49.2v52.93h49.2Z" fill="#FAFAFA"/><path d="M255.6 70.12a15.35 15.35 0 1 0-4.87-30.31 15.35 15.35 0 0 0 4.86 30.31h.01Z" fill="#F0F0F0"/><path d="M287.3 150.95h-13.85v54.96h13.86v-54.96h-.01Z" fill="#E0E0E0"/><path d="M284.68 205.91h2.62v-7.48h-5.38l2.76 7.48Z" fill="#EBEBEB"/><path d="M226.6 150.95h-13.85v54.96h13.85v-54.96Z" fill="#E0E0E0"/><path d="M287.3 150.95h-63v50.36h63v-50.36Z" fill="#EBEBEB"/><path d="M285.27 153.19h-58.92v13.8h58.92v-13.8Z" fill="#F5F5F5"/><path d="M226.94 205.91h-2.63v-7.48h5.39l-2.76 7.48Z" fill="#EBEBEB"/><path d="M254.4 160.1a1.39 1.39 0 1 0 2.78 0 1.39 1.39 0 0 0-2.78 0Z" fill="#E0E0E0"/><path d="M285.27 169.23h-58.92v13.81h58.92v-13.81Z" fill="#F5F5F5"/><path d="M254.4 176.14a1.4 1.4 0 0 0 2.22 1.1 1.39 1.39 0 0 0 .45-1.64 1.4 1.4 0 0 0-2.67.54Z" fill="#E0E0E0"/><path d="M285.27 185.27h-58.92v13.81h58.92v-13.81Z" fill="#F5F5F5"/><path d="M254.4 192.18a1.4 1.4 0 1 0 2.77.33 1.4 1.4 0 0 0-2.77-.33Zm-79.46-55.68c3.3 2.69 7.85 7.63 12.03 14.56 2.79 4.63 4.46 9.45 5.2 15.87 0-7.24-.04-15.03-.07-22.37-.84-1.9-2.75-6.25-4.13-9.7-4.58-11.48-6.3-14.3-10.41-24.21-5.5-13.23-11.14-28.9-9.52-27.64 3.28 2.56 15.89 26.15 17.25 29.53 3.7 9 6 18.53 6.8 28.23 0-6.93-.05-13.23-.08-18.13-.09-15.94-.36-21.08-.49-22.67-.51-.81-1.1-1.75-1.46-2.26-2.96-4.28-4.1-7.93-6.9-14.3-3.94-9.05-7.35-25.11-6.35-24.3 4.14 3.37 7.4 10.62 11.7 19.86 4.3 9.25 3.07 14.55 3.92 22.44.18 1.55.32 7.4.41 15.5 1.12-8.64 3.21-14.32 7.02-19.49 4.69-6.35 9.22-10.65 12.55-12.88 3.33-2.24-5.75 13.36-10.08 20.16-3.86 6.06-7.42 11.42-9.45 16.7.1 10.97.16 24.86.16 37.8 1-5.9 2.62-12.24 4.79-17.14 2.6-5.9 6.61-14.96 9.8-18.02.77-.74-3.33 16.86-5.97 21.54-2.63 4.68-4.56 9.09-6.22 11.74-.39.63-1.67 3-2.4 4.37 0 15.8-.09 29.74-.23 34.48h-.68c.05-1.26.05-9.26.04-19.9-1.64-5.76-5.4-12.35-8.5-18.36-3.38-6.5-12.03-24.1-8.73-21.41Z" fill="#E0E0E0"/><path d="M182.6 205.91h19.75l1.5-19.35H181.1l1.5 19.35Z" fill="#EBEBEB"/><path d="M179.64 188.8h25.67l.74-6.52H178.9l.73 6.53.01-.01Z" fill="#EBEBEB"/><path d="M97.84 21.94H62.53v38.78h35.3V21.94h.01Z" fill="#E0E0E0"/><path d="M101.67 21.94H65.19v38.78h36.48V21.94Z" fill="#F0F0F0"/><path d="M98.6 57.66V24.99H68.25v32.67h30.37-.02Z" fill="#FAFAFA"/><path d="M91.25 49.74V32.91H75.61v16.83h15.64Z" fill="#F0F0F0"/><path d="M134.52 45.06h-26.2v28.77h26.2V45.06Z" fill="#E0E0E0"/><path d="M137.36 45.06H110.3v28.77h27.06V45.06Z" fill="#F0F0F0"/><path d="M135.1 71.56V47.33h-22.52v24.23h22.52Z" fill="#FAFAFA"/><path d="m123.83 53.32-6.16 10.67H130l-6.17-10.67Z" fill="#F0F0F0"/><path d="M77.28 131.68H60.07v70.89h17.21v-70.9.01Zm105.68 70.89H63.37v3.34h119.59v-3.34Z" fill="#EBEBEB"/><path d="M77.28 202.57h108.99v-70.9h-109v70.9h.01Z" fill="#F5F5F5"/><path d="M84.04 175.78h95.46v-17.31H84.04V175.78Zm0 20.47h95.46v-17.3H84.04v17.3Z" fill="#EBEBEB"/><path d="M156.44 160.36h-49.33a1.2 1.2 0 0 1-1.2-1.18 1.2 1.2 0 0 1 1.2-1.2h49.33a1.19 1.19 0 0 1 1.18 1.2 1.18 1.18 0 0 1-1.18 1.18Z" fill="#F5F5F5"/><path d="M84.04 155.3h95.46V138H84.04v17.3Z" fill="#EBEBEB"/><path d="M156.44 139.9h-49.33a1.18 1.18 0 0 1-1.19-1.19 1.18 1.18 0 0 1 1.19-1.19h49.33a1.2 1.2 0 0 1 0 2.38Zm0 40.94h-49.33a1.2 1.2 0 0 1-1.2-1.2 1.2 1.2 0 0 1 1.2-1.18h49.33a1.2 1.2 0 0 1 0 2.38Z" fill="#F5F5F5"/><path d="M188.56 125.86H77.28v5.82h111.28v-5.82Z" fill="#EBEBEB"/><path d="M57.66 131.69h19.62v-5.83H57.66v5.83Z" fill="#E0E0E0"/><path d="M172.5 234.36c67.46 0 122.15-3.19 122.15-7.13s-54.69-7.13-122.15-7.13c-67.46 0-122.15 3.2-122.15 7.13 0 3.94 54.69 7.13 122.15 7.13Z" fill="#F5F5F5"/><path d="m200.49 28.91-.63.03.18 4.2.63-.03-.18-4.2Z" fill="#1E60F6"/><path opacity=".3" d="m200.49 28.91-.63.03.18 4.2.63-.03-.18-4.2Z" fill="#000"/><path d="m199.94 16.13-.63.03.39 9.1.63-.02-.39-9.11Z" fill="#1E60F6"/><path opacity=".3" d="m199.94 16.13-.63.03.39 9.1.63-.02-.39-9.11Z" fill="#000"/><path d="m44.19 17.18 5.1 120.73 6.65 32.38L204 164l-6.5-153.3-153.3 6.49-.01-.01Z" fill="#1E60F6"/><path opacity=".3" d="m44.19 17.18 5.1 120.73 6.65 32.38L204 164l-6.5-153.3-153.3 6.49-.01-.01Z" fill="#000"/><path d="m198.68 158.97-.29-6.8-.29-6.8-.28-6.8-.29-6.8-.29-6.8-.29-6.8-.28-6.78-.3-6.8-.28-6.8-.28-6.83-.15-3.4-.14-3.4-.29-6.8-.29-6.8-.28-6.79-.3-6.79-.29-6.8-.29-6.8-.28-6.8-.3-6.8-.28-6.82-.26-6.8a.16.16 0 0 0-.16-.16l-6.8.3-6.8.28-6.8.29-122.45 5.18a.23.23 0 0 0-.11.05.18.18 0 0 0-.04.12l3.02 71.4 2.52 58.92-5.72-14.62 6.63 32.37 2.57-5.23 4.01-.17 6.8-.29 6.78-.28 6.8-.29 6.8-.29 6.79-.28 6.8-.3 6.79-.28 6.8-.3 6.8-.28 6.78-.29 6.8-.29 6.88-.29 6.8-.28 6.79-.29 6.8-.29 6.79-.28 6.79-.29 6.8-.29 6.78-.29 6.8-.28c.04 0 .07-.02.1-.06a.15.15 0 0 0 .06-.05.14.14 0 0 0 .02-.06Zm-143.64-14.2 6.49-.27.27 6.48-6.48.28-.28-6.49Zm-.29-6.8 6.5-.27.26 6.49-6.48.27-.28-6.49Zm-.28-6.8 6.48-.27.28 6.48-6.49.28-.27-6.48v-.01Zm-.32-6.78 6.48-.28.28 6.5-6.5.27-.26-6.49Zm-.3-6.8 6.5-.28.27 6.45-6.48.28-.28-6.45h-.01Zm-.28-6.8 6.49-.27.3 6.46-6.48.28-.31-6.47Zm-.28-6.8 6.48-.28.28 6.5-6.5.26-.26-6.48Zm-.3-6.8 6.49-.27.25 6.46-6.48.28-.25-6.47h-.01Zm-.15-3.56-.13-3.26 6.48-.28.14 3.25.14 3.24-6.49.27-.14-3.22Zm-.42-10.08 6.48-.27.28 6.48-6.49.28-.27-6.49Zm-.29-6.8 6.49-.24.27 6.49-6.49.27-.27-6.51v-.01Zm-.29-6.8 6.49-.27.27 6.48-6.48.28-.28-6.49Zm-.3-6.78 6.49-.28.27 6.49-6.48.27-.28-6.48Zm-.27-6.82 6.48-.27.28 6.48-6.49.28-.27-6.49Zm-.29-6.8 6.48-.27.28 6.48-6.49.28-.27-6.49Zm-.29-6.8 6.52-.26.27 6.48-6.48.28-.31-6.5Zm-.29-6.8 6.49-.28.27 6.5-6.48.27-.28-6.49Zm-.28-6.8 6.46-.26.28 6.48-6.5.28-.24-6.5Zm-.3-6.8 6.49-.27.27 6.5-6.48.27-.27-6.5h-.01Zm142.78.45-6.48.27-.28-6.48 6.49-.28.27 6.5v-.01Zm.29 6.8-6.5.28-.26-6.5 6.48-.26.28 6.48Zm.29 6.8-6.5.28-.26-6.49 6.48-.27.28 6.48Zm.28 6.8-6.48.27-.28-6.48 6.49-.28.27 6.5v-.01Zm.29 6.8-6.48.28-.28-6.5 6.48-.26.28 6.48Zm.29 6.8-6.49.27-.27-6.48 6.48-.28.28 6.5v-.01Zm.29 6.8-6.49.28-.28-6.49 6.5-.27.27 6.48Zm.28 6.8-6.48.28-.28-6.49 6.5-.27.26 6.48Zm.3 6.8-6.49.28-.28-6.49 6.49-.27.27 6.48h.01Zm.28 6.8-6.49.28-.27-6.48 6.49-.28.27 6.49V84Zm.15 3.56.14 3.25-6.49.27-.11-3.23-.14-3.24 6.5-.28.1 3.23Zm.43 10.05-6.49.27-.27-6.48 6.49-.28.27 6.49Zm.29 6.8-6.5.27-.26-6.49 6.51-.26.25 6.48Zm.29 6.8-6.5.27-.26-6.48 6.48-.28.28 6.48v.01Zm.28 6.8-6.48.27-.28-6.49 6.49-.28.27 6.5Zm.29 6.8-6.48.27-.28-6.49 6.49-.27.27 6.49Zm.29 6.8-6.49.27-.27-6.48 6.48-.28.28 6.49Zm.29 6.8-6.49.28-.27-6.5 6.48-.26.28 6.48Zm.28 6.8-6.48.27-.28-6.48 6.5-.28.26 6.5v-.01Zm.3 6.8-6.5.28-.27-6.5 6.48-.26.28 6.48h.01ZM59.63 93.32l-.13-3.24 6.48-.28.14 3.25.14 3.24-6.49.28-.14-3.25Zm128.9-5.47.14 3.25-6.48.27-.14-3.24-.14-3.25 6.48-.27.14 3.24Zm-122.1 5.17-.13-3.24 6.49-.27.13 3.23.14 3.25-6.49.28-.13-3.25h-.01Zm115.3-4.88.13 3.24-6.48.28-.14-3.25-.14-3.24 6.49-.28.14 3.25Zm-108.5 4.6-.13-3.23 6.48-.28.14 3.24.14 3.24-6.49.28-.14-3.25Zm101.7-4.3.14 3.24-6.49.28-.13-3.25-.14-3.24 6.48-.27.14 3.24Zm-94.9 4.02-.13-3.24 6.48-.28.14 3.25.14 3.24-6.48.27-.14-3.24h-.01Zm88.1-3.73.14 3.24-6.49.29-.14-3.24-.13-3.25 6.48-.27.14 3.23Zm-81.27 3.44-.14-3.24 6.5-.27.13 3.23.14 3.25-6.5.28-.13-3.25Zm74.5-3.15.13 3.25-6.48.27-.14-3.24-.14-3.24 6.49-.28.13 3.24h.01Zm-67.72 2.86-.14-3.24 6.48-.27.14 3.24.14 3.24-6.48.28-.14-3.25Zm60.89-2.57.14 3.23-6.5.28-.13-3.24-.12-3.24 6.48-.28.13 3.25Zm-54.1 2.28-.13-3.24 6.49-.27.14 3.24.14 3.25-6.5.27-.13-3.25h-.01Zm47.3-2 .13 3.24-6.48.28-.14-3.24-.14-3.25 6.5-.27.13 3.24Zm-40.49 1.72-.14-3.25 6.48-.27.14 3.24.14 3.25-6.48.27-.14-3.24Zm33.69-1.43.14 3.24-6.5.28-.13-3.24-.13-3.25 6.48-.28.14 3.25Zm-20.1.85-.14-3.24 6.48-.28.14 3.25.14 3.24-6.49.27-.13-3.24Zm-.43-10.04 6.5-.28.26 6.49-6.48.28-.28-6.5v.01Zm-.02 6.53-6.5.27-.26-6.48 6.48-.28.28 6.49Zm13.75 2.98.13 3.24-6.48.28-.14-3.24-.14-3.25 6.5-.28.13 3.25Zm-6.64-3.28-.27-6.5 6.48-.26.28 6.48-6.5.28h.01Zm0 7.12.28 6.5-6.5.26-.26-6.48 6.48-.28Zm.31 0 6.49-.27.27 6.48-6.48.28-.28-6.49Zm6.8-.28 6.5-.28.27 6.49-6.5.27-.27-6.48Zm-.3-7.12-.27-6.48 6.48-.28.28 6.48-6.48.28h-.01Zm-.28-6.8-.28-6.49 6.49-.27.27 6.49-6.48.27Zm-.32 0-6.49.27-.27-6.48 6.48-.28.28 6.5v-.01Zm-6.8.29-6.48.27-.28-6.48 6.49-.28.27 6.49Zm-6.8.29-6.49.27-.27-6.49 6.48-.27.28 6.49Zm-6.8.29-6.49.27-.27-6.49 6.48-.27.28 6.49Zm0 .31.27 6.48-6.49.28-.27-6.48 6.49-.28Zm.74 9.98-.14-3.24 6.49-.28.14 3.24.13 3.25-6.48.28-.14-3.25Zm6.64 3.28.27 6.5-6.48.3-.28-6.48 6.49-.32Zm.28 6.8.28 6.49-6.49.28-.27-6.5 6.48-.26v-.01Zm.32 0 6.49-.26.27 6.48-6.49.27-.27-6.48v-.01Zm6.8-.28 6.48-.27.28 6.48-6.49.28-.27-6.49Zm6.8-.29 6.49-.27.25 6.51-6.48.27-.26-6.5v-.01Zm6.8-.29 6.49-.27.27 6.49-6.49.27-.27-6.49Zm0-.31-.27-6.48 6.48-.28.28 6.49-6.49.27Zm-.58-13.6-.27-6.49 6.49-.27.27 6.49-6.49.27Zm-.29-6.8-.27-6.49 6.49-.27.27 6.48-6.49.28Zm-.28-6.8-.28-6.49 6.49-.28.27 6.5-6.48.27Zm-.31 0-6.5.27-.29-6.47 6.48-.28.3 6.47.01.01Zm-6.8.28-6.5.28-.27-6.5 6.5-.26.26 6.48h.01Zm-6.8.29-6.5.28-.27-6.5 6.49-.27.27 6.49h.01Zm-6.81.29-6.48.27-.28-6.48 6.49-.28.27 6.49Zm-6.8.28-6.49.28-.28-6.44 6.48-.28.3 6.44h-.01Zm-6.8.3-6.48.27-.28-6.5 6.49-.26.27 6.48v.01Zm0 .3.28 6.5-6.49.27-.27-6.49 6.48-.27v-.01Zm.29 6.81.27 6.48-6.48.28-.25-6.47 6.46-.29Zm.58 13.6.27 6.48-6.48.28-.28-6.49 6.49-.27Zm.31 0 6.51-.27.25 6.49-6.49.28-.27-6.5Zm6.77 6.53.28 6.49-6.49.27-.27-6.48 6.48-.28Zm.3 6.8.27 6.49-6.5.26-.28-6.49 6.5-.26h.01Zm.31 0 6.48-.27.28 6.48-6.49.28-.27-6.49Zm6.8-.29 6.48-.27.28 6.49-6.48.27-.28-6.49Zm6.8-.29 6.48-.27.28 6.48-6.49.28-.28-6.49h.01Zm6.8-.29 6.48-.27.28 6.48-6.48.28-.28-6.49Zm6.8-.28 6.49-.28.27 6.5-6.49.26-.27-6.48Zm6.8-.29 6.48-.28.28 6.5-6.49.26-.27-6.48Zm0-.31-.28-6.49 6.5-.27.26 6.48-6.48.28Zm-.29-6.8-.28-6.5 6.5-.27.26 6.49-6.48.28Zm-.56-13.62-.28-6.49 6.49-.27.27 6.49-6.48.27Zm-.29-6.8-.3-6.49 6.49-.28.27 6.5-6.46.27Zm-.34-6.8-.28-6.49 6.5-.27.27 6.48-6.49.28Zm-.29-6.8-.27-6.49 6.48-.27.28 6.49-6.49.27Zm-.31 0-6.49.27-.27-6.48 6.49-.28.27 6.49Zm-6.8.29-6.5.27-.26-6.48 6.48-.28.28 6.49Zm-6.8.29-6.49.27-.28-6.48 6.5-.28.26 6.49h.01Zm-6.8.29-6.5.27-.22-6.47 6.48-.28.24 6.48Zm-6.8.28-6.5.28-.27-6.5 6.5-.26.26 6.48h.01Zm-6.8.29-6.49.28-.27-6.5 6.48-.26.27 6.48h.01Zm-6.8.29-6.5.27-.26-6.48 6.48-.28.28 6.49Zm-6.8.28-6.49.28-.28-6.48 6.5-.28.26 6.48h.01Zm0 .32.27 6.49-6.49.27-.27-6.48 6.48-.28h.01Zm.28 6.8.28 6.48-6.49.28-.27-6.49 6.48-.27Zm.3 6.8.26 6.49-6.48.27-.28-6.48 6.5-.28Zm.57 13.6.27 6.5-6.49.26-.27-6.48 6.49-.28Zm.28 6.8.28 6.49-6.49.28-.27-6.5 6.48-.26v-.01Zm.32 0 6.48-.27.28 6.48-6.48.28-.28-6.48v-.01Zm6.77 6.53.28 6.49-6.49.27-.27-6.49 6.48-.27Zm.3 6.8.26 6.48-6.48.28-.24-6.47 6.45-.29h.01Zm.3 0 6.49-.28.28 6.5-6.5.26-.26-6.48h-.01Zm6.8-.29 6.5-.28.27 6.5-6.49.27-.27-6.49h-.01Zm6.8-.29 6.5-.27.27 6.48-6.49.28-.27-6.49h-.01Zm6.8-.28 6.5-.28.27 6.48-6.49.28-.27-6.48h-.01Zm6.81-.3 6.48-.27.28 6.49-6.49.27-.27-6.48v-.01Zm6.8-.28 6.49-.27.27 6.48-6.48.28-.28-6.5v.01Zm6.8-.3 6.49-.26.27 6.48-6.49.28-.27-6.5Zm6.8-.28 6.49-.27.27 6.49-6.48.27-.28-6.49Zm0-.31-.28-6.49 6.5-.27.26 6.48-6.48.28Zm-.29-6.8-.27-6.49 6.48-.28.28 6.5-6.49.27Zm-.29-6.8-.27-6.5 6.48-.26.28 6.48-6.49.28Zm-.57-13.6-.28-6.5 6.49-.26.27 6.47-6.48.29Zm-.3-6.8-.26-6.5 6.48-.27.28 6.5-6.5.26v.01Zm-.28-6.8-.27-6.5 6.48-.27.28 6.49-6.49.27v.01Zm-.28-6.81-.26-6.47 6.5-.28.26 6.5-6.5.25Zm-.3-6.8-.27-6.48 6.49-.28.27 6.49-6.48.27h-.01Zm-.31 0-6.48.28-.28-6.49 6.48-.27.28 6.48Zm-6.8.3-6.49.26-.27-6.48 6.48-.28.28 6.5Zm-6.8.28-6.49.27-.27-6.48 6.49-.28.27 6.5v-.01Zm-6.8.29-6.49.27-.27-6.49 6.48-.27.28 6.49Zm-6.8.29-6.49.27-.27-6.49 6.48-.27.28 6.49Zm-6.8.29-6.49.27-.27-6.49 6.48-.27.28 6.49Zm-6.8.29-6.49.27-.28-6.49 6.5-.27.27 6.48v.01Zm-6.8.28-6.5.28-.26-6.5 6.48-.26.28 6.48Zm-6.8.29-6.49.28-.28-6.5 6.5-.26.26 6.48h.01Zm-6.8.29-6.45.25-.27-6.48 6.48-.28.24 6.5v.01Zm0 .31.27 6.49-6.49.27-.27-6.49 6.49-.27Zm.28 6.8.28 6.49-6.49.27-.27-6.48 6.48-.28Zm.29 6.8.28 6.49-6.49.27-.27-6.48 6.48-.27v-.01Zm.29 6.8.28 6.5-6.5.26-.26-6.48 6.48-.28Zm.58 13.6.27 6.49-6.48.27-.28-6.48 6.49-.28Zm.28 6.8.28 6.5-6.48.27-.28-6.5 6.48-.27Zm.3 6.8.27 6.49-6.5.28-.26-6.49 6.48-.27.01-.01Zm.3 0 6.5-.27.27 6.49-6.49.27-.27-6.48-.01-.01Zm6.82 6.52.27 6.48-6.49.28-.27-6.49 6.49-.27Zm.29 6.8.27 6.49-6.49.27-.27-6.48 6.49-.28Zm.31 0 6.49-.28.27 6.49-6.48.27-.28-6.48Zm6.8-.3 6.49-.26.27 6.48-6.48.28-.27-6.5h-.01Zm6.8-.28 6.49-.27.27 6.48-6.48.28-.28-6.49Zm6.8-.28 6.49-.28.28 6.49-6.5.27-.27-6.49v.01Zm6.8-.3 6.49-.27.28 6.49-6.49.27-.27-6.48-.01-.01Zm6.8-.28 6.5-.28.26 6.49-6.48.27-.28-6.48Zm6.8-.29 6.49-.28.28 6.49-6.5.27-.26-6.48h-.01Zm6.8-.29 6.5-.28.26 6.5-6.48.27-.28-6.49Zm6.8-.29 6.5-.27.27 6.48-6.5.28-.26-6.49h-.01Zm6.8-.29 6.5-.27.27 6.48-6.49.28-.27-6.49h-.01Zm0-.31-.26-6.49 6.48-.27.28 6.49-6.5.27Zm-.28-6.8-.27-6.49 6.48-.27.28 6.48-6.5.28h.01Zm-.29-6.8-.28-6.49 6.49-.27.28 6.49-6.49.27Zm-.29-6.8-.3-6.5 6.49-.28.27 6.49-6.46.29Zm-.58-13.6-.27-6.49 6.48-.27.28 6.48-6.49.28Zm-.28-6.8-.28-6.5 6.5-.26.26 6.48-6.48.28Zm-.29-6.8-.28-6.49 6.5-.28.26 6.5-6.48.26v.01Zm-.29-6.8-.27-6.5 6.48-.26.28 6.48-6.49.28Zm-.28-6.8-.28-6.49 6.48-.28.28 6.5-6.48.26v.01Zm-.3-6.8-.27-6.5 6.49-.26.27 6.48-6.48.27-.01.01Zm-.3 0-6.5.27-.27-6.49 6.49-.27.27 6.48.01.01Zm-6.81.28-6.49.28-.27-6.49 6.49-.27.27 6.48Zm-6.8.29-6.49.28-.27-6.49 6.48-.27.28 6.48Zm-6.8.29-6.49.28-.27-6.5 6.49-.26.27 6.48Zm-6.8.29-6.5.27-.26-6.48 6.48-.28.28 6.49Zm-6.8.29-6.49.27-.28-6.48 6.5-.28.26 6.49h.01Zm-6.81.3-6.48.28-.28-6.5 6.48-.26.28 6.48Zm-6.8.29-6.49.28-.27-6.5 6.48-.26.28 6.48Zm-6.8.29-6.48.27-.29-6.52 6.5-.28.27 6.53Zm-6.8.29-6.49.27-.27-6.48 6.48-.28.28 6.49Zm-6.8.28-6.49.28-.27-6.49 6.49-.27.27 6.48Zm-6.8.3-6.49.27-.27-6.49 6.48-.27.28 6.48v.01Zm0 .3.27 6.49-6.48.28-.28-6.48 6.49-.28v-.01Zm.29 6.8.27 6.5-6.48.27-.27-6.5 6.48-.26v-.01Zm.28 6.8.28 6.5-6.49.27-.27-6.49 6.48-.27v-.01Zm.3 6.8.27 6.5-6.49.27-.27-6.49 6.48-.27.01-.01Zm.28 6.81.27 6.48-6.48.28-.28-6.49 6.5-.27h-.01Zm.58 13.6.27 6.49-6.49.27-.27-6.49 6.49-.27Zm.29 6.8.27 6.49-6.49.27-.27-6.48 6.49-.28Zm.28 6.8.28 6.49-6.49.28-.27-6.5 6.48-.26v-.01Zm.29 6.8.28 6.5-6.49.26-.27-6.48 6.48-.28Zm.31 0 6.5-.28.26 6.5-6.48.27-.28-6.49Zm6.78 6.53.27 6.48-6.48.28-.28-6.49 6.5-.27h-.01Zm.29 6.8.27 6.49-6.49.27-.27-6.49 6.49-.27Zm.31 0 6.49-.27.27 6.48-6.48.28-.28-6.5v.01Zm6.8-.3 6.49-.26.28 6.48-6.5.28-.27-6.5Zm6.8-.28 6.5-.27.26 6.49-6.48.27-.28-6.49Zm6.8-.29 6.49-.27.28 6.49-6.5.27-.26-6.49h-.01Zm6.8-.29 6.5-.27.26 6.49-6.48.27-.28-6.49Zm6.8-.28 6.5-.28.27 6.49-6.5.27-.26-6.48h-.01Zm6.8-.29 6.5-.28.27 6.5-6.49.26-.27-6.48h-.01Zm6.81-.29 6.48-.28.28 6.5-6.49.27-.27-6.49Zm6.8-.29 6.49-.27.27 6.48-6.49.28-.27-6.49Zm6.8-.28 6.48-.28.28 6.48-6.49.28-.27-6.48Zm6.8-.3 6.49-.32.28 6.49-6.49.27-.28-6.43v-.01Zm6.8-.32 6.5-.27.26 6.48-6.48.28-.28-6.49Zm0-.31-.27-6.49 6.48-.27.28 6.48-6.49.28Zm-.28-6.8-.28-6.5 6.49-.26.27 6.48-6.48.28Zm-.29-6.8-.28-6.49 6.5-.28.26 6.5-6.48.26v.01Zm-.29-6.8-.28-6.5 6.5-.26.27 6.48-6.49.28Zm-.29-6.8-.28-6.51 6.48-.28.28 6.5-6.48.28v.01Zm-.57-13.61-.28-6.48 6.49-.28.27 6.49-6.48.27Zm-.3-6.8-.26-6.49 6.48-.27.28 6.48-6.5.28Zm-.28-6.8-.28-6.5 6.48-.27.28 6.5-6.48.27Zm-.28-6.8-.28-6.49 6.5-.28.26 6.49-6.48.27v.01Zm-.29-6.8-.28-6.5 6.5-.26.26 6.48-6.48.28Zm-.29-6.8-.27-6.49 6.48-.28.28 6.5-6.49.26v.01Zm-.3-6.78-.28-6.49 6.48-.27.28 6.48-6.48.28Zm-.32 0-6.49.27-.27-6.48 6.49-.28.27 6.49Zm-6.8.29-6.48.27-.28-6.48 6.48-.28.28 6.49Zm-6.8.28-6.49.28-.27-6.49 6.48-.27.28 6.48Zm-6.8.3-6.49.27-.27-6.49 6.49-.27.27 6.48v.01Zm-6.8.28-6.49.27-.27-6.46 6.48-.28.28 6.47Zm-6.8.29-6.49.27-.27-6.48 6.49-.28.27 6.49Zm-6.8.29-6.5.27-.26-6.49 6.48-.27.28 6.49Zm-6.8.29-6.49.27-.28-6.49 6.5-.27.26 6.49h.01Zm-6.8.29-6.5.27-.27-6.5 6.48-.28.29 6.5v.01Zm-6.8.28-6.49.28-.28-6.5 6.5-.26.26 6.48h.01Zm-6.8.29-6.5.28-.27-6.5 6.49-.26.27 6.48h.01Zm-6.8.29-6.5.27-.27-6.48 6.49-.28.27 6.49h.01Zm-6.8.29-6.49.27-.28-6.48 6.49-.28.27 6.49h.01Zm-6.8.28-6.5.28-.29-6.5 6.49-.27.3 6.5v-.01Zm0 .32.27 6.49-6.49.27-.27-6.49 6.49-.27Zm.28 6.8.28 6.48-6.47.3-.25-6.52 6.44-.26Zm.3 6.78.28 6.49-6.49.27-.27-6.48 6.48-.28Zm.3 6.8.26 6.49-6.48.27-.28-6.48 6.5-.28Zm.28 6.8.27 6.5-6.48.26-.28-6.5 6.5-.26h-.01Zm.28 6.8.28 6.49-6.49.28-.27-6.5 6.48-.26v-.01Zm.59 13.62.27 6.49-6.48.28-.28-6.5 6.49-.27Zm.28 6.8.28 6.49-6.48.27-.28-6.48 6.48-.28Zm.3 6.8.27 6.5-6.52.25-.25-6.49 6.5-.26Zm.28 6.8.28 6.49-6.49.28-.28-6.5 6.5-.26-.01-.01Zm.3 6.8.26 6.5-6.46.25-.28-6.48 6.47-.27h.01Zm.3 0 6.5-.27.27 6.49-6.5.27-.26-6.49h-.01Zm6.78 6.53.27 6.48-6.48.28-.28-6.48 6.5-.28h-.01Zm.3 6.8.26 6.49-6.48.27-.28-6.49 6.49-.27h.01Zm.3 0 6.49-.27.28 6.48-6.5.28-.26-6.5-.01.01Zm6.8-.28 6.5-.28.26 6.48-6.48.28-.28-6.49v.01Zm6.8-.3 6.49-.27.28 6.49-6.5.27-.26-6.48-.01-.01Zm6.8-.28 6.49-.28.27 6.49-6.48.27-.27-6.48h-.01Zm6.8-.3 6.5-.27.27 6.49-6.49.27-.28-6.49Zm6.8-.31 6.48-.28.28 6.5-6.48.26-.28-6.48Zm6.8-.29 6.49-.28.27 6.5-6.48.26-.28-6.48Zm6.8-.29 6.48-.27.28 6.48-6.49.28-.27-6.49Zm6.8-.28 6.49-.28.27 6.48-6.48.28-.28-6.48Zm6.8-.3 6.49-.27.27 6.49-6.48.27-.28-6.48v-.01Zm6.82-.29 6.49-.28.27 6.5-6.48.27-.28-6.49Zm6.8-.29 6.49-.27.27 6.48-6.49.28-.27-6.49Zm6.8-.28 6.5-.28.26 6.48-6.48.28-.28-6.48Zm6.8-.3 6.49-.27.28 6.49-6.5.27-.26-6.48-.01-.01Zm0-.3-.27-6.5 6.49-.27.28 6.49-6.5.27v.01Zm-.28-6.81-.28-6.48 6.5-.28.26 6.49-6.48.27Zm-.29-6.8-.27-6.49 6.48-.27.28 6.48-6.49.28Zm-.29-6.8-.27-6.48 6.48-.28.28 6.49-6.49.27Zm-.28-6.8-.28-6.48 6.49-.28.27 6.48-6.48.28Zm-.29-6.8-.28-6.49 6.5-.27.26 6.48-6.48.28Zm-.58-13.6-.3-6.47 6.47-.27.28 6.48-6.45.26Zm-.28-6.8-.28-6.49 6.48-.27.26 6.46-6.46.3Zm-.3-6.8-.27-6.49 6.49-.27.27 6.48-6.48.28h-.01Zm-.28-6.8-.27-6.49 6.48-.28.28 6.5-6.5.26.01.01Zm-.3-6.8-.26-6.5 6.48-.26.28 6.48-6.5.28Zm-.28-6.8-.31-6.49 6.49-.28.27 6.5-6.45.26v.01Zm-.29-6.8-.28-6.5 6.49-.26.27 6.48-6.48.28Zm-.29-6.8-.27-6.5 6.49-.27.27 6.49-6.49.27v.01Zm-.31 0-6.48.26-.28-6.48 6.49-.28.27 6.5Zm-6.8.27-6.49.28-.27-6.49 6.48-.27.28 6.48Zm-6.8.3-6.49.27-.27-6.49 6.49-.27.27 6.48v.01Zm-6.8.28-6.49.28-.27-6.49 6.48-.27.28 6.48Zm-6.8.3-6.5.29-.28-6.48 6.5-.28.28 6.46v.01Zm-6.8.28-6.5.27-.26-6.48 6.48-.28.28 6.49Zm-6.8.29-6.49.27-.28-6.48 6.5-.28.27 6.5v-.01Zm-6.8.29-6.49.27-.27-6.48 6.48-.28.28 6.49Zm-6.8.28-6.49.28-.27-6.48 6.48-.28.28 6.48Zm-6.8.29-6.49.28-.28-6.5 6.5-.26.27 6.48Zm-6.8.29-6.5.27-.26-6.48 6.48-.28.28 6.49Zm-6.8.29-6.49.27-.29-6.46 6.49-.28.28 6.47H98Zm-6.8.28-6.5.28-.26-6.49 6.48-.27.28 6.48Zm-6.8.3-6.5.27-.27-6.49 6.49-.27.27 6.48.01.01Zm-6.8.28-6.5.27-.27-6.48 6.49-.28.27 6.5.01-.01Zm-6.81.3-6.52.27-.28-6.48 6.5-.28.3 6.48v.01Zm0 .3.27 6.51-6.48.28-.28-6.5 6.49-.28v-.01Zm.27 6.82.28 6.49-6.5.27L64.6 49l6.48-.28-.02-.01Zm.29 6.8.28 6.5-6.5.26-.27-6.48 6.49-.28Zm.29 6.8.27 6.49-6.48.28-.28-6.5 6.49-.26v-.01Zm.28 6.8.28 6.5-6.49.27-.28-6.48 6.5-.29h-.01Zm.3 6.8.27 6.5-6.49.27-.27-6.5 6.48-.26.01-.01Zm.28 6.8.27 6.5-6.48.27-.27-6.49 6.48-.27v-.01Zm.58 13.6.27 6.5-6.49.27-.27-6.49 6.49-.27v-.01Zm.29 6.81.27 6.48-6.49.28-.27-6.49 6.49-.27Zm.28 6.78.27 6.49-6.48.27-.28-6.48 6.49-.28Zm.28 6.8.28 6.5-6.48.28-.28-6.49 6.48-.29Zm.28 6.82.28 6.48-6.5.28-.26-6.48 6.48-.28Zm.29 6.8.28 6.49-6.5.28-.26-6.5 6.48-.27Zm.32 0 6.48-.27.27 6.48-6.48.28-.27-6.5v.01Zm6.77 6.53.27 6.48-6.48.27-.28-6.48 6.49-.28v.01Zm.29 6.8.27 6.48-6.48.28-.27-6.49 6.48-.27Zm.31 0 6.49-.28.27 6.48-6.49.28-.27-6.48Zm6.8-.3 6.49-.27.27 6.5-6.48.26-.28-6.48v-.01Zm6.8-.28 6.49-.28.27 6.5-6.48.27-.28-6.49Zm6.8-.29 6.5-.27.27 6.45-6.48.28-.29-6.46Zm6.8-.28 6.49-.28.28 6.48-6.5.28-.26-6.48h-.01Zm6.8-.3 6.5-.27.26 6.49-6.48.27-.28-6.48v-.01Zm6.8-.28 6.49-.27.28 6.48-6.5.28-.26-6.5-.01.01Zm6.8-.3 6.5-.26.26 6.48-6.48.28-.28-6.5Zm6.8-.28 6.5-.27.27 6.49-6.49.27-.27-6.49h-.01Zm6.8-.29 6.49-.27.28 6.48-6.49.28-.27-6.49h-.01Zm6.8-.29 6.5-.27.27 6.49-6.49.27-.27-6.49h-.01Zm6.8-.28 6.5-.28.27 6.49-6.48.27-.28-6.48h-.01Zm6.8-.29 6.5-.28.27 6.5-6.49.26-.27-6.48h-.01Zm6.81-.29 6.48-.28.28 6.5-6.49.27-.27-6.49Zm6.8-.29 6.49-.27.27 6.48-6.48.28-.28-6.49Zm6.8-.28 6.48-.28.28 6.48-6.5.28-.26-6.48Zm0-.32-.28-6.49 6.5-.27.26 6.49-6.48.27Zm-.29-6.8-.27-6.48 6.48-.28.28 6.49-6.49.27Zm-.29-6.8-.27-6.49 6.48-.27.28 6.48-6.49.28Zm-.29-6.8-.27-6.49 6.48-.27.28 6.49-6.49.27Zm-.28-6.82-.28-6.49 6.5-.27.26 6.48-6.48.28Zm-.3-6.8-.27-6.49 6.5-.27.26 6.49-6.48.27h-.01Zm-.28-6.8-.27-6.5 6.48-.26.28 6.48-6.49.28Zm-.57-13.6-.28-6.49 6.49-.27.27 6.48-6.48.28Zm-.3-6.8-.29-6.5 6.49-.27.28 6.48-6.47.28-.01.01Zm-.29-6.81-.27-6.48 6.48-.28.28 6.48-6.49.28Zm-.28-6.8-.28-6.49 6.48-.27.28 6.48-6.48.28Zm-.3-6.8-.27-6.49 6.49-.27.27 6.49-6.48.27h-.01Zm-.28-6.8-.27-6.49 6.48-.27.28 6.48-6.5.28h.01Zm-.3-6.8-.26-6.49 6.48-.27.28 6.48-6.5.28Zm-.28-6.8-.27-6.5 6.49-.26.27 6.48-6.49.28Zm-.29-6.8-.27-6.49 6.49-.28.27 6.5-6.49.26v.01Zm-.31 0-6.48.27-.3-6.47 6.48-.28.3 6.47v.01Zm-6.8.28-6.49.28-.28-6.49 6.5-.27.27 6.48Zm-6.8.3-6.49.26-.27-6.48 6.48-.28.28 6.5Zm-6.8.28-6.49.27-.26-6.46 6.51-.28.24 6.47Zm-6.8.29-6.49.27-.27-6.49 6.49-.27.27 6.49Zm-6.8.29-6.5.27-.26-6.49 6.48-.27.28 6.49Zm-6.8.29-6.49.27-.28-6.49 6.5-.27.26 6.49h.01Zm-6.8.29-6.5.27-.26-6.49 6.48-.27.28 6.49Zm-6.8.28-6.49.28-.28-6.5 6.5-.26.26 6.48h.01Zm-6.8.29-6.5.28-.27-6.5 6.49-.26.28 6.48Zm-6.8.29-6.5.27-.27-6.48 6.49-.28.27 6.49h.01Zm-6.82.3-6.49.27-.27-6.48 6.48-.28.28 6.49Zm-6.8.28-6.49.28-.27-6.49 6.49-.27.27 6.48Zm-6.8.3-6.48.27-.28-6.49 6.5-.27.26 6.48v.01Zm-6.8.28-6.49.28-.26-6.5 6.5-.28.25 6.5Zm-6.8.29-6.49.28-.27-6.5L77 28l.26 6.5-.01.01Zm-6.8.29-6.49.28-.27-6.5 6.48-.26.28 6.48Zm-6.8.29-6.45.27-.28-6.48 6.5-.28.23 6.49Zm0 .31.3 6.46-6.49.28-.26-6.47 6.45-.27Zm.29 6.8.27 6.49-6.49.27-.24-6.47 6.45-.29h.01Zm.28 6.8.28 6.49-6.49.27-.27-6.48 6.48-.28Zm.29 6.8.28 6.5-6.49.26-.27-6.48 6.48-.28Zm.29 6.8.28 6.49-6.5.28-.26-6.5 6.48-.26v-.01Zm.29 6.8.3 6.48-6.49.27-.28-6.48 6.47-.27Zm.29 6.8.27 6.49-6.48.28-.25-6.46 6.46-.3v-.01Zm.28 6.8.28 6.49-6.45.25-.28-6.48 6.45-.26Zm.58 13.6.27 6.49-6.48.28-.28-6.49 6.5-.27-.01-.01Zm.3 6.8.26 6.5-6.45.26-.28-6.48 6.46-.28h.01Zm.27 6.8.28 6.5-6.49.27-.25-6.49 6.46-.27v-.01Zm.3 6.8.27 6.5-6.49.27-.27-6.49 6.48-.27.01-.01Zm.28 6.81.27 6.48-6.48.28-.28-6.49 6.5-.27h-.01Zm.29 6.8.27 6.49-6.48.27-.28-6.49 6.49-.27Zm.29 6.8.3 6.51-6.48.28-.27-6.5 6.45-.29Zm.31 0 6.5-.28.26 6.49-6.48.28-.28-6.49Zm6.8 6.51.28 6.49-6.48.27-.28-6.48 6.49-.28h-.01Zm.3 6.8.27 6.49-6.49.27-.27-6.48 6.49-.28Zm.31 0 6.49-.27.27 6.49-6.48.27-.28-6.49Zm6.8-.29 6.49-.27.27 6.49-6.48.27-.28-6.49Zm6.8-.28 6.5-.28.26 6.49-6.48.27-.28-6.48Zm6.8-.29 6.47-.27.28 6.48-6.5.28-.24-6.49h-.01Zm6.8-.29 6.49-.28.27 6.5-6.48.26-.28-6.48Zm6.8-.29 6.5-.28.27 6.5-6.5.27-.27-6.49Zm6.8-.29 6.49-.27.28 6.48-6.49.28-.27-6.49h-.01Zm6.8-.28 6.5-.28.26 6.48-6.48.28-.28-6.48Zm6.8-.3 6.49-.27.28 6.49-6.5.27-.26-6.48-.01-.01Zm6.8-.28 6.5-.27.26 6.48-6.48.28-.28-6.5v.01Zm6.8-.3 6.5-.26.27 6.48-6.49.28-.27-6.5h-.01Zm6.8-.28 6.5-.27.27 6.49-6.49.27-.27-6.48-.01-.01Zm6.81-.29 6.48-.27.28 6.49-6.49.27-.27-6.49Zm6.8-.28 6.49-.27.27 6.48-6.48.28-.28-6.5v.01Zm6.8-.29 6.49-.28.27 6.49-6.49.28-.27-6.49Zm6.8-.29 6.49-.28.27 6.5-6.48.26-.28-6.48Zm6.8-.29 6.49-.28.27 6.5-6.49.26-.27-6.48Zm1.26-123-6.49.28-.27-6.49 6.49-.27.27 6.48Zm-6.8.3-6.47.26-.28-6.5 6.5-.26.25 6.5Zm-6.8.28-6.49.27-.27-6.48 6.49-.28.27 6.5v-.01Zm-6.8.28-6.46.25-.27-6.46 6.49-.28.24 6.5v-.01Zm-6.8.3-6.49.27-.27-6.49 6.48-.27.28 6.48v.01Zm-6.8.28-6.49.27-.27-6.48 6.49-.28.27 6.5v-.01Zm-6.78.3-6.48.27-.27-6.48 6.48-.28.28 6.49h-.01Zm-6.8.28-6.48.28-.28-6.49 6.49-.27.28 6.48h-.01Zm-6.8.3-6.48.27-.29-6.52 6.48-.27.3 6.51-.01.01Zm-6.77.26-6.49.28-.27-6.49 6.46-.3.3 6.51Zm-6.8.3-6.49.27-.27-6.49 6.48-.27.28 6.48v.01Zm-6.8.28-6.49.27-.27-6.48 6.46-.25.3 6.46Zm-6.8.29-6.49.27-.28-6.48 6.5-.28.27 6.49Zm-6.8.29-6.5.27-.26-6.48 6.48-.28.28 6.49Zm-6.8.28-6.49.28-.28-6.48 6.5-.28.26 6.48h.01Zm-6.8.29-6.5.28-.26-6.47 6.48-.27.28 6.46Zm-6.8.29L70.5 28l-.27-6.46 6.51-.32.27 6.49Zm-6.83.29-6.5.27-.26-6.45 6.48-.28.28 6.46Zm-6.8.28-6.49.28-.27-6.44v-.05l6.49-.27.26 6.48h.01Zm-1.58 116.2 6.49-.27.28 6.49-6.5.27-.27-6.48v-.01Zm6.78 6.53.27 6.49-6.48.28-.28-6.49 6.49-.28Zm.28 6.8.31 6.48-6.48.28-.28-6.48 6.45-.28Zm.32 0 6.49-.28.27 6.5-6.49.26-.27-6.48Zm6.8-.29 6.48-.27.28 6.48-6.49.28-.27-6.49Zm6.8-.29 6.49-.27.27 6.48-6.48.28-.28-6.49Zm6.8-.28 6.48-.28.28 6.49-6.49.27-.27-6.48Zm6.8-.3 6.49-.27.27 6.5-6.48.26-.28-6.48v-.01Zm6.8-.28 6.49-.27.27 6.48-6.48.28-.28-6.5v.01Zm6.8-.28 6.5-.28.26 6.48-6.48.28-.28-6.48Zm6.8-.3 6.49-.27.28 6.49-6.5.27-.26-6.48-.01-.01Zm6.8-.28 6.5-.28.26 6.49-6.48.28-.28-6.5v.01Zm6.8-.3 6.49-.27.28 6.49-6.5.28-.26-6.5h-.01Zm6.8-.28 6.49-.28.28 6.49-6.49.28-.28-6.49Zm6.8-.29 6.5-.27.27 6.48-6.49.28-.28-6.49Zm6.8-.29 6.49-.27.28 6.48-6.49.28-.27-6.49h-.01Zm6.8-.29 6.5-.27.26 6.49-6.48.27-.28-6.49Zm6.8-.28 6.5-.28.27 6.5-6.5.26-.26-6.48h-.01Zm6.8-.29 6.5-.28.27 6.5-6.49.26-.27-6.48h-.01Zm6.81-.29 6.48-.27.28 6.48-6.49.28-.27-6.49Zm6.8-.29 6.49-.27.27 6.48-6.49.28-.27-6.49Zm6.8-.28 6.49-.28.27 6.49-6.49.27-.27-6.48Zm-136.28-1.06 6.48-.27.26 6.48-4.9.2-1.78-4.54-.06-1.87Zm1.98 6.73 4.8-.2.27 6.48-3.69.16.63-1.26-2.01-5.18Z" fill="#1E60F6"/><path opacity=".1" d="m198.68 158.97-.29-6.8-.29-6.8-.28-6.8-.29-6.8-.29-6.8-.29-6.8-.28-6.78-.3-6.8-.28-6.8-.28-6.83-.15-3.4-.14-3.4-.29-6.8-.29-6.8-.28-6.79-.3-6.79-.29-6.8-.29-6.8-.28-6.8-.3-6.8-.28-6.82-.26-6.8a.16.16 0 0 0-.16-.16l-6.8.3-6.8.28-6.8.29-122.45 5.18a.23.23 0 0 0-.11.05.18.18 0 0 0-.04.12l3.02 71.4 2.52 58.92-5.72-14.62 6.63 32.37 2.57-5.23 4.01-.17 6.8-.29 6.78-.28 6.8-.29 6.8-.29 6.79-.28 6.8-.3 6.79-.28 6.8-.3 6.8-.28 6.78-.29 6.8-.29 6.88-.29 6.8-.28 6.79-.29 6.8-.29 6.79-.28 6.79-.29 6.8-.29 6.78-.29 6.8-.28c.04 0 .07-.02.1-.06a.15.15 0 0 0 .06-.05.14.14 0 0 0 .02-.06Zm-143.64-14.2 6.49-.27.27 6.48-6.48.28-.28-6.49Zm-.29-6.8 6.5-.27.26 6.49-6.48.27-.28-6.49Zm-.28-6.8 6.48-.27.28 6.48-6.49.28-.27-6.48v-.01Zm-.32-6.78 6.48-.28.28 6.5-6.5.27-.26-6.49Zm-.3-6.8 6.5-.28.27 6.45-6.48.28-.28-6.45h-.01Zm-.28-6.8 6.49-.27.3 6.46-6.48.28-.31-6.47Zm-.28-6.8 6.48-.28.28 6.5-6.5.26-.26-6.48Zm-.3-6.8 6.49-.27.25 6.46-6.48.28-.25-6.47h-.01Zm-.15-3.56-.13-3.26 6.48-.28.14 3.25.14 3.24-6.49.27-.14-3.22Zm-.42-10.08 6.48-.27.28 6.48-6.49.28-.27-6.49Zm-.29-6.8 6.49-.24.27 6.49-6.49.27-.27-6.51v-.01Zm-.29-6.8 6.49-.27.27 6.48-6.48.28-.28-6.49Zm-.3-6.78 6.49-.28.27 6.49-6.48.27-.28-6.48Zm-.27-6.82 6.48-.27.28 6.48-6.49.28-.27-6.49Zm-.29-6.8 6.48-.27.28 6.48-6.49.28-.27-6.49Zm-.29-6.8 6.52-.26.27 6.48-6.48.28-.31-6.5Zm-.29-6.8 6.49-.28.27 6.5-6.48.27-.28-6.49Zm-.28-6.8 6.46-.26.28 6.48-6.5.28-.24-6.5Zm-.3-6.8 6.49-.27.27 6.5-6.48.27-.27-6.5h-.01Zm142.78.45-6.48.27-.28-6.48 6.49-.28.27 6.5v-.01Zm.29 6.8-6.5.28-.26-6.5 6.48-.26.28 6.48Zm.29 6.8-6.5.28-.26-6.49 6.48-.27.28 6.48Zm.28 6.8-6.48.27-.28-6.48 6.49-.28.27 6.5v-.01Zm.29 6.8-6.48.28-.28-6.5 6.48-.26.28 6.48Zm.29 6.8-6.49.27-.27-6.48 6.48-.28.28 6.5v-.01Zm.29 6.8-6.49.28-.28-6.49 6.5-.27.27 6.48Zm.28 6.8-6.48.28-.28-6.49 6.5-.27.26 6.48Zm.3 6.8-6.49.28-.28-6.49 6.49-.27.27 6.48h.01Zm.28 6.8-6.49.28-.27-6.48 6.49-.28.27 6.49V84Zm.15 3.56.14 3.25-6.49.27-.11-3.23-.14-3.24 6.5-.28.1 3.23Zm.43 10.05-6.49.27-.27-6.48 6.49-.28.27 6.49Zm.29 6.8-6.5.27-.26-6.49 6.51-.26.25 6.48Zm.29 6.8-6.5.27-.26-6.48 6.48-.28.28 6.48v.01Zm.28 6.8-6.48.27-.28-6.49 6.49-.28.27 6.5Zm.29 6.8-6.48.27-.28-6.49 6.49-.27.27 6.49Zm.29 6.8-6.49.27-.27-6.48 6.48-.28.28 6.49Zm.29 6.8-6.49.28-.27-6.5 6.48-.26.28 6.48Zm.28 6.8-6.48.27-.28-6.48 6.5-.28.26 6.5v-.01Zm.3 6.8-6.5.28-.27-6.5 6.48-.26.28 6.48h.01ZM59.63 93.32l-.13-3.24 6.48-.28.14 3.25.14 3.24-6.49.28-.14-3.25Zm128.9-5.47.14 3.25-6.48.27-.14-3.24-.14-3.25 6.48-.27.14 3.24Zm-122.1 5.17-.13-3.24 6.49-.27.13 3.23.14 3.25-6.49.28-.13-3.25h-.01Zm115.3-4.88.13 3.24-6.48.28-.14-3.25-.14-3.24 6.49-.28.14 3.25Zm-108.5 4.6-.13-3.23 6.48-.28.14 3.24.14 3.24-6.49.28-.14-3.25Zm101.7-4.3.14 3.24-6.49.28-.13-3.25-.14-3.24 6.48-.27.14 3.24Zm-94.9 4.02-.13-3.24 6.48-.28.14 3.25.14 3.24-6.48.27-.14-3.24h-.01Zm88.1-3.73.14 3.24-6.49.29-.14-3.24-.13-3.25 6.48-.27.14 3.23Zm-81.27 3.44-.14-3.24 6.5-.27.13 3.23.14 3.25-6.5.28-.13-3.25Zm74.5-3.15.13 3.25-6.48.27-.14-3.24-.14-3.24 6.49-.28.13 3.24h.01Zm-67.72 2.86-.14-3.24 6.48-.27.14 3.24.14 3.24-6.48.28-.14-3.25Zm60.89-2.57.14 3.23-6.5.28-.13-3.24-.12-3.24 6.48-.28.13 3.25Zm-54.1 2.28-.13-3.24 6.49-.27.14 3.24.14 3.25-6.5.27-.13-3.25h-.01Zm47.3-2 .13 3.24-6.48.28-.14-3.24-.14-3.25 6.5-.27.13 3.24Zm-40.49 1.72-.14-3.25 6.48-.27.14 3.24.14 3.25-6.48.27-.14-3.24Zm33.69-1.43.14 3.24-6.5.28-.13-3.24-.13-3.25 6.48-.28.14 3.25Zm-20.1.85-.14-3.24 6.48-.28.14 3.25.14 3.24-6.49.27-.13-3.24Zm-.43-10.04 6.5-.28.26 6.49-6.48.28-.28-6.5v.01Zm-.02 6.53-6.5.27-.26-6.48 6.48-.28.28 6.49Zm13.75 2.98.13 3.24-6.48.28-.14-3.24-.14-3.25 6.5-.28.13 3.25Zm-6.64-3.28-.27-6.5 6.48-.26.28 6.48-6.5.28h.01Zm0 7.12.28 6.5-6.5.26-.26-6.48 6.48-.28Zm.31 0 6.49-.27.27 6.48-6.48.28-.28-6.49Zm6.8-.28 6.5-.28.27 6.49-6.5.27-.27-6.48Zm-.3-7.12-.27-6.48 6.48-.28.28 6.48-6.48.28h-.01Zm-.28-6.8-.28-6.49 6.49-.27.27 6.49-6.48.27Zm-.32 0-6.49.27-.27-6.48 6.48-.28.28 6.5v-.01Zm-6.8.29-6.48.27-.28-6.48 6.49-.28.27 6.49Zm-6.8.29-6.49.27-.27-6.49 6.48-.27.28 6.49Zm-6.8.29-6.49.27-.27-6.49 6.48-.27.28 6.49Zm0 .31.27 6.48-6.49.28-.27-6.48 6.49-.28Zm.74 9.98-.14-3.24 6.49-.28.14 3.24.13 3.25-6.48.28-.14-3.25Zm6.64 3.28.27 6.5-6.48.3-.28-6.48 6.49-.32Zm.28 6.8.28 6.49-6.49.28-.27-6.5 6.48-.26v-.01Zm.32 0 6.49-.26.27 6.48-6.49.27-.27-6.48v-.01Zm6.8-.28 6.48-.27.28 6.48-6.49.28-.27-6.49Zm6.8-.29 6.49-.27.25 6.51-6.48.27-.26-6.5v-.01Zm6.8-.29 6.49-.27.27 6.49-6.49.27-.27-6.49Zm0-.31-.27-6.48 6.48-.28.28 6.49-6.49.27Zm-.58-13.6-.27-6.49 6.49-.27.27 6.49-6.49.27Zm-.29-6.8-.27-6.49 6.49-.27.27 6.48-6.49.28Zm-.28-6.8-.28-6.49 6.49-.28.27 6.5-6.48.27Zm-.31 0-6.5.27-.29-6.47 6.48-.28.3 6.47.01.01Zm-6.8.28-6.5.28-.27-6.5 6.5-.26.26 6.48h.01Zm-6.8.29-6.5.28-.27-6.5 6.49-.27.27 6.49h.01Zm-6.81.29-6.48.27-.28-6.48 6.49-.28.27 6.49Zm-6.8.28-6.49.28-.28-6.44 6.48-.28.3 6.44h-.01Zm-6.8.3-6.48.27-.28-6.5 6.49-.26.27 6.48v.01Zm0 .3.28 6.5-6.49.27-.27-6.49 6.48-.27v-.01Zm.29 6.81.27 6.48-6.48.28-.25-6.47 6.46-.29Zm.58 13.6.27 6.48-6.48.28-.28-6.49 6.49-.27Zm.31 0 6.51-.27.25 6.49-6.49.28-.27-6.5Zm6.77 6.53.28 6.49-6.49.27-.27-6.48 6.48-.28Zm.3 6.8.27 6.49-6.5.26-.28-6.49 6.5-.26h.01Zm.31 0 6.48-.27.28 6.48-6.49.28-.27-6.49Zm6.8-.29 6.48-.27.28 6.49-6.48.27-.28-6.49Zm6.8-.29 6.48-.27.28 6.48-6.49.28-.28-6.49h.01Zm6.8-.29 6.48-.27.28 6.48-6.48.28-.28-6.49Zm6.8-.28 6.49-.28.27 6.5-6.49.26-.27-6.48Zm6.8-.29 6.48-.28.28 6.5-6.49.26-.27-6.48Zm0-.31-.28-6.49 6.5-.27.26 6.48-6.48.28Zm-.29-6.8-.28-6.5 6.5-.27.26 6.49-6.48.28Zm-.56-13.62-.28-6.49 6.49-.27.27 6.49-6.48.27Zm-.29-6.8-.3-6.49 6.49-.28.27 6.5-6.46.27Zm-.34-6.8-.28-6.49 6.5-.27.27 6.48-6.49.28Zm-.29-6.8-.27-6.49 6.48-.27.28 6.49-6.49.27Zm-.31 0-6.49.27-.27-6.48 6.49-.28.27 6.49Zm-6.8.29-6.5.27-.26-6.48 6.48-.28.28 6.49Zm-6.8.29-6.49.27-.28-6.48 6.5-.28.26 6.49h.01Zm-6.8.29-6.5.27-.22-6.47 6.48-.28.24 6.48Zm-6.8.28-6.5.28-.27-6.5 6.5-.26.26 6.48h.01Zm-6.8.29-6.49.28-.27-6.5 6.48-.26.27 6.48h.01Zm-6.8.29-6.5.27-.26-6.48 6.48-.28.28 6.49Zm-6.8.28-6.49.28-.28-6.48 6.5-.28.26 6.48h.01Zm0 .32.27 6.49-6.49.27-.27-6.48 6.48-.28h.01Zm.28 6.8.28 6.48-6.49.28-.27-6.49 6.48-.27Zm.3 6.8.26 6.49-6.48.27-.28-6.48 6.5-.28Zm.57 13.6.27 6.5-6.49.26-.27-6.48 6.49-.28Zm.28 6.8.28 6.49-6.49.28-.27-6.5 6.48-.26v-.01Zm.32 0 6.48-.27.28 6.48-6.48.28-.28-6.48v-.01Zm6.77 6.53.28 6.49-6.49.27-.27-6.49 6.48-.27Zm.3 6.8.26 6.48-6.48.28-.24-6.47 6.45-.29h.01Zm.3 0 6.49-.28.28 6.5-6.5.26-.26-6.48h-.01Zm6.8-.29 6.5-.28.27 6.5-6.49.27-.27-6.49h-.01Zm6.8-.29 6.5-.27.27 6.48-6.49.28-.27-6.49h-.01Zm6.8-.28 6.5-.28.27 6.48-6.49.28-.27-6.48h-.01Zm6.81-.3 6.48-.27.28 6.49-6.49.27-.27-6.48v-.01Zm6.8-.28 6.49-.27.27 6.48-6.48.28-.28-6.5v.01Zm6.8-.3 6.49-.26.27 6.48-6.49.28-.27-6.5Zm6.8-.28 6.49-.27.27 6.49-6.48.27-.28-6.49Zm0-.31-.28-6.49 6.5-.27.26 6.48-6.48.28Zm-.29-6.8-.27-6.49 6.48-.28.28 6.5-6.49.27Zm-.29-6.8-.27-6.5 6.48-.26.28 6.48-6.49.28Zm-.57-13.6-.28-6.5 6.49-.26.27 6.47-6.48.29Zm-.3-6.8-.26-6.5 6.48-.27.28 6.5-6.5.26v.01Zm-.28-6.8-.27-6.5 6.48-.27.28 6.49-6.49.27v.01Zm-.28-6.81-.26-6.47 6.5-.28.26 6.5-6.5.25Zm-.3-6.8-.27-6.48 6.49-.28.27 6.49-6.48.27h-.01Zm-.31 0-6.48.28-.28-6.49 6.48-.27.28 6.48Zm-6.8.3-6.49.26-.27-6.48 6.48-.28.28 6.5Zm-6.8.28-6.49.27-.27-6.48 6.49-.28.27 6.5v-.01Zm-6.8.29-6.49.27-.27-6.49 6.48-.27.28 6.49Zm-6.8.29-6.49.27-.27-6.49 6.48-.27.28 6.49Zm-6.8.29-6.49.27-.27-6.49 6.48-.27.28 6.49Zm-6.8.29-6.49.27-.28-6.49 6.5-.27.27 6.48v.01Zm-6.8.28-6.5.28-.26-6.5 6.48-.26.28 6.48Zm-6.8.29-6.49.28-.28-6.5 6.5-.26.26 6.48h.01Zm-6.8.29-6.45.25-.27-6.48 6.48-.28.24 6.5v.01Zm0 .31.27 6.49-6.49.27-.27-6.49 6.49-.27Zm.28 6.8.28 6.49-6.49.27-.27-6.48 6.48-.28Zm.29 6.8.28 6.49-6.49.27-.27-6.48 6.48-.27v-.01Zm.29 6.8.28 6.5-6.5.26-.26-6.48 6.48-.28Zm.58 13.6.27 6.49-6.48.27-.28-6.48 6.49-.28Zm.28 6.8.28 6.5-6.48.27-.28-6.5 6.48-.27Zm.3 6.8.27 6.49-6.5.28-.26-6.49 6.48-.27.01-.01Zm.3 0 6.5-.27.27 6.49-6.49.27-.27-6.48-.01-.01Zm6.82 6.52.27 6.48-6.49.28-.27-6.49 6.49-.27Zm.29 6.8.27 6.49-6.49.27-.27-6.48 6.49-.28Zm.31 0 6.49-.28.27 6.49-6.48.27-.28-6.48Zm6.8-.3 6.49-.26.27 6.48-6.48.28-.27-6.5h-.01Zm6.8-.28 6.49-.27.27 6.48-6.48.28-.28-6.49Zm6.8-.28 6.49-.28.28 6.49-6.5.27-.27-6.49v.01Zm6.8-.3 6.49-.27.28 6.49-6.49.27-.27-6.48-.01-.01Zm6.8-.28 6.5-.28.26 6.49-6.48.27-.28-6.48Zm6.8-.29 6.49-.28.28 6.49-6.5.27-.26-6.48h-.01Zm6.8-.29 6.5-.28.26 6.5-6.48.27-.28-6.49Zm6.8-.29 6.5-.27.27 6.48-6.5.28-.26-6.49h-.01Zm6.8-.29 6.5-.27.27 6.48-6.49.28-.27-6.49h-.01Zm0-.31-.26-6.49 6.48-.27.28 6.49-6.5.27Zm-.28-6.8-.27-6.49 6.48-.27.28 6.48-6.5.28h.01Zm-.29-6.8-.28-6.49 6.49-.27.28 6.49-6.49.27Zm-.29-6.8-.3-6.5 6.49-.28.27 6.49-6.46.29Zm-.58-13.6-.27-6.49 6.48-.27.28 6.48-6.49.28Zm-.28-6.8-.28-6.5 6.5-.26.26 6.48-6.48.28Zm-.29-6.8-.28-6.49 6.5-.28.26 6.5-6.48.26v.01Zm-.29-6.8-.27-6.5 6.48-.26.28 6.48-6.49.28Zm-.28-6.8-.28-6.49 6.48-.28.28 6.5-6.48.26v.01Zm-.3-6.8-.27-6.5 6.49-.26.27 6.48-6.48.27-.01.01Zm-.3 0-6.5.27-.27-6.49 6.49-.27.27 6.48.01.01Zm-6.81.28-6.49.28-.27-6.49 6.49-.27.27 6.48Zm-6.8.29-6.49.28-.27-6.49 6.48-.27.28 6.48Zm-6.8.29-6.49.28-.27-6.5 6.49-.26.27 6.48Zm-6.8.29-6.5.27-.26-6.48 6.48-.28.28 6.49Zm-6.8.29-6.49.27-.28-6.48 6.5-.28.26 6.49h.01Zm-6.81.3-6.48.28-.28-6.5 6.48-.26.28 6.48Zm-6.8.29-6.49.28-.27-6.5 6.48-.26.28 6.48Zm-6.8.29-6.48.27-.29-6.52 6.5-.28.27 6.53Zm-6.8.29-6.49.27-.27-6.48 6.48-.28.28 6.49Zm-6.8.28-6.49.28-.27-6.49 6.49-.27.27 6.48Zm-6.8.3-6.49.27-.27-6.49 6.48-.27.28 6.48v.01Zm0 .3.27 6.49-6.48.28-.28-6.48 6.49-.28v-.01Zm.29 6.8.27 6.5-6.48.27-.27-6.5 6.48-.26v-.01Zm.28 6.8.28 6.5-6.49.27-.27-6.49 6.48-.27v-.01Zm.3 6.8.27 6.5-6.49.27-.27-6.49 6.48-.27.01-.01Zm.28 6.81.27 6.48-6.48.28-.28-6.49 6.5-.27h-.01Zm.58 13.6.27 6.49-6.49.27-.27-6.49 6.49-.27Zm.29 6.8.27 6.49-6.49.27-.27-6.48 6.49-.28Zm.28 6.8.28 6.49-6.49.28-.27-6.5 6.48-.26v-.01Zm.29 6.8.28 6.5-6.49.26-.27-6.48 6.48-.28Zm.31 0 6.5-.28.26 6.5-6.48.27-.28-6.49Zm6.78 6.53.27 6.48-6.48.28-.28-6.49 6.5-.27h-.01Zm.29 6.8.27 6.49-6.49.27-.27-6.49 6.49-.27Zm.31 0 6.49-.27.27 6.48-6.48.28-.28-6.5v.01Zm6.8-.3 6.49-.26.28 6.48-6.5.28-.27-6.5Zm6.8-.28 6.5-.27.26 6.49-6.48.27-.28-6.49Zm6.8-.29 6.49-.27.28 6.49-6.5.27-.26-6.49h-.01Zm6.8-.29 6.5-.27.26 6.49-6.48.27-.28-6.49Zm6.8-.28 6.5-.28.27 6.49-6.5.27-.26-6.48h-.01Zm6.8-.29 6.5-.28.27 6.5-6.49.26-.27-6.48h-.01Zm6.81-.29 6.48-.28.28 6.5-6.49.27-.27-6.49Zm6.8-.29 6.49-.27.27 6.48-6.49.28-.27-6.49Zm6.8-.28 6.48-.28.28 6.48-6.49.28-.27-6.48Zm6.8-.3 6.49-.32.28 6.49-6.49.27-.28-6.43v-.01Zm6.8-.32 6.5-.27.26 6.48-6.48.28-.28-6.49Zm0-.31-.27-6.49 6.48-.27.28 6.48-6.49.28Zm-.28-6.8-.28-6.5 6.49-.26.27 6.48-6.48.28Zm-.29-6.8-.28-6.49 6.5-.28.26 6.5-6.48.26v.01Zm-.29-6.8-.28-6.5 6.5-.26.27 6.48-6.49.28Zm-.29-6.8-.28-6.51 6.48-.28.28 6.5-6.48.28v.01Zm-.57-13.61-.28-6.48 6.49-.28.27 6.49-6.48.27Zm-.3-6.8-.26-6.49 6.48-.27.28 6.48-6.5.28Zm-.28-6.8-.28-6.5 6.48-.27.28 6.5-6.48.27Zm-.28-6.8-.28-6.49 6.5-.28.26 6.49-6.48.27v.01Zm-.29-6.8-.28-6.5 6.5-.26.26 6.48-6.48.28Zm-.29-6.8-.27-6.49 6.48-.28.28 6.5-6.49.26v.01Zm-.3-6.78-.28-6.49 6.48-.27.28 6.48-6.48.28Zm-.32 0-6.49.27-.27-6.48 6.49-.28.27 6.49Zm-6.8.29-6.48.27-.28-6.48 6.48-.28.28 6.49Zm-6.8.28-6.49.28-.27-6.49 6.48-.27.28 6.48Zm-6.8.3-6.49.27-.27-6.49 6.49-.27.27 6.48v.01Zm-6.8.28-6.49.27-.27-6.46 6.48-.28.28 6.47Zm-6.8.29-6.49.27-.27-6.48 6.49-.28.27 6.49Zm-6.8.29-6.5.27-.26-6.49 6.48-.27.28 6.49Zm-6.8.29-6.49.27-.28-6.49 6.5-.27.26 6.49h.01Zm-6.8.29-6.5.27-.27-6.5 6.48-.28.29 6.5v.01Zm-6.8.28-6.49.28-.28-6.5 6.5-.26.26 6.48h.01Zm-6.8.29-6.5.28-.27-6.5 6.49-.26.27 6.48h.01Zm-6.8.29-6.5.27-.27-6.48 6.49-.28.27 6.49h.01Zm-6.8.29-6.49.27-.28-6.48 6.49-.28.27 6.49h.01Zm-6.8.28-6.5.28-.29-6.5 6.49-.27.3 6.5v-.01Zm0 .32.27 6.49-6.49.27-.27-6.49 6.49-.27Zm.28 6.8.28 6.48-6.47.3-.25-6.52 6.44-.26Zm.3 6.78.28 6.49-6.49.27-.27-6.48 6.48-.28Zm.3 6.8.26 6.49-6.48.27-.28-6.48 6.5-.28Zm.28 6.8.27 6.5-6.48.26-.28-6.5 6.5-.26h-.01Zm.28 6.8.28 6.49-6.49.28-.27-6.5 6.48-.26v-.01Zm.59 13.62.27 6.49-6.48.28-.28-6.5 6.49-.27Zm.28 6.8.28 6.49-6.48.27-.28-6.48 6.48-.28Zm.3 6.8.27 6.5-6.52.25-.25-6.49 6.5-.26Zm.28 6.8.28 6.49-6.49.28-.28-6.5 6.5-.26-.01-.01Zm.3 6.8.26 6.5-6.46.25-.28-6.48 6.47-.27h.01Zm.3 0 6.5-.27.27 6.49-6.5.27-.26-6.49h-.01Zm6.78 6.53.27 6.48-6.48.28-.28-6.48 6.5-.28h-.01Zm.3 6.8.26 6.49-6.48.27-.28-6.49 6.49-.27h.01Zm.3 0 6.49-.27.28 6.48-6.5.28-.26-6.5-.01.01Zm6.8-.28 6.5-.28.26 6.48-6.48.28-.28-6.49v.01Zm6.8-.3 6.49-.27.28 6.49-6.5.27-.26-6.48-.01-.01Zm6.8-.28 6.49-.28.27 6.49-6.48.27-.27-6.48h-.01Zm6.8-.3 6.5-.27.27 6.49-6.49.27-.28-6.49Zm6.8-.31 6.48-.28.28 6.5-6.48.26-.28-6.48Zm6.8-.29 6.49-.28.27 6.5-6.48.26-.28-6.48Zm6.8-.29 6.48-.27.28 6.48-6.49.28-.27-6.49Zm6.8-.28 6.49-.28.27 6.48-6.48.28-.28-6.48Zm6.8-.3 6.49-.27.27 6.49-6.48.27-.28-6.48v-.01Zm6.82-.29 6.49-.28.27 6.5-6.48.27-.28-6.49Zm6.8-.29 6.49-.27.27 6.48-6.49.28-.27-6.49Zm6.8-.28 6.5-.28.26 6.48-6.48.28-.28-6.48Zm6.8-.3 6.49-.27.28 6.49-6.5.27-.26-6.48-.01-.01Zm0-.3-.27-6.5 6.49-.27.28 6.49-6.5.27v.01Zm-.28-6.81-.28-6.48 6.5-.28.26 6.49-6.48.27Zm-.29-6.8-.27-6.49 6.48-.27.28 6.48-6.49.28Zm-.29-6.8-.27-6.48 6.48-.28.28 6.49-6.49.27Zm-.28-6.8-.28-6.48 6.49-.28.27 6.48-6.48.28Zm-.29-6.8-.28-6.49 6.5-.27.26 6.48-6.48.28Zm-.58-13.6-.3-6.47 6.47-.27.28 6.48-6.45.26Zm-.28-6.8-.28-6.49 6.48-.27.26 6.46-6.46.3Zm-.3-6.8-.27-6.49 6.49-.27.27 6.48-6.48.28h-.01Zm-.28-6.8-.27-6.49 6.48-.28.28 6.5-6.5.26.01.01Zm-.3-6.8-.26-6.5 6.48-.26.28 6.48-6.5.28Zm-.28-6.8-.31-6.49 6.49-.28.27 6.5-6.45.26v.01Zm-.29-6.8-.28-6.5 6.49-.26.27 6.48-6.48.28Zm-.29-6.8-.27-6.5 6.49-.27.27 6.49-6.49.27v.01Zm-.31 0-6.48.26-.28-6.48 6.49-.28.27 6.5Zm-6.8.27-6.49.28-.27-6.49 6.48-.27.28 6.48Zm-6.8.3-6.49.27-.27-6.49 6.49-.27.27 6.48v.01Zm-6.8.28-6.49.28-.27-6.49 6.48-.27.28 6.48Zm-6.8.3-6.5.29-.28-6.48 6.5-.28.28 6.46v.01Zm-6.8.28-6.5.27-.26-6.48 6.48-.28.28 6.49Zm-6.8.29-6.49.27-.28-6.48 6.5-.28.27 6.5v-.01Zm-6.8.29-6.49.27-.27-6.48 6.48-.28.28 6.49Zm-6.8.28-6.49.28-.27-6.48 6.48-.28.28 6.48Zm-6.8.29-6.49.28-.28-6.5 6.5-.26.27 6.48Zm-6.8.29-6.5.27-.26-6.48 6.48-.28.28 6.49Zm-6.8.29-6.49.27-.29-6.46 6.49-.28.28 6.47H98Zm-6.8.28-6.5.28-.26-6.49 6.48-.27.28 6.48Zm-6.8.3-6.5.27-.27-6.49 6.49-.27.27 6.48.01.01Zm-6.8.28-6.5.27-.27-6.48 6.49-.28.27 6.5.01-.01Zm-6.81.3-6.52.27-.28-6.48 6.5-.28.3 6.48v.01Zm0 .3.27 6.51-6.48.28-.28-6.5 6.49-.28v-.01Zm.27 6.82.28 6.49-6.5.27L64.6 49l6.48-.28-.02-.01Zm.29 6.8.28 6.5-6.5.26-.27-6.48 6.49-.28Zm.29 6.8.27 6.49-6.48.28-.28-6.5 6.49-.26v-.01Zm.28 6.8.28 6.5-6.49.27-.28-6.48 6.5-.29h-.01Zm.3 6.8.27 6.5-6.49.27-.27-6.5 6.48-.26.01-.01Zm.28 6.8.27 6.5-6.48.27-.27-6.49 6.48-.27v-.01Zm.58 13.6.27 6.5-6.49.27-.27-6.49 6.49-.27v-.01Zm.29 6.81.27 6.48-6.49.28-.27-6.49 6.49-.27Zm.28 6.78.27 6.49-6.48.27-.28-6.48 6.49-.28Zm.28 6.8.28 6.5-6.48.28-.28-6.49 6.48-.29Zm.28 6.82.28 6.48-6.5.28-.26-6.48 6.48-.28Zm.29 6.8.28 6.49-6.5.28-.26-6.5 6.48-.27Zm.32 0 6.48-.27.27 6.48-6.48.28-.27-6.5v.01Zm6.77 6.53.27 6.48-6.48.27-.28-6.48 6.49-.28v.01Zm.29 6.8.27 6.48-6.48.28-.27-6.49 6.48-.27Zm.31 0 6.49-.28.27 6.48-6.49.28-.27-6.48Zm6.8-.3 6.49-.27.27 6.5-6.48.26-.28-6.48v-.01Zm6.8-.28 6.49-.28.27 6.5-6.48.27-.28-6.49Zm6.8-.29 6.5-.27.27 6.45-6.48.28-.29-6.46Zm6.8-.28 6.49-.28.28 6.48-6.5.28-.26-6.48h-.01Zm6.8-.3 6.5-.27.26 6.49-6.48.27-.28-6.48v-.01Zm6.8-.28 6.49-.27.28 6.48-6.5.28-.26-6.5-.01.01Zm6.8-.3 6.5-.26.26 6.48-6.48.28-.28-6.5Zm6.8-.28 6.5-.27.27 6.49-6.49.27-.27-6.49h-.01Zm6.8-.29 6.49-.27.28 6.48-6.49.28-.27-6.49h-.01Zm6.8-.29 6.5-.27.27 6.49-6.49.27-.27-6.49h-.01Zm6.8-.28 6.5-.28.27 6.49-6.48.27-.28-6.48h-.01Zm6.8-.29 6.5-.28.27 6.5-6.49.26-.27-6.48h-.01Zm6.81-.29 6.48-.28.28 6.5-6.49.27-.27-6.49Zm6.8-.29 6.49-.27.27 6.48-6.48.28-.28-6.49Zm6.8-.28 6.48-.28.28 6.48-6.5.28-.26-6.48Zm0-.32-.28-6.49 6.5-.27.26 6.49-6.48.27Zm-.29-6.8-.27-6.48 6.48-.28.28 6.49-6.49.27Zm-.29-6.8-.27-6.49 6.48-.27.28 6.48-6.49.28Zm-.29-6.8-.27-6.49 6.48-.27.28 6.49-6.49.27Zm-.28-6.82-.28-6.49 6.5-.27.26 6.48-6.48.28Zm-.3-6.8-.27-6.49 6.5-.27.26 6.49-6.48.27h-.01Zm-.28-6.8-.27-6.5 6.48-.26.28 6.48-6.49.28Zm-.57-13.6-.28-6.49 6.49-.27.27 6.48-6.48.28Zm-.3-6.8-.29-6.5 6.49-.27.28 6.48-6.47.28-.01.01Zm-.29-6.81-.27-6.48 6.48-.28.28 6.48-6.49.28Zm-.28-6.8-.28-6.49 6.48-.27.28 6.48-6.48.28Zm-.3-6.8-.27-6.49 6.49-.27.27 6.49-6.48.27h-.01Zm-.28-6.8-.27-6.49 6.48-.27.28 6.48-6.5.28h.01Zm-.3-6.8-.26-6.49 6.48-.27.28 6.48-6.5.28Zm-.28-6.8-.27-6.5 6.49-.26.27 6.48-6.49.28Zm-.29-6.8-.27-6.49 6.49-.28.27 6.5-6.49.26v.01Zm-.31 0-6.48.27-.3-6.47 6.48-.28.3 6.47v.01Zm-6.8.28-6.49.28-.28-6.49 6.5-.27.27 6.48Zm-6.8.3-6.49.26-.27-6.48 6.48-.28.28 6.5Zm-6.8.28-6.49.27-.26-6.46 6.51-.28.24 6.47Zm-6.8.29-6.49.27-.27-6.49 6.49-.27.27 6.49Zm-6.8.29-6.5.27-.26-6.49 6.48-.27.28 6.49Zm-6.8.29-6.49.27-.28-6.49 6.5-.27.26 6.49h.01Zm-6.8.29-6.5.27-.26-6.49 6.48-.27.28 6.49Zm-6.8.28-6.49.28-.28-6.5 6.5-.26.26 6.48h.01Zm-6.8.29-6.5.28-.27-6.5 6.49-.26.28 6.48Zm-6.8.29-6.5.27-.27-6.48 6.49-.28.27 6.49h.01Zm-6.82.3-6.49.27-.27-6.48 6.48-.28.28 6.49Zm-6.8.28-6.49.28-.27-6.49 6.49-.27.27 6.48Zm-6.8.3-6.48.27-.28-6.49 6.5-.27.26 6.48v.01Zm-6.8.28-6.49.28-.26-6.5 6.5-.28.25 6.5Zm-6.8.29-6.49.28-.27-6.5L77 28l.26 6.5-.01.01Zm-6.8.29-6.49.28-.27-6.5 6.48-.26.28 6.48Zm-6.8.29-6.45.27-.28-6.48 6.5-.28.23 6.49Zm0 .31.3 6.46-6.49.28-.26-6.47 6.45-.27Zm.29 6.8.27 6.49-6.49.27-.24-6.47 6.45-.29h.01Zm.28 6.8.28 6.49-6.49.27-.27-6.48 6.48-.28Zm.29 6.8.28 6.5-6.49.26-.27-6.48 6.48-.28Zm.29 6.8.28 6.49-6.5.28-.26-6.5 6.48-.26v-.01Zm.29 6.8.3 6.48-6.49.27-.28-6.48 6.47-.27Zm.29 6.8.27 6.49-6.48.28-.25-6.46 6.46-.3v-.01Zm.28 6.8.28 6.49-6.45.25-.28-6.48 6.45-.26Zm.58 13.6.27 6.49-6.48.28-.28-6.49 6.5-.27-.01-.01Zm.3 6.8.26 6.5-6.45.26-.28-6.48 6.46-.28h.01Zm.27 6.8.28 6.5-6.49.27-.25-6.49 6.46-.27v-.01Zm.3 6.8.27 6.5-6.49.27-.27-6.49 6.48-.27.01-.01Zm.28 6.81.27 6.48-6.48.28-.28-6.49 6.5-.27h-.01Zm.29 6.8.27 6.49-6.48.27-.28-6.49 6.49-.27Zm.29 6.8.3 6.51-6.48.28-.27-6.5 6.45-.29Zm.31 0 6.5-.28.26 6.49-6.48.28-.28-6.49Zm6.8 6.51.28 6.49-6.48.27-.28-6.48 6.49-.28h-.01Zm.3 6.8.27 6.49-6.49.27-.27-6.48 6.49-.28Zm.31 0 6.49-.27.27 6.49-6.48.27-.28-6.49Zm6.8-.29 6.49-.27.27 6.49-6.48.27-.28-6.49Zm6.8-.28 6.5-.28.26 6.49-6.48.27-.28-6.48Zm6.8-.29 6.47-.27.28 6.48-6.5.28-.24-6.49h-.01Zm6.8-.29 6.49-.28.27 6.5-6.48.26-.28-6.48Zm6.8-.29 6.5-.28.27 6.5-6.5.27-.27-6.49Zm6.8-.29 6.49-.27.28 6.48-6.49.28-.27-6.49h-.01Zm6.8-.28 6.5-.28.26 6.48-6.48.28-.28-6.48Zm6.8-.3 6.49-.27.28 6.49-6.5.27-.26-6.48-.01-.01Zm6.8-.28 6.5-.27.26 6.48-6.48.28-.28-6.5v.01Zm6.8-.3 6.5-.26.27 6.48-6.49.28-.27-6.5h-.01Zm6.8-.28 6.5-.27.27 6.49-6.49.27-.27-6.48-.01-.01Zm6.81-.29 6.48-.27.28 6.49-6.49.27-.27-6.49Zm6.8-.28 6.49-.27.27 6.48-6.48.28-.28-6.5v.01Zm6.8-.29 6.49-.28.27 6.49-6.49.28-.27-6.49Zm6.8-.29 6.49-.28.27 6.5-6.48.26-.28-6.48Zm6.8-.29 6.49-.28.27 6.5-6.49.26-.27-6.48Zm1.26-123-6.49.28-.27-6.49 6.49-.27.27 6.48Zm-6.8.3-6.47.26-.28-6.5 6.5-.26.25 6.5Zm-6.8.28-6.49.27-.27-6.48 6.49-.28.27 6.5v-.01Zm-6.8.28-6.46.25-.27-6.46 6.49-.28.24 6.5v-.01Zm-6.8.3-6.49.27-.27-6.49 6.48-.27.28 6.48v.01Zm-6.8.28-6.49.27-.27-6.48 6.49-.28.27 6.5v-.01Zm-6.78.3-6.48.27-.27-6.48 6.48-.28.28 6.49h-.01Zm-6.8.28-6.48.28-.28-6.49 6.49-.27.28 6.48h-.01Zm-6.8.3-6.48.27-.29-6.52 6.48-.27.3 6.51-.01.01Zm-6.77.26-6.49.28-.27-6.49 6.46-.3.3 6.51Zm-6.8.3-6.49.27-.27-6.49 6.48-.27.28 6.48v.01Zm-6.8.28-6.49.27-.27-6.48 6.46-.25.3 6.46Zm-6.8.29-6.49.27-.28-6.48 6.5-.28.27 6.49Zm-6.8.29-6.5.27-.26-6.48 6.48-.28.28 6.49Zm-6.8.28-6.49.28-.28-6.48 6.5-.28.26 6.48h.01Zm-6.8.29-6.5.28-.26-6.47 6.48-.27.28 6.46Zm-6.8.29L70.5 28l-.27-6.46 6.51-.32.27 6.49Zm-6.83.29-6.5.27-.26-6.45 6.48-.28.28 6.46Zm-6.8.28-6.49.28-.27-6.44v-.05l6.49-.27.26 6.48h.01Zm-1.58 116.2 6.49-.27.28 6.49-6.5.27-.27-6.48v-.01Zm6.78 6.53.27 6.49-6.48.28-.28-6.49 6.49-.28Zm.28 6.8.31 6.48-6.48.28-.28-6.48 6.45-.28Zm.32 0 6.49-.28.27 6.5-6.49.26-.27-6.48Zm6.8-.29 6.48-.27.28 6.48-6.49.28-.27-6.49Zm6.8-.29 6.49-.27.27 6.48-6.48.28-.28-6.49Zm6.8-.28 6.48-.28.28 6.49-6.49.27-.27-6.48Zm6.8-.3 6.49-.27.27 6.5-6.48.26-.28-6.48v-.01Zm6.8-.28 6.49-.27.27 6.48-6.48.28-.28-6.5v.01Zm6.8-.28 6.5-.28.26 6.48-6.48.28-.28-6.48Zm6.8-.3 6.49-.27.28 6.49-6.5.27-.26-6.48-.01-.01Zm6.8-.28 6.5-.28.26 6.49-6.48.28-.28-6.5v.01Zm6.8-.3 6.49-.27.28 6.49-6.5.28-.26-6.5h-.01Zm6.8-.28 6.49-.28.28 6.49-6.49.28-.28-6.49Zm6.8-.29 6.5-.27.27 6.48-6.49.28-.28-6.49Zm6.8-.29 6.49-.27.28 6.48-6.49.28-.27-6.49h-.01Zm6.8-.29 6.5-.27.26 6.49-6.48.27-.28-6.49Zm6.8-.28 6.5-.28.27 6.5-6.5.26-.26-6.48h-.01Zm6.8-.29 6.5-.28.27 6.5-6.49.26-.27-6.48h-.01Zm6.81-.29 6.48-.27.28 6.48-6.49.28-.27-6.49Zm6.8-.29 6.49-.27.27 6.48-6.49.28-.27-6.49Zm6.8-.28 6.49-.28.27 6.49-6.49.27-.27-6.48Zm-136.28-1.06 6.48-.27.26 6.48-4.9.2-1.78-4.54-.06-1.87Zm1.98 6.73 4.8-.2.27 6.48-3.69.16.63-1.26-2.01-5.18Z" fill="#FAFAFA"/><path d="M115.17 50.72c-1.96 0-3.92-.05-5.88-.12a.15.15 0 0 1-.05-.05.14.14 0 0 1-.01-.06l.01-.07c2.84-9.8 6.6-19.3 11.23-28.4a.9.9 0 0 1 1.54-.06c5.4 8.68 9.95 17.86 13.6 27.41v.07a.15.15 0 0 1-.06.05c-6.76.82-13.57 1.23-20.38 1.23Zm-5.6-.4c8.56.28 17.13-.1 25.64-1.1a162.53 162.53 0 0 0-13.49-27.09.58.58 0 0 0-.5-.27.6.6 0 0 0-.5.32 163.08 163.08 0 0 0-11.17 28.13h.03l-.01.01Z" fill="#FAFAFA"/><path d="M104.36 110.33a.15.15 0 0 1-.1-.04.15.15 0 0 1-.06-.1c-.63-5-1-9.45-1.17-13.52-.63-14.68 1.45-30.24 6.15-46.25a.17.17 0 0 1 .06-.08.17.17 0 0 1 .1-.03c8.7.3 17.4-.07 26.04-1.1l.1.01c.03.02.05.05.06.08 3.56 9.1 6.26 18.5 8.05 28.1l-.02.05a.14.14 0 0 1-.04.05.15.15 0 0 1-.06.02c-.05 0-.1 0-.13-.03a.16.16 0 0 1-.06-.1 154.61 154.61 0 0 0-7.95-27.86 166.23 166.23 0 0 1-25.85 1.1c-4.67 15.93-6.73 31.42-6.1 46.03.17 4.1.55 8.5 1.17 13.5a.16.16 0 0 1-.14.17h-.05Zm41.05-1.74a.16.16 0 0 1-.11-.05.17.17 0 0 1-.03-.05c.2-4.55.2-9.12 0-13.67 0-.02.01-.04.03-.05a.15.15 0 0 1 .1-.05h.07l.05.04.04.05.01.06c.17 4.54.17 9.09-.01 13.63l-.04.05a.16.16 0 0 1-.11.04Z" fill="#FAFAFA"/><path d="M123.5 91.24a13.89 13.89 0 0 1-13.92-13.05v-.34a14 14 0 0 1 27.95-1.19V77a13.9 13.9 0 0 1-13.4 14.23h-.63v.01Zm.04-27.66h-.59a13.67 13.67 0 0 0-13.09 14.24v.34a13.7 13.7 0 0 0 27.36-1.15v-.34a13.67 13.67 0 0 0-13.65-13.1h-.03v.01Zm0 23.89a10.15 10.15 0 1 1 .44 0h-.44Zm.02-20.12h-.43a9.9 9.9 0 1 0 .84 19.78 9.9 9.9 0 1 0-.41-19.8v.02Z" fill="#FAFAFA"/><path d="M123.52 87.47a10.15 10.15 0 1 1 .44 0h-.44Zm.02-20.12h-.43a9.9 9.9 0 1 0 7.24 2.77 9.9 9.9 0 0 0-6.83-2.75l.02-.02Zm-26.21 92.68c-.35 0-.7-.06-1.02-.18-1.34-.5-2.62-2.06-2.52-4.41l1.11-21.09c.03-.53.14-1.06.33-1.56l8.95-22.68a.17.17 0 0 1 .17-.1.18.18 0 0 1 .14.14c.85 6.9 2.01 13.8 3.15 20.45l1.03 6.14 11.73-.5-.63-2.69a5.13 5.13 0 0 1-.06-2.05 6.24 6.24 0 0 1 12.18-.52c.18.67.21 1.36.11 2.05l-.39 2.74 11.73-.5.5-6.2c.62-6.87 1.09-13.75 1.4-20.64 0-.04.01-.07.04-.1a.15.15 0 0 1 .09-.05l.1.01c.03.02.05.04.06.07l10.85 21.84c.23.48.39 1 .46 1.53l2.9 20.92c.32 2.33-.84 3.98-2.12 4.6a2.92 2.92 0 0 1-3.51-.8l-11.28-12.12-12.52.53-.47 3.3a3.37 3.37 0 0 1-6.63.28l-.74-3.26-12.52.53-10.22 13.05a3.06 3.06 0 0 1-2.4 1.28v-.01Zm6.93-49.22-8.73 22.1a4.6 4.6 0 0 0-.31 1.46l-1.11 21.09c-.12 2.19 1.06 3.63 2.3 4.09a2.62 2.62 0 0 0 3.06-.99l10.26-13.09a.13.13 0 0 1 .05-.04.14.14 0 0 1 .06-.02l12.72-.54c.04 0 .08.01.1.03.04.03.06.06.07.1l.77 3.37a3.07 3.07 0 0 0 6.02-.26l.5-3.42c0-.04.02-.07.05-.1a.15.15 0 0 1 .09-.04l12.73-.54.07.01.05.04 11.34 12.18a2.62 2.62 0 0 0 3.15.72c1.18-.56 2.24-2.1 1.94-4.27l-2.9-20.92c-.06-.5-.2-.98-.43-1.43l-10.56-21.28c-.27 6.74-.83 13.5-1.38 20.04l-.5 6.34c0 .04-.02.08-.05.1a.16.16 0 0 1-.11.05l-12.05.5h-.07a.18.18 0 0 1-.06-.05.16.16 0 0 1-.04-.06v-.07l.42-2.93c.1-.64.06-1.3-.1-1.92a5.93 5.93 0 0 0-11.57.5c-.11.63-.1 1.28.05 1.91l.67 2.89.02.06-.02.07a.15.15 0 0 1-.06.05.18.18 0 0 1-.06.02l-12.06.5h-.06a.13.13 0 0 1-.05-.03.13.13 0 0 1-.03-.04.13.13 0 0 1-.02-.06l-1.05-6.3a429.05 429.05 0 0 1-3.1-19.82h-.01Z" fill="#FAFAFA"/><path d="m255.2 100.32-2.98-.13 1.34 5.67a15.61 15.61 0 0 0 2.89-2.56 1.4 1.4 0 0 0 .2-1.58 1.7 1.7 0 0 0-.35-.44l-1.1-.96Z" fill="#EBB376"/><path d="m248.76 103.24 1.34 4.61 3.47-2-1.35-5.66-3.46 3.05Z" fill="#EBB376"/><path d="m251.94 100.84.94-3.97-98.26-23.03-.93 3.97 98.25 23.03Z" fill="#1E60F6"/><path opacity=".6" d="m251.94 100.84.94-3.97-98.26-23.03-.93 3.97 98.25 23.03Z" fill="#000"/><path d="m250.08 108.77.93-3.97-98.25-23.02-.93 3.97 98.25 23.02Z" fill="#1E60F6"/><path opacity=".6" d="m250.08 108.77.93-3.97-98.25-23.02-.93 3.97 98.25 23.02Z" fill="#000"/><path d="m251.01 104.8.93-3.97-98.25-23.02-.93 3.97 98.25 23.02Z" fill="#263238"/><path d="m145.91 79.96.84-3.57 7.87-2.55-2.79 11.9-5.92-5.78Z" fill="#E4897B"/><path d="m143.38 77.49 3.37-1.1-.84 3.57-2.53-2.47Z" fill="#FAFAFA"/><path d="M206.94 73.52a123.37 123.37 0 0 1-10.2 12 76.62 76.62 0 0 1-3.86 3.7l-.25.22-.35.3a6.38 6.38 0 0 1-3.28 1.4c-1.17.15-2.34.1-3.5-.12-1.89-.39-3.72-1-5.47-1.8a50.49 50.49 0 0 1-9.19-5.48l1.79-2.98c1.5.63 3.07 1.3 4.62 1.9 1.55.58 3.1 1.14 4.65 1.59 1.43.45 2.9.76 4.4.92a5 5 0 0 0 1.63-.1c.17-.05.27-.1.26-.12h-.05c-.05 0 .06-.06.12-.13l.21-.21c2.25-2.34 4.41-4.9 6.56-7.48 2.14-2.58 4.25-5.24 6.3-7.84l5.6 4.23h.01Zm-41.02 1.75-2.6 3.31 4.49 3.32 2.6-4.87-4.5-1.76h.01Z" fill="#EBB376"/><path d="m172.8 80.86-2.4-3.83-2.6 4.87s2.22 3.28 5.05 2.01l-.05-3.05Zm59.79-12.14c1.73 3.06 3.4 6.17 5 9.3.82 1.56 1.6 3.16 2.4 4.71l1.16 2.38.3.58c.06.1.08.18.17.32.1.14.15.25.26.4a44.3 44.3 0 0 0 3.55 4.14c1.17 1.26 2.4 2.46 3.63 3.7l7.47 7.35-2.16 2.72c-4.5-2.93-8.81-6.14-12.9-9.62a47.09 47.09 0 0 1-4.06-3.91l-.5-.6c-.16-.22-.34-.43-.5-.67-.18-.24-.37-.54-.53-.8l-.34-.57-1.36-2.27c-.88-1.52-1.79-3.03-2.65-4.56a242.33 242.33 0 0 1-5.1-9.23l6.16-3.37Z" fill="#EBB376"/><path d="M208.76 50.82c.07.36-.06.71-.3.77-.22.07-.48-.19-.56-.55-.08-.37.05-.71.28-.78.24-.06.5.2.58.56Z" fill="#263238"/><path d="M208.74 51.52a14.2 14.2 0 0 1-1.07 3.56 2.13 2.13 0 0 0 1.8-.1l-.73-3.46Z" fill="#DE5753"/><path d="M207.78 48.6c-.03 0-.07 0-.1-.02a.22.22 0 0 1-.12-.15.2.2 0 0 1 0-.09c0-.03.02-.05.03-.08a.22.22 0 0 1 .06-.06 2.15 2.15 0 0 1 1.99-.15c.05.03.1.07.12.12.02.06.02.12 0 .17a.22.22 0 0 1-.28.12 1.7 1.7 0 0 0-1.57.1.23.23 0 0 1-.13.04Z" fill="#263238"/><path d="M221.5 52.21c-.8 3.39-1.7 9.59.58 11.85 0 0-1.06 3.44-7.35 3.44-6.93 0-3.15-3.44-3.15-3.44 3.81-.9 3.82-3.7 3.27-6.33l6.65-5.52Z" fill="#EBB376"/><path d="M222.94 65.24c.54-1.08 1.13-2.33 0-2.72-1.22-.43-8-.87-10.38-.07a2.52 2.52 0 0 0-1.8 3.02l12.18-.23Z" fill="#1E60F6"/><path opacity=".6" d="M222.94 65.24c.54-1.08 1.13-2.33 0-2.72-1.22-.43-8-.87-10.38-.07a2.52 2.52 0 0 0-1.8 3.02l12.18-.23Z" fill="#FAFAFA"/><path d="M233.19 223.07s-1.76-1.26-2.17-.53c-.5.83 1.43.72 2.17.53Z" fill="#1E60F6"/><path d="M233.19 223.07s-.08-1.97-.93-1.89c-.85.08.34 1.57.93 1.9v-.01Zm-27.58 0s-2.18-1.26-2.63-.53c-.45.72 1.74.72 2.63.53Z" fill="#1E60F6"/><path d="M205.61 223.07s-.11-1.97-1.13-1.89c-1.02.08.42 1.57 1.13 1.9v-.01Z" fill="#1E60F6"/><path d="M210.7 223.07h-4.63l-.04-10.71h4.63l.05 10.71h-.01Zm27.8 0h-4.64l-1.9-10.71h4.62l1.91 10.71h.01Z" fill="#EBB376"/><path d="M233.55 222.54h5.2c.1 0 .18.03.25.09s.12.14.13.23l.76 4.11a.7.7 0 0 1-.16.57.7.7 0 0 1-.55.25c-1.81-.03-2.7-.14-4.98-.14-1.4 0-4.3.15-6.25.15-1.94 0-2.12-1.89-1.32-2.1 3.6-.77 4.98-1.85 6.16-2.87.21-.19.48-.3.76-.3v.01Zm-27.42 0h5.03a.38.38 0 0 1 .38.32l.76 4.11a.7.7 0 0 1-.7.82c-1.82-.03-4.45-.14-6.74-.14-2.68 0-5 .15-8.14.15-1.9 0-2.36-1.89-1.56-2.1 3.66-.79 6.62-.87 9.82-2.8.34-.22.74-.35 1.15-.36Z" fill="#263238"/><path d="M230.91 65.1c4.3 1 8.82 12.83 8.82 12.83l-8.94 5.97a69.51 69.51 0 0 1-5.37-9.78c-2.38-5.42 1.1-10.03 5.5-9.01l-.01-.01Z" fill="#1E60F6"/><path d="m227.51 72.65 3.7 10.97-.42.28s-1.69-2.52-3.48-5.88l.2-5.37Z" fill="#1E60F6"/><path opacity=".2" d="m227.51 72.65 3.7 10.97-.42.28s-1.69-2.52-3.48-5.88l.2-5.37Z" fill="#000"/><path d="M202.04 85.78c.03 5.17.34 11.6 1.12 19.57h24.78c.32-3.78-1.36-22.34 3-40.24a63.63 63.63 0 0 0-8.25-1.05c-3.5-.2-7.01-.2-10.52 0a47.3 47.3 0 0 0-7.17 1.26s-2.11 2.3-2.76 13.05c-.13 2.15-.22 4.6-.2 7.41Z" fill="#1E60F6"/><path d="M202.04 85.78c1.5-2.73 4.22-8.22 3.83-11.34l-3.65 3.96c-.1 2.12-.2 4.56-.18 7.38Z" fill="#1E60F6"/><path opacity=".2" d="M202.04 85.78c1.5-2.73 4.22-8.22 3.83-11.34l-3.65 3.96c-.1 2.12-.2 4.56-.18 7.38Z" fill="#000"/><path d="M209.83 69.53c.39 4.4-9.6 15.02-9.6 15.02l-8.02-6.53a51.69 51.69 0 0 1 7.49-9.76c4.69-4.53 9.7-3.67 10.13 1.27Z" fill="#1E60F6"/><path d="m206.03 212.36.03 5.52h4.63l-.03-5.52h-4.63Zm30.55 0h-4.63l.99 5.52h4.63l-.99-5.52Z" fill="#DA9D62"/><path d="M220.66 47c.68 4.56 1.3 7.18-.45 10.07a5.98 5.98 0 0 1-10.58-.56c-1.8-3.78-2.61-10.6 1.37-13.5a6.03 6.03 0 0 1 9.66 3.98V47Z" fill="#EBB376"/><path d="M225.21 49.24c-1.58 4.09-2.73 5.88-4.63 6.54-4.97 1.73-8.04-4.32-9.19-9.6a9.28 9.28 0 0 1-4.4-1.35c-2.2-1.4-2.96-3.88.82-6.01.03.14.8 1.66 3.68.63 4.84-1.74 14.1-3.58 12.65 1.71 2.3.03 2.65 4 1.07 8.08Z" fill="#263238"/><path d="M214.94 49.82a5.42 5.42 0 0 1-1.11 3.2c-.94 1.21-2.02.63-2.28-.73-.22-1.2 0-3.3 1.18-4.03 1.17-.73 2.22.17 2.2 1.56h.01Z" fill="#EBB376"/><path d="M223.32 41.1a3.88 3.88 0 0 0 2.6-2.53s.87 3.62-2.6 2.52v.01Z" fill="#263238"/><path d="M211.94 105.35s3.88 35.37 6.25 48.62c2.6 14.49 12.6 62.85 12.6 62.85h8.49s-6.02-47.17-7.27-61.53c-1.35-15.6-4.12-49.94-4.12-49.94h-15.95Z" fill="#1E60F6"/><path opacity=".6" d="M211.94 105.35s3.88 35.37 6.25 48.62c2.6 14.49 12.6 62.85 12.6 62.85h8.49s-6.02-47.17-7.27-61.53c-1.35-15.6-4.12-49.94-4.12-49.94h-15.95Z" fill="#FAFAFA"/><path d="M229.6 213.7c-.05 0 .74 3.25.74 3.25h9.53l-.05-2.9-10.23-.36.01.01Z" fill="#1E60F6"/><path opacity=".1" d="M229.6 213.7c-.05 0 .74 3.25.74 3.25h9.53l-.05-2.9-10.23-.36.01.01Z" fill="#FAFAFA"/><path d="M214.77 117.95c6.03 1.2 4.5 23.84 3.33 35.49-1.44-8.26-3.39-24.08-4.7-35.35.42-.2.9-.25 1.37-.14Z" fill="#1E60F6"/><path opacity=".4" d="M214.77 117.95c6.03 1.2 4.5 23.84 3.33 35.49-1.44-8.26-3.39-24.08-4.7-35.35.42-.2.9-.25 1.37-.14Z" fill="#FAFAFA"/><path d="M203.16 105.35s-1.97 34.6-2.02 48.72c-.04 14.68 3.23 62.75 3.23 62.75h7.82s2.11-47.22 3.02-61.63c.98-15.72 4.2-49.84 4.2-49.84h-16.25Z" fill="#1E60F6"/><path opacity=".6" d="M203.16 105.35s-1.97 34.6-2.02 48.72c-.04 14.68 3.23 62.75 3.23 62.75h7.82s2.11-47.22 3.02-61.63c.98-15.72 4.2-49.84 4.2-49.84h-16.25Z" fill="#FAFAFA"/><path d="m206.23 211.19-.06-.03a.08.08 0 0 1-.02-.05c-.87-13.3-2.89-45.5-2.85-57.04.03-11.82 1.43-38.24 1.89-46.06v-.04l.01-.03.03-.03h.07a.1.1 0 0 1 .03.03l.02.03v.04c-.43 7.82-1.84 34.24-1.9 46.05-.03 11.54 1.98 43.73 2.85 57.03v.03l-.02.03-.02.02h-.03v.02Z" fill="#1E60F6"/><path opacity=".4" d="m206.23 211.19-.06-.03a.08.08 0 0 1-.02-.05c-.87-13.3-2.89-45.5-2.85-57.04.03-11.82 1.43-38.24 1.89-46.06v-.04l.01-.03.03-.03h.07a.1.1 0 0 1 .03.03l.02.03v.04c-.43 7.82-1.84 34.24-1.9 46.05-.03 11.54 1.98 43.73 2.85 57.03v.03l-.02.03-.02.02h-.03v.02Z" fill="#FAFAFA"/><path d="M202.98 213.7c-.04 0 .31 3.25.31 3.25h9.53l.37-2.9-10.21-.36v.01Z" fill="#1E60F6"/><path opacity=".1" d="M202.98 213.7c-.04 0 .31 3.25.31 3.25h9.53l.37-2.9-10.21-.36v.01Z" fill="#FAFAFA"/></g><defs><clipPath id="a"><path fill="#fff" d="M0 0h349v234H0z"/></clipPath></defs></svg>