<svg fill="none" xmlns="http://www.w3.org/2000/svg" viewBox="0 0 233 174"><path d="M232.93 152.52H0v.12h232.93v-.12ZM209.59 160.02h-15.43v.11h15.43v-.11ZM154.3 161.28h-4.05v.12h4.05v-.12ZM193.7 155.7h-8.95v.11h8.94v-.12ZM44.56 156.48H24.44v.11h20.12v-.11ZM51.66 156.48h-2.95v.11h2.95v-.11ZM104.89 158.44H61.25v.12h43.64v-.12ZM110.4 131.75H20.47a2.66 2.66 0 0 1-2.66-2.66V2.64A2.66 2.66 0 0 1 20.46 0h89.95a2.66 2.66 0 0 1 2.66 2.66v126.43a2.66 2.66 0 0 1-2.66 2.66ZM20.47.09a2.54 2.54 0 0 0-2.54 2.55v126.45a2.54 2.54 0 0 0 2.54 2.54h89.95a2.55 2.55 0 0 0 2.54-2.54V2.64a2.55 2.55 0 0 0-2.54-2.55H20.46ZM211.18 131.75h-89.96a2.67 2.67 0 0 1-2.66-2.66V2.64A2.67 2.67 0 0 1 121.22 0h89.96a2.66 2.66 0 0 1 2.65 2.64v126.45a2.66 2.66 0 0 1-2.65 2.66ZM121.22.09a2.55 2.55 0 0 0-2.54 2.55v126.45a2.55 2.55 0 0 0 2.54 2.54h89.96a2.55 2.55 0 0 0 2.54-2.54V2.64a2.55 2.55 0 0 0-2.54-2.55h-89.96Z" fill="#EBEBEB"/><path d="M112.9 55.38H46.75v96.98h66.15V55.38Z" fill="#F0F0F0"/><path d="M110.56 58.43H49.09v17.91h61.47v-17.9Z" fill="#E0E0E0"/><path d="M52.58 61.33h-3.5v15.01h3.5V61.33ZM69.47 61.33h-3.5v15.01h3.5V61.33ZM88.63 60.95l-3.44.6 2.55 14.79 3.44-.6-2.55-14.79ZM56.9 63.31h-3.49v13.03h3.5V63.31ZM64.94 63.31h-3.5v13.03h3.5V63.31ZM85.2 63.31h-3.5v13.03h3.5V63.31ZM74.06 62.86l-3.41.76 2.83 12.72 3.4-.76-2.82-12.72ZM59.93 60.59h-1.75v15.75h1.75V60.58ZM80.7 60.59h-1.75v15.75h1.75V60.58Z" fill="#EBEBEB"/><path d="M49.1 97.1h61.46V79.17H49.1V97.1Z" fill="#E0E0E0"/><path d="M107.06 97.09h3.5V82.08h-3.5v15ZM90.18 97.09h3.5V82.08h-3.5v15ZM68.47 96.5l3.44.59 2.55-14.8-3.44-.59-2.55 14.8ZM102.74 97.1h3.49V84.05h-3.5v13.03ZM94.71 97.1h3.5V84.05h-3.5v13.03ZM74.45 97.1h3.5V84.05h-3.5v13.03ZM82.78 96.33l3.4.76 2.84-12.72-3.42-.76-2.82 12.72ZM99.72 97.09h1.75V81.33h-1.75V97.1ZM78.95 97.09h1.75V81.33h-1.75V97.1ZM52.58 82.08h-3.5v15h3.5v-15ZM56.9 84.05h-3.49V97.1h3.5V84.05ZM64.94 84.05h-3.5V97.1h3.5V84.05ZM59.93 81.33h-1.75V97.1h1.75V81.33Z" fill="#EBEBEB"/><path d="M110.56 99.93H49.09v17.9h61.47v-17.9Z" fill="#E0E0E0"/><path d="M87.86 102.82h-3.49v15.01h3.5v-15ZM107.03 102.45l-3.44.59 2.55 14.8 3.44-.6-2.55-14.8ZM75.3 104.8h-3.49v13.04h3.5V104.8ZM83.33 104.8h-3.49v13.04h3.5V104.8ZM103.6 104.8h-3.5v13.04h3.5V104.8ZM92.46 104.35l-3.41.76 2.82 12.72 3.42-.75-2.83-12.73ZM78.33 102.08h-1.75v15.75h1.75v-15.75ZM99.1 102.08h-1.76v15.75h1.75v-15.75ZM66.86 102.45l-3.44.6 2.55 14.78 3.44-.59-2.55-14.79ZM63.42 104.8h-3.5v13.04h3.5V104.8ZM52.28 104.35l-3.4.76 2.82 12.72 3.41-.75-2.83-12.73ZM58.92 102.08h-1.74v15.75h1.74v-15.75Z" fill="#EBEBEB"/><path d="M35.34 152.61h11.41V55.38H35.34v97.23Z" fill="#E0E0E0"/><path d="M151.6 150.07h-9.69l5.1-41.52a3.7 3.7 0 0 1 3.57-3.19h42.28l-6.2 44.7-35.05.01Z" fill="#F5F5F5"/><path d="M182.35 150.07h9.7l5.1-41.52a2.76 2.76 0 0 0-2.8-3.19h-3.32a3.73 3.73 0 0 0-3.58 3.19l-5.1 41.52Z" fill="#F0F0F0"/><path d="m178.79 150 1.75-20.07a1.91 1.91 0 0 1 1.67-1.74l.72-.09a2.56 2.56 0 0 0 2.23-2.33l.32-3.66a2.57 2.57 0 0 0-2.55-2.8h16.2a2.56 2.56 0 0 1 2.56 2.8l-.33 3.66a2.55 2.55 0 0 1-2.23 2.33l-.72.1a1.91 1.91 0 0 0-1.66 1.73L194.99 150a2.84 2.84 0 0 1-2.82 2.58h-16.2a2.84 2.84 0 0 0 2.82-2.58ZM134.2 124.92a6.1 6.1 0 0 0-6.08-5.6h14.1a6.1 6.1 0 0 1 6.06 5.6l1.4 15.91h-14.09l-1.4-15.91Z" fill="#E6E6E6"/><path d="M121.85 119.35h6.26a6.1 6.1 0 0 1 6.08 5.59l1.4 15.91h33.6l1.4-15.91a6.1 6.1 0 0 1 6.05-5.6h6.27a2.57 2.57 0 0 1 2.55 2.8l-.32 3.67a2.56 2.56 0 0 1-2.23 2.32l-.72.1a1.9 1.9 0 0 0-1.66 1.73l-1.74 20.05a2.84 2.84 0 0 1-2.83 2.58h-47.15a2.84 2.84 0 0 1-2.82-2.58l-1.76-20.08a1.92 1.92 0 0 0-1.66-1.74l-.72-.09a2.57 2.57 0 0 1-2.24-2.33l-.32-3.66a2.57 2.57 0 0 1 2.56-2.76Z" fill="#F0F0F0"/><path d="M47.59 50.54s-.52-3.4 1.97-5.6c2.48-2.18 2.26-3.47 1.55-3.64-.72-.17-1.36 2.01-2.45 2.61 0 0-.04-3.11 1.07-4.25 1.1-1.14 1.69-4.1.63-4.15-1.06-.05-1.16 1.75-1.4 3.03a11.28 11.28 0 0 1-1.4 3.08s-.22-2.8-.92-3.93c-.7-1.13 1.19-3.76.46-4.9-.73-1.14-2.04 1.03-1.94 3.49.11 2.45 1.75 5.07 1.37 7.63 0 0-.72-1.8-1.37-1.96-.65-.17-1.3-1.36-1.74-1.8-.43-.44-.98 1.09 0 2.5.98 1.42 3.49 5.22 3.1 8.28l1.07-.4Z" fill="#E6E6E6"/><path d="m49.07 48.98.82 5.1a2.6 2.6 0 0 1-2.56 3h-.87a2.6 2.6 0 0 1-2.56-3l.82-5.1h4.35Z" fill="#E6E6E6"/><path d="M97.85 56.09h2.53V45.2h-2.53V56.1ZM85.62 56.09h2.53V45.2h-2.53V56.1ZM69.89 55.66l2.49.43 1.85-10.72-2.5-.43-1.84 10.72ZM94.72 56.08h2.53v-9.44h-2.53v9.44ZM88.9 56.08h2.53v-9.44H88.9v9.44ZM74.22 56.08h2.53v-9.44h-2.53v9.44ZM80.25 55.54l2.47.55 2.05-9.22-2.47-.55-2.05 9.22ZM92.53 56.09h1.27V44.67h-1.27V56.1ZM77.48 56.09h1.26V44.67h-1.26V56.1ZM68.46 47.45H56.13v8.51h12.33v-8.5ZM110.75 50.94h-10.33v6.35h10.33v-6.35Z" fill="#EBEBEB"/><path d="M108.33 45.35h-5.16v6.36h5.16v-6.36Z" fill="#EBEBEB"/><path d="M194.64 36.94h-12.28v51.2h12.28v-51.2Z" fill="#E0E0E0"/><path d="M147.38 88.27h45.94V36.95h-45.94v51.32Z" fill="#E0E0E0"/><path d="M145.9 88.27h47.66V36.95H145.9v51.32Z" fill="#F0F0F0"/><path d="M147.94 85.9h43.66V38.59h-43.66V85.9Z" fill="#fff"/><path d="M147.93 85.9h.81V38.59h-.8V85.9Z" fill="#E0E0E0"/><path d="M148.61 72.62v1.27h43.11v-1.27h-43.1Z" fill="#E0E0E0"/><path d="M147.94 72.61h44.35v-2.14h-44.35v2.14Z" fill="#F0F0F0"/><path d="M116.47 173.56c49.88 0 90.32-2.36 90.32-5.27 0-2.92-40.44-5.28-90.32-5.28-49.89 0-90.33 2.36-90.33 5.28 0 2.9 40.44 5.27 90.33 5.27Z" fill="#F5F5F5"/><path d="M149.98 45.57H66.64a3.41 3.41 0 0 0-3.41 3.41v98.14a3.41 3.41 0 0 0 3.4 3.4h83.35a3.41 3.41 0 0 0 3.41-3.4V48.98a3.41 3.41 0 0 0-3.4-3.41Z" fill="#1E60F6"/><path opacity=".6" d="M149.98 45.57H66.64a3.41 3.41 0 0 0-3.41 3.41v98.14a3.41 3.41 0 0 0 3.4 3.4h83.35a3.41 3.41 0 0 0 3.41-3.4V48.98a3.41 3.41 0 0 0-3.4-3.41Z" fill="#fff"/><path d="M138.79 93.7H77.84v10.44h60.95V93.71Z" fill="#fff"/><g opacity=".4" fill="#263238"><path opacity=".4" d="M83.29 99.94v.28h-2.12v-3h2.05v.27H81.5v1.07h1.55v.27h-1.55v1.11h1.8ZM83.71 98.93h1.12v.26h-1.12v-.26ZM89.22 98.91v1.3h-.3v-1.27c0-.47-.24-.72-.65-.72a.72.72 0 0 0-.75.81v1.19h-.3v-1.28c0-.47-.24-.72-.65-.72a.72.72 0 0 0-.75.81v1.19h-.31v-2.25h.3v.4a.93.93 0 0 1 .82-.42.8.8 0 0 1 .8.46.99.99 0 0 1 .88-.46.85.85 0 0 1 .9.96ZM91.74 98.82v1.4h-.3v-.36a.83.83 0 0 1-.76.37c-.51 0-.82-.26-.82-.65 0-.38.22-.64.86-.64h.71v-.13c0-.39-.21-.6-.63-.6-.27 0-.54.1-.75.27l-.13-.23c.26-.2.59-.32.93-.3a.8.8 0 0 1 .9.87Zm-.3.72v-.37h-.7c-.44 0-.59.17-.59.4 0 .24.21.43.57.43a.71.71 0 0 0 .71-.46ZM92.5 97.26a.22.22 0 0 1 .22-.22.22.22 0 0 1 .16.37.22.22 0 0 1-.16.07.22.22 0 0 1-.22-.22Zm.07.7h.3v2.26h-.3v-2.25ZM93.71 97.04h.3v3.17h-.3v-3.17Z"/></g><path d="M138.79 107.96H77.84v10.44h60.95v-10.44Z" fill="#fff"/><g opacity=".4" fill="#263238"><path opacity=".4" d="M83.51 112.52c0 .64-.47 1.02-1.22 1.02h-.8v.93h-.32v-2.99h1.12c.76.01 1.22.4 1.22 1.04Zm-.32 0c0-.47-.3-.75-.93-.75h-.79v1.5h.8c.61 0 .92-.28.92-.75ZM85.8 113.1v1.39h-.28v-.35a.84.84 0 0 1-.78.37c-.5 0-.82-.27-.82-.66s.23-.65.87-.65h.71v-.14c0-.38-.22-.59-.64-.59-.27 0-.53.1-.74.27l-.14-.23c.26-.2.6-.32.93-.3.12-.02.24 0 .36.03a.8.8 0 0 1 .54.85Zm-.3.7v-.36h-.71c-.43 0-.57.17-.57.4 0 .24.2.42.56.42a.72.72 0 0 0 .72-.46ZM86.32 114.23l.14-.24c.23.17.51.25.8.25.42 0 .6-.14.6-.37 0-.58-1.46-.12-1.46-1 0-.38.32-.65.89-.65.28 0 .55.07.8.21l-.14.24c-.2-.13-.43-.2-.66-.19-.4 0-.59.16-.59.37 0 .6 1.46.15 1.46 1.02 0 .39-.34.64-.93.64a1.5 1.5 0 0 1-.91-.28ZM88.4 114.23l.15-.24c.23.17.5.25.8.25.42 0 .6-.14.6-.37 0-.58-1.46-.12-1.46-1 0-.38.32-.65.89-.65.27 0 .55.07.8.21l-.14.24c-.2-.13-.43-.2-.66-.19-.41 0-.59.16-.59.37 0 .6 1.46.15 1.46 1.02 0 .39-.34.64-.93.64-.33 0-.65-.1-.91-.28ZM94.06 112.24l-.84 2.24h-.29l-.69-1.84-.7 1.84h-.29l-.87-2.24h.29l.7 1.9.73-1.9h.26l.72 1.9.7-1.9h.28ZM94.23 113.36a1.14 1.14 0 1 1 1.15 1.15 1.1 1.1 0 0 1-1.15-1.15Zm1.98 0a.84.84 0 1 0-.83.88.82.82 0 0 0 .83-.88ZM98.27 112.22v.3h-.08a.72.72 0 0 0-.75.82v1.14h-.3v-2.24h.29v.44a.85.85 0 0 1 .84-.46ZM100.84 111.34v3.17h-.28v-.45a.99.99 0 0 1-.87.47 1.15 1.15 0 0 1 0-2.29.97.97 0 0 1 .85.47v-1.37h.3Zm-.3 2.05a.83.83 0 0 0-1.02-.78.84.84 0 1 0 .53 1.59.8.8 0 0 0 .46-.5.8.8 0 0 0 .04-.34v.03Z"/></g><path opacity=".2" d="M138.79 129.04H77.84v10.44h60.95v-10.44Z" fill="#000"/><g opacity=".5" fill="#000"><path opacity=".5" d="M92.66 124.25h-1l-.21.47h-.2l.82-1.79h.19l.81 1.78h-.2l-.2-.46Zm-.07-.16-.43-.95-.43.95h.86ZM93.33 122.83h.18v1.9h-.18v-1.9ZM94.7 123.37v.18h-.05a.45.45 0 0 0-.35.13.44.44 0 0 0-.11.36v.69H94v-1.34h.18v.26a.5.5 0 0 1 .52-.28ZM96.18 124.1h-1.14a.5.5 0 0 0 .52.48c.08 0 .16-.02.23-.05a.54.54 0 0 0 .19-.13l.1.12a.7.7 0 0 1-1.18-.73.65.65 0 0 1 .61-.42.64.64 0 0 1 .66.68v.06Zm-1.12-.13h.93a.47.47 0 0 0-.47-.46.47.47 0 0 0-.46.46ZM97.52 123.92v.83h-.15v-.21a.5.5 0 0 1-.47.22c-.3 0-.47-.16-.47-.39s.13-.38.52-.38h.42v-.08c0-.23-.14-.35-.39-.35a.69.69 0 0 0-.46.15l-.08-.13a.84.84 0 0 1 .54-.18c.08-.02.15-.01.22.01s.13.06.19.11a.47.47 0 0 1 .13.4Zm-.17.43v-.23h-.43c-.26 0-.34.1-.34.24 0 .14.12.26.34.26a.44.44 0 0 0 .45-.3l-.02.03ZM99.23 122.83v1.9h-.17v-.27a.57.57 0 0 1-.52.28.68.68 0 0 1-.63-.68.68.68 0 0 1 .63-.69c.1 0 .2.02.29.07a.6.6 0 0 1 .22.2v-.8h.18Zm-.18 1.22a.5.5 0 1 0-.5.53.49.49 0 0 0 .52-.53h-.02ZM100.89 123.38l-.68 1.5c-.1.27-.25.35-.46.35a.47.47 0 0 1-.33-.12l.09-.13c.06.06.15.1.24.1.12 0 .2-.06.28-.23l.06-.13-.6-1.34h.2l.52 1.14.5-1.14h.18ZM102.82 123.92v.83h-.17v-.21a.5.5 0 0 1-.47.22c-.3 0-.46-.16-.46-.39s.13-.38.52-.38h.42v-.08c0-.23-.13-.35-.38-.35a.68.68 0 0 0-.46.15l-.09-.13a.85.85 0 0 1 .55-.18.48.48 0 0 1 .4.12.48.48 0 0 1 .14.4Zm-.18.43v-.23h-.42c-.26 0-.34.1-.34.24 0 .14.12.26.34.26a.43.43 0 0 0 .42-.3v.03ZM106.22 123.95v.77h-.18v-.75c0-.29-.14-.43-.39-.43-.06 0-.12 0-.18.02a.43.43 0 0 0-.28.44v.7H105v-.73c0-.29-.14-.43-.39-.43-.06 0-.13 0-.18.02a.43.43 0 0 0-.26.26.43.43 0 0 0-.03.18v.7h-.18v-1.34h.17v.25a.54.54 0 0 1 .5-.26.47.47 0 0 1 .47.29.58.58 0 0 1 .53-.29.5.5 0 0 1 .58.6ZM107.87 124.1h-1.13a.5.5 0 0 0 .54.48.52.52 0 0 0 .4-.18l.1.12a.68.68 0 0 1-.51.22.66.66 0 0 1-.66-.42.64.64 0 0 1-.04-.27.65.65 0 0 1 1.3 0v.06Zm-1.13-.13h.96a.48.48 0 1 0-.96 0ZM110.46 123.95v.77h-.18v-.75c0-.29-.14-.43-.39-.43a.41.41 0 0 0-.34.12.41.41 0 0 0-.1.16.42.42 0 0 0-.02.18v.7h-.19v-.73c0-.29-.13-.43-.38-.43a.42.42 0 0 0-.47.47v.7h-.18v-1.35h.17v.25a.54.54 0 0 1 .5-.26.47.47 0 0 1 .46.29.58.58 0 0 1 .53-.29.5.5 0 0 1 .59.6ZM112.31 124.05a.65.65 0 0 1-.67.69.57.57 0 0 1-.51-.28v.26h-.18v-1.89h.18v.8a.6.6 0 0 1 .51-.26.65.65 0 0 1 .63.42c.03.08.04.17.04.26Zm-.18 0a.5.5 0 0 0-.32-.44.5.5 0 0 0-.67.38c-.02.1 0 .2.03.28a.5.5 0 0 0 .66.27.49.49 0 0 0 .3-.48ZM113.85 124.1h-1.11a.5.5 0 0 0 .52.48.52.52 0 0 0 .41-.2l.1.12a.7.7 0 0 1-1.09-.08.7.7 0 0 1-.09-.65.64.64 0 0 1 .36-.37.66.66 0 0 1 .26-.05.64.64 0 0 1 .61.42c.03.09.04.18.04.26v.08Zm-1.12-.13h.93a.47.47 0 0 0-.93 0ZM114.9 123.37v.18h-.04a.44.44 0 0 0-.35.14.43.43 0 0 0-.12.35v.69h-.18v-1.34h.17v.26a.51.51 0 0 1 .52-.28ZM116.07 123.4c0-.19-.15-.32-.4-.32a.62.62 0 0 0-.5.2l-.13-.1a.78.78 0 0 1 .64-.26c.36 0 .58.17.58.47 0 .43-.46.46-.46.82h-.2c0-.44.47-.48.47-.81Zm-.5 1.2c0-.03.02-.06.05-.08a.13.13 0 0 1 .17 0l.05.08v.06l-.03.05a.14.14 0 0 1-.17.04.13.13 0 0 1-.04-.04.13.13 0 0 1-.03-.11ZM117.34 122.94h.41v1.44h.9v.34h-1.31v-1.78ZM118.74 124.04a.75.75 0 0 1 .43-.73.75.75 0 0 1 .84.13.75.75 0 0 1-.52 1.3.7.7 0 0 1-.53-.18.7.7 0 0 1-.22-.52Zm1.1 0a.35.35 0 0 0-.6-.2.35.35 0 0 0-.06.37c.02.06.07.11.12.15.06.04.13.06.2.06a.35.35 0 0 0 .25-.11.35.35 0 0 0 .09-.27ZM121.93 123.35v1.15a.66.66 0 0 1-.2.56.66.66 0 0 1-.57.18c-.24.01-.48-.06-.67-.19l.15-.28c.14.1.3.15.47.15.28 0 .4-.13.4-.37v-.06a.57.57 0 0 1-.43.17.67.67 0 0 1-.66-.4.66.66 0 0 1 0-.53.67.67 0 0 1 .39-.37.66.66 0 0 1 .27-.03.55.55 0 0 1 .47.2v-.18h.38Zm-.4.65a.33.33 0 0 0-.35-.34.34.34 0 0 0-.38.34.33.33 0 0 0 .11.25c.04.03.08.06.13.07.04.01.1.02.14.01l.13-.01a.33.33 0 0 0 .22-.32ZM122.99 122.94a.24.24 0 0 1 .07-.17.23.23 0 0 1 .17-.05h.1a.2.2 0 0 1 .08.05l.05.07.02.09a.25.25 0 0 1-.25.25.25.25 0 0 1-.24-.25v.01Zm.05.41h.4v1.4h-.4v-1.4ZM125.2 123.92v.78h-.4v-.72c0-.22-.1-.32-.28-.32-.18 0-.33.11-.33.37v.67h-.4v-1.4h.38v.17a.61.61 0 0 1 .47-.18.54.54 0 0 1 .43.18.54.54 0 0 1 .13.45Z"/></g><path d="M138.79 128.4H77.84v10.44h60.95V128.4Z" fill="#1E60F6"/><path d="m100.44 135.24-.74-1.07h-1.11v1.08h-.52v-3.57h1.4c.93 0 1.49.47 1.49 1.25a1.13 1.13 0 0 1-.78 1.13l.84 1.2-.58-.02Zm0-2.33c0-.5-.34-.8-1-.8h-.86v1.61h.86c.65 0 .99-.3.99-.8h.01ZM104.13 134.06h-2.2a.93.93 0 0 0 .98.79 1.02 1.02 0 0 0 .78-.33l.27.32a1.48 1.48 0 0 1-2.52-.93 1.34 1.34 0 0 1 .37-1 1.32 1.32 0 0 1 .99-.4 1.31 1.31 0 0 1 1.26.86 1.57 1.57 0 0 1 .06.69Zm-2.2-.36h1.74a.87.87 0 0 0-1.74 0ZM107.4 132.54v2.33c0 .95-.48 1.4-1.4 1.4a2 2 0 0 1-1.28-.4l.23-.38c.3.23.67.35 1.05.35.63 0 .93-.3.93-.9v-.22a1.22 1.22 0 0 1-.98.42 1.3 1.3 0 1 1 0-2.62 1.23 1.23 0 0 1 1 .46v-.42l.46-.02Zm-.46 1.28a.93.93 0 0 0-1.57-.73.93.93 0 0 0 .64 1.61.87.87 0 0 0 .92-.88h.01ZM108.26 131.7a.32.32 0 0 1 .1-.23.34.34 0 0 1 .1-.07.34.34 0 0 1 .13-.02l.13.01a.33.33 0 0 1 .2.18.32.32 0 0 1-.33.45.31.31 0 0 1-.23-.09.3.3 0 0 1-.1-.23Zm.09.84h.48v2.7h-.48v-2.7ZM109.43 134.96l.2-.39c.28.18.6.28.93.28.47 0 .64-.14.64-.37 0-.6-1.7-.08-1.7-1.16 0-.46.43-.8 1.12-.8.35-.01.69.07.99.24l-.21.39a1.4 1.4 0 0 0-.78-.22c-.43 0-.64.16-.64.38 0 .63 1.71.11 1.71 1.16 0 .47-.46.8-1.16.8-.4.01-.78-.1-1.1-.31ZM113.85 135.1a.93.93 0 0 1-.6.19.77.77 0 0 1-.85-.85v-1.48h-.47v-.4h.47v-.6h.46v.6h.81v.4h-.78v1.46a.4.4 0 0 0 .1.34.4.4 0 0 0 .33.13c.14 0 .27-.04.38-.13l.15.34ZM116.78 134.06h-2.18a.94.94 0 0 0 .98.79 1 1 0 0 0 .78-.33l.27.32a1.47 1.47 0 0 1-2.52-.93 1.34 1.34 0 0 1 .38-1 1.3 1.3 0 0 1 .98-.4 1.31 1.31 0 0 1 1.34 1.4l-.03.15Zm-2.18-.36h1.74a.88.88 0 0 0-1.74 0ZM118.93 132.51v.47h-.11a.8.8 0 0 0-.83.57.8.8 0 0 0-.02.36v1.35h-.5v-2.7h.47v.46a1.03 1.03 0 0 1 .99-.5Z" fill="#fff"/><g opacity=".6" fill="#263238"><path opacity=".6" d="m97.64 57.12.21-.44a2 2 0 0 0 1.3.47c.67 0 .95-.26.95-.6 0-.94-2.36-.36-2.36-1.8 0-.61.46-1.13 1.5-1.13.44 0 .87.12 1.25.35l-.18.47a2 2 0 0 0-1.08-.32c-.66 0-.93.28-.93.62 0 .93 2.37.35 2.37 1.8 0 .59-.46 1.1-1.51 1.1a2.33 2.33 0 0 1-1.52-.52ZM101.3 53.69c0-.05 0-.1.03-.14a.36.36 0 0 1 .33-.21.35.35 0 0 1 .33.2c.02.04.03.09.03.14a.36.36 0 0 1-.72 0Zm.09.93h.54v2.96h-.54v-2.96ZM105.78 54.6v2.56c0 1.05-.53 1.52-1.53 1.52-.5.02-1-.14-1.4-.44l.26-.41c.33.25.73.39 1.14.38.7 0 1.02-.32 1.02-1v-.23a1.35 1.35 0 0 1-1.07.47 1.44 1.44 0 1 1 0-2.87 1.35 1.35 0 0 1 1.1.47v-.47l.48.02Zm-.52 1.4a1.01 1.01 0 0 0-.6-.98 1.02 1.02 0 1 0-.42 1.95.96.96 0 0 0 1.05-.96h-.03ZM109.62 55.86v1.7h-.54V55.9c0-.58-.29-.86-.8-.86a.88.88 0 0 0-.93.98v1.53h-.53v-2.97h.51v.47a1.25 1.25 0 0 1 1.07-.47 1.15 1.15 0 0 1 1.17.78c.05.16.07.33.05.5ZM114.88 54.6v2.97h-.5v-.47a1.2 1.2 0 0 1-1.01.47 1.16 1.16 0 0 1-1.22-.78c-.06-.17-.08-.34-.06-.51v-1.71h.54v1.64c0 .58.3.88.8.88a.88.88 0 0 0 .93-.99v-1.53l.52.03ZM118.97 56.08a1.45 1.45 0 0 1-.9 1.42c-.2.07-.4.1-.6.1a1.28 1.28 0 0 1-1.03-.47v1.53h-.53v-4.04h.5v.46a1.26 1.26 0 0 1 1.07-.5 1.44 1.44 0 0 1 1.5 1.5Zm-.54 0a1 1 0 0 0-1.71-.64 1 1 0 0 0 .71 1.69.98.98 0 0 0 1-1.05Z"/></g><path d="M138.79 79.45H77.84v10.43h60.95V79.45Z" fill="#fff"/><g opacity=".4" fill="#263238"><path opacity=".4" d="M81.17 82.96h.32v2.72h1.67v.28h-1.99v-3ZM85.33 84.56v1.4h-.3v-.35a.86.86 0 0 1-.76.37c-.51 0-.82-.26-.82-.65 0-.4.21-.64.86-.64h.71v-.13c0-.39-.21-.6-.63-.6-.28 0-.54.1-.75.27L83.5 84c.27-.2.6-.31.93-.3a.8.8 0 0 1 .9.86Zm-.3.72v-.37h-.7c-.45 0-.59.17-.59.4 0 .24.21.43.57.43a.72.72 0 0 0 .71-.46ZM85.84 85.72l.13-.24c.24.16.52.25.8.25.43 0 .6-.14.6-.37 0-.58-1.45-.12-1.45-1 0-.38.32-.65.89-.65.28 0 .55.07.8.2l-.14.25c-.2-.13-.43-.2-.66-.19-.4 0-.58.16-.58.37 0 .6 1.45.15 1.45 1.01 0 .4-.34.65-.93.65-.33 0-.65-.1-.91-.28ZM89.45 85.82c-.14.1-.3.16-.47.16a.6.6 0 0 1-.66-.66v-1.35h-.4v-.26h.4v-.5h.3v.5h.69v.26h-.68v1.34a.36.36 0 0 0 .38.4.5.5 0 0 0 .34-.1l.1.21ZM93.64 82.96v3h-.26l-1.92-2.43v2.43h-.32v-3h.26l1.93 2.43v-2.43h.3ZM96.27 84.56v1.4h-.3v-.35a.85.85 0 0 1-.78.37c-.5 0-.81-.26-.81-.65 0-.4.22-.64.87-.64h.72v-.13c0-.39-.22-.6-.64-.6-.27 0-.54.1-.75.27l-.14-.23c.27-.2.6-.32.94-.3a.8.8 0 0 1 .89.86Zm-.3.72v-.37h-.71c-.44 0-.58.17-.58.4 0 .24.21.43.57.43a.72.72 0 0 0 .72-.46ZM100.8 84.65v1.3h-.3v-1.27c0-.46-.25-.71-.65-.71a.72.72 0 0 0-.75.8v1.19h-.3v-1.28c0-.46-.25-.71-.66-.71a.72.72 0 0 0-.75.8v1.19h-.3V83.7h.27v.41a.93.93 0 0 1 .83-.43.81.81 0 0 1 .8.47.98.98 0 0 1 .89-.47.85.85 0 0 1 .92.96ZM103.59 84.93h-1.86a.84.84 0 0 0 .56.73c.1.04.21.06.32.05a.89.89 0 0 0 .7-.3l.16.2a1.19 1.19 0 0 1-1.98-1.21 1.09 1.09 0 0 1 1.03-.7 1.07 1.07 0 0 1 1.1 1.13.16.16 0 0 0-.03.1Zm-1.86-.23h1.59a.8.8 0 0 0-1.6 0Z"/></g><path d="M138.79 65.2H77.84v10.43h60.95V65.19Z" fill="#fff"/><g opacity=".4" fill="#263238"><path opacity=".4" d="M81.49 68.98v1.18h1.55v.27h-1.55v1.27h-.32v-2.99h2.05v.27H81.5ZM83.7 68.74a.22.22 0 1 1 .22.22.22.22 0 0 1-.22-.22Zm.07.71h.3v2.25h-.3v-2.25ZM86.05 69.44v.29h-.07a.73.73 0 0 0-.76.83v1.14h-.3v-2.24h.29v.42a.85.85 0 0 1 .84-.44ZM86.3 71.44l.14-.24c.23.17.51.26.8.26.43 0 .6-.15.6-.37 0-.59-1.46-.13-1.46-1.02 0-.36.32-.63.89-.63.28-.01.56.06.8.2l-.14.25c-.2-.13-.43-.2-.66-.2-.4 0-.58.17-.58.38 0 .6 1.45.15 1.45 1.01 0 .39-.34.64-.93.64-.33 0-.64-.09-.9-.28ZM89.91 71.57c-.13.1-.3.15-.47.15a.6.6 0 0 1-.65-.65V69.7h-.4v-.25h.4v-.51h.3v.5h.68v.25h-.68v1.33a.36.36 0 0 0 .39.42c.12 0 .24-.04.33-.12l.1.24ZM94.1 68.71v2.99h-.26l-1.92-2.43v2.43h-.31v-2.99h.26l1.92 2.43V68.7h.31ZM96.73 70.3v1.4h-.3v-.34a.84.84 0 0 1-.77.36c-.5 0-.82-.26-.82-.65s.22-.63.87-.63h.72v-.14c0-.38-.22-.6-.64-.6-.27 0-.53.1-.74.27l-.14-.23c.27-.2.6-.31.93-.3a.8.8 0 0 1 .89.87Zm-.3.72v-.36h-.71c-.44 0-.58.17-.58.4s.21.42.57.42a.72.72 0 0 0 .72-.46ZM101.26 70.4v1.3h-.3v-1.27c0-.47-.25-.72-.65-.72a.73.73 0 0 0-.72.5c-.03.1-.04.2-.03.31v1.18h-.3v-1.27c0-.47-.25-.72-.66-.72a.72.72 0 0 0-.75.81v1.18h-.3v-2.25h.28v.43a.93.93 0 0 1 .82-.43.81.81 0 0 1 .8.47.97.97 0 0 1 .9-.47.85.85 0 0 1 .9.95ZM104.05 70.67h-1.86a.84.84 0 0 0 .56.74c.1.04.21.05.32.04a.88.88 0 0 0 .7-.3l.16.2a1.19 1.19 0 0 1-1.98-1.2 1.07 1.07 0 0 1 .6-.63c.14-.06.28-.09.43-.08a1.07 1.07 0 0 1 1.1 1.14c-.02.02-.03.05-.03.1Zm-1.86-.23h1.59a.8.8 0 0 0-1.6 0Z"/></g><path d="M54.9 153.86h-.44c0-.65.54-16.05 3.22-18.63 2.75-2.68 6-.04 6.02 0l-.28.34c-.12-.1-2.97-2.41-5.44 0-2.54 2.42-3.08 18.14-3.08 18.3Z" fill="#1E60F6"/><path d="m54.68 156.95-.44-.04c0-.19 1.73-18.69-4.97-26.39l.33-.28c6.83 7.83 5.1 26.53 5.08 26.71Z" fill="#1E60F6"/><path d="M54.9 154.98c-.07-.88-1.36-21.43 3.8-26.19l.3.33c-5 4.6-3.69 25.62-3.67 25.82l-.44.04Z" fill="#1E60F6"/><path d="M54.24 154.96c0-.14-.16-13.97-3.82-16.06a2.32 2.32 0 0 0-2.14-.22c-2.15.9-3.29 5-3.3 5.03l-.43-.11c.05-.18 1.22-4.35 3.56-5.32a2.75 2.75 0 0 1 2.52.24c3.88 2.22 4.05 15.84 4.05 16.44h-.44ZM55.75 154.97c-.03-.46-.6-10.92 2.37-14.8.8-1.03 1.67-1.52 2.62-1.45 2.11.15 3.73 3 3.82 3.13l-.38.22c0-.03-1.6-2.8-3.47-2.9-.79-.07-1.54.36-2.24 1.27-2.87 3.73-2.29 14.4-2.28 14.5l-.44.03Z" fill="#1E60F6"/><path d="m55.16 156.42-.44-.03c0-.25 1.86-25.21-1.21-29.38l.35-.26c3.18 4.3 1.38 28.64 1.3 29.67ZM47.26 140.76s1.9.7 1.34 2.36c-.57 1.65-6.58 4.38-6.58 4.38s-2.52-2.31-.21-6.06c2.32-3.75 5.4-1.86 5.45-.68Z" fill="#1E60F6"/><path opacity=".2" d="M47.26 140.76s1.9.7 1.34 2.36c-.57 1.65-6.58 4.38-6.58 4.38s-2.52-2.31-.21-6.06c2.32-3.75 5.4-1.86 5.45-.68Z" fill="#000"/><path d="M55.53 137.61s-2.02-.08-2.14 1.66c-.12 1.74 4.38 6.58 4.38 6.58s3.21-1.17 2.52-5.52c-.69-4.36-4.26-3.8-4.76-2.72Z" fill="#1E60F6"/><path opacity=".2" d="M55.53 137.61s-2.02-.08-2.14 1.66c-.12 1.74 4.38 6.58 4.38 6.58s3.21-1.17 2.52-5.52c-.69-4.36-4.26-3.8-4.76-2.72Z" fill="#000"/><path d="M57.25 129.25s-1.35-.14-1.25-.96c.1-.82 5.25-2.94 8.29.46 0 0-1.95 3.34-4.75 3.39-2.8.04-2.3-2.89-2.3-2.89Z" fill="#1E60F6"/><path opacity=".2" d="M57.25 129.25s-1.35-.14-1.25-.96c.1-.82 5.25-2.94 8.29.46 0 0-1.95 3.34-4.75 3.39-2.8.04-2.3-2.89-2.3-2.89Z" fill="#000"/><path d="M54.73 127.25s1.22.6 1.56-.16c.35-.75-2.9-5.27-7.28-3.97 0 0-.12 3.86 2.24 5.38 2.36 1.53 3.48-1.25 3.48-1.25Z" fill="#1E60F6"/><path opacity=".2" d="M54.73 127.25s1.22.6 1.56-.16c.35-.75-2.9-5.27-7.28-3.97 0 0-.12 3.86 2.24 5.38 2.36 1.53 3.48-1.25 3.48-1.25Z" fill="#000"/><path d="M61.12 140.1s-.93-.76.08-1.13c1-.36 5.94-.26 5.99 4.63 0 0-5.75.96-6.46-.9-.7-1.87.4-2.6.4-2.6Z" fill="#1E60F6"/><path opacity=".2" d="M61.12 140.1s-.93-.76.08-1.13c1-.36 5.94-.26 5.99 4.63 0 0-5.75.96-6.46-.9-.7-1.87.4-2.6.4-2.6Z" fill="#000"/><path d="M49.38 129.13s.93-.75-.07-1.12c-1-.36-5.94-.26-6 4.62 0 0 5.76.96 6.46-.9.71-1.86-.39-2.6-.39-2.6Z" fill="#1E60F6"/><path opacity=".2" d="M49.38 129.13s.93-.75-.07-1.12c-1-.36-5.94-.26-6 4.62 0 0 5.76.96 6.46-.9.71-1.86-.39-2.6-.39-2.6Z" fill="#000"/><path d="M52.44 133.07s.08-.93-.66-.56c-.74.38-3.3 3.14-.64 5.77 0 0 3.59-2.66 2.94-4.04-.65-1.39-1.64-1.17-1.64-1.17Z" fill="#1E60F6"/><path opacity=".2" d="M52.44 133.07s.08-.93-.66-.56c-.74.38-3.3 3.14-.64 5.77 0 0 3.59-2.66 2.94-4.04-.65-1.39-1.64-1.17-1.64-1.17Z" fill="#000"/><path d="M61.96 134.37s-.56-.73.26-.82c.82-.09 4.47.89 3.62 4.54 0 0-4.45-.34-4.66-1.86-.2-1.53.78-1.86.78-1.86Z" fill="#1E60F6"/><path opacity=".2" d="M61.96 134.37s-.56-.73.26-.82c.82-.09 4.47.89 3.62 4.54 0 0-4.45-.34-4.66-1.86-.2-1.53.78-1.86.78-1.86Z" fill="#000"/><path d="M47.59 168.51h14.4l1.91-14H45.68l1.91 14Z" fill="#263238"/><path opacity=".2" d="M47.59 168.51h14.4l1.91-14H45.68l1.91 14Z" fill="#fff"/><path d="M65.71 153.37v1.33a1.61 1.61 0 0 1-1.6 1.61H45.3a1.61 1.61 0 0 1-1.62-1.6v-1.34h22.02Z" fill="#263238"/><path d="M183.38 92.5s-8.1-1.02-20.4 2.33c0 0-1.97-21.96-1.74-24.98.23-3.02 18.98-2.13 18.98-2.13s.46 8.79 1.68 14.09c1.22 5.3 2.12 9.67 1.48 10.7Z" fill="#1E60F6"/><path opacity=".2" d="M183.38 92.5s-8.1-1.02-20.4 2.33c0 0-1.97-21.96-1.74-24.98.23-3.02 18.98-2.13 18.98-2.13s.46 8.79 1.68 14.09c1.22 5.3 2.12 9.67 1.48 10.7Z" fill="#000"/><path d="m157.06 165.2 3.3.94.79-5.15.42-2.75-3.3-.94-.57 3.7-.64 4.2ZM176.07 165.47l3.41.46.04-4.94.02-3.06-3.41-.45-.03 3.51-.03 4.48Z" fill="#E4897B"/><path opacity=".2" d="m176.13 157.48-.03 3.51h3.42l.02-3.06-3.41-.45ZM157.7 161h3.45l.42-2.76-3.3-.94-.57 3.7Z" fill="#000"/><path d="m142.37 71.65-3.28-.97.6 3.75s2.98.69 3.26-.86l-.58-1.92Z" fill="#E4897B"/><path d="m135.8 71.56 1.62 3.04 2.27-.17-.6-3.75-3.28.88ZM146.9 72.61l-5.39-1.2-.49 2.61 4.9 1.2.99-2.6Z" fill="#E4897B"/><path d="m163.22 70.25-.31.37a65.1 65.1 0 0 1-4.05 4.38c-1.4 1.35-2.8 2.53-3.73 2.77-2.64.68-12.24-2.15-12.24-2.15l1-3.9s8.94 1.2 9.63 1.2c.53 0 5.97-7.89 7.29-8.53l2.41 5.86Z" fill="#1E60F6"/><path opacity=".2" d="M162.9 70.62c-.67.8-2.32 2.72-4.04 4.38.34-2.73 1.35-5.23 2.66-6.82.13-.15.27-.29.42-.4l.97 2.84Z" fill="#000"/><path d="m157.1 164.69 3.75-.1a.3.3 0 0 1 .3.22l.8 3.03v.22a.49.49 0 0 1-.26.34.5.5 0 0 1-.21.06c-1.36 0-3.32 0-5.02.03-2 .06-3.26-.04-5.6 0-1.39.04-1.86-1.37-1.26-1.51 2.67-.66 4.42-.53 6.7-2.02.23-.16.5-.26.8-.28Z" fill="#263238"/><path d="M156.77 165.17c-.55.12-1.53.28-1.92-.04a.47.47 0 0 1-.16-.39.25.25 0 0 1 .12-.22c.41-.25 1.82.42 1.98.5a.09.09 0 0 1 .05.07l-.02.05a.07.07 0 0 1-.05.03Zm-1.86-.52h-.03a.1.1 0 0 0-.05.09c0 .05 0 .1.02.14a.3.3 0 0 0 .09.12c.22.18.78.2 1.54.05-.55-.23-1.3-.5-1.56-.4h-.01Z" fill="#1E60F6"/><path d="M156.77 165.17h-.06c-.42-.18-1.27-.9-1.22-1.28 0-.1.07-.21.3-.24a.64.64 0 0 1 .46.13c.47.35.58 1.26.59 1.3l-.01.04a.1.1 0 0 1-.03.04l-.03.01Zm-1.04-1.34c-.07.03-.08.06-.08.08-.03.23.55.8.99 1.04-.05-.39-.23-.76-.5-1.04a.43.43 0 0 0-.15-.09.43.43 0 0 0-.26.01Z" fill="#1E60F6"/><path d="m176.2 164.69 3.76-.1a.3.3 0 0 1 .3.22l.8 3.03a.49.49 0 0 1-.26.56.49.49 0 0 1-.21.06c-1.36 0-3.32 0-5.03.03-1.99.06-3.26-.04-5.59 0-1.4.04-1.86-1.37-1.26-1.51 2.67-.66 4.4-.53 6.68-2.02.25-.17.53-.26.82-.28Z" fill="#263238"/><path d="M175.88 165.17c-.54.12-1.53.28-1.91-.04a.47.47 0 0 1-.17-.39.25.25 0 0 1 .12-.22c.41-.25 1.82.42 1.98.5l.04.03v.04a.09.09 0 0 1-.06.08Zm-1.86-.52H174a.1.1 0 0 0-.03.04.1.1 0 0 0-.01.05.3.3 0 0 0 .1.26c.22.18.79.2 1.55.05-.56-.23-1.32-.5-1.57-.4Z" fill="#1E60F6"/><path d="M175.88 165.17h-.06c-.41-.18-1.27-.9-1.22-1.28 0-.1.07-.21.3-.24a.62.62 0 0 1 .46.13 2.32 2.32 0 0 1 .58 1.34c0 .02-.01.03-.03.04l-.03.01Zm-1.04-1.34c-.07.03-.07.06-.07.08-.04.23.55.8.98 1.04a1.92 1.92 0 0 0-.5-1.04.43.43 0 0 0-.33-.1l-.08.02Z" fill="#1E60F6"/><path d="M183.1 90.5c1.81 7.83-1.29 69.44-1.29 69.44h-6l-2.55-51.34-9.44 51.34-6.4-.47c4.2-39.77 7.89-63.52 7.89-63.52v-3l17.8-2.45Z" fill="#263238"/><path opacity=".4" d="m157.42 159.47 6.4.47 7.43-40.42 2-10.92 2.57 51.34h5.99s3.1-61.61 1.3-69.44l-17.81 2.45v3s-3.7 23.75-7.88 63.52Z" fill="#fff"/><path d="M179.88 61.5c-.19 3.74-.1 7.49.28 11.22.25 2.6.6 5.07.97 7.3.86 5.2 1.84 9.12 1.98 10.48l-17.81 2.46c-6.5-18.17-4.05-28.73-4.05-28.73a34.86 34.86 0 0 1 4.98-1.62 66.7 66.7 0 0 1 9.02-1.14c2.43-.12 4.63.02 4.63.02Z" fill="#263238"/><path d="M170.35 53.32c.13 2.49.4 7.17 2.47 8.35 0 0-1.3 2.46-4.09 2.71-2.1.19-1.97-1.9-1.97-1.9 1.22-.9.94-2.44 0-4.19l3.59-4.97Z" fill="#E4897B"/><path opacity=".2" d="m168.88 55.35-2.1 2.94c.22.4.4.83.56 1.26.97-.4 2.1-1.86 1.93-2.93a3.62 3.62 0 0 0-.39-1.27Z" fill="#000"/><path d="M161.26 48.3c-.4 1.3-.18 3.95 1.62 3.09 1.8-.86-.92-5.31-1.62-3.09Z" fill="#263238"/><path d="M170.58 50.05c.2 3.32.46 5.26-.98 7.14-2.2 2.83-6.47 1.77-7.67-1.43-1.07-2.89-1.21-7.84 1.87-9.51a4.6 4.6 0 0 1 6.78 3.8Z" fill="#E4897B"/><path d="M168.25 48.24v-3.72s3.95-.3 3.77 1.73c2.2 1.08 1.16 4.49-1.78 6.15-1.61-1.29-1.43-4.39-1.43-4.39-.17.09-.36.16-.56.23Z" fill="#263238"/><path d="M172.19 52.64a3.1 3.1 0 0 1-1.33 2.01c-.93.61-1.74-.14-1.77-1.19-.03-.93.42-2.4 1.49-2.59a1.44 1.44 0 0 1 1.6 1.77Z" fill="#E4897B"/><path d="M165.68 51.53c.03.27-.09.5-.27.52-.17.02-.34-.18-.37-.46-.04-.29.08-.5.25-.52.18-.02.35.17.39.46ZM162.63 51.87c.03.27-.09.5-.26.53-.18.01-.35-.19-.38-.47-.03-.28.08-.5.26-.52.18-.02.34.2.38.46Z" fill="#263238"/><path d="M163.6 51.9a9.36 9.36 0 0 1-1.03 2.36 1.6 1.6 0 0 0 1.3.07l-.26-2.43Z" fill="#DE5753"/><path d="M165.45 55.2c-.11.03-.23.05-.35.06-.02 0-.04 0-.05-.02a.08.08 0 0 1-.03-.05c0-.03.01-.05.03-.06a.08.08 0 0 1 .05-.02 2.15 2.15 0 0 0 1.66-1.05l.03-.02h.06l.02.02.02.03v.06a2.2 2.2 0 0 1-1.44 1.05ZM166.5 50.45a.17.17 0 0 1-.16-.05 1.3 1.3 0 0 0-1.14-.41.16.16 0 0 1-.1-.07.17.17 0 0 1-.03-.12.16.16 0 0 1 .13-.12 1.6 1.6 0 0 1 1.4.55.16.16 0 0 1 0 .13.17.17 0 0 1-.1.09ZM161.19 50.97a.13.13 0 0 1-.1 0 .16.16 0 0 1-.1-.2 1.55 1.55 0 0 1 1.04-1.01c.04-.01.08 0 .12.02.03.02.06.05.07.1.01.03 0 .08-.02.11a.16.16 0 0 1-.1.08 1.22 1.22 0 0 0-.8.8c0 .03-.02.05-.04.07a.15.15 0 0 1-.07.03ZM170 49.62s-2.33-.85-3.39-2.2c0 0-2.12.55-2.55 1.4a1.05 1.05 0 0 1-.18-1.4s-1.58.34-1.9 1.4a1.33 1.33 0 0 1-.74-1.4s-.7.27-.93 1.4c0 0-1.75-3.65 4.02-4.69a4.3 4.3 0 0 0-1.35-.23s4.03-1.62 7.22-.14c3.19 1.49 2.63 4.37-.2 5.86Z" fill="#263238"/><path d="m184.48 93.64-5.59.74s-2.3-16.11-3.32-21.31V61.96l2.92-.77 2.26.77a54.4 54.4 0 0 1 1.44 6.8c.27 1.74.52 3.6.74 5.5.3 2.56.55 5.18.76 7.63a355.35 355.35 0 0 1 .8 11.75Z" fill="#1E60F6"/><path d="M175.57 73.06s.47-7.84 2.93-11.89c0 0-.07-1.15-.56-1.34-.48-.19-2.37.93-2.37.93s-1.16-.8-1.42-.43c-.26.38-.88 2.85 1.42 12.73Z" fill="#1E60F6"/><path opacity=".7" d="M175.57 73.06s.47-7.84 2.93-11.89c0 0-.07-1.15-.56-1.34-.48-.19-2.37.93-2.37.93s-1.16-.8-1.42-.43c-.26.38-.88 2.85 1.42 12.73Z" fill="#fff"/><path d="m162.87 95.79.63.46s-.93-5.2-.54-18.33c0-.63.04-1.24.06-1.83.47-11.11 2.2-13.13 2.33-13.26l-1.61.55-2.92 1.01c-.88 9.48 2.05 31.4 2.05 31.4Z" fill="#1E60F6"/><path d="M163.12 74.18s-1.62-7.62-1.14-10.25c.48-2.63 2.2-1.46 2.2-1.46s1.58-1.27 2.05.13c0 0-2.17 1.53-3.11 11.58Z" fill="#1E60F6"/><path opacity=".7" d="M163.12 74.18s-1.62-7.62-1.14-10.25c.48-2.63 2.2-1.46 2.2-1.46s1.58-1.27 2.05.13c0 0-2.17 1.53-3.11 11.58Z" fill="#fff"/><path opacity=".2" d="M182.92 74.23c-2.39-1.33-2.7-4.82-2.7-4.82.14-.06 1.02-.36 1.96-.67.27 1.74.52 3.6.74 5.5ZM171.25 119.52l2-10.92-.38-5.78s-2.75 10.02-1.62 16.7ZM184.36 91.47l-2.8-.2-.28-6.1c.47-.3 1.03-.4 1.57-.3.37-.96.65-1.97.84-3 .32 3.96.55 7.46.67 9.6Z" fill="#000"/><path d="m184.88 81.87-2.92 4.7 2.3 1.32 2.75-4.23-2.13-1.79Z" fill="#E4897B"/><path d="M180.63 61.88c1.97.22 10.32 11.69 10.69 15.14.37 3.46-4.91 9.43-4.91 9.43l-3.52-2.07s3.58-5.5 3.76-7c.19-1.48-6.54-7.48-6.54-7.48-.51-1.39-.8-2.84-.83-4.32-.1-2.52 1.35-3.7 1.35-3.7ZM181.28 85.17s3 .65 4.22 2.54c0 0-1.26 3.93-2.16 4.36-.9.43-3.12.43-3.12.43s-.15-4.38 1.06-7.33Z" fill="#1E60F6"/></svg>