<svg width="524" height="391" viewBox="0 0 524 391" fill="none" xmlns="http://www.w3.org/2000/svg">
<g clip-path="url(#clip0_1093_35404)">
<path d="M523.5 342.99H0.5V343.252H523.5V342.99Z" fill="#E0E0E0"/>
<path d="M395.532 354.067H359.55V354.329H395.532V354.067Z" fill="#E0E0E0"/>
<path d="M116.648 354.193H96.3975V354.455H116.648V354.193Z" fill="#E0E0E0"/>
<path d="M263.046 353.587H222.001V353.848H263.046V353.587Z" fill="#E0E0E0"/>
<path d="M220.955 349.863H202.608V350.125H220.955V349.863Z" fill="#E0E0E0"/>
<path d="M444.59 349.999H389.162V350.26H444.59V349.999Z" fill="#E0E0E0"/>
<path d="M248.402 296.339H46.43C44.8477 296.336 43.3313 295.706 42.2134 294.586C41.0956 293.466 40.4678 291.949 40.4678 290.366V6.45063C40.4815 4.87748 41.1154 3.37328 42.2318 2.26477C43.3481 1.15626 44.8568 0.532968 46.43 0.530273H248.402C249.986 0.530273 251.505 1.15953 252.625 2.27963C253.745 3.39972 254.375 4.91889 254.375 6.50293V290.366C254.375 291.951 253.745 293.47 252.625 294.59C251.505 295.71 249.986 296.339 248.402 296.339ZM46.43 0.739474C44.9171 0.742245 43.4671 1.34518 42.3983 2.41593C41.3295 3.48668 40.7293 4.93775 40.7293 6.45063V290.366C40.7293 291.879 41.3295 293.33 42.3983 294.401C43.4671 295.472 44.9171 296.075 46.43 296.078H248.402C249.916 296.075 251.367 295.472 252.437 294.402C253.508 293.331 254.111 291.88 254.113 290.366V6.45063C254.111 4.93679 253.508 3.48574 252.437 2.41529C251.367 1.34484 249.916 0.742239 248.402 0.739474H46.43Z" fill="#E0E0E0"/>
<path d="M474.662 296.339H272.68C271.096 296.336 269.579 295.706 268.459 294.587C267.34 293.467 266.71 291.95 266.707 290.366V6.45063C266.724 4.87652 267.36 3.37234 268.478 2.26412C269.596 1.1559 271.105 0.532939 272.68 0.530273H474.662C476.234 0.535717 477.74 1.16023 478.854 2.26844C479.968 3.37666 480.6 4.87928 480.614 6.45063V290.366C480.614 291.947 479.988 293.463 478.872 294.582C477.757 295.702 476.243 296.334 474.662 296.339ZM272.68 0.739474C271.166 0.742239 269.715 1.34484 268.644 2.41529C267.574 3.48574 266.971 4.93679 266.969 6.45063V290.366C266.971 291.88 267.574 293.331 268.644 294.402C269.715 295.472 271.166 296.075 272.68 296.078H474.662C476.176 296.075 477.627 295.472 478.698 294.402C479.768 293.331 480.371 291.88 480.373 290.366V6.45063C480.371 4.93679 479.768 3.48574 478.698 2.41529C477.627 1.34484 476.176 0.742239 474.662 0.739474H272.68Z" fill="#E0E0E0"/>
<path d="M460.018 212.063C447.152 192.472 458.899 171.416 456.943 149.617C454.987 127.818 434.276 123.07 438.198 104.639C442.738 83.217 430.636 62.6631 416.923 62.6631C403.21 62.6631 391.118 83.1647 395.658 104.608C399.58 123.07 378.922 127.829 376.913 149.586C374.905 171.342 386.704 192.472 373.828 212.032C360.951 231.592 364.34 257.564 371.589 270.441C373.517 273.857 375.842 277.034 378.514 279.907C383.426 285.181 389.372 289.387 395.981 292.262C402.59 295.138 409.72 296.622 416.928 296.622C424.135 296.622 431.266 295.138 437.875 292.262C444.484 289.387 450.43 285.181 455.342 279.907C458.008 277.031 460.328 273.854 462.256 270.441C469.516 257.596 472.894 231.697 460.018 212.063Z" fill="#E0E0E0"/>
<path d="M416.923 226.927C417.777 226.927 418.624 227.095 419.413 227.422C420.202 227.749 420.919 228.228 421.524 228.832C422.128 229.437 422.607 230.154 422.934 230.943C423.261 231.732 423.429 232.578 423.429 233.433V342.991H410.417V233.433C410.417 232.578 410.585 231.732 410.912 230.943C411.239 230.154 411.718 229.437 412.323 228.832C412.927 228.228 413.644 227.749 414.433 227.422C415.223 227.095 416.069 226.927 416.923 226.927Z" fill="#F0F0F0"/>
<path d="M335.125 342.991H317.438V233.444C317.443 231.096 318.378 228.845 320.039 227.185C321.699 225.525 323.949 224.59 326.297 224.584C328.645 224.59 330.895 225.525 332.556 227.185C334.216 228.845 335.151 231.096 335.157 233.444L335.125 342.991Z" fill="#E0E0E0"/>
<path d="M326.266 313.441C356.404 313.441 380.836 289.01 380.836 258.872C380.836 228.734 356.404 204.302 326.266 204.302C296.128 204.302 271.696 228.734 271.696 258.872C271.696 289.01 296.128 313.441 326.266 313.441Z" fill="#F0F0F0"/>
<path d="M390.389 242.497C393.253 230.97 386.229 219.304 374.702 216.441C363.175 213.577 351.51 220.601 348.646 232.128C345.783 243.655 352.806 255.32 364.333 258.184C375.86 261.047 387.526 254.024 390.389 242.497Z" fill="#F0F0F0"/>
<path d="M294.688 226.623C295.819 219.684 291.109 213.142 284.17 212.012C277.231 210.882 270.69 215.591 269.56 222.53C268.43 229.469 273.139 236.011 280.078 237.141C287.017 238.271 293.558 233.562 294.688 226.623Z" fill="#F0F0F0"/>
<path d="M295.974 226.926C300.907 226.926 304.907 222.927 304.907 217.993C304.907 213.06 300.907 209.061 295.974 209.061C291.04 209.061 287.041 213.06 287.041 217.993C287.041 222.927 291.04 226.926 295.974 226.926Z" fill="#F0F0F0"/>
<path d="M201.604 60.2991C206.907 44.7451 202.65 33.668 189.711 33.668C181.573 33.668 171.479 38.0298 161.647 45.1217C160.538 41.0736 157.41 38.6574 152.379 38.6574C143.519 38.6574 131.313 46.1467 121.742 56.7113C119.047 54.1512 115.48 52.7116 111.763 52.6843C103.28 52.2031 93.0185 56.5126 84.0961 63.5104C83.6491 62.8846 83.0588 62.3749 82.3746 62.0237C81.6905 61.6725 80.9322 61.4901 80.1632 61.4916C75.2784 61.2196 68.6572 65.571 65.3832 71.1985C65.1845 71.5436 65.0066 71.8888 64.8184 72.2444H204.177C204.595 67.3283 203.727 63.2279 201.604 60.2991Z" fill="#F0F0F0"/>
<path d="M202.033 154.742C204.627 147.148 202.566 141.74 196.227 141.74C192.242 141.74 187.315 143.832 182.514 147.336C182.256 146.36 181.658 145.508 180.828 144.933C179.998 144.358 178.99 144.098 177.985 144.198C173.665 144.198 167.703 147.859 163.017 153.027C161.703 151.772 159.959 151.068 158.142 151.06C153.958 150.82 148.99 152.922 144.628 156.342C144.417 156.04 144.137 155.791 143.812 155.617C143.486 155.443 143.125 155.347 142.756 155.338C140.371 155.202 137.139 157.326 135.538 160.077L135.256 160.579H203.33C203.614 158.54 203.154 156.468 202.033 154.742Z" fill="#F0F0F0"/>
<path d="M359.037 97.2745C358.5 97.1991 357.958 97.1606 357.416 97.1595C357.918 89.576 355.02 84.7225 348.818 84.7225C344.351 84.7225 338.86 87.2538 333.274 91.532C334.874 76.8043 329.749 67.2334 318.138 67.2334C308.787 67.2334 296.936 73.5094 285.231 83.6138C284.185 77.8398 280.754 74.3671 274.959 74.3671C264.782 74.3671 250.316 85.0782 238.716 100.182C237.394 98.4407 235.698 97.0171 233.755 96.0162C231.811 95.0153 229.667 94.4623 227.482 94.398C217.796 93.7181 205.756 99.8686 195.056 109.889C194.666 109.044 194.047 108.326 193.268 107.817C192.489 107.309 191.582 107.03 190.652 107.013C185.349 106.636 178.1 112.17 173.801 119.565H367.562C372.112 108.352 368.493 98.5402 359.037 97.2745Z" fill="#F0F0F0"/>
<path d="M262 390.227C374.009 390.227 464.809 384.926 464.809 378.387C464.809 371.847 374.009 366.546 262 366.546C149.992 366.546 59.1914 371.847 59.1914 378.387C59.1914 384.926 149.992 390.227 262 390.227Z" fill="#F5F5F5"/>
<path d="M72 89.9678L236.93 113.712L259.061 136.046L72 89.9678Z" fill="#1E60F6"/>
<path opacity="0.6" d="M72 89.9678L236.93 113.712L259.061 136.046L72 89.9678Z" fill="white"/>
<path d="M72 89.9678L236.93 113.712L229.276 146.008L72 89.9678Z" fill="#1E60F6"/>
<path opacity="0.2" d="M72 89.9678L236.93 113.712L229.276 146.008L72 89.9678Z" fill="black"/>
<path d="M225.89 52.5786L235.462 97.434C235.711 98.6053 235.485 99.8275 234.834 100.832C234.183 101.838 233.16 102.543 231.989 102.795L146.561 121.026C145.39 121.273 144.169 121.047 143.164 120.396C142.16 119.745 141.454 118.724 141.2 117.554L131.622 72.6984C131.375 71.5263 131.602 70.3041 132.255 69.2994C132.907 68.2947 133.93 67.5893 135.102 67.3375L220.529 49.106C221.701 48.8592 222.924 49.0868 223.928 49.739C224.933 50.3911 225.638 51.4148 225.89 52.5859V52.5786Z" fill="#1E60F6"/>
<path opacity="0.4" d="M225.89 52.5786L235.462 97.434C235.711 98.6053 235.485 99.8275 234.834 100.832C234.183 101.838 233.16 102.543 231.989 102.795L146.561 121.026C145.39 121.273 144.169 121.047 143.164 120.396C142.16 119.745 141.454 118.724 141.2 117.554L131.622 72.6984C131.375 71.5263 131.602 70.3041 132.255 69.2994C132.907 68.2947 133.93 67.5893 135.102 67.3375L220.529 49.106C221.701 48.8592 222.924 49.0868 223.928 49.739C224.933 50.3911 225.638 51.4148 225.89 52.5859V52.5786Z" fill="black"/>
<path d="M223.784 49.6414L195.243 84.6792C192.597 87.9277 188.92 90.1752 184.822 91.0501C180.724 91.9249 176.45 91.3747 172.707 89.4903L132.345 69.1607C132.998 68.2226 133.983 67.5682 135.101 67.3303L220.529 49.0988C221.644 48.8615 222.807 49.0554 223.784 49.6414Z" fill="#1E60F6"/>
<path d="M72 89.9678L208.035 122.3L229.276 146.008L72 89.9678Z" fill="#1E60F6"/>
<path opacity="0.6" d="M72 89.9678L208.035 122.3L229.276 146.008L72 89.9678Z" fill="white"/>
<path d="M121.622 121.132L121.257 121.756L136.395 130.623L136.761 129.999L121.622 121.132Z" fill="#1E60F6"/>
<path d="M143.444 133.908L143.078 134.532L148.522 137.721L148.887 137.097L143.444 133.908Z" fill="#1E60F6"/>
<path d="M72 89.9678L208.035 122.3L181.592 154.169L72 89.9678Z" fill="#1E60F6"/>
<path d="M253.954 165.716C253.77 165.716 253.589 165.682 253.418 165.614L231.266 156.846C230.911 156.703 230.628 156.426 230.477 156.075C230.326 155.724 230.32 155.327 230.461 154.972C230.601 154.616 230.876 154.331 231.226 154.178C231.576 154.025 231.973 154.016 232.329 154.154L254.489 162.923C254.803 163.047 255.063 163.276 255.225 163.572C255.388 163.867 255.442 164.21 255.378 164.541C255.315 164.872 255.138 165.171 254.878 165.385C254.618 165.599 254.291 165.716 253.954 165.716Z" fill="#1E60F6"/>
<path opacity="0.3" d="M253.954 165.716C253.77 165.716 253.589 165.682 253.418 165.614L231.266 156.846C230.911 156.703 230.628 156.426 230.477 156.075C230.326 155.724 230.32 155.327 230.461 154.972C230.601 154.616 230.876 154.331 231.226 154.178C231.576 154.025 231.973 154.016 232.329 154.154L254.489 162.923C254.803 163.047 255.063 163.276 255.225 163.572C255.388 163.867 255.442 164.21 255.378 164.541C255.315 164.872 255.138 165.171 254.878 165.385C254.618 165.599 254.291 165.716 253.954 165.716Z" fill="black"/>
<path d="M252.643 153.012C252.462 153.01 252.282 152.974 252.115 152.903L240.214 148.164C240.036 148.095 239.874 147.992 239.736 147.86C239.598 147.728 239.488 147.57 239.411 147.395C239.335 147.22 239.294 147.032 239.29 146.841C239.287 146.65 239.321 146.461 239.391 146.283C239.461 146.106 239.566 145.944 239.699 145.807C239.832 145.67 239.991 145.561 240.166 145.486C240.341 145.41 240.53 145.37 240.72 145.368C240.911 145.366 241.101 145.402 241.278 145.473L253.179 150.19C253.535 150.33 253.822 150.607 253.975 150.958C254.128 151.309 254.136 151.707 253.996 152.064C253.894 152.341 253.71 152.58 253.468 152.75C253.227 152.919 252.939 153.01 252.643 153.012Z" fill="#1E60F6"/>
<path opacity="0.5" d="M252.643 153.012C252.462 153.01 252.282 152.974 252.115 152.903L240.214 148.164C240.036 148.095 239.874 147.992 239.736 147.86C239.598 147.728 239.488 147.57 239.411 147.395C239.335 147.22 239.294 147.032 239.29 146.841C239.287 146.65 239.321 146.461 239.391 146.283C239.461 146.106 239.566 145.944 239.699 145.807C239.832 145.67 239.991 145.561 240.166 145.486C240.341 145.41 240.53 145.37 240.72 145.368C240.911 145.366 241.101 145.402 241.278 145.473L253.179 150.19C253.535 150.33 253.822 150.607 253.975 150.958C254.128 151.309 254.136 151.707 253.996 152.064C253.894 152.341 253.71 152.58 253.468 152.75C253.227 152.919 252.939 153.01 252.643 153.012Z" fill="white"/>
<path d="M227.764 165.528C227.583 165.526 227.404 165.491 227.235 165.426L205.625 156.846C205.447 156.777 205.285 156.674 205.147 156.541C205.009 156.409 204.899 156.251 204.822 156.077C204.746 155.902 204.705 155.714 204.701 155.523C204.698 155.332 204.732 155.142 204.802 154.965C204.873 154.788 204.977 154.626 205.11 154.489C205.243 154.352 205.402 154.243 205.577 154.167C205.752 154.092 205.941 154.052 206.132 154.05C206.322 154.048 206.512 154.083 206.689 154.155L228.299 162.706C228.612 162.83 228.873 163.059 229.035 163.355C229.198 163.65 229.252 163.993 229.188 164.324C229.125 164.655 228.948 164.954 228.688 165.168C228.427 165.383 228.101 165.499 227.764 165.499V165.528Z" fill="#1E60F6"/>
<path opacity="0.3" d="M227.764 165.528C227.583 165.526 227.404 165.491 227.235 165.426L205.625 156.846C205.447 156.777 205.285 156.674 205.147 156.541C205.009 156.409 204.899 156.251 204.822 156.077C204.746 155.902 204.705 155.714 204.701 155.523C204.698 155.332 204.732 155.142 204.802 154.965C204.873 154.788 204.977 154.626 205.11 154.489C205.243 154.352 205.402 154.243 205.577 154.167C205.752 154.092 205.941 154.052 206.132 154.05C206.322 154.048 206.512 154.083 206.689 154.155L228.299 162.706C228.612 162.83 228.873 163.059 229.035 163.355C229.198 163.65 229.252 163.993 229.188 164.324C229.125 164.655 228.948 164.954 228.688 165.168C228.427 165.383 228.101 165.499 227.764 165.499V165.528Z" fill="black"/>
<path d="M342.926 115.402C345.698 120.81 348.24 126.228 350.656 131.772C353.072 137.316 355.321 142.933 357.288 148.822L357.999 151.05C358.124 151.447 358.302 152.096 358.407 152.556C358.511 153.017 358.606 153.54 358.658 153.979C358.897 155.666 359.02 157.368 359.024 159.073C359.04 162.216 358.893 165.359 358.585 168.487C358 174.543 357.05 180.558 355.739 186.499L349.997 185.861C349.924 179.972 349.871 174.02 349.662 168.215C349.568 165.328 349.401 162.431 349.108 159.711C348.975 158.434 348.766 157.166 348.48 155.914C348.428 155.621 348.344 155.401 348.282 155.161C348.219 154.92 348.156 154.837 348.051 154.523L347.256 152.546C345.07 147.253 342.612 141.918 340.102 136.605L332.508 120.664L342.926 115.402Z" fill="#FABDB4"/>
<path d="M350.081 184.02L347.403 189.03L355.96 191.415C355.96 191.415 357.591 187.388 355.646 184.208L350.081 184.02Z" fill="#FABDB4"/>
<path d="M344.129 196.248L351.995 196.875L355.959 191.415L347.403 189.03L344.129 196.248Z" fill="#FABDB4"/>
<path d="M306.913 79.252C306.798 79.8692 306.369 80.298 305.971 80.2143C305.574 80.1307 305.354 79.5763 305.48 78.9696C305.605 78.3629 306.024 77.9236 306.421 78.0073C306.818 78.091 307.049 78.6453 306.913 79.252Z" fill="#263238"/>
<path d="M306.431 80.2979C305.326 82.0091 303.993 83.5612 302.467 84.9107C302.823 85.2897 303.257 85.5869 303.739 85.7819C304.221 85.9769 304.74 86.0651 305.26 86.0404L306.431 80.2979Z" fill="#DE5753"/>
<path d="M309.82 76.3339C309.721 76.3314 309.628 76.29 309.559 76.2188C309.258 75.8751 308.881 75.607 308.458 75.4362C308.034 75.2654 307.577 75.1966 307.122 75.2356C307.035 75.2364 306.951 75.2065 306.884 75.1511C306.817 75.0957 306.773 75.0185 306.758 74.9331C306.742 74.8478 306.758 74.7598 306.802 74.685C306.846 74.6101 306.914 74.5532 306.996 74.5243C307.578 74.4506 308.169 74.5219 308.716 74.7317C309.264 74.9416 309.751 75.2836 310.134 75.7272C310.201 75.7956 310.239 75.8877 310.239 75.9835C310.239 76.0793 310.201 76.1713 310.134 76.2397C310.092 76.2781 310.042 76.3064 309.988 76.3227C309.934 76.339 309.876 76.3428 309.82 76.3339Z" fill="#263238"/>
<path d="M324.213 87.7979C323.114 93.4253 322.016 103.718 325.949 107.473C325.949 107.473 324.411 113.174 313.962 113.174C302.456 113.174 308.481 107.473 308.481 107.473C314.757 105.977 314.579 101.323 313.491 96.9608L324.213 87.7979Z" fill="#FABDB4"/>
<path d="M327.529 111.019C328.355 108.268 329.265 105.12 327.382 104.126C325.29 103.08 313.92 101.929 309.998 103.969C306.075 106.009 307.195 111.605 307.195 111.605L327.529 111.019Z" fill="#263238"/>
<path d="M351.65 371.861C351.325 371.904 350.995 371.882 350.679 371.796C350.363 371.709 350.067 371.561 349.809 371.359C349.718 371.232 349.669 371.08 349.669 370.924C349.669 370.769 349.718 370.617 349.809 370.49C349.869 370.382 349.951 370.288 350.05 370.214C350.15 370.14 350.263 370.088 350.384 370.062C351.514 369.81 353.627 371.254 353.721 371.317C353.748 371.339 353.769 371.369 353.782 371.401C353.795 371.434 353.799 371.47 353.794 371.505C353.788 371.539 353.772 371.57 353.748 371.595C353.723 371.619 353.692 371.635 353.658 371.641C352.998 371.783 352.325 371.857 351.65 371.861ZM350.688 370.396H350.468C350.397 370.411 350.33 370.441 350.273 370.484C350.215 370.528 350.167 370.583 350.133 370.647C349.966 370.94 350.071 371.066 350.133 371.108C350.458 371.547 352.027 371.547 353.177 371.359C352.428 370.864 351.577 370.542 350.688 370.417V370.396Z" fill="#1E60F6"/>
<path d="M353.616 371.672H353.533C352.738 371.232 351.2 369.58 351.357 368.701C351.384 368.565 351.457 368.443 351.563 368.355C351.67 368.268 351.804 368.22 351.943 368.22C352.08 368.205 352.22 368.218 352.353 368.257C352.486 368.297 352.609 368.362 352.717 368.45C353.606 369.182 353.763 371.4 353.763 371.494C353.767 371.527 353.761 371.561 353.746 371.59C353.731 371.62 353.708 371.645 353.679 371.661C353.659 371.669 353.638 371.673 353.616 371.672ZM352.068 368.534H352.026C351.786 368.534 351.765 368.68 351.754 368.722C351.66 369.235 352.643 370.5 353.428 371.096C353.375 370.223 353.062 369.385 352.528 368.691C352.458 368.636 352.377 368.595 352.291 368.572C352.205 368.548 352.115 368.543 352.026 368.555L352.068 368.534Z" fill="#1E60F6"/>
<path d="M305.51 371.861C304.527 371.861 303.575 371.725 303.251 371.285C303.169 371.169 303.125 371.03 303.125 370.888C303.125 370.746 303.169 370.607 303.251 370.49C303.314 370.383 303.399 370.289 303.5 370.216C303.6 370.142 303.715 370.09 303.837 370.061C305.102 369.716 307.801 371.243 307.916 371.306C307.947 371.326 307.971 371.354 307.986 371.388C308.001 371.421 308.006 371.458 308 371.494C307.994 371.531 307.976 371.565 307.95 371.591C307.924 371.617 307.89 371.635 307.853 371.641C307.081 371.786 306.296 371.86 305.51 371.861ZM304.286 370.375C304.172 370.359 304.056 370.359 303.941 370.375C303.868 370.39 303.798 370.42 303.737 370.463C303.675 370.506 303.624 370.562 303.586 370.626C303.45 370.856 303.502 370.961 303.586 371.024C303.931 371.505 305.876 371.536 307.32 371.338C306.379 370.83 305.349 370.51 304.286 370.396V370.375Z" fill="#1E60F6"/>
<path d="M307.833 371.672H307.76C306.829 371.264 304.998 369.58 305.134 368.733C305.134 368.524 305.312 368.273 305.814 368.221C306.001 368.192 306.191 368.206 306.372 368.26C306.553 368.314 306.72 368.408 306.86 368.534C307.843 369.329 308.042 371.4 308.052 371.495C308.057 371.526 308.052 371.559 308.039 371.588C308.026 371.618 308.005 371.643 307.979 371.662C307.957 371.674 307.932 371.681 307.907 371.683C307.882 371.685 307.857 371.681 307.833 371.672ZM305.96 368.534H305.845C305.521 368.534 305.5 368.702 305.49 368.744C305.406 369.267 306.661 370.574 307.582 371.139C307.491 370.26 307.125 369.433 306.536 368.775C306.386 368.646 306.199 368.569 306.002 368.555L305.96 368.534Z" fill="#1E60F6"/>
<path d="M316.285 371.484H308.597L307.833 353.691H315.521L316.285 371.484Z" fill="#FABDB4"/>
<path d="M362.424 371.484H354.736L350.876 353.691H358.554L362.424 371.484Z" fill="#FABDB4"/>
<path d="M354.192 370.595H362.821C362.975 370.596 363.124 370.649 363.244 370.746C363.364 370.843 363.447 370.978 363.48 371.128L364.997 377.959C365.032 378.125 365.028 378.297 364.987 378.462C364.946 378.627 364.869 378.78 364.76 378.911C364.651 379.041 364.515 379.146 364.36 379.217C364.206 379.287 364.037 379.322 363.867 379.318C360.855 379.266 359.391 379.088 355.594 379.088C353.261 379.088 348.449 379.339 345.217 379.339C341.985 379.339 341.577 376.201 342.895 375.856C348.815 374.559 351.043 372.77 352.937 371.076C353.281 370.765 353.728 370.593 354.192 370.595Z" fill="#263238"/>
<path d="M308.649 370.595H317.017C317.171 370.596 317.32 370.649 317.44 370.746C317.559 370.843 317.643 370.978 317.676 371.128L319.192 377.959C319.229 378.123 319.227 378.294 319.188 378.458C319.149 378.622 319.073 378.776 318.967 378.906C318.86 379.037 318.725 379.142 318.572 379.214C318.419 379.285 318.252 379.321 318.084 379.318C315.061 379.266 310.688 379.088 306.881 379.088C302.435 379.088 298.586 379.339 293.367 379.339C290.229 379.339 289.34 376.201 290.658 375.856C296.672 374.538 301.578 374.402 306.776 371.201C307.33 370.825 307.98 370.615 308.649 370.595Z" fill="#263238"/>
<path d="M304.956 120.966C298.53 120.468 292.137 119.62 285.804 118.425C282.666 117.818 279.465 117.138 276.285 116.28C273.026 115.446 269.825 114.398 266.704 113.142C265.898 112.807 265.082 112.441 264.277 112.096C263.37 111.65 262.497 111.139 261.662 110.569C260.156 109.575 258.859 108.54 257.572 107.515C255.009 105.423 252.635 103.331 250.25 101.186C245.575 96.856 241.139 92.3791 236.861 87.6721L240.711 83.373L255.888 94.2828C258.388 96.082 260.919 97.8497 263.409 99.5128C264.643 100.339 265.909 101.113 267.07 101.772C267.555 102.049 268.058 102.294 268.576 102.504C269.193 102.745 269.821 102.986 270.48 103.216C276.133 104.956 281.914 106.25 287.77 107.086C293.743 108.027 299.914 108.801 305.876 109.429L304.956 120.966Z" fill="#FABDB4"/>
<path d="M339.704 109.21C346.911 110.862 354.191 131.918 354.191 131.918L339.369 142.556C339.369 142.556 335.185 132.745 331.148 124.167C326.922 115.182 332.34 107.525 339.704 109.21Z" fill="#1E60F6"/>
<path opacity="0.4" d="M339.704 109.21C346.911 110.862 354.191 131.918 354.191 131.918L339.369 142.556C339.369 142.556 335.185 132.745 331.148 124.167C326.922 115.182 332.34 107.525 339.704 109.21Z" fill="black"/>
<path d="M335.552 120.716L332.612 127.295C335.656 133.864 338.439 140.37 339.181 142.107C339.077 134.335 337.602 124.691 335.552 120.716Z" fill="#1E60F6"/>
<path opacity="0.6" d="M335.552 120.716L332.612 127.295C335.656 133.864 338.439 140.37 339.181 142.107C339.077 134.335 337.602 124.691 335.552 120.716Z" fill="black"/>
<path d="M296.661 109.607C296.661 109.607 288.482 118.843 296.201 176.028H337.299C337.591 169.752 333.627 138.937 339.704 109.209C335.162 108.334 330.567 107.755 325.949 107.473C320.132 107.138 314.299 107.138 308.481 107.473C304.492 107.875 300.54 108.588 296.661 109.607Z" fill="#1E60F6"/>
<path opacity="0.4" d="M296.661 109.607C296.661 109.607 288.482 118.843 296.201 176.028H337.299C337.591 169.752 333.627 138.937 339.704 109.209C335.162 108.334 330.567 107.755 325.949 107.473C320.132 107.138 314.299 107.138 308.481 107.473C304.492 107.875 300.54 108.588 296.661 109.607Z" fill="black"/>
<path d="M293.618 120.716C293.346 122.881 293.137 125.444 293.001 128.467C297.06 127.249 300.916 125.437 304.444 123.09L293.618 120.716Z" fill="#1E60F6"/>
<path opacity="0.6" d="M293.618 120.716C293.346 122.881 293.137 125.444 293.001 128.467C297.06 127.249 300.916 125.437 304.444 123.09L293.618 120.716Z" fill="black"/>
<path d="M311.232 121.867C305.73 126.741 284.726 126.249 284.726 126.249L284.036 105.915C291.129 106.925 298.283 107.443 305.448 107.463C317.153 107.223 317.236 116.49 311.232 121.867Z" fill="#1E60F6"/>
<path opacity="0.4" d="M311.232 121.867C305.73 126.741 284.726 126.249 284.726 126.249L284.036 105.915C291.129 106.925 298.283 107.443 305.448 107.463C317.153 107.223 317.236 116.49 311.232 121.867Z" fill="black"/>
<path d="M240.91 83.4158L235.68 77.2549L230.042 83.5309C230.042 83.5309 233.515 89.3676 239.027 88.4471L240.91 83.4158Z" fill="#FABDB4"/>
<path d="M228.19 70.0684L226.161 78.1121L230 83.4885L235.638 77.2544L228.19 70.0684Z" fill="#FABDB4"/>
<path d="M307.833 353.702L308.23 362.865H315.919L315.521 353.702H307.833Z" fill="#CE6F64"/>
<path d="M358.564 353.702H350.876L352.863 362.865H360.551L358.564 353.702Z" fill="#CE6F64"/>
<path d="M312.456 71.6583C305.563 68.5203 303.387 54.5771 323.219 58.0603C323.219 58.0603 320.227 61.3657 326.294 63.4577C332.361 65.5497 327.288 78.4678 312.456 71.6583Z" fill="#263238"/>
<path d="M327.434 82.1183C325.458 89.4403 324.684 93.8963 320.112 96.9611C313.272 101.563 304.768 96.2812 304.496 88.4676C304.255 81.4489 307.529 70.581 315.426 69.0956C317.17 68.7539 318.971 68.8644 320.659 69.4167C322.348 69.9689 323.866 70.9445 325.071 72.2504C326.275 73.5563 327.124 75.149 327.538 76.8764C327.952 78.6039 327.916 80.4086 327.434 82.1183Z" fill="#FABDB4"/>
<path d="M322.947 61.7216C327.644 64.3366 334.004 65.9056 333.407 69.6294C332.623 74.1795 337.246 71.3344 336.169 78.102C335.468 82.5266 327.309 95.9363 321.525 95.2878C312.885 94.2418 313.983 81.104 313.952 74.1795C313.931 70.0897 313.743 56.5649 322.947 61.7216Z" fill="#263238"/>
<path d="M312.916 67.5898C310.824 68.0815 308.052 80.1418 316.159 81.2506C325.479 82.5163 312.916 67.5898 312.916 67.5898Z" fill="#263238"/>
<path d="M313.126 71.8671C310.563 72.0973 304.758 69.0116 305.469 64.3673C305.469 64.3359 309.141 69.7961 313.126 71.8671Z" fill="#263238"/>
<path d="M316.933 82.2124C316.146 83.937 314.811 85.3529 313.136 86.2395C310.929 87.3901 309.684 85.7165 310.186 83.499C310.636 81.5116 312.33 78.5095 314.6 78.2689C316.87 78.0284 317.843 80.1204 316.933 82.2124Z" fill="#FABDB4"/>
<path d="M328.439 73.7502C330.003 73.0718 331.373 72.0163 332.428 70.6783C333.483 69.3402 334.19 67.7613 334.485 66.083C334.485 66.083 337.937 75.6748 328.439 73.7502Z" fill="#263238"/>
<path d="M337.163 73.5938C336.435 73.1049 335.597 72.8041 334.725 72.7183C333.852 72.6325 332.972 72.7644 332.163 73.1022C332.163 73.1022 335.385 68.9286 337.163 73.5938Z" fill="#263238"/>
<path d="M310.782 176.028C310.782 176.028 319.506 234.751 324.286 256.748C329.516 280.806 349.285 361.097 349.285 361.097H363.354C363.354 361.097 350.331 282.783 347.34 258.892C344.097 233.004 337.298 175.986 337.298 175.986L310.782 176.028Z" fill="#1E60F6"/>
<path opacity="0.5" d="M310.782 176.028C310.782 176.028 319.506 234.751 324.286 256.748C329.516 280.806 349.285 361.097 349.285 361.097H363.354C363.354 361.097 350.331 282.783 347.34 258.892C344.097 233.004 337.298 175.986 337.298 175.986L310.782 176.028Z" fill="white"/>
<path d="M347.037 355.909C346.974 355.909 348.491 361.317 348.491 361.317H364.327L364.035 356.495L347.037 355.909Z" fill="#1E60F6"/>
<path opacity="0.1" d="M347.037 355.909C346.974 355.909 348.491 361.317 348.491 361.317H364.327L364.035 356.495L347.037 355.909Z" fill="black"/>
<path d="M316.295 196.948C326.379 198.925 325.312 236.528 324.098 255.869C321.19 242.198 316.933 215.891 314.025 197.22C314.729 196.873 315.53 196.777 316.295 196.948Z" fill="#1E60F6"/>
<path opacity="0.4" d="M316.295 196.948C326.379 198.925 325.312 236.528 324.098 255.869C321.19 242.198 316.933 215.891 314.025 197.22C314.729 196.873 315.53 196.777 316.295 196.948Z" fill="white"/>
<path d="M296.202 176.028C296.202 176.028 295.156 233.475 295.982 256.915C296.85 281.287 305.396 361.097 305.396 361.097H318.408C318.408 361.097 318.889 282.71 319.454 258.777C320.092 232.68 323.241 176.028 323.241 176.028H296.202Z" fill="#1E60F6"/>
<path opacity="0.5" d="M296.202 176.028C296.202 176.028 295.156 233.475 295.982 256.915C296.85 281.287 305.396 361.097 305.396 361.097H318.408C318.408 361.097 318.889 282.71 319.454 258.777C320.092 232.68 323.241 176.028 323.241 176.028H296.202Z" fill="white"/>
<path d="M308.095 351.745C308.063 351.745 308.033 351.734 308.01 351.712C307.986 351.691 307.972 351.662 307.969 351.63C305.668 329.539 300.26 276.088 299.601 256.915C298.9 237.344 299.538 193.433 299.748 180.442C299.748 180.409 299.761 180.377 299.784 180.353C299.808 180.33 299.84 180.316 299.873 180.316C299.908 180.316 299.941 180.329 299.966 180.352C299.991 180.376 300.007 180.408 300.009 180.442C299.8 193.433 299.162 237.344 299.863 256.905C300.543 276.078 305.951 329.507 308.231 351.599C308.231 351.634 308.219 351.669 308.196 351.696C308.172 351.723 308.14 351.74 308.105 351.745H308.095Z" fill="#1E60F6"/>
<path opacity="0.4" d="M308.095 351.745C308.063 351.745 308.033 351.734 308.01 351.712C307.986 351.691 307.972 351.662 307.969 351.63C305.668 329.539 300.26 276.088 299.601 256.915C298.9 237.344 299.538 193.433 299.748 180.442C299.748 180.409 299.761 180.377 299.784 180.353C299.808 180.33 299.84 180.316 299.873 180.316C299.908 180.316 299.941 180.329 299.966 180.352C299.991 180.376 300.007 180.408 300.009 180.442C299.8 193.433 299.162 237.344 299.863 256.905C300.543 276.078 305.951 329.507 308.231 351.599C308.231 351.634 308.219 351.669 308.196 351.696C308.172 351.723 308.14 351.74 308.105 351.745H308.095Z" fill="white"/>
<path d="M302.865 355.909C302.812 355.909 303.607 361.317 303.607 361.317H319.433L319.862 356.495L302.865 355.909Z" fill="#1E60F6"/>
<path opacity="0.1" d="M302.865 355.909C302.812 355.909 303.607 361.317 303.607 361.317H319.433L319.862 356.495L302.865 355.909Z" fill="black"/>
<path d="M175.024 210.997C176.802 205.785 180.258 201.075 185.392 196.867C190.526 192.659 196.898 189.881 204.508 188.533C212.097 187.197 220.169 187.972 228.722 190.857C236.675 193.542 243.194 197.378 248.278 202.368C253.105 206.911 256.585 212.697 258.336 219.09C259.927 225.034 259.709 231.318 257.71 237.138C256.37 241.426 253.972 245.308 250.737 248.425C247.832 251.18 244.524 253.476 240.926 255.232C237.464 256.907 231.346 259.615 222.573 263.356C220.522 264.239 218.52 265.23 216.575 266.324C215.239 267.068 213.999 267.971 212.88 269.012C212.001 269.855 211.21 270.784 210.519 271.786C209.855 272.759 208.77 274.477 207.26 276.962C204.289 282.309 200.065 284.057 194.589 282.206C193.254 281.791 192.014 281.116 190.942 280.219C189.87 279.322 188.986 278.221 188.341 276.98C187.03 274.461 186.994 271.365 188.232 267.694C190.575 259.898 195.915 253.351 203.081 249.49C207.189 247.343 211.403 245.405 215.707 243.684C220.248 241.793 223.568 240.34 225.654 239.302C227.73 238.279 229.652 236.97 231.364 235.413C233.078 233.87 234.358 231.906 235.079 229.716C235.818 227.633 236.099 225.416 235.902 223.214C235.705 221.013 235.036 218.88 233.94 216.962C231.686 212.835 228 209.9 222.882 208.157C216.849 206.122 211.896 206.145 208.024 208.228C204.152 210.311 200.219 213.987 196.226 219.257C192.277 224.82 187.704 226.732 182.507 224.993C181.048 224.533 179.701 223.774 178.552 222.764C177.404 221.753 176.478 220.514 175.836 219.126C175.168 217.892 174.753 216.538 174.614 215.143C174.474 213.747 174.614 212.338 175.024 210.997ZM184.68 314.6C181.443 313.556 178.712 311.341 177.023 308.389C175.264 305.387 175.039 301.939 176.347 298.046C176.869 296.414 177.724 294.909 178.857 293.624C179.99 292.34 181.378 291.304 182.932 290.583C184.488 289.823 186.182 289.384 187.913 289.292C189.643 289.201 191.374 289.459 193.002 290.052C194.626 290.572 196.129 291.414 197.421 292.527C198.714 293.639 199.769 295 200.525 296.529C201.282 298.058 201.723 299.723 201.823 301.425C201.923 303.128 201.68 304.833 201.109 306.44C199.813 310.272 197.567 312.866 194.371 314.222C191.305 315.571 187.841 315.706 184.68 314.6Z" fill="#1E60F6"/>
<g opacity="0.5">
<path d="M118.306 270.472C116.697 268.764 115.61 266.632 115.171 264.327C114.612 261.598 114.77 258.771 115.629 256.121C116.618 253.029 118.376 250.239 120.737 248.012C122.838 245.85 125.402 244.193 128.236 243.165C130.689 242.273 133.34 242.074 135.9 242.589C138.288 243.076 140.477 244.268 142.183 246.009C143.455 247.241 144.395 248.774 144.917 250.467C145.373 251.977 145.595 253.548 145.576 255.126C145.554 256.638 145.423 259.271 145.183 263.026C145.125 263.904 145.119 264.784 145.164 265.662C145.187 266.264 145.285 266.859 145.456 267.436C145.593 267.896 145.78 268.34 146.011 268.76C146.236 269.164 146.648 269.85 147.23 270.81C148.578 272.825 148.445 274.621 146.829 276.198C146.446 276.594 145.989 276.911 145.483 277.13C144.978 277.348 144.434 277.465 143.882 277.473C143.253 277.447 142.636 277.291 142.07 277.014C141.505 276.736 141.003 276.344 140.597 275.862C138.271 273.657 136.914 270.619 136.824 267.414C136.789 265.587 136.846 263.76 136.994 261.938C137.139 260.01 137.211 258.582 137.221 257.664C137.227 256.753 137.107 255.845 136.862 254.968C136.622 254.091 136.157 253.291 135.514 252.648C134.913 252.019 134.183 251.527 133.374 251.207C132.565 250.887 131.696 250.745 130.828 250.792C128.916 250.895 127.118 251.732 125.809 253.129C124.022 254.89 123.154 256.632 123.204 258.355C123.358 260.49 123.966 262.567 124.986 264.448C126.243 266.829 126.09 268.774 124.528 270.285C124.106 270.716 123.6 271.054 123.04 271.279C122.481 271.503 121.88 271.609 121.278 271.589C120.733 271.61 120.19 271.521 119.68 271.329C119.169 271.137 118.703 270.846 118.306 270.472ZM156.482 285.442C155.541 286.395 154.278 286.963 152.941 287.035C152.241 287.066 151.543 286.941 150.897 286.67C150.251 286.398 149.673 285.987 149.205 285.466C148.72 284.996 148.338 284.429 148.084 283.803C147.831 283.177 147.71 282.504 147.731 281.829C147.741 281.146 147.888 280.472 148.165 279.848C148.441 279.224 148.841 278.662 149.34 278.196C149.811 277.717 150.374 277.337 150.994 277.08C151.615 276.822 152.28 276.692 152.952 276.696C153.624 276.701 154.288 276.84 154.905 277.106C155.521 277.372 156.079 277.759 156.543 278.245C157.061 278.719 157.467 279.302 157.734 279.952C158 280.601 158.119 281.302 158.083 282.003C158.003 283.31 157.431 284.539 156.482 285.442Z" fill="#1E60F6"/>
</g>
<g opacity="0.1">
<path d="M46.3402 93.4164C44.9459 83.9151 46.2764 74.2131 50.1771 65.4379C54.6469 54.9731 61.7753 45.8588 70.8549 38.9994C81.3772 30.9869 93.7696 25.7914 106.86 23.9046C118.965 21.5391 131.449 21.9578 143.368 25.129C153.696 27.8732 163.071 33.4024 170.47 41.1128C177.402 48.325 182.015 57.4487 183.713 67.3071C185.117 74.4153 184.707 81.7627 182.521 88.6706C180.502 94.7861 177.581 100.566 173.856 105.82C170.218 110.889 163.619 119.417 154.059 131.404C151.844 134.241 149.777 137.189 147.864 140.238C145.468 143.972 143.96 148.206 143.455 152.614C143.283 154.534 143.067 157.806 142.861 162.455C143.086 164.498 142.903 166.565 142.324 168.538C141.745 170.51 140.78 172.347 139.486 173.944C138.192 175.541 136.594 176.866 134.785 177.841C132.976 178.817 130.991 179.424 128.945 179.627C124.499 180.49 119.892 179.553 116.137 177.02C114.071 175.475 112.352 173.514 111.091 171.263C109.83 169.012 109.055 166.522 108.816 163.954C107.473 157.13 107.516 150.106 108.942 143.299C110.269 137.439 112.616 131.858 115.876 126.811C120.007 120.585 124.461 114.581 129.221 108.822C134.23 102.64 137.779 98.0507 139.989 94.9214C142.174 91.7885 143.93 88.3773 145.21 84.7788C146.429 81.2544 146.722 77.4758 146.06 73.8056C145.502 70.294 144.192 66.9444 142.221 63.9852C140.249 61.0261 137.662 58.5271 134.637 56.659C127.927 52.4912 119.85 51.12 112.14 52.8398C108.042 53.1956 104.063 54.3979 100.453 56.3708C96.8439 58.3436 93.6832 61.044 91.1712 64.3012C86.716 71.8422 83.9165 80.245 82.9586 88.9512C81.6221 99.8944 76.5607 106.053 67.8317 107.578C65.4169 108.039 62.9329 107.995 60.5358 107.449C58.1388 106.904 55.8804 105.868 53.9028 104.408C51.9694 103.177 50.3036 101.569 49.0043 99.6809C47.7051 97.7926 46.799 95.6622 46.3402 93.4164ZM139.66 232.826C134.278 233.802 128.725 232.763 124.06 229.906C121.612 228.366 119.541 226.294 118.001 223.846C116.461 221.398 115.491 218.634 115.162 215.761C114.631 213.051 114.667 210.261 115.27 207.567C115.874 204.873 117.03 202.333 118.666 200.109C120.288 197.834 122.35 195.907 124.73 194.442C127.11 192.977 129.759 192.004 132.522 191.582C135.222 191.067 137.999 191.106 140.684 191.695C143.369 192.284 145.907 193.412 148.144 195.01C150.412 196.571 152.334 198.582 153.79 200.918C155.246 203.254 156.206 205.865 156.609 208.588C157.236 211.392 157.241 214.3 156.622 217.106C156.004 219.912 154.777 222.548 153.029 224.829C149.731 229.074 144.96 231.928 139.66 232.826Z" fill="#1E60F6"/>
</g>
</g>
<defs>
<clipPath id="clip0_1093_35404">
<rect width="524" height="391" fill="white"/>
</clipPath>
</defs>
</svg>
